%TF.GenerationSoftware,KiCad,Pcbnew,5.1.7-a382d34a8~87~ubuntu20.04.1*%
%TF.CreationDate,2021-02-22T15:40:43+01:00*%
%TF.ProjectId,smartyreader_ng_lora,736d6172-7479-4726-9561-6465725f6e67,rev?*%
%TF.SameCoordinates,Original*%
%TF.FileFunction,Soldermask,Bot*%
%TF.FilePolarity,Negative*%
%FSLAX46Y46*%
G04 Gerber Fmt 4.6, Leading zero omitted, Abs format (unit mm)*
G04 Created by KiCad (PCBNEW 5.1.7-a382d34a8~87~ubuntu20.04.1) date 2021-02-22 15:40:43*
%MOMM*%
%LPD*%
G01*
G04 APERTURE LIST*
%ADD10C,5.528260*%
%ADD11C,3.000000*%
%ADD12C,2.398980*%
%ADD13O,1.900000X2.398980*%
%ADD14C,1.900000*%
%ADD15O,2.400000X1.900000*%
%ADD16C,2.400000*%
%ADD17C,3.900000*%
G04 APERTURE END LIST*
D10*
%TO.C,AD1*%
X104140000Y-107950000D03*
%TD*%
%TO.C,AD1*%
X153670000Y-130810000D03*
%TD*%
D11*
%TO.C,J7*%
X126365000Y-108458000D03*
%TD*%
D12*
%TO.C,C3*%
X126619000Y-130810000D03*
X124079000Y-130810000D03*
%TD*%
%TO.C,C1*%
X120523000Y-125730000D03*
X120523000Y-123190000D03*
%TD*%
%TO.C,C2*%
X112649000Y-130937000D03*
G36*
G01*
X108909510Y-131936490D02*
X108909510Y-129937510D01*
G75*
G02*
X109109510Y-129737510I200000J0D01*
G01*
X111108490Y-129737510D01*
G75*
G02*
X111308490Y-129937510I0J-200000D01*
G01*
X111308490Y-131936490D01*
G75*
G02*
X111108490Y-132136490I-200000J0D01*
G01*
X109109510Y-132136490D01*
G75*
G02*
X108909510Y-131936490I0J200000D01*
G01*
G37*
%TD*%
%TO.C,R4*%
X117983000Y-121412000D03*
X117983000Y-111252000D03*
%TD*%
%TO.C,J3*%
G36*
G01*
X149789490Y-126000510D02*
X149789490Y-127999490D01*
G75*
G02*
X149589490Y-128199490I-200000J0D01*
G01*
X147590510Y-128199490D01*
G75*
G02*
X147390510Y-127999490I0J200000D01*
G01*
X147390510Y-126000510D01*
G75*
G02*
X147590510Y-125800510I200000J0D01*
G01*
X149589490Y-125800510D01*
G75*
G02*
X149789490Y-126000510I0J-200000D01*
G01*
G37*
X146050000Y-127000000D03*
X148590000Y-124460000D03*
X146050000Y-124460000D03*
X148590000Y-121920000D03*
X146050000Y-121920000D03*
X148590000Y-119380000D03*
X146050000Y-119380000D03*
X148590000Y-116840000D03*
X146050000Y-116840000D03*
%TD*%
%TO.C,U1*%
G36*
G01*
X143310000Y-112326000D02*
X142310000Y-112326000D01*
G75*
G02*
X142110000Y-112126000I0J200000D01*
G01*
X142110000Y-110126000D01*
G75*
G02*
X142310000Y-109926000I200000J0D01*
G01*
X143310000Y-109926000D01*
G75*
G02*
X143510000Y-110126000I0J-200000D01*
G01*
X143510000Y-112126000D01*
G75*
G02*
X143310000Y-112326000I-200000J0D01*
G01*
G37*
G36*
G01*
X141310000Y-112326000D02*
X140310000Y-112326000D01*
G75*
G02*
X140110000Y-112126000I0J200000D01*
G01*
X140110000Y-110126000D01*
G75*
G02*
X140310000Y-109926000I200000J0D01*
G01*
X141310000Y-109926000D01*
G75*
G02*
X141510000Y-110126000I0J-200000D01*
G01*
X141510000Y-112126000D01*
G75*
G02*
X141310000Y-112326000I-200000J0D01*
G01*
G37*
G36*
G01*
X139310000Y-112326000D02*
X138310000Y-112326000D01*
G75*
G02*
X138110000Y-112126000I0J200000D01*
G01*
X138110000Y-110126000D01*
G75*
G02*
X138310000Y-109926000I200000J0D01*
G01*
X139310000Y-109926000D01*
G75*
G02*
X139510000Y-110126000I0J-200000D01*
G01*
X139510000Y-112126000D01*
G75*
G02*
X139310000Y-112326000I-200000J0D01*
G01*
G37*
G36*
G01*
X137310000Y-112326000D02*
X136310000Y-112326000D01*
G75*
G02*
X136110000Y-112126000I0J200000D01*
G01*
X136110000Y-110126000D01*
G75*
G02*
X136310000Y-109926000I200000J0D01*
G01*
X137310000Y-109926000D01*
G75*
G02*
X137510000Y-110126000I0J-200000D01*
G01*
X137510000Y-112126000D01*
G75*
G02*
X137310000Y-112326000I-200000J0D01*
G01*
G37*
G36*
G01*
X135310000Y-112326000D02*
X134310000Y-112326000D01*
G75*
G02*
X134110000Y-112126000I0J200000D01*
G01*
X134110000Y-110126000D01*
G75*
G02*
X134310000Y-109926000I200000J0D01*
G01*
X135310000Y-109926000D01*
G75*
G02*
X135510000Y-110126000I0J-200000D01*
G01*
X135510000Y-112126000D01*
G75*
G02*
X135310000Y-112326000I-200000J0D01*
G01*
G37*
G36*
G01*
X133310000Y-112326000D02*
X132310000Y-112326000D01*
G75*
G02*
X132110000Y-112126000I0J200000D01*
G01*
X132110000Y-110126000D01*
G75*
G02*
X132310000Y-109926000I200000J0D01*
G01*
X133310000Y-109926000D01*
G75*
G02*
X133510000Y-110126000I0J-200000D01*
G01*
X133510000Y-112126000D01*
G75*
G02*
X133310000Y-112326000I-200000J0D01*
G01*
G37*
G36*
G01*
X131310000Y-112326000D02*
X130310000Y-112326000D01*
G75*
G02*
X130110000Y-112126000I0J200000D01*
G01*
X130110000Y-110126000D01*
G75*
G02*
X130310000Y-109926000I200000J0D01*
G01*
X131310000Y-109926000D01*
G75*
G02*
X131510000Y-110126000I0J-200000D01*
G01*
X131510000Y-112126000D01*
G75*
G02*
X131310000Y-112326000I-200000J0D01*
G01*
G37*
G36*
G01*
X129310000Y-112326000D02*
X128310000Y-112326000D01*
G75*
G02*
X128110000Y-112126000I0J200000D01*
G01*
X128110000Y-110126000D01*
G75*
G02*
X128310000Y-109926000I200000J0D01*
G01*
X129310000Y-109926000D01*
G75*
G02*
X129510000Y-110126000I0J-200000D01*
G01*
X129510000Y-112126000D01*
G75*
G02*
X129310000Y-112326000I-200000J0D01*
G01*
G37*
G36*
G01*
X129310000Y-128326000D02*
X128310000Y-128326000D01*
G75*
G02*
X128110000Y-128126000I0J200000D01*
G01*
X128110000Y-126126000D01*
G75*
G02*
X128310000Y-125926000I200000J0D01*
G01*
X129310000Y-125926000D01*
G75*
G02*
X129510000Y-126126000I0J-200000D01*
G01*
X129510000Y-128126000D01*
G75*
G02*
X129310000Y-128326000I-200000J0D01*
G01*
G37*
G36*
G01*
X131310000Y-128326000D02*
X130310000Y-128326000D01*
G75*
G02*
X130110000Y-128126000I0J200000D01*
G01*
X130110000Y-126126000D01*
G75*
G02*
X130310000Y-125926000I200000J0D01*
G01*
X131310000Y-125926000D01*
G75*
G02*
X131510000Y-126126000I0J-200000D01*
G01*
X131510000Y-128126000D01*
G75*
G02*
X131310000Y-128326000I-200000J0D01*
G01*
G37*
G36*
G01*
X133310000Y-128326000D02*
X132310000Y-128326000D01*
G75*
G02*
X132110000Y-128126000I0J200000D01*
G01*
X132110000Y-126126000D01*
G75*
G02*
X132310000Y-125926000I200000J0D01*
G01*
X133310000Y-125926000D01*
G75*
G02*
X133510000Y-126126000I0J-200000D01*
G01*
X133510000Y-128126000D01*
G75*
G02*
X133310000Y-128326000I-200000J0D01*
G01*
G37*
G36*
G01*
X135310000Y-128326000D02*
X134310000Y-128326000D01*
G75*
G02*
X134110000Y-128126000I0J200000D01*
G01*
X134110000Y-126126000D01*
G75*
G02*
X134310000Y-125926000I200000J0D01*
G01*
X135310000Y-125926000D01*
G75*
G02*
X135510000Y-126126000I0J-200000D01*
G01*
X135510000Y-128126000D01*
G75*
G02*
X135310000Y-128326000I-200000J0D01*
G01*
G37*
G36*
G01*
X137310000Y-128326000D02*
X136310000Y-128326000D01*
G75*
G02*
X136110000Y-128126000I0J200000D01*
G01*
X136110000Y-126126000D01*
G75*
G02*
X136310000Y-125926000I200000J0D01*
G01*
X137310000Y-125926000D01*
G75*
G02*
X137510000Y-126126000I0J-200000D01*
G01*
X137510000Y-128126000D01*
G75*
G02*
X137310000Y-128326000I-200000J0D01*
G01*
G37*
G36*
G01*
X139310000Y-128326000D02*
X138310000Y-128326000D01*
G75*
G02*
X138110000Y-128126000I0J200000D01*
G01*
X138110000Y-126126000D01*
G75*
G02*
X138310000Y-125926000I200000J0D01*
G01*
X139310000Y-125926000D01*
G75*
G02*
X139510000Y-126126000I0J-200000D01*
G01*
X139510000Y-128126000D01*
G75*
G02*
X139310000Y-128326000I-200000J0D01*
G01*
G37*
G36*
G01*
X141310000Y-128326000D02*
X140310000Y-128326000D01*
G75*
G02*
X140110000Y-128126000I0J200000D01*
G01*
X140110000Y-126126000D01*
G75*
G02*
X140310000Y-125926000I200000J0D01*
G01*
X141310000Y-125926000D01*
G75*
G02*
X141510000Y-126126000I0J-200000D01*
G01*
X141510000Y-128126000D01*
G75*
G02*
X141310000Y-128326000I-200000J0D01*
G01*
G37*
G36*
G01*
X143310000Y-128326000D02*
X142310000Y-128326000D01*
G75*
G02*
X142110000Y-128126000I0J200000D01*
G01*
X142110000Y-126126000D01*
G75*
G02*
X142310000Y-125926000I200000J0D01*
G01*
X143310000Y-125926000D01*
G75*
G02*
X143510000Y-126126000I0J-200000D01*
G01*
X143510000Y-128126000D01*
G75*
G02*
X143310000Y-128326000I-200000J0D01*
G01*
G37*
%TD*%
%TO.C,JP2*%
G36*
G01*
X144511000Y-112969000D02*
X145811000Y-112969000D01*
G75*
G02*
X146011000Y-113169000I0J-200000D01*
G01*
X146011000Y-114669000D01*
G75*
G02*
X145811000Y-114869000I-200000J0D01*
G01*
X144511000Y-114869000D01*
G75*
G02*
X144311000Y-114669000I0J200000D01*
G01*
X144311000Y-113169000D01*
G75*
G02*
X144511000Y-112969000I200000J0D01*
G01*
G37*
G36*
G01*
X144511000Y-110269000D02*
X145811000Y-110269000D01*
G75*
G02*
X146011000Y-110469000I0J-200000D01*
G01*
X146011000Y-111969000D01*
G75*
G02*
X145811000Y-112169000I-200000J0D01*
G01*
X144511000Y-112169000D01*
G75*
G02*
X144311000Y-111969000I0J200000D01*
G01*
X144311000Y-110469000D01*
G75*
G02*
X144511000Y-110269000I200000J0D01*
G01*
G37*
%TD*%
%TO.C,JP1*%
G36*
G01*
X143736000Y-106314000D02*
X143736000Y-105014000D01*
G75*
G02*
X143936000Y-104814000I200000J0D01*
G01*
X145436000Y-104814000D01*
G75*
G02*
X145636000Y-105014000I0J-200000D01*
G01*
X145636000Y-106314000D01*
G75*
G02*
X145436000Y-106514000I-200000J0D01*
G01*
X143936000Y-106514000D01*
G75*
G02*
X143736000Y-106314000I0J200000D01*
G01*
G37*
G36*
G01*
X141036000Y-106314000D02*
X141036000Y-105014000D01*
G75*
G02*
X141236000Y-104814000I200000J0D01*
G01*
X142736000Y-104814000D01*
G75*
G02*
X142936000Y-105014000I0J-200000D01*
G01*
X142936000Y-106314000D01*
G75*
G02*
X142736000Y-106514000I-200000J0D01*
G01*
X141236000Y-106514000D01*
G75*
G02*
X141036000Y-106314000I0J200000D01*
G01*
G37*
%TD*%
%TO.C,W1*%
X148590000Y-130810000D03*
X146050000Y-130810000D03*
X143510000Y-130810000D03*
X140970000Y-130810000D03*
X138430000Y-130810000D03*
X135890000Y-130810000D03*
X133350000Y-130810000D03*
X130810000Y-130810000D03*
G36*
G01*
X149789490Y-106950510D02*
X149789490Y-108949490D01*
G75*
G02*
X149589490Y-109149490I-200000J0D01*
G01*
X147590510Y-109149490D01*
G75*
G02*
X147390510Y-108949490I0J200000D01*
G01*
X147390510Y-106950510D01*
G75*
G02*
X147590510Y-106750510I200000J0D01*
G01*
X149589490Y-106750510D01*
G75*
G02*
X149789490Y-106950510I0J-200000D01*
G01*
G37*
D13*
X146050000Y-107950000D03*
X143510000Y-107950000D03*
X140970000Y-107950000D03*
X138430000Y-107950000D03*
D12*
X135890000Y-107950000D03*
X133350000Y-107950000D03*
X130810000Y-107950000D03*
%TD*%
%TO.C,J2*%
X110490000Y-107950000D03*
X113030000Y-107950000D03*
X115570000Y-107950000D03*
G36*
G01*
X119309490Y-106950510D02*
X119309490Y-108949490D01*
G75*
G02*
X119109490Y-109149490I-200000J0D01*
G01*
X117110510Y-109149490D01*
G75*
G02*
X116910510Y-108949490I0J200000D01*
G01*
X116910510Y-106950510D01*
G75*
G02*
X117110510Y-106750510I200000J0D01*
G01*
X119109490Y-106750510D01*
G75*
G02*
X119309490Y-106950510I0J-200000D01*
G01*
G37*
%TD*%
%TO.C,J4*%
X105410000Y-131191000D03*
G36*
G01*
X101670510Y-132190490D02*
X101670510Y-130191510D01*
G75*
G02*
X101870510Y-129991510I200000J0D01*
G01*
X103869490Y-129991510D01*
G75*
G02*
X104069490Y-130191510I0J-200000D01*
G01*
X104069490Y-132190490D01*
G75*
G02*
X103869490Y-132390490I-200000J0D01*
G01*
X101870510Y-132390490D01*
G75*
G02*
X101670510Y-132190490I0J200000D01*
G01*
G37*
%TD*%
%TO.C,J5*%
G36*
G01*
X115640510Y-131809490D02*
X115640510Y-129810510D01*
G75*
G02*
X115840510Y-129610510I200000J0D01*
G01*
X117839490Y-129610510D01*
G75*
G02*
X118039490Y-129810510I0J-200000D01*
G01*
X118039490Y-131809490D01*
G75*
G02*
X117839490Y-132009490I-200000J0D01*
G01*
X115840510Y-132009490D01*
G75*
G02*
X115640510Y-131809490I0J200000D01*
G01*
G37*
X119380000Y-130810000D03*
%TD*%
D14*
%TO.C,J1*%
X111125000Y-120015000D03*
D15*
X111125000Y-117475000D03*
D16*
X111125000Y-122555000D03*
D15*
X113665000Y-116205000D03*
X113665000Y-118745000D03*
D16*
X113665000Y-121285000D03*
D17*
X104775000Y-124460000D03*
X104775000Y-114300000D03*
%TD*%
M02*
