%TF.GenerationSoftware,KiCad,Pcbnew,5.1.9+dfsg1-1*%
%TF.CreationDate,2021-05-22T16:02:53+02:00*%
%TF.ProjectId,smartyreader_ng_lora,736d6172-7479-4726-9561-6465725f6e67,rev?*%
%TF.SameCoordinates,Original*%
%TF.FileFunction,Copper,L2,Bot*%
%TF.FilePolarity,Positive*%
%FSLAX46Y46*%
G04 Gerber Fmt 4.6, Leading zero omitted, Abs format (unit mm)*
G04 Created by KiCad (PCBNEW 5.1.9+dfsg1-1) date 2021-05-22 16:02:53*
%MOMM*%
%LPD*%
G01*
G04 APERTURE LIST*
%TA.AperFunction,SMDPad,CuDef*%
%ADD10R,1.300000X1.500000*%
%TD*%
%TA.AperFunction,ComponentPad*%
%ADD11C,2.600000*%
%TD*%
%TA.AperFunction,ComponentPad*%
%ADD12C,1.998980*%
%TD*%
%TA.AperFunction,ComponentPad*%
%ADD13R,1.998980X1.998980*%
%TD*%
%TA.AperFunction,SMDPad,CuDef*%
%ADD14R,1.000000X2.000000*%
%TD*%
%TA.AperFunction,ComponentPad*%
%ADD15O,1.500000X1.998980*%
%TD*%
%TA.AperFunction,ComponentPad*%
%ADD16C,1.500000*%
%TD*%
%TA.AperFunction,ComponentPad*%
%ADD17O,2.000000X1.500000*%
%TD*%
%TA.AperFunction,ComponentPad*%
%ADD18C,2.000000*%
%TD*%
%TA.AperFunction,ComponentPad*%
%ADD19C,3.500000*%
%TD*%
%TA.AperFunction,ComponentPad*%
%ADD20C,5.128260*%
%TD*%
%TA.AperFunction,ViaPad*%
%ADD21C,2.000000*%
%TD*%
%TA.AperFunction,Conductor*%
%ADD22C,0.500000*%
%TD*%
%TA.AperFunction,Conductor*%
%ADD23C,0.400000*%
%TD*%
%TA.AperFunction,Conductor*%
%ADD24C,1.000000*%
%TD*%
%TA.AperFunction,Conductor*%
%ADD25C,0.254000*%
%TD*%
%TA.AperFunction,Conductor*%
%ADD26C,0.100000*%
%TD*%
G04 APERTURE END LIST*
D10*
%TO.P,D2,1*%
%TO.N,Net-(D2-Pad1)*%
X155956000Y-110410000D03*
%TO.P,D2,2*%
%TO.N,Net-(D1-Pad2)*%
X155956000Y-113110000D03*
%TD*%
%TO.P,D1,2*%
%TO.N,Net-(D1-Pad2)*%
X153670000Y-113030000D03*
%TO.P,D1,1*%
%TO.N,Net-(D1-Pad1)*%
X153670000Y-110330000D03*
%TD*%
D11*
%TO.P,J7,1*%
%TO.N,Net-(J6-Pad1)*%
X126365000Y-108458000D03*
%TD*%
D12*
%TO.P,C3,2*%
%TO.N,~*%
X126619000Y-130810000D03*
%TO.P,C3,1*%
%TO.N,+3.3V*%
X124079000Y-130810000D03*
%TD*%
%TO.P,C1,2*%
%TO.N,~*%
X120523000Y-125730000D03*
%TO.P,C1,1*%
%TO.N,+5V*%
X120523000Y-123190000D03*
%TD*%
%TO.P,C2,2*%
%TO.N,~*%
X112649000Y-130937000D03*
D13*
%TO.P,C2,1*%
%TO.N,+5V*%
X110109000Y-130937000D03*
%TD*%
D12*
%TO.P,R4,2*%
%TO.N,Net-(J1-Pad5)*%
X117983000Y-121412000D03*
%TO.P,R4,1*%
%TO.N,+3.3V*%
X117983000Y-111252000D03*
%TD*%
D13*
%TO.P,J3,1*%
%TO.N,N/C*%
X148590000Y-127000000D03*
D12*
%TO.P,J3,2*%
X146050000Y-127000000D03*
%TO.P,J3,3*%
%TO.N,~*%
X148590000Y-124460000D03*
%TO.P,J3,4*%
%TO.N,Net-(J3-Pad4)*%
X146050000Y-124460000D03*
%TO.P,J3,5*%
%TO.N,Net-(J3-Pad5)*%
X148590000Y-121920000D03*
%TO.P,J3,6*%
%TO.N,Net-(J3-Pad6)*%
X146050000Y-121920000D03*
%TO.P,J3,7*%
%TO.N,Net-(D1-Pad2)*%
X148590000Y-119380000D03*
%TO.P,J3,8*%
%TO.N,N/C*%
X146050000Y-119380000D03*
%TO.P,J3,9*%
%TO.N,+5V*%
X148590000Y-116840000D03*
%TO.P,J3,10*%
%TO.N,~*%
X146050000Y-116840000D03*
%TD*%
D14*
%TO.P,U1,16*%
%TO.N,N/C*%
X142810000Y-111126000D03*
%TO.P,U1,15*%
%TO.N,Net-(D2-Pad1)*%
X140810000Y-111126000D03*
%TO.P,U1,14*%
%TO.N,Net-(D1-Pad1)*%
X138810000Y-111126000D03*
%TO.P,U1,13*%
%TO.N,+3.3V*%
X136810000Y-111126000D03*
%TO.P,U1,12*%
%TO.N,N/C*%
X134810000Y-111126000D03*
%TO.P,U1,11*%
X132810000Y-111126000D03*
%TO.P,U1,10*%
%TO.N,~*%
X130810000Y-111126000D03*
%TO.P,U1,9*%
%TO.N,Net-(J6-Pad1)*%
X128810000Y-111126000D03*
%TO.P,U1,8*%
%TO.N,~*%
X128810000Y-127126000D03*
%TO.P,U1,7*%
%TO.N,N/C*%
X130810000Y-127126000D03*
%TO.P,U1,6*%
%TO.N,Net-(U1-Pad6)*%
X132810000Y-127126000D03*
%TO.P,U1,5*%
%TO.N,Net-(U1-Pad5)*%
X134810000Y-127126000D03*
%TO.P,U1,4*%
%TO.N,Net-(J3-Pad6)*%
X136810000Y-127126000D03*
%TO.P,U1,3*%
%TO.N,Net-(J3-Pad5)*%
X138810000Y-127126000D03*
%TO.P,U1,2*%
%TO.N,Net-(J3-Pad4)*%
X140810000Y-127126000D03*
%TO.P,U1,1*%
%TO.N,~*%
X142810000Y-127126000D03*
%TD*%
D12*
%TO.P,W1,16*%
%TO.N,+3.3V*%
X148590000Y-130810000D03*
%TO.P,W1,15*%
%TO.N,Net-(D1-Pad2)*%
X146050000Y-130810000D03*
%TO.P,W1,14*%
%TO.N,Net-(J3-Pad5)*%
X143510000Y-130810000D03*
%TO.P,W1,13*%
%TO.N,Net-(J3-Pad4)*%
X140970000Y-130810000D03*
%TO.P,W1,12*%
%TO.N,Net-(J3-Pad6)*%
X138430000Y-130810000D03*
%TO.P,W1,11*%
%TO.N,Net-(U1-Pad5)*%
X135890000Y-130810000D03*
%TO.P,W1,10*%
%TO.N,N/C*%
X133350000Y-130810000D03*
%TO.P,W1,9*%
%TO.N,Net-(U1-Pad6)*%
X130810000Y-130810000D03*
D13*
%TO.P,W1,1*%
%TO.N,+5V*%
X148590000Y-107950000D03*
D15*
%TO.P,W1,2*%
%TO.N,~*%
X146050000Y-107950000D03*
%TO.P,W1,3*%
%TO.N,N/C*%
X143510000Y-107950000D03*
%TO.P,W1,4*%
X140970000Y-107950000D03*
%TO.P,W1,5*%
%TO.N,Net-(J2-Pad3)*%
X138430000Y-107950000D03*
D12*
%TO.P,W1,6*%
%TO.N,Net-(J2-Pad4)*%
X135890000Y-107950000D03*
%TO.P,W1,7*%
%TO.N,Net-(J1-Pad5)*%
X133350000Y-107950000D03*
%TO.P,W1,8*%
%TO.N,N/C*%
X130810000Y-107950000D03*
%TD*%
%TO.P,J2,4*%
%TO.N,Net-(J2-Pad4)*%
X110490000Y-107950000D03*
%TO.P,J2,3*%
%TO.N,Net-(J2-Pad3)*%
X113030000Y-107950000D03*
%TO.P,J2,2*%
%TO.N,+3.3V*%
X115570000Y-107950000D03*
D13*
%TO.P,J2,1*%
%TO.N,~*%
X118110000Y-107950000D03*
%TD*%
D12*
%TO.P,J4,2*%
%TO.N,~*%
X105410000Y-131191000D03*
D13*
%TO.P,J4,1*%
%TO.N,+3.3V*%
X102870000Y-131191000D03*
%TD*%
%TO.P,J5,1*%
%TO.N,+5V*%
X116840000Y-130810000D03*
D12*
%TO.P,J5,2*%
%TO.N,~*%
X119380000Y-130810000D03*
%TD*%
D16*
%TO.P,J1,4*%
%TO.N,N/C*%
X111125000Y-120015000D03*
D17*
%TO.P,J1,2*%
%TO.N,+5V*%
X111125000Y-117475000D03*
D18*
%TO.P,J1,6*%
%TO.N,~*%
X111125000Y-122555000D03*
D17*
%TO.P,J1,1*%
%TO.N,+5V*%
X113665000Y-116205000D03*
%TO.P,J1,3*%
%TO.N,~*%
X113665000Y-118745000D03*
D18*
%TO.P,J1,5*%
%TO.N,Net-(J1-Pad5)*%
X113665000Y-121285000D03*
D19*
%TO.P,J1,8*%
%TO.N,N/C*%
X104775000Y-124460000D03*
%TO.P,J1,7*%
X104775000Y-114300000D03*
%TD*%
D20*
%TO.P,H1,1*%
%TO.N,N/C*%
X104140000Y-107950000D03*
%TD*%
%TO.P,H2,1*%
%TO.N,N/C*%
X153670000Y-130810000D03*
%TD*%
D21*
%TO.N,Net-(J1-Pad5)*%
X123444000Y-121412000D03*
%TO.N,~*%
X120523000Y-113030000D03*
X127635000Y-113947000D03*
X152146000Y-115189000D03*
X152146000Y-105664000D03*
%TO.N,Net-(J6-Pad1)*%
X126365000Y-111125000D03*
%TO.N,+3.3V*%
X136779000Y-115570000D03*
%TO.N,Net-(D1-Pad2)*%
X155702000Y-118618000D03*
%TD*%
D22*
%TO.N,Net-(J1-Pad5)*%
X131699000Y-109625999D02*
X131909999Y-109390001D01*
X129710001Y-109625999D02*
X131699000Y-109625999D01*
X128905000Y-108820998D02*
X129710001Y-109625999D01*
X128905000Y-107696000D02*
X128905000Y-108820998D01*
X124968000Y-106299000D02*
X127508000Y-106299000D01*
X123444000Y-107823000D02*
X124968000Y-106299000D01*
X131909999Y-109390001D02*
X133350000Y-107950000D01*
X127508000Y-106299000D02*
X128905000Y-107696000D01*
X123444000Y-117983000D02*
X123444000Y-107823000D01*
X123444000Y-117983000D02*
X123444000Y-121412000D01*
%TO.N,Net-(J3-Pad4)*%
X140810000Y-127126000D02*
X140810000Y-125636000D01*
X141986000Y-124460000D02*
X146050000Y-124460000D01*
X140810000Y-125636000D02*
X141986000Y-124460000D01*
%TO.N,Net-(J3-Pad5)*%
X141859000Y-129286000D02*
X143510000Y-130810000D01*
X138811000Y-129286000D02*
X141859000Y-129286000D01*
X138810000Y-128142000D02*
X138811000Y-129286000D01*
X138810000Y-127126000D02*
X138810000Y-128142000D01*
%TO.N,Net-(J3-Pad6)*%
X136810000Y-129190000D02*
X138430000Y-130810000D01*
X136810000Y-127126000D02*
X136810000Y-129190000D01*
%TO.N,~*%
X113665000Y-118745000D02*
X109347000Y-118745000D01*
X109347000Y-118745000D02*
X109220000Y-118872000D01*
X118110000Y-107950000D02*
X118110000Y-108204000D01*
X118110000Y-108204000D02*
X113284000Y-113030000D01*
X113284000Y-113030000D02*
X113284000Y-114046000D01*
X109220000Y-120650000D02*
X111125000Y-122555000D01*
X109220000Y-115316000D02*
X109220000Y-118872000D01*
X109220000Y-118872000D02*
X109220000Y-120650000D01*
X110490000Y-114046000D02*
X109220000Y-115316000D01*
X113792000Y-114046000D02*
X113284000Y-114046000D01*
X113284000Y-114046000D02*
X110490000Y-114046000D01*
X114808000Y-115062000D02*
X113792000Y-114046000D01*
X119380000Y-115062000D02*
X114808000Y-115062000D01*
X119634000Y-115316000D02*
X119380000Y-115062000D01*
X119634000Y-113919000D02*
X120523000Y-113030000D01*
X119634000Y-115316000D02*
X119634000Y-113919000D01*
X126619000Y-130810000D02*
X126619000Y-129317000D01*
X119380000Y-130810000D02*
X121666000Y-128524000D01*
X126746000Y-128524000D02*
X127079000Y-128857000D01*
X121666000Y-128524000D02*
X126746000Y-128524000D01*
X127079000Y-128857000D02*
X128810000Y-127126000D01*
X126619000Y-129317000D02*
X127079000Y-128857000D01*
X129049213Y-113947000D02*
X130810000Y-112186213D01*
X130810000Y-112186213D02*
X130810000Y-111126000D01*
X127635000Y-113947000D02*
X129049213Y-113947000D01*
X121666000Y-126873000D02*
X120523000Y-125730000D01*
X121666000Y-128524000D02*
X121666000Y-126873000D01*
D23*
X128810000Y-125726000D02*
X128810000Y-127126000D01*
X129187000Y-125349000D02*
X128810000Y-125726000D01*
X139446000Y-125349000D02*
X129187000Y-125349000D01*
X139827000Y-128453002D02*
X139827000Y-125730000D01*
X142163481Y-128600518D02*
X142148953Y-128585990D01*
X139827000Y-125730000D02*
X139446000Y-125349000D01*
X142148953Y-128585990D02*
X139959988Y-128585990D01*
X142810000Y-127954000D02*
X142163481Y-128600518D01*
X139959988Y-128585990D02*
X139827000Y-128453002D01*
X142810000Y-127126000D02*
X142810000Y-127954000D01*
D22*
X148082000Y-115189000D02*
X146050000Y-116840000D01*
X152146000Y-115189000D02*
X148082000Y-115189000D01*
X149606000Y-124460000D02*
X148590000Y-124460000D01*
X152146000Y-124460000D02*
X149606000Y-124460000D01*
X152146000Y-124460000D02*
X152146000Y-115189000D01*
X149710982Y-128778000D02*
X152146000Y-125730000D01*
X152146000Y-125730000D02*
X152146000Y-124460000D01*
X144272000Y-128778000D02*
X149710982Y-128778000D01*
X142810000Y-127316000D02*
X144272000Y-128778000D01*
X142810000Y-127126000D02*
X142810000Y-127316000D01*
X146050000Y-106934000D02*
X146050000Y-107950000D01*
X151384000Y-105537000D02*
X147447000Y-105537000D01*
X147447000Y-105537000D02*
X146050000Y-106934000D01*
X152146000Y-105664000D02*
X151384000Y-105537000D01*
%TO.N,Net-(J6-Pad1)*%
X128809000Y-111125000D02*
X128810000Y-111126000D01*
X126365000Y-111125000D02*
X128809000Y-111125000D01*
%TO.N,Net-(U1-Pad5)*%
X134810000Y-129730000D02*
X135890000Y-130810000D01*
X134810000Y-127126000D02*
X134810000Y-129730000D01*
D24*
%TO.N,+5V*%
X116713000Y-124079000D02*
X115824000Y-123190000D01*
X115824000Y-123190000D02*
X115824000Y-117602000D01*
X114427000Y-116205000D02*
X113665000Y-116205000D01*
X115824000Y-117602000D02*
X114427000Y-116205000D01*
X119634000Y-124079000D02*
X120523000Y-123190000D01*
X116713000Y-124079000D02*
X119634000Y-124079000D01*
%TO.N,+3.3V*%
X103632000Y-133477000D02*
X102870000Y-132715000D01*
X102870000Y-132715000D02*
X102870000Y-131191000D01*
X124079000Y-133350000D02*
X124206000Y-133477000D01*
X124079000Y-130810000D02*
X124079000Y-133350000D01*
X124206000Y-133477000D02*
X103632000Y-133477000D01*
X136810000Y-115539000D02*
X136779000Y-115570000D01*
X136810000Y-111126000D02*
X136810000Y-115539000D01*
X147955000Y-133477000D02*
X124206000Y-133477000D01*
X148590000Y-130810000D02*
X148590000Y-132842000D01*
X148590000Y-132842000D02*
X147955000Y-133477000D01*
D22*
%TO.N,Net-(D1-Pad2)*%
X155876000Y-113030000D02*
X155956000Y-113110000D01*
X153670000Y-113030000D02*
X155876000Y-113030000D01*
X155956000Y-118364000D02*
X155702000Y-118618000D01*
X155956000Y-113110000D02*
X155956000Y-118364000D01*
%TO.N,Net-(D1-Pad1)*%
X138810000Y-111126000D02*
X138810000Y-112902000D01*
X138810000Y-112902000D02*
X139954000Y-114046000D01*
X139954000Y-114046000D02*
X147320000Y-114046000D01*
X151036000Y-110330000D02*
X153670000Y-110330000D01*
X147320000Y-114046000D02*
X151036000Y-110330000D01*
%TO.N,Net-(D2-Pad1)*%
X140810000Y-111126000D02*
X140810000Y-112362000D01*
X140810000Y-112362000D02*
X141478000Y-113030000D01*
X141478000Y-113030000D02*
X146812000Y-113030000D01*
X146812000Y-113030000D02*
X152146000Y-107696000D01*
X152146000Y-107696000D02*
X155448000Y-107696000D01*
X155956000Y-108204000D02*
X155956000Y-110410000D01*
X155448000Y-107696000D02*
X155956000Y-108204000D01*
%TO.N,Net-(U1-Pad6)*%
X132810000Y-126725998D02*
X132810000Y-127126000D01*
X132810000Y-128810000D02*
X132810000Y-127126000D01*
X130810000Y-130810000D02*
X132810000Y-128810000D01*
%TD*%
D25*
%TO.N,~*%
X156770000Y-107849489D02*
X156695411Y-107709941D01*
X156584817Y-107575183D01*
X156551045Y-107547467D01*
X156104534Y-107100956D01*
X156076817Y-107067183D01*
X155942059Y-106956589D01*
X155788313Y-106874411D01*
X155621490Y-106823805D01*
X155491477Y-106811000D01*
X155491469Y-106811000D01*
X155448000Y-106806719D01*
X155404531Y-106811000D01*
X152189465Y-106811000D01*
X152145999Y-106806719D01*
X152102533Y-106811000D01*
X152102523Y-106811000D01*
X151972510Y-106823805D01*
X151805687Y-106874411D01*
X151651941Y-106956589D01*
X151651939Y-106956590D01*
X151651940Y-106956590D01*
X151550953Y-107039468D01*
X151550951Y-107039470D01*
X151517183Y-107067183D01*
X151489470Y-107100951D01*
X150227562Y-108362859D01*
X150227562Y-106950510D01*
X150215302Y-106826028D01*
X150178992Y-106706330D01*
X150120027Y-106596016D01*
X150040675Y-106499325D01*
X149943984Y-106419973D01*
X149833670Y-106361008D01*
X149713972Y-106324698D01*
X149589490Y-106312438D01*
X147590510Y-106312438D01*
X147466028Y-106324698D01*
X147346330Y-106361008D01*
X147236016Y-106419973D01*
X147139325Y-106499325D01*
X147059973Y-106596016D01*
X147008599Y-106692129D01*
X146966471Y-106647489D01*
X146743427Y-106488928D01*
X146493735Y-106376927D01*
X146391185Y-106358192D01*
X146177000Y-106480854D01*
X146177000Y-107823000D01*
X146197000Y-107823000D01*
X146197000Y-108077000D01*
X146177000Y-108077000D01*
X146177000Y-109419146D01*
X146391185Y-109541808D01*
X146493735Y-109523073D01*
X146743427Y-109411072D01*
X146966471Y-109252511D01*
X147008599Y-109207871D01*
X147059973Y-109303984D01*
X147139325Y-109400675D01*
X147236016Y-109480027D01*
X147346330Y-109538992D01*
X147466028Y-109575302D01*
X147590510Y-109587562D01*
X149002859Y-109587562D01*
X146445422Y-112145000D01*
X143946201Y-112145000D01*
X143948072Y-112126000D01*
X143948072Y-110126000D01*
X143935812Y-110001518D01*
X143899502Y-109881820D01*
X143840537Y-109771506D01*
X143761185Y-109674815D01*
X143664494Y-109595463D01*
X143633707Y-109579007D01*
X143781506Y-109564450D01*
X144042580Y-109485254D01*
X144283187Y-109356647D01*
X144494080Y-109183571D01*
X144667157Y-108972678D01*
X144778510Y-108764352D01*
X144800317Y-108821636D01*
X144945704Y-109053483D01*
X145133529Y-109252511D01*
X145356573Y-109411072D01*
X145606265Y-109523073D01*
X145708815Y-109541808D01*
X145923000Y-109419146D01*
X145923000Y-108077000D01*
X145903000Y-108077000D01*
X145903000Y-107823000D01*
X145923000Y-107823000D01*
X145923000Y-106480854D01*
X145708815Y-106358192D01*
X145606265Y-106376927D01*
X145356573Y-106488928D01*
X145133529Y-106647489D01*
X144945704Y-106846517D01*
X144800317Y-107078364D01*
X144778510Y-107135649D01*
X144667157Y-106927322D01*
X144494081Y-106716429D01*
X144283188Y-106543353D01*
X144042581Y-106414746D01*
X143781507Y-106335550D01*
X143510000Y-106308809D01*
X143238494Y-106335550D01*
X142977420Y-106414746D01*
X142736813Y-106543353D01*
X142525920Y-106716429D01*
X142352843Y-106927322D01*
X142240000Y-107138437D01*
X142127157Y-106927322D01*
X141954081Y-106716429D01*
X141743188Y-106543353D01*
X141502581Y-106414746D01*
X141241507Y-106335550D01*
X140970000Y-106308809D01*
X140698494Y-106335550D01*
X140437420Y-106414746D01*
X140196813Y-106543353D01*
X139985920Y-106716429D01*
X139812843Y-106927322D01*
X139700000Y-107138437D01*
X139587157Y-106927322D01*
X139414081Y-106716429D01*
X139203188Y-106543353D01*
X138962581Y-106414746D01*
X138701507Y-106335550D01*
X138430000Y-106308809D01*
X138158494Y-106335550D01*
X137897420Y-106414746D01*
X137656813Y-106543353D01*
X137445920Y-106716429D01*
X137272843Y-106927322D01*
X137228227Y-107010793D01*
X137159592Y-106908073D01*
X136931927Y-106680408D01*
X136664222Y-106501533D01*
X136366763Y-106378322D01*
X136050983Y-106315510D01*
X135729017Y-106315510D01*
X135413237Y-106378322D01*
X135115778Y-106501533D01*
X134848073Y-106680408D01*
X134620408Y-106908073D01*
X134620000Y-106908684D01*
X134619592Y-106908073D01*
X134391927Y-106680408D01*
X134124222Y-106501533D01*
X133826763Y-106378322D01*
X133510983Y-106315510D01*
X133189017Y-106315510D01*
X132873237Y-106378322D01*
X132575778Y-106501533D01*
X132308073Y-106680408D01*
X132080408Y-106908073D01*
X132080000Y-106908684D01*
X132079592Y-106908073D01*
X131851927Y-106680408D01*
X131584222Y-106501533D01*
X131286763Y-106378322D01*
X130970983Y-106315510D01*
X130649017Y-106315510D01*
X130333237Y-106378322D01*
X130035778Y-106501533D01*
X129768073Y-106680408D01*
X129540408Y-106908073D01*
X129471612Y-107011033D01*
X128164534Y-105703956D01*
X128136817Y-105670183D01*
X128002059Y-105559589D01*
X127848313Y-105477411D01*
X127681490Y-105426805D01*
X127551477Y-105414000D01*
X127551469Y-105414000D01*
X127508000Y-105409719D01*
X127464531Y-105414000D01*
X125011465Y-105414000D01*
X124967999Y-105409719D01*
X124924533Y-105414000D01*
X124924523Y-105414000D01*
X124794510Y-105426805D01*
X124627687Y-105477411D01*
X124473941Y-105559589D01*
X124473939Y-105559590D01*
X124473940Y-105559590D01*
X124372953Y-105642468D01*
X124372951Y-105642470D01*
X124339183Y-105670183D01*
X124311470Y-105703951D01*
X122848951Y-107166471D01*
X122815184Y-107194183D01*
X122787471Y-107227951D01*
X122787468Y-107227954D01*
X122704590Y-107328941D01*
X122622412Y-107482687D01*
X122571805Y-107649510D01*
X122554719Y-107823000D01*
X122559001Y-107866479D01*
X122559000Y-117939523D01*
X122559000Y-117939524D01*
X122559001Y-120036940D01*
X122401748Y-120142013D01*
X122174013Y-120369748D01*
X121995082Y-120637537D01*
X121871832Y-120935088D01*
X121809000Y-121250967D01*
X121809000Y-121573033D01*
X121871832Y-121888912D01*
X121995082Y-122186463D01*
X122174013Y-122454252D01*
X122401748Y-122681987D01*
X122669537Y-122860918D01*
X122967088Y-122984168D01*
X123282967Y-123047000D01*
X123605033Y-123047000D01*
X123920912Y-122984168D01*
X124218463Y-122860918D01*
X124486252Y-122681987D01*
X124713987Y-122454252D01*
X124892918Y-122186463D01*
X125016168Y-121888912D01*
X125079000Y-121573033D01*
X125079000Y-121250967D01*
X125016168Y-120935088D01*
X124892918Y-120637537D01*
X124713987Y-120369748D01*
X124486252Y-120142013D01*
X124329000Y-120036941D01*
X124329000Y-108189578D01*
X124474407Y-108044172D01*
X124430000Y-108267419D01*
X124430000Y-108648581D01*
X124504361Y-109022419D01*
X124650225Y-109374566D01*
X124861987Y-109691491D01*
X125131509Y-109961013D01*
X125182606Y-109995155D01*
X125095013Y-110082748D01*
X124916082Y-110350537D01*
X124792832Y-110648088D01*
X124730000Y-110963967D01*
X124730000Y-111286033D01*
X124792832Y-111601912D01*
X124916082Y-111899463D01*
X125095013Y-112167252D01*
X125322748Y-112394987D01*
X125590537Y-112573918D01*
X125888088Y-112697168D01*
X126203967Y-112760000D01*
X126526033Y-112760000D01*
X126841912Y-112697168D01*
X127139463Y-112573918D01*
X127407252Y-112394987D01*
X127634987Y-112167252D01*
X127671928Y-112111966D01*
X127671928Y-112126000D01*
X127684188Y-112250482D01*
X127720498Y-112370180D01*
X127779463Y-112480494D01*
X127858815Y-112577185D01*
X127955506Y-112656537D01*
X128065820Y-112715502D01*
X128185518Y-112751812D01*
X128310000Y-112764072D01*
X129310000Y-112764072D01*
X129434482Y-112751812D01*
X129554180Y-112715502D01*
X129664494Y-112656537D01*
X129761185Y-112577185D01*
X129810000Y-112517704D01*
X129858815Y-112577185D01*
X129955506Y-112656537D01*
X130065820Y-112715502D01*
X130185518Y-112751812D01*
X130310000Y-112764072D01*
X130524250Y-112761000D01*
X130683000Y-112602250D01*
X130683000Y-111253000D01*
X130663000Y-111253000D01*
X130663000Y-110999000D01*
X130683000Y-110999000D01*
X130683000Y-110979000D01*
X130937000Y-110979000D01*
X130937000Y-110999000D01*
X130957000Y-110999000D01*
X130957000Y-111253000D01*
X130937000Y-111253000D01*
X130937000Y-112602250D01*
X131095750Y-112761000D01*
X131310000Y-112764072D01*
X131434482Y-112751812D01*
X131554180Y-112715502D01*
X131664494Y-112656537D01*
X131761185Y-112577185D01*
X131810000Y-112517704D01*
X131858815Y-112577185D01*
X131955506Y-112656537D01*
X132065820Y-112715502D01*
X132185518Y-112751812D01*
X132310000Y-112764072D01*
X133310000Y-112764072D01*
X133434482Y-112751812D01*
X133554180Y-112715502D01*
X133664494Y-112656537D01*
X133761185Y-112577185D01*
X133810000Y-112517704D01*
X133858815Y-112577185D01*
X133955506Y-112656537D01*
X134065820Y-112715502D01*
X134185518Y-112751812D01*
X134310000Y-112764072D01*
X135310000Y-112764072D01*
X135434482Y-112751812D01*
X135554180Y-112715502D01*
X135664494Y-112656537D01*
X135675000Y-112647915D01*
X135675001Y-114361760D01*
X135509013Y-114527748D01*
X135330082Y-114795537D01*
X135206832Y-115093088D01*
X135144000Y-115408967D01*
X135144000Y-115731033D01*
X135206832Y-116046912D01*
X135330082Y-116344463D01*
X135509013Y-116612252D01*
X135736748Y-116839987D01*
X136004537Y-117018918D01*
X136302088Y-117142168D01*
X136617967Y-117205000D01*
X136940033Y-117205000D01*
X137255912Y-117142168D01*
X137553463Y-117018918D01*
X137727522Y-116902615D01*
X144408795Y-116902615D01*
X144452546Y-117221595D01*
X144557686Y-117525911D01*
X144650601Y-117699742D01*
X144914950Y-117795445D01*
X145870395Y-116840000D01*
X144914950Y-115884555D01*
X144650601Y-115980258D01*
X144509762Y-116269787D01*
X144428115Y-116581229D01*
X144408795Y-116902615D01*
X137727522Y-116902615D01*
X137821252Y-116839987D01*
X138048987Y-116612252D01*
X138227918Y-116344463D01*
X138351168Y-116046912D01*
X138414000Y-115731033D01*
X138414000Y-115704950D01*
X145094555Y-115704950D01*
X146050000Y-116660395D01*
X147005445Y-115704950D01*
X146909742Y-115440601D01*
X146620213Y-115299762D01*
X146308771Y-115218115D01*
X145987385Y-115198795D01*
X145668405Y-115242546D01*
X145364089Y-115347686D01*
X145190258Y-115440601D01*
X145094555Y-115704950D01*
X138414000Y-115704950D01*
X138414000Y-115408967D01*
X138351168Y-115093088D01*
X138227918Y-114795537D01*
X138048987Y-114527748D01*
X137945000Y-114423761D01*
X137945000Y-113099208D01*
X137988412Y-113242313D01*
X138070590Y-113396059D01*
X138153468Y-113497046D01*
X138153471Y-113497049D01*
X138181184Y-113530817D01*
X138214951Y-113558529D01*
X139297470Y-114641049D01*
X139325183Y-114674817D01*
X139358951Y-114702530D01*
X139358953Y-114702532D01*
X139395531Y-114732551D01*
X139459941Y-114785411D01*
X139613687Y-114867589D01*
X139780510Y-114918195D01*
X139910523Y-114931000D01*
X139910533Y-114931000D01*
X139953999Y-114935281D01*
X139997465Y-114931000D01*
X147276531Y-114931000D01*
X147320000Y-114935281D01*
X147363469Y-114931000D01*
X147363477Y-114931000D01*
X147493490Y-114918195D01*
X147660313Y-114867589D01*
X147814059Y-114785411D01*
X147948817Y-114674817D01*
X147976534Y-114641044D01*
X151402579Y-111215000D01*
X152397379Y-111215000D01*
X152430498Y-111324180D01*
X152489463Y-111434494D01*
X152568815Y-111531185D01*
X152665506Y-111610537D01*
X152775820Y-111669502D01*
X152810427Y-111680000D01*
X152775820Y-111690498D01*
X152665506Y-111749463D01*
X152568815Y-111828815D01*
X152489463Y-111925506D01*
X152430498Y-112035820D01*
X152394188Y-112155518D01*
X152381928Y-112280000D01*
X152381928Y-113780000D01*
X152394188Y-113904482D01*
X152430498Y-114024180D01*
X152489463Y-114134494D01*
X152568815Y-114231185D01*
X152665506Y-114310537D01*
X152775820Y-114369502D01*
X152895518Y-114405812D01*
X153020000Y-114418072D01*
X154320000Y-114418072D01*
X154444482Y-114405812D01*
X154564180Y-114369502D01*
X154674494Y-114310537D01*
X154771185Y-114231185D01*
X154780173Y-114220233D01*
X154854815Y-114311185D01*
X154951506Y-114390537D01*
X155061820Y-114449502D01*
X155071000Y-114452287D01*
X155071001Y-117109657D01*
X154927537Y-117169082D01*
X154659748Y-117348013D01*
X154432013Y-117575748D01*
X154253082Y-117843537D01*
X154129832Y-118141088D01*
X154067000Y-118456967D01*
X154067000Y-118779033D01*
X154129832Y-119094912D01*
X154253082Y-119392463D01*
X154432013Y-119660252D01*
X154659748Y-119887987D01*
X154927537Y-120066918D01*
X155225088Y-120190168D01*
X155540967Y-120253000D01*
X155863033Y-120253000D01*
X156178912Y-120190168D01*
X156476463Y-120066918D01*
X156744252Y-119887987D01*
X156770001Y-119862238D01*
X156770001Y-129996558D01*
X156746189Y-129876848D01*
X156505032Y-129294644D01*
X156154926Y-128770674D01*
X155709326Y-128325074D01*
X155185356Y-127974968D01*
X154603152Y-127733811D01*
X153985087Y-127610870D01*
X153354913Y-127610870D01*
X152736848Y-127733811D01*
X152154644Y-127974968D01*
X151630674Y-128325074D01*
X151185074Y-128770674D01*
X150834968Y-129294644D01*
X150593811Y-129876848D01*
X150470870Y-130494913D01*
X150470870Y-131125087D01*
X150593811Y-131743152D01*
X150834968Y-132325356D01*
X151185074Y-132849326D01*
X151630674Y-133294926D01*
X152154644Y-133645032D01*
X152736848Y-133886189D01*
X152856554Y-133910000D01*
X149127132Y-133910000D01*
X149353140Y-133683992D01*
X149396449Y-133648449D01*
X149538284Y-133475623D01*
X149643676Y-133278447D01*
X149708577Y-133064499D01*
X149725000Y-132897752D01*
X149730491Y-132842000D01*
X149725000Y-132786248D01*
X149725000Y-131986519D01*
X149859592Y-131851927D01*
X150038467Y-131584222D01*
X150161678Y-131286763D01*
X150224490Y-130970983D01*
X150224490Y-130649017D01*
X150161678Y-130333237D01*
X150038467Y-130035778D01*
X149859592Y-129768073D01*
X149631927Y-129540408D01*
X149364222Y-129361533D01*
X149066763Y-129238322D01*
X148750983Y-129175510D01*
X148429017Y-129175510D01*
X148113237Y-129238322D01*
X147815778Y-129361533D01*
X147548073Y-129540408D01*
X147320408Y-129768073D01*
X147320000Y-129768684D01*
X147319592Y-129768073D01*
X147091927Y-129540408D01*
X146824222Y-129361533D01*
X146526763Y-129238322D01*
X146210983Y-129175510D01*
X145889017Y-129175510D01*
X145573237Y-129238322D01*
X145275778Y-129361533D01*
X145008073Y-129540408D01*
X144780408Y-129768073D01*
X144780000Y-129768684D01*
X144779592Y-129768073D01*
X144551927Y-129540408D01*
X144284222Y-129361533D01*
X143986763Y-129238322D01*
X143670983Y-129175510D01*
X143349017Y-129175510D01*
X143098134Y-129225413D01*
X142558219Y-128727031D01*
X142683000Y-128602250D01*
X142683000Y-127253000D01*
X142937000Y-127253000D01*
X142937000Y-128602250D01*
X143095750Y-128761000D01*
X143310000Y-128764072D01*
X143434482Y-128751812D01*
X143554180Y-128715502D01*
X143664494Y-128656537D01*
X143761185Y-128577185D01*
X143840537Y-128480494D01*
X143899502Y-128370180D01*
X143935812Y-128250482D01*
X143948072Y-128126000D01*
X143945000Y-127411750D01*
X143786250Y-127253000D01*
X142937000Y-127253000D01*
X142683000Y-127253000D01*
X142663000Y-127253000D01*
X142663000Y-126999000D01*
X142683000Y-126999000D01*
X142683000Y-125649750D01*
X142937000Y-125649750D01*
X142937000Y-126999000D01*
X143786250Y-126999000D01*
X143945000Y-126840250D01*
X143948072Y-126126000D01*
X143935812Y-126001518D01*
X143899502Y-125881820D01*
X143840537Y-125771506D01*
X143761185Y-125674815D01*
X143664494Y-125595463D01*
X143554180Y-125536498D01*
X143434482Y-125500188D01*
X143310000Y-125487928D01*
X143095750Y-125491000D01*
X142937000Y-125649750D01*
X142683000Y-125649750D01*
X142524250Y-125491000D01*
X142310000Y-125487928D01*
X142198688Y-125498891D01*
X142352579Y-125345000D01*
X144675553Y-125345000D01*
X144780408Y-125501927D01*
X145008073Y-125729592D01*
X145008684Y-125730000D01*
X145008073Y-125730408D01*
X144780408Y-125958073D01*
X144601533Y-126225778D01*
X144478322Y-126523237D01*
X144415510Y-126839017D01*
X144415510Y-127160983D01*
X144478322Y-127476763D01*
X144601533Y-127774222D01*
X144780408Y-128041927D01*
X145008073Y-128269592D01*
X145275778Y-128448467D01*
X145573237Y-128571678D01*
X145889017Y-128634490D01*
X146210983Y-128634490D01*
X146526763Y-128571678D01*
X146824222Y-128448467D01*
X147035144Y-128307533D01*
X147059973Y-128353984D01*
X147139325Y-128450675D01*
X147236016Y-128530027D01*
X147346330Y-128588992D01*
X147466028Y-128625302D01*
X147590510Y-128637562D01*
X149589490Y-128637562D01*
X149713972Y-128625302D01*
X149833670Y-128588992D01*
X149943984Y-128530027D01*
X150040675Y-128450675D01*
X150120027Y-128353984D01*
X150178992Y-128243670D01*
X150215302Y-128123972D01*
X150227562Y-127999490D01*
X150227562Y-126000510D01*
X150215302Y-125876028D01*
X150178992Y-125756330D01*
X150120027Y-125646016D01*
X150040675Y-125549325D01*
X149943984Y-125469973D01*
X149833670Y-125411008D01*
X149781238Y-125395103D01*
X149989399Y-125319742D01*
X150130238Y-125030213D01*
X150211885Y-124718771D01*
X150231205Y-124397385D01*
X150187454Y-124078405D01*
X150082314Y-123774089D01*
X149989399Y-123600258D01*
X149725050Y-123504555D01*
X148769605Y-124460000D01*
X148783748Y-124474143D01*
X148604143Y-124653748D01*
X148590000Y-124639605D01*
X148575858Y-124653748D01*
X148396253Y-124474143D01*
X148410395Y-124460000D01*
X147454950Y-123504555D01*
X147392487Y-123527169D01*
X147319592Y-123418073D01*
X147091927Y-123190408D01*
X147091316Y-123190000D01*
X147091927Y-123189592D01*
X147319592Y-122961927D01*
X147320000Y-122961316D01*
X147320408Y-122961927D01*
X147548073Y-123189592D01*
X147657169Y-123262487D01*
X147634555Y-123324950D01*
X148590000Y-124280395D01*
X149545445Y-123324950D01*
X149522831Y-123262487D01*
X149631927Y-123189592D01*
X149859592Y-122961927D01*
X150038467Y-122694222D01*
X150161678Y-122396763D01*
X150224490Y-122080983D01*
X150224490Y-121759017D01*
X150161678Y-121443237D01*
X150038467Y-121145778D01*
X149859592Y-120878073D01*
X149631927Y-120650408D01*
X149631316Y-120650000D01*
X149631927Y-120649592D01*
X149859592Y-120421927D01*
X150038467Y-120154222D01*
X150161678Y-119856763D01*
X150224490Y-119540983D01*
X150224490Y-119219017D01*
X150161678Y-118903237D01*
X150038467Y-118605778D01*
X149859592Y-118338073D01*
X149631927Y-118110408D01*
X149631316Y-118110000D01*
X149631927Y-118109592D01*
X149859592Y-117881927D01*
X150038467Y-117614222D01*
X150161678Y-117316763D01*
X150224490Y-117000983D01*
X150224490Y-116679017D01*
X150161678Y-116363237D01*
X150038467Y-116065778D01*
X149859592Y-115798073D01*
X149631927Y-115570408D01*
X149364222Y-115391533D01*
X149066763Y-115268322D01*
X148750983Y-115205510D01*
X148429017Y-115205510D01*
X148113237Y-115268322D01*
X147815778Y-115391533D01*
X147548073Y-115570408D01*
X147320408Y-115798073D01*
X147247513Y-115907169D01*
X147185050Y-115884555D01*
X146229605Y-116840000D01*
X147185050Y-117795445D01*
X147247513Y-117772831D01*
X147320408Y-117881927D01*
X147548073Y-118109592D01*
X147548684Y-118110000D01*
X147548073Y-118110408D01*
X147320408Y-118338073D01*
X147320000Y-118338684D01*
X147319592Y-118338073D01*
X147091927Y-118110408D01*
X146982831Y-118037513D01*
X147005445Y-117975050D01*
X146050000Y-117019605D01*
X145094555Y-117975050D01*
X145117169Y-118037513D01*
X145008073Y-118110408D01*
X144780408Y-118338073D01*
X144601533Y-118605778D01*
X144478322Y-118903237D01*
X144415510Y-119219017D01*
X144415510Y-119540983D01*
X144478322Y-119856763D01*
X144601533Y-120154222D01*
X144780408Y-120421927D01*
X145008073Y-120649592D01*
X145008684Y-120650000D01*
X145008073Y-120650408D01*
X144780408Y-120878073D01*
X144601533Y-121145778D01*
X144478322Y-121443237D01*
X144415510Y-121759017D01*
X144415510Y-122080983D01*
X144478322Y-122396763D01*
X144601533Y-122694222D01*
X144780408Y-122961927D01*
X145008073Y-123189592D01*
X145008684Y-123190000D01*
X145008073Y-123190408D01*
X144780408Y-123418073D01*
X144675553Y-123575000D01*
X142029465Y-123575000D01*
X141985999Y-123570719D01*
X141942533Y-123575000D01*
X141942523Y-123575000D01*
X141812510Y-123587805D01*
X141645687Y-123638411D01*
X141491941Y-123720589D01*
X141491939Y-123720590D01*
X141491940Y-123720590D01*
X141390953Y-123803468D01*
X141390951Y-123803470D01*
X141357183Y-123831183D01*
X141329470Y-123864951D01*
X140214951Y-124979471D01*
X140181184Y-125007183D01*
X140153471Y-125040951D01*
X140153468Y-125040954D01*
X140070590Y-125141941D01*
X139988412Y-125295687D01*
X139937805Y-125462510D01*
X139922003Y-125622958D01*
X139858815Y-125674815D01*
X139810000Y-125734296D01*
X139761185Y-125674815D01*
X139664494Y-125595463D01*
X139554180Y-125536498D01*
X139434482Y-125500188D01*
X139310000Y-125487928D01*
X138310000Y-125487928D01*
X138185518Y-125500188D01*
X138065820Y-125536498D01*
X137955506Y-125595463D01*
X137858815Y-125674815D01*
X137810000Y-125734296D01*
X137761185Y-125674815D01*
X137664494Y-125595463D01*
X137554180Y-125536498D01*
X137434482Y-125500188D01*
X137310000Y-125487928D01*
X136310000Y-125487928D01*
X136185518Y-125500188D01*
X136065820Y-125536498D01*
X135955506Y-125595463D01*
X135858815Y-125674815D01*
X135810000Y-125734296D01*
X135761185Y-125674815D01*
X135664494Y-125595463D01*
X135554180Y-125536498D01*
X135434482Y-125500188D01*
X135310000Y-125487928D01*
X134310000Y-125487928D01*
X134185518Y-125500188D01*
X134065820Y-125536498D01*
X133955506Y-125595463D01*
X133858815Y-125674815D01*
X133810000Y-125734296D01*
X133761185Y-125674815D01*
X133664494Y-125595463D01*
X133554180Y-125536498D01*
X133434482Y-125500188D01*
X133310000Y-125487928D01*
X132310000Y-125487928D01*
X132185518Y-125500188D01*
X132065820Y-125536498D01*
X131955506Y-125595463D01*
X131858815Y-125674815D01*
X131810000Y-125734296D01*
X131761185Y-125674815D01*
X131664494Y-125595463D01*
X131554180Y-125536498D01*
X131434482Y-125500188D01*
X131310000Y-125487928D01*
X130310000Y-125487928D01*
X130185518Y-125500188D01*
X130065820Y-125536498D01*
X129955506Y-125595463D01*
X129858815Y-125674815D01*
X129810000Y-125734296D01*
X129761185Y-125674815D01*
X129664494Y-125595463D01*
X129554180Y-125536498D01*
X129434482Y-125500188D01*
X129310000Y-125487928D01*
X129095750Y-125491000D01*
X128937000Y-125649750D01*
X128937000Y-126999000D01*
X128957000Y-126999000D01*
X128957000Y-127253000D01*
X128937000Y-127253000D01*
X128937000Y-128602250D01*
X129095750Y-128761000D01*
X129310000Y-128764072D01*
X129434482Y-128751812D01*
X129554180Y-128715502D01*
X129664494Y-128656537D01*
X129761185Y-128577185D01*
X129810000Y-128517704D01*
X129858815Y-128577185D01*
X129955506Y-128656537D01*
X130065820Y-128715502D01*
X130185518Y-128751812D01*
X130310000Y-128764072D01*
X131310000Y-128764072D01*
X131434482Y-128751812D01*
X131554180Y-128715502D01*
X131664494Y-128656537D01*
X131761185Y-128577185D01*
X131810000Y-128517704D01*
X131828354Y-128540068D01*
X131156091Y-129212330D01*
X130970983Y-129175510D01*
X130649017Y-129175510D01*
X130333237Y-129238322D01*
X130035778Y-129361533D01*
X129768073Y-129540408D01*
X129540408Y-129768073D01*
X129361533Y-130035778D01*
X129238322Y-130333237D01*
X129175510Y-130649017D01*
X129175510Y-130970983D01*
X129238322Y-131286763D01*
X129361533Y-131584222D01*
X129540408Y-131851927D01*
X129768073Y-132079592D01*
X130035778Y-132258467D01*
X130237445Y-132342000D01*
X127190044Y-132342000D01*
X127304911Y-132302314D01*
X127478742Y-132209399D01*
X127574445Y-131945050D01*
X126619000Y-130989605D01*
X125663555Y-131945050D01*
X125759258Y-132209399D01*
X126031852Y-132342000D01*
X125214000Y-132342000D01*
X125214000Y-131986519D01*
X125348592Y-131851927D01*
X125421487Y-131742831D01*
X125483950Y-131765445D01*
X126439395Y-130810000D01*
X126798605Y-130810000D01*
X127754050Y-131765445D01*
X128018399Y-131669742D01*
X128159238Y-131380213D01*
X128240885Y-131068771D01*
X128260205Y-130747385D01*
X128216454Y-130428405D01*
X128111314Y-130124089D01*
X128018399Y-129950258D01*
X127754050Y-129854555D01*
X126798605Y-130810000D01*
X126439395Y-130810000D01*
X125483950Y-129854555D01*
X125421487Y-129877169D01*
X125348592Y-129768073D01*
X125255469Y-129674950D01*
X125663555Y-129674950D01*
X126619000Y-130630395D01*
X127574445Y-129674950D01*
X127478742Y-129410601D01*
X127189213Y-129269762D01*
X126877771Y-129188115D01*
X126556385Y-129168795D01*
X126237405Y-129212546D01*
X125933089Y-129317686D01*
X125759258Y-129410601D01*
X125663555Y-129674950D01*
X125255469Y-129674950D01*
X125120927Y-129540408D01*
X124853222Y-129361533D01*
X124555763Y-129238322D01*
X124239983Y-129175510D01*
X123918017Y-129175510D01*
X123602237Y-129238322D01*
X123304778Y-129361533D01*
X123037073Y-129540408D01*
X122809408Y-129768073D01*
X122630533Y-130035778D01*
X122507322Y-130333237D01*
X122444510Y-130649017D01*
X122444510Y-130970983D01*
X122507322Y-131286763D01*
X122630533Y-131584222D01*
X122809408Y-131851927D01*
X122944000Y-131986519D01*
X122944001Y-132342000D01*
X119951044Y-132342000D01*
X120065911Y-132302314D01*
X120239742Y-132209399D01*
X120335445Y-131945050D01*
X119380000Y-130989605D01*
X119365858Y-131003748D01*
X119186253Y-130824143D01*
X119200395Y-130810000D01*
X119559605Y-130810000D01*
X120515050Y-131765445D01*
X120779399Y-131669742D01*
X120920238Y-131380213D01*
X121001885Y-131068771D01*
X121021205Y-130747385D01*
X120977454Y-130428405D01*
X120872314Y-130124089D01*
X120779399Y-129950258D01*
X120515050Y-129854555D01*
X119559605Y-130810000D01*
X119200395Y-130810000D01*
X119186253Y-130795858D01*
X119365858Y-130616253D01*
X119380000Y-130630395D01*
X120335445Y-129674950D01*
X120239742Y-129410601D01*
X119950213Y-129269762D01*
X119638771Y-129188115D01*
X119317385Y-129168795D01*
X118998405Y-129212546D01*
X118694089Y-129317686D01*
X118520258Y-129410601D01*
X118444897Y-129618762D01*
X118428992Y-129566330D01*
X118370027Y-129456016D01*
X118290675Y-129359325D01*
X118193984Y-129279973D01*
X118083670Y-129221008D01*
X117963972Y-129184698D01*
X117839490Y-129172438D01*
X115840510Y-129172438D01*
X115716028Y-129184698D01*
X115596330Y-129221008D01*
X115486016Y-129279973D01*
X115389325Y-129359325D01*
X115309973Y-129456016D01*
X115251008Y-129566330D01*
X115214698Y-129686028D01*
X115202438Y-129810510D01*
X115202438Y-131809490D01*
X115214698Y-131933972D01*
X115251008Y-132053670D01*
X115309973Y-132163984D01*
X115389325Y-132260675D01*
X115486016Y-132340027D01*
X115489707Y-132342000D01*
X113498263Y-132342000D01*
X113508742Y-132336399D01*
X113604445Y-132072050D01*
X112649000Y-131116605D01*
X112634858Y-131130748D01*
X112455253Y-130951143D01*
X112469395Y-130937000D01*
X112828605Y-130937000D01*
X113784050Y-131892445D01*
X114048399Y-131796742D01*
X114189238Y-131507213D01*
X114270885Y-131195771D01*
X114290205Y-130874385D01*
X114246454Y-130555405D01*
X114141314Y-130251089D01*
X114048399Y-130077258D01*
X113784050Y-129981555D01*
X112828605Y-130937000D01*
X112469395Y-130937000D01*
X112455253Y-130922858D01*
X112634858Y-130743253D01*
X112649000Y-130757395D01*
X113604445Y-129801950D01*
X113508742Y-129537601D01*
X113219213Y-129396762D01*
X112907771Y-129315115D01*
X112586385Y-129295795D01*
X112267405Y-129339546D01*
X111963089Y-129444686D01*
X111789258Y-129537601D01*
X111713897Y-129745762D01*
X111697992Y-129693330D01*
X111639027Y-129583016D01*
X111559675Y-129486325D01*
X111462984Y-129406973D01*
X111352670Y-129348008D01*
X111232972Y-129311698D01*
X111108490Y-129299438D01*
X109109510Y-129299438D01*
X108985028Y-129311698D01*
X108865330Y-129348008D01*
X108755016Y-129406973D01*
X108658325Y-129486325D01*
X108578973Y-129583016D01*
X108520008Y-129693330D01*
X108483698Y-129813028D01*
X108471438Y-129937510D01*
X108471438Y-131936490D01*
X108483698Y-132060972D01*
X108520008Y-132180670D01*
X108578973Y-132290984D01*
X108620841Y-132342000D01*
X106580834Y-132342000D01*
X106660721Y-132262113D01*
X106545052Y-132146444D01*
X106809399Y-132050742D01*
X106950238Y-131761213D01*
X107031885Y-131449771D01*
X107051205Y-131128385D01*
X107007454Y-130809405D01*
X106902314Y-130505089D01*
X106809399Y-130331258D01*
X106545050Y-130235555D01*
X105589605Y-131191000D01*
X105603748Y-131205143D01*
X105424143Y-131384748D01*
X105410000Y-131370605D01*
X105395858Y-131384748D01*
X105216253Y-131205143D01*
X105230395Y-131191000D01*
X105216253Y-131176858D01*
X105395858Y-130997253D01*
X105410000Y-131011395D01*
X106365445Y-130055950D01*
X106269742Y-129791601D01*
X105980213Y-129650762D01*
X105668771Y-129569115D01*
X105347385Y-129549795D01*
X105028405Y-129593546D01*
X104724089Y-129698686D01*
X104550258Y-129791601D01*
X104474897Y-129999762D01*
X104458992Y-129947330D01*
X104400027Y-129837016D01*
X104320675Y-129740325D01*
X104223984Y-129660973D01*
X104113670Y-129602008D01*
X103993972Y-129565698D01*
X103869490Y-129553438D01*
X101870510Y-129553438D01*
X101746028Y-129565698D01*
X101626330Y-129602008D01*
X101516016Y-129660973D01*
X101419325Y-129740325D01*
X101339973Y-129837016D01*
X101281008Y-129947330D01*
X101244698Y-130067028D01*
X101232438Y-130191510D01*
X101232438Y-132190490D01*
X101244698Y-132314972D01*
X101281008Y-132434670D01*
X101339973Y-132544984D01*
X101419325Y-132641675D01*
X101516016Y-132721027D01*
X101626330Y-132779992D01*
X101739285Y-132814256D01*
X101751423Y-132937498D01*
X101816324Y-133151446D01*
X101921716Y-133348623D01*
X102063551Y-133521449D01*
X102106864Y-133556995D01*
X102459868Y-133910000D01*
X101040000Y-133910000D01*
X101040000Y-128126000D01*
X127671928Y-128126000D01*
X127684188Y-128250482D01*
X127720498Y-128370180D01*
X127779463Y-128480494D01*
X127858815Y-128577185D01*
X127955506Y-128656537D01*
X128065820Y-128715502D01*
X128185518Y-128751812D01*
X128310000Y-128764072D01*
X128524250Y-128761000D01*
X128683000Y-128602250D01*
X128683000Y-127253000D01*
X127833750Y-127253000D01*
X127675000Y-127411750D01*
X127671928Y-128126000D01*
X101040000Y-128126000D01*
X101040000Y-126865050D01*
X119567555Y-126865050D01*
X119663258Y-127129399D01*
X119952787Y-127270238D01*
X120264229Y-127351885D01*
X120585615Y-127371205D01*
X120904595Y-127327454D01*
X121208911Y-127222314D01*
X121382742Y-127129399D01*
X121478445Y-126865050D01*
X120523000Y-125909605D01*
X119567555Y-126865050D01*
X101040000Y-126865050D01*
X101040000Y-124225098D01*
X102390000Y-124225098D01*
X102390000Y-124694902D01*
X102481654Y-125155679D01*
X102661440Y-125589721D01*
X102922450Y-125980349D01*
X103254651Y-126312550D01*
X103645279Y-126573560D01*
X104079321Y-126753346D01*
X104540098Y-126845000D01*
X105009902Y-126845000D01*
X105470679Y-126753346D01*
X105904721Y-126573560D01*
X106295349Y-126312550D01*
X106627550Y-125980349D01*
X106888560Y-125589721D01*
X107068346Y-125155679D01*
X107160000Y-124694902D01*
X107160000Y-124225098D01*
X107068346Y-123764321D01*
X107037733Y-123690413D01*
X110169192Y-123690413D01*
X110264956Y-123954814D01*
X110554571Y-124095704D01*
X110866108Y-124177384D01*
X111187595Y-124196718D01*
X111506675Y-124152961D01*
X111811088Y-124047795D01*
X111985044Y-123954814D01*
X112080808Y-123690413D01*
X111125000Y-122734605D01*
X110169192Y-123690413D01*
X107037733Y-123690413D01*
X106888560Y-123330279D01*
X106627550Y-122939651D01*
X106305494Y-122617595D01*
X109483282Y-122617595D01*
X109527039Y-122936675D01*
X109632205Y-123241088D01*
X109725186Y-123415044D01*
X109989587Y-123510808D01*
X110945395Y-122555000D01*
X109989587Y-121599192D01*
X109725186Y-121694956D01*
X109584296Y-121984571D01*
X109502616Y-122296108D01*
X109483282Y-122617595D01*
X106305494Y-122617595D01*
X106295349Y-122607450D01*
X105904721Y-122346440D01*
X105470679Y-122166654D01*
X105009902Y-122075000D01*
X104540098Y-122075000D01*
X104079321Y-122166654D01*
X103645279Y-122346440D01*
X103254651Y-122607450D01*
X102922450Y-122939651D01*
X102661440Y-123330279D01*
X102481654Y-123764321D01*
X102390000Y-124225098D01*
X101040000Y-124225098D01*
X101040000Y-117475000D01*
X109483299Y-117475000D01*
X109510040Y-117746507D01*
X109589236Y-118007581D01*
X109717843Y-118248188D01*
X109890919Y-118459081D01*
X110101812Y-118632157D01*
X110342419Y-118760764D01*
X110457099Y-118795552D01*
X110242114Y-118939201D01*
X110049201Y-119132114D01*
X109897629Y-119358957D01*
X109793225Y-119611011D01*
X109740000Y-119878589D01*
X109740000Y-120151411D01*
X109793225Y-120418989D01*
X109897629Y-120671043D01*
X110049201Y-120897886D01*
X110242114Y-121090799D01*
X110305801Y-121133354D01*
X110264956Y-121155186D01*
X110169192Y-121419587D01*
X111125000Y-122375395D01*
X111139143Y-122361253D01*
X111318748Y-122540858D01*
X111304605Y-122555000D01*
X112260413Y-123510808D01*
X112524814Y-123415044D01*
X112665704Y-123125429D01*
X112747384Y-122813892D01*
X112757538Y-122645051D01*
X112890537Y-122733918D01*
X113188088Y-122857168D01*
X113503967Y-122920000D01*
X113826033Y-122920000D01*
X114141912Y-122857168D01*
X114439463Y-122733918D01*
X114689000Y-122567183D01*
X114689000Y-123134248D01*
X114683509Y-123190000D01*
X114689000Y-123245751D01*
X114705423Y-123412498D01*
X114770324Y-123626446D01*
X114875716Y-123823623D01*
X115017551Y-123996449D01*
X115060864Y-124031995D01*
X115871008Y-124842140D01*
X115906551Y-124885449D01*
X115990154Y-124954060D01*
X116079377Y-125027284D01*
X116276553Y-125132676D01*
X116490501Y-125197577D01*
X116713000Y-125219491D01*
X116768752Y-125214000D01*
X118968550Y-125214000D01*
X118901115Y-125471229D01*
X118881795Y-125792615D01*
X118925546Y-126111595D01*
X119030686Y-126415911D01*
X119123601Y-126589742D01*
X119387950Y-126685445D01*
X120343395Y-125730000D01*
X120702605Y-125730000D01*
X121658050Y-126685445D01*
X121922399Y-126589742D01*
X122063238Y-126300213D01*
X122108909Y-126126000D01*
X127671928Y-126126000D01*
X127675000Y-126840250D01*
X127833750Y-126999000D01*
X128683000Y-126999000D01*
X128683000Y-125649750D01*
X128524250Y-125491000D01*
X128310000Y-125487928D01*
X128185518Y-125500188D01*
X128065820Y-125536498D01*
X127955506Y-125595463D01*
X127858815Y-125674815D01*
X127779463Y-125771506D01*
X127720498Y-125881820D01*
X127684188Y-126001518D01*
X127671928Y-126126000D01*
X122108909Y-126126000D01*
X122144885Y-125988771D01*
X122164205Y-125667385D01*
X122120454Y-125348405D01*
X122015314Y-125044089D01*
X121922399Y-124870258D01*
X121658050Y-124774555D01*
X120702605Y-125730000D01*
X120343395Y-125730000D01*
X120329253Y-125715858D01*
X120508858Y-125536253D01*
X120523000Y-125550395D01*
X121478445Y-124594950D01*
X121455831Y-124532487D01*
X121564927Y-124459592D01*
X121792592Y-124231927D01*
X121971467Y-123964222D01*
X122094678Y-123666763D01*
X122157490Y-123350983D01*
X122157490Y-123029017D01*
X122094678Y-122713237D01*
X121971467Y-122415778D01*
X121792592Y-122148073D01*
X121564927Y-121920408D01*
X121297222Y-121741533D01*
X120999763Y-121618322D01*
X120683983Y-121555510D01*
X120362017Y-121555510D01*
X120046237Y-121618322D01*
X119748778Y-121741533D01*
X119558701Y-121868539D01*
X119617490Y-121572983D01*
X119617490Y-121251017D01*
X119554678Y-120935237D01*
X119431467Y-120637778D01*
X119252592Y-120370073D01*
X119024927Y-120142408D01*
X118757222Y-119963533D01*
X118459763Y-119840322D01*
X118143983Y-119777510D01*
X117822017Y-119777510D01*
X117506237Y-119840322D01*
X117208778Y-119963533D01*
X116959000Y-120130430D01*
X116959000Y-117657741D01*
X116964490Y-117601999D01*
X116959000Y-117546257D01*
X116959000Y-117546248D01*
X116942577Y-117379501D01*
X116877676Y-117165553D01*
X116772284Y-116968377D01*
X116630449Y-116795551D01*
X116587140Y-116760008D01*
X115268996Y-115441865D01*
X115233449Y-115398551D01*
X115060623Y-115256716D01*
X114863447Y-115151324D01*
X114785449Y-115127663D01*
X114688188Y-115047843D01*
X114447581Y-114919236D01*
X114186507Y-114840040D01*
X113983037Y-114820000D01*
X113346963Y-114820000D01*
X113143493Y-114840040D01*
X112882419Y-114919236D01*
X112641812Y-115047843D01*
X112430919Y-115220919D01*
X112257843Y-115431812D01*
X112129236Y-115672419D01*
X112050040Y-115933493D01*
X112023299Y-116205000D01*
X112028091Y-116253650D01*
X111907581Y-116189236D01*
X111646507Y-116110040D01*
X111443037Y-116090000D01*
X110806963Y-116090000D01*
X110603493Y-116110040D01*
X110342419Y-116189236D01*
X110101812Y-116317843D01*
X109890919Y-116490919D01*
X109717843Y-116701812D01*
X109589236Y-116942419D01*
X109510040Y-117203493D01*
X109483299Y-117475000D01*
X101040000Y-117475000D01*
X101040000Y-114065098D01*
X102390000Y-114065098D01*
X102390000Y-114534902D01*
X102481654Y-114995679D01*
X102661440Y-115429721D01*
X102922450Y-115820349D01*
X103254651Y-116152550D01*
X103645279Y-116413560D01*
X104079321Y-116593346D01*
X104540098Y-116685000D01*
X105009902Y-116685000D01*
X105470679Y-116593346D01*
X105904721Y-116413560D01*
X106295349Y-116152550D01*
X106627550Y-115820349D01*
X106888560Y-115429721D01*
X107068346Y-114995679D01*
X107160000Y-114534902D01*
X107160000Y-114065098D01*
X107068346Y-113604321D01*
X106888560Y-113170279D01*
X106627550Y-112779651D01*
X106295349Y-112447450D01*
X105904721Y-112186440D01*
X105470679Y-112006654D01*
X105009902Y-111915000D01*
X104540098Y-111915000D01*
X104079321Y-112006654D01*
X103645279Y-112186440D01*
X103254651Y-112447450D01*
X102922450Y-112779651D01*
X102661440Y-113170279D01*
X102481654Y-113604321D01*
X102390000Y-114065098D01*
X101040000Y-114065098D01*
X101040000Y-108763446D01*
X101063811Y-108883152D01*
X101304968Y-109465356D01*
X101655074Y-109989326D01*
X102100674Y-110434926D01*
X102624644Y-110785032D01*
X103206848Y-111026189D01*
X103824913Y-111149130D01*
X104455087Y-111149130D01*
X104747240Y-111091017D01*
X116348510Y-111091017D01*
X116348510Y-111412983D01*
X116411322Y-111728763D01*
X116534533Y-112026222D01*
X116713408Y-112293927D01*
X116941073Y-112521592D01*
X117208778Y-112700467D01*
X117506237Y-112823678D01*
X117822017Y-112886490D01*
X118143983Y-112886490D01*
X118459763Y-112823678D01*
X118757222Y-112700467D01*
X119024927Y-112521592D01*
X119252592Y-112293927D01*
X119431467Y-112026222D01*
X119554678Y-111728763D01*
X119617490Y-111412983D01*
X119617490Y-111091017D01*
X119554678Y-110775237D01*
X119431467Y-110477778D01*
X119252592Y-110210073D01*
X119024927Y-109982408D01*
X118757222Y-109803533D01*
X118459763Y-109680322D01*
X118143983Y-109617510D01*
X117822017Y-109617510D01*
X117506237Y-109680322D01*
X117208778Y-109803533D01*
X116941073Y-109982408D01*
X116713408Y-110210073D01*
X116534533Y-110477778D01*
X116411322Y-110775237D01*
X116348510Y-111091017D01*
X104747240Y-111091017D01*
X105073152Y-111026189D01*
X105655356Y-110785032D01*
X106179326Y-110434926D01*
X106624926Y-109989326D01*
X106975032Y-109465356D01*
X107216189Y-108883152D01*
X107339130Y-108265087D01*
X107339130Y-107789017D01*
X108855510Y-107789017D01*
X108855510Y-108110983D01*
X108918322Y-108426763D01*
X109041533Y-108724222D01*
X109220408Y-108991927D01*
X109448073Y-109219592D01*
X109715778Y-109398467D01*
X110013237Y-109521678D01*
X110329017Y-109584490D01*
X110650983Y-109584490D01*
X110966763Y-109521678D01*
X111264222Y-109398467D01*
X111531927Y-109219592D01*
X111759592Y-108991927D01*
X111760000Y-108991316D01*
X111760408Y-108991927D01*
X111988073Y-109219592D01*
X112255778Y-109398467D01*
X112553237Y-109521678D01*
X112869017Y-109584490D01*
X113190983Y-109584490D01*
X113506763Y-109521678D01*
X113804222Y-109398467D01*
X114071927Y-109219592D01*
X114299592Y-108991927D01*
X114300000Y-108991316D01*
X114300408Y-108991927D01*
X114528073Y-109219592D01*
X114795778Y-109398467D01*
X115093237Y-109521678D01*
X115409017Y-109584490D01*
X115730983Y-109584490D01*
X116046763Y-109521678D01*
X116344222Y-109398467D01*
X116555144Y-109257533D01*
X116579973Y-109303984D01*
X116659325Y-109400675D01*
X116756016Y-109480027D01*
X116866330Y-109538992D01*
X116986028Y-109575302D01*
X117110510Y-109587562D01*
X117824250Y-109584490D01*
X117983000Y-109425740D01*
X117983000Y-108077000D01*
X118237000Y-108077000D01*
X118237000Y-109425740D01*
X118395750Y-109584490D01*
X119109490Y-109587562D01*
X119233972Y-109575302D01*
X119353670Y-109538992D01*
X119463984Y-109480027D01*
X119560675Y-109400675D01*
X119640027Y-109303984D01*
X119698992Y-109193670D01*
X119735302Y-109073972D01*
X119747562Y-108949490D01*
X119744490Y-108235750D01*
X119585740Y-108077000D01*
X118237000Y-108077000D01*
X117983000Y-108077000D01*
X117963000Y-108077000D01*
X117963000Y-107823000D01*
X117983000Y-107823000D01*
X117983000Y-106474260D01*
X118237000Y-106474260D01*
X118237000Y-107823000D01*
X119585740Y-107823000D01*
X119744490Y-107664250D01*
X119747562Y-106950510D01*
X119735302Y-106826028D01*
X119698992Y-106706330D01*
X119640027Y-106596016D01*
X119560675Y-106499325D01*
X119463984Y-106419973D01*
X119353670Y-106361008D01*
X119233972Y-106324698D01*
X119109490Y-106312438D01*
X118395750Y-106315510D01*
X118237000Y-106474260D01*
X117983000Y-106474260D01*
X117824250Y-106315510D01*
X117110510Y-106312438D01*
X116986028Y-106324698D01*
X116866330Y-106361008D01*
X116756016Y-106419973D01*
X116659325Y-106499325D01*
X116579973Y-106596016D01*
X116555144Y-106642467D01*
X116344222Y-106501533D01*
X116046763Y-106378322D01*
X115730983Y-106315510D01*
X115409017Y-106315510D01*
X115093237Y-106378322D01*
X114795778Y-106501533D01*
X114528073Y-106680408D01*
X114300408Y-106908073D01*
X114300000Y-106908684D01*
X114299592Y-106908073D01*
X114071927Y-106680408D01*
X113804222Y-106501533D01*
X113506763Y-106378322D01*
X113190983Y-106315510D01*
X112869017Y-106315510D01*
X112553237Y-106378322D01*
X112255778Y-106501533D01*
X111988073Y-106680408D01*
X111760408Y-106908073D01*
X111760000Y-106908684D01*
X111759592Y-106908073D01*
X111531927Y-106680408D01*
X111264222Y-106501533D01*
X110966763Y-106378322D01*
X110650983Y-106315510D01*
X110329017Y-106315510D01*
X110013237Y-106378322D01*
X109715778Y-106501533D01*
X109448073Y-106680408D01*
X109220408Y-106908073D01*
X109041533Y-107175778D01*
X108918322Y-107473237D01*
X108855510Y-107789017D01*
X107339130Y-107789017D01*
X107339130Y-107634913D01*
X107216189Y-107016848D01*
X106975032Y-106434644D01*
X106624926Y-105910674D01*
X106179326Y-105465074D01*
X105655356Y-105114968D01*
X105073152Y-104873811D01*
X104953446Y-104850000D01*
X156770000Y-104850000D01*
X156770000Y-107849489D01*
%TA.AperFunction,Conductor*%
D26*
G36*
X156770000Y-107849489D02*
G01*
X156695411Y-107709941D01*
X156584817Y-107575183D01*
X156551045Y-107547467D01*
X156104534Y-107100956D01*
X156076817Y-107067183D01*
X155942059Y-106956589D01*
X155788313Y-106874411D01*
X155621490Y-106823805D01*
X155491477Y-106811000D01*
X155491469Y-106811000D01*
X155448000Y-106806719D01*
X155404531Y-106811000D01*
X152189465Y-106811000D01*
X152145999Y-106806719D01*
X152102533Y-106811000D01*
X152102523Y-106811000D01*
X151972510Y-106823805D01*
X151805687Y-106874411D01*
X151651941Y-106956589D01*
X151651939Y-106956590D01*
X151651940Y-106956590D01*
X151550953Y-107039468D01*
X151550951Y-107039470D01*
X151517183Y-107067183D01*
X151489470Y-107100951D01*
X150227562Y-108362859D01*
X150227562Y-106950510D01*
X150215302Y-106826028D01*
X150178992Y-106706330D01*
X150120027Y-106596016D01*
X150040675Y-106499325D01*
X149943984Y-106419973D01*
X149833670Y-106361008D01*
X149713972Y-106324698D01*
X149589490Y-106312438D01*
X147590510Y-106312438D01*
X147466028Y-106324698D01*
X147346330Y-106361008D01*
X147236016Y-106419973D01*
X147139325Y-106499325D01*
X147059973Y-106596016D01*
X147008599Y-106692129D01*
X146966471Y-106647489D01*
X146743427Y-106488928D01*
X146493735Y-106376927D01*
X146391185Y-106358192D01*
X146177000Y-106480854D01*
X146177000Y-107823000D01*
X146197000Y-107823000D01*
X146197000Y-108077000D01*
X146177000Y-108077000D01*
X146177000Y-109419146D01*
X146391185Y-109541808D01*
X146493735Y-109523073D01*
X146743427Y-109411072D01*
X146966471Y-109252511D01*
X147008599Y-109207871D01*
X147059973Y-109303984D01*
X147139325Y-109400675D01*
X147236016Y-109480027D01*
X147346330Y-109538992D01*
X147466028Y-109575302D01*
X147590510Y-109587562D01*
X149002859Y-109587562D01*
X146445422Y-112145000D01*
X143946201Y-112145000D01*
X143948072Y-112126000D01*
X143948072Y-110126000D01*
X143935812Y-110001518D01*
X143899502Y-109881820D01*
X143840537Y-109771506D01*
X143761185Y-109674815D01*
X143664494Y-109595463D01*
X143633707Y-109579007D01*
X143781506Y-109564450D01*
X144042580Y-109485254D01*
X144283187Y-109356647D01*
X144494080Y-109183571D01*
X144667157Y-108972678D01*
X144778510Y-108764352D01*
X144800317Y-108821636D01*
X144945704Y-109053483D01*
X145133529Y-109252511D01*
X145356573Y-109411072D01*
X145606265Y-109523073D01*
X145708815Y-109541808D01*
X145923000Y-109419146D01*
X145923000Y-108077000D01*
X145903000Y-108077000D01*
X145903000Y-107823000D01*
X145923000Y-107823000D01*
X145923000Y-106480854D01*
X145708815Y-106358192D01*
X145606265Y-106376927D01*
X145356573Y-106488928D01*
X145133529Y-106647489D01*
X144945704Y-106846517D01*
X144800317Y-107078364D01*
X144778510Y-107135649D01*
X144667157Y-106927322D01*
X144494081Y-106716429D01*
X144283188Y-106543353D01*
X144042581Y-106414746D01*
X143781507Y-106335550D01*
X143510000Y-106308809D01*
X143238494Y-106335550D01*
X142977420Y-106414746D01*
X142736813Y-106543353D01*
X142525920Y-106716429D01*
X142352843Y-106927322D01*
X142240000Y-107138437D01*
X142127157Y-106927322D01*
X141954081Y-106716429D01*
X141743188Y-106543353D01*
X141502581Y-106414746D01*
X141241507Y-106335550D01*
X140970000Y-106308809D01*
X140698494Y-106335550D01*
X140437420Y-106414746D01*
X140196813Y-106543353D01*
X139985920Y-106716429D01*
X139812843Y-106927322D01*
X139700000Y-107138437D01*
X139587157Y-106927322D01*
X139414081Y-106716429D01*
X139203188Y-106543353D01*
X138962581Y-106414746D01*
X138701507Y-106335550D01*
X138430000Y-106308809D01*
X138158494Y-106335550D01*
X137897420Y-106414746D01*
X137656813Y-106543353D01*
X137445920Y-106716429D01*
X137272843Y-106927322D01*
X137228227Y-107010793D01*
X137159592Y-106908073D01*
X136931927Y-106680408D01*
X136664222Y-106501533D01*
X136366763Y-106378322D01*
X136050983Y-106315510D01*
X135729017Y-106315510D01*
X135413237Y-106378322D01*
X135115778Y-106501533D01*
X134848073Y-106680408D01*
X134620408Y-106908073D01*
X134620000Y-106908684D01*
X134619592Y-106908073D01*
X134391927Y-106680408D01*
X134124222Y-106501533D01*
X133826763Y-106378322D01*
X133510983Y-106315510D01*
X133189017Y-106315510D01*
X132873237Y-106378322D01*
X132575778Y-106501533D01*
X132308073Y-106680408D01*
X132080408Y-106908073D01*
X132080000Y-106908684D01*
X132079592Y-106908073D01*
X131851927Y-106680408D01*
X131584222Y-106501533D01*
X131286763Y-106378322D01*
X130970983Y-106315510D01*
X130649017Y-106315510D01*
X130333237Y-106378322D01*
X130035778Y-106501533D01*
X129768073Y-106680408D01*
X129540408Y-106908073D01*
X129471612Y-107011033D01*
X128164534Y-105703956D01*
X128136817Y-105670183D01*
X128002059Y-105559589D01*
X127848313Y-105477411D01*
X127681490Y-105426805D01*
X127551477Y-105414000D01*
X127551469Y-105414000D01*
X127508000Y-105409719D01*
X127464531Y-105414000D01*
X125011465Y-105414000D01*
X124967999Y-105409719D01*
X124924533Y-105414000D01*
X124924523Y-105414000D01*
X124794510Y-105426805D01*
X124627687Y-105477411D01*
X124473941Y-105559589D01*
X124473939Y-105559590D01*
X124473940Y-105559590D01*
X124372953Y-105642468D01*
X124372951Y-105642470D01*
X124339183Y-105670183D01*
X124311470Y-105703951D01*
X122848951Y-107166471D01*
X122815184Y-107194183D01*
X122787471Y-107227951D01*
X122787468Y-107227954D01*
X122704590Y-107328941D01*
X122622412Y-107482687D01*
X122571805Y-107649510D01*
X122554719Y-107823000D01*
X122559001Y-107866479D01*
X122559000Y-117939523D01*
X122559000Y-117939524D01*
X122559001Y-120036940D01*
X122401748Y-120142013D01*
X122174013Y-120369748D01*
X121995082Y-120637537D01*
X121871832Y-120935088D01*
X121809000Y-121250967D01*
X121809000Y-121573033D01*
X121871832Y-121888912D01*
X121995082Y-122186463D01*
X122174013Y-122454252D01*
X122401748Y-122681987D01*
X122669537Y-122860918D01*
X122967088Y-122984168D01*
X123282967Y-123047000D01*
X123605033Y-123047000D01*
X123920912Y-122984168D01*
X124218463Y-122860918D01*
X124486252Y-122681987D01*
X124713987Y-122454252D01*
X124892918Y-122186463D01*
X125016168Y-121888912D01*
X125079000Y-121573033D01*
X125079000Y-121250967D01*
X125016168Y-120935088D01*
X124892918Y-120637537D01*
X124713987Y-120369748D01*
X124486252Y-120142013D01*
X124329000Y-120036941D01*
X124329000Y-108189578D01*
X124474407Y-108044172D01*
X124430000Y-108267419D01*
X124430000Y-108648581D01*
X124504361Y-109022419D01*
X124650225Y-109374566D01*
X124861987Y-109691491D01*
X125131509Y-109961013D01*
X125182606Y-109995155D01*
X125095013Y-110082748D01*
X124916082Y-110350537D01*
X124792832Y-110648088D01*
X124730000Y-110963967D01*
X124730000Y-111286033D01*
X124792832Y-111601912D01*
X124916082Y-111899463D01*
X125095013Y-112167252D01*
X125322748Y-112394987D01*
X125590537Y-112573918D01*
X125888088Y-112697168D01*
X126203967Y-112760000D01*
X126526033Y-112760000D01*
X126841912Y-112697168D01*
X127139463Y-112573918D01*
X127407252Y-112394987D01*
X127634987Y-112167252D01*
X127671928Y-112111966D01*
X127671928Y-112126000D01*
X127684188Y-112250482D01*
X127720498Y-112370180D01*
X127779463Y-112480494D01*
X127858815Y-112577185D01*
X127955506Y-112656537D01*
X128065820Y-112715502D01*
X128185518Y-112751812D01*
X128310000Y-112764072D01*
X129310000Y-112764072D01*
X129434482Y-112751812D01*
X129554180Y-112715502D01*
X129664494Y-112656537D01*
X129761185Y-112577185D01*
X129810000Y-112517704D01*
X129858815Y-112577185D01*
X129955506Y-112656537D01*
X130065820Y-112715502D01*
X130185518Y-112751812D01*
X130310000Y-112764072D01*
X130524250Y-112761000D01*
X130683000Y-112602250D01*
X130683000Y-111253000D01*
X130663000Y-111253000D01*
X130663000Y-110999000D01*
X130683000Y-110999000D01*
X130683000Y-110979000D01*
X130937000Y-110979000D01*
X130937000Y-110999000D01*
X130957000Y-110999000D01*
X130957000Y-111253000D01*
X130937000Y-111253000D01*
X130937000Y-112602250D01*
X131095750Y-112761000D01*
X131310000Y-112764072D01*
X131434482Y-112751812D01*
X131554180Y-112715502D01*
X131664494Y-112656537D01*
X131761185Y-112577185D01*
X131810000Y-112517704D01*
X131858815Y-112577185D01*
X131955506Y-112656537D01*
X132065820Y-112715502D01*
X132185518Y-112751812D01*
X132310000Y-112764072D01*
X133310000Y-112764072D01*
X133434482Y-112751812D01*
X133554180Y-112715502D01*
X133664494Y-112656537D01*
X133761185Y-112577185D01*
X133810000Y-112517704D01*
X133858815Y-112577185D01*
X133955506Y-112656537D01*
X134065820Y-112715502D01*
X134185518Y-112751812D01*
X134310000Y-112764072D01*
X135310000Y-112764072D01*
X135434482Y-112751812D01*
X135554180Y-112715502D01*
X135664494Y-112656537D01*
X135675000Y-112647915D01*
X135675001Y-114361760D01*
X135509013Y-114527748D01*
X135330082Y-114795537D01*
X135206832Y-115093088D01*
X135144000Y-115408967D01*
X135144000Y-115731033D01*
X135206832Y-116046912D01*
X135330082Y-116344463D01*
X135509013Y-116612252D01*
X135736748Y-116839987D01*
X136004537Y-117018918D01*
X136302088Y-117142168D01*
X136617967Y-117205000D01*
X136940033Y-117205000D01*
X137255912Y-117142168D01*
X137553463Y-117018918D01*
X137727522Y-116902615D01*
X144408795Y-116902615D01*
X144452546Y-117221595D01*
X144557686Y-117525911D01*
X144650601Y-117699742D01*
X144914950Y-117795445D01*
X145870395Y-116840000D01*
X144914950Y-115884555D01*
X144650601Y-115980258D01*
X144509762Y-116269787D01*
X144428115Y-116581229D01*
X144408795Y-116902615D01*
X137727522Y-116902615D01*
X137821252Y-116839987D01*
X138048987Y-116612252D01*
X138227918Y-116344463D01*
X138351168Y-116046912D01*
X138414000Y-115731033D01*
X138414000Y-115704950D01*
X145094555Y-115704950D01*
X146050000Y-116660395D01*
X147005445Y-115704950D01*
X146909742Y-115440601D01*
X146620213Y-115299762D01*
X146308771Y-115218115D01*
X145987385Y-115198795D01*
X145668405Y-115242546D01*
X145364089Y-115347686D01*
X145190258Y-115440601D01*
X145094555Y-115704950D01*
X138414000Y-115704950D01*
X138414000Y-115408967D01*
X138351168Y-115093088D01*
X138227918Y-114795537D01*
X138048987Y-114527748D01*
X137945000Y-114423761D01*
X137945000Y-113099208D01*
X137988412Y-113242313D01*
X138070590Y-113396059D01*
X138153468Y-113497046D01*
X138153471Y-113497049D01*
X138181184Y-113530817D01*
X138214951Y-113558529D01*
X139297470Y-114641049D01*
X139325183Y-114674817D01*
X139358951Y-114702530D01*
X139358953Y-114702532D01*
X139395531Y-114732551D01*
X139459941Y-114785411D01*
X139613687Y-114867589D01*
X139780510Y-114918195D01*
X139910523Y-114931000D01*
X139910533Y-114931000D01*
X139953999Y-114935281D01*
X139997465Y-114931000D01*
X147276531Y-114931000D01*
X147320000Y-114935281D01*
X147363469Y-114931000D01*
X147363477Y-114931000D01*
X147493490Y-114918195D01*
X147660313Y-114867589D01*
X147814059Y-114785411D01*
X147948817Y-114674817D01*
X147976534Y-114641044D01*
X151402579Y-111215000D01*
X152397379Y-111215000D01*
X152430498Y-111324180D01*
X152489463Y-111434494D01*
X152568815Y-111531185D01*
X152665506Y-111610537D01*
X152775820Y-111669502D01*
X152810427Y-111680000D01*
X152775820Y-111690498D01*
X152665506Y-111749463D01*
X152568815Y-111828815D01*
X152489463Y-111925506D01*
X152430498Y-112035820D01*
X152394188Y-112155518D01*
X152381928Y-112280000D01*
X152381928Y-113780000D01*
X152394188Y-113904482D01*
X152430498Y-114024180D01*
X152489463Y-114134494D01*
X152568815Y-114231185D01*
X152665506Y-114310537D01*
X152775820Y-114369502D01*
X152895518Y-114405812D01*
X153020000Y-114418072D01*
X154320000Y-114418072D01*
X154444482Y-114405812D01*
X154564180Y-114369502D01*
X154674494Y-114310537D01*
X154771185Y-114231185D01*
X154780173Y-114220233D01*
X154854815Y-114311185D01*
X154951506Y-114390537D01*
X155061820Y-114449502D01*
X155071000Y-114452287D01*
X155071001Y-117109657D01*
X154927537Y-117169082D01*
X154659748Y-117348013D01*
X154432013Y-117575748D01*
X154253082Y-117843537D01*
X154129832Y-118141088D01*
X154067000Y-118456967D01*
X154067000Y-118779033D01*
X154129832Y-119094912D01*
X154253082Y-119392463D01*
X154432013Y-119660252D01*
X154659748Y-119887987D01*
X154927537Y-120066918D01*
X155225088Y-120190168D01*
X155540967Y-120253000D01*
X155863033Y-120253000D01*
X156178912Y-120190168D01*
X156476463Y-120066918D01*
X156744252Y-119887987D01*
X156770001Y-119862238D01*
X156770001Y-129996558D01*
X156746189Y-129876848D01*
X156505032Y-129294644D01*
X156154926Y-128770674D01*
X155709326Y-128325074D01*
X155185356Y-127974968D01*
X154603152Y-127733811D01*
X153985087Y-127610870D01*
X153354913Y-127610870D01*
X152736848Y-127733811D01*
X152154644Y-127974968D01*
X151630674Y-128325074D01*
X151185074Y-128770674D01*
X150834968Y-129294644D01*
X150593811Y-129876848D01*
X150470870Y-130494913D01*
X150470870Y-131125087D01*
X150593811Y-131743152D01*
X150834968Y-132325356D01*
X151185074Y-132849326D01*
X151630674Y-133294926D01*
X152154644Y-133645032D01*
X152736848Y-133886189D01*
X152856554Y-133910000D01*
X149127132Y-133910000D01*
X149353140Y-133683992D01*
X149396449Y-133648449D01*
X149538284Y-133475623D01*
X149643676Y-133278447D01*
X149708577Y-133064499D01*
X149725000Y-132897752D01*
X149730491Y-132842000D01*
X149725000Y-132786248D01*
X149725000Y-131986519D01*
X149859592Y-131851927D01*
X150038467Y-131584222D01*
X150161678Y-131286763D01*
X150224490Y-130970983D01*
X150224490Y-130649017D01*
X150161678Y-130333237D01*
X150038467Y-130035778D01*
X149859592Y-129768073D01*
X149631927Y-129540408D01*
X149364222Y-129361533D01*
X149066763Y-129238322D01*
X148750983Y-129175510D01*
X148429017Y-129175510D01*
X148113237Y-129238322D01*
X147815778Y-129361533D01*
X147548073Y-129540408D01*
X147320408Y-129768073D01*
X147320000Y-129768684D01*
X147319592Y-129768073D01*
X147091927Y-129540408D01*
X146824222Y-129361533D01*
X146526763Y-129238322D01*
X146210983Y-129175510D01*
X145889017Y-129175510D01*
X145573237Y-129238322D01*
X145275778Y-129361533D01*
X145008073Y-129540408D01*
X144780408Y-129768073D01*
X144780000Y-129768684D01*
X144779592Y-129768073D01*
X144551927Y-129540408D01*
X144284222Y-129361533D01*
X143986763Y-129238322D01*
X143670983Y-129175510D01*
X143349017Y-129175510D01*
X143098134Y-129225413D01*
X142558219Y-128727031D01*
X142683000Y-128602250D01*
X142683000Y-127253000D01*
X142937000Y-127253000D01*
X142937000Y-128602250D01*
X143095750Y-128761000D01*
X143310000Y-128764072D01*
X143434482Y-128751812D01*
X143554180Y-128715502D01*
X143664494Y-128656537D01*
X143761185Y-128577185D01*
X143840537Y-128480494D01*
X143899502Y-128370180D01*
X143935812Y-128250482D01*
X143948072Y-128126000D01*
X143945000Y-127411750D01*
X143786250Y-127253000D01*
X142937000Y-127253000D01*
X142683000Y-127253000D01*
X142663000Y-127253000D01*
X142663000Y-126999000D01*
X142683000Y-126999000D01*
X142683000Y-125649750D01*
X142937000Y-125649750D01*
X142937000Y-126999000D01*
X143786250Y-126999000D01*
X143945000Y-126840250D01*
X143948072Y-126126000D01*
X143935812Y-126001518D01*
X143899502Y-125881820D01*
X143840537Y-125771506D01*
X143761185Y-125674815D01*
X143664494Y-125595463D01*
X143554180Y-125536498D01*
X143434482Y-125500188D01*
X143310000Y-125487928D01*
X143095750Y-125491000D01*
X142937000Y-125649750D01*
X142683000Y-125649750D01*
X142524250Y-125491000D01*
X142310000Y-125487928D01*
X142198688Y-125498891D01*
X142352579Y-125345000D01*
X144675553Y-125345000D01*
X144780408Y-125501927D01*
X145008073Y-125729592D01*
X145008684Y-125730000D01*
X145008073Y-125730408D01*
X144780408Y-125958073D01*
X144601533Y-126225778D01*
X144478322Y-126523237D01*
X144415510Y-126839017D01*
X144415510Y-127160983D01*
X144478322Y-127476763D01*
X144601533Y-127774222D01*
X144780408Y-128041927D01*
X145008073Y-128269592D01*
X145275778Y-128448467D01*
X145573237Y-128571678D01*
X145889017Y-128634490D01*
X146210983Y-128634490D01*
X146526763Y-128571678D01*
X146824222Y-128448467D01*
X147035144Y-128307533D01*
X147059973Y-128353984D01*
X147139325Y-128450675D01*
X147236016Y-128530027D01*
X147346330Y-128588992D01*
X147466028Y-128625302D01*
X147590510Y-128637562D01*
X149589490Y-128637562D01*
X149713972Y-128625302D01*
X149833670Y-128588992D01*
X149943984Y-128530027D01*
X150040675Y-128450675D01*
X150120027Y-128353984D01*
X150178992Y-128243670D01*
X150215302Y-128123972D01*
X150227562Y-127999490D01*
X150227562Y-126000510D01*
X150215302Y-125876028D01*
X150178992Y-125756330D01*
X150120027Y-125646016D01*
X150040675Y-125549325D01*
X149943984Y-125469973D01*
X149833670Y-125411008D01*
X149781238Y-125395103D01*
X149989399Y-125319742D01*
X150130238Y-125030213D01*
X150211885Y-124718771D01*
X150231205Y-124397385D01*
X150187454Y-124078405D01*
X150082314Y-123774089D01*
X149989399Y-123600258D01*
X149725050Y-123504555D01*
X148769605Y-124460000D01*
X148783748Y-124474143D01*
X148604143Y-124653748D01*
X148590000Y-124639605D01*
X148575858Y-124653748D01*
X148396253Y-124474143D01*
X148410395Y-124460000D01*
X147454950Y-123504555D01*
X147392487Y-123527169D01*
X147319592Y-123418073D01*
X147091927Y-123190408D01*
X147091316Y-123190000D01*
X147091927Y-123189592D01*
X147319592Y-122961927D01*
X147320000Y-122961316D01*
X147320408Y-122961927D01*
X147548073Y-123189592D01*
X147657169Y-123262487D01*
X147634555Y-123324950D01*
X148590000Y-124280395D01*
X149545445Y-123324950D01*
X149522831Y-123262487D01*
X149631927Y-123189592D01*
X149859592Y-122961927D01*
X150038467Y-122694222D01*
X150161678Y-122396763D01*
X150224490Y-122080983D01*
X150224490Y-121759017D01*
X150161678Y-121443237D01*
X150038467Y-121145778D01*
X149859592Y-120878073D01*
X149631927Y-120650408D01*
X149631316Y-120650000D01*
X149631927Y-120649592D01*
X149859592Y-120421927D01*
X150038467Y-120154222D01*
X150161678Y-119856763D01*
X150224490Y-119540983D01*
X150224490Y-119219017D01*
X150161678Y-118903237D01*
X150038467Y-118605778D01*
X149859592Y-118338073D01*
X149631927Y-118110408D01*
X149631316Y-118110000D01*
X149631927Y-118109592D01*
X149859592Y-117881927D01*
X150038467Y-117614222D01*
X150161678Y-117316763D01*
X150224490Y-117000983D01*
X150224490Y-116679017D01*
X150161678Y-116363237D01*
X150038467Y-116065778D01*
X149859592Y-115798073D01*
X149631927Y-115570408D01*
X149364222Y-115391533D01*
X149066763Y-115268322D01*
X148750983Y-115205510D01*
X148429017Y-115205510D01*
X148113237Y-115268322D01*
X147815778Y-115391533D01*
X147548073Y-115570408D01*
X147320408Y-115798073D01*
X147247513Y-115907169D01*
X147185050Y-115884555D01*
X146229605Y-116840000D01*
X147185050Y-117795445D01*
X147247513Y-117772831D01*
X147320408Y-117881927D01*
X147548073Y-118109592D01*
X147548684Y-118110000D01*
X147548073Y-118110408D01*
X147320408Y-118338073D01*
X147320000Y-118338684D01*
X147319592Y-118338073D01*
X147091927Y-118110408D01*
X146982831Y-118037513D01*
X147005445Y-117975050D01*
X146050000Y-117019605D01*
X145094555Y-117975050D01*
X145117169Y-118037513D01*
X145008073Y-118110408D01*
X144780408Y-118338073D01*
X144601533Y-118605778D01*
X144478322Y-118903237D01*
X144415510Y-119219017D01*
X144415510Y-119540983D01*
X144478322Y-119856763D01*
X144601533Y-120154222D01*
X144780408Y-120421927D01*
X145008073Y-120649592D01*
X145008684Y-120650000D01*
X145008073Y-120650408D01*
X144780408Y-120878073D01*
X144601533Y-121145778D01*
X144478322Y-121443237D01*
X144415510Y-121759017D01*
X144415510Y-122080983D01*
X144478322Y-122396763D01*
X144601533Y-122694222D01*
X144780408Y-122961927D01*
X145008073Y-123189592D01*
X145008684Y-123190000D01*
X145008073Y-123190408D01*
X144780408Y-123418073D01*
X144675553Y-123575000D01*
X142029465Y-123575000D01*
X141985999Y-123570719D01*
X141942533Y-123575000D01*
X141942523Y-123575000D01*
X141812510Y-123587805D01*
X141645687Y-123638411D01*
X141491941Y-123720589D01*
X141491939Y-123720590D01*
X141491940Y-123720590D01*
X141390953Y-123803468D01*
X141390951Y-123803470D01*
X141357183Y-123831183D01*
X141329470Y-123864951D01*
X140214951Y-124979471D01*
X140181184Y-125007183D01*
X140153471Y-125040951D01*
X140153468Y-125040954D01*
X140070590Y-125141941D01*
X139988412Y-125295687D01*
X139937805Y-125462510D01*
X139922003Y-125622958D01*
X139858815Y-125674815D01*
X139810000Y-125734296D01*
X139761185Y-125674815D01*
X139664494Y-125595463D01*
X139554180Y-125536498D01*
X139434482Y-125500188D01*
X139310000Y-125487928D01*
X138310000Y-125487928D01*
X138185518Y-125500188D01*
X138065820Y-125536498D01*
X137955506Y-125595463D01*
X137858815Y-125674815D01*
X137810000Y-125734296D01*
X137761185Y-125674815D01*
X137664494Y-125595463D01*
X137554180Y-125536498D01*
X137434482Y-125500188D01*
X137310000Y-125487928D01*
X136310000Y-125487928D01*
X136185518Y-125500188D01*
X136065820Y-125536498D01*
X135955506Y-125595463D01*
X135858815Y-125674815D01*
X135810000Y-125734296D01*
X135761185Y-125674815D01*
X135664494Y-125595463D01*
X135554180Y-125536498D01*
X135434482Y-125500188D01*
X135310000Y-125487928D01*
X134310000Y-125487928D01*
X134185518Y-125500188D01*
X134065820Y-125536498D01*
X133955506Y-125595463D01*
X133858815Y-125674815D01*
X133810000Y-125734296D01*
X133761185Y-125674815D01*
X133664494Y-125595463D01*
X133554180Y-125536498D01*
X133434482Y-125500188D01*
X133310000Y-125487928D01*
X132310000Y-125487928D01*
X132185518Y-125500188D01*
X132065820Y-125536498D01*
X131955506Y-125595463D01*
X131858815Y-125674815D01*
X131810000Y-125734296D01*
X131761185Y-125674815D01*
X131664494Y-125595463D01*
X131554180Y-125536498D01*
X131434482Y-125500188D01*
X131310000Y-125487928D01*
X130310000Y-125487928D01*
X130185518Y-125500188D01*
X130065820Y-125536498D01*
X129955506Y-125595463D01*
X129858815Y-125674815D01*
X129810000Y-125734296D01*
X129761185Y-125674815D01*
X129664494Y-125595463D01*
X129554180Y-125536498D01*
X129434482Y-125500188D01*
X129310000Y-125487928D01*
X129095750Y-125491000D01*
X128937000Y-125649750D01*
X128937000Y-126999000D01*
X128957000Y-126999000D01*
X128957000Y-127253000D01*
X128937000Y-127253000D01*
X128937000Y-128602250D01*
X129095750Y-128761000D01*
X129310000Y-128764072D01*
X129434482Y-128751812D01*
X129554180Y-128715502D01*
X129664494Y-128656537D01*
X129761185Y-128577185D01*
X129810000Y-128517704D01*
X129858815Y-128577185D01*
X129955506Y-128656537D01*
X130065820Y-128715502D01*
X130185518Y-128751812D01*
X130310000Y-128764072D01*
X131310000Y-128764072D01*
X131434482Y-128751812D01*
X131554180Y-128715502D01*
X131664494Y-128656537D01*
X131761185Y-128577185D01*
X131810000Y-128517704D01*
X131828354Y-128540068D01*
X131156091Y-129212330D01*
X130970983Y-129175510D01*
X130649017Y-129175510D01*
X130333237Y-129238322D01*
X130035778Y-129361533D01*
X129768073Y-129540408D01*
X129540408Y-129768073D01*
X129361533Y-130035778D01*
X129238322Y-130333237D01*
X129175510Y-130649017D01*
X129175510Y-130970983D01*
X129238322Y-131286763D01*
X129361533Y-131584222D01*
X129540408Y-131851927D01*
X129768073Y-132079592D01*
X130035778Y-132258467D01*
X130237445Y-132342000D01*
X127190044Y-132342000D01*
X127304911Y-132302314D01*
X127478742Y-132209399D01*
X127574445Y-131945050D01*
X126619000Y-130989605D01*
X125663555Y-131945050D01*
X125759258Y-132209399D01*
X126031852Y-132342000D01*
X125214000Y-132342000D01*
X125214000Y-131986519D01*
X125348592Y-131851927D01*
X125421487Y-131742831D01*
X125483950Y-131765445D01*
X126439395Y-130810000D01*
X126798605Y-130810000D01*
X127754050Y-131765445D01*
X128018399Y-131669742D01*
X128159238Y-131380213D01*
X128240885Y-131068771D01*
X128260205Y-130747385D01*
X128216454Y-130428405D01*
X128111314Y-130124089D01*
X128018399Y-129950258D01*
X127754050Y-129854555D01*
X126798605Y-130810000D01*
X126439395Y-130810000D01*
X125483950Y-129854555D01*
X125421487Y-129877169D01*
X125348592Y-129768073D01*
X125255469Y-129674950D01*
X125663555Y-129674950D01*
X126619000Y-130630395D01*
X127574445Y-129674950D01*
X127478742Y-129410601D01*
X127189213Y-129269762D01*
X126877771Y-129188115D01*
X126556385Y-129168795D01*
X126237405Y-129212546D01*
X125933089Y-129317686D01*
X125759258Y-129410601D01*
X125663555Y-129674950D01*
X125255469Y-129674950D01*
X125120927Y-129540408D01*
X124853222Y-129361533D01*
X124555763Y-129238322D01*
X124239983Y-129175510D01*
X123918017Y-129175510D01*
X123602237Y-129238322D01*
X123304778Y-129361533D01*
X123037073Y-129540408D01*
X122809408Y-129768073D01*
X122630533Y-130035778D01*
X122507322Y-130333237D01*
X122444510Y-130649017D01*
X122444510Y-130970983D01*
X122507322Y-131286763D01*
X122630533Y-131584222D01*
X122809408Y-131851927D01*
X122944000Y-131986519D01*
X122944001Y-132342000D01*
X119951044Y-132342000D01*
X120065911Y-132302314D01*
X120239742Y-132209399D01*
X120335445Y-131945050D01*
X119380000Y-130989605D01*
X119365858Y-131003748D01*
X119186253Y-130824143D01*
X119200395Y-130810000D01*
X119559605Y-130810000D01*
X120515050Y-131765445D01*
X120779399Y-131669742D01*
X120920238Y-131380213D01*
X121001885Y-131068771D01*
X121021205Y-130747385D01*
X120977454Y-130428405D01*
X120872314Y-130124089D01*
X120779399Y-129950258D01*
X120515050Y-129854555D01*
X119559605Y-130810000D01*
X119200395Y-130810000D01*
X119186253Y-130795858D01*
X119365858Y-130616253D01*
X119380000Y-130630395D01*
X120335445Y-129674950D01*
X120239742Y-129410601D01*
X119950213Y-129269762D01*
X119638771Y-129188115D01*
X119317385Y-129168795D01*
X118998405Y-129212546D01*
X118694089Y-129317686D01*
X118520258Y-129410601D01*
X118444897Y-129618762D01*
X118428992Y-129566330D01*
X118370027Y-129456016D01*
X118290675Y-129359325D01*
X118193984Y-129279973D01*
X118083670Y-129221008D01*
X117963972Y-129184698D01*
X117839490Y-129172438D01*
X115840510Y-129172438D01*
X115716028Y-129184698D01*
X115596330Y-129221008D01*
X115486016Y-129279973D01*
X115389325Y-129359325D01*
X115309973Y-129456016D01*
X115251008Y-129566330D01*
X115214698Y-129686028D01*
X115202438Y-129810510D01*
X115202438Y-131809490D01*
X115214698Y-131933972D01*
X115251008Y-132053670D01*
X115309973Y-132163984D01*
X115389325Y-132260675D01*
X115486016Y-132340027D01*
X115489707Y-132342000D01*
X113498263Y-132342000D01*
X113508742Y-132336399D01*
X113604445Y-132072050D01*
X112649000Y-131116605D01*
X112634858Y-131130748D01*
X112455253Y-130951143D01*
X112469395Y-130937000D01*
X112828605Y-130937000D01*
X113784050Y-131892445D01*
X114048399Y-131796742D01*
X114189238Y-131507213D01*
X114270885Y-131195771D01*
X114290205Y-130874385D01*
X114246454Y-130555405D01*
X114141314Y-130251089D01*
X114048399Y-130077258D01*
X113784050Y-129981555D01*
X112828605Y-130937000D01*
X112469395Y-130937000D01*
X112455253Y-130922858D01*
X112634858Y-130743253D01*
X112649000Y-130757395D01*
X113604445Y-129801950D01*
X113508742Y-129537601D01*
X113219213Y-129396762D01*
X112907771Y-129315115D01*
X112586385Y-129295795D01*
X112267405Y-129339546D01*
X111963089Y-129444686D01*
X111789258Y-129537601D01*
X111713897Y-129745762D01*
X111697992Y-129693330D01*
X111639027Y-129583016D01*
X111559675Y-129486325D01*
X111462984Y-129406973D01*
X111352670Y-129348008D01*
X111232972Y-129311698D01*
X111108490Y-129299438D01*
X109109510Y-129299438D01*
X108985028Y-129311698D01*
X108865330Y-129348008D01*
X108755016Y-129406973D01*
X108658325Y-129486325D01*
X108578973Y-129583016D01*
X108520008Y-129693330D01*
X108483698Y-129813028D01*
X108471438Y-129937510D01*
X108471438Y-131936490D01*
X108483698Y-132060972D01*
X108520008Y-132180670D01*
X108578973Y-132290984D01*
X108620841Y-132342000D01*
X106580834Y-132342000D01*
X106660721Y-132262113D01*
X106545052Y-132146444D01*
X106809399Y-132050742D01*
X106950238Y-131761213D01*
X107031885Y-131449771D01*
X107051205Y-131128385D01*
X107007454Y-130809405D01*
X106902314Y-130505089D01*
X106809399Y-130331258D01*
X106545050Y-130235555D01*
X105589605Y-131191000D01*
X105603748Y-131205143D01*
X105424143Y-131384748D01*
X105410000Y-131370605D01*
X105395858Y-131384748D01*
X105216253Y-131205143D01*
X105230395Y-131191000D01*
X105216253Y-131176858D01*
X105395858Y-130997253D01*
X105410000Y-131011395D01*
X106365445Y-130055950D01*
X106269742Y-129791601D01*
X105980213Y-129650762D01*
X105668771Y-129569115D01*
X105347385Y-129549795D01*
X105028405Y-129593546D01*
X104724089Y-129698686D01*
X104550258Y-129791601D01*
X104474897Y-129999762D01*
X104458992Y-129947330D01*
X104400027Y-129837016D01*
X104320675Y-129740325D01*
X104223984Y-129660973D01*
X104113670Y-129602008D01*
X103993972Y-129565698D01*
X103869490Y-129553438D01*
X101870510Y-129553438D01*
X101746028Y-129565698D01*
X101626330Y-129602008D01*
X101516016Y-129660973D01*
X101419325Y-129740325D01*
X101339973Y-129837016D01*
X101281008Y-129947330D01*
X101244698Y-130067028D01*
X101232438Y-130191510D01*
X101232438Y-132190490D01*
X101244698Y-132314972D01*
X101281008Y-132434670D01*
X101339973Y-132544984D01*
X101419325Y-132641675D01*
X101516016Y-132721027D01*
X101626330Y-132779992D01*
X101739285Y-132814256D01*
X101751423Y-132937498D01*
X101816324Y-133151446D01*
X101921716Y-133348623D01*
X102063551Y-133521449D01*
X102106864Y-133556995D01*
X102459868Y-133910000D01*
X101040000Y-133910000D01*
X101040000Y-128126000D01*
X127671928Y-128126000D01*
X127684188Y-128250482D01*
X127720498Y-128370180D01*
X127779463Y-128480494D01*
X127858815Y-128577185D01*
X127955506Y-128656537D01*
X128065820Y-128715502D01*
X128185518Y-128751812D01*
X128310000Y-128764072D01*
X128524250Y-128761000D01*
X128683000Y-128602250D01*
X128683000Y-127253000D01*
X127833750Y-127253000D01*
X127675000Y-127411750D01*
X127671928Y-128126000D01*
X101040000Y-128126000D01*
X101040000Y-126865050D01*
X119567555Y-126865050D01*
X119663258Y-127129399D01*
X119952787Y-127270238D01*
X120264229Y-127351885D01*
X120585615Y-127371205D01*
X120904595Y-127327454D01*
X121208911Y-127222314D01*
X121382742Y-127129399D01*
X121478445Y-126865050D01*
X120523000Y-125909605D01*
X119567555Y-126865050D01*
X101040000Y-126865050D01*
X101040000Y-124225098D01*
X102390000Y-124225098D01*
X102390000Y-124694902D01*
X102481654Y-125155679D01*
X102661440Y-125589721D01*
X102922450Y-125980349D01*
X103254651Y-126312550D01*
X103645279Y-126573560D01*
X104079321Y-126753346D01*
X104540098Y-126845000D01*
X105009902Y-126845000D01*
X105470679Y-126753346D01*
X105904721Y-126573560D01*
X106295349Y-126312550D01*
X106627550Y-125980349D01*
X106888560Y-125589721D01*
X107068346Y-125155679D01*
X107160000Y-124694902D01*
X107160000Y-124225098D01*
X107068346Y-123764321D01*
X107037733Y-123690413D01*
X110169192Y-123690413D01*
X110264956Y-123954814D01*
X110554571Y-124095704D01*
X110866108Y-124177384D01*
X111187595Y-124196718D01*
X111506675Y-124152961D01*
X111811088Y-124047795D01*
X111985044Y-123954814D01*
X112080808Y-123690413D01*
X111125000Y-122734605D01*
X110169192Y-123690413D01*
X107037733Y-123690413D01*
X106888560Y-123330279D01*
X106627550Y-122939651D01*
X106305494Y-122617595D01*
X109483282Y-122617595D01*
X109527039Y-122936675D01*
X109632205Y-123241088D01*
X109725186Y-123415044D01*
X109989587Y-123510808D01*
X110945395Y-122555000D01*
X109989587Y-121599192D01*
X109725186Y-121694956D01*
X109584296Y-121984571D01*
X109502616Y-122296108D01*
X109483282Y-122617595D01*
X106305494Y-122617595D01*
X106295349Y-122607450D01*
X105904721Y-122346440D01*
X105470679Y-122166654D01*
X105009902Y-122075000D01*
X104540098Y-122075000D01*
X104079321Y-122166654D01*
X103645279Y-122346440D01*
X103254651Y-122607450D01*
X102922450Y-122939651D01*
X102661440Y-123330279D01*
X102481654Y-123764321D01*
X102390000Y-124225098D01*
X101040000Y-124225098D01*
X101040000Y-117475000D01*
X109483299Y-117475000D01*
X109510040Y-117746507D01*
X109589236Y-118007581D01*
X109717843Y-118248188D01*
X109890919Y-118459081D01*
X110101812Y-118632157D01*
X110342419Y-118760764D01*
X110457099Y-118795552D01*
X110242114Y-118939201D01*
X110049201Y-119132114D01*
X109897629Y-119358957D01*
X109793225Y-119611011D01*
X109740000Y-119878589D01*
X109740000Y-120151411D01*
X109793225Y-120418989D01*
X109897629Y-120671043D01*
X110049201Y-120897886D01*
X110242114Y-121090799D01*
X110305801Y-121133354D01*
X110264956Y-121155186D01*
X110169192Y-121419587D01*
X111125000Y-122375395D01*
X111139143Y-122361253D01*
X111318748Y-122540858D01*
X111304605Y-122555000D01*
X112260413Y-123510808D01*
X112524814Y-123415044D01*
X112665704Y-123125429D01*
X112747384Y-122813892D01*
X112757538Y-122645051D01*
X112890537Y-122733918D01*
X113188088Y-122857168D01*
X113503967Y-122920000D01*
X113826033Y-122920000D01*
X114141912Y-122857168D01*
X114439463Y-122733918D01*
X114689000Y-122567183D01*
X114689000Y-123134248D01*
X114683509Y-123190000D01*
X114689000Y-123245751D01*
X114705423Y-123412498D01*
X114770324Y-123626446D01*
X114875716Y-123823623D01*
X115017551Y-123996449D01*
X115060864Y-124031995D01*
X115871008Y-124842140D01*
X115906551Y-124885449D01*
X115990154Y-124954060D01*
X116079377Y-125027284D01*
X116276553Y-125132676D01*
X116490501Y-125197577D01*
X116713000Y-125219491D01*
X116768752Y-125214000D01*
X118968550Y-125214000D01*
X118901115Y-125471229D01*
X118881795Y-125792615D01*
X118925546Y-126111595D01*
X119030686Y-126415911D01*
X119123601Y-126589742D01*
X119387950Y-126685445D01*
X120343395Y-125730000D01*
X120702605Y-125730000D01*
X121658050Y-126685445D01*
X121922399Y-126589742D01*
X122063238Y-126300213D01*
X122108909Y-126126000D01*
X127671928Y-126126000D01*
X127675000Y-126840250D01*
X127833750Y-126999000D01*
X128683000Y-126999000D01*
X128683000Y-125649750D01*
X128524250Y-125491000D01*
X128310000Y-125487928D01*
X128185518Y-125500188D01*
X128065820Y-125536498D01*
X127955506Y-125595463D01*
X127858815Y-125674815D01*
X127779463Y-125771506D01*
X127720498Y-125881820D01*
X127684188Y-126001518D01*
X127671928Y-126126000D01*
X122108909Y-126126000D01*
X122144885Y-125988771D01*
X122164205Y-125667385D01*
X122120454Y-125348405D01*
X122015314Y-125044089D01*
X121922399Y-124870258D01*
X121658050Y-124774555D01*
X120702605Y-125730000D01*
X120343395Y-125730000D01*
X120329253Y-125715858D01*
X120508858Y-125536253D01*
X120523000Y-125550395D01*
X121478445Y-124594950D01*
X121455831Y-124532487D01*
X121564927Y-124459592D01*
X121792592Y-124231927D01*
X121971467Y-123964222D01*
X122094678Y-123666763D01*
X122157490Y-123350983D01*
X122157490Y-123029017D01*
X122094678Y-122713237D01*
X121971467Y-122415778D01*
X121792592Y-122148073D01*
X121564927Y-121920408D01*
X121297222Y-121741533D01*
X120999763Y-121618322D01*
X120683983Y-121555510D01*
X120362017Y-121555510D01*
X120046237Y-121618322D01*
X119748778Y-121741533D01*
X119558701Y-121868539D01*
X119617490Y-121572983D01*
X119617490Y-121251017D01*
X119554678Y-120935237D01*
X119431467Y-120637778D01*
X119252592Y-120370073D01*
X119024927Y-120142408D01*
X118757222Y-119963533D01*
X118459763Y-119840322D01*
X118143983Y-119777510D01*
X117822017Y-119777510D01*
X117506237Y-119840322D01*
X117208778Y-119963533D01*
X116959000Y-120130430D01*
X116959000Y-117657741D01*
X116964490Y-117601999D01*
X116959000Y-117546257D01*
X116959000Y-117546248D01*
X116942577Y-117379501D01*
X116877676Y-117165553D01*
X116772284Y-116968377D01*
X116630449Y-116795551D01*
X116587140Y-116760008D01*
X115268996Y-115441865D01*
X115233449Y-115398551D01*
X115060623Y-115256716D01*
X114863447Y-115151324D01*
X114785449Y-115127663D01*
X114688188Y-115047843D01*
X114447581Y-114919236D01*
X114186507Y-114840040D01*
X113983037Y-114820000D01*
X113346963Y-114820000D01*
X113143493Y-114840040D01*
X112882419Y-114919236D01*
X112641812Y-115047843D01*
X112430919Y-115220919D01*
X112257843Y-115431812D01*
X112129236Y-115672419D01*
X112050040Y-115933493D01*
X112023299Y-116205000D01*
X112028091Y-116253650D01*
X111907581Y-116189236D01*
X111646507Y-116110040D01*
X111443037Y-116090000D01*
X110806963Y-116090000D01*
X110603493Y-116110040D01*
X110342419Y-116189236D01*
X110101812Y-116317843D01*
X109890919Y-116490919D01*
X109717843Y-116701812D01*
X109589236Y-116942419D01*
X109510040Y-117203493D01*
X109483299Y-117475000D01*
X101040000Y-117475000D01*
X101040000Y-114065098D01*
X102390000Y-114065098D01*
X102390000Y-114534902D01*
X102481654Y-114995679D01*
X102661440Y-115429721D01*
X102922450Y-115820349D01*
X103254651Y-116152550D01*
X103645279Y-116413560D01*
X104079321Y-116593346D01*
X104540098Y-116685000D01*
X105009902Y-116685000D01*
X105470679Y-116593346D01*
X105904721Y-116413560D01*
X106295349Y-116152550D01*
X106627550Y-115820349D01*
X106888560Y-115429721D01*
X107068346Y-114995679D01*
X107160000Y-114534902D01*
X107160000Y-114065098D01*
X107068346Y-113604321D01*
X106888560Y-113170279D01*
X106627550Y-112779651D01*
X106295349Y-112447450D01*
X105904721Y-112186440D01*
X105470679Y-112006654D01*
X105009902Y-111915000D01*
X104540098Y-111915000D01*
X104079321Y-112006654D01*
X103645279Y-112186440D01*
X103254651Y-112447450D01*
X102922450Y-112779651D01*
X102661440Y-113170279D01*
X102481654Y-113604321D01*
X102390000Y-114065098D01*
X101040000Y-114065098D01*
X101040000Y-108763446D01*
X101063811Y-108883152D01*
X101304968Y-109465356D01*
X101655074Y-109989326D01*
X102100674Y-110434926D01*
X102624644Y-110785032D01*
X103206848Y-111026189D01*
X103824913Y-111149130D01*
X104455087Y-111149130D01*
X104747240Y-111091017D01*
X116348510Y-111091017D01*
X116348510Y-111412983D01*
X116411322Y-111728763D01*
X116534533Y-112026222D01*
X116713408Y-112293927D01*
X116941073Y-112521592D01*
X117208778Y-112700467D01*
X117506237Y-112823678D01*
X117822017Y-112886490D01*
X118143983Y-112886490D01*
X118459763Y-112823678D01*
X118757222Y-112700467D01*
X119024927Y-112521592D01*
X119252592Y-112293927D01*
X119431467Y-112026222D01*
X119554678Y-111728763D01*
X119617490Y-111412983D01*
X119617490Y-111091017D01*
X119554678Y-110775237D01*
X119431467Y-110477778D01*
X119252592Y-110210073D01*
X119024927Y-109982408D01*
X118757222Y-109803533D01*
X118459763Y-109680322D01*
X118143983Y-109617510D01*
X117822017Y-109617510D01*
X117506237Y-109680322D01*
X117208778Y-109803533D01*
X116941073Y-109982408D01*
X116713408Y-110210073D01*
X116534533Y-110477778D01*
X116411322Y-110775237D01*
X116348510Y-111091017D01*
X104747240Y-111091017D01*
X105073152Y-111026189D01*
X105655356Y-110785032D01*
X106179326Y-110434926D01*
X106624926Y-109989326D01*
X106975032Y-109465356D01*
X107216189Y-108883152D01*
X107339130Y-108265087D01*
X107339130Y-107789017D01*
X108855510Y-107789017D01*
X108855510Y-108110983D01*
X108918322Y-108426763D01*
X109041533Y-108724222D01*
X109220408Y-108991927D01*
X109448073Y-109219592D01*
X109715778Y-109398467D01*
X110013237Y-109521678D01*
X110329017Y-109584490D01*
X110650983Y-109584490D01*
X110966763Y-109521678D01*
X111264222Y-109398467D01*
X111531927Y-109219592D01*
X111759592Y-108991927D01*
X111760000Y-108991316D01*
X111760408Y-108991927D01*
X111988073Y-109219592D01*
X112255778Y-109398467D01*
X112553237Y-109521678D01*
X112869017Y-109584490D01*
X113190983Y-109584490D01*
X113506763Y-109521678D01*
X113804222Y-109398467D01*
X114071927Y-109219592D01*
X114299592Y-108991927D01*
X114300000Y-108991316D01*
X114300408Y-108991927D01*
X114528073Y-109219592D01*
X114795778Y-109398467D01*
X115093237Y-109521678D01*
X115409017Y-109584490D01*
X115730983Y-109584490D01*
X116046763Y-109521678D01*
X116344222Y-109398467D01*
X116555144Y-109257533D01*
X116579973Y-109303984D01*
X116659325Y-109400675D01*
X116756016Y-109480027D01*
X116866330Y-109538992D01*
X116986028Y-109575302D01*
X117110510Y-109587562D01*
X117824250Y-109584490D01*
X117983000Y-109425740D01*
X117983000Y-108077000D01*
X118237000Y-108077000D01*
X118237000Y-109425740D01*
X118395750Y-109584490D01*
X119109490Y-109587562D01*
X119233972Y-109575302D01*
X119353670Y-109538992D01*
X119463984Y-109480027D01*
X119560675Y-109400675D01*
X119640027Y-109303984D01*
X119698992Y-109193670D01*
X119735302Y-109073972D01*
X119747562Y-108949490D01*
X119744490Y-108235750D01*
X119585740Y-108077000D01*
X118237000Y-108077000D01*
X117983000Y-108077000D01*
X117963000Y-108077000D01*
X117963000Y-107823000D01*
X117983000Y-107823000D01*
X117983000Y-106474260D01*
X118237000Y-106474260D01*
X118237000Y-107823000D01*
X119585740Y-107823000D01*
X119744490Y-107664250D01*
X119747562Y-106950510D01*
X119735302Y-106826028D01*
X119698992Y-106706330D01*
X119640027Y-106596016D01*
X119560675Y-106499325D01*
X119463984Y-106419973D01*
X119353670Y-106361008D01*
X119233972Y-106324698D01*
X119109490Y-106312438D01*
X118395750Y-106315510D01*
X118237000Y-106474260D01*
X117983000Y-106474260D01*
X117824250Y-106315510D01*
X117110510Y-106312438D01*
X116986028Y-106324698D01*
X116866330Y-106361008D01*
X116756016Y-106419973D01*
X116659325Y-106499325D01*
X116579973Y-106596016D01*
X116555144Y-106642467D01*
X116344222Y-106501533D01*
X116046763Y-106378322D01*
X115730983Y-106315510D01*
X115409017Y-106315510D01*
X115093237Y-106378322D01*
X114795778Y-106501533D01*
X114528073Y-106680408D01*
X114300408Y-106908073D01*
X114300000Y-106908684D01*
X114299592Y-106908073D01*
X114071927Y-106680408D01*
X113804222Y-106501533D01*
X113506763Y-106378322D01*
X113190983Y-106315510D01*
X112869017Y-106315510D01*
X112553237Y-106378322D01*
X112255778Y-106501533D01*
X111988073Y-106680408D01*
X111760408Y-106908073D01*
X111760000Y-106908684D01*
X111759592Y-106908073D01*
X111531927Y-106680408D01*
X111264222Y-106501533D01*
X110966763Y-106378322D01*
X110650983Y-106315510D01*
X110329017Y-106315510D01*
X110013237Y-106378322D01*
X109715778Y-106501533D01*
X109448073Y-106680408D01*
X109220408Y-106908073D01*
X109041533Y-107175778D01*
X108918322Y-107473237D01*
X108855510Y-107789017D01*
X107339130Y-107789017D01*
X107339130Y-107634913D01*
X107216189Y-107016848D01*
X106975032Y-106434644D01*
X106624926Y-105910674D01*
X106179326Y-105465074D01*
X105655356Y-105114968D01*
X105073152Y-104873811D01*
X104953446Y-104850000D01*
X156770000Y-104850000D01*
X156770000Y-107849489D01*
G37*
%TD.AperFunction*%
D25*
X113792000Y-118618000D02*
X113812000Y-118618000D01*
X113812000Y-118872000D01*
X113792000Y-118872000D01*
X113792000Y-118892000D01*
X113538000Y-118892000D01*
X113538000Y-118872000D01*
X112195344Y-118872000D01*
X112102611Y-119033926D01*
X112007886Y-118939201D01*
X111792901Y-118795552D01*
X111907581Y-118760764D01*
X112148188Y-118632157D01*
X112185782Y-118601304D01*
X112195344Y-118618000D01*
X113538000Y-118618000D01*
X113538000Y-118598000D01*
X113792000Y-118598000D01*
X113792000Y-118618000D01*
%TA.AperFunction,Conductor*%
D26*
G36*
X113792000Y-118618000D02*
G01*
X113812000Y-118618000D01*
X113812000Y-118872000D01*
X113792000Y-118872000D01*
X113792000Y-118892000D01*
X113538000Y-118892000D01*
X113538000Y-118872000D01*
X112195344Y-118872000D01*
X112102611Y-119033926D01*
X112007886Y-118939201D01*
X111792901Y-118795552D01*
X111907581Y-118760764D01*
X112148188Y-118632157D01*
X112185782Y-118601304D01*
X112195344Y-118618000D01*
X113538000Y-118618000D01*
X113538000Y-118598000D01*
X113792000Y-118598000D01*
X113792000Y-118618000D01*
G37*
%TD.AperFunction*%
%TD*%
M02*
