%TF.GenerationSoftware,KiCad,Pcbnew,5.1.9+dfsg1-1*%
%TF.CreationDate,2021-05-22T15:32:01+02:00*%
%TF.ProjectId,smartyreader_ng_lora,736d6172-7479-4726-9561-6465725f6e67,rev?*%
%TF.SameCoordinates,Original*%
%TF.FileFunction,Other,Fab,Bot*%
%FSLAX46Y46*%
G04 Gerber Fmt 4.6, Leading zero omitted, Abs format (unit mm)*
G04 Created by KiCad (PCBNEW 5.1.9+dfsg1-1) date 2021-05-22 15:32:01*
%MOMM*%
%LPD*%
G01*
G04 APERTURE LIST*
%ADD10C,0.100000*%
%ADD11C,0.150000*%
G04 APERTURE END LIST*
D10*
%TO.C,D2*%
X156576000Y-110760000D02*
X155336000Y-110760000D01*
X156576000Y-112760000D02*
X156576000Y-110760000D01*
X155336000Y-112760000D02*
X156576000Y-112760000D01*
X155336000Y-110760000D02*
X155336000Y-112760000D01*
%TO.C,D1*%
X153050000Y-110680000D02*
X153050000Y-112680000D01*
X153050000Y-112680000D02*
X154290000Y-112680000D01*
X154290000Y-112680000D02*
X154290000Y-110680000D01*
X154290000Y-110680000D02*
X153050000Y-110680000D01*
%TO.C,U1*%
X143810000Y-126126000D02*
X143810000Y-111126000D01*
X127810000Y-111126000D02*
X143810000Y-111126000D01*
X127810000Y-127126000D02*
X127810000Y-111126000D01*
X127810000Y-127126000D02*
X142810000Y-127126000D01*
X143810000Y-126126000D02*
X142810000Y-127126000D01*
%TD*%
%TO.C,D2*%
D11*
X158158380Y-109617142D02*
X158158380Y-109045714D01*
X158158380Y-109331428D02*
X157158380Y-109331428D01*
X157301238Y-109236190D01*
X157396476Y-109140952D01*
X157444095Y-109045714D01*
X158158380Y-110045714D02*
X157158380Y-110045714D01*
X158158380Y-110617142D01*
X157158380Y-110617142D01*
X157491714Y-111521904D02*
X158158380Y-111521904D01*
X157110761Y-111283809D02*
X157825047Y-111045714D01*
X157825047Y-111664761D01*
X158158380Y-112569523D02*
X158158380Y-111998095D01*
X158158380Y-112283809D02*
X157158380Y-112283809D01*
X157301238Y-112188571D01*
X157396476Y-112093333D01*
X157444095Y-111998095D01*
X157491714Y-113426666D02*
X158158380Y-113426666D01*
X157110761Y-113188571D02*
X157825047Y-112950476D01*
X157825047Y-113569523D01*
X157586952Y-114093333D02*
X157539333Y-113998095D01*
X157491714Y-113950476D01*
X157396476Y-113902857D01*
X157348857Y-113902857D01*
X157253619Y-113950476D01*
X157206000Y-113998095D01*
X157158380Y-114093333D01*
X157158380Y-114283809D01*
X157206000Y-114379047D01*
X157253619Y-114426666D01*
X157348857Y-114474285D01*
X157396476Y-114474285D01*
X157491714Y-114426666D01*
X157539333Y-114379047D01*
X157586952Y-114283809D01*
X157586952Y-114093333D01*
X157634571Y-113998095D01*
X157682190Y-113950476D01*
X157777428Y-113902857D01*
X157967904Y-113902857D01*
X158063142Y-113950476D01*
X158110761Y-113998095D01*
X158158380Y-114093333D01*
X158158380Y-114283809D01*
X158110761Y-114379047D01*
X158063142Y-114426666D01*
X157967904Y-114474285D01*
X157777428Y-114474285D01*
X157682190Y-114426666D01*
X157634571Y-114379047D01*
X157586952Y-114283809D01*
X154708380Y-111021904D02*
X153708380Y-111021904D01*
X153708380Y-111260000D01*
X153756000Y-111402857D01*
X153851238Y-111498095D01*
X153946476Y-111545714D01*
X154136952Y-111593333D01*
X154279809Y-111593333D01*
X154470285Y-111545714D01*
X154565523Y-111498095D01*
X154660761Y-111402857D01*
X154708380Y-111260000D01*
X154708380Y-111021904D01*
X153803619Y-111974285D02*
X153756000Y-112021904D01*
X153708380Y-112117142D01*
X153708380Y-112355238D01*
X153756000Y-112450476D01*
X153803619Y-112498095D01*
X153898857Y-112545714D01*
X153994095Y-112545714D01*
X154136952Y-112498095D01*
X154708380Y-111926666D01*
X154708380Y-112545714D01*
%TO.C,D1*%
X155872380Y-109537142D02*
X155872380Y-108965714D01*
X155872380Y-109251428D02*
X154872380Y-109251428D01*
X155015238Y-109156190D01*
X155110476Y-109060952D01*
X155158095Y-108965714D01*
X155872380Y-109965714D02*
X154872380Y-109965714D01*
X155872380Y-110537142D01*
X154872380Y-110537142D01*
X155205714Y-111441904D02*
X155872380Y-111441904D01*
X154824761Y-111203809D02*
X155539047Y-110965714D01*
X155539047Y-111584761D01*
X155872380Y-112489523D02*
X155872380Y-111918095D01*
X155872380Y-112203809D02*
X154872380Y-112203809D01*
X155015238Y-112108571D01*
X155110476Y-112013333D01*
X155158095Y-111918095D01*
X155205714Y-113346666D02*
X155872380Y-113346666D01*
X154824761Y-113108571D02*
X155539047Y-112870476D01*
X155539047Y-113489523D01*
X155300952Y-114013333D02*
X155253333Y-113918095D01*
X155205714Y-113870476D01*
X155110476Y-113822857D01*
X155062857Y-113822857D01*
X154967619Y-113870476D01*
X154920000Y-113918095D01*
X154872380Y-114013333D01*
X154872380Y-114203809D01*
X154920000Y-114299047D01*
X154967619Y-114346666D01*
X155062857Y-114394285D01*
X155110476Y-114394285D01*
X155205714Y-114346666D01*
X155253333Y-114299047D01*
X155300952Y-114203809D01*
X155300952Y-114013333D01*
X155348571Y-113918095D01*
X155396190Y-113870476D01*
X155491428Y-113822857D01*
X155681904Y-113822857D01*
X155777142Y-113870476D01*
X155824761Y-113918095D01*
X155872380Y-114013333D01*
X155872380Y-114203809D01*
X155824761Y-114299047D01*
X155777142Y-114346666D01*
X155681904Y-114394285D01*
X155491428Y-114394285D01*
X155396190Y-114346666D01*
X155348571Y-114299047D01*
X155300952Y-114203809D01*
X152422380Y-110941904D02*
X151422380Y-110941904D01*
X151422380Y-111180000D01*
X151470000Y-111322857D01*
X151565238Y-111418095D01*
X151660476Y-111465714D01*
X151850952Y-111513333D01*
X151993809Y-111513333D01*
X152184285Y-111465714D01*
X152279523Y-111418095D01*
X152374761Y-111322857D01*
X152422380Y-111180000D01*
X152422380Y-110941904D01*
X152422380Y-112465714D02*
X152422380Y-111894285D01*
X152422380Y-112180000D02*
X151422380Y-112180000D01*
X151565238Y-112084761D01*
X151660476Y-111989523D01*
X151708095Y-111894285D01*
%TO.C,U1*%
X126762380Y-116911714D02*
X126286190Y-116578380D01*
X126762380Y-116340285D02*
X125762380Y-116340285D01*
X125762380Y-116721238D01*
X125810000Y-116816476D01*
X125857619Y-116864095D01*
X125952857Y-116911714D01*
X126095714Y-116911714D01*
X126190952Y-116864095D01*
X126238571Y-116816476D01*
X126286190Y-116721238D01*
X126286190Y-116340285D01*
X126238571Y-117673619D02*
X126238571Y-117340285D01*
X126762380Y-117340285D02*
X125762380Y-117340285D01*
X125762380Y-117816476D01*
X126762380Y-118197428D02*
X125762380Y-118197428D01*
X126476666Y-118530761D01*
X125762380Y-118864095D01*
X126762380Y-118864095D01*
X126762380Y-119387904D02*
X126762380Y-119578380D01*
X126714761Y-119673619D01*
X126667142Y-119721238D01*
X126524285Y-119816476D01*
X126333809Y-119864095D01*
X125952857Y-119864095D01*
X125857619Y-119816476D01*
X125810000Y-119768857D01*
X125762380Y-119673619D01*
X125762380Y-119483142D01*
X125810000Y-119387904D01*
X125857619Y-119340285D01*
X125952857Y-119292666D01*
X126190952Y-119292666D01*
X126286190Y-119340285D01*
X126333809Y-119387904D01*
X126381428Y-119483142D01*
X126381428Y-119673619D01*
X126333809Y-119768857D01*
X126286190Y-119816476D01*
X126190952Y-119864095D01*
X125762380Y-120768857D02*
X125762380Y-120292666D01*
X126238571Y-120245047D01*
X126190952Y-120292666D01*
X126143333Y-120387904D01*
X126143333Y-120626000D01*
X126190952Y-120721238D01*
X126238571Y-120768857D01*
X126333809Y-120816476D01*
X126571904Y-120816476D01*
X126667142Y-120768857D01*
X126714761Y-120721238D01*
X126762380Y-120626000D01*
X126762380Y-120387904D01*
X126714761Y-120292666D01*
X126667142Y-120245047D01*
X125762380Y-121149809D02*
X126762380Y-121387904D01*
X126048095Y-121578380D01*
X126762380Y-121768857D01*
X125762380Y-122006952D01*
X135262380Y-118364095D02*
X136071904Y-118364095D01*
X136167142Y-118411714D01*
X136214761Y-118459333D01*
X136262380Y-118554571D01*
X136262380Y-118745047D01*
X136214761Y-118840285D01*
X136167142Y-118887904D01*
X136071904Y-118935523D01*
X135262380Y-118935523D01*
X136262380Y-119935523D02*
X136262380Y-119364095D01*
X136262380Y-119649809D02*
X135262380Y-119649809D01*
X135405238Y-119554571D01*
X135500476Y-119459333D01*
X135548095Y-119364095D01*
%TD*%
M02*
