%TF.GenerationSoftware,KiCad,Pcbnew,5.1.7-a382d34a8~87~ubuntu20.04.1*%
%TF.CreationDate,2021-02-22T15:40:43+01:00*%
%TF.ProjectId,smartyreader_ng_lora,736d6172-7479-4726-9561-6465725f6e67,rev?*%
%TF.SameCoordinates,Original*%
%TF.FileFunction,Legend,Bot*%
%TF.FilePolarity,Positive*%
%FSLAX46Y46*%
G04 Gerber Fmt 4.6, Leading zero omitted, Abs format (unit mm)*
G04 Created by KiCad (PCBNEW 5.1.7-a382d34a8~87~ubuntu20.04.1) date 2021-02-22 15:40:43*
%MOMM*%
%LPD*%
G01*
G04 APERTURE LIST*
%ADD10C,0.300000*%
%ADD11C,0.250000*%
%ADD12C,0.010000*%
%ADD13C,0.150000*%
%ADD14C,0.120000*%
G04 APERTURE END LIST*
D10*
X150193428Y-128948571D02*
X151050571Y-128948571D01*
X150622000Y-128948571D02*
X150622000Y-127448571D01*
X150764857Y-127662857D01*
X150907714Y-127805714D01*
X151050571Y-127877142D01*
D11*
X150959571Y-120888476D02*
X150959571Y-120555142D01*
X151483380Y-120555142D02*
X150483380Y-120555142D01*
X150483380Y-121031333D01*
X150816714Y-121840857D02*
X151483380Y-121840857D01*
X150816714Y-121412285D02*
X151340523Y-121412285D01*
X151435761Y-121459904D01*
X151483380Y-121555142D01*
X151483380Y-121698000D01*
X151435761Y-121793238D01*
X151388142Y-121840857D01*
X150816714Y-122317047D02*
X151483380Y-122317047D01*
X150911952Y-122317047D02*
X150864333Y-122364666D01*
X150816714Y-122459904D01*
X150816714Y-122602761D01*
X150864333Y-122698000D01*
X150959571Y-122745619D01*
X151483380Y-122745619D01*
X151483380Y-123650380D02*
X150483380Y-123650380D01*
X151435761Y-123650380D02*
X151483380Y-123555142D01*
X151483380Y-123364666D01*
X151435761Y-123269428D01*
X151388142Y-123221809D01*
X151292904Y-123174190D01*
X151007190Y-123174190D01*
X150911952Y-123221809D01*
X150864333Y-123269428D01*
X150816714Y-123364666D01*
X150816714Y-123555142D01*
X150864333Y-123650380D01*
X150816714Y-124555142D02*
X151483380Y-124555142D01*
X150816714Y-124126571D02*
X151340523Y-124126571D01*
X151435761Y-124174190D01*
X151483380Y-124269428D01*
X151483380Y-124412285D01*
X151435761Y-124507523D01*
X151388142Y-124555142D01*
X151483380Y-125031333D02*
X150816714Y-125031333D01*
X150483380Y-125031333D02*
X150531000Y-124983714D01*
X150578619Y-125031333D01*
X150531000Y-125078952D01*
X150483380Y-125031333D01*
X150578619Y-125031333D01*
X150816714Y-125507523D02*
X151483380Y-125507523D01*
X150911952Y-125507523D02*
X150864333Y-125555142D01*
X150816714Y-125650380D01*
X150816714Y-125793238D01*
X150864333Y-125888476D01*
X150959571Y-125936095D01*
X151483380Y-125936095D01*
X151483380Y-126555142D02*
X151435761Y-126459904D01*
X151388142Y-126412285D01*
X151292904Y-126364666D01*
X151007190Y-126364666D01*
X150911952Y-126412285D01*
X150864333Y-126459904D01*
X150816714Y-126555142D01*
X150816714Y-126698000D01*
X150864333Y-126793238D01*
X150911952Y-126840857D01*
X151007190Y-126888476D01*
X151292904Y-126888476D01*
X151388142Y-126840857D01*
X151435761Y-126793238D01*
X151483380Y-126698000D01*
X151483380Y-126555142D01*
X152233380Y-121364666D02*
X153233380Y-121602761D01*
X152519095Y-121793238D01*
X153233380Y-121983714D01*
X152233380Y-122221809D01*
X152233380Y-123078952D02*
X152233380Y-122602761D01*
X152709571Y-122555142D01*
X152661952Y-122602761D01*
X152614333Y-122698000D01*
X152614333Y-122936095D01*
X152661952Y-123031333D01*
X152709571Y-123078952D01*
X152804809Y-123126571D01*
X153042904Y-123126571D01*
X153138142Y-123078952D01*
X153185761Y-123031333D01*
X153233380Y-122936095D01*
X153233380Y-122698000D01*
X153185761Y-122602761D01*
X153138142Y-122555142D01*
X153233380Y-124078952D02*
X153233380Y-123507523D01*
X153233380Y-123793238D02*
X152233380Y-123793238D01*
X152376238Y-123698000D01*
X152471476Y-123602761D01*
X152519095Y-123507523D01*
X152233380Y-124698000D02*
X152233380Y-124793238D01*
X152281000Y-124888476D01*
X152328619Y-124936095D01*
X152423857Y-124983714D01*
X152614333Y-125031333D01*
X152852428Y-125031333D01*
X153042904Y-124983714D01*
X153138142Y-124936095D01*
X153185761Y-124888476D01*
X153233380Y-124793238D01*
X153233380Y-124698000D01*
X153185761Y-124602761D01*
X153138142Y-124555142D01*
X153042904Y-124507523D01*
X152852428Y-124459904D01*
X152614333Y-124459904D01*
X152423857Y-124507523D01*
X152328619Y-124555142D01*
X152281000Y-124602761D01*
X152233380Y-124698000D01*
X152233380Y-125650380D02*
X152233380Y-125745619D01*
X152281000Y-125840857D01*
X152328619Y-125888476D01*
X152423857Y-125936095D01*
X152614333Y-125983714D01*
X152852428Y-125983714D01*
X153042904Y-125936095D01*
X153138142Y-125888476D01*
X153185761Y-125840857D01*
X153233380Y-125745619D01*
X153233380Y-125650380D01*
X153185761Y-125555142D01*
X153138142Y-125507523D01*
X153042904Y-125459904D01*
X152852428Y-125412285D01*
X152614333Y-125412285D01*
X152423857Y-125459904D01*
X152328619Y-125507523D01*
X152281000Y-125555142D01*
X152233380Y-125650380D01*
X155364333Y-120483714D02*
X155316714Y-120436095D01*
X155173857Y-120340857D01*
X155078619Y-120293238D01*
X154935761Y-120245619D01*
X154697666Y-120198000D01*
X154507190Y-120198000D01*
X154269095Y-120245619D01*
X154126238Y-120293238D01*
X154031000Y-120340857D01*
X153888142Y-120436095D01*
X153840523Y-120483714D01*
X154935761Y-121245619D02*
X154983380Y-121150380D01*
X154983380Y-120959904D01*
X154935761Y-120864666D01*
X154840523Y-120817047D01*
X154459571Y-120817047D01*
X154364333Y-120864666D01*
X154316714Y-120959904D01*
X154316714Y-121150380D01*
X154364333Y-121245619D01*
X154459571Y-121293238D01*
X154554809Y-121293238D01*
X154650047Y-120817047D01*
X154316714Y-121578952D02*
X154316714Y-121959904D01*
X153983380Y-121721809D02*
X154840523Y-121721809D01*
X154935761Y-121769428D01*
X154983380Y-121864666D01*
X154983380Y-121959904D01*
X154983380Y-122293238D02*
X153983380Y-122293238D01*
X154983380Y-122721809D02*
X154459571Y-122721809D01*
X154364333Y-122674190D01*
X154316714Y-122578952D01*
X154316714Y-122436095D01*
X154364333Y-122340857D01*
X154411952Y-122293238D01*
X154935761Y-123578952D02*
X154983380Y-123483714D01*
X154983380Y-123293238D01*
X154935761Y-123198000D01*
X154840523Y-123150380D01*
X154459571Y-123150380D01*
X154364333Y-123198000D01*
X154316714Y-123293238D01*
X154316714Y-123483714D01*
X154364333Y-123578952D01*
X154459571Y-123626571D01*
X154554809Y-123626571D01*
X154650047Y-123150380D01*
X154983380Y-124055142D02*
X154316714Y-124055142D01*
X154507190Y-124055142D02*
X154411952Y-124102761D01*
X154364333Y-124150380D01*
X154316714Y-124245619D01*
X154316714Y-124340857D01*
X154316714Y-124674190D02*
X154983380Y-124674190D01*
X154411952Y-124674190D02*
X154364333Y-124721809D01*
X154316714Y-124817047D01*
X154316714Y-124959904D01*
X154364333Y-125055142D01*
X154459571Y-125102761D01*
X154983380Y-125102761D01*
X154935761Y-125959904D02*
X154983380Y-125864666D01*
X154983380Y-125674190D01*
X154935761Y-125578952D01*
X154840523Y-125531333D01*
X154459571Y-125531333D01*
X154364333Y-125578952D01*
X154316714Y-125674190D01*
X154316714Y-125864666D01*
X154364333Y-125959904D01*
X154459571Y-126007523D01*
X154554809Y-126007523D01*
X154650047Y-125531333D01*
X154316714Y-126293238D02*
X154316714Y-126674190D01*
X153983380Y-126436095D02*
X154840523Y-126436095D01*
X154935761Y-126483714D01*
X154983380Y-126578952D01*
X154983380Y-126674190D01*
X155364333Y-126912285D02*
X155316714Y-126959904D01*
X155173857Y-127055142D01*
X155078619Y-127102761D01*
X154935761Y-127150380D01*
X154697666Y-127198000D01*
X154507190Y-127198000D01*
X154269095Y-127150380D01*
X154126238Y-127102761D01*
X154031000Y-127055142D01*
X153888142Y-126959904D01*
X153840523Y-126912285D01*
X124037380Y-120801142D02*
X123037380Y-120801142D01*
X123989761Y-120801142D02*
X124037380Y-120705904D01*
X124037380Y-120515428D01*
X123989761Y-120420190D01*
X123942142Y-120372571D01*
X123846904Y-120324952D01*
X123561190Y-120324952D01*
X123465952Y-120372571D01*
X123418333Y-120420190D01*
X123370714Y-120515428D01*
X123370714Y-120705904D01*
X123418333Y-120801142D01*
X123989761Y-121658285D02*
X124037380Y-121563047D01*
X124037380Y-121372571D01*
X123989761Y-121277333D01*
X123894523Y-121229714D01*
X123513571Y-121229714D01*
X123418333Y-121277333D01*
X123370714Y-121372571D01*
X123370714Y-121563047D01*
X123418333Y-121658285D01*
X123513571Y-121705904D01*
X123608809Y-121705904D01*
X123704047Y-121229714D01*
X123989761Y-122086857D02*
X124037380Y-122182095D01*
X124037380Y-122372571D01*
X123989761Y-122467809D01*
X123894523Y-122515428D01*
X123846904Y-122515428D01*
X123751666Y-122467809D01*
X123704047Y-122372571D01*
X123704047Y-122229714D01*
X123656428Y-122134476D01*
X123561190Y-122086857D01*
X123513571Y-122086857D01*
X123418333Y-122134476D01*
X123370714Y-122229714D01*
X123370714Y-122372571D01*
X123418333Y-122467809D01*
X124037380Y-122944000D02*
X123370714Y-122944000D01*
X123037380Y-122944000D02*
X123085000Y-122896380D01*
X123132619Y-122944000D01*
X123085000Y-122991619D01*
X123037380Y-122944000D01*
X123132619Y-122944000D01*
X123370714Y-123848761D02*
X124180238Y-123848761D01*
X124275476Y-123801142D01*
X124323095Y-123753523D01*
X124370714Y-123658285D01*
X124370714Y-123515428D01*
X124323095Y-123420190D01*
X123989761Y-123848761D02*
X124037380Y-123753523D01*
X124037380Y-123563047D01*
X123989761Y-123467809D01*
X123942142Y-123420190D01*
X123846904Y-123372571D01*
X123561190Y-123372571D01*
X123465952Y-123420190D01*
X123418333Y-123467809D01*
X123370714Y-123563047D01*
X123370714Y-123753523D01*
X123418333Y-123848761D01*
X123370714Y-124324952D02*
X124037380Y-124324952D01*
X123465952Y-124324952D02*
X123418333Y-124372571D01*
X123370714Y-124467809D01*
X123370714Y-124610666D01*
X123418333Y-124705904D01*
X123513571Y-124753523D01*
X124037380Y-124753523D01*
X123989761Y-125610666D02*
X124037380Y-125515428D01*
X124037380Y-125324952D01*
X123989761Y-125229714D01*
X123894523Y-125182095D01*
X123513571Y-125182095D01*
X123418333Y-125229714D01*
X123370714Y-125324952D01*
X123370714Y-125515428D01*
X123418333Y-125610666D01*
X123513571Y-125658285D01*
X123608809Y-125658285D01*
X123704047Y-125182095D01*
X124037380Y-126515428D02*
X123037380Y-126515428D01*
X123989761Y-126515428D02*
X124037380Y-126420190D01*
X124037380Y-126229714D01*
X123989761Y-126134476D01*
X123942142Y-126086857D01*
X123846904Y-126039238D01*
X123561190Y-126039238D01*
X123465952Y-126086857D01*
X123418333Y-126134476D01*
X123370714Y-126229714D01*
X123370714Y-126420190D01*
X123418333Y-126515428D01*
X125120714Y-119729714D02*
X125787380Y-119920190D01*
X125311190Y-120110666D01*
X125787380Y-120301142D01*
X125120714Y-120491619D01*
X125787380Y-120872571D02*
X125120714Y-120872571D01*
X124787380Y-120872571D02*
X124835000Y-120824952D01*
X124882619Y-120872571D01*
X124835000Y-120920190D01*
X124787380Y-120872571D01*
X124882619Y-120872571D01*
X125120714Y-121205904D02*
X125120714Y-121586857D01*
X124787380Y-121348761D02*
X125644523Y-121348761D01*
X125739761Y-121396380D01*
X125787380Y-121491619D01*
X125787380Y-121586857D01*
X125787380Y-121920190D02*
X124787380Y-121920190D01*
X125787380Y-122348761D02*
X125263571Y-122348761D01*
X125168333Y-122301142D01*
X125120714Y-122205904D01*
X125120714Y-122063047D01*
X125168333Y-121967809D01*
X125215952Y-121920190D01*
X125787380Y-123586857D02*
X124787380Y-123586857D01*
X125406428Y-123682095D02*
X125787380Y-123967809D01*
X125120714Y-123967809D02*
X125501666Y-123586857D01*
X125787380Y-124396380D02*
X125120714Y-124396380D01*
X124787380Y-124396380D02*
X124835000Y-124348761D01*
X124882619Y-124396380D01*
X124835000Y-124444000D01*
X124787380Y-124396380D01*
X124882619Y-124396380D01*
X125739761Y-125301142D02*
X125787380Y-125205904D01*
X125787380Y-125015428D01*
X125739761Y-124920190D01*
X125692142Y-124872571D01*
X125596904Y-124824952D01*
X125311190Y-124824952D01*
X125215952Y-124872571D01*
X125168333Y-124920190D01*
X125120714Y-125015428D01*
X125120714Y-125205904D01*
X125168333Y-125301142D01*
X125787380Y-126158285D02*
X125263571Y-126158285D01*
X125168333Y-126110666D01*
X125120714Y-126015428D01*
X125120714Y-125824952D01*
X125168333Y-125729714D01*
X125739761Y-126158285D02*
X125787380Y-126063047D01*
X125787380Y-125824952D01*
X125739761Y-125729714D01*
X125644523Y-125682095D01*
X125549285Y-125682095D01*
X125454047Y-125729714D01*
X125406428Y-125824952D01*
X125406428Y-126063047D01*
X125358809Y-126158285D01*
X125787380Y-127063047D02*
X124787380Y-127063047D01*
X125739761Y-127063047D02*
X125787380Y-126967809D01*
X125787380Y-126777333D01*
X125739761Y-126682095D01*
X125692142Y-126634476D01*
X125596904Y-126586857D01*
X125311190Y-126586857D01*
X125215952Y-126634476D01*
X125168333Y-126682095D01*
X125120714Y-126777333D01*
X125120714Y-126967809D01*
X125168333Y-127063047D01*
X116577476Y-125527761D02*
X116482238Y-125575380D01*
X116291761Y-125575380D01*
X116196523Y-125527761D01*
X116148904Y-125432523D01*
X116148904Y-125384904D01*
X116196523Y-125289666D01*
X116291761Y-125242047D01*
X116434619Y-125242047D01*
X116529857Y-125194428D01*
X116577476Y-125099190D01*
X116577476Y-125051571D01*
X116529857Y-124956333D01*
X116434619Y-124908714D01*
X116291761Y-124908714D01*
X116196523Y-124956333D01*
X115720333Y-125575380D02*
X115720333Y-124908714D01*
X115720333Y-125003952D02*
X115672714Y-124956333D01*
X115577476Y-124908714D01*
X115434619Y-124908714D01*
X115339380Y-124956333D01*
X115291761Y-125051571D01*
X115291761Y-125575380D01*
X115291761Y-125051571D02*
X115244142Y-124956333D01*
X115148904Y-124908714D01*
X115006047Y-124908714D01*
X114910809Y-124956333D01*
X114863190Y-125051571D01*
X114863190Y-125575380D01*
X113958428Y-125575380D02*
X113958428Y-125051571D01*
X114006047Y-124956333D01*
X114101285Y-124908714D01*
X114291761Y-124908714D01*
X114387000Y-124956333D01*
X113958428Y-125527761D02*
X114053666Y-125575380D01*
X114291761Y-125575380D01*
X114387000Y-125527761D01*
X114434619Y-125432523D01*
X114434619Y-125337285D01*
X114387000Y-125242047D01*
X114291761Y-125194428D01*
X114053666Y-125194428D01*
X113958428Y-125146809D01*
X113482238Y-125575380D02*
X113482238Y-124908714D01*
X113482238Y-125099190D02*
X113434619Y-125003952D01*
X113387000Y-124956333D01*
X113291761Y-124908714D01*
X113196523Y-124908714D01*
X113006047Y-124908714D02*
X112625095Y-124908714D01*
X112863190Y-124575380D02*
X112863190Y-125432523D01*
X112815571Y-125527761D01*
X112720333Y-125575380D01*
X112625095Y-125575380D01*
X112386999Y-124908714D02*
X112148904Y-125575380D01*
X111910809Y-124908714D02*
X112148904Y-125575380D01*
X112244142Y-125813476D01*
X112291761Y-125861095D01*
X112386999Y-125908714D01*
X111529857Y-125575380D02*
X111529857Y-124908714D01*
X111529857Y-125099190D02*
X111482238Y-125003952D01*
X111434619Y-124956333D01*
X111339380Y-124908714D01*
X111244142Y-124908714D01*
X110529857Y-125527761D02*
X110625095Y-125575380D01*
X110815571Y-125575380D01*
X110910809Y-125527761D01*
X110958428Y-125432523D01*
X110958428Y-125051571D01*
X110910809Y-124956333D01*
X110815571Y-124908714D01*
X110625095Y-124908714D01*
X110529857Y-124956333D01*
X110482238Y-125051571D01*
X110482238Y-125146809D01*
X110958428Y-125242047D01*
X109625095Y-125575380D02*
X109625095Y-125051571D01*
X109672714Y-124956333D01*
X109767952Y-124908714D01*
X109958428Y-124908714D01*
X110053666Y-124956333D01*
X109625095Y-125527761D02*
X109720333Y-125575380D01*
X109958428Y-125575380D01*
X110053666Y-125527761D01*
X110101285Y-125432523D01*
X110101285Y-125337285D01*
X110053666Y-125242047D01*
X109958428Y-125194428D01*
X109720333Y-125194428D01*
X109625095Y-125146809D01*
X108720333Y-125575380D02*
X108720333Y-124575380D01*
X108720333Y-125527761D02*
X108815571Y-125575380D01*
X109006047Y-125575380D01*
X109101285Y-125527761D01*
X109148904Y-125480142D01*
X109196523Y-125384904D01*
X109196523Y-125099190D01*
X109148904Y-125003952D01*
X109101285Y-124956333D01*
X109006047Y-124908714D01*
X108815571Y-124908714D01*
X108720333Y-124956333D01*
X107863190Y-125527761D02*
X107958428Y-125575380D01*
X108148904Y-125575380D01*
X108244142Y-125527761D01*
X108291761Y-125432523D01*
X108291761Y-125051571D01*
X108244142Y-124956333D01*
X108148904Y-124908714D01*
X107958428Y-124908714D01*
X107863190Y-124956333D01*
X107815571Y-125051571D01*
X107815571Y-125146809D01*
X108291761Y-125242047D01*
X107386999Y-125575380D02*
X107386999Y-124908714D01*
X107386999Y-125099190D02*
X107339380Y-125003952D01*
X107291761Y-124956333D01*
X107196523Y-124908714D01*
X107101285Y-124908714D01*
X116744142Y-126658714D02*
X116506047Y-127325380D01*
X116267952Y-126658714D01*
X115887000Y-127230142D02*
X115839380Y-127277761D01*
X115887000Y-127325380D01*
X115934619Y-127277761D01*
X115887000Y-127230142D01*
X115887000Y-127325380D01*
X114696523Y-126420619D02*
X114648904Y-126373000D01*
X114553666Y-126325380D01*
X114315571Y-126325380D01*
X114220333Y-126373000D01*
X114172714Y-126420619D01*
X114125095Y-126515857D01*
X114125095Y-126611095D01*
X114172714Y-126753952D01*
X114744142Y-127325380D01*
X114125095Y-127325380D01*
X113696523Y-127230142D02*
X113648904Y-127277761D01*
X113696523Y-127325380D01*
X113744142Y-127277761D01*
X113696523Y-127230142D01*
X113696523Y-127325380D01*
X113029857Y-126325380D02*
X112934619Y-126325380D01*
X112839380Y-126373000D01*
X112791761Y-126420619D01*
X112744142Y-126515857D01*
X112696523Y-126706333D01*
X112696523Y-126944428D01*
X112744142Y-127134904D01*
X112791761Y-127230142D01*
X112839380Y-127277761D01*
X112934619Y-127325380D01*
X113029857Y-127325380D01*
X113125095Y-127277761D01*
X113172714Y-127230142D01*
X113220333Y-127134904D01*
X113267952Y-126944428D01*
X113267952Y-126706333D01*
X113220333Y-126515857D01*
X113172714Y-126420619D01*
X113125095Y-126373000D01*
X113029857Y-126325380D01*
X111315571Y-126325380D02*
X111220333Y-126325380D01*
X111125095Y-126373000D01*
X111077476Y-126420619D01*
X111029857Y-126515857D01*
X110982238Y-126706333D01*
X110982238Y-126944428D01*
X111029857Y-127134904D01*
X111077476Y-127230142D01*
X111125095Y-127277761D01*
X111220333Y-127325380D01*
X111315571Y-127325380D01*
X111410809Y-127277761D01*
X111458428Y-127230142D01*
X111506047Y-127134904D01*
X111553666Y-126944428D01*
X111553666Y-126706333D01*
X111506047Y-126515857D01*
X111458428Y-126420619D01*
X111410809Y-126373000D01*
X111315571Y-126325380D01*
X110601285Y-126420619D02*
X110553666Y-126373000D01*
X110458428Y-126325380D01*
X110220333Y-126325380D01*
X110125095Y-126373000D01*
X110077476Y-126420619D01*
X110029857Y-126515857D01*
X110029857Y-126611095D01*
X110077476Y-126753952D01*
X110648904Y-127325380D01*
X110029857Y-127325380D01*
X108887000Y-126277761D02*
X109744142Y-127563476D01*
X108601285Y-126420619D02*
X108553666Y-126373000D01*
X108458428Y-126325380D01*
X108220333Y-126325380D01*
X108125095Y-126373000D01*
X108077476Y-126420619D01*
X108029857Y-126515857D01*
X108029857Y-126611095D01*
X108077476Y-126753952D01*
X108648904Y-127325380D01*
X108029857Y-127325380D01*
X107077476Y-127325380D02*
X107648904Y-127325380D01*
X107363190Y-127325380D02*
X107363190Y-126325380D01*
X107458428Y-126468238D01*
X107553666Y-126563476D01*
X107648904Y-126611095D01*
X115910809Y-129075380D02*
X115910809Y-128075380D01*
X115910809Y-128456333D02*
X115815571Y-128408714D01*
X115625095Y-128408714D01*
X115529857Y-128456333D01*
X115482238Y-128503952D01*
X115434619Y-128599190D01*
X115434619Y-128884904D01*
X115482238Y-128980142D01*
X115529857Y-129027761D01*
X115625095Y-129075380D01*
X115815571Y-129075380D01*
X115910809Y-129027761D01*
X115101285Y-128408714D02*
X114863190Y-129075380D01*
X114625095Y-128408714D02*
X114863190Y-129075380D01*
X114958428Y-129313476D01*
X115006047Y-129361095D01*
X115101285Y-129408714D01*
X113577476Y-128408714D02*
X113387000Y-129075380D01*
X113196523Y-128599190D01*
X113006047Y-129075380D01*
X112815571Y-128408714D01*
X112053666Y-129027761D02*
X112148904Y-129075380D01*
X112339380Y-129075380D01*
X112434619Y-129027761D01*
X112482238Y-128932523D01*
X112482238Y-128551571D01*
X112434619Y-128456333D01*
X112339380Y-128408714D01*
X112148904Y-128408714D01*
X112053666Y-128456333D01*
X112006047Y-128551571D01*
X112006047Y-128646809D01*
X112482238Y-128742047D01*
X111577476Y-129075380D02*
X111577476Y-128408714D01*
X111577476Y-128075380D02*
X111625095Y-128123000D01*
X111577476Y-128170619D01*
X111529857Y-128123000D01*
X111577476Y-128075380D01*
X111577476Y-128170619D01*
X110672714Y-128408714D02*
X110672714Y-129218238D01*
X110720333Y-129313476D01*
X110767952Y-129361095D01*
X110863190Y-129408714D01*
X111006047Y-129408714D01*
X111101285Y-129361095D01*
X110672714Y-129027761D02*
X110767952Y-129075380D01*
X110958428Y-129075380D01*
X111053666Y-129027761D01*
X111101285Y-128980142D01*
X111148904Y-128884904D01*
X111148904Y-128599190D01*
X111101285Y-128503952D01*
X111053666Y-128456333D01*
X110958428Y-128408714D01*
X110767952Y-128408714D01*
X110672714Y-128456333D01*
X109767952Y-128408714D02*
X109767952Y-129075380D01*
X110196523Y-128408714D02*
X110196523Y-128932523D01*
X110148904Y-129027761D01*
X110053666Y-129075380D01*
X109910809Y-129075380D01*
X109815571Y-129027761D01*
X109767952Y-128980142D01*
X109291761Y-128980142D02*
X109244142Y-129027761D01*
X109291761Y-129075380D01*
X109339380Y-129027761D01*
X109291761Y-128980142D01*
X109291761Y-129075380D01*
X108672714Y-129075380D02*
X108767952Y-129027761D01*
X108815571Y-128932523D01*
X108815571Y-128075380D01*
X107863190Y-128408714D02*
X107863190Y-129075380D01*
X108291761Y-128408714D02*
X108291761Y-128932523D01*
X108244142Y-129027761D01*
X108148904Y-129075380D01*
X108006047Y-129075380D01*
X107910809Y-129027761D01*
X107863190Y-128980142D01*
D12*
%TO.C,REF\u002A\u002A*%
G36*
X104925090Y-116622348D02*
G01*
X104846546Y-116622778D01*
X104789702Y-116623942D01*
X104750895Y-116626207D01*
X104726462Y-116629940D01*
X104712738Y-116635506D01*
X104706060Y-116643273D01*
X104702764Y-116653605D01*
X104702444Y-116654943D01*
X104697438Y-116679079D01*
X104688171Y-116726701D01*
X104675608Y-116792741D01*
X104660713Y-116872128D01*
X104644449Y-116959796D01*
X104643881Y-116962875D01*
X104627590Y-117048789D01*
X104612348Y-117124696D01*
X104599139Y-117186045D01*
X104588946Y-117228282D01*
X104582752Y-117246855D01*
X104582457Y-117247184D01*
X104564212Y-117256253D01*
X104526595Y-117271367D01*
X104477729Y-117289262D01*
X104477457Y-117289358D01*
X104415907Y-117312493D01*
X104343343Y-117341965D01*
X104274943Y-117371597D01*
X104271706Y-117373062D01*
X104160298Y-117423626D01*
X103913601Y-117255160D01*
X103837923Y-117203803D01*
X103769369Y-117157889D01*
X103711912Y-117120030D01*
X103669524Y-117092837D01*
X103646175Y-117078921D01*
X103643958Y-117077889D01*
X103626990Y-117082484D01*
X103595299Y-117104655D01*
X103547648Y-117145447D01*
X103482802Y-117205905D01*
X103416603Y-117270227D01*
X103352786Y-117333612D01*
X103295671Y-117391451D01*
X103248695Y-117440175D01*
X103215297Y-117476210D01*
X103198915Y-117495984D01*
X103198306Y-117497002D01*
X103196495Y-117510572D01*
X103203317Y-117532733D01*
X103220460Y-117566478D01*
X103249607Y-117614800D01*
X103292445Y-117680692D01*
X103349552Y-117765517D01*
X103400234Y-117840177D01*
X103445539Y-117907140D01*
X103482850Y-117962516D01*
X103509548Y-118002420D01*
X103523015Y-118022962D01*
X103523863Y-118024356D01*
X103522219Y-118044038D01*
X103509755Y-118082293D01*
X103488952Y-118131889D01*
X103481538Y-118147728D01*
X103449186Y-118218290D01*
X103414672Y-118298353D01*
X103386635Y-118367629D01*
X103366432Y-118419045D01*
X103350385Y-118458119D01*
X103341112Y-118478541D01*
X103339959Y-118480114D01*
X103322904Y-118482721D01*
X103282702Y-118489863D01*
X103224698Y-118500523D01*
X103154237Y-118513685D01*
X103076665Y-118528333D01*
X102997328Y-118543449D01*
X102921569Y-118558018D01*
X102854736Y-118571022D01*
X102802172Y-118581445D01*
X102769224Y-118588270D01*
X102761143Y-118590199D01*
X102752795Y-118594962D01*
X102746494Y-118605718D01*
X102741955Y-118626098D01*
X102738896Y-118659734D01*
X102737033Y-118710255D01*
X102736082Y-118781292D01*
X102735760Y-118876476D01*
X102735743Y-118915492D01*
X102735743Y-119232799D01*
X102811943Y-119247839D01*
X102854337Y-119255995D01*
X102917600Y-119267899D01*
X102994038Y-119282116D01*
X103075957Y-119297210D01*
X103098600Y-119301355D01*
X103174194Y-119316053D01*
X103240047Y-119330505D01*
X103290634Y-119343375D01*
X103320426Y-119353322D01*
X103325388Y-119356287D01*
X103337574Y-119377283D01*
X103355047Y-119417967D01*
X103374423Y-119470322D01*
X103378266Y-119481600D01*
X103403661Y-119551523D01*
X103435183Y-119630418D01*
X103466031Y-119701266D01*
X103466183Y-119701595D01*
X103517553Y-119812733D01*
X103348601Y-120061253D01*
X103179648Y-120309772D01*
X103396571Y-120527058D01*
X103462181Y-120591726D01*
X103522021Y-120648733D01*
X103572733Y-120695033D01*
X103610954Y-120727584D01*
X103633325Y-120743343D01*
X103636534Y-120744343D01*
X103655374Y-120736469D01*
X103693820Y-120714578D01*
X103747670Y-120681267D01*
X103812724Y-120639131D01*
X103883060Y-120591943D01*
X103954445Y-120543810D01*
X104018092Y-120501928D01*
X104069959Y-120468871D01*
X104106005Y-120447218D01*
X104122133Y-120439543D01*
X104141811Y-120446037D01*
X104179125Y-120463150D01*
X104226379Y-120487326D01*
X104231388Y-120490013D01*
X104295023Y-120521927D01*
X104338659Y-120537579D01*
X104365798Y-120537745D01*
X104379943Y-120523204D01*
X104380025Y-120523000D01*
X104387095Y-120505779D01*
X104403958Y-120464899D01*
X104429305Y-120403525D01*
X104461829Y-120324819D01*
X104500222Y-120231947D01*
X104543178Y-120128072D01*
X104584778Y-120027502D01*
X104630496Y-119916516D01*
X104672474Y-119813703D01*
X104709452Y-119722215D01*
X104740173Y-119645201D01*
X104763378Y-119585815D01*
X104777810Y-119547209D01*
X104782257Y-119532800D01*
X104771104Y-119516272D01*
X104741931Y-119489930D01*
X104703029Y-119460887D01*
X104592243Y-119369039D01*
X104505649Y-119263759D01*
X104444284Y-119147266D01*
X104409185Y-119021776D01*
X104401392Y-118889507D01*
X104407057Y-118828457D01*
X104437922Y-118701795D01*
X104491080Y-118589941D01*
X104563233Y-118494001D01*
X104651083Y-118415076D01*
X104751335Y-118354270D01*
X104860690Y-118312687D01*
X104975853Y-118291428D01*
X105093525Y-118291599D01*
X105210410Y-118314301D01*
X105323211Y-118360638D01*
X105428631Y-118431713D01*
X105472632Y-118471911D01*
X105557021Y-118575129D01*
X105615778Y-118687925D01*
X105649296Y-118807010D01*
X105657965Y-118929095D01*
X105642177Y-119050893D01*
X105602322Y-119169116D01*
X105538793Y-119280475D01*
X105451979Y-119381684D01*
X105354971Y-119460887D01*
X105314563Y-119491162D01*
X105286018Y-119517219D01*
X105275743Y-119532825D01*
X105281123Y-119549843D01*
X105296425Y-119590500D01*
X105320388Y-119651642D01*
X105351756Y-119730119D01*
X105389268Y-119822780D01*
X105431667Y-119926472D01*
X105473337Y-120027526D01*
X105519310Y-120138607D01*
X105561893Y-120241541D01*
X105599779Y-120333165D01*
X105631660Y-120410316D01*
X105656229Y-120469831D01*
X105672180Y-120508544D01*
X105678090Y-120523000D01*
X105692052Y-120537685D01*
X105719060Y-120537642D01*
X105762587Y-120522099D01*
X105826110Y-120490284D01*
X105826612Y-120490013D01*
X105874440Y-120465323D01*
X105913103Y-120447338D01*
X105934905Y-120439614D01*
X105935867Y-120439543D01*
X105952279Y-120447378D01*
X105988513Y-120469165D01*
X106040526Y-120502328D01*
X106104275Y-120544291D01*
X106174940Y-120591943D01*
X106246884Y-120640191D01*
X106311726Y-120682151D01*
X106365265Y-120715227D01*
X106403303Y-120736821D01*
X106421467Y-120744343D01*
X106438192Y-120734457D01*
X106471820Y-120706826D01*
X106518990Y-120664495D01*
X106576342Y-120610505D01*
X106640516Y-120547899D01*
X106661503Y-120526983D01*
X106878501Y-120309623D01*
X106713332Y-120067220D01*
X106663136Y-119992781D01*
X106619081Y-119925972D01*
X106583638Y-119870665D01*
X106559281Y-119830729D01*
X106548478Y-119810036D01*
X106548162Y-119808563D01*
X106553857Y-119789058D01*
X106569174Y-119749822D01*
X106591463Y-119697430D01*
X106607107Y-119662355D01*
X106636359Y-119595201D01*
X106663906Y-119527358D01*
X106685263Y-119470034D01*
X106691065Y-119452572D01*
X106707548Y-119405938D01*
X106723660Y-119369905D01*
X106732510Y-119356287D01*
X106752040Y-119347952D01*
X106794666Y-119336137D01*
X106854855Y-119322181D01*
X106927078Y-119307422D01*
X106959400Y-119301355D01*
X107041478Y-119286273D01*
X107120205Y-119271669D01*
X107187891Y-119258980D01*
X107236840Y-119249642D01*
X107246057Y-119247839D01*
X107322257Y-119232799D01*
X107322257Y-118915492D01*
X107322086Y-118811154D01*
X107321384Y-118732213D01*
X107319866Y-118675038D01*
X107317251Y-118635999D01*
X107313254Y-118611465D01*
X107307591Y-118597805D01*
X107299980Y-118591389D01*
X107296857Y-118590199D01*
X107278022Y-118585980D01*
X107236412Y-118577562D01*
X107177370Y-118565961D01*
X107106243Y-118552195D01*
X107028375Y-118537280D01*
X106949113Y-118522232D01*
X106873802Y-118508069D01*
X106807787Y-118495806D01*
X106756413Y-118486461D01*
X106725025Y-118481050D01*
X106718041Y-118480114D01*
X106711715Y-118467596D01*
X106697710Y-118434246D01*
X106678645Y-118386377D01*
X106671366Y-118367629D01*
X106642004Y-118295195D01*
X106607429Y-118215170D01*
X106576463Y-118147728D01*
X106553677Y-118096159D01*
X106538518Y-118053785D01*
X106533458Y-118027834D01*
X106534264Y-118024356D01*
X106544959Y-118007936D01*
X106569380Y-117971417D01*
X106604905Y-117918687D01*
X106648913Y-117853635D01*
X106698783Y-117780151D01*
X106708644Y-117765645D01*
X106766508Y-117679704D01*
X106809044Y-117614261D01*
X106837946Y-117566304D01*
X106854910Y-117532820D01*
X106861633Y-117510795D01*
X106859810Y-117497217D01*
X106859764Y-117497131D01*
X106845414Y-117479297D01*
X106813677Y-117444817D01*
X106767990Y-117397268D01*
X106711796Y-117340222D01*
X106648532Y-117277255D01*
X106641398Y-117270227D01*
X106561670Y-117193020D01*
X106500143Y-117136330D01*
X106455579Y-117099110D01*
X106426743Y-117080315D01*
X106414042Y-117077889D01*
X106395506Y-117088471D01*
X106357039Y-117112916D01*
X106302614Y-117148612D01*
X106236202Y-117192947D01*
X106161775Y-117243311D01*
X106144399Y-117255160D01*
X105897703Y-117423626D01*
X105786294Y-117373062D01*
X105718543Y-117343595D01*
X105645817Y-117313959D01*
X105583297Y-117290330D01*
X105580543Y-117289358D01*
X105531640Y-117271457D01*
X105493943Y-117256320D01*
X105475575Y-117247210D01*
X105475544Y-117247184D01*
X105469715Y-117230717D01*
X105459808Y-117190219D01*
X105446805Y-117130242D01*
X105431691Y-117055340D01*
X105415448Y-116970064D01*
X105414119Y-116962875D01*
X105397825Y-116875014D01*
X105382867Y-116795260D01*
X105370209Y-116728681D01*
X105360814Y-116680347D01*
X105355646Y-116655325D01*
X105355556Y-116654943D01*
X105352411Y-116644299D01*
X105346296Y-116636262D01*
X105333547Y-116630467D01*
X105310500Y-116626547D01*
X105273491Y-116624135D01*
X105218856Y-116622865D01*
X105142933Y-116622371D01*
X105042056Y-116622286D01*
X105029000Y-116622286D01*
X104925090Y-116622348D01*
G37*
X104925090Y-116622348D02*
X104846546Y-116622778D01*
X104789702Y-116623942D01*
X104750895Y-116626207D01*
X104726462Y-116629940D01*
X104712738Y-116635506D01*
X104706060Y-116643273D01*
X104702764Y-116653605D01*
X104702444Y-116654943D01*
X104697438Y-116679079D01*
X104688171Y-116726701D01*
X104675608Y-116792741D01*
X104660713Y-116872128D01*
X104644449Y-116959796D01*
X104643881Y-116962875D01*
X104627590Y-117048789D01*
X104612348Y-117124696D01*
X104599139Y-117186045D01*
X104588946Y-117228282D01*
X104582752Y-117246855D01*
X104582457Y-117247184D01*
X104564212Y-117256253D01*
X104526595Y-117271367D01*
X104477729Y-117289262D01*
X104477457Y-117289358D01*
X104415907Y-117312493D01*
X104343343Y-117341965D01*
X104274943Y-117371597D01*
X104271706Y-117373062D01*
X104160298Y-117423626D01*
X103913601Y-117255160D01*
X103837923Y-117203803D01*
X103769369Y-117157889D01*
X103711912Y-117120030D01*
X103669524Y-117092837D01*
X103646175Y-117078921D01*
X103643958Y-117077889D01*
X103626990Y-117082484D01*
X103595299Y-117104655D01*
X103547648Y-117145447D01*
X103482802Y-117205905D01*
X103416603Y-117270227D01*
X103352786Y-117333612D01*
X103295671Y-117391451D01*
X103248695Y-117440175D01*
X103215297Y-117476210D01*
X103198915Y-117495984D01*
X103198306Y-117497002D01*
X103196495Y-117510572D01*
X103203317Y-117532733D01*
X103220460Y-117566478D01*
X103249607Y-117614800D01*
X103292445Y-117680692D01*
X103349552Y-117765517D01*
X103400234Y-117840177D01*
X103445539Y-117907140D01*
X103482850Y-117962516D01*
X103509548Y-118002420D01*
X103523015Y-118022962D01*
X103523863Y-118024356D01*
X103522219Y-118044038D01*
X103509755Y-118082293D01*
X103488952Y-118131889D01*
X103481538Y-118147728D01*
X103449186Y-118218290D01*
X103414672Y-118298353D01*
X103386635Y-118367629D01*
X103366432Y-118419045D01*
X103350385Y-118458119D01*
X103341112Y-118478541D01*
X103339959Y-118480114D01*
X103322904Y-118482721D01*
X103282702Y-118489863D01*
X103224698Y-118500523D01*
X103154237Y-118513685D01*
X103076665Y-118528333D01*
X102997328Y-118543449D01*
X102921569Y-118558018D01*
X102854736Y-118571022D01*
X102802172Y-118581445D01*
X102769224Y-118588270D01*
X102761143Y-118590199D01*
X102752795Y-118594962D01*
X102746494Y-118605718D01*
X102741955Y-118626098D01*
X102738896Y-118659734D01*
X102737033Y-118710255D01*
X102736082Y-118781292D01*
X102735760Y-118876476D01*
X102735743Y-118915492D01*
X102735743Y-119232799D01*
X102811943Y-119247839D01*
X102854337Y-119255995D01*
X102917600Y-119267899D01*
X102994038Y-119282116D01*
X103075957Y-119297210D01*
X103098600Y-119301355D01*
X103174194Y-119316053D01*
X103240047Y-119330505D01*
X103290634Y-119343375D01*
X103320426Y-119353322D01*
X103325388Y-119356287D01*
X103337574Y-119377283D01*
X103355047Y-119417967D01*
X103374423Y-119470322D01*
X103378266Y-119481600D01*
X103403661Y-119551523D01*
X103435183Y-119630418D01*
X103466031Y-119701266D01*
X103466183Y-119701595D01*
X103517553Y-119812733D01*
X103348601Y-120061253D01*
X103179648Y-120309772D01*
X103396571Y-120527058D01*
X103462181Y-120591726D01*
X103522021Y-120648733D01*
X103572733Y-120695033D01*
X103610954Y-120727584D01*
X103633325Y-120743343D01*
X103636534Y-120744343D01*
X103655374Y-120736469D01*
X103693820Y-120714578D01*
X103747670Y-120681267D01*
X103812724Y-120639131D01*
X103883060Y-120591943D01*
X103954445Y-120543810D01*
X104018092Y-120501928D01*
X104069959Y-120468871D01*
X104106005Y-120447218D01*
X104122133Y-120439543D01*
X104141811Y-120446037D01*
X104179125Y-120463150D01*
X104226379Y-120487326D01*
X104231388Y-120490013D01*
X104295023Y-120521927D01*
X104338659Y-120537579D01*
X104365798Y-120537745D01*
X104379943Y-120523204D01*
X104380025Y-120523000D01*
X104387095Y-120505779D01*
X104403958Y-120464899D01*
X104429305Y-120403525D01*
X104461829Y-120324819D01*
X104500222Y-120231947D01*
X104543178Y-120128072D01*
X104584778Y-120027502D01*
X104630496Y-119916516D01*
X104672474Y-119813703D01*
X104709452Y-119722215D01*
X104740173Y-119645201D01*
X104763378Y-119585815D01*
X104777810Y-119547209D01*
X104782257Y-119532800D01*
X104771104Y-119516272D01*
X104741931Y-119489930D01*
X104703029Y-119460887D01*
X104592243Y-119369039D01*
X104505649Y-119263759D01*
X104444284Y-119147266D01*
X104409185Y-119021776D01*
X104401392Y-118889507D01*
X104407057Y-118828457D01*
X104437922Y-118701795D01*
X104491080Y-118589941D01*
X104563233Y-118494001D01*
X104651083Y-118415076D01*
X104751335Y-118354270D01*
X104860690Y-118312687D01*
X104975853Y-118291428D01*
X105093525Y-118291599D01*
X105210410Y-118314301D01*
X105323211Y-118360638D01*
X105428631Y-118431713D01*
X105472632Y-118471911D01*
X105557021Y-118575129D01*
X105615778Y-118687925D01*
X105649296Y-118807010D01*
X105657965Y-118929095D01*
X105642177Y-119050893D01*
X105602322Y-119169116D01*
X105538793Y-119280475D01*
X105451979Y-119381684D01*
X105354971Y-119460887D01*
X105314563Y-119491162D01*
X105286018Y-119517219D01*
X105275743Y-119532825D01*
X105281123Y-119549843D01*
X105296425Y-119590500D01*
X105320388Y-119651642D01*
X105351756Y-119730119D01*
X105389268Y-119822780D01*
X105431667Y-119926472D01*
X105473337Y-120027526D01*
X105519310Y-120138607D01*
X105561893Y-120241541D01*
X105599779Y-120333165D01*
X105631660Y-120410316D01*
X105656229Y-120469831D01*
X105672180Y-120508544D01*
X105678090Y-120523000D01*
X105692052Y-120537685D01*
X105719060Y-120537642D01*
X105762587Y-120522099D01*
X105826110Y-120490284D01*
X105826612Y-120490013D01*
X105874440Y-120465323D01*
X105913103Y-120447338D01*
X105934905Y-120439614D01*
X105935867Y-120439543D01*
X105952279Y-120447378D01*
X105988513Y-120469165D01*
X106040526Y-120502328D01*
X106104275Y-120544291D01*
X106174940Y-120591943D01*
X106246884Y-120640191D01*
X106311726Y-120682151D01*
X106365265Y-120715227D01*
X106403303Y-120736821D01*
X106421467Y-120744343D01*
X106438192Y-120734457D01*
X106471820Y-120706826D01*
X106518990Y-120664495D01*
X106576342Y-120610505D01*
X106640516Y-120547899D01*
X106661503Y-120526983D01*
X106878501Y-120309623D01*
X106713332Y-120067220D01*
X106663136Y-119992781D01*
X106619081Y-119925972D01*
X106583638Y-119870665D01*
X106559281Y-119830729D01*
X106548478Y-119810036D01*
X106548162Y-119808563D01*
X106553857Y-119789058D01*
X106569174Y-119749822D01*
X106591463Y-119697430D01*
X106607107Y-119662355D01*
X106636359Y-119595201D01*
X106663906Y-119527358D01*
X106685263Y-119470034D01*
X106691065Y-119452572D01*
X106707548Y-119405938D01*
X106723660Y-119369905D01*
X106732510Y-119356287D01*
X106752040Y-119347952D01*
X106794666Y-119336137D01*
X106854855Y-119322181D01*
X106927078Y-119307422D01*
X106959400Y-119301355D01*
X107041478Y-119286273D01*
X107120205Y-119271669D01*
X107187891Y-119258980D01*
X107236840Y-119249642D01*
X107246057Y-119247839D01*
X107322257Y-119232799D01*
X107322257Y-118915492D01*
X107322086Y-118811154D01*
X107321384Y-118732213D01*
X107319866Y-118675038D01*
X107317251Y-118635999D01*
X107313254Y-118611465D01*
X107307591Y-118597805D01*
X107299980Y-118591389D01*
X107296857Y-118590199D01*
X107278022Y-118585980D01*
X107236412Y-118577562D01*
X107177370Y-118565961D01*
X107106243Y-118552195D01*
X107028375Y-118537280D01*
X106949113Y-118522232D01*
X106873802Y-118508069D01*
X106807787Y-118495806D01*
X106756413Y-118486461D01*
X106725025Y-118481050D01*
X106718041Y-118480114D01*
X106711715Y-118467596D01*
X106697710Y-118434246D01*
X106678645Y-118386377D01*
X106671366Y-118367629D01*
X106642004Y-118295195D01*
X106607429Y-118215170D01*
X106576463Y-118147728D01*
X106553677Y-118096159D01*
X106538518Y-118053785D01*
X106533458Y-118027834D01*
X106534264Y-118024356D01*
X106544959Y-118007936D01*
X106569380Y-117971417D01*
X106604905Y-117918687D01*
X106648913Y-117853635D01*
X106698783Y-117780151D01*
X106708644Y-117765645D01*
X106766508Y-117679704D01*
X106809044Y-117614261D01*
X106837946Y-117566304D01*
X106854910Y-117532820D01*
X106861633Y-117510795D01*
X106859810Y-117497217D01*
X106859764Y-117497131D01*
X106845414Y-117479297D01*
X106813677Y-117444817D01*
X106767990Y-117397268D01*
X106711796Y-117340222D01*
X106648532Y-117277255D01*
X106641398Y-117270227D01*
X106561670Y-117193020D01*
X106500143Y-117136330D01*
X106455579Y-117099110D01*
X106426743Y-117080315D01*
X106414042Y-117077889D01*
X106395506Y-117088471D01*
X106357039Y-117112916D01*
X106302614Y-117148612D01*
X106236202Y-117192947D01*
X106161775Y-117243311D01*
X106144399Y-117255160D01*
X105897703Y-117423626D01*
X105786294Y-117373062D01*
X105718543Y-117343595D01*
X105645817Y-117313959D01*
X105583297Y-117290330D01*
X105580543Y-117289358D01*
X105531640Y-117271457D01*
X105493943Y-117256320D01*
X105475575Y-117247210D01*
X105475544Y-117247184D01*
X105469715Y-117230717D01*
X105459808Y-117190219D01*
X105446805Y-117130242D01*
X105431691Y-117055340D01*
X105415448Y-116970064D01*
X105414119Y-116962875D01*
X105397825Y-116875014D01*
X105382867Y-116795260D01*
X105370209Y-116728681D01*
X105360814Y-116680347D01*
X105355646Y-116655325D01*
X105355556Y-116654943D01*
X105352411Y-116644299D01*
X105346296Y-116636262D01*
X105333547Y-116630467D01*
X105310500Y-116626547D01*
X105273491Y-116624135D01*
X105218856Y-116622865D01*
X105142933Y-116622371D01*
X105042056Y-116622286D01*
X105029000Y-116622286D01*
X104925090Y-116622348D01*
G36*
X101875405Y-121346966D02*
G01*
X101817979Y-121384497D01*
X101790281Y-121418096D01*
X101768338Y-121479064D01*
X101766595Y-121527308D01*
X101770543Y-121591816D01*
X101919314Y-121656934D01*
X101991651Y-121690202D01*
X102038916Y-121716964D01*
X102063493Y-121740144D01*
X102067763Y-121762667D01*
X102054111Y-121787455D01*
X102039057Y-121803886D01*
X101995254Y-121830235D01*
X101947611Y-121832081D01*
X101903855Y-121811546D01*
X101871711Y-121770752D01*
X101865962Y-121756347D01*
X101838424Y-121711356D01*
X101806742Y-121692182D01*
X101763286Y-121675779D01*
X101763286Y-121737966D01*
X101767128Y-121780283D01*
X101782177Y-121815969D01*
X101813720Y-121856943D01*
X101818408Y-121862267D01*
X101853494Y-121898720D01*
X101883653Y-121918283D01*
X101921385Y-121927283D01*
X101952665Y-121930230D01*
X102008615Y-121930965D01*
X102048445Y-121921660D01*
X102073292Y-121907846D01*
X102112344Y-121877467D01*
X102139375Y-121844613D01*
X102156483Y-121803294D01*
X102165762Y-121747521D01*
X102169307Y-121671305D01*
X102169590Y-121632622D01*
X102168628Y-121586247D01*
X102080993Y-121586247D01*
X102079977Y-121611126D01*
X102077444Y-121615200D01*
X102060726Y-121609665D01*
X102024751Y-121595017D01*
X101976669Y-121574190D01*
X101966614Y-121569714D01*
X101905848Y-121538814D01*
X101872368Y-121511657D01*
X101865010Y-121486220D01*
X101882609Y-121460481D01*
X101897144Y-121449109D01*
X101949590Y-121426364D01*
X101998678Y-121430122D01*
X102039773Y-121457884D01*
X102068242Y-121507152D01*
X102077369Y-121546257D01*
X102080993Y-121586247D01*
X102168628Y-121586247D01*
X102167715Y-121542249D01*
X102160804Y-121475384D01*
X102147116Y-121426695D01*
X102124904Y-121390849D01*
X102092426Y-121362513D01*
X102078267Y-121353355D01*
X102013947Y-121329507D01*
X101943527Y-121328006D01*
X101875405Y-121346966D01*
G37*
X101875405Y-121346966D02*
X101817979Y-121384497D01*
X101790281Y-121418096D01*
X101768338Y-121479064D01*
X101766595Y-121527308D01*
X101770543Y-121591816D01*
X101919314Y-121656934D01*
X101991651Y-121690202D01*
X102038916Y-121716964D01*
X102063493Y-121740144D01*
X102067763Y-121762667D01*
X102054111Y-121787455D01*
X102039057Y-121803886D01*
X101995254Y-121830235D01*
X101947611Y-121832081D01*
X101903855Y-121811546D01*
X101871711Y-121770752D01*
X101865962Y-121756347D01*
X101838424Y-121711356D01*
X101806742Y-121692182D01*
X101763286Y-121675779D01*
X101763286Y-121737966D01*
X101767128Y-121780283D01*
X101782177Y-121815969D01*
X101813720Y-121856943D01*
X101818408Y-121862267D01*
X101853494Y-121898720D01*
X101883653Y-121918283D01*
X101921385Y-121927283D01*
X101952665Y-121930230D01*
X102008615Y-121930965D01*
X102048445Y-121921660D01*
X102073292Y-121907846D01*
X102112344Y-121877467D01*
X102139375Y-121844613D01*
X102156483Y-121803294D01*
X102165762Y-121747521D01*
X102169307Y-121671305D01*
X102169590Y-121632622D01*
X102168628Y-121586247D01*
X102080993Y-121586247D01*
X102079977Y-121611126D01*
X102077444Y-121615200D01*
X102060726Y-121609665D01*
X102024751Y-121595017D01*
X101976669Y-121574190D01*
X101966614Y-121569714D01*
X101905848Y-121538814D01*
X101872368Y-121511657D01*
X101865010Y-121486220D01*
X101882609Y-121460481D01*
X101897144Y-121449109D01*
X101949590Y-121426364D01*
X101998678Y-121430122D01*
X102039773Y-121457884D01*
X102068242Y-121507152D01*
X102077369Y-121546257D01*
X102080993Y-121586247D01*
X102168628Y-121586247D01*
X102167715Y-121542249D01*
X102160804Y-121475384D01*
X102147116Y-121426695D01*
X102124904Y-121390849D01*
X102092426Y-121362513D01*
X102078267Y-121353355D01*
X102013947Y-121329507D01*
X101943527Y-121328006D01*
X101875405Y-121346966D01*
G36*
X102376400Y-121338752D02*
G01*
X102359052Y-121346334D01*
X102317644Y-121379128D01*
X102282235Y-121426547D01*
X102260336Y-121477151D01*
X102256771Y-121502098D01*
X102268721Y-121536927D01*
X102294933Y-121555357D01*
X102323036Y-121566516D01*
X102335905Y-121568572D01*
X102342171Y-121553649D01*
X102354544Y-121521175D01*
X102359972Y-121506502D01*
X102390410Y-121455744D01*
X102434480Y-121430427D01*
X102490990Y-121431206D01*
X102495175Y-121432203D01*
X102525345Y-121446507D01*
X102547524Y-121474393D01*
X102562673Y-121519287D01*
X102571750Y-121584615D01*
X102575714Y-121673804D01*
X102576086Y-121721261D01*
X102576270Y-121796071D01*
X102577478Y-121847069D01*
X102580691Y-121879471D01*
X102586891Y-121898495D01*
X102597060Y-121909356D01*
X102612181Y-121917272D01*
X102613054Y-121917670D01*
X102642172Y-121929981D01*
X102656597Y-121934514D01*
X102658814Y-121920809D01*
X102660711Y-121882925D01*
X102662153Y-121825715D01*
X102663002Y-121754027D01*
X102663171Y-121701565D01*
X102662308Y-121600047D01*
X102658930Y-121523032D01*
X102651858Y-121466023D01*
X102639912Y-121424526D01*
X102621910Y-121394043D01*
X102596673Y-121370080D01*
X102571753Y-121353355D01*
X102511829Y-121331097D01*
X102442089Y-121326076D01*
X102376400Y-121338752D01*
G37*
X102376400Y-121338752D02*
X102359052Y-121346334D01*
X102317644Y-121379128D01*
X102282235Y-121426547D01*
X102260336Y-121477151D01*
X102256771Y-121502098D01*
X102268721Y-121536927D01*
X102294933Y-121555357D01*
X102323036Y-121566516D01*
X102335905Y-121568572D01*
X102342171Y-121553649D01*
X102354544Y-121521175D01*
X102359972Y-121506502D01*
X102390410Y-121455744D01*
X102434480Y-121430427D01*
X102490990Y-121431206D01*
X102495175Y-121432203D01*
X102525345Y-121446507D01*
X102547524Y-121474393D01*
X102562673Y-121519287D01*
X102571750Y-121584615D01*
X102575714Y-121673804D01*
X102576086Y-121721261D01*
X102576270Y-121796071D01*
X102577478Y-121847069D01*
X102580691Y-121879471D01*
X102586891Y-121898495D01*
X102597060Y-121909356D01*
X102612181Y-121917272D01*
X102613054Y-121917670D01*
X102642172Y-121929981D01*
X102656597Y-121934514D01*
X102658814Y-121920809D01*
X102660711Y-121882925D01*
X102662153Y-121825715D01*
X102663002Y-121754027D01*
X102663171Y-121701565D01*
X102662308Y-121600047D01*
X102658930Y-121523032D01*
X102651858Y-121466023D01*
X102639912Y-121424526D01*
X102621910Y-121394043D01*
X102596673Y-121370080D01*
X102571753Y-121353355D01*
X102511829Y-121331097D01*
X102442089Y-121326076D01*
X102376400Y-121338752D01*
G36*
X102884124Y-121336335D02*
G01*
X102842333Y-121355344D01*
X102809531Y-121378378D01*
X102785497Y-121404133D01*
X102768903Y-121437358D01*
X102758423Y-121482800D01*
X102752729Y-121545207D01*
X102750493Y-121629327D01*
X102750257Y-121684721D01*
X102750257Y-121900826D01*
X102787226Y-121917670D01*
X102816344Y-121929981D01*
X102830769Y-121934514D01*
X102833528Y-121921025D01*
X102835718Y-121884653D01*
X102837058Y-121831542D01*
X102837343Y-121789372D01*
X102838566Y-121728447D01*
X102841864Y-121680115D01*
X102846679Y-121650518D01*
X102850504Y-121644229D01*
X102876217Y-121650652D01*
X102916582Y-121667125D01*
X102963321Y-121689458D01*
X103008155Y-121713457D01*
X103042807Y-121734930D01*
X103058998Y-121749685D01*
X103059062Y-121749845D01*
X103057670Y-121777152D01*
X103045182Y-121803219D01*
X103023257Y-121824392D01*
X102991257Y-121831474D01*
X102963908Y-121830649D01*
X102925174Y-121830042D01*
X102904842Y-121839116D01*
X102892631Y-121863092D01*
X102891091Y-121867613D01*
X102885797Y-121901806D01*
X102899953Y-121922568D01*
X102936852Y-121932462D01*
X102976711Y-121934292D01*
X103048438Y-121920727D01*
X103085568Y-121901355D01*
X103131424Y-121855845D01*
X103155744Y-121799983D01*
X103157927Y-121740957D01*
X103137371Y-121685953D01*
X103106451Y-121651486D01*
X103075580Y-121632189D01*
X103027058Y-121607759D01*
X102970515Y-121582985D01*
X102961090Y-121579199D01*
X102898981Y-121551791D01*
X102863178Y-121527634D01*
X102851663Y-121503619D01*
X102862420Y-121476635D01*
X102880886Y-121455543D01*
X102924531Y-121429572D01*
X102972554Y-121427624D01*
X103016594Y-121447637D01*
X103048291Y-121487551D01*
X103052451Y-121497848D01*
X103076673Y-121535724D01*
X103112035Y-121563842D01*
X103156657Y-121586917D01*
X103156657Y-121521485D01*
X103154031Y-121481506D01*
X103142770Y-121449997D01*
X103117801Y-121416378D01*
X103093831Y-121390484D01*
X103056559Y-121353817D01*
X103027599Y-121334121D01*
X102996495Y-121326220D01*
X102961287Y-121324914D01*
X102884124Y-121336335D01*
G37*
X102884124Y-121336335D02*
X102842333Y-121355344D01*
X102809531Y-121378378D01*
X102785497Y-121404133D01*
X102768903Y-121437358D01*
X102758423Y-121482800D01*
X102752729Y-121545207D01*
X102750493Y-121629327D01*
X102750257Y-121684721D01*
X102750257Y-121900826D01*
X102787226Y-121917670D01*
X102816344Y-121929981D01*
X102830769Y-121934514D01*
X102833528Y-121921025D01*
X102835718Y-121884653D01*
X102837058Y-121831542D01*
X102837343Y-121789372D01*
X102838566Y-121728447D01*
X102841864Y-121680115D01*
X102846679Y-121650518D01*
X102850504Y-121644229D01*
X102876217Y-121650652D01*
X102916582Y-121667125D01*
X102963321Y-121689458D01*
X103008155Y-121713457D01*
X103042807Y-121734930D01*
X103058998Y-121749685D01*
X103059062Y-121749845D01*
X103057670Y-121777152D01*
X103045182Y-121803219D01*
X103023257Y-121824392D01*
X102991257Y-121831474D01*
X102963908Y-121830649D01*
X102925174Y-121830042D01*
X102904842Y-121839116D01*
X102892631Y-121863092D01*
X102891091Y-121867613D01*
X102885797Y-121901806D01*
X102899953Y-121922568D01*
X102936852Y-121932462D01*
X102976711Y-121934292D01*
X103048438Y-121920727D01*
X103085568Y-121901355D01*
X103131424Y-121855845D01*
X103155744Y-121799983D01*
X103157927Y-121740957D01*
X103137371Y-121685953D01*
X103106451Y-121651486D01*
X103075580Y-121632189D01*
X103027058Y-121607759D01*
X102970515Y-121582985D01*
X102961090Y-121579199D01*
X102898981Y-121551791D01*
X102863178Y-121527634D01*
X102851663Y-121503619D01*
X102862420Y-121476635D01*
X102880886Y-121455543D01*
X102924531Y-121429572D01*
X102972554Y-121427624D01*
X103016594Y-121447637D01*
X103048291Y-121487551D01*
X103052451Y-121497848D01*
X103076673Y-121535724D01*
X103112035Y-121563842D01*
X103156657Y-121586917D01*
X103156657Y-121521485D01*
X103154031Y-121481506D01*
X103142770Y-121449997D01*
X103117801Y-121416378D01*
X103093831Y-121390484D01*
X103056559Y-121353817D01*
X103027599Y-121334121D01*
X102996495Y-121326220D01*
X102961287Y-121324914D01*
X102884124Y-121336335D01*
G36*
X103249167Y-121338663D02*
G01*
X103246952Y-121376850D01*
X103245216Y-121434886D01*
X103244101Y-121508180D01*
X103243743Y-121585055D01*
X103243743Y-121845196D01*
X103289674Y-121891127D01*
X103321325Y-121919429D01*
X103349110Y-121930893D01*
X103387085Y-121930168D01*
X103402160Y-121928321D01*
X103449274Y-121922948D01*
X103488244Y-121919869D01*
X103497743Y-121919585D01*
X103529767Y-121921445D01*
X103575568Y-121926114D01*
X103593326Y-121928321D01*
X103636943Y-121931735D01*
X103666255Y-121924320D01*
X103695320Y-121901427D01*
X103705812Y-121891127D01*
X103751743Y-121845196D01*
X103751743Y-121358602D01*
X103714774Y-121341758D01*
X103682941Y-121329282D01*
X103664317Y-121324914D01*
X103659542Y-121338718D01*
X103655079Y-121377286D01*
X103651225Y-121436356D01*
X103648278Y-121511663D01*
X103646857Y-121575286D01*
X103642886Y-121825657D01*
X103608241Y-121830556D01*
X103576732Y-121827131D01*
X103561292Y-121816041D01*
X103556977Y-121795308D01*
X103553292Y-121751145D01*
X103550531Y-121689146D01*
X103548988Y-121614909D01*
X103548765Y-121576706D01*
X103548543Y-121356783D01*
X103502834Y-121340849D01*
X103470482Y-121330015D01*
X103452885Y-121324962D01*
X103452377Y-121324914D01*
X103450612Y-121338648D01*
X103448671Y-121376730D01*
X103446718Y-121434482D01*
X103444916Y-121507227D01*
X103443657Y-121575286D01*
X103439686Y-121825657D01*
X103352600Y-121825657D01*
X103348604Y-121597240D01*
X103344608Y-121368822D01*
X103302153Y-121346868D01*
X103270808Y-121331793D01*
X103252256Y-121324951D01*
X103251721Y-121324914D01*
X103249167Y-121338663D01*
G37*
X103249167Y-121338663D02*
X103246952Y-121376850D01*
X103245216Y-121434886D01*
X103244101Y-121508180D01*
X103243743Y-121585055D01*
X103243743Y-121845196D01*
X103289674Y-121891127D01*
X103321325Y-121919429D01*
X103349110Y-121930893D01*
X103387085Y-121930168D01*
X103402160Y-121928321D01*
X103449274Y-121922948D01*
X103488244Y-121919869D01*
X103497743Y-121919585D01*
X103529767Y-121921445D01*
X103575568Y-121926114D01*
X103593326Y-121928321D01*
X103636943Y-121931735D01*
X103666255Y-121924320D01*
X103695320Y-121901427D01*
X103705812Y-121891127D01*
X103751743Y-121845196D01*
X103751743Y-121358602D01*
X103714774Y-121341758D01*
X103682941Y-121329282D01*
X103664317Y-121324914D01*
X103659542Y-121338718D01*
X103655079Y-121377286D01*
X103651225Y-121436356D01*
X103648278Y-121511663D01*
X103646857Y-121575286D01*
X103642886Y-121825657D01*
X103608241Y-121830556D01*
X103576732Y-121827131D01*
X103561292Y-121816041D01*
X103556977Y-121795308D01*
X103553292Y-121751145D01*
X103550531Y-121689146D01*
X103548988Y-121614909D01*
X103548765Y-121576706D01*
X103548543Y-121356783D01*
X103502834Y-121340849D01*
X103470482Y-121330015D01*
X103452885Y-121324962D01*
X103452377Y-121324914D01*
X103450612Y-121338648D01*
X103448671Y-121376730D01*
X103446718Y-121434482D01*
X103444916Y-121507227D01*
X103443657Y-121575286D01*
X103439686Y-121825657D01*
X103352600Y-121825657D01*
X103348604Y-121597240D01*
X103344608Y-121368822D01*
X103302153Y-121346868D01*
X103270808Y-121331793D01*
X103252256Y-121324951D01*
X103251721Y-121324914D01*
X103249167Y-121338663D01*
G36*
X103838883Y-121445358D02*
G01*
X103839067Y-121553837D01*
X103839781Y-121637287D01*
X103841325Y-121699704D01*
X103843999Y-121745085D01*
X103848106Y-121777429D01*
X103853945Y-121800733D01*
X103861818Y-121818995D01*
X103867779Y-121829418D01*
X103917145Y-121885945D01*
X103979736Y-121921377D01*
X104048987Y-121934090D01*
X104118332Y-121922463D01*
X104159625Y-121901568D01*
X104202975Y-121865422D01*
X104232519Y-121821276D01*
X104250345Y-121763462D01*
X104258537Y-121686313D01*
X104259698Y-121629714D01*
X104259542Y-121625647D01*
X104158143Y-121625647D01*
X104157524Y-121690550D01*
X104154686Y-121733514D01*
X104148160Y-121761622D01*
X104136477Y-121781953D01*
X104122517Y-121797288D01*
X104075635Y-121826890D01*
X104025299Y-121829419D01*
X103977724Y-121804705D01*
X103974021Y-121801356D01*
X103958217Y-121783935D01*
X103948307Y-121763209D01*
X103942942Y-121732362D01*
X103940772Y-121684577D01*
X103940429Y-121631748D01*
X103941173Y-121565381D01*
X103944252Y-121521106D01*
X103950939Y-121492009D01*
X103962504Y-121471173D01*
X103971987Y-121460107D01*
X104016040Y-121432198D01*
X104066776Y-121428843D01*
X104115204Y-121450159D01*
X104124550Y-121458073D01*
X104140460Y-121475647D01*
X104150390Y-121496587D01*
X104155722Y-121527782D01*
X104157837Y-121576122D01*
X104158143Y-121625647D01*
X104259542Y-121625647D01*
X104256190Y-121538568D01*
X104244274Y-121470086D01*
X104221865Y-121418600D01*
X104186876Y-121378443D01*
X104159625Y-121357861D01*
X104110093Y-121335625D01*
X104052684Y-121325304D01*
X103999318Y-121328067D01*
X103969457Y-121339212D01*
X103957739Y-121342383D01*
X103949963Y-121330557D01*
X103944535Y-121298866D01*
X103940429Y-121250593D01*
X103935933Y-121196829D01*
X103929687Y-121164482D01*
X103918324Y-121145985D01*
X103898472Y-121133770D01*
X103886000Y-121128362D01*
X103838829Y-121108601D01*
X103838883Y-121445358D01*
G37*
X103838883Y-121445358D02*
X103839067Y-121553837D01*
X103839781Y-121637287D01*
X103841325Y-121699704D01*
X103843999Y-121745085D01*
X103848106Y-121777429D01*
X103853945Y-121800733D01*
X103861818Y-121818995D01*
X103867779Y-121829418D01*
X103917145Y-121885945D01*
X103979736Y-121921377D01*
X104048987Y-121934090D01*
X104118332Y-121922463D01*
X104159625Y-121901568D01*
X104202975Y-121865422D01*
X104232519Y-121821276D01*
X104250345Y-121763462D01*
X104258537Y-121686313D01*
X104259698Y-121629714D01*
X104259542Y-121625647D01*
X104158143Y-121625647D01*
X104157524Y-121690550D01*
X104154686Y-121733514D01*
X104148160Y-121761622D01*
X104136477Y-121781953D01*
X104122517Y-121797288D01*
X104075635Y-121826890D01*
X104025299Y-121829419D01*
X103977724Y-121804705D01*
X103974021Y-121801356D01*
X103958217Y-121783935D01*
X103948307Y-121763209D01*
X103942942Y-121732362D01*
X103940772Y-121684577D01*
X103940429Y-121631748D01*
X103941173Y-121565381D01*
X103944252Y-121521106D01*
X103950939Y-121492009D01*
X103962504Y-121471173D01*
X103971987Y-121460107D01*
X104016040Y-121432198D01*
X104066776Y-121428843D01*
X104115204Y-121450159D01*
X104124550Y-121458073D01*
X104140460Y-121475647D01*
X104150390Y-121496587D01*
X104155722Y-121527782D01*
X104157837Y-121576122D01*
X104158143Y-121625647D01*
X104259542Y-121625647D01*
X104256190Y-121538568D01*
X104244274Y-121470086D01*
X104221865Y-121418600D01*
X104186876Y-121378443D01*
X104159625Y-121357861D01*
X104110093Y-121335625D01*
X104052684Y-121325304D01*
X103999318Y-121328067D01*
X103969457Y-121339212D01*
X103957739Y-121342383D01*
X103949963Y-121330557D01*
X103944535Y-121298866D01*
X103940429Y-121250593D01*
X103935933Y-121196829D01*
X103929687Y-121164482D01*
X103918324Y-121145985D01*
X103898472Y-121133770D01*
X103886000Y-121128362D01*
X103838829Y-121108601D01*
X103838883Y-121445358D01*
G36*
X104499074Y-121329755D02*
G01*
X104433142Y-121354084D01*
X104379727Y-121397117D01*
X104358836Y-121427409D01*
X104336061Y-121482994D01*
X104336534Y-121523186D01*
X104360438Y-121550217D01*
X104369283Y-121554813D01*
X104407470Y-121569144D01*
X104426972Y-121565472D01*
X104433578Y-121541407D01*
X104433914Y-121528114D01*
X104446008Y-121479210D01*
X104477529Y-121444999D01*
X104521341Y-121428476D01*
X104570305Y-121432634D01*
X104610106Y-121454227D01*
X104623550Y-121466544D01*
X104633079Y-121481487D01*
X104639515Y-121504075D01*
X104643683Y-121539328D01*
X104646403Y-121592266D01*
X104648498Y-121667907D01*
X104649040Y-121691857D01*
X104651019Y-121773790D01*
X104653269Y-121831455D01*
X104656643Y-121869608D01*
X104661994Y-121893004D01*
X104670176Y-121906398D01*
X104682041Y-121914545D01*
X104689638Y-121918144D01*
X104721898Y-121930452D01*
X104740889Y-121934514D01*
X104747164Y-121920948D01*
X104750994Y-121879934D01*
X104752400Y-121810999D01*
X104751402Y-121713669D01*
X104751092Y-121698657D01*
X104748899Y-121609859D01*
X104746307Y-121545019D01*
X104742618Y-121499067D01*
X104737136Y-121466935D01*
X104729165Y-121443553D01*
X104718007Y-121423852D01*
X104712170Y-121415410D01*
X104678704Y-121378057D01*
X104641273Y-121349003D01*
X104636691Y-121346467D01*
X104569574Y-121326443D01*
X104499074Y-121329755D01*
G37*
X104499074Y-121329755D02*
X104433142Y-121354084D01*
X104379727Y-121397117D01*
X104358836Y-121427409D01*
X104336061Y-121482994D01*
X104336534Y-121523186D01*
X104360438Y-121550217D01*
X104369283Y-121554813D01*
X104407470Y-121569144D01*
X104426972Y-121565472D01*
X104433578Y-121541407D01*
X104433914Y-121528114D01*
X104446008Y-121479210D01*
X104477529Y-121444999D01*
X104521341Y-121428476D01*
X104570305Y-121432634D01*
X104610106Y-121454227D01*
X104623550Y-121466544D01*
X104633079Y-121481487D01*
X104639515Y-121504075D01*
X104643683Y-121539328D01*
X104646403Y-121592266D01*
X104648498Y-121667907D01*
X104649040Y-121691857D01*
X104651019Y-121773790D01*
X104653269Y-121831455D01*
X104656643Y-121869608D01*
X104661994Y-121893004D01*
X104670176Y-121906398D01*
X104682041Y-121914545D01*
X104689638Y-121918144D01*
X104721898Y-121930452D01*
X104740889Y-121934514D01*
X104747164Y-121920948D01*
X104750994Y-121879934D01*
X104752400Y-121810999D01*
X104751402Y-121713669D01*
X104751092Y-121698657D01*
X104748899Y-121609859D01*
X104746307Y-121545019D01*
X104742618Y-121499067D01*
X104737136Y-121466935D01*
X104729165Y-121443553D01*
X104718007Y-121423852D01*
X104712170Y-121415410D01*
X104678704Y-121378057D01*
X104641273Y-121349003D01*
X104636691Y-121346467D01*
X104569574Y-121326443D01*
X104499074Y-121329755D01*
G36*
X104989256Y-121330968D02*
G01*
X104932384Y-121352087D01*
X104931733Y-121352493D01*
X104896560Y-121378380D01*
X104870593Y-121408633D01*
X104852330Y-121448058D01*
X104840268Y-121501462D01*
X104832904Y-121573651D01*
X104828736Y-121669432D01*
X104828371Y-121683078D01*
X104823124Y-121888842D01*
X104867284Y-121911678D01*
X104899237Y-121927110D01*
X104918530Y-121934423D01*
X104919422Y-121934514D01*
X104922761Y-121921022D01*
X104925413Y-121884626D01*
X104927044Y-121831452D01*
X104927400Y-121788393D01*
X104927408Y-121718641D01*
X104930597Y-121674837D01*
X104941712Y-121653944D01*
X104965499Y-121652925D01*
X105006704Y-121668741D01*
X105068914Y-121697815D01*
X105114659Y-121721963D01*
X105138187Y-121742913D01*
X105145104Y-121765747D01*
X105145114Y-121766877D01*
X105133701Y-121806212D01*
X105099908Y-121827462D01*
X105048191Y-121830539D01*
X105010939Y-121830006D01*
X104991297Y-121840735D01*
X104979048Y-121866505D01*
X104971998Y-121899337D01*
X104982158Y-121917966D01*
X104985983Y-121920632D01*
X105021999Y-121931340D01*
X105072434Y-121932856D01*
X105124374Y-121925759D01*
X105161178Y-121912788D01*
X105212062Y-121869585D01*
X105240986Y-121809446D01*
X105246714Y-121762462D01*
X105242343Y-121720082D01*
X105226525Y-121685488D01*
X105195203Y-121654763D01*
X105144322Y-121623990D01*
X105069824Y-121589252D01*
X105065286Y-121587288D01*
X104998179Y-121556287D01*
X104956768Y-121530862D01*
X104939019Y-121508014D01*
X104942893Y-121484745D01*
X104966357Y-121458056D01*
X104973373Y-121451914D01*
X105020370Y-121428100D01*
X105069067Y-121429103D01*
X105111478Y-121452451D01*
X105139616Y-121495675D01*
X105142231Y-121504160D01*
X105167692Y-121545308D01*
X105199999Y-121565128D01*
X105246714Y-121584770D01*
X105246714Y-121533950D01*
X105232504Y-121460082D01*
X105190325Y-121392327D01*
X105168376Y-121369661D01*
X105118483Y-121340569D01*
X105055033Y-121327400D01*
X104989256Y-121330968D01*
G37*
X104989256Y-121330968D02*
X104932384Y-121352087D01*
X104931733Y-121352493D01*
X104896560Y-121378380D01*
X104870593Y-121408633D01*
X104852330Y-121448058D01*
X104840268Y-121501462D01*
X104832904Y-121573651D01*
X104828736Y-121669432D01*
X104828371Y-121683078D01*
X104823124Y-121888842D01*
X104867284Y-121911678D01*
X104899237Y-121927110D01*
X104918530Y-121934423D01*
X104919422Y-121934514D01*
X104922761Y-121921022D01*
X104925413Y-121884626D01*
X104927044Y-121831452D01*
X104927400Y-121788393D01*
X104927408Y-121718641D01*
X104930597Y-121674837D01*
X104941712Y-121653944D01*
X104965499Y-121652925D01*
X105006704Y-121668741D01*
X105068914Y-121697815D01*
X105114659Y-121721963D01*
X105138187Y-121742913D01*
X105145104Y-121765747D01*
X105145114Y-121766877D01*
X105133701Y-121806212D01*
X105099908Y-121827462D01*
X105048191Y-121830539D01*
X105010939Y-121830006D01*
X104991297Y-121840735D01*
X104979048Y-121866505D01*
X104971998Y-121899337D01*
X104982158Y-121917966D01*
X104985983Y-121920632D01*
X105021999Y-121931340D01*
X105072434Y-121932856D01*
X105124374Y-121925759D01*
X105161178Y-121912788D01*
X105212062Y-121869585D01*
X105240986Y-121809446D01*
X105246714Y-121762462D01*
X105242343Y-121720082D01*
X105226525Y-121685488D01*
X105195203Y-121654763D01*
X105144322Y-121623990D01*
X105069824Y-121589252D01*
X105065286Y-121587288D01*
X104998179Y-121556287D01*
X104956768Y-121530862D01*
X104939019Y-121508014D01*
X104942893Y-121484745D01*
X104966357Y-121458056D01*
X104973373Y-121451914D01*
X105020370Y-121428100D01*
X105069067Y-121429103D01*
X105111478Y-121452451D01*
X105139616Y-121495675D01*
X105142231Y-121504160D01*
X105167692Y-121545308D01*
X105199999Y-121565128D01*
X105246714Y-121584770D01*
X105246714Y-121533950D01*
X105232504Y-121460082D01*
X105190325Y-121392327D01*
X105168376Y-121369661D01*
X105118483Y-121340569D01*
X105055033Y-121327400D01*
X104989256Y-121330968D01*
G36*
X105653114Y-121231289D02*
G01*
X105648861Y-121290613D01*
X105643975Y-121325572D01*
X105637205Y-121340820D01*
X105627298Y-121341015D01*
X105624086Y-121339195D01*
X105581356Y-121326015D01*
X105525773Y-121326785D01*
X105469263Y-121340333D01*
X105433918Y-121357861D01*
X105397679Y-121385861D01*
X105371187Y-121417549D01*
X105353001Y-121457813D01*
X105341678Y-121511543D01*
X105335778Y-121583626D01*
X105333857Y-121678951D01*
X105333823Y-121697237D01*
X105333800Y-121902646D01*
X105379509Y-121918580D01*
X105411973Y-121929420D01*
X105429785Y-121934468D01*
X105430309Y-121934514D01*
X105432063Y-121920828D01*
X105433556Y-121883076D01*
X105434674Y-121826224D01*
X105435303Y-121755234D01*
X105435400Y-121712073D01*
X105435602Y-121626973D01*
X105436642Y-121565981D01*
X105439169Y-121524177D01*
X105443836Y-121496642D01*
X105451293Y-121478456D01*
X105462189Y-121464698D01*
X105468993Y-121458073D01*
X105515728Y-121431375D01*
X105566728Y-121429375D01*
X105612999Y-121451955D01*
X105621556Y-121460107D01*
X105634107Y-121475436D01*
X105642812Y-121493618D01*
X105648369Y-121519909D01*
X105651474Y-121559562D01*
X105652824Y-121617832D01*
X105653114Y-121698173D01*
X105653114Y-121902646D01*
X105698823Y-121918580D01*
X105731287Y-121929420D01*
X105749099Y-121934468D01*
X105749623Y-121934514D01*
X105750963Y-121920623D01*
X105752172Y-121881439D01*
X105753199Y-121820700D01*
X105753998Y-121742141D01*
X105754519Y-121649498D01*
X105754714Y-121546509D01*
X105754714Y-121149342D01*
X105707543Y-121129444D01*
X105660371Y-121109547D01*
X105653114Y-121231289D01*
G37*
X105653114Y-121231289D02*
X105648861Y-121290613D01*
X105643975Y-121325572D01*
X105637205Y-121340820D01*
X105627298Y-121341015D01*
X105624086Y-121339195D01*
X105581356Y-121326015D01*
X105525773Y-121326785D01*
X105469263Y-121340333D01*
X105433918Y-121357861D01*
X105397679Y-121385861D01*
X105371187Y-121417549D01*
X105353001Y-121457813D01*
X105341678Y-121511543D01*
X105335778Y-121583626D01*
X105333857Y-121678951D01*
X105333823Y-121697237D01*
X105333800Y-121902646D01*
X105379509Y-121918580D01*
X105411973Y-121929420D01*
X105429785Y-121934468D01*
X105430309Y-121934514D01*
X105432063Y-121920828D01*
X105433556Y-121883076D01*
X105434674Y-121826224D01*
X105435303Y-121755234D01*
X105435400Y-121712073D01*
X105435602Y-121626973D01*
X105436642Y-121565981D01*
X105439169Y-121524177D01*
X105443836Y-121496642D01*
X105451293Y-121478456D01*
X105462189Y-121464698D01*
X105468993Y-121458073D01*
X105515728Y-121431375D01*
X105566728Y-121429375D01*
X105612999Y-121451955D01*
X105621556Y-121460107D01*
X105634107Y-121475436D01*
X105642812Y-121493618D01*
X105648369Y-121519909D01*
X105651474Y-121559562D01*
X105652824Y-121617832D01*
X105653114Y-121698173D01*
X105653114Y-121902646D01*
X105698823Y-121918580D01*
X105731287Y-121929420D01*
X105749099Y-121934468D01*
X105749623Y-121934514D01*
X105750963Y-121920623D01*
X105752172Y-121881439D01*
X105753199Y-121820700D01*
X105753998Y-121742141D01*
X105754519Y-121649498D01*
X105754714Y-121546509D01*
X105754714Y-121149342D01*
X105707543Y-121129444D01*
X105660371Y-121109547D01*
X105653114Y-121231289D01*
G36*
X106860697Y-121311239D02*
G01*
X106803473Y-121349735D01*
X106759251Y-121405335D01*
X106732833Y-121476086D01*
X106727490Y-121528162D01*
X106728097Y-121549893D01*
X106733178Y-121566531D01*
X106747145Y-121581437D01*
X106774411Y-121597973D01*
X106819388Y-121619498D01*
X106886489Y-121649374D01*
X106886829Y-121649524D01*
X106948593Y-121677813D01*
X106999241Y-121702933D01*
X107033596Y-121722179D01*
X107046482Y-121732848D01*
X107046486Y-121732934D01*
X107035128Y-121756166D01*
X107008569Y-121781774D01*
X106978077Y-121800221D01*
X106962630Y-121803886D01*
X106920485Y-121791212D01*
X106884192Y-121759471D01*
X106866483Y-121724572D01*
X106849448Y-121698845D01*
X106816078Y-121669546D01*
X106776851Y-121644235D01*
X106742244Y-121630471D01*
X106735007Y-121629714D01*
X106726861Y-121642160D01*
X106726370Y-121673972D01*
X106732357Y-121716866D01*
X106743643Y-121762558D01*
X106759050Y-121802761D01*
X106759829Y-121804322D01*
X106806196Y-121869062D01*
X106866289Y-121913097D01*
X106934535Y-121934711D01*
X107005362Y-121932185D01*
X107073196Y-121903804D01*
X107076212Y-121901808D01*
X107129573Y-121853448D01*
X107164660Y-121790352D01*
X107184078Y-121707387D01*
X107186684Y-121684078D01*
X107191299Y-121574055D01*
X107185767Y-121522748D01*
X107046486Y-121522748D01*
X107044676Y-121554753D01*
X107034778Y-121564093D01*
X107010102Y-121557105D01*
X106971205Y-121540587D01*
X106927725Y-121519881D01*
X106926644Y-121519333D01*
X106889791Y-121499949D01*
X106875000Y-121487013D01*
X106878647Y-121473451D01*
X106894005Y-121455632D01*
X106933077Y-121429845D01*
X106975154Y-121427950D01*
X107012897Y-121446717D01*
X107038966Y-121482915D01*
X107046486Y-121522748D01*
X107185767Y-121522748D01*
X107181806Y-121486027D01*
X107157450Y-121416212D01*
X107123544Y-121367302D01*
X107062347Y-121317878D01*
X106994937Y-121293359D01*
X106926120Y-121291797D01*
X106860697Y-121311239D01*
G37*
X106860697Y-121311239D02*
X106803473Y-121349735D01*
X106759251Y-121405335D01*
X106732833Y-121476086D01*
X106727490Y-121528162D01*
X106728097Y-121549893D01*
X106733178Y-121566531D01*
X106747145Y-121581437D01*
X106774411Y-121597973D01*
X106819388Y-121619498D01*
X106886489Y-121649374D01*
X106886829Y-121649524D01*
X106948593Y-121677813D01*
X106999241Y-121702933D01*
X107033596Y-121722179D01*
X107046482Y-121732848D01*
X107046486Y-121732934D01*
X107035128Y-121756166D01*
X107008569Y-121781774D01*
X106978077Y-121800221D01*
X106962630Y-121803886D01*
X106920485Y-121791212D01*
X106884192Y-121759471D01*
X106866483Y-121724572D01*
X106849448Y-121698845D01*
X106816078Y-121669546D01*
X106776851Y-121644235D01*
X106742244Y-121630471D01*
X106735007Y-121629714D01*
X106726861Y-121642160D01*
X106726370Y-121673972D01*
X106732357Y-121716866D01*
X106743643Y-121762558D01*
X106759050Y-121802761D01*
X106759829Y-121804322D01*
X106806196Y-121869062D01*
X106866289Y-121913097D01*
X106934535Y-121934711D01*
X107005362Y-121932185D01*
X107073196Y-121903804D01*
X107076212Y-121901808D01*
X107129573Y-121853448D01*
X107164660Y-121790352D01*
X107184078Y-121707387D01*
X107186684Y-121684078D01*
X107191299Y-121574055D01*
X107185767Y-121522748D01*
X107046486Y-121522748D01*
X107044676Y-121554753D01*
X107034778Y-121564093D01*
X107010102Y-121557105D01*
X106971205Y-121540587D01*
X106927725Y-121519881D01*
X106926644Y-121519333D01*
X106889791Y-121499949D01*
X106875000Y-121487013D01*
X106878647Y-121473451D01*
X106894005Y-121455632D01*
X106933077Y-121429845D01*
X106975154Y-121427950D01*
X107012897Y-121446717D01*
X107038966Y-121482915D01*
X107046486Y-121522748D01*
X107185767Y-121522748D01*
X107181806Y-121486027D01*
X107157450Y-121416212D01*
X107123544Y-121367302D01*
X107062347Y-121317878D01*
X106994937Y-121293359D01*
X106926120Y-121291797D01*
X106860697Y-121311239D01*
G36*
X107987885Y-121301962D02*
G01*
X107919855Y-121337733D01*
X107869649Y-121395301D01*
X107851815Y-121432312D01*
X107837937Y-121487882D01*
X107830833Y-121558096D01*
X107830160Y-121634727D01*
X107835573Y-121709552D01*
X107846730Y-121774342D01*
X107863286Y-121820873D01*
X107868374Y-121828887D01*
X107928645Y-121888707D01*
X108000231Y-121924535D01*
X108077908Y-121935020D01*
X108156452Y-121918810D01*
X108178311Y-121909092D01*
X108220878Y-121879143D01*
X108258237Y-121839433D01*
X108261768Y-121834397D01*
X108276119Y-121810124D01*
X108285606Y-121784178D01*
X108291210Y-121750022D01*
X108293914Y-121701119D01*
X108294701Y-121630935D01*
X108294714Y-121615200D01*
X108294678Y-121610192D01*
X108149571Y-121610192D01*
X108148727Y-121676430D01*
X108145404Y-121720386D01*
X108138417Y-121748779D01*
X108126584Y-121768325D01*
X108120543Y-121774857D01*
X108085814Y-121799680D01*
X108052097Y-121798548D01*
X108018005Y-121777016D01*
X107997671Y-121754029D01*
X107985629Y-121720478D01*
X107978866Y-121667569D01*
X107978402Y-121661399D01*
X107977248Y-121565513D01*
X107989312Y-121494299D01*
X108014430Y-121448194D01*
X108052440Y-121427635D01*
X108066008Y-121426514D01*
X108101636Y-121432152D01*
X108126006Y-121451686D01*
X108140907Y-121489042D01*
X108148125Y-121548150D01*
X108149571Y-121610192D01*
X108294678Y-121610192D01*
X108294174Y-121540413D01*
X108291904Y-121488159D01*
X108286932Y-121451949D01*
X108278287Y-121425299D01*
X108264995Y-121401722D01*
X108262057Y-121397338D01*
X108212687Y-121338249D01*
X108158891Y-121303947D01*
X108093398Y-121290331D01*
X108071158Y-121289665D01*
X107987885Y-121301962D01*
G37*
X107987885Y-121301962D02*
X107919855Y-121337733D01*
X107869649Y-121395301D01*
X107851815Y-121432312D01*
X107837937Y-121487882D01*
X107830833Y-121558096D01*
X107830160Y-121634727D01*
X107835573Y-121709552D01*
X107846730Y-121774342D01*
X107863286Y-121820873D01*
X107868374Y-121828887D01*
X107928645Y-121888707D01*
X108000231Y-121924535D01*
X108077908Y-121935020D01*
X108156452Y-121918810D01*
X108178311Y-121909092D01*
X108220878Y-121879143D01*
X108258237Y-121839433D01*
X108261768Y-121834397D01*
X108276119Y-121810124D01*
X108285606Y-121784178D01*
X108291210Y-121750022D01*
X108293914Y-121701119D01*
X108294701Y-121630935D01*
X108294714Y-121615200D01*
X108294678Y-121610192D01*
X108149571Y-121610192D01*
X108148727Y-121676430D01*
X108145404Y-121720386D01*
X108138417Y-121748779D01*
X108126584Y-121768325D01*
X108120543Y-121774857D01*
X108085814Y-121799680D01*
X108052097Y-121798548D01*
X108018005Y-121777016D01*
X107997671Y-121754029D01*
X107985629Y-121720478D01*
X107978866Y-121667569D01*
X107978402Y-121661399D01*
X107977248Y-121565513D01*
X107989312Y-121494299D01*
X108014430Y-121448194D01*
X108052440Y-121427635D01*
X108066008Y-121426514D01*
X108101636Y-121432152D01*
X108126006Y-121451686D01*
X108140907Y-121489042D01*
X108148125Y-121548150D01*
X108149571Y-121610192D01*
X108294678Y-121610192D01*
X108294174Y-121540413D01*
X108291904Y-121488159D01*
X108286932Y-121451949D01*
X108278287Y-121425299D01*
X108264995Y-121401722D01*
X108262057Y-121397338D01*
X108212687Y-121338249D01*
X108158891Y-121303947D01*
X108093398Y-121290331D01*
X108071158Y-121289665D01*
X107987885Y-121301962D01*
G36*
X106312907Y-121307780D02*
G01*
X106266328Y-121334723D01*
X106233943Y-121361466D01*
X106210258Y-121389484D01*
X106193941Y-121423748D01*
X106183661Y-121469227D01*
X106178086Y-121530892D01*
X106175884Y-121613711D01*
X106175629Y-121673246D01*
X106175629Y-121892391D01*
X106237314Y-121920044D01*
X106299000Y-121947697D01*
X106306257Y-121707670D01*
X106309256Y-121618028D01*
X106312402Y-121552962D01*
X106316299Y-121508026D01*
X106321553Y-121478770D01*
X106328769Y-121460748D01*
X106338550Y-121449511D01*
X106341688Y-121447079D01*
X106389239Y-121428083D01*
X106437303Y-121435600D01*
X106465914Y-121455543D01*
X106477553Y-121469675D01*
X106485609Y-121488220D01*
X106490729Y-121516334D01*
X106493559Y-121559173D01*
X106494744Y-121621895D01*
X106494943Y-121687261D01*
X106494982Y-121769268D01*
X106496386Y-121827316D01*
X106501086Y-121866465D01*
X106511013Y-121891780D01*
X106528097Y-121908323D01*
X106554268Y-121921156D01*
X106589225Y-121934491D01*
X106627404Y-121949007D01*
X106622859Y-121691389D01*
X106621029Y-121598519D01*
X106618888Y-121529889D01*
X106615819Y-121480711D01*
X106611206Y-121446198D01*
X106604432Y-121421562D01*
X106594881Y-121402016D01*
X106583366Y-121384770D01*
X106527810Y-121329680D01*
X106460020Y-121297822D01*
X106386287Y-121290191D01*
X106312907Y-121307780D01*
G37*
X106312907Y-121307780D02*
X106266328Y-121334723D01*
X106233943Y-121361466D01*
X106210258Y-121389484D01*
X106193941Y-121423748D01*
X106183661Y-121469227D01*
X106178086Y-121530892D01*
X106175884Y-121613711D01*
X106175629Y-121673246D01*
X106175629Y-121892391D01*
X106237314Y-121920044D01*
X106299000Y-121947697D01*
X106306257Y-121707670D01*
X106309256Y-121618028D01*
X106312402Y-121552962D01*
X106316299Y-121508026D01*
X106321553Y-121478770D01*
X106328769Y-121460748D01*
X106338550Y-121449511D01*
X106341688Y-121447079D01*
X106389239Y-121428083D01*
X106437303Y-121435600D01*
X106465914Y-121455543D01*
X106477553Y-121469675D01*
X106485609Y-121488220D01*
X106490729Y-121516334D01*
X106493559Y-121559173D01*
X106494744Y-121621895D01*
X106494943Y-121687261D01*
X106494982Y-121769268D01*
X106496386Y-121827316D01*
X106501086Y-121866465D01*
X106511013Y-121891780D01*
X106528097Y-121908323D01*
X106554268Y-121921156D01*
X106589225Y-121934491D01*
X106627404Y-121949007D01*
X106622859Y-121691389D01*
X106621029Y-121598519D01*
X106618888Y-121529889D01*
X106615819Y-121480711D01*
X106611206Y-121446198D01*
X106604432Y-121421562D01*
X106594881Y-121402016D01*
X106583366Y-121384770D01*
X106527810Y-121329680D01*
X106460020Y-121297822D01*
X106386287Y-121290191D01*
X106312907Y-121307780D01*
G36*
X107429256Y-121299918D02*
G01*
X107373799Y-121327568D01*
X107324852Y-121378480D01*
X107311371Y-121397338D01*
X107296686Y-121422015D01*
X107287158Y-121448816D01*
X107281707Y-121484587D01*
X107279253Y-121536169D01*
X107278714Y-121604267D01*
X107281148Y-121697588D01*
X107289606Y-121767657D01*
X107305826Y-121819931D01*
X107331546Y-121859869D01*
X107368503Y-121892929D01*
X107371218Y-121894886D01*
X107407640Y-121914908D01*
X107451498Y-121924815D01*
X107507276Y-121927257D01*
X107597952Y-121927257D01*
X107597990Y-122015283D01*
X107598834Y-122064308D01*
X107603976Y-122093065D01*
X107617413Y-122110311D01*
X107643142Y-122124808D01*
X107649321Y-122127769D01*
X107678236Y-122141648D01*
X107700624Y-122150414D01*
X107717271Y-122151171D01*
X107728964Y-122141023D01*
X107736490Y-122117073D01*
X107740634Y-122076426D01*
X107742185Y-122016186D01*
X107741929Y-121933455D01*
X107740651Y-121825339D01*
X107740252Y-121793000D01*
X107738815Y-121681524D01*
X107737528Y-121608603D01*
X107598029Y-121608603D01*
X107597245Y-121670499D01*
X107593760Y-121710997D01*
X107585876Y-121737708D01*
X107571895Y-121758244D01*
X107562403Y-121768260D01*
X107523596Y-121797567D01*
X107489237Y-121799952D01*
X107453784Y-121775750D01*
X107452886Y-121774857D01*
X107438461Y-121756153D01*
X107429687Y-121730732D01*
X107425261Y-121691584D01*
X107423882Y-121631697D01*
X107423857Y-121618430D01*
X107427188Y-121535901D01*
X107438031Y-121478691D01*
X107457660Y-121443766D01*
X107487350Y-121428094D01*
X107504509Y-121426514D01*
X107545234Y-121433926D01*
X107573168Y-121458330D01*
X107589983Y-121502980D01*
X107597350Y-121571130D01*
X107598029Y-121608603D01*
X107737528Y-121608603D01*
X107737292Y-121595245D01*
X107735323Y-121530333D01*
X107732550Y-121482958D01*
X107728612Y-121449290D01*
X107723151Y-121425498D01*
X107715808Y-121407753D01*
X107706223Y-121392224D01*
X107702113Y-121386381D01*
X107647595Y-121331185D01*
X107578664Y-121299890D01*
X107498928Y-121291165D01*
X107429256Y-121299918D01*
G37*
X107429256Y-121299918D02*
X107373799Y-121327568D01*
X107324852Y-121378480D01*
X107311371Y-121397338D01*
X107296686Y-121422015D01*
X107287158Y-121448816D01*
X107281707Y-121484587D01*
X107279253Y-121536169D01*
X107278714Y-121604267D01*
X107281148Y-121697588D01*
X107289606Y-121767657D01*
X107305826Y-121819931D01*
X107331546Y-121859869D01*
X107368503Y-121892929D01*
X107371218Y-121894886D01*
X107407640Y-121914908D01*
X107451498Y-121924815D01*
X107507276Y-121927257D01*
X107597952Y-121927257D01*
X107597990Y-122015283D01*
X107598834Y-122064308D01*
X107603976Y-122093065D01*
X107617413Y-122110311D01*
X107643142Y-122124808D01*
X107649321Y-122127769D01*
X107678236Y-122141648D01*
X107700624Y-122150414D01*
X107717271Y-122151171D01*
X107728964Y-122141023D01*
X107736490Y-122117073D01*
X107740634Y-122076426D01*
X107742185Y-122016186D01*
X107741929Y-121933455D01*
X107740651Y-121825339D01*
X107740252Y-121793000D01*
X107738815Y-121681524D01*
X107737528Y-121608603D01*
X107598029Y-121608603D01*
X107597245Y-121670499D01*
X107593760Y-121710997D01*
X107585876Y-121737708D01*
X107571895Y-121758244D01*
X107562403Y-121768260D01*
X107523596Y-121797567D01*
X107489237Y-121799952D01*
X107453784Y-121775750D01*
X107452886Y-121774857D01*
X107438461Y-121756153D01*
X107429687Y-121730732D01*
X107425261Y-121691584D01*
X107423882Y-121631697D01*
X107423857Y-121618430D01*
X107427188Y-121535901D01*
X107438031Y-121478691D01*
X107457660Y-121443766D01*
X107487350Y-121428094D01*
X107504509Y-121426514D01*
X107545234Y-121433926D01*
X107573168Y-121458330D01*
X107589983Y-121502980D01*
X107597350Y-121571130D01*
X107598029Y-121608603D01*
X107737528Y-121608603D01*
X107737292Y-121595245D01*
X107735323Y-121530333D01*
X107732550Y-121482958D01*
X107728612Y-121449290D01*
X107723151Y-121425498D01*
X107715808Y-121407753D01*
X107706223Y-121392224D01*
X107702113Y-121386381D01*
X107647595Y-121331185D01*
X107578664Y-121299890D01*
X107498928Y-121291165D01*
X107429256Y-121299918D01*
D13*
%TO.C,J3*%
X152400000Y-104140000D02*
X102870000Y-104140000D01*
X152400000Y-132080000D02*
X102870000Y-132080000D01*
X102870000Y-104140000D02*
X102870000Y-132080000D01*
X99060000Y-114300000D02*
X102870000Y-114300000D01*
X99060000Y-130810000D02*
X99060000Y-114300000D01*
X102870000Y-130810000D02*
X99060000Y-130810000D01*
X152400000Y-104140000D02*
X152400000Y-132080000D01*
D14*
%TO.C,U1*%
X143910000Y-127226000D02*
X143910000Y-111026000D01*
X143910000Y-111026000D02*
X143510000Y-111026000D01*
X128110000Y-127226000D02*
X127710000Y-127226000D01*
X127710000Y-127226000D02*
X127710000Y-111026000D01*
X127710000Y-111026000D02*
X128110000Y-111026000D01*
X143910000Y-127226000D02*
X143560000Y-127226000D01*
X143560000Y-127226000D02*
X143560000Y-128126000D01*
%TO.C,JP2*%
X146041000Y-113169000D02*
X146041000Y-111969000D01*
X144281000Y-111969000D02*
X144281000Y-113169000D01*
%TO.C,JP1*%
X143936000Y-104784000D02*
X142736000Y-104784000D01*
X142736000Y-106544000D02*
X143936000Y-106544000D01*
%TO.C,U1*%
D13*
X144462380Y-118364095D02*
X145271904Y-118364095D01*
X145367142Y-118411714D01*
X145414761Y-118459333D01*
X145462380Y-118554571D01*
X145462380Y-118745047D01*
X145414761Y-118840285D01*
X145367142Y-118887904D01*
X145271904Y-118935523D01*
X144462380Y-118935523D01*
X145462380Y-119935523D02*
X145462380Y-119364095D01*
X145462380Y-119649809D02*
X144462380Y-119649809D01*
X144605238Y-119554571D01*
X144700476Y-119459333D01*
X144748095Y-119364095D01*
%TO.C,JP2*%
X142913380Y-111735666D02*
X143627666Y-111735666D01*
X143770523Y-111688047D01*
X143865761Y-111592809D01*
X143913380Y-111449952D01*
X143913380Y-111354714D01*
X143913380Y-112211857D02*
X142913380Y-112211857D01*
X142913380Y-112592809D01*
X142961000Y-112688047D01*
X143008619Y-112735666D01*
X143103857Y-112783285D01*
X143246714Y-112783285D01*
X143341952Y-112735666D01*
X143389571Y-112688047D01*
X143437190Y-112592809D01*
X143437190Y-112211857D01*
X143008619Y-113164238D02*
X142961000Y-113211857D01*
X142913380Y-113307095D01*
X142913380Y-113545190D01*
X142961000Y-113640428D01*
X143008619Y-113688047D01*
X143103857Y-113735666D01*
X143199095Y-113735666D01*
X143341952Y-113688047D01*
X143913380Y-113116619D01*
X143913380Y-113735666D01*
%TO.C,JP1*%
X144169333Y-106816380D02*
X144169333Y-107530666D01*
X144216952Y-107673523D01*
X144312190Y-107768761D01*
X144455047Y-107816380D01*
X144550285Y-107816380D01*
X143693142Y-107816380D02*
X143693142Y-106816380D01*
X143312190Y-106816380D01*
X143216952Y-106864000D01*
X143169333Y-106911619D01*
X143121714Y-107006857D01*
X143121714Y-107149714D01*
X143169333Y-107244952D01*
X143216952Y-107292571D01*
X143312190Y-107340190D01*
X143693142Y-107340190D01*
X142169333Y-107816380D02*
X142740761Y-107816380D01*
X142455047Y-107816380D02*
X142455047Y-106816380D01*
X142550285Y-106959238D01*
X142645523Y-107054476D01*
X142740761Y-107102095D01*
%TD*%
M02*
