%TF.GenerationSoftware,KiCad,Pcbnew,5.1.7-a382d34a8~87~ubuntu20.04.1*%
%TF.CreationDate,2021-02-22T15:40:43+01:00*%
%TF.ProjectId,smartyreader_ng_lora,736d6172-7479-4726-9561-6465725f6e67,rev?*%
%TF.SameCoordinates,Original*%
%TF.FileFunction,Other,Fab,Bot*%
%FSLAX46Y46*%
G04 Gerber Fmt 4.6, Leading zero omitted, Abs format (unit mm)*
G04 Created by KiCad (PCBNEW 5.1.7-a382d34a8~87~ubuntu20.04.1) date 2021-02-22 15:40:43*
%MOMM*%
%LPD*%
G01*
G04 APERTURE LIST*
%ADD10C,0.100000*%
%ADD11C,0.150000*%
G04 APERTURE END LIST*
D10*
%TO.C,U1*%
X143810000Y-126126000D02*
X143810000Y-111126000D01*
X127810000Y-111126000D02*
X143810000Y-111126000D01*
X127810000Y-127126000D02*
X127810000Y-111126000D01*
X127810000Y-127126000D02*
X142810000Y-127126000D01*
X143810000Y-126126000D02*
X142810000Y-127126000D01*
%TO.C,JP2*%
X145781000Y-111569000D02*
X144541000Y-111569000D01*
X145781000Y-113569000D02*
X145781000Y-111569000D01*
X144541000Y-113569000D02*
X145781000Y-113569000D01*
X144541000Y-111569000D02*
X144541000Y-113569000D01*
%TO.C,JP1*%
X142336000Y-105044000D02*
X142336000Y-106284000D01*
X144336000Y-105044000D02*
X142336000Y-105044000D01*
X144336000Y-106284000D02*
X144336000Y-105044000D01*
X142336000Y-106284000D02*
X144336000Y-106284000D01*
%TD*%
%TO.C,U1*%
D11*
X126762380Y-116911714D02*
X126286190Y-116578380D01*
X126762380Y-116340285D02*
X125762380Y-116340285D01*
X125762380Y-116721238D01*
X125810000Y-116816476D01*
X125857619Y-116864095D01*
X125952857Y-116911714D01*
X126095714Y-116911714D01*
X126190952Y-116864095D01*
X126238571Y-116816476D01*
X126286190Y-116721238D01*
X126286190Y-116340285D01*
X126238571Y-117673619D02*
X126238571Y-117340285D01*
X126762380Y-117340285D02*
X125762380Y-117340285D01*
X125762380Y-117816476D01*
X126762380Y-118197428D02*
X125762380Y-118197428D01*
X126476666Y-118530761D01*
X125762380Y-118864095D01*
X126762380Y-118864095D01*
X126762380Y-119387904D02*
X126762380Y-119578380D01*
X126714761Y-119673619D01*
X126667142Y-119721238D01*
X126524285Y-119816476D01*
X126333809Y-119864095D01*
X125952857Y-119864095D01*
X125857619Y-119816476D01*
X125810000Y-119768857D01*
X125762380Y-119673619D01*
X125762380Y-119483142D01*
X125810000Y-119387904D01*
X125857619Y-119340285D01*
X125952857Y-119292666D01*
X126190952Y-119292666D01*
X126286190Y-119340285D01*
X126333809Y-119387904D01*
X126381428Y-119483142D01*
X126381428Y-119673619D01*
X126333809Y-119768857D01*
X126286190Y-119816476D01*
X126190952Y-119864095D01*
X125762380Y-120768857D02*
X125762380Y-120292666D01*
X126238571Y-120245047D01*
X126190952Y-120292666D01*
X126143333Y-120387904D01*
X126143333Y-120626000D01*
X126190952Y-120721238D01*
X126238571Y-120768857D01*
X126333809Y-120816476D01*
X126571904Y-120816476D01*
X126667142Y-120768857D01*
X126714761Y-120721238D01*
X126762380Y-120626000D01*
X126762380Y-120387904D01*
X126714761Y-120292666D01*
X126667142Y-120245047D01*
X125762380Y-121149809D02*
X126762380Y-121387904D01*
X126048095Y-121578380D01*
X126762380Y-121768857D01*
X125762380Y-122006952D01*
X135262380Y-118364095D02*
X136071904Y-118364095D01*
X136167142Y-118411714D01*
X136214761Y-118459333D01*
X136262380Y-118554571D01*
X136262380Y-118745047D01*
X136214761Y-118840285D01*
X136167142Y-118887904D01*
X136071904Y-118935523D01*
X135262380Y-118935523D01*
X136262380Y-119935523D02*
X136262380Y-119364095D01*
X136262380Y-119649809D02*
X135262380Y-119649809D01*
X135405238Y-119554571D01*
X135500476Y-119459333D01*
X135548095Y-119364095D01*
%TO.C,JP2*%
X147363380Y-109426142D02*
X146363380Y-109426142D01*
X147363380Y-110473761D02*
X146887190Y-110140428D01*
X147363380Y-109902333D02*
X146363380Y-109902333D01*
X146363380Y-110283285D01*
X146411000Y-110378523D01*
X146458619Y-110426142D01*
X146553857Y-110473761D01*
X146696714Y-110473761D01*
X146791952Y-110426142D01*
X146839571Y-110378523D01*
X146887190Y-110283285D01*
X146887190Y-109902333D01*
X147458619Y-111569000D02*
X147411000Y-111473761D01*
X147315761Y-111378523D01*
X147172904Y-111235666D01*
X147125285Y-111140428D01*
X147125285Y-111045190D01*
X147363380Y-111092809D02*
X147315761Y-110997571D01*
X147220523Y-110902333D01*
X147030047Y-110854714D01*
X146696714Y-110854714D01*
X146506238Y-110902333D01*
X146411000Y-110997571D01*
X146363380Y-111092809D01*
X146363380Y-111283285D01*
X146411000Y-111378523D01*
X146506238Y-111473761D01*
X146696714Y-111521380D01*
X147030047Y-111521380D01*
X147220523Y-111473761D01*
X147315761Y-111378523D01*
X147363380Y-111283285D01*
X147363380Y-111092809D01*
X147458619Y-111711857D02*
X147458619Y-112473761D01*
X147363380Y-112711857D02*
X146363380Y-112711857D01*
X146363380Y-112949952D01*
X146411000Y-113092809D01*
X146506238Y-113188047D01*
X146601476Y-113235666D01*
X146791952Y-113283285D01*
X146934809Y-113283285D01*
X147125285Y-113235666D01*
X147220523Y-113188047D01*
X147315761Y-113092809D01*
X147363380Y-112949952D01*
X147363380Y-112711857D01*
X147363380Y-113711857D02*
X146363380Y-113711857D01*
X146363380Y-114378523D02*
X146363380Y-114569000D01*
X146411000Y-114664238D01*
X146506238Y-114759476D01*
X146696714Y-114807095D01*
X147030047Y-114807095D01*
X147220523Y-114759476D01*
X147315761Y-114664238D01*
X147363380Y-114569000D01*
X147363380Y-114378523D01*
X147315761Y-114283285D01*
X147220523Y-114188047D01*
X147030047Y-114140428D01*
X146696714Y-114140428D01*
X146506238Y-114188047D01*
X146411000Y-114283285D01*
X146363380Y-114378523D01*
X147363380Y-115759476D02*
X147363380Y-115188047D01*
X147363380Y-115473761D02*
X146363380Y-115473761D01*
X146506238Y-115378523D01*
X146601476Y-115283285D01*
X146649095Y-115188047D01*
X142913380Y-111735666D02*
X143627666Y-111735666D01*
X143770523Y-111688047D01*
X143865761Y-111592809D01*
X143913380Y-111449952D01*
X143913380Y-111354714D01*
X143913380Y-112211857D02*
X142913380Y-112211857D01*
X142913380Y-112592809D01*
X142961000Y-112688047D01*
X143008619Y-112735666D01*
X143103857Y-112783285D01*
X143246714Y-112783285D01*
X143341952Y-112735666D01*
X143389571Y-112688047D01*
X143437190Y-112592809D01*
X143437190Y-112211857D01*
X143008619Y-113164238D02*
X142961000Y-113211857D01*
X142913380Y-113307095D01*
X142913380Y-113545190D01*
X142961000Y-113640428D01*
X143008619Y-113688047D01*
X143103857Y-113735666D01*
X143199095Y-113735666D01*
X143341952Y-113688047D01*
X143913380Y-113116619D01*
X143913380Y-113735666D01*
%TO.C,JP1*%
X144788380Y-104366380D02*
X145121714Y-103890190D01*
X145359809Y-104366380D02*
X145359809Y-103366380D01*
X144978857Y-103366380D01*
X144883619Y-103414000D01*
X144836000Y-103461619D01*
X144788380Y-103556857D01*
X144788380Y-103699714D01*
X144836000Y-103794952D01*
X144883619Y-103842571D01*
X144978857Y-103890190D01*
X145359809Y-103890190D01*
X144359809Y-103842571D02*
X144026476Y-103842571D01*
X143883619Y-104366380D02*
X144359809Y-104366380D01*
X144359809Y-103366380D01*
X143883619Y-103366380D01*
X143502666Y-104318761D02*
X143359809Y-104366380D01*
X143121714Y-104366380D01*
X143026476Y-104318761D01*
X142978857Y-104271142D01*
X142931238Y-104175904D01*
X142931238Y-104080666D01*
X142978857Y-103985428D01*
X143026476Y-103937809D01*
X143121714Y-103890190D01*
X143312190Y-103842571D01*
X143407428Y-103794952D01*
X143455047Y-103747333D01*
X143502666Y-103652095D01*
X143502666Y-103556857D01*
X143455047Y-103461619D01*
X143407428Y-103414000D01*
X143312190Y-103366380D01*
X143074095Y-103366380D01*
X142931238Y-103414000D01*
X142502666Y-103842571D02*
X142169333Y-103842571D01*
X142026476Y-104366380D02*
X142502666Y-104366380D01*
X142502666Y-103366380D01*
X142026476Y-103366380D01*
X141740761Y-103366380D02*
X141169333Y-103366380D01*
X141455047Y-104366380D02*
X141455047Y-103366380D01*
X144169333Y-106816380D02*
X144169333Y-107530666D01*
X144216952Y-107673523D01*
X144312190Y-107768761D01*
X144455047Y-107816380D01*
X144550285Y-107816380D01*
X143693142Y-107816380D02*
X143693142Y-106816380D01*
X143312190Y-106816380D01*
X143216952Y-106864000D01*
X143169333Y-106911619D01*
X143121714Y-107006857D01*
X143121714Y-107149714D01*
X143169333Y-107244952D01*
X143216952Y-107292571D01*
X143312190Y-107340190D01*
X143693142Y-107340190D01*
X142169333Y-107816380D02*
X142740761Y-107816380D01*
X142455047Y-107816380D02*
X142455047Y-106816380D01*
X142550285Y-106959238D01*
X142645523Y-107054476D01*
X142740761Y-107102095D01*
%TD*%
M02*
