M48
; DRILL file {KiCad 5.1.9+dfsg1-1} date Sat May 22 16:02:56 2021
; FORMAT={-:-/ absolute / inch / decimal}
; #@! TF.CreationDate,2021-05-22T16:02:56+02:00
; #@! TF.GenerationSoftware,Kicad,Pcbnew,5.1.9+dfsg1-1
; #@! TF.FileFunction,Plated,1,2,PTH
FMAT,2
INCH
T1C0.0315
T2C0.0319
T3C0.0320
T4C0.0394
T5C0.0400
T6C0.1181
T7C0.1181
%
G90
G05
T1
X4.745Y-4.45
X4.86Y-4.78
X4.975Y-4.375
X5.025Y-4.4861
X5.385Y-4.55
X5.99Y-4.16
X5.99Y-4.535
X6.13Y-4.67
T2
X4.375Y-4.625
X4.375Y-4.725
X4.375Y-4.825
X4.475Y-4.575
X4.475Y-4.675
X4.475Y-4.775
T3
X4.05Y-5.165
X4.15Y-5.165
X4.335Y-5.155
X4.35Y-4.25
X4.435Y-5.155
X4.45Y-4.25
X4.55Y-4.25
X4.6Y-5.15
X4.645Y-4.38
X4.645Y-4.78
X4.65Y-4.25
X4.7Y-5.15
X4.745Y-4.85
X4.745Y-4.95
X4.885Y-5.15
X4.985Y-5.15
X5.15Y-4.25
X5.15Y-5.15
X5.25Y-4.25
X5.25Y-5.15
X5.35Y-4.25
X5.35Y-5.15
X5.45Y-4.25
X5.45Y-5.15
X5.55Y-4.25
X5.55Y-5.15
X5.65Y-4.25
X5.65Y-5.15
X5.75Y-4.25
X5.75Y-5.15
X5.85Y-4.25
X5.85Y-5.15
T4
X4.975Y-4.27
T5
X5.75Y-4.6
X5.75Y-4.7
X5.75Y-4.8
X5.75Y-4.9
X5.75Y-5.0
X5.85Y-4.6
X5.85Y-4.7
X5.85Y-4.8
X5.85Y-4.9
X5.85Y-5.0
T6
X4.1Y-4.25
X6.05Y-5.15
T7
X4.125Y-4.5
X4.125Y-4.9
T0
M30
