%TF.GenerationSoftware,KiCad,Pcbnew,6.0.2+dfsg-1*%
%TF.CreationDate,2022-10-03T17:06:02+02:00*%
%TF.ProjectId,smartyreader_ng_lora,736d6172-7479-4726-9561-6465725f6e67,rev?*%
%TF.SameCoordinates,Original*%
%TF.FileFunction,Legend,Bot*%
%TF.FilePolarity,Positive*%
%FSLAX46Y46*%
G04 Gerber Fmt 4.6, Leading zero omitted, Abs format (unit mm)*
G04 Created by KiCad (PCBNEW 6.0.2+dfsg-1) date 2022-10-03 17:06:02*
%MOMM*%
%LPD*%
G01*
G04 APERTURE LIST*
%ADD10C,0.250000*%
%ADD11C,0.300000*%
%ADD12C,0.150000*%
%ADD13C,0.381000*%
%ADD14C,0.120000*%
%ADD15C,0.010000*%
%ADD16R,1.998980X1.998980*%
%ADD17C,1.998980*%
G04 APERTURE END LIST*
D10*
X116577476Y-125667761D02*
X116482238Y-125715380D01*
X116291761Y-125715380D01*
X116196523Y-125667761D01*
X116148904Y-125572523D01*
X116148904Y-125524904D01*
X116196523Y-125429666D01*
X116291761Y-125382047D01*
X116434619Y-125382047D01*
X116529857Y-125334428D01*
X116577476Y-125239190D01*
X116577476Y-125191571D01*
X116529857Y-125096333D01*
X116434619Y-125048714D01*
X116291761Y-125048714D01*
X116196523Y-125096333D01*
X115720333Y-125715380D02*
X115720333Y-125048714D01*
X115720333Y-125143952D02*
X115672714Y-125096333D01*
X115577476Y-125048714D01*
X115434619Y-125048714D01*
X115339380Y-125096333D01*
X115291761Y-125191571D01*
X115291761Y-125715380D01*
X115291761Y-125191571D02*
X115244142Y-125096333D01*
X115148904Y-125048714D01*
X115006047Y-125048714D01*
X114910809Y-125096333D01*
X114863190Y-125191571D01*
X114863190Y-125715380D01*
X113958428Y-125715380D02*
X113958428Y-125191571D01*
X114006047Y-125096333D01*
X114101285Y-125048714D01*
X114291761Y-125048714D01*
X114387000Y-125096333D01*
X113958428Y-125667761D02*
X114053666Y-125715380D01*
X114291761Y-125715380D01*
X114387000Y-125667761D01*
X114434619Y-125572523D01*
X114434619Y-125477285D01*
X114387000Y-125382047D01*
X114291761Y-125334428D01*
X114053666Y-125334428D01*
X113958428Y-125286809D01*
X113482238Y-125715380D02*
X113482238Y-125048714D01*
X113482238Y-125239190D02*
X113434619Y-125143952D01*
X113387000Y-125096333D01*
X113291761Y-125048714D01*
X113196523Y-125048714D01*
X113006047Y-125048714D02*
X112625095Y-125048714D01*
X112863190Y-124715380D02*
X112863190Y-125572523D01*
X112815571Y-125667761D01*
X112720333Y-125715380D01*
X112625095Y-125715380D01*
X112386999Y-125048714D02*
X112148904Y-125715380D01*
X111910809Y-125048714D02*
X112148904Y-125715380D01*
X112244142Y-125953476D01*
X112291761Y-126001095D01*
X112386999Y-126048714D01*
X111529857Y-125715380D02*
X111529857Y-125048714D01*
X111529857Y-125239190D02*
X111482238Y-125143952D01*
X111434619Y-125096333D01*
X111339380Y-125048714D01*
X111244142Y-125048714D01*
X110529857Y-125667761D02*
X110625095Y-125715380D01*
X110815571Y-125715380D01*
X110910809Y-125667761D01*
X110958428Y-125572523D01*
X110958428Y-125191571D01*
X110910809Y-125096333D01*
X110815571Y-125048714D01*
X110625095Y-125048714D01*
X110529857Y-125096333D01*
X110482238Y-125191571D01*
X110482238Y-125286809D01*
X110958428Y-125382047D01*
X109625095Y-125715380D02*
X109625095Y-125191571D01*
X109672714Y-125096333D01*
X109767952Y-125048714D01*
X109958428Y-125048714D01*
X110053666Y-125096333D01*
X109625095Y-125667761D02*
X109720333Y-125715380D01*
X109958428Y-125715380D01*
X110053666Y-125667761D01*
X110101285Y-125572523D01*
X110101285Y-125477285D01*
X110053666Y-125382047D01*
X109958428Y-125334428D01*
X109720333Y-125334428D01*
X109625095Y-125286809D01*
X108720333Y-125715380D02*
X108720333Y-124715380D01*
X108720333Y-125667761D02*
X108815571Y-125715380D01*
X109006047Y-125715380D01*
X109101285Y-125667761D01*
X109148904Y-125620142D01*
X109196523Y-125524904D01*
X109196523Y-125239190D01*
X109148904Y-125143952D01*
X109101285Y-125096333D01*
X109006047Y-125048714D01*
X108815571Y-125048714D01*
X108720333Y-125096333D01*
X107863190Y-125667761D02*
X107958428Y-125715380D01*
X108148904Y-125715380D01*
X108244142Y-125667761D01*
X108291761Y-125572523D01*
X108291761Y-125191571D01*
X108244142Y-125096333D01*
X108148904Y-125048714D01*
X107958428Y-125048714D01*
X107863190Y-125096333D01*
X107815571Y-125191571D01*
X107815571Y-125286809D01*
X108291761Y-125382047D01*
X107386999Y-125715380D02*
X107386999Y-125048714D01*
X107386999Y-125239190D02*
X107339380Y-125143952D01*
X107291761Y-125096333D01*
X107196523Y-125048714D01*
X107101285Y-125048714D01*
X116744142Y-126658714D02*
X116506047Y-127325380D01*
X116267952Y-126658714D01*
X115887000Y-127230142D02*
X115839380Y-127277761D01*
X115887000Y-127325380D01*
X115934619Y-127277761D01*
X115887000Y-127230142D01*
X115887000Y-127325380D01*
X114696523Y-126420619D02*
X114648904Y-126373000D01*
X114553666Y-126325380D01*
X114315571Y-126325380D01*
X114220333Y-126373000D01*
X114172714Y-126420619D01*
X114125095Y-126515857D01*
X114125095Y-126611095D01*
X114172714Y-126753952D01*
X114744142Y-127325380D01*
X114125095Y-127325380D01*
X113696523Y-127230142D02*
X113648904Y-127277761D01*
X113696523Y-127325380D01*
X113744142Y-127277761D01*
X113696523Y-127230142D01*
X113696523Y-127325380D01*
X113267952Y-126420619D02*
X113220333Y-126373000D01*
X113125095Y-126325380D01*
X112887000Y-126325380D01*
X112791761Y-126373000D01*
X112744142Y-126420619D01*
X112696523Y-126515857D01*
X112696523Y-126611095D01*
X112744142Y-126753952D01*
X113315571Y-127325380D01*
X112696523Y-127325380D01*
X110982238Y-127325380D02*
X111553666Y-127325380D01*
X111267952Y-127325380D02*
X111267952Y-126325380D01*
X111363190Y-126468238D01*
X111458428Y-126563476D01*
X111553666Y-126611095D01*
X110363190Y-126325380D02*
X110267952Y-126325380D01*
X110172714Y-126373000D01*
X110125095Y-126420619D01*
X110077476Y-126515857D01*
X110029857Y-126706333D01*
X110029857Y-126944428D01*
X110077476Y-127134904D01*
X110125095Y-127230142D01*
X110172714Y-127277761D01*
X110267952Y-127325380D01*
X110363190Y-127325380D01*
X110458428Y-127277761D01*
X110506047Y-127230142D01*
X110553666Y-127134904D01*
X110601285Y-126944428D01*
X110601285Y-126706333D01*
X110553666Y-126515857D01*
X110506047Y-126420619D01*
X110458428Y-126373000D01*
X110363190Y-126325380D01*
X108887000Y-126277761D02*
X109744142Y-127563476D01*
X108601285Y-126420619D02*
X108553666Y-126373000D01*
X108458428Y-126325380D01*
X108220333Y-126325380D01*
X108125095Y-126373000D01*
X108077476Y-126420619D01*
X108029857Y-126515857D01*
X108029857Y-126611095D01*
X108077476Y-126753952D01*
X108648904Y-127325380D01*
X108029857Y-127325380D01*
X107648904Y-126420619D02*
X107601285Y-126373000D01*
X107506047Y-126325380D01*
X107267952Y-126325380D01*
X107172714Y-126373000D01*
X107125095Y-126420619D01*
X107077476Y-126515857D01*
X107077476Y-126611095D01*
X107125095Y-126753952D01*
X107696523Y-127325380D01*
X107077476Y-127325380D01*
X115910809Y-128935380D02*
X115910809Y-127935380D01*
X115910809Y-128316333D02*
X115815571Y-128268714D01*
X115625095Y-128268714D01*
X115529857Y-128316333D01*
X115482238Y-128363952D01*
X115434619Y-128459190D01*
X115434619Y-128744904D01*
X115482238Y-128840142D01*
X115529857Y-128887761D01*
X115625095Y-128935380D01*
X115815571Y-128935380D01*
X115910809Y-128887761D01*
X115101285Y-128268714D02*
X114863190Y-128935380D01*
X114625095Y-128268714D02*
X114863190Y-128935380D01*
X114958428Y-129173476D01*
X115006047Y-129221095D01*
X115101285Y-129268714D01*
X113577476Y-128268714D02*
X113387000Y-128935380D01*
X113196523Y-128459190D01*
X113006047Y-128935380D01*
X112815571Y-128268714D01*
X112053666Y-128887761D02*
X112148904Y-128935380D01*
X112339380Y-128935380D01*
X112434619Y-128887761D01*
X112482238Y-128792523D01*
X112482238Y-128411571D01*
X112434619Y-128316333D01*
X112339380Y-128268714D01*
X112148904Y-128268714D01*
X112053666Y-128316333D01*
X112006047Y-128411571D01*
X112006047Y-128506809D01*
X112482238Y-128602047D01*
X111577476Y-128935380D02*
X111577476Y-128268714D01*
X111577476Y-127935380D02*
X111625095Y-127983000D01*
X111577476Y-128030619D01*
X111529857Y-127983000D01*
X111577476Y-127935380D01*
X111577476Y-128030619D01*
X110672714Y-128268714D02*
X110672714Y-129078238D01*
X110720333Y-129173476D01*
X110767952Y-129221095D01*
X110863190Y-129268714D01*
X111006047Y-129268714D01*
X111101285Y-129221095D01*
X110672714Y-128887761D02*
X110767952Y-128935380D01*
X110958428Y-128935380D01*
X111053666Y-128887761D01*
X111101285Y-128840142D01*
X111148904Y-128744904D01*
X111148904Y-128459190D01*
X111101285Y-128363952D01*
X111053666Y-128316333D01*
X110958428Y-128268714D01*
X110767952Y-128268714D01*
X110672714Y-128316333D01*
X109767952Y-128268714D02*
X109767952Y-128935380D01*
X110196523Y-128268714D02*
X110196523Y-128792523D01*
X110148904Y-128887761D01*
X110053666Y-128935380D01*
X109910809Y-128935380D01*
X109815571Y-128887761D01*
X109767952Y-128840142D01*
X109291761Y-128840142D02*
X109244142Y-128887761D01*
X109291761Y-128935380D01*
X109339380Y-128887761D01*
X109291761Y-128840142D01*
X109291761Y-128935380D01*
X108672714Y-128935380D02*
X108767952Y-128887761D01*
X108815571Y-128792523D01*
X108815571Y-127935380D01*
X107863190Y-128268714D02*
X107863190Y-128935380D01*
X108291761Y-128268714D02*
X108291761Y-128792523D01*
X108244142Y-128887761D01*
X108148904Y-128935380D01*
X108006047Y-128935380D01*
X107910809Y-128887761D01*
X107863190Y-128840142D01*
X124869380Y-122579142D02*
X123869380Y-122579142D01*
X124821761Y-122579142D02*
X124869380Y-122483904D01*
X124869380Y-122293428D01*
X124821761Y-122198190D01*
X124774142Y-122150571D01*
X124678904Y-122102952D01*
X124393190Y-122102952D01*
X124297952Y-122150571D01*
X124250333Y-122198190D01*
X124202714Y-122293428D01*
X124202714Y-122483904D01*
X124250333Y-122579142D01*
X124821761Y-123436285D02*
X124869380Y-123341047D01*
X124869380Y-123150571D01*
X124821761Y-123055333D01*
X124726523Y-123007714D01*
X124345571Y-123007714D01*
X124250333Y-123055333D01*
X124202714Y-123150571D01*
X124202714Y-123341047D01*
X124250333Y-123436285D01*
X124345571Y-123483904D01*
X124440809Y-123483904D01*
X124536047Y-123007714D01*
X124821761Y-123864857D02*
X124869380Y-123960095D01*
X124869380Y-124150571D01*
X124821761Y-124245809D01*
X124726523Y-124293428D01*
X124678904Y-124293428D01*
X124583666Y-124245809D01*
X124536047Y-124150571D01*
X124536047Y-124007714D01*
X124488428Y-123912476D01*
X124393190Y-123864857D01*
X124345571Y-123864857D01*
X124250333Y-123912476D01*
X124202714Y-124007714D01*
X124202714Y-124150571D01*
X124250333Y-124245809D01*
X124869380Y-124722000D02*
X124202714Y-124722000D01*
X123869380Y-124722000D02*
X123917000Y-124674380D01*
X123964619Y-124722000D01*
X123917000Y-124769619D01*
X123869380Y-124722000D01*
X123964619Y-124722000D01*
X124202714Y-125626761D02*
X125012238Y-125626761D01*
X125107476Y-125579142D01*
X125155095Y-125531523D01*
X125202714Y-125436285D01*
X125202714Y-125293428D01*
X125155095Y-125198190D01*
X124821761Y-125626761D02*
X124869380Y-125531523D01*
X124869380Y-125341047D01*
X124821761Y-125245809D01*
X124774142Y-125198190D01*
X124678904Y-125150571D01*
X124393190Y-125150571D01*
X124297952Y-125198190D01*
X124250333Y-125245809D01*
X124202714Y-125341047D01*
X124202714Y-125531523D01*
X124250333Y-125626761D01*
X124202714Y-126102952D02*
X124869380Y-126102952D01*
X124297952Y-126102952D02*
X124250333Y-126150571D01*
X124202714Y-126245809D01*
X124202714Y-126388666D01*
X124250333Y-126483904D01*
X124345571Y-126531523D01*
X124869380Y-126531523D01*
X124821761Y-127388666D02*
X124869380Y-127293428D01*
X124869380Y-127102952D01*
X124821761Y-127007714D01*
X124726523Y-126960095D01*
X124345571Y-126960095D01*
X124250333Y-127007714D01*
X124202714Y-127102952D01*
X124202714Y-127293428D01*
X124250333Y-127388666D01*
X124345571Y-127436285D01*
X124440809Y-127436285D01*
X124536047Y-126960095D01*
X124869380Y-128293428D02*
X123869380Y-128293428D01*
X124821761Y-128293428D02*
X124869380Y-128198190D01*
X124869380Y-128007714D01*
X124821761Y-127912476D01*
X124774142Y-127864857D01*
X124678904Y-127817238D01*
X124393190Y-127817238D01*
X124297952Y-127864857D01*
X124250333Y-127912476D01*
X124202714Y-128007714D01*
X124202714Y-128198190D01*
X124250333Y-128293428D01*
X125812714Y-121507714D02*
X126479380Y-121698190D01*
X126003190Y-121888666D01*
X126479380Y-122079142D01*
X125812714Y-122269619D01*
X126479380Y-122650571D02*
X125812714Y-122650571D01*
X125479380Y-122650571D02*
X125527000Y-122602952D01*
X125574619Y-122650571D01*
X125527000Y-122698190D01*
X125479380Y-122650571D01*
X125574619Y-122650571D01*
X125812714Y-122983904D02*
X125812714Y-123364857D01*
X125479380Y-123126761D02*
X126336523Y-123126761D01*
X126431761Y-123174380D01*
X126479380Y-123269619D01*
X126479380Y-123364857D01*
X126479380Y-123698190D02*
X125479380Y-123698190D01*
X126479380Y-124126761D02*
X125955571Y-124126761D01*
X125860333Y-124079142D01*
X125812714Y-123983904D01*
X125812714Y-123841047D01*
X125860333Y-123745809D01*
X125907952Y-123698190D01*
X126479380Y-125364857D02*
X125479380Y-125364857D01*
X126098428Y-125460095D02*
X126479380Y-125745809D01*
X125812714Y-125745809D02*
X126193666Y-125364857D01*
X126479380Y-126174380D02*
X125812714Y-126174380D01*
X125479380Y-126174380D02*
X125527000Y-126126761D01*
X125574619Y-126174380D01*
X125527000Y-126222000D01*
X125479380Y-126174380D01*
X125574619Y-126174380D01*
X126431761Y-127079142D02*
X126479380Y-126983904D01*
X126479380Y-126793428D01*
X126431761Y-126698190D01*
X126384142Y-126650571D01*
X126288904Y-126602952D01*
X126003190Y-126602952D01*
X125907952Y-126650571D01*
X125860333Y-126698190D01*
X125812714Y-126793428D01*
X125812714Y-126983904D01*
X125860333Y-127079142D01*
X126479380Y-127936285D02*
X125955571Y-127936285D01*
X125860333Y-127888666D01*
X125812714Y-127793428D01*
X125812714Y-127602952D01*
X125860333Y-127507714D01*
X126431761Y-127936285D02*
X126479380Y-127841047D01*
X126479380Y-127602952D01*
X126431761Y-127507714D01*
X126336523Y-127460095D01*
X126241285Y-127460095D01*
X126146047Y-127507714D01*
X126098428Y-127602952D01*
X126098428Y-127841047D01*
X126050809Y-127936285D01*
X126479380Y-128841047D02*
X125479380Y-128841047D01*
X126431761Y-128841047D02*
X126479380Y-128745809D01*
X126479380Y-128555333D01*
X126431761Y-128460095D01*
X126384142Y-128412476D01*
X126288904Y-128364857D01*
X126003190Y-128364857D01*
X125907952Y-128412476D01*
X125860333Y-128460095D01*
X125812714Y-128555333D01*
X125812714Y-128745809D01*
X125860333Y-128841047D01*
X151258380Y-120602666D02*
X152258380Y-120840761D01*
X151544095Y-121031238D01*
X152258380Y-121221714D01*
X151258380Y-121459809D01*
X151258380Y-122316952D02*
X151258380Y-121840761D01*
X151734571Y-121793142D01*
X151686952Y-121840761D01*
X151639333Y-121936000D01*
X151639333Y-122174095D01*
X151686952Y-122269333D01*
X151734571Y-122316952D01*
X151829809Y-122364571D01*
X152067904Y-122364571D01*
X152163142Y-122316952D01*
X152210761Y-122269333D01*
X152258380Y-122174095D01*
X152258380Y-121936000D01*
X152210761Y-121840761D01*
X152163142Y-121793142D01*
X151258380Y-123269333D02*
X151258380Y-122793142D01*
X151734571Y-122745523D01*
X151686952Y-122793142D01*
X151639333Y-122888380D01*
X151639333Y-123126476D01*
X151686952Y-123221714D01*
X151734571Y-123269333D01*
X151829809Y-123316952D01*
X152067904Y-123316952D01*
X152163142Y-123269333D01*
X152210761Y-123221714D01*
X152258380Y-123126476D01*
X152258380Y-122888380D01*
X152210761Y-122793142D01*
X152163142Y-122745523D01*
X151258380Y-123936000D02*
X151258380Y-124031238D01*
X151306000Y-124126476D01*
X151353619Y-124174095D01*
X151448857Y-124221714D01*
X151639333Y-124269333D01*
X151877428Y-124269333D01*
X152067904Y-124221714D01*
X152163142Y-124174095D01*
X152210761Y-124126476D01*
X152258380Y-124031238D01*
X152258380Y-123936000D01*
X152210761Y-123840761D01*
X152163142Y-123793142D01*
X152067904Y-123745523D01*
X151877428Y-123697904D01*
X151639333Y-123697904D01*
X151448857Y-123745523D01*
X151353619Y-123793142D01*
X151306000Y-123840761D01*
X151258380Y-123936000D01*
X151258380Y-124888380D02*
X151258380Y-124983619D01*
X151306000Y-125078857D01*
X151353619Y-125126476D01*
X151448857Y-125174095D01*
X151639333Y-125221714D01*
X151877428Y-125221714D01*
X152067904Y-125174095D01*
X152163142Y-125126476D01*
X152210761Y-125078857D01*
X152258380Y-124983619D01*
X152258380Y-124888380D01*
X152210761Y-124793142D01*
X152163142Y-124745523D01*
X152067904Y-124697904D01*
X151877428Y-124650285D01*
X151639333Y-124650285D01*
X151448857Y-124697904D01*
X151353619Y-124745523D01*
X151306000Y-124793142D01*
X151258380Y-124888380D01*
X153820761Y-120483619D02*
X153868380Y-120388380D01*
X153868380Y-120197904D01*
X153820761Y-120102666D01*
X153725523Y-120055047D01*
X153344571Y-120055047D01*
X153249333Y-120102666D01*
X153201714Y-120197904D01*
X153201714Y-120388380D01*
X153249333Y-120483619D01*
X153344571Y-120531238D01*
X153439809Y-120531238D01*
X153535047Y-120055047D01*
X153201714Y-120816952D02*
X153201714Y-121197904D01*
X152868380Y-120959809D02*
X153725523Y-120959809D01*
X153820761Y-121007428D01*
X153868380Y-121102666D01*
X153868380Y-121197904D01*
X153868380Y-121531238D02*
X152868380Y-121531238D01*
X153868380Y-121959809D02*
X153344571Y-121959809D01*
X153249333Y-121912190D01*
X153201714Y-121816952D01*
X153201714Y-121674095D01*
X153249333Y-121578857D01*
X153296952Y-121531238D01*
X153820761Y-122816952D02*
X153868380Y-122721714D01*
X153868380Y-122531238D01*
X153820761Y-122436000D01*
X153725523Y-122388380D01*
X153344571Y-122388380D01*
X153249333Y-122436000D01*
X153201714Y-122531238D01*
X153201714Y-122721714D01*
X153249333Y-122816952D01*
X153344571Y-122864571D01*
X153439809Y-122864571D01*
X153535047Y-122388380D01*
X153868380Y-123293142D02*
X153201714Y-123293142D01*
X153392190Y-123293142D02*
X153296952Y-123340761D01*
X153249333Y-123388380D01*
X153201714Y-123483619D01*
X153201714Y-123578857D01*
X153201714Y-123912190D02*
X153868380Y-123912190D01*
X153296952Y-123912190D02*
X153249333Y-123959809D01*
X153201714Y-124055047D01*
X153201714Y-124197904D01*
X153249333Y-124293142D01*
X153344571Y-124340761D01*
X153868380Y-124340761D01*
X153820761Y-125197904D02*
X153868380Y-125102666D01*
X153868380Y-124912190D01*
X153820761Y-124816952D01*
X153725523Y-124769333D01*
X153344571Y-124769333D01*
X153249333Y-124816952D01*
X153201714Y-124912190D01*
X153201714Y-125102666D01*
X153249333Y-125197904D01*
X153344571Y-125245523D01*
X153439809Y-125245523D01*
X153535047Y-124769333D01*
X153201714Y-125531238D02*
X153201714Y-125912190D01*
X152868380Y-125674095D02*
X153725523Y-125674095D01*
X153820761Y-125721714D01*
X153868380Y-125816952D01*
X153868380Y-125912190D01*
X155478380Y-121055047D02*
X154478380Y-121055047D01*
X154859333Y-121055047D02*
X154811714Y-121150285D01*
X154811714Y-121340761D01*
X154859333Y-121436000D01*
X154906952Y-121483619D01*
X155002190Y-121531238D01*
X155287904Y-121531238D01*
X155383142Y-121483619D01*
X155430761Y-121436000D01*
X155478380Y-121340761D01*
X155478380Y-121150285D01*
X155430761Y-121055047D01*
X155478380Y-122102666D02*
X155430761Y-122007428D01*
X155383142Y-121959809D01*
X155287904Y-121912190D01*
X155002190Y-121912190D01*
X154906952Y-121959809D01*
X154859333Y-122007428D01*
X154811714Y-122102666D01*
X154811714Y-122245523D01*
X154859333Y-122340761D01*
X154906952Y-122388380D01*
X155002190Y-122436000D01*
X155287904Y-122436000D01*
X155383142Y-122388380D01*
X155430761Y-122340761D01*
X155478380Y-122245523D01*
X155478380Y-122102666D01*
X155478380Y-123293142D02*
X154954571Y-123293142D01*
X154859333Y-123245523D01*
X154811714Y-123150285D01*
X154811714Y-122959809D01*
X154859333Y-122864571D01*
X155430761Y-123293142D02*
X155478380Y-123197904D01*
X155478380Y-122959809D01*
X155430761Y-122864571D01*
X155335523Y-122816952D01*
X155240285Y-122816952D01*
X155145047Y-122864571D01*
X155097428Y-122959809D01*
X155097428Y-123197904D01*
X155049809Y-123293142D01*
X155478380Y-123769333D02*
X154811714Y-123769333D01*
X155002190Y-123769333D02*
X154906952Y-123816952D01*
X154859333Y-123864571D01*
X154811714Y-123959809D01*
X154811714Y-124055047D01*
X155478380Y-124816952D02*
X154478380Y-124816952D01*
X155430761Y-124816952D02*
X155478380Y-124721714D01*
X155478380Y-124531238D01*
X155430761Y-124436000D01*
X155383142Y-124388380D01*
X155287904Y-124340761D01*
X155002190Y-124340761D01*
X154906952Y-124388380D01*
X154859333Y-124436000D01*
X154811714Y-124531238D01*
X154811714Y-124721714D01*
X154859333Y-124816952D01*
D11*
X155273428Y-119550571D02*
X156130571Y-119550571D01*
X155702000Y-119550571D02*
X155702000Y-118050571D01*
X155844857Y-118264857D01*
X155987714Y-118407714D01*
X156130571Y-118479142D01*
D12*
%TO.C,U1*%
X141184380Y-118364095D02*
X141993904Y-118364095D01*
X142089142Y-118411714D01*
X142136761Y-118459333D01*
X142184380Y-118554571D01*
X142184380Y-118745047D01*
X142136761Y-118840285D01*
X142089142Y-118887904D01*
X141993904Y-118935523D01*
X141184380Y-118935523D01*
X142184380Y-119935523D02*
X142184380Y-119364095D01*
X142184380Y-119649809D02*
X141184380Y-119649809D01*
X141327238Y-119554571D01*
X141422476Y-119459333D01*
X141470095Y-119364095D01*
%TO.C,D1*%
X146248380Y-122103904D02*
X145248380Y-122103904D01*
X145248380Y-122342000D01*
X145296000Y-122484857D01*
X145391238Y-122580095D01*
X145486476Y-122627714D01*
X145676952Y-122675333D01*
X145819809Y-122675333D01*
X146010285Y-122627714D01*
X146105523Y-122580095D01*
X146200761Y-122484857D01*
X146248380Y-122342000D01*
X146248380Y-122103904D01*
X146248380Y-123627714D02*
X146248380Y-123056285D01*
X146248380Y-123342000D02*
X145248380Y-123342000D01*
X145391238Y-123246761D01*
X145486476Y-123151523D01*
X145534095Y-123056285D01*
%TO.C,D2*%
X148788380Y-121943904D02*
X147788380Y-121943904D01*
X147788380Y-122182000D01*
X147836000Y-122324857D01*
X147931238Y-122420095D01*
X148026476Y-122467714D01*
X148216952Y-122515333D01*
X148359809Y-122515333D01*
X148550285Y-122467714D01*
X148645523Y-122420095D01*
X148740761Y-122324857D01*
X148788380Y-122182000D01*
X148788380Y-121943904D01*
X147883619Y-122896285D02*
X147836000Y-122943904D01*
X147788380Y-123039142D01*
X147788380Y-123277238D01*
X147836000Y-123372476D01*
X147883619Y-123420095D01*
X147978857Y-123467714D01*
X148074095Y-123467714D01*
X148216952Y-123420095D01*
X148788380Y-122848666D01*
X148788380Y-123467714D01*
D13*
%TO.C,J3*%
X97472500Y-127288500D02*
X101287500Y-127288500D01*
X101282500Y-133317500D02*
X101282500Y-105442500D01*
X156487500Y-105442500D02*
X101487500Y-105442500D01*
X97487500Y-111287500D02*
X97487500Y-127287500D01*
X156487500Y-133317500D02*
X101487500Y-133317500D01*
X156527500Y-133317500D02*
X156527500Y-105442500D01*
X97472500Y-111286500D02*
X101287500Y-111286500D01*
D14*
%TO.C,U1*%
X143910000Y-111026000D02*
X143510000Y-111026000D01*
X128110000Y-127226000D02*
X127710000Y-127226000D01*
X143560000Y-127226000D02*
X143560000Y-128126000D01*
X143910000Y-127226000D02*
X143910000Y-111026000D01*
X143910000Y-127226000D02*
X143560000Y-127226000D01*
X127710000Y-127226000D02*
X127710000Y-111026000D01*
X127710000Y-111026000D02*
X128110000Y-111026000D01*
%TO.C,D1*%
X144916000Y-118606000D02*
X144916000Y-119806000D01*
X146676000Y-119806000D02*
X146676000Y-118606000D01*
%TO.C,D2*%
X149216000Y-119726000D02*
X149216000Y-118526000D01*
X147456000Y-118526000D02*
X147456000Y-119726000D01*
D15*
%TO.C,LOGO?1*%
X123645188Y-119095822D02*
X123714346Y-119095822D01*
X123714346Y-119095822D02*
X123754488Y-119094645D01*
X123754488Y-119094645D02*
X123775394Y-119089772D01*
X123775394Y-119089772D02*
X123782922Y-119079186D01*
X123782922Y-119079186D02*
X123783505Y-119072029D01*
X123783505Y-119072029D02*
X123784774Y-119057676D01*
X123784774Y-119057676D02*
X123792779Y-119054923D01*
X123792779Y-119054923D02*
X123813815Y-119063771D01*
X123813815Y-119063771D02*
X123830173Y-119072029D01*
X123830173Y-119072029D02*
X123892977Y-119091597D01*
X123892977Y-119091597D02*
X123961248Y-119092729D01*
X123961248Y-119092729D02*
X124016752Y-119078135D01*
X124016752Y-119078135D02*
X124068438Y-119042877D01*
X124068438Y-119042877D02*
X124107838Y-118990835D01*
X124107838Y-118990835D02*
X124129413Y-118929450D01*
X124129413Y-118929450D02*
X124129962Y-118926018D01*
X124129962Y-118926018D02*
X124133167Y-118888571D01*
X124133167Y-118888571D02*
X124134761Y-118834813D01*
X124134761Y-118834813D02*
X124134633Y-118794155D01*
X124134633Y-118794155D02*
X123997279Y-118794155D01*
X123997279Y-118794155D02*
X123994097Y-118848194D01*
X123994097Y-118848194D02*
X123986859Y-118892735D01*
X123986859Y-118892735D02*
X123977060Y-118917888D01*
X123977060Y-118917888D02*
X123939989Y-118952260D01*
X123939989Y-118952260D02*
X123895974Y-118964582D01*
X123895974Y-118964582D02*
X123850584Y-118954618D01*
X123850584Y-118954618D02*
X123811797Y-118924895D01*
X123811797Y-118924895D02*
X123797108Y-118904905D01*
X123797108Y-118904905D02*
X123788519Y-118881050D01*
X123788519Y-118881050D02*
X123784496Y-118846230D01*
X123784496Y-118846230D02*
X123783505Y-118793930D01*
X123783505Y-118793930D02*
X123785278Y-118742139D01*
X123785278Y-118742139D02*
X123789963Y-118696634D01*
X123789963Y-118696634D02*
X123796603Y-118666181D01*
X123796603Y-118666181D02*
X123797710Y-118663452D01*
X123797710Y-118663452D02*
X123824491Y-118631000D01*
X123824491Y-118631000D02*
X123863579Y-118613183D01*
X123863579Y-118613183D02*
X123907315Y-118610306D01*
X123907315Y-118610306D02*
X123948038Y-118622674D01*
X123948038Y-118622674D02*
X123978087Y-118650593D01*
X123978087Y-118650593D02*
X123981204Y-118656148D01*
X123981204Y-118656148D02*
X123990961Y-118690022D01*
X123990961Y-118690022D02*
X123996277Y-118738728D01*
X123996277Y-118738728D02*
X123997279Y-118794155D01*
X123997279Y-118794155D02*
X124134633Y-118794155D01*
X124134633Y-118794155D02*
X124134568Y-118773540D01*
X124134568Y-118773540D02*
X124133664Y-118740563D01*
X124133664Y-118740563D02*
X124127514Y-118658981D01*
X124127514Y-118658981D02*
X124114733Y-118597730D01*
X124114733Y-118597730D02*
X124093471Y-118552449D01*
X124093471Y-118552449D02*
X124061878Y-118518779D01*
X124061878Y-118518779D02*
X124031207Y-118499014D01*
X124031207Y-118499014D02*
X123988354Y-118485120D01*
X123988354Y-118485120D02*
X123935056Y-118480354D01*
X123935056Y-118480354D02*
X123880480Y-118484236D01*
X123880480Y-118484236D02*
X123833792Y-118496282D01*
X123833792Y-118496282D02*
X123809124Y-118510693D01*
X123809124Y-118510693D02*
X123783505Y-118533878D01*
X123783505Y-118533878D02*
X123783505Y-118240773D01*
X123783505Y-118240773D02*
X123645188Y-118240773D01*
X123645188Y-118240773D02*
X123645188Y-119095822D01*
X123645188Y-119095822D02*
X123645188Y-119095822D01*
G36*
X124133167Y-118888571D02*
G01*
X124129962Y-118926018D01*
X124129413Y-118929450D01*
X124107838Y-118990835D01*
X124068438Y-119042877D01*
X124016752Y-119078135D01*
X123961248Y-119092729D01*
X123892977Y-119091597D01*
X123830173Y-119072029D01*
X123813815Y-119063771D01*
X123792779Y-119054923D01*
X123784774Y-119057676D01*
X123783505Y-119072029D01*
X123782922Y-119079186D01*
X123775394Y-119089772D01*
X123754488Y-119094645D01*
X123714346Y-119095822D01*
X123645188Y-119095822D01*
X123645188Y-118793930D01*
X123783505Y-118793930D01*
X123784496Y-118846230D01*
X123788519Y-118881050D01*
X123797108Y-118904905D01*
X123811797Y-118924895D01*
X123850584Y-118954618D01*
X123895974Y-118964582D01*
X123939989Y-118952260D01*
X123977060Y-118917888D01*
X123986859Y-118892735D01*
X123994097Y-118848194D01*
X123997279Y-118794155D01*
X123996277Y-118738728D01*
X123990961Y-118690022D01*
X123981204Y-118656148D01*
X123978087Y-118650593D01*
X123948038Y-118622674D01*
X123907315Y-118610306D01*
X123863579Y-118613183D01*
X123824491Y-118631000D01*
X123797710Y-118663452D01*
X123796603Y-118666181D01*
X123789963Y-118696634D01*
X123785278Y-118742139D01*
X123783505Y-118793930D01*
X123645188Y-118793930D01*
X123645188Y-118240773D01*
X123783505Y-118240773D01*
X123783505Y-118533878D01*
X123809124Y-118510693D01*
X123833792Y-118496282D01*
X123880480Y-118484236D01*
X123935056Y-118480354D01*
X123988354Y-118485120D01*
X124031207Y-118499014D01*
X124061878Y-118518779D01*
X124093471Y-118552449D01*
X124114733Y-118597730D01*
X124127514Y-118658981D01*
X124133664Y-118740563D01*
X124134568Y-118773540D01*
X124134633Y-118794155D01*
X124134761Y-118834813D01*
X124133167Y-118888571D01*
G37*
X124133167Y-118888571D02*
X124129962Y-118926018D01*
X124129413Y-118929450D01*
X124107838Y-118990835D01*
X124068438Y-119042877D01*
X124016752Y-119078135D01*
X123961248Y-119092729D01*
X123892977Y-119091597D01*
X123830173Y-119072029D01*
X123813815Y-119063771D01*
X123792779Y-119054923D01*
X123784774Y-119057676D01*
X123783505Y-119072029D01*
X123782922Y-119079186D01*
X123775394Y-119089772D01*
X123754488Y-119094645D01*
X123714346Y-119095822D01*
X123645188Y-119095822D01*
X123645188Y-118793930D01*
X123783505Y-118793930D01*
X123784496Y-118846230D01*
X123788519Y-118881050D01*
X123797108Y-118904905D01*
X123811797Y-118924895D01*
X123850584Y-118954618D01*
X123895974Y-118964582D01*
X123939989Y-118952260D01*
X123977060Y-118917888D01*
X123986859Y-118892735D01*
X123994097Y-118848194D01*
X123997279Y-118794155D01*
X123996277Y-118738728D01*
X123990961Y-118690022D01*
X123981204Y-118656148D01*
X123978087Y-118650593D01*
X123948038Y-118622674D01*
X123907315Y-118610306D01*
X123863579Y-118613183D01*
X123824491Y-118631000D01*
X123797710Y-118663452D01*
X123796603Y-118666181D01*
X123789963Y-118696634D01*
X123785278Y-118742139D01*
X123783505Y-118793930D01*
X123645188Y-118793930D01*
X123645188Y-118240773D01*
X123783505Y-118240773D01*
X123783505Y-118533878D01*
X123809124Y-118510693D01*
X123833792Y-118496282D01*
X123880480Y-118484236D01*
X123935056Y-118480354D01*
X123988354Y-118485120D01*
X124031207Y-118499014D01*
X124061878Y-118518779D01*
X124093471Y-118552449D01*
X124114733Y-118597730D01*
X124127514Y-118658981D01*
X124133664Y-118740563D01*
X124134568Y-118773540D01*
X124134633Y-118794155D01*
X124134761Y-118834813D01*
X124133167Y-118888571D01*
X124828210Y-118484555D02*
X124769055Y-118500339D01*
X124769055Y-118500339D02*
X124724023Y-118528948D01*
X124724023Y-118528948D02*
X124692246Y-118566419D01*
X124692246Y-118566419D02*
X124682366Y-118582411D01*
X124682366Y-118582411D02*
X124675073Y-118599163D01*
X124675073Y-118599163D02*
X124669974Y-118620592D01*
X124669974Y-118620592D02*
X124666679Y-118650616D01*
X124666679Y-118650616D02*
X124664797Y-118693154D01*
X124664797Y-118693154D02*
X124663937Y-118752122D01*
X124663937Y-118752122D02*
X124663707Y-118831440D01*
X124663707Y-118831440D02*
X124663703Y-118852484D01*
X124663703Y-118852484D02*
X124663703Y-119095822D01*
X124663703Y-119095822D02*
X124724059Y-119095822D01*
X124724059Y-119095822D02*
X124762557Y-119093126D01*
X124762557Y-119093126D02*
X124791023Y-119086295D01*
X124791023Y-119086295D02*
X124798155Y-119082083D01*
X124798155Y-119082083D02*
X124817652Y-119074813D01*
X124817652Y-119074813D02*
X124837566Y-119082083D01*
X124837566Y-119082083D02*
X124870353Y-119091160D01*
X124870353Y-119091160D02*
X124917978Y-119094813D01*
X124917978Y-119094813D02*
X124970764Y-119093228D01*
X124970764Y-119093228D02*
X125019036Y-119086589D01*
X125019036Y-119086589D02*
X125047218Y-119078072D01*
X125047218Y-119078072D02*
X125101753Y-119043063D01*
X125101753Y-119043063D02*
X125135835Y-118994479D01*
X125135835Y-118994479D02*
X125151157Y-118929882D01*
X125151157Y-118929882D02*
X125151299Y-118928223D01*
X125151299Y-118928223D02*
X125149955Y-118899566D01*
X125149955Y-118899566D02*
X125028356Y-118899566D01*
X125028356Y-118899566D02*
X125017726Y-118932161D01*
X125017726Y-118932161D02*
X125000410Y-118950505D01*
X125000410Y-118950505D02*
X124965652Y-118964379D01*
X124965652Y-118964379D02*
X124919773Y-118969917D01*
X124919773Y-118969917D02*
X124872988Y-118967191D01*
X124872988Y-118967191D02*
X124835514Y-118956274D01*
X124835514Y-118956274D02*
X124825015Y-118949269D01*
X124825015Y-118949269D02*
X124806668Y-118916904D01*
X124806668Y-118916904D02*
X124802020Y-118880111D01*
X124802020Y-118880111D02*
X124802020Y-118831763D01*
X124802020Y-118831763D02*
X124871582Y-118831763D01*
X124871582Y-118831763D02*
X124937667Y-118836850D01*
X124937667Y-118836850D02*
X124987764Y-118851263D01*
X124987764Y-118851263D02*
X125018929Y-118873729D01*
X125018929Y-118873729D02*
X125028356Y-118899566D01*
X125028356Y-118899566D02*
X125149955Y-118899566D01*
X125149955Y-118899566D02*
X125147987Y-118857647D01*
X125147987Y-118857647D02*
X125124710Y-118801845D01*
X125124710Y-118801845D02*
X125080948Y-118759647D01*
X125080948Y-118759647D02*
X125074899Y-118755808D01*
X125074899Y-118755808D02*
X125048907Y-118743309D01*
X125048907Y-118743309D02*
X125016735Y-118735740D01*
X125016735Y-118735740D02*
X124971760Y-118732061D01*
X124971760Y-118732061D02*
X124918331Y-118731216D01*
X124918331Y-118731216D02*
X124802020Y-118731169D01*
X124802020Y-118731169D02*
X124802020Y-118682411D01*
X124802020Y-118682411D02*
X124806953Y-118644581D01*
X124806953Y-118644581D02*
X124819543Y-118619236D01*
X124819543Y-118619236D02*
X124821017Y-118617887D01*
X124821017Y-118617887D02*
X124849034Y-118606800D01*
X124849034Y-118606800D02*
X124891326Y-118602503D01*
X124891326Y-118602503D02*
X124938064Y-118604615D01*
X124938064Y-118604615D02*
X124979418Y-118612756D01*
X124979418Y-118612756D02*
X125003957Y-118624965D01*
X125003957Y-118624965D02*
X125017253Y-118634746D01*
X125017253Y-118634746D02*
X125031294Y-118636613D01*
X125031294Y-118636613D02*
X125050671Y-118628600D01*
X125050671Y-118628600D02*
X125079976Y-118608739D01*
X125079976Y-118608739D02*
X125123803Y-118575063D01*
X125123803Y-118575063D02*
X125127825Y-118571909D01*
X125127825Y-118571909D02*
X125125764Y-118560236D01*
X125125764Y-118560236D02*
X125108568Y-118540822D01*
X125108568Y-118540822D02*
X125082433Y-118519248D01*
X125082433Y-118519248D02*
X125053552Y-118501096D01*
X125053552Y-118501096D02*
X125044478Y-118496809D01*
X125044478Y-118496809D02*
X125011380Y-118488256D01*
X125011380Y-118488256D02*
X124962880Y-118482155D01*
X124962880Y-118482155D02*
X124908695Y-118479708D01*
X124908695Y-118479708D02*
X124906161Y-118479703D01*
X124906161Y-118479703D02*
X124828210Y-118484555D01*
X124828210Y-118484555D02*
X124828210Y-118484555D01*
G36*
X125151157Y-118929882D02*
G01*
X125135835Y-118994479D01*
X125101753Y-119043063D01*
X125047218Y-119078072D01*
X125019036Y-119086589D01*
X124970764Y-119093228D01*
X124917978Y-119094813D01*
X124870353Y-119091160D01*
X124837566Y-119082083D01*
X124817652Y-119074813D01*
X124798155Y-119082083D01*
X124791023Y-119086295D01*
X124762557Y-119093126D01*
X124724059Y-119095822D01*
X124663703Y-119095822D01*
X124663703Y-118880111D01*
X124802020Y-118880111D01*
X124806668Y-118916904D01*
X124825015Y-118949269D01*
X124835514Y-118956274D01*
X124872988Y-118967191D01*
X124919773Y-118969917D01*
X124965652Y-118964379D01*
X125000410Y-118950505D01*
X125017726Y-118932161D01*
X125028356Y-118899566D01*
X125018929Y-118873729D01*
X124987764Y-118851263D01*
X124937667Y-118836850D01*
X124871582Y-118831763D01*
X124802020Y-118831763D01*
X124802020Y-118880111D01*
X124663703Y-118880111D01*
X124663703Y-118852484D01*
X124663707Y-118831440D01*
X124663937Y-118752122D01*
X124664797Y-118693154D01*
X124666679Y-118650616D01*
X124669974Y-118620592D01*
X124675073Y-118599163D01*
X124682366Y-118582411D01*
X124692246Y-118566419D01*
X124724023Y-118528948D01*
X124769055Y-118500339D01*
X124828210Y-118484555D01*
X124906161Y-118479703D01*
X124908695Y-118479708D01*
X124962880Y-118482155D01*
X125011380Y-118488256D01*
X125044478Y-118496809D01*
X125053552Y-118501096D01*
X125082433Y-118519248D01*
X125108568Y-118540822D01*
X125125764Y-118560236D01*
X125127825Y-118571909D01*
X125123803Y-118575063D01*
X125079976Y-118608739D01*
X125050671Y-118628600D01*
X125031294Y-118636613D01*
X125017253Y-118634746D01*
X125003957Y-118624965D01*
X124979418Y-118612756D01*
X124938064Y-118604615D01*
X124891326Y-118602503D01*
X124849034Y-118606800D01*
X124821017Y-118617887D01*
X124819543Y-118619236D01*
X124806953Y-118644581D01*
X124802020Y-118682411D01*
X124802020Y-118731169D01*
X124918331Y-118731216D01*
X124971760Y-118732061D01*
X125016735Y-118735740D01*
X125048907Y-118743309D01*
X125074899Y-118755808D01*
X125080948Y-118759647D01*
X125124710Y-118801845D01*
X125147987Y-118857647D01*
X125149955Y-118899566D01*
X125151299Y-118928223D01*
X125151157Y-118929882D01*
G37*
X125151157Y-118929882D02*
X125135835Y-118994479D01*
X125101753Y-119043063D01*
X125047218Y-119078072D01*
X125019036Y-119086589D01*
X124970764Y-119093228D01*
X124917978Y-119094813D01*
X124870353Y-119091160D01*
X124837566Y-119082083D01*
X124817652Y-119074813D01*
X124798155Y-119082083D01*
X124791023Y-119086295D01*
X124762557Y-119093126D01*
X124724059Y-119095822D01*
X124663703Y-119095822D01*
X124663703Y-118880111D01*
X124802020Y-118880111D01*
X124806668Y-118916904D01*
X124825015Y-118949269D01*
X124835514Y-118956274D01*
X124872988Y-118967191D01*
X124919773Y-118969917D01*
X124965652Y-118964379D01*
X125000410Y-118950505D01*
X125017726Y-118932161D01*
X125028356Y-118899566D01*
X125018929Y-118873729D01*
X124987764Y-118851263D01*
X124937667Y-118836850D01*
X124871582Y-118831763D01*
X124802020Y-118831763D01*
X124802020Y-118880111D01*
X124663703Y-118880111D01*
X124663703Y-118852484D01*
X124663707Y-118831440D01*
X124663937Y-118752122D01*
X124664797Y-118693154D01*
X124666679Y-118650616D01*
X124669974Y-118620592D01*
X124675073Y-118599163D01*
X124682366Y-118582411D01*
X124692246Y-118566419D01*
X124724023Y-118528948D01*
X124769055Y-118500339D01*
X124828210Y-118484555D01*
X124906161Y-118479703D01*
X124908695Y-118479708D01*
X124962880Y-118482155D01*
X125011380Y-118488256D01*
X125044478Y-118496809D01*
X125053552Y-118501096D01*
X125082433Y-118519248D01*
X125108568Y-118540822D01*
X125125764Y-118560236D01*
X125127825Y-118571909D01*
X125123803Y-118575063D01*
X125079976Y-118608739D01*
X125050671Y-118628600D01*
X125031294Y-118636613D01*
X125017253Y-118634746D01*
X125003957Y-118624965D01*
X124979418Y-118612756D01*
X124938064Y-118604615D01*
X124891326Y-118602503D01*
X124849034Y-118606800D01*
X124821017Y-118617887D01*
X124819543Y-118619236D01*
X124806953Y-118644581D01*
X124802020Y-118682411D01*
X124802020Y-118731169D01*
X124918331Y-118731216D01*
X124971760Y-118732061D01*
X125016735Y-118735740D01*
X125048907Y-118743309D01*
X125074899Y-118755808D01*
X125080948Y-118759647D01*
X125124710Y-118801845D01*
X125147987Y-118857647D01*
X125149955Y-118899566D01*
X125151299Y-118928223D01*
X125151157Y-118929882D01*
X124198012Y-117547002D02*
X124166717Y-117561950D01*
X124166717Y-117561950D02*
X124136409Y-117583541D01*
X124136409Y-117583541D02*
X124113318Y-117608391D01*
X124113318Y-117608391D02*
X124096500Y-117640087D01*
X124096500Y-117640087D02*
X124085006Y-117682214D01*
X124085006Y-117682214D02*
X124077891Y-117738358D01*
X124077891Y-117738358D02*
X124074207Y-117812106D01*
X124074207Y-117812106D02*
X124073008Y-117907044D01*
X124073008Y-117907044D02*
X124072989Y-117916985D01*
X124072989Y-117916985D02*
X124072713Y-118140179D01*
X124072713Y-118140179D02*
X124211030Y-118140179D01*
X124211030Y-118140179D02*
X124211030Y-117934418D01*
X124211030Y-117934418D02*
X124211128Y-117858189D01*
X124211128Y-117858189D02*
X124211809Y-117802939D01*
X124211809Y-117802939D02*
X124213651Y-117764501D01*
X124213651Y-117764501D02*
X124217233Y-117738706D01*
X124217233Y-117738706D02*
X124223132Y-117721384D01*
X124223132Y-117721384D02*
X124231927Y-117708368D01*
X124231927Y-117708368D02*
X124244180Y-117695507D01*
X124244180Y-117695507D02*
X124287047Y-117667873D01*
X124287047Y-117667873D02*
X124333843Y-117662745D01*
X124333843Y-117662745D02*
X124378424Y-117680217D01*
X124378424Y-117680217D02*
X124393928Y-117693221D01*
X124393928Y-117693221D02*
X124405310Y-117705447D01*
X124405310Y-117705447D02*
X124413481Y-117718540D01*
X124413481Y-117718540D02*
X124418974Y-117736615D01*
X124418974Y-117736615D02*
X124422320Y-117763787D01*
X124422320Y-117763787D02*
X124424051Y-117804170D01*
X124424051Y-117804170D02*
X124424697Y-117861879D01*
X124424697Y-117861879D02*
X124424792Y-117932132D01*
X124424792Y-117932132D02*
X124424792Y-118140179D01*
X124424792Y-118140179D02*
X124563109Y-118140179D01*
X124563109Y-118140179D02*
X124563109Y-117536614D01*
X124563109Y-117536614D02*
X124493950Y-117536614D01*
X124493950Y-117536614D02*
X124452428Y-117538256D01*
X124452428Y-117538256D02*
X124431006Y-117544087D01*
X124431006Y-117544087D02*
X124424795Y-117555461D01*
X124424795Y-117555461D02*
X124424792Y-117555798D01*
X124424792Y-117555798D02*
X124421910Y-117566938D01*
X124421910Y-117566938D02*
X124409199Y-117565674D01*
X124409199Y-117565674D02*
X124383926Y-117553434D01*
X124383926Y-117553434D02*
X124326605Y-117535424D01*
X124326605Y-117535424D02*
X124261037Y-117533421D01*
X124261037Y-117533421D02*
X124198012Y-117547002D01*
X124198012Y-117547002D02*
X124198012Y-117547002D01*
G36*
X124326605Y-117535424D02*
G01*
X124383926Y-117553434D01*
X124409199Y-117565674D01*
X124421910Y-117566938D01*
X124424792Y-117555798D01*
X124424795Y-117555461D01*
X124431006Y-117544087D01*
X124452428Y-117538256D01*
X124493950Y-117536614D01*
X124563109Y-117536614D01*
X124563109Y-118140179D01*
X124424792Y-118140179D01*
X124424792Y-117932132D01*
X124424697Y-117861879D01*
X124424051Y-117804170D01*
X124422320Y-117763787D01*
X124418974Y-117736615D01*
X124413481Y-117718540D01*
X124405310Y-117705447D01*
X124393928Y-117693221D01*
X124378424Y-117680217D01*
X124333843Y-117662745D01*
X124287047Y-117667873D01*
X124244180Y-117695507D01*
X124231927Y-117708368D01*
X124223132Y-117721384D01*
X124217233Y-117738706D01*
X124213651Y-117764501D01*
X124211809Y-117802939D01*
X124211128Y-117858189D01*
X124211030Y-117934418D01*
X124211030Y-118140179D01*
X124072713Y-118140179D01*
X124072989Y-117916985D01*
X124073008Y-117907044D01*
X124074207Y-117812106D01*
X124077891Y-117738358D01*
X124085006Y-117682214D01*
X124096500Y-117640087D01*
X124113318Y-117608391D01*
X124136409Y-117583541D01*
X124166717Y-117561950D01*
X124198012Y-117547002D01*
X124261037Y-117533421D01*
X124326605Y-117535424D01*
G37*
X124326605Y-117535424D02*
X124383926Y-117553434D01*
X124409199Y-117565674D01*
X124421910Y-117566938D01*
X124424792Y-117555798D01*
X124424795Y-117555461D01*
X124431006Y-117544087D01*
X124452428Y-117538256D01*
X124493950Y-117536614D01*
X124563109Y-117536614D01*
X124563109Y-118140179D01*
X124424792Y-118140179D01*
X124424792Y-117932132D01*
X124424697Y-117861879D01*
X124424051Y-117804170D01*
X124422320Y-117763787D01*
X124418974Y-117736615D01*
X124413481Y-117718540D01*
X124405310Y-117705447D01*
X124393928Y-117693221D01*
X124378424Y-117680217D01*
X124333843Y-117662745D01*
X124287047Y-117667873D01*
X124244180Y-117695507D01*
X124231927Y-117708368D01*
X124223132Y-117721384D01*
X124217233Y-117738706D01*
X124213651Y-117764501D01*
X124211809Y-117802939D01*
X124211128Y-117858189D01*
X124211030Y-117934418D01*
X124211030Y-118140179D01*
X124072713Y-118140179D01*
X124072989Y-117916985D01*
X124073008Y-117907044D01*
X124074207Y-117812106D01*
X124077891Y-117738358D01*
X124085006Y-117682214D01*
X124096500Y-117640087D01*
X124113318Y-117608391D01*
X124136409Y-117583541D01*
X124166717Y-117561950D01*
X124198012Y-117547002D01*
X124261037Y-117533421D01*
X124326605Y-117535424D01*
X125982261Y-117543148D02*
X125916479Y-117572231D01*
X125916479Y-117572231D02*
X125866540Y-117620793D01*
X125866540Y-117620793D02*
X125832374Y-117688908D01*
X125832374Y-117688908D02*
X125813907Y-117776651D01*
X125813907Y-117776651D02*
X125812583Y-117790351D01*
X125812583Y-117790351D02*
X125811546Y-117886939D01*
X125811546Y-117886939D02*
X125824993Y-117971602D01*
X125824993Y-117971602D02*
X125852108Y-118040221D01*
X125852108Y-118040221D02*
X125866627Y-118062294D01*
X125866627Y-118062294D02*
X125917201Y-118109011D01*
X125917201Y-118109011D02*
X125981609Y-118139268D01*
X125981609Y-118139268D02*
X126053666Y-118151824D01*
X126053666Y-118151824D02*
X126127185Y-118145439D01*
X126127185Y-118145439D02*
X126183072Y-118125772D01*
X126183072Y-118125772D02*
X126231132Y-118092629D01*
X126231132Y-118092629D02*
X126270412Y-118049175D01*
X126270412Y-118049175D02*
X126271092Y-118048158D01*
X126271092Y-118048158D02*
X126287044Y-118021338D01*
X126287044Y-118021338D02*
X126297410Y-117994368D01*
X126297410Y-117994368D02*
X126303688Y-117960332D01*
X126303688Y-117960332D02*
X126307373Y-117912310D01*
X126307373Y-117912310D02*
X126308997Y-117872931D01*
X126308997Y-117872931D02*
X126309672Y-117837219D01*
X126309672Y-117837219D02*
X126183955Y-117837219D01*
X126183955Y-117837219D02*
X126182726Y-117872770D01*
X126182726Y-117872770D02*
X126178266Y-117920094D01*
X126178266Y-117920094D02*
X126170397Y-117950465D01*
X126170397Y-117950465D02*
X126156207Y-117972072D01*
X126156207Y-117972072D02*
X126142917Y-117984694D01*
X126142917Y-117984694D02*
X126095802Y-118011122D01*
X126095802Y-118011122D02*
X126046505Y-118014653D01*
X126046505Y-118014653D02*
X126000593Y-117995639D01*
X126000593Y-117995639D02*
X125977638Y-117974331D01*
X125977638Y-117974331D02*
X125961096Y-117952859D01*
X125961096Y-117952859D02*
X125951421Y-117932313D01*
X125951421Y-117932313D02*
X125947174Y-117905574D01*
X125947174Y-117905574D02*
X125946920Y-117865523D01*
X125946920Y-117865523D02*
X125948228Y-117828638D01*
X125948228Y-117828638D02*
X125951043Y-117775947D01*
X125951043Y-117775947D02*
X125955505Y-117741772D01*
X125955505Y-117741772D02*
X125963548Y-117719480D01*
X125963548Y-117719480D02*
X125977103Y-117702442D01*
X125977103Y-117702442D02*
X125987845Y-117692703D01*
X125987845Y-117692703D02*
X126032777Y-117667123D01*
X126032777Y-117667123D02*
X126081249Y-117665847D01*
X126081249Y-117665847D02*
X126121894Y-117680999D01*
X126121894Y-117680999D02*
X126156567Y-117712642D01*
X126156567Y-117712642D02*
X126177224Y-117764620D01*
X126177224Y-117764620D02*
X126183955Y-117837219D01*
X126183955Y-117837219D02*
X126309672Y-117837219D01*
X126309672Y-117837219D02*
X126310479Y-117794621D01*
X126310479Y-117794621D02*
X126307948Y-117736056D01*
X126307948Y-117736056D02*
X126300362Y-117692007D01*
X126300362Y-117692007D02*
X126286681Y-117657248D01*
X126286681Y-117657248D02*
X126265865Y-117626551D01*
X126265865Y-117626551D02*
X126258147Y-117617436D01*
X126258147Y-117617436D02*
X126209889Y-117572021D01*
X126209889Y-117572021D02*
X126158128Y-117545493D01*
X126158128Y-117545493D02*
X126094828Y-117534379D01*
X126094828Y-117534379D02*
X126063961Y-117533471D01*
X126063961Y-117533471D02*
X125982261Y-117543148D01*
X125982261Y-117543148D02*
X125982261Y-117543148D01*
G36*
X126307373Y-117912310D02*
G01*
X126303688Y-117960332D01*
X126297410Y-117994368D01*
X126287044Y-118021338D01*
X126271092Y-118048158D01*
X126270412Y-118049175D01*
X126231132Y-118092629D01*
X126183072Y-118125772D01*
X126127185Y-118145439D01*
X126053666Y-118151824D01*
X125981609Y-118139268D01*
X125917201Y-118109011D01*
X125866627Y-118062294D01*
X125852108Y-118040221D01*
X125824993Y-117971602D01*
X125811546Y-117886939D01*
X125811776Y-117865523D01*
X125946920Y-117865523D01*
X125947174Y-117905574D01*
X125951421Y-117932313D01*
X125961096Y-117952859D01*
X125977638Y-117974331D01*
X126000593Y-117995639D01*
X126046505Y-118014653D01*
X126095802Y-118011122D01*
X126142917Y-117984694D01*
X126156207Y-117972072D01*
X126170397Y-117950465D01*
X126178266Y-117920094D01*
X126182726Y-117872770D01*
X126183955Y-117837219D01*
X126177224Y-117764620D01*
X126156567Y-117712642D01*
X126121894Y-117680999D01*
X126081249Y-117665847D01*
X126032777Y-117667123D01*
X125987845Y-117692703D01*
X125977103Y-117702442D01*
X125963548Y-117719480D01*
X125955505Y-117741772D01*
X125951043Y-117775947D01*
X125948228Y-117828638D01*
X125946920Y-117865523D01*
X125811776Y-117865523D01*
X125812583Y-117790351D01*
X125813907Y-117776651D01*
X125832374Y-117688908D01*
X125866540Y-117620793D01*
X125916479Y-117572231D01*
X125982261Y-117543148D01*
X126063961Y-117533471D01*
X126094828Y-117534379D01*
X126158128Y-117545493D01*
X126209889Y-117572021D01*
X126258147Y-117617436D01*
X126265865Y-117626551D01*
X126286681Y-117657248D01*
X126300362Y-117692007D01*
X126307948Y-117736056D01*
X126310479Y-117794621D01*
X126309672Y-117837219D01*
X126308997Y-117872931D01*
X126307373Y-117912310D01*
G37*
X126307373Y-117912310D02*
X126303688Y-117960332D01*
X126297410Y-117994368D01*
X126287044Y-118021338D01*
X126271092Y-118048158D01*
X126270412Y-118049175D01*
X126231132Y-118092629D01*
X126183072Y-118125772D01*
X126127185Y-118145439D01*
X126053666Y-118151824D01*
X125981609Y-118139268D01*
X125917201Y-118109011D01*
X125866627Y-118062294D01*
X125852108Y-118040221D01*
X125824993Y-117971602D01*
X125811546Y-117886939D01*
X125811776Y-117865523D01*
X125946920Y-117865523D01*
X125947174Y-117905574D01*
X125951421Y-117932313D01*
X125961096Y-117952859D01*
X125977638Y-117974331D01*
X126000593Y-117995639D01*
X126046505Y-118014653D01*
X126095802Y-118011122D01*
X126142917Y-117984694D01*
X126156207Y-117972072D01*
X126170397Y-117950465D01*
X126178266Y-117920094D01*
X126182726Y-117872770D01*
X126183955Y-117837219D01*
X126177224Y-117764620D01*
X126156567Y-117712642D01*
X126121894Y-117680999D01*
X126081249Y-117665847D01*
X126032777Y-117667123D01*
X125987845Y-117692703D01*
X125977103Y-117702442D01*
X125963548Y-117719480D01*
X125955505Y-117741772D01*
X125951043Y-117775947D01*
X125948228Y-117828638D01*
X125946920Y-117865523D01*
X125811776Y-117865523D01*
X125812583Y-117790351D01*
X125813907Y-117776651D01*
X125832374Y-117688908D01*
X125866540Y-117620793D01*
X125916479Y-117572231D01*
X125982261Y-117543148D01*
X126063961Y-117533471D01*
X126094828Y-117534379D01*
X126158128Y-117545493D01*
X126209889Y-117572021D01*
X126258147Y-117617436D01*
X126265865Y-117626551D01*
X126286681Y-117657248D01*
X126300362Y-117692007D01*
X126307948Y-117736056D01*
X126310479Y-117794621D01*
X126309672Y-117837219D01*
X126308997Y-117872931D01*
X126307373Y-117912310D01*
X122405589Y-118483417D02*
X122352589Y-118496290D01*
X122352589Y-118496290D02*
X122337269Y-118503110D01*
X122337269Y-118503110D02*
X122307572Y-118520974D01*
X122307572Y-118520974D02*
X122284780Y-118541093D01*
X122284780Y-118541093D02*
X122267917Y-118566962D01*
X122267917Y-118566962D02*
X122256002Y-118602073D01*
X122256002Y-118602073D02*
X122248058Y-118649920D01*
X122248058Y-118649920D02*
X122243106Y-118713996D01*
X122243106Y-118713996D02*
X122240169Y-118797794D01*
X122240169Y-118797794D02*
X122239053Y-118853768D01*
X122239053Y-118853768D02*
X122234948Y-119095822D01*
X122234948Y-119095822D02*
X122305068Y-119095822D01*
X122305068Y-119095822D02*
X122347607Y-119094038D01*
X122347607Y-119094038D02*
X122369524Y-119087942D01*
X122369524Y-119087942D02*
X122375188Y-119077706D01*
X122375188Y-119077706D02*
X122378179Y-119066637D01*
X122378179Y-119066637D02*
X122391549Y-119068754D01*
X122391549Y-119068754D02*
X122409767Y-119077629D01*
X122409767Y-119077629D02*
X122455376Y-119091233D01*
X122455376Y-119091233D02*
X122513993Y-119094899D01*
X122513993Y-119094899D02*
X122575646Y-119088903D01*
X122575646Y-119088903D02*
X122630362Y-119073521D01*
X122630362Y-119073521D02*
X122635270Y-119071386D01*
X122635270Y-119071386D02*
X122685277Y-119036255D01*
X122685277Y-119036255D02*
X122718244Y-118987419D01*
X122718244Y-118987419D02*
X122733413Y-118930333D01*
X122733413Y-118930333D02*
X122732254Y-118909824D01*
X122732254Y-118909824D02*
X122608492Y-118909824D01*
X122608492Y-118909824D02*
X122597587Y-118937425D01*
X122597587Y-118937425D02*
X122565255Y-118957204D01*
X122565255Y-118957204D02*
X122513090Y-118967819D01*
X122513090Y-118967819D02*
X122485213Y-118969228D01*
X122485213Y-118969228D02*
X122438753Y-118965620D01*
X122438753Y-118965620D02*
X122407871Y-118951597D01*
X122407871Y-118951597D02*
X122400336Y-118944931D01*
X122400336Y-118944931D02*
X122379924Y-118908666D01*
X122379924Y-118908666D02*
X122375188Y-118875773D01*
X122375188Y-118875773D02*
X122375188Y-118831763D01*
X122375188Y-118831763D02*
X122436487Y-118831763D01*
X122436487Y-118831763D02*
X122507744Y-118835395D01*
X122507744Y-118835395D02*
X122557724Y-118846818D01*
X122557724Y-118846818D02*
X122589304Y-118866824D01*
X122589304Y-118866824D02*
X122596374Y-118875743D01*
X122596374Y-118875743D02*
X122608492Y-118909824D01*
X122608492Y-118909824D02*
X122732254Y-118909824D01*
X122732254Y-118909824D02*
X122730029Y-118870456D01*
X122730029Y-118870456D02*
X122707337Y-118813244D01*
X122707337Y-118813244D02*
X122676376Y-118774580D01*
X122676376Y-118774580D02*
X122657624Y-118757864D01*
X122657624Y-118757864D02*
X122639267Y-118746878D01*
X122639267Y-118746878D02*
X122615381Y-118740180D01*
X122615381Y-118740180D02*
X122580043Y-118736326D01*
X122580043Y-118736326D02*
X122527331Y-118733873D01*
X122527331Y-118733873D02*
X122506423Y-118733168D01*
X122506423Y-118733168D02*
X122375188Y-118728879D01*
X122375188Y-118728879D02*
X122375380Y-118689158D01*
X122375380Y-118689158D02*
X122380463Y-118647405D01*
X122380463Y-118647405D02*
X122398838Y-118622158D01*
X122398838Y-118622158D02*
X122435961Y-118606030D01*
X122435961Y-118606030D02*
X122436957Y-118605742D01*
X122436957Y-118605742D02*
X122489590Y-118599400D01*
X122489590Y-118599400D02*
X122541094Y-118607684D01*
X122541094Y-118607684D02*
X122579370Y-118627827D01*
X122579370Y-118627827D02*
X122594728Y-118637773D01*
X122594728Y-118637773D02*
X122611270Y-118636397D01*
X122611270Y-118636397D02*
X122636725Y-118621987D01*
X122636725Y-118621987D02*
X122651672Y-118611817D01*
X122651672Y-118611817D02*
X122680909Y-118590088D01*
X122680909Y-118590088D02*
X122699020Y-118573800D01*
X122699020Y-118573800D02*
X122701926Y-118569137D01*
X122701926Y-118569137D02*
X122689960Y-118545005D01*
X122689960Y-118545005D02*
X122654604Y-118516185D01*
X122654604Y-118516185D02*
X122639247Y-118506461D01*
X122639247Y-118506461D02*
X122595099Y-118489714D01*
X122595099Y-118489714D02*
X122535602Y-118480227D01*
X122535602Y-118480227D02*
X122469513Y-118478095D01*
X122469513Y-118478095D02*
X122405589Y-118483417D01*
X122405589Y-118483417D02*
X122405589Y-118483417D01*
G36*
X122718244Y-118987419D02*
G01*
X122685277Y-119036255D01*
X122635270Y-119071386D01*
X122630362Y-119073521D01*
X122575646Y-119088903D01*
X122513993Y-119094899D01*
X122455376Y-119091233D01*
X122409767Y-119077629D01*
X122391549Y-119068754D01*
X122378179Y-119066637D01*
X122375188Y-119077706D01*
X122369524Y-119087942D01*
X122347607Y-119094038D01*
X122305068Y-119095822D01*
X122234948Y-119095822D01*
X122238680Y-118875773D01*
X122375188Y-118875773D01*
X122379924Y-118908666D01*
X122400336Y-118944931D01*
X122407871Y-118951597D01*
X122438753Y-118965620D01*
X122485213Y-118969228D01*
X122513090Y-118967819D01*
X122565255Y-118957204D01*
X122597587Y-118937425D01*
X122608492Y-118909824D01*
X122596374Y-118875743D01*
X122589304Y-118866824D01*
X122557724Y-118846818D01*
X122507744Y-118835395D01*
X122436487Y-118831763D01*
X122375188Y-118831763D01*
X122375188Y-118875773D01*
X122238680Y-118875773D01*
X122239053Y-118853768D01*
X122240169Y-118797794D01*
X122243106Y-118713996D01*
X122248058Y-118649920D01*
X122256002Y-118602073D01*
X122267917Y-118566962D01*
X122284780Y-118541093D01*
X122307572Y-118520974D01*
X122337269Y-118503110D01*
X122352589Y-118496290D01*
X122405589Y-118483417D01*
X122469513Y-118478095D01*
X122535602Y-118480227D01*
X122595099Y-118489714D01*
X122639247Y-118506461D01*
X122654604Y-118516185D01*
X122689960Y-118545005D01*
X122701926Y-118569137D01*
X122699020Y-118573800D01*
X122680909Y-118590088D01*
X122651672Y-118611817D01*
X122636725Y-118621987D01*
X122611270Y-118636397D01*
X122594728Y-118637773D01*
X122579370Y-118627827D01*
X122541094Y-118607684D01*
X122489590Y-118599400D01*
X122436957Y-118605742D01*
X122435961Y-118606030D01*
X122398838Y-118622158D01*
X122380463Y-118647405D01*
X122375380Y-118689158D01*
X122375188Y-118728879D01*
X122506423Y-118733168D01*
X122527331Y-118733873D01*
X122580043Y-118736326D01*
X122615381Y-118740180D01*
X122639267Y-118746878D01*
X122657624Y-118757864D01*
X122676376Y-118774580D01*
X122707337Y-118813244D01*
X122730029Y-118870456D01*
X122732254Y-118909824D01*
X122733413Y-118930333D01*
X122718244Y-118987419D01*
G37*
X122718244Y-118987419D02*
X122685277Y-119036255D01*
X122635270Y-119071386D01*
X122630362Y-119073521D01*
X122575646Y-119088903D01*
X122513993Y-119094899D01*
X122455376Y-119091233D01*
X122409767Y-119077629D01*
X122391549Y-119068754D01*
X122378179Y-119066637D01*
X122375188Y-119077706D01*
X122369524Y-119087942D01*
X122347607Y-119094038D01*
X122305068Y-119095822D01*
X122234948Y-119095822D01*
X122238680Y-118875773D01*
X122375188Y-118875773D01*
X122379924Y-118908666D01*
X122400336Y-118944931D01*
X122407871Y-118951597D01*
X122438753Y-118965620D01*
X122485213Y-118969228D01*
X122513090Y-118967819D01*
X122565255Y-118957204D01*
X122597587Y-118937425D01*
X122608492Y-118909824D01*
X122596374Y-118875743D01*
X122589304Y-118866824D01*
X122557724Y-118846818D01*
X122507744Y-118835395D01*
X122436487Y-118831763D01*
X122375188Y-118831763D01*
X122375188Y-118875773D01*
X122238680Y-118875773D01*
X122239053Y-118853768D01*
X122240169Y-118797794D01*
X122243106Y-118713996D01*
X122248058Y-118649920D01*
X122256002Y-118602073D01*
X122267917Y-118566962D01*
X122284780Y-118541093D01*
X122307572Y-118520974D01*
X122337269Y-118503110D01*
X122352589Y-118496290D01*
X122405589Y-118483417D01*
X122469513Y-118478095D01*
X122535602Y-118480227D01*
X122595099Y-118489714D01*
X122639247Y-118506461D01*
X122654604Y-118516185D01*
X122689960Y-118545005D01*
X122701926Y-118569137D01*
X122699020Y-118573800D01*
X122680909Y-118590088D01*
X122651672Y-118611817D01*
X122636725Y-118621987D01*
X122611270Y-118636397D01*
X122594728Y-118637773D01*
X122579370Y-118627827D01*
X122541094Y-118607684D01*
X122489590Y-118599400D01*
X122436957Y-118605742D01*
X122435961Y-118606030D01*
X122398838Y-118622158D01*
X122380463Y-118647405D01*
X122375380Y-118689158D01*
X122375188Y-118728879D01*
X122506423Y-118733168D01*
X122527331Y-118733873D01*
X122580043Y-118736326D01*
X122615381Y-118740180D01*
X122639267Y-118746878D01*
X122657624Y-118757864D01*
X122676376Y-118774580D01*
X122707337Y-118813244D01*
X122730029Y-118870456D01*
X122732254Y-118909824D01*
X122733413Y-118930333D01*
X122718244Y-118987419D01*
X122833238Y-117544055D02*
X122769637Y-117578692D01*
X122769637Y-117578692D02*
X122719877Y-117633372D01*
X122719877Y-117633372D02*
X122696432Y-117677842D01*
X122696432Y-117677842D02*
X122686366Y-117717121D01*
X122686366Y-117717121D02*
X122679844Y-117773116D01*
X122679844Y-117773116D02*
X122677049Y-117837621D01*
X122677049Y-117837621D02*
X122678164Y-117902429D01*
X122678164Y-117902429D02*
X122683374Y-117959334D01*
X122683374Y-117959334D02*
X122689459Y-117989727D01*
X122689459Y-117989727D02*
X122709986Y-118031306D01*
X122709986Y-118031306D02*
X122745537Y-118075468D01*
X122745537Y-118075468D02*
X122788381Y-118114087D01*
X122788381Y-118114087D02*
X122830789Y-118139034D01*
X122830789Y-118139034D02*
X122831823Y-118139430D01*
X122831823Y-118139430D02*
X122884447Y-118150331D01*
X122884447Y-118150331D02*
X122946812Y-118150601D01*
X122946812Y-118150601D02*
X123006076Y-118140676D01*
X123006076Y-118140676D02*
X123028960Y-118132722D01*
X123028960Y-118132722D02*
X123087898Y-118099300D01*
X123087898Y-118099300D02*
X123130110Y-118055511D01*
X123130110Y-118055511D02*
X123157844Y-117997538D01*
X123157844Y-117997538D02*
X123173349Y-117921565D01*
X123173349Y-117921565D02*
X123176857Y-117881771D01*
X123176857Y-117881771D02*
X123176410Y-117831766D01*
X123176410Y-117831766D02*
X123041624Y-117831766D01*
X123041624Y-117831766D02*
X123037083Y-117904732D01*
X123037083Y-117904732D02*
X123024014Y-117960334D01*
X123024014Y-117960334D02*
X123003244Y-117995861D01*
X123003244Y-117995861D02*
X122988448Y-118006020D01*
X122988448Y-118006020D02*
X122950536Y-118013104D01*
X122950536Y-118013104D02*
X122905473Y-118011007D01*
X122905473Y-118011007D02*
X122866513Y-118000812D01*
X122866513Y-118000812D02*
X122856296Y-117995204D01*
X122856296Y-117995204D02*
X122829341Y-117962538D01*
X122829341Y-117962538D02*
X122811549Y-117912545D01*
X122811549Y-117912545D02*
X122803976Y-117851705D01*
X122803976Y-117851705D02*
X122807675Y-117786497D01*
X122807675Y-117786497D02*
X122815943Y-117747253D01*
X122815943Y-117747253D02*
X122839680Y-117701805D01*
X122839680Y-117701805D02*
X122877151Y-117673396D01*
X122877151Y-117673396D02*
X122922280Y-117663573D01*
X122922280Y-117663573D02*
X122968989Y-117673887D01*
X122968989Y-117673887D02*
X123004868Y-117699112D01*
X123004868Y-117699112D02*
X123023723Y-117719925D01*
X123023723Y-117719925D02*
X123034728Y-117740439D01*
X123034728Y-117740439D02*
X123039974Y-117768203D01*
X123039974Y-117768203D02*
X123041551Y-117810762D01*
X123041551Y-117810762D02*
X123041624Y-117831766D01*
X123041624Y-117831766D02*
X123176410Y-117831766D01*
X123176410Y-117831766D02*
X123175906Y-117775580D01*
X123175906Y-117775580D02*
X123158612Y-117688501D01*
X123158612Y-117688501D02*
X123124971Y-117620530D01*
X123124971Y-117620530D02*
X123074982Y-117571664D01*
X123074982Y-117571664D02*
X123008644Y-117541899D01*
X123008644Y-117541899D02*
X122994399Y-117538448D01*
X122994399Y-117538448D02*
X122908790Y-117530345D01*
X122908790Y-117530345D02*
X122833238Y-117544055D01*
X122833238Y-117544055D02*
X122833238Y-117544055D01*
G36*
X123173349Y-117921565D02*
G01*
X123157844Y-117997538D01*
X123130110Y-118055511D01*
X123087898Y-118099300D01*
X123028960Y-118132722D01*
X123006076Y-118140676D01*
X122946812Y-118150601D01*
X122884447Y-118150331D01*
X122831823Y-118139430D01*
X122830789Y-118139034D01*
X122788381Y-118114087D01*
X122745537Y-118075468D01*
X122709986Y-118031306D01*
X122689459Y-117989727D01*
X122683374Y-117959334D01*
X122678164Y-117902429D01*
X122677291Y-117851705D01*
X122803976Y-117851705D01*
X122811549Y-117912545D01*
X122829341Y-117962538D01*
X122856296Y-117995204D01*
X122866513Y-118000812D01*
X122905473Y-118011007D01*
X122950536Y-118013104D01*
X122988448Y-118006020D01*
X123003244Y-117995861D01*
X123024014Y-117960334D01*
X123037083Y-117904732D01*
X123041624Y-117831766D01*
X123041551Y-117810762D01*
X123039974Y-117768203D01*
X123034728Y-117740439D01*
X123023723Y-117719925D01*
X123004868Y-117699112D01*
X122968989Y-117673887D01*
X122922280Y-117663573D01*
X122877151Y-117673396D01*
X122839680Y-117701805D01*
X122815943Y-117747253D01*
X122807675Y-117786497D01*
X122803976Y-117851705D01*
X122677291Y-117851705D01*
X122677049Y-117837621D01*
X122679844Y-117773116D01*
X122686366Y-117717121D01*
X122696432Y-117677842D01*
X122719877Y-117633372D01*
X122769637Y-117578692D01*
X122833238Y-117544055D01*
X122908790Y-117530345D01*
X122994399Y-117538448D01*
X123008644Y-117541899D01*
X123074982Y-117571664D01*
X123124971Y-117620530D01*
X123158612Y-117688501D01*
X123175906Y-117775580D01*
X123176410Y-117831766D01*
X123176857Y-117881771D01*
X123173349Y-117921565D01*
G37*
X123173349Y-117921565D02*
X123157844Y-117997538D01*
X123130110Y-118055511D01*
X123087898Y-118099300D01*
X123028960Y-118132722D01*
X123006076Y-118140676D01*
X122946812Y-118150601D01*
X122884447Y-118150331D01*
X122831823Y-118139430D01*
X122830789Y-118139034D01*
X122788381Y-118114087D01*
X122745537Y-118075468D01*
X122709986Y-118031306D01*
X122689459Y-117989727D01*
X122683374Y-117959334D01*
X122678164Y-117902429D01*
X122677291Y-117851705D01*
X122803976Y-117851705D01*
X122811549Y-117912545D01*
X122829341Y-117962538D01*
X122856296Y-117995204D01*
X122866513Y-118000812D01*
X122905473Y-118011007D01*
X122950536Y-118013104D01*
X122988448Y-118006020D01*
X123003244Y-117995861D01*
X123024014Y-117960334D01*
X123037083Y-117904732D01*
X123041624Y-117831766D01*
X123041551Y-117810762D01*
X123039974Y-117768203D01*
X123034728Y-117740439D01*
X123023723Y-117719925D01*
X123004868Y-117699112D01*
X122968989Y-117673887D01*
X122922280Y-117663573D01*
X122877151Y-117673396D01*
X122839680Y-117701805D01*
X122815943Y-117747253D01*
X122807675Y-117786497D01*
X122803976Y-117851705D01*
X122677291Y-117851705D01*
X122677049Y-117837621D01*
X122679844Y-117773116D01*
X122686366Y-117717121D01*
X122696432Y-117677842D01*
X122719877Y-117633372D01*
X122769637Y-117578692D01*
X122833238Y-117544055D01*
X122908790Y-117530345D01*
X122994399Y-117538448D01*
X123008644Y-117541899D01*
X123074982Y-117571664D01*
X123124971Y-117620530D01*
X123158612Y-117688501D01*
X123175906Y-117775580D01*
X123176410Y-117831766D01*
X123176857Y-117881771D01*
X123173349Y-117921565D01*
X123067036Y-113368018D02*
X123010188Y-113669570D01*
X123010188Y-113669570D02*
X122590662Y-113842512D01*
X122590662Y-113842512D02*
X122339016Y-113671395D01*
X122339016Y-113671395D02*
X122268542Y-113623750D01*
X122268542Y-113623750D02*
X122204837Y-113581210D01*
X122204837Y-113581210D02*
X122150874Y-113545715D01*
X122150874Y-113545715D02*
X122109627Y-113519210D01*
X122109627Y-113519210D02*
X122084066Y-113503636D01*
X122084066Y-113503636D02*
X122077105Y-113500278D01*
X122077105Y-113500278D02*
X122064565Y-113508914D01*
X122064565Y-113508914D02*
X122037769Y-113532792D01*
X122037769Y-113532792D02*
X121999720Y-113568859D01*
X121999720Y-113568859D02*
X121953421Y-113614067D01*
X121953421Y-113614067D02*
X121901877Y-113665364D01*
X121901877Y-113665364D02*
X121848091Y-113719701D01*
X121848091Y-113719701D02*
X121795065Y-113774028D01*
X121795065Y-113774028D02*
X121745805Y-113825295D01*
X121745805Y-113825295D02*
X121703313Y-113870451D01*
X121703313Y-113870451D02*
X121670593Y-113906446D01*
X121670593Y-113906446D02*
X121650649Y-113930230D01*
X121650649Y-113930230D02*
X121645881Y-113938190D01*
X121645881Y-113938190D02*
X121652743Y-113952865D01*
X121652743Y-113952865D02*
X121671980Y-113985014D01*
X121671980Y-113985014D02*
X121701570Y-114031492D01*
X121701570Y-114031492D02*
X121739490Y-114089156D01*
X121739490Y-114089156D02*
X121783718Y-114154860D01*
X121783718Y-114154860D02*
X121809346Y-114192336D01*
X121809346Y-114192336D02*
X121856059Y-114260768D01*
X121856059Y-114260768D02*
X121897568Y-114322520D01*
X121897568Y-114322520D02*
X121931860Y-114374519D01*
X121931860Y-114374519D02*
X121956920Y-114413692D01*
X121956920Y-114413692D02*
X121970736Y-114436965D01*
X121970736Y-114436965D02*
X121972812Y-114441855D01*
X121972812Y-114441855D02*
X121968105Y-114455755D01*
X121968105Y-114455755D02*
X121955277Y-114488150D01*
X121955277Y-114488150D02*
X121936262Y-114534485D01*
X121936262Y-114534485D02*
X121912997Y-114590206D01*
X121912997Y-114590206D02*
X121887416Y-114650758D01*
X121887416Y-114650758D02*
X121861455Y-114711586D01*
X121861455Y-114711586D02*
X121837050Y-114768136D01*
X121837050Y-114768136D02*
X121816137Y-114815852D01*
X121816137Y-114815852D02*
X121800651Y-114850181D01*
X121800651Y-114850181D02*
X121792528Y-114866568D01*
X121792528Y-114866568D02*
X121792048Y-114867212D01*
X121792048Y-114867212D02*
X121779293Y-114870341D01*
X121779293Y-114870341D02*
X121745323Y-114877321D01*
X121745323Y-114877321D02*
X121693660Y-114887467D01*
X121693660Y-114887467D02*
X121627824Y-114900092D01*
X121627824Y-114900092D02*
X121551336Y-114914509D01*
X121551336Y-114914509D02*
X121506710Y-114922823D01*
X121506710Y-114922823D02*
X121424979Y-114938384D01*
X121424979Y-114938384D02*
X121351157Y-114953192D01*
X121351157Y-114953192D02*
X121288979Y-114966436D01*
X121288979Y-114966436D02*
X121242178Y-114977305D01*
X121242178Y-114977305D02*
X121214491Y-114984989D01*
X121214491Y-114984989D02*
X121208926Y-114987427D01*
X121208926Y-114987427D02*
X121203474Y-115003930D01*
X121203474Y-115003930D02*
X121199076Y-115041200D01*
X121199076Y-115041200D02*
X121195728Y-115094880D01*
X121195728Y-115094880D02*
X121193426Y-115160612D01*
X121193426Y-115160612D02*
X121192168Y-115234037D01*
X121192168Y-115234037D02*
X121191952Y-115310796D01*
X121191952Y-115310796D02*
X121192773Y-115386532D01*
X121192773Y-115386532D02*
X121194629Y-115456886D01*
X121194629Y-115456886D02*
X121197518Y-115517500D01*
X121197518Y-115517500D02*
X121201435Y-115564016D01*
X121201435Y-115564016D02*
X121206378Y-115592075D01*
X121206378Y-115592075D02*
X121209343Y-115597916D01*
X121209343Y-115597916D02*
X121227066Y-115604917D01*
X121227066Y-115604917D02*
X121264619Y-115614927D01*
X121264619Y-115614927D02*
X121317036Y-115626769D01*
X121317036Y-115626769D02*
X121379348Y-115639267D01*
X121379348Y-115639267D02*
X121401100Y-115643310D01*
X121401100Y-115643310D02*
X121505976Y-115662520D01*
X121505976Y-115662520D02*
X121588820Y-115677991D01*
X121588820Y-115677991D02*
X121652370Y-115690337D01*
X121652370Y-115690337D02*
X121699363Y-115700173D01*
X121699363Y-115700173D02*
X121732537Y-115708114D01*
X121732537Y-115708114D02*
X121754629Y-115714776D01*
X121754629Y-115714776D02*
X121768376Y-115720773D01*
X121768376Y-115720773D02*
X121776516Y-115726719D01*
X121776516Y-115726719D02*
X121777655Y-115727894D01*
X121777655Y-115727894D02*
X121789023Y-115746826D01*
X121789023Y-115746826D02*
X121806365Y-115783669D01*
X121806365Y-115783669D02*
X121827950Y-115833913D01*
X121827950Y-115833913D02*
X121852046Y-115893046D01*
X121852046Y-115893046D02*
X121876921Y-115956556D01*
X121876921Y-115956556D02*
X121900843Y-116019932D01*
X121900843Y-116019932D02*
X121922081Y-116078662D01*
X121922081Y-116078662D02*
X121938903Y-116128235D01*
X121938903Y-116128235D02*
X121949578Y-116164139D01*
X121949578Y-116164139D02*
X121952373Y-116181862D01*
X121952373Y-116181862D02*
X121952140Y-116182483D01*
X121952140Y-116182483D02*
X121942669Y-116196970D01*
X121942669Y-116196970D02*
X121921182Y-116228844D01*
X121921182Y-116228844D02*
X121889937Y-116274789D01*
X121889937Y-116274789D02*
X121851193Y-116331485D01*
X121851193Y-116331485D02*
X121807207Y-116395617D01*
X121807207Y-116395617D02*
X121794681Y-116413842D01*
X121794681Y-116413842D02*
X121750016Y-116479914D01*
X121750016Y-116479914D02*
X121710712Y-116540200D01*
X121710712Y-116540200D02*
X121678912Y-116591235D01*
X121678912Y-116591235D02*
X121656755Y-116629560D01*
X121656755Y-116629560D02*
X121646383Y-116651711D01*
X121646383Y-116651711D02*
X121645881Y-116654432D01*
X121645881Y-116654432D02*
X121654595Y-116668736D01*
X121654595Y-116668736D02*
X121678675Y-116697072D01*
X121678675Y-116697072D02*
X121715024Y-116736396D01*
X121715024Y-116736396D02*
X121760547Y-116783661D01*
X121760547Y-116783661D02*
X121812148Y-116835823D01*
X121812148Y-116835823D02*
X121866733Y-116889835D01*
X121866733Y-116889835D02*
X121921206Y-116942653D01*
X121921206Y-116942653D02*
X121972471Y-116991231D01*
X121972471Y-116991231D02*
X122017433Y-117032523D01*
X122017433Y-117032523D02*
X122052996Y-117063485D01*
X122052996Y-117063485D02*
X122076065Y-117081070D01*
X122076065Y-117081070D02*
X122082446Y-117083941D01*
X122082446Y-117083941D02*
X122097301Y-117077178D01*
X122097301Y-117077178D02*
X122127714Y-117058939D01*
X122127714Y-117058939D02*
X122168732Y-117032297D01*
X122168732Y-117032297D02*
X122200291Y-117010852D01*
X122200291Y-117010852D02*
X122257475Y-116971503D01*
X122257475Y-116971503D02*
X122325194Y-116925171D01*
X122325194Y-116925171D02*
X122393120Y-116878913D01*
X122393120Y-116878913D02*
X122429639Y-116854155D01*
X122429639Y-116854155D02*
X122553248Y-116770547D01*
X122553248Y-116770547D02*
X122657009Y-116826650D01*
X122657009Y-116826650D02*
X122704280Y-116851228D01*
X122704280Y-116851228D02*
X122744477Y-116870331D01*
X122744477Y-116870331D02*
X122771674Y-116881227D01*
X122771674Y-116881227D02*
X122778598Y-116882743D01*
X122778598Y-116882743D02*
X122786923Y-116871549D01*
X122786923Y-116871549D02*
X122803346Y-116839917D01*
X122803346Y-116839917D02*
X122826643Y-116790765D01*
X122826643Y-116790765D02*
X122855586Y-116727010D01*
X122855586Y-116727010D02*
X122888950Y-116651571D01*
X122888950Y-116651571D02*
X122925509Y-116567364D01*
X122925509Y-116567364D02*
X122964036Y-116477308D01*
X122964036Y-116477308D02*
X123003306Y-116384321D01*
X123003306Y-116384321D02*
X123042092Y-116291320D01*
X123042092Y-116291320D02*
X123079170Y-116201223D01*
X123079170Y-116201223D02*
X123113311Y-116116948D01*
X123113311Y-116116948D02*
X123143292Y-116041413D01*
X123143292Y-116041413D02*
X123167884Y-115977534D01*
X123167884Y-115977534D02*
X123185864Y-115928231D01*
X123185864Y-115928231D02*
X123196003Y-115896421D01*
X123196003Y-115896421D02*
X123197634Y-115885496D01*
X123197634Y-115885496D02*
X123184709Y-115871561D01*
X123184709Y-115871561D02*
X123156411Y-115848940D01*
X123156411Y-115848940D02*
X123118654Y-115822333D01*
X123118654Y-115822333D02*
X123115485Y-115820228D01*
X123115485Y-115820228D02*
X123017900Y-115742114D01*
X123017900Y-115742114D02*
X122939214Y-115650982D01*
X122939214Y-115650982D02*
X122880109Y-115549745D01*
X122880109Y-115549745D02*
X122841268Y-115441318D01*
X122841268Y-115441318D02*
X122823372Y-115328614D01*
X122823372Y-115328614D02*
X122827103Y-115214548D01*
X122827103Y-115214548D02*
X122853143Y-115102034D01*
X122853143Y-115102034D02*
X122902175Y-114993985D01*
X122902175Y-114993985D02*
X122916600Y-114970345D01*
X122916600Y-114970345D02*
X122991631Y-114874887D01*
X122991631Y-114874887D02*
X123080270Y-114798232D01*
X123080270Y-114798232D02*
X123179451Y-114740780D01*
X123179451Y-114740780D02*
X123286105Y-114702929D01*
X123286105Y-114702929D02*
X123397164Y-114685078D01*
X123397164Y-114685078D02*
X123509561Y-114687625D01*
X123509561Y-114687625D02*
X123620227Y-114710970D01*
X123620227Y-114710970D02*
X123726094Y-114755510D01*
X123726094Y-114755510D02*
X123824095Y-114821645D01*
X123824095Y-114821645D02*
X123854410Y-114848487D01*
X123854410Y-114848487D02*
X123931562Y-114932512D01*
X123931562Y-114932512D02*
X123987782Y-115020966D01*
X123987782Y-115020966D02*
X124026347Y-115120115D01*
X124026347Y-115120115D02*
X124047826Y-115218303D01*
X124047826Y-115218303D02*
X124053128Y-115328697D01*
X124053128Y-115328697D02*
X124035448Y-115439640D01*
X124035448Y-115439640D02*
X123996581Y-115547381D01*
X123996581Y-115547381D02*
X123938323Y-115648169D01*
X123938323Y-115648169D02*
X123862469Y-115738256D01*
X123862469Y-115738256D02*
X123770817Y-115813892D01*
X123770817Y-115813892D02*
X123758772Y-115821864D01*
X123758772Y-115821864D02*
X123720611Y-115847974D01*
X123720611Y-115847974D02*
X123691601Y-115870595D01*
X123691601Y-115870595D02*
X123677732Y-115885039D01*
X123677732Y-115885039D02*
X123677531Y-115885496D01*
X123677531Y-115885496D02*
X123680508Y-115901121D01*
X123680508Y-115901121D02*
X123692311Y-115936582D01*
X123692311Y-115936582D02*
X123711714Y-115988962D01*
X123711714Y-115988962D02*
X123737488Y-116055345D01*
X123737488Y-116055345D02*
X123768409Y-116132814D01*
X123768409Y-116132814D02*
X123803249Y-116218450D01*
X123803249Y-116218450D02*
X123840783Y-116309337D01*
X123840783Y-116309337D02*
X123879783Y-116402559D01*
X123879783Y-116402559D02*
X123919023Y-116495197D01*
X123919023Y-116495197D02*
X123957276Y-116584335D01*
X123957276Y-116584335D02*
X123993317Y-116667055D01*
X123993317Y-116667055D02*
X124025917Y-116740441D01*
X124025917Y-116740441D02*
X124053852Y-116801575D01*
X124053852Y-116801575D02*
X124075895Y-116847541D01*
X124075895Y-116847541D02*
X124090818Y-116875421D01*
X124090818Y-116875421D02*
X124096828Y-116882743D01*
X124096828Y-116882743D02*
X124115191Y-116877041D01*
X124115191Y-116877041D02*
X124149552Y-116861749D01*
X124149552Y-116861749D02*
X124193984Y-116839599D01*
X124193984Y-116839599D02*
X124218417Y-116826650D01*
X124218417Y-116826650D02*
X124322178Y-116770547D01*
X124322178Y-116770547D02*
X124445787Y-116854155D01*
X124445787Y-116854155D02*
X124508886Y-116896987D01*
X124508886Y-116896987D02*
X124577970Y-116944122D01*
X124577970Y-116944122D02*
X124642707Y-116988503D01*
X124642707Y-116988503D02*
X124675134Y-117010852D01*
X124675134Y-117010852D02*
X124720741Y-117041477D01*
X124720741Y-117041477D02*
X124759360Y-117065747D01*
X124759360Y-117065747D02*
X124785952Y-117080587D01*
X124785952Y-117080587D02*
X124794590Y-117083724D01*
X124794590Y-117083724D02*
X124807161Y-117075261D01*
X124807161Y-117075261D02*
X124834984Y-117051636D01*
X124834984Y-117051636D02*
X124875361Y-117015302D01*
X124875361Y-117015302D02*
X124925595Y-116968711D01*
X124925595Y-116968711D02*
X124982988Y-116914317D01*
X124982988Y-116914317D02*
X125019286Y-116879392D01*
X125019286Y-116879392D02*
X125082790Y-116816996D01*
X125082790Y-116816996D02*
X125137673Y-116761188D01*
X125137673Y-116761188D02*
X125181714Y-116714354D01*
X125181714Y-116714354D02*
X125212695Y-116678882D01*
X125212695Y-116678882D02*
X125228398Y-116657161D01*
X125228398Y-116657161D02*
X125229905Y-116652752D01*
X125229905Y-116652752D02*
X125222914Y-116635985D01*
X125222914Y-116635985D02*
X125203594Y-116602082D01*
X125203594Y-116602082D02*
X125174091Y-116554476D01*
X125174091Y-116554476D02*
X125136545Y-116496599D01*
X125136545Y-116496599D02*
X125093100Y-116431884D01*
X125093100Y-116431884D02*
X125080745Y-116413842D01*
X125080745Y-116413842D02*
X125035727Y-116348267D01*
X125035727Y-116348267D02*
X124995340Y-116289228D01*
X124995340Y-116289228D02*
X124961840Y-116240042D01*
X124961840Y-116240042D02*
X124937486Y-116204028D01*
X124937486Y-116204028D02*
X124924536Y-116184502D01*
X124924536Y-116184502D02*
X124923285Y-116182483D01*
X124923285Y-116182483D02*
X124925156Y-116166922D01*
X124925156Y-116166922D02*
X124935087Y-116132709D01*
X124935087Y-116132709D02*
X124951347Y-116084355D01*
X124951347Y-116084355D02*
X124972205Y-116026371D01*
X124972205Y-116026371D02*
X124995927Y-115963270D01*
X124995927Y-115963270D02*
X125020784Y-115899563D01*
X125020784Y-115899563D02*
X125045042Y-115839761D01*
X125045042Y-115839761D02*
X125066971Y-115788376D01*
X125066971Y-115788376D02*
X125084838Y-115749919D01*
X125084838Y-115749919D02*
X125096913Y-115728902D01*
X125096913Y-115728902D02*
X125097771Y-115727894D01*
X125097771Y-115727894D02*
X125105154Y-115721888D01*
X125105154Y-115721888D02*
X125117625Y-115715948D01*
X125117625Y-115715948D02*
X125137920Y-115709460D01*
X125137920Y-115709460D02*
X125168778Y-115701809D01*
X125168778Y-115701809D02*
X125212934Y-115692380D01*
X125212934Y-115692380D02*
X125273126Y-115680559D01*
X125273126Y-115680559D02*
X125352093Y-115665729D01*
X125352093Y-115665729D02*
X125452570Y-115647277D01*
X125452570Y-115647277D02*
X125474325Y-115643310D01*
X125474325Y-115643310D02*
X125538802Y-115630853D01*
X125538802Y-115630853D02*
X125595011Y-115618666D01*
X125595011Y-115618666D02*
X125637987Y-115607926D01*
X125637987Y-115607926D02*
X125662760Y-115599809D01*
X125662760Y-115599809D02*
X125666082Y-115597916D01*
X125666082Y-115597916D02*
X125671556Y-115581138D01*
X125671556Y-115581138D02*
X125676006Y-115543645D01*
X125676006Y-115543645D02*
X125679428Y-115489794D01*
X125679428Y-115489794D02*
X125681819Y-115423944D01*
X125681819Y-115423944D02*
X125683177Y-115350453D01*
X125683177Y-115350453D02*
X125683499Y-115273680D01*
X125683499Y-115273680D02*
X125682781Y-115197983D01*
X125682781Y-115197983D02*
X125681021Y-115127720D01*
X125681021Y-115127720D02*
X125678216Y-115067250D01*
X125678216Y-115067250D02*
X125674362Y-115020930D01*
X125674362Y-115020930D02*
X125669457Y-114993119D01*
X125669457Y-114993119D02*
X125666500Y-114987427D01*
X125666500Y-114987427D02*
X125650037Y-114981686D01*
X125650037Y-114981686D02*
X125612551Y-114972345D01*
X125612551Y-114972345D02*
X125557775Y-114960215D01*
X125557775Y-114960215D02*
X125489445Y-114946107D01*
X125489445Y-114946107D02*
X125411294Y-114930830D01*
X125411294Y-114930830D02*
X125368716Y-114922823D01*
X125368716Y-114922823D02*
X125287929Y-114907721D01*
X125287929Y-114907721D02*
X125215887Y-114894040D01*
X125215887Y-114894040D02*
X125156111Y-114882467D01*
X125156111Y-114882467D02*
X125112121Y-114873687D01*
X125112121Y-114873687D02*
X125087439Y-114868387D01*
X125087439Y-114868387D02*
X125083377Y-114867212D01*
X125083377Y-114867212D02*
X125076511Y-114853965D01*
X125076511Y-114853965D02*
X125061998Y-114822057D01*
X125061998Y-114822057D02*
X125041771Y-114776047D01*
X125041771Y-114776047D02*
X125017766Y-114720492D01*
X125017766Y-114720492D02*
X124991918Y-114659953D01*
X124991918Y-114659953D02*
X124966160Y-114598986D01*
X124966160Y-114598986D02*
X124942427Y-114542151D01*
X124942427Y-114542151D02*
X124922654Y-114494006D01*
X124922654Y-114494006D02*
X124908776Y-114459110D01*
X124908776Y-114459110D02*
X124902726Y-114442021D01*
X124902726Y-114442021D02*
X124902614Y-114441274D01*
X124902614Y-114441274D02*
X124909472Y-114427793D01*
X124909472Y-114427793D02*
X124928698Y-114396770D01*
X124928698Y-114396770D02*
X124958272Y-114351289D01*
X124958272Y-114351289D02*
X124996173Y-114294432D01*
X124996173Y-114294432D02*
X125040380Y-114229283D01*
X125040380Y-114229283D02*
X125066079Y-114191862D01*
X125066079Y-114191862D02*
X125112907Y-114123247D01*
X125112907Y-114123247D02*
X125154499Y-114060952D01*
X125154499Y-114060952D02*
X125188825Y-114008129D01*
X125188825Y-114008129D02*
X125213857Y-113967927D01*
X125213857Y-113967927D02*
X125227565Y-113943500D01*
X125227565Y-113943500D02*
X125229544Y-113938024D01*
X125229544Y-113938024D02*
X125221034Y-113925278D01*
X125221034Y-113925278D02*
X125197507Y-113898063D01*
X125197507Y-113898063D02*
X125161968Y-113859428D01*
X125161968Y-113859428D02*
X125117423Y-113812423D01*
X125117423Y-113812423D02*
X125066877Y-113760095D01*
X125066877Y-113760095D02*
X125013336Y-113705495D01*
X125013336Y-113705495D02*
X124959805Y-113651670D01*
X124959805Y-113651670D02*
X124909289Y-113601670D01*
X124909289Y-113601670D02*
X124864794Y-113558543D01*
X124864794Y-113558543D02*
X124829325Y-113525339D01*
X124829325Y-113525339D02*
X124805887Y-113505106D01*
X124805887Y-113505106D02*
X124798046Y-113500278D01*
X124798046Y-113500278D02*
X124785280Y-113507067D01*
X124785280Y-113507067D02*
X124754744Y-113526142D01*
X124754744Y-113526142D02*
X124709410Y-113555561D01*
X124709410Y-113555561D02*
X124652244Y-113593381D01*
X124652244Y-113593381D02*
X124586216Y-113637661D01*
X124586216Y-113637661D02*
X124536410Y-113671395D01*
X124536410Y-113671395D02*
X124284764Y-113842512D01*
X124284764Y-113842512D02*
X124075001Y-113756041D01*
X124075001Y-113756041D02*
X123865237Y-113669570D01*
X123865237Y-113669570D02*
X123808389Y-113368018D01*
X123808389Y-113368018D02*
X123751540Y-113066466D01*
X123751540Y-113066466D02*
X123123885Y-113066466D01*
X123123885Y-113066466D02*
X123067036Y-113368018D01*
X123067036Y-113368018D02*
X123067036Y-113368018D01*
G36*
X123808389Y-113368018D02*
G01*
X123865237Y-113669570D01*
X124075001Y-113756041D01*
X124284764Y-113842512D01*
X124536410Y-113671395D01*
X124586216Y-113637661D01*
X124652244Y-113593381D01*
X124709410Y-113555561D01*
X124754744Y-113526142D01*
X124785280Y-113507067D01*
X124798046Y-113500278D01*
X124805887Y-113505106D01*
X124829325Y-113525339D01*
X124864794Y-113558543D01*
X124909289Y-113601670D01*
X124959805Y-113651670D01*
X125013336Y-113705495D01*
X125066877Y-113760095D01*
X125117423Y-113812423D01*
X125161968Y-113859428D01*
X125197507Y-113898063D01*
X125221034Y-113925278D01*
X125229544Y-113938024D01*
X125227565Y-113943500D01*
X125213857Y-113967927D01*
X125188825Y-114008129D01*
X125154499Y-114060952D01*
X125112907Y-114123247D01*
X125066079Y-114191862D01*
X125040380Y-114229283D01*
X124996173Y-114294432D01*
X124958272Y-114351289D01*
X124928698Y-114396770D01*
X124909472Y-114427793D01*
X124902614Y-114441274D01*
X124902726Y-114442021D01*
X124908776Y-114459110D01*
X124922654Y-114494006D01*
X124942427Y-114542151D01*
X124966160Y-114598986D01*
X124991918Y-114659953D01*
X125017766Y-114720492D01*
X125041771Y-114776047D01*
X125061998Y-114822057D01*
X125076511Y-114853965D01*
X125083377Y-114867212D01*
X125087439Y-114868387D01*
X125112121Y-114873687D01*
X125156111Y-114882467D01*
X125215887Y-114894040D01*
X125287929Y-114907721D01*
X125368716Y-114922823D01*
X125411294Y-114930830D01*
X125489445Y-114946107D01*
X125557775Y-114960215D01*
X125612551Y-114972345D01*
X125650037Y-114981686D01*
X125666500Y-114987427D01*
X125669457Y-114993119D01*
X125674362Y-115020930D01*
X125678216Y-115067250D01*
X125681021Y-115127720D01*
X125682781Y-115197983D01*
X125683499Y-115273680D01*
X125683177Y-115350453D01*
X125681819Y-115423944D01*
X125679428Y-115489794D01*
X125676006Y-115543645D01*
X125671556Y-115581138D01*
X125666082Y-115597916D01*
X125662760Y-115599809D01*
X125637987Y-115607926D01*
X125595011Y-115618666D01*
X125538802Y-115630853D01*
X125474325Y-115643310D01*
X125452570Y-115647277D01*
X125352093Y-115665729D01*
X125273126Y-115680559D01*
X125212934Y-115692380D01*
X125168778Y-115701809D01*
X125137920Y-115709460D01*
X125117625Y-115715948D01*
X125105154Y-115721888D01*
X125097771Y-115727894D01*
X125096913Y-115728902D01*
X125084838Y-115749919D01*
X125066971Y-115788376D01*
X125045042Y-115839761D01*
X125020784Y-115899563D01*
X124995927Y-115963270D01*
X124972205Y-116026371D01*
X124951347Y-116084355D01*
X124935087Y-116132709D01*
X124925156Y-116166922D01*
X124923285Y-116182483D01*
X124924536Y-116184502D01*
X124937486Y-116204028D01*
X124961840Y-116240042D01*
X124995340Y-116289228D01*
X125035727Y-116348267D01*
X125080745Y-116413842D01*
X125093100Y-116431884D01*
X125136545Y-116496599D01*
X125174091Y-116554476D01*
X125203594Y-116602082D01*
X125222914Y-116635985D01*
X125229905Y-116652752D01*
X125228398Y-116657161D01*
X125212695Y-116678882D01*
X125181714Y-116714354D01*
X125137673Y-116761188D01*
X125082790Y-116816996D01*
X125019286Y-116879392D01*
X124982988Y-116914317D01*
X124925595Y-116968711D01*
X124875361Y-117015302D01*
X124834984Y-117051636D01*
X124807161Y-117075261D01*
X124794590Y-117083724D01*
X124785952Y-117080587D01*
X124759360Y-117065747D01*
X124720741Y-117041477D01*
X124675134Y-117010852D01*
X124642707Y-116988503D01*
X124577970Y-116944122D01*
X124508886Y-116896987D01*
X124445787Y-116854155D01*
X124322178Y-116770547D01*
X124218417Y-116826650D01*
X124193984Y-116839599D01*
X124149552Y-116861749D01*
X124115191Y-116877041D01*
X124096828Y-116882743D01*
X124090818Y-116875421D01*
X124075895Y-116847541D01*
X124053852Y-116801575D01*
X124025917Y-116740441D01*
X123993317Y-116667055D01*
X123957276Y-116584335D01*
X123919023Y-116495197D01*
X123879783Y-116402559D01*
X123840783Y-116309337D01*
X123803249Y-116218450D01*
X123768409Y-116132814D01*
X123737488Y-116055345D01*
X123711714Y-115988962D01*
X123692311Y-115936582D01*
X123680508Y-115901121D01*
X123677531Y-115885496D01*
X123677732Y-115885039D01*
X123691601Y-115870595D01*
X123720611Y-115847974D01*
X123758772Y-115821864D01*
X123770817Y-115813892D01*
X123862469Y-115738256D01*
X123938323Y-115648169D01*
X123996581Y-115547381D01*
X124035448Y-115439640D01*
X124053128Y-115328697D01*
X124047826Y-115218303D01*
X124026347Y-115120115D01*
X123987782Y-115020966D01*
X123931562Y-114932512D01*
X123854410Y-114848487D01*
X123824095Y-114821645D01*
X123726094Y-114755510D01*
X123620227Y-114710970D01*
X123509561Y-114687625D01*
X123397164Y-114685078D01*
X123286105Y-114702929D01*
X123179451Y-114740780D01*
X123080270Y-114798232D01*
X122991631Y-114874887D01*
X122916600Y-114970345D01*
X122902175Y-114993985D01*
X122853143Y-115102034D01*
X122827103Y-115214548D01*
X122823372Y-115328614D01*
X122841268Y-115441318D01*
X122880109Y-115549745D01*
X122939214Y-115650982D01*
X123017900Y-115742114D01*
X123115485Y-115820228D01*
X123118654Y-115822333D01*
X123156411Y-115848940D01*
X123184709Y-115871561D01*
X123197634Y-115885496D01*
X123196003Y-115896421D01*
X123185864Y-115928231D01*
X123167884Y-115977534D01*
X123143292Y-116041413D01*
X123113311Y-116116948D01*
X123079170Y-116201223D01*
X123042092Y-116291320D01*
X123003306Y-116384321D01*
X122964036Y-116477308D01*
X122925509Y-116567364D01*
X122888950Y-116651571D01*
X122855586Y-116727010D01*
X122826643Y-116790765D01*
X122803346Y-116839917D01*
X122786923Y-116871549D01*
X122778598Y-116882743D01*
X122771674Y-116881227D01*
X122744477Y-116870331D01*
X122704280Y-116851228D01*
X122657009Y-116826650D01*
X122553248Y-116770547D01*
X122429639Y-116854155D01*
X122393120Y-116878913D01*
X122325194Y-116925171D01*
X122257475Y-116971503D01*
X122200291Y-117010852D01*
X122168732Y-117032297D01*
X122127714Y-117058939D01*
X122097301Y-117077178D01*
X122082446Y-117083941D01*
X122076065Y-117081070D01*
X122052996Y-117063485D01*
X122017433Y-117032523D01*
X121972471Y-116991231D01*
X121921206Y-116942653D01*
X121866733Y-116889835D01*
X121812148Y-116835823D01*
X121760547Y-116783661D01*
X121715024Y-116736396D01*
X121678675Y-116697072D01*
X121654595Y-116668736D01*
X121645881Y-116654432D01*
X121646383Y-116651711D01*
X121656755Y-116629560D01*
X121678912Y-116591235D01*
X121710712Y-116540200D01*
X121750016Y-116479914D01*
X121794681Y-116413842D01*
X121807207Y-116395617D01*
X121851193Y-116331485D01*
X121889937Y-116274789D01*
X121921182Y-116228844D01*
X121942669Y-116196970D01*
X121952140Y-116182483D01*
X121952373Y-116181862D01*
X121949578Y-116164139D01*
X121938903Y-116128235D01*
X121922081Y-116078662D01*
X121900843Y-116019932D01*
X121876921Y-115956556D01*
X121852046Y-115893046D01*
X121827950Y-115833913D01*
X121806365Y-115783669D01*
X121789023Y-115746826D01*
X121777655Y-115727894D01*
X121776516Y-115726719D01*
X121768376Y-115720773D01*
X121754629Y-115714776D01*
X121732537Y-115708114D01*
X121699363Y-115700173D01*
X121652370Y-115690337D01*
X121588820Y-115677991D01*
X121505976Y-115662520D01*
X121401100Y-115643310D01*
X121379348Y-115639267D01*
X121317036Y-115626769D01*
X121264619Y-115614927D01*
X121227066Y-115604917D01*
X121209343Y-115597916D01*
X121206378Y-115592075D01*
X121201435Y-115564016D01*
X121197518Y-115517500D01*
X121194629Y-115456886D01*
X121192773Y-115386532D01*
X121191952Y-115310796D01*
X121192168Y-115234037D01*
X121193426Y-115160612D01*
X121195728Y-115094880D01*
X121199076Y-115041200D01*
X121203474Y-115003930D01*
X121208926Y-114987427D01*
X121214491Y-114984989D01*
X121242178Y-114977305D01*
X121288979Y-114966436D01*
X121351157Y-114953192D01*
X121424979Y-114938384D01*
X121506710Y-114922823D01*
X121551336Y-114914509D01*
X121627824Y-114900092D01*
X121693660Y-114887467D01*
X121745323Y-114877321D01*
X121779293Y-114870341D01*
X121792048Y-114867212D01*
X121792528Y-114866568D01*
X121800651Y-114850181D01*
X121816137Y-114815852D01*
X121837050Y-114768136D01*
X121861455Y-114711586D01*
X121887416Y-114650758D01*
X121912997Y-114590206D01*
X121936262Y-114534485D01*
X121955277Y-114488150D01*
X121968105Y-114455755D01*
X121972812Y-114441855D01*
X121970736Y-114436965D01*
X121956920Y-114413692D01*
X121931860Y-114374519D01*
X121897568Y-114322520D01*
X121856059Y-114260768D01*
X121809346Y-114192336D01*
X121783718Y-114154860D01*
X121739490Y-114089156D01*
X121701570Y-114031492D01*
X121671980Y-113985014D01*
X121652743Y-113952865D01*
X121645881Y-113938190D01*
X121650649Y-113930230D01*
X121670593Y-113906446D01*
X121703313Y-113870451D01*
X121745805Y-113825295D01*
X121795065Y-113774028D01*
X121848091Y-113719701D01*
X121901877Y-113665364D01*
X121953421Y-113614067D01*
X121999720Y-113568859D01*
X122037769Y-113532792D01*
X122064565Y-113508914D01*
X122077105Y-113500278D01*
X122084066Y-113503636D01*
X122109627Y-113519210D01*
X122150874Y-113545715D01*
X122204837Y-113581210D01*
X122268542Y-113623750D01*
X122339016Y-113671395D01*
X122590662Y-113842512D01*
X123010188Y-113669570D01*
X123067036Y-113368018D01*
X123123885Y-113066466D01*
X123751540Y-113066466D01*
X123808389Y-113368018D01*
G37*
X123808389Y-113368018D02*
X123865237Y-113669570D01*
X124075001Y-113756041D01*
X124284764Y-113842512D01*
X124536410Y-113671395D01*
X124586216Y-113637661D01*
X124652244Y-113593381D01*
X124709410Y-113555561D01*
X124754744Y-113526142D01*
X124785280Y-113507067D01*
X124798046Y-113500278D01*
X124805887Y-113505106D01*
X124829325Y-113525339D01*
X124864794Y-113558543D01*
X124909289Y-113601670D01*
X124959805Y-113651670D01*
X125013336Y-113705495D01*
X125066877Y-113760095D01*
X125117423Y-113812423D01*
X125161968Y-113859428D01*
X125197507Y-113898063D01*
X125221034Y-113925278D01*
X125229544Y-113938024D01*
X125227565Y-113943500D01*
X125213857Y-113967927D01*
X125188825Y-114008129D01*
X125154499Y-114060952D01*
X125112907Y-114123247D01*
X125066079Y-114191862D01*
X125040380Y-114229283D01*
X124996173Y-114294432D01*
X124958272Y-114351289D01*
X124928698Y-114396770D01*
X124909472Y-114427793D01*
X124902614Y-114441274D01*
X124902726Y-114442021D01*
X124908776Y-114459110D01*
X124922654Y-114494006D01*
X124942427Y-114542151D01*
X124966160Y-114598986D01*
X124991918Y-114659953D01*
X125017766Y-114720492D01*
X125041771Y-114776047D01*
X125061998Y-114822057D01*
X125076511Y-114853965D01*
X125083377Y-114867212D01*
X125087439Y-114868387D01*
X125112121Y-114873687D01*
X125156111Y-114882467D01*
X125215887Y-114894040D01*
X125287929Y-114907721D01*
X125368716Y-114922823D01*
X125411294Y-114930830D01*
X125489445Y-114946107D01*
X125557775Y-114960215D01*
X125612551Y-114972345D01*
X125650037Y-114981686D01*
X125666500Y-114987427D01*
X125669457Y-114993119D01*
X125674362Y-115020930D01*
X125678216Y-115067250D01*
X125681021Y-115127720D01*
X125682781Y-115197983D01*
X125683499Y-115273680D01*
X125683177Y-115350453D01*
X125681819Y-115423944D01*
X125679428Y-115489794D01*
X125676006Y-115543645D01*
X125671556Y-115581138D01*
X125666082Y-115597916D01*
X125662760Y-115599809D01*
X125637987Y-115607926D01*
X125595011Y-115618666D01*
X125538802Y-115630853D01*
X125474325Y-115643310D01*
X125452570Y-115647277D01*
X125352093Y-115665729D01*
X125273126Y-115680559D01*
X125212934Y-115692380D01*
X125168778Y-115701809D01*
X125137920Y-115709460D01*
X125117625Y-115715948D01*
X125105154Y-115721888D01*
X125097771Y-115727894D01*
X125096913Y-115728902D01*
X125084838Y-115749919D01*
X125066971Y-115788376D01*
X125045042Y-115839761D01*
X125020784Y-115899563D01*
X124995927Y-115963270D01*
X124972205Y-116026371D01*
X124951347Y-116084355D01*
X124935087Y-116132709D01*
X124925156Y-116166922D01*
X124923285Y-116182483D01*
X124924536Y-116184502D01*
X124937486Y-116204028D01*
X124961840Y-116240042D01*
X124995340Y-116289228D01*
X125035727Y-116348267D01*
X125080745Y-116413842D01*
X125093100Y-116431884D01*
X125136545Y-116496599D01*
X125174091Y-116554476D01*
X125203594Y-116602082D01*
X125222914Y-116635985D01*
X125229905Y-116652752D01*
X125228398Y-116657161D01*
X125212695Y-116678882D01*
X125181714Y-116714354D01*
X125137673Y-116761188D01*
X125082790Y-116816996D01*
X125019286Y-116879392D01*
X124982988Y-116914317D01*
X124925595Y-116968711D01*
X124875361Y-117015302D01*
X124834984Y-117051636D01*
X124807161Y-117075261D01*
X124794590Y-117083724D01*
X124785952Y-117080587D01*
X124759360Y-117065747D01*
X124720741Y-117041477D01*
X124675134Y-117010852D01*
X124642707Y-116988503D01*
X124577970Y-116944122D01*
X124508886Y-116896987D01*
X124445787Y-116854155D01*
X124322178Y-116770547D01*
X124218417Y-116826650D01*
X124193984Y-116839599D01*
X124149552Y-116861749D01*
X124115191Y-116877041D01*
X124096828Y-116882743D01*
X124090818Y-116875421D01*
X124075895Y-116847541D01*
X124053852Y-116801575D01*
X124025917Y-116740441D01*
X123993317Y-116667055D01*
X123957276Y-116584335D01*
X123919023Y-116495197D01*
X123879783Y-116402559D01*
X123840783Y-116309337D01*
X123803249Y-116218450D01*
X123768409Y-116132814D01*
X123737488Y-116055345D01*
X123711714Y-115988962D01*
X123692311Y-115936582D01*
X123680508Y-115901121D01*
X123677531Y-115885496D01*
X123677732Y-115885039D01*
X123691601Y-115870595D01*
X123720611Y-115847974D01*
X123758772Y-115821864D01*
X123770817Y-115813892D01*
X123862469Y-115738256D01*
X123938323Y-115648169D01*
X123996581Y-115547381D01*
X124035448Y-115439640D01*
X124053128Y-115328697D01*
X124047826Y-115218303D01*
X124026347Y-115120115D01*
X123987782Y-115020966D01*
X123931562Y-114932512D01*
X123854410Y-114848487D01*
X123824095Y-114821645D01*
X123726094Y-114755510D01*
X123620227Y-114710970D01*
X123509561Y-114687625D01*
X123397164Y-114685078D01*
X123286105Y-114702929D01*
X123179451Y-114740780D01*
X123080270Y-114798232D01*
X122991631Y-114874887D01*
X122916600Y-114970345D01*
X122902175Y-114993985D01*
X122853143Y-115102034D01*
X122827103Y-115214548D01*
X122823372Y-115328614D01*
X122841268Y-115441318D01*
X122880109Y-115549745D01*
X122939214Y-115650982D01*
X123017900Y-115742114D01*
X123115485Y-115820228D01*
X123118654Y-115822333D01*
X123156411Y-115848940D01*
X123184709Y-115871561D01*
X123197634Y-115885496D01*
X123196003Y-115896421D01*
X123185864Y-115928231D01*
X123167884Y-115977534D01*
X123143292Y-116041413D01*
X123113311Y-116116948D01*
X123079170Y-116201223D01*
X123042092Y-116291320D01*
X123003306Y-116384321D01*
X122964036Y-116477308D01*
X122925509Y-116567364D01*
X122888950Y-116651571D01*
X122855586Y-116727010D01*
X122826643Y-116790765D01*
X122803346Y-116839917D01*
X122786923Y-116871549D01*
X122778598Y-116882743D01*
X122771674Y-116881227D01*
X122744477Y-116870331D01*
X122704280Y-116851228D01*
X122657009Y-116826650D01*
X122553248Y-116770547D01*
X122429639Y-116854155D01*
X122393120Y-116878913D01*
X122325194Y-116925171D01*
X122257475Y-116971503D01*
X122200291Y-117010852D01*
X122168732Y-117032297D01*
X122127714Y-117058939D01*
X122097301Y-117077178D01*
X122082446Y-117083941D01*
X122076065Y-117081070D01*
X122052996Y-117063485D01*
X122017433Y-117032523D01*
X121972471Y-116991231D01*
X121921206Y-116942653D01*
X121866733Y-116889835D01*
X121812148Y-116835823D01*
X121760547Y-116783661D01*
X121715024Y-116736396D01*
X121678675Y-116697072D01*
X121654595Y-116668736D01*
X121645881Y-116654432D01*
X121646383Y-116651711D01*
X121656755Y-116629560D01*
X121678912Y-116591235D01*
X121710712Y-116540200D01*
X121750016Y-116479914D01*
X121794681Y-116413842D01*
X121807207Y-116395617D01*
X121851193Y-116331485D01*
X121889937Y-116274789D01*
X121921182Y-116228844D01*
X121942669Y-116196970D01*
X121952140Y-116182483D01*
X121952373Y-116181862D01*
X121949578Y-116164139D01*
X121938903Y-116128235D01*
X121922081Y-116078662D01*
X121900843Y-116019932D01*
X121876921Y-115956556D01*
X121852046Y-115893046D01*
X121827950Y-115833913D01*
X121806365Y-115783669D01*
X121789023Y-115746826D01*
X121777655Y-115727894D01*
X121776516Y-115726719D01*
X121768376Y-115720773D01*
X121754629Y-115714776D01*
X121732537Y-115708114D01*
X121699363Y-115700173D01*
X121652370Y-115690337D01*
X121588820Y-115677991D01*
X121505976Y-115662520D01*
X121401100Y-115643310D01*
X121379348Y-115639267D01*
X121317036Y-115626769D01*
X121264619Y-115614927D01*
X121227066Y-115604917D01*
X121209343Y-115597916D01*
X121206378Y-115592075D01*
X121201435Y-115564016D01*
X121197518Y-115517500D01*
X121194629Y-115456886D01*
X121192773Y-115386532D01*
X121191952Y-115310796D01*
X121192168Y-115234037D01*
X121193426Y-115160612D01*
X121195728Y-115094880D01*
X121199076Y-115041200D01*
X121203474Y-115003930D01*
X121208926Y-114987427D01*
X121214491Y-114984989D01*
X121242178Y-114977305D01*
X121288979Y-114966436D01*
X121351157Y-114953192D01*
X121424979Y-114938384D01*
X121506710Y-114922823D01*
X121551336Y-114914509D01*
X121627824Y-114900092D01*
X121693660Y-114887467D01*
X121745323Y-114877321D01*
X121779293Y-114870341D01*
X121792048Y-114867212D01*
X121792528Y-114866568D01*
X121800651Y-114850181D01*
X121816137Y-114815852D01*
X121837050Y-114768136D01*
X121861455Y-114711586D01*
X121887416Y-114650758D01*
X121912997Y-114590206D01*
X121936262Y-114534485D01*
X121955277Y-114488150D01*
X121968105Y-114455755D01*
X121972812Y-114441855D01*
X121970736Y-114436965D01*
X121956920Y-114413692D01*
X121931860Y-114374519D01*
X121897568Y-114322520D01*
X121856059Y-114260768D01*
X121809346Y-114192336D01*
X121783718Y-114154860D01*
X121739490Y-114089156D01*
X121701570Y-114031492D01*
X121671980Y-113985014D01*
X121652743Y-113952865D01*
X121645881Y-113938190D01*
X121650649Y-113930230D01*
X121670593Y-113906446D01*
X121703313Y-113870451D01*
X121745805Y-113825295D01*
X121795065Y-113774028D01*
X121848091Y-113719701D01*
X121901877Y-113665364D01*
X121953421Y-113614067D01*
X121999720Y-113568859D01*
X122037769Y-113532792D01*
X122064565Y-113508914D01*
X122077105Y-113500278D01*
X122084066Y-113503636D01*
X122109627Y-113519210D01*
X122150874Y-113545715D01*
X122204837Y-113581210D01*
X122268542Y-113623750D01*
X122339016Y-113671395D01*
X122590662Y-113842512D01*
X123010188Y-113669570D01*
X123067036Y-113368018D01*
X123123885Y-113066466D01*
X123751540Y-113066466D01*
X123808389Y-113368018D01*
X121644540Y-117536030D02*
X121601289Y-117549245D01*
X121601289Y-117549245D02*
X121573442Y-117565941D01*
X121573442Y-117565941D02*
X121564371Y-117579145D01*
X121564371Y-117579145D02*
X121566868Y-117594797D01*
X121566868Y-117594797D02*
X121583069Y-117619385D01*
X121583069Y-117619385D02*
X121596768Y-117636800D01*
X121596768Y-117636800D02*
X121625008Y-117668283D01*
X121625008Y-117668283D02*
X121646225Y-117681529D01*
X121646225Y-117681529D02*
X121664312Y-117680664D01*
X121664312Y-117680664D02*
X121717965Y-117667010D01*
X121717965Y-117667010D02*
X121757370Y-117667630D01*
X121757370Y-117667630D02*
X121789368Y-117683104D01*
X121789368Y-117683104D02*
X121800110Y-117692161D01*
X121800110Y-117692161D02*
X121834495Y-117724027D01*
X121834495Y-117724027D02*
X121834495Y-118140179D01*
X121834495Y-118140179D02*
X121972812Y-118140179D01*
X121972812Y-118140179D02*
X121972812Y-117536614D01*
X121972812Y-117536614D02*
X121903653Y-117536614D01*
X121903653Y-117536614D02*
X121862131Y-117538256D01*
X121862131Y-117538256D02*
X121840709Y-117544087D01*
X121840709Y-117544087D02*
X121834498Y-117555461D01*
X121834498Y-117555461D02*
X121834495Y-117555798D01*
X121834495Y-117555798D02*
X121831561Y-117567713D01*
X121831561Y-117567713D02*
X121818296Y-117566159D01*
X121818296Y-117566159D02*
X121799916Y-117557563D01*
X121799916Y-117557563D02*
X121761954Y-117541568D01*
X121761954Y-117541568D02*
X121731128Y-117531945D01*
X121731128Y-117531945D02*
X121691464Y-117529478D01*
X121691464Y-117529478D02*
X121644540Y-117536030D01*
X121644540Y-117536030D02*
X121644540Y-117536030D01*
G36*
X121731128Y-117531945D02*
G01*
X121761954Y-117541568D01*
X121799916Y-117557563D01*
X121818296Y-117566159D01*
X121831561Y-117567713D01*
X121834495Y-117555798D01*
X121834498Y-117555461D01*
X121840709Y-117544087D01*
X121862131Y-117538256D01*
X121903653Y-117536614D01*
X121972812Y-117536614D01*
X121972812Y-118140179D01*
X121834495Y-118140179D01*
X121834495Y-117724027D01*
X121800110Y-117692161D01*
X121789368Y-117683104D01*
X121757370Y-117667630D01*
X121717965Y-117667010D01*
X121664312Y-117680664D01*
X121646225Y-117681529D01*
X121625008Y-117668283D01*
X121596768Y-117636800D01*
X121583069Y-117619385D01*
X121566868Y-117594797D01*
X121564371Y-117579145D01*
X121573442Y-117565941D01*
X121601289Y-117549245D01*
X121644540Y-117536030D01*
X121691464Y-117529478D01*
X121731128Y-117531945D01*
G37*
X121731128Y-117531945D02*
X121761954Y-117541568D01*
X121799916Y-117557563D01*
X121818296Y-117566159D01*
X121831561Y-117567713D01*
X121834495Y-117555798D01*
X121834498Y-117555461D01*
X121840709Y-117544087D01*
X121862131Y-117538256D01*
X121903653Y-117536614D01*
X121972812Y-117536614D01*
X121972812Y-118140179D01*
X121834495Y-118140179D01*
X121834495Y-117724027D01*
X121800110Y-117692161D01*
X121789368Y-117683104D01*
X121757370Y-117667630D01*
X121717965Y-117667010D01*
X121664312Y-117680664D01*
X121646225Y-117681529D01*
X121625008Y-117668283D01*
X121596768Y-117636800D01*
X121583069Y-117619385D01*
X121566868Y-117594797D01*
X121564371Y-117579145D01*
X121573442Y-117565941D01*
X121601289Y-117549245D01*
X121644540Y-117536030D01*
X121691464Y-117529478D01*
X121731128Y-117531945D01*
X123429983Y-117534452D02*
X123382366Y-117543482D01*
X123382366Y-117543482D02*
X123332966Y-117562370D01*
X123332966Y-117562370D02*
X123327688Y-117564777D01*
X123327688Y-117564777D02*
X123290226Y-117584476D01*
X123290226Y-117584476D02*
X123264283Y-117602781D01*
X123264283Y-117602781D02*
X123255897Y-117614508D01*
X123255897Y-117614508D02*
X123263883Y-117633632D01*
X123263883Y-117633632D02*
X123283280Y-117661850D01*
X123283280Y-117661850D02*
X123291890Y-117672384D01*
X123291890Y-117672384D02*
X123327372Y-117713847D01*
X123327372Y-117713847D02*
X123373115Y-117686858D01*
X123373115Y-117686858D02*
X123416650Y-117668878D01*
X123416650Y-117668878D02*
X123466950Y-117659267D01*
X123466950Y-117659267D02*
X123515188Y-117658660D01*
X123515188Y-117658660D02*
X123552533Y-117667691D01*
X123552533Y-117667691D02*
X123561495Y-117673327D01*
X123561495Y-117673327D02*
X123578563Y-117699171D01*
X123578563Y-117699171D02*
X123580637Y-117728941D01*
X123580637Y-117728941D02*
X123567866Y-117752197D01*
X123567866Y-117752197D02*
X123560312Y-117756708D01*
X123560312Y-117756708D02*
X123537675Y-117762309D01*
X123537675Y-117762309D02*
X123497885Y-117768892D01*
X123497885Y-117768892D02*
X123448834Y-117775183D01*
X123448834Y-117775183D02*
X123439785Y-117776170D01*
X123439785Y-117776170D02*
X123361004Y-117789798D01*
X123361004Y-117789798D02*
X123303864Y-117812946D01*
X123303864Y-117812946D02*
X123265970Y-117847752D01*
X123265970Y-117847752D02*
X123244921Y-117896354D01*
X123244921Y-117896354D02*
X123238365Y-117955718D01*
X123238365Y-117955718D02*
X123247423Y-118023198D01*
X123247423Y-118023198D02*
X123276836Y-118076188D01*
X123276836Y-118076188D02*
X123326722Y-118114783D01*
X123326722Y-118114783D02*
X123397200Y-118139081D01*
X123397200Y-118139081D02*
X123475435Y-118148667D01*
X123475435Y-118148667D02*
X123539234Y-118148552D01*
X123539234Y-118148552D02*
X123590984Y-118139845D01*
X123590984Y-118139845D02*
X123626327Y-118127825D01*
X123626327Y-118127825D02*
X123670983Y-118106880D01*
X123670983Y-118106880D02*
X123712253Y-118082574D01*
X123712253Y-118082574D02*
X123726921Y-118071876D01*
X123726921Y-118071876D02*
X123764643Y-118041084D01*
X123764643Y-118041084D02*
X123719148Y-117995049D01*
X123719148Y-117995049D02*
X123673653Y-117949013D01*
X123673653Y-117949013D02*
X123621928Y-117983243D01*
X123621928Y-117983243D02*
X123570048Y-118008952D01*
X123570048Y-118008952D02*
X123514649Y-118022399D01*
X123514649Y-118022399D02*
X123461395Y-118023818D01*
X123461395Y-118023818D02*
X123415951Y-118013443D01*
X123415951Y-118013443D02*
X123383984Y-117991507D01*
X123383984Y-117991507D02*
X123373662Y-117972998D01*
X123373662Y-117972998D02*
X123375211Y-117943314D01*
X123375211Y-117943314D02*
X123400860Y-117920615D01*
X123400860Y-117920615D02*
X123450540Y-117904940D01*
X123450540Y-117904940D02*
X123504969Y-117897695D01*
X123504969Y-117897695D02*
X123588736Y-117883873D01*
X123588736Y-117883873D02*
X123650967Y-117857796D01*
X123650967Y-117857796D02*
X123692493Y-117818699D01*
X123692493Y-117818699D02*
X123714147Y-117765820D01*
X123714147Y-117765820D02*
X123717147Y-117703126D01*
X123717147Y-117703126D02*
X123702329Y-117637642D01*
X123702329Y-117637642D02*
X123668546Y-117588144D01*
X123668546Y-117588144D02*
X123615495Y-117554408D01*
X123615495Y-117554408D02*
X123542874Y-117536207D01*
X123542874Y-117536207D02*
X123489072Y-117532639D01*
X123489072Y-117532639D02*
X123429983Y-117534452D01*
X123429983Y-117534452D02*
X123429983Y-117534452D01*
G36*
X123542874Y-117536207D02*
G01*
X123615495Y-117554408D01*
X123668546Y-117588144D01*
X123702329Y-117637642D01*
X123717147Y-117703126D01*
X123714147Y-117765820D01*
X123692493Y-117818699D01*
X123650967Y-117857796D01*
X123588736Y-117883873D01*
X123504969Y-117897695D01*
X123450540Y-117904940D01*
X123400860Y-117920615D01*
X123375211Y-117943314D01*
X123373662Y-117972998D01*
X123383984Y-117991507D01*
X123415951Y-118013443D01*
X123461395Y-118023818D01*
X123514649Y-118022399D01*
X123570048Y-118008952D01*
X123621928Y-117983243D01*
X123673653Y-117949013D01*
X123719148Y-117995049D01*
X123764643Y-118041084D01*
X123726921Y-118071876D01*
X123712253Y-118082574D01*
X123670983Y-118106880D01*
X123626327Y-118127825D01*
X123590984Y-118139845D01*
X123539234Y-118148552D01*
X123475435Y-118148667D01*
X123397200Y-118139081D01*
X123326722Y-118114783D01*
X123276836Y-118076188D01*
X123247423Y-118023198D01*
X123238365Y-117955718D01*
X123244921Y-117896354D01*
X123265970Y-117847752D01*
X123303864Y-117812946D01*
X123361004Y-117789798D01*
X123439785Y-117776170D01*
X123448834Y-117775183D01*
X123497885Y-117768892D01*
X123537675Y-117762309D01*
X123560312Y-117756708D01*
X123567866Y-117752197D01*
X123580637Y-117728941D01*
X123578563Y-117699171D01*
X123561495Y-117673327D01*
X123552533Y-117667691D01*
X123515188Y-117658660D01*
X123466950Y-117659267D01*
X123416650Y-117668878D01*
X123373115Y-117686858D01*
X123327372Y-117713847D01*
X123291890Y-117672384D01*
X123283280Y-117661850D01*
X123263883Y-117633632D01*
X123255897Y-117614508D01*
X123264283Y-117602781D01*
X123290226Y-117584476D01*
X123327688Y-117564777D01*
X123332966Y-117562370D01*
X123382366Y-117543482D01*
X123429983Y-117534452D01*
X123489072Y-117532639D01*
X123542874Y-117536207D01*
G37*
X123542874Y-117536207D02*
X123615495Y-117554408D01*
X123668546Y-117588144D01*
X123702329Y-117637642D01*
X123717147Y-117703126D01*
X123714147Y-117765820D01*
X123692493Y-117818699D01*
X123650967Y-117857796D01*
X123588736Y-117883873D01*
X123504969Y-117897695D01*
X123450540Y-117904940D01*
X123400860Y-117920615D01*
X123375211Y-117943314D01*
X123373662Y-117972998D01*
X123383984Y-117991507D01*
X123415951Y-118013443D01*
X123461395Y-118023818D01*
X123514649Y-118022399D01*
X123570048Y-118008952D01*
X123621928Y-117983243D01*
X123673653Y-117949013D01*
X123719148Y-117995049D01*
X123764643Y-118041084D01*
X123726921Y-118071876D01*
X123712253Y-118082574D01*
X123670983Y-118106880D01*
X123626327Y-118127825D01*
X123590984Y-118139845D01*
X123539234Y-118148552D01*
X123475435Y-118148667D01*
X123397200Y-118139081D01*
X123326722Y-118114783D01*
X123276836Y-118076188D01*
X123247423Y-118023198D01*
X123238365Y-117955718D01*
X123244921Y-117896354D01*
X123265970Y-117847752D01*
X123303864Y-117812946D01*
X123361004Y-117789798D01*
X123439785Y-117776170D01*
X123448834Y-117775183D01*
X123497885Y-117768892D01*
X123537675Y-117762309D01*
X123560312Y-117756708D01*
X123567866Y-117752197D01*
X123580637Y-117728941D01*
X123578563Y-117699171D01*
X123561495Y-117673327D01*
X123552533Y-117667691D01*
X123515188Y-117658660D01*
X123466950Y-117659267D01*
X123416650Y-117668878D01*
X123373115Y-117686858D01*
X123327372Y-117713847D01*
X123291890Y-117672384D01*
X123283280Y-117661850D01*
X123263883Y-117633632D01*
X123255897Y-117614508D01*
X123264283Y-117602781D01*
X123290226Y-117584476D01*
X123327688Y-117564777D01*
X123332966Y-117562370D01*
X123382366Y-117543482D01*
X123429983Y-117534452D01*
X123489072Y-117532639D01*
X123542874Y-117536207D01*
X123162476Y-118482237D02*
X123112745Y-118485971D01*
X123112745Y-118485971D02*
X122982709Y-118875773D01*
X122982709Y-118875773D02*
X122962322Y-118806614D01*
X122962322Y-118806614D02*
X122950054Y-118763874D01*
X122950054Y-118763874D02*
X122933915Y-118706115D01*
X122933915Y-118706115D02*
X122916488Y-118642625D01*
X122916488Y-118642625D02*
X122907274Y-118608570D01*
X122907274Y-118608570D02*
X122872612Y-118479683D01*
X122872612Y-118479683D02*
X122729609Y-118479683D01*
X122729609Y-118479683D02*
X122772354Y-118614857D01*
X122772354Y-118614857D02*
X122793404Y-118681342D01*
X122793404Y-118681342D02*
X122818833Y-118761539D01*
X122818833Y-118761539D02*
X122845390Y-118845193D01*
X122845390Y-118845193D02*
X122869098Y-118919782D01*
X122869098Y-118919782D02*
X122923098Y-119089535D01*
X122923098Y-119089535D02*
X122981402Y-119093328D01*
X122981402Y-119093328D02*
X123039705Y-119097122D01*
X123039705Y-119097122D02*
X123071321Y-118992734D01*
X123071321Y-118992734D02*
X123090818Y-118927889D01*
X123090818Y-118927889D02*
X123112096Y-118856400D01*
X123112096Y-118856400D02*
X123130692Y-118793263D01*
X123130692Y-118793263D02*
X123131426Y-118790750D01*
X123131426Y-118790750D02*
X123145316Y-118747969D01*
X123145316Y-118747969D02*
X123157571Y-118718779D01*
X123157571Y-118718779D02*
X123166154Y-118707741D01*
X123166154Y-118707741D02*
X123167918Y-118709018D01*
X123167918Y-118709018D02*
X123174109Y-118726130D01*
X123174109Y-118726130D02*
X123185872Y-118762787D01*
X123185872Y-118762787D02*
X123201775Y-118814378D01*
X123201775Y-118814378D02*
X123220386Y-118876294D01*
X123220386Y-118876294D02*
X123230457Y-118910352D01*
X123230457Y-118910352D02*
X123284993Y-119095822D01*
X123284993Y-119095822D02*
X123400736Y-119095822D01*
X123400736Y-119095822D02*
X123493263Y-118803471D01*
X123493263Y-118803471D02*
X123519256Y-118721462D01*
X123519256Y-118721462D02*
X123542934Y-118646987D01*
X123542934Y-118646987D02*
X123563180Y-118583544D01*
X123563180Y-118583544D02*
X123578874Y-118534632D01*
X123578874Y-118534632D02*
X123588898Y-118503749D01*
X123588898Y-118503749D02*
X123591945Y-118494726D01*
X123591945Y-118494726D02*
X123589533Y-118485487D01*
X123589533Y-118485487D02*
X123570592Y-118481441D01*
X123570592Y-118481441D02*
X123531177Y-118481846D01*
X123531177Y-118481846D02*
X123525007Y-118482152D01*
X123525007Y-118482152D02*
X123451914Y-118485971D01*
X123451914Y-118485971D02*
X123404043Y-118662010D01*
X123404043Y-118662010D02*
X123386447Y-118726211D01*
X123386447Y-118726211D02*
X123370723Y-118782649D01*
X123370723Y-118782649D02*
X123358254Y-118826422D01*
X123358254Y-118826422D02*
X123350426Y-118852630D01*
X123350426Y-118852630D02*
X123348980Y-118856903D01*
X123348980Y-118856903D02*
X123342986Y-118851990D01*
X123342986Y-118851990D02*
X123330899Y-118826532D01*
X123330899Y-118826532D02*
X123314107Y-118783997D01*
X123314107Y-118783997D02*
X123293997Y-118727850D01*
X123293997Y-118727850D02*
X123276997Y-118677130D01*
X123276997Y-118677130D02*
X123212206Y-118478504D01*
X123212206Y-118478504D02*
X123162476Y-118482237D01*
X123162476Y-118482237D02*
X123162476Y-118482237D01*
G36*
X123276997Y-118677130D02*
G01*
X123293997Y-118727850D01*
X123314107Y-118783997D01*
X123330899Y-118826532D01*
X123342986Y-118851990D01*
X123348980Y-118856903D01*
X123350426Y-118852630D01*
X123358254Y-118826422D01*
X123370723Y-118782649D01*
X123386447Y-118726211D01*
X123404043Y-118662010D01*
X123451914Y-118485971D01*
X123525007Y-118482152D01*
X123531177Y-118481846D01*
X123570592Y-118481441D01*
X123589533Y-118485487D01*
X123591945Y-118494726D01*
X123588898Y-118503749D01*
X123578874Y-118534632D01*
X123563180Y-118583544D01*
X123542934Y-118646987D01*
X123519256Y-118721462D01*
X123493263Y-118803471D01*
X123400736Y-119095822D01*
X123284993Y-119095822D01*
X123230457Y-118910352D01*
X123220386Y-118876294D01*
X123201775Y-118814378D01*
X123185872Y-118762787D01*
X123174109Y-118726130D01*
X123167918Y-118709018D01*
X123166154Y-118707741D01*
X123157571Y-118718779D01*
X123145316Y-118747969D01*
X123131426Y-118790750D01*
X123130692Y-118793263D01*
X123112096Y-118856400D01*
X123090818Y-118927889D01*
X123071321Y-118992734D01*
X123039705Y-119097122D01*
X122981402Y-119093328D01*
X122923098Y-119089535D01*
X122869098Y-118919782D01*
X122845390Y-118845193D01*
X122818833Y-118761539D01*
X122793404Y-118681342D01*
X122772354Y-118614857D01*
X122729609Y-118479683D01*
X122872612Y-118479683D01*
X122907274Y-118608570D01*
X122916488Y-118642625D01*
X122933915Y-118706115D01*
X122950054Y-118763874D01*
X122962322Y-118806614D01*
X122982709Y-118875773D01*
X123112745Y-118485971D01*
X123162476Y-118482237D01*
X123212206Y-118478504D01*
X123276997Y-118677130D01*
G37*
X123276997Y-118677130D02*
X123293997Y-118727850D01*
X123314107Y-118783997D01*
X123330899Y-118826532D01*
X123342986Y-118851990D01*
X123348980Y-118856903D01*
X123350426Y-118852630D01*
X123358254Y-118826422D01*
X123370723Y-118782649D01*
X123386447Y-118726211D01*
X123404043Y-118662010D01*
X123451914Y-118485971D01*
X123525007Y-118482152D01*
X123531177Y-118481846D01*
X123570592Y-118481441D01*
X123589533Y-118485487D01*
X123591945Y-118494726D01*
X123588898Y-118503749D01*
X123578874Y-118534632D01*
X123563180Y-118583544D01*
X123542934Y-118646987D01*
X123519256Y-118721462D01*
X123493263Y-118803471D01*
X123400736Y-119095822D01*
X123284993Y-119095822D01*
X123230457Y-118910352D01*
X123220386Y-118876294D01*
X123201775Y-118814378D01*
X123185872Y-118762787D01*
X123174109Y-118726130D01*
X123167918Y-118709018D01*
X123166154Y-118707741D01*
X123157571Y-118718779D01*
X123145316Y-118747969D01*
X123131426Y-118790750D01*
X123130692Y-118793263D01*
X123112096Y-118856400D01*
X123090818Y-118927889D01*
X123071321Y-118992734D01*
X123039705Y-119097122D01*
X122981402Y-119093328D01*
X122923098Y-119089535D01*
X122869098Y-118919782D01*
X122845390Y-118845193D01*
X122818833Y-118761539D01*
X122793404Y-118681342D01*
X122772354Y-118614857D01*
X122729609Y-118479683D01*
X122872612Y-118479683D01*
X122907274Y-118608570D01*
X122916488Y-118642625D01*
X122933915Y-118706115D01*
X122950054Y-118763874D01*
X122962322Y-118806614D01*
X122982709Y-118875773D01*
X123112745Y-118485971D01*
X123162476Y-118482237D01*
X123212206Y-118478504D01*
X123276997Y-118677130D01*
X121226774Y-117541880D02*
X121153920Y-117572830D01*
X121153920Y-117572830D02*
X121130973Y-117587895D01*
X121130973Y-117587895D02*
X121101646Y-117611048D01*
X121101646Y-117611048D02*
X121083236Y-117629253D01*
X121083236Y-117629253D02*
X121080039Y-117635183D01*
X121080039Y-117635183D02*
X121089065Y-117648340D01*
X121089065Y-117648340D02*
X121112163Y-117670667D01*
X121112163Y-117670667D02*
X121130656Y-117686250D01*
X121130656Y-117686250D02*
X121181272Y-117726926D01*
X121181272Y-117726926D02*
X121221240Y-117693295D01*
X121221240Y-117693295D02*
X121252126Y-117671584D01*
X121252126Y-117671584D02*
X121282241Y-117664090D01*
X121282241Y-117664090D02*
X121316708Y-117665920D01*
X121316708Y-117665920D02*
X121371439Y-117679528D01*
X121371439Y-117679528D02*
X121409114Y-117707772D01*
X121409114Y-117707772D02*
X121432009Y-117753433D01*
X121432009Y-117753433D02*
X121442403Y-117819289D01*
X121442403Y-117819289D02*
X121442405Y-117819331D01*
X121442405Y-117819331D02*
X121441506Y-117892939D01*
X121441506Y-117892939D02*
X121427537Y-117946946D01*
X121427537Y-117946946D02*
X121399672Y-117983716D01*
X121399672Y-117983716D02*
X121380675Y-117996168D01*
X121380675Y-117996168D02*
X121330224Y-118011673D01*
X121330224Y-118011673D02*
X121276337Y-118011683D01*
X121276337Y-118011683D02*
X121229454Y-117996638D01*
X121229454Y-117996638D02*
X121218356Y-117989287D01*
X121218356Y-117989287D02*
X121190524Y-117970511D01*
X121190524Y-117970511D02*
X121168764Y-117967434D01*
X121168764Y-117967434D02*
X121145296Y-117981409D01*
X121145296Y-117981409D02*
X121119351Y-118006510D01*
X121119351Y-118006510D02*
X121078284Y-118048880D01*
X121078284Y-118048880D02*
X121123879Y-118086464D01*
X121123879Y-118086464D02*
X121194326Y-118128882D01*
X121194326Y-118128882D02*
X121273767Y-118149785D01*
X121273767Y-118149785D02*
X121356785Y-118148272D01*
X121356785Y-118148272D02*
X121411306Y-118134411D01*
X121411306Y-118134411D02*
X121475030Y-118100135D01*
X121475030Y-118100135D02*
X121525995Y-118046212D01*
X121525995Y-118046212D02*
X121549149Y-118008149D01*
X121549149Y-118008149D02*
X121567901Y-117953536D01*
X121567901Y-117953536D02*
X121577285Y-117884369D01*
X121577285Y-117884369D02*
X121577357Y-117809407D01*
X121577357Y-117809407D02*
X121568176Y-117737409D01*
X121568176Y-117737409D02*
X121549801Y-117677137D01*
X121549801Y-117677137D02*
X121546907Y-117670958D01*
X121546907Y-117670958D02*
X121504048Y-117610351D01*
X121504048Y-117610351D02*
X121446021Y-117566224D01*
X121446021Y-117566224D02*
X121377409Y-117539493D01*
X121377409Y-117539493D02*
X121302799Y-117531073D01*
X121302799Y-117531073D02*
X121226774Y-117541880D01*
X121226774Y-117541880D02*
X121226774Y-117541880D01*
G36*
X121377409Y-117539493D02*
G01*
X121446021Y-117566224D01*
X121504048Y-117610351D01*
X121546907Y-117670958D01*
X121549801Y-117677137D01*
X121568176Y-117737409D01*
X121577357Y-117809407D01*
X121577285Y-117884369D01*
X121567901Y-117953536D01*
X121549149Y-118008149D01*
X121525995Y-118046212D01*
X121475030Y-118100135D01*
X121411306Y-118134411D01*
X121356785Y-118148272D01*
X121273767Y-118149785D01*
X121194326Y-118128882D01*
X121123879Y-118086464D01*
X121078284Y-118048880D01*
X121119351Y-118006510D01*
X121145296Y-117981409D01*
X121168764Y-117967434D01*
X121190524Y-117970511D01*
X121218356Y-117989287D01*
X121229454Y-117996638D01*
X121276337Y-118011683D01*
X121330224Y-118011673D01*
X121380675Y-117996168D01*
X121399672Y-117983716D01*
X121427537Y-117946946D01*
X121441506Y-117892939D01*
X121442405Y-117819331D01*
X121442403Y-117819289D01*
X121432009Y-117753433D01*
X121409114Y-117707772D01*
X121371439Y-117679528D01*
X121316708Y-117665920D01*
X121282241Y-117664090D01*
X121252126Y-117671584D01*
X121221240Y-117693295D01*
X121181272Y-117726926D01*
X121130656Y-117686250D01*
X121112163Y-117670667D01*
X121089065Y-117648340D01*
X121080039Y-117635183D01*
X121083236Y-117629253D01*
X121101646Y-117611048D01*
X121130973Y-117587895D01*
X121153920Y-117572830D01*
X121226774Y-117541880D01*
X121302799Y-117531073D01*
X121377409Y-117539493D01*
G37*
X121377409Y-117539493D02*
X121446021Y-117566224D01*
X121504048Y-117610351D01*
X121546907Y-117670958D01*
X121549801Y-117677137D01*
X121568176Y-117737409D01*
X121577357Y-117809407D01*
X121577285Y-117884369D01*
X121567901Y-117953536D01*
X121549149Y-118008149D01*
X121525995Y-118046212D01*
X121475030Y-118100135D01*
X121411306Y-118134411D01*
X121356785Y-118148272D01*
X121273767Y-118149785D01*
X121194326Y-118128882D01*
X121123879Y-118086464D01*
X121078284Y-118048880D01*
X121119351Y-118006510D01*
X121145296Y-117981409D01*
X121168764Y-117967434D01*
X121190524Y-117970511D01*
X121218356Y-117989287D01*
X121229454Y-117996638D01*
X121276337Y-118011683D01*
X121330224Y-118011673D01*
X121380675Y-117996168D01*
X121399672Y-117983716D01*
X121427537Y-117946946D01*
X121441506Y-117892939D01*
X121442405Y-117819331D01*
X121442403Y-117819289D01*
X121432009Y-117753433D01*
X121409114Y-117707772D01*
X121371439Y-117679528D01*
X121316708Y-117665920D01*
X121282241Y-117664090D01*
X121252126Y-117671584D01*
X121221240Y-117693295D01*
X121181272Y-117726926D01*
X121130656Y-117686250D01*
X121112163Y-117670667D01*
X121089065Y-117648340D01*
X121080039Y-117635183D01*
X121083236Y-117629253D01*
X121101646Y-117611048D01*
X121130973Y-117587895D01*
X121153920Y-117572830D01*
X121226774Y-117541880D01*
X121302799Y-117531073D01*
X121377409Y-117539493D01*
X121808745Y-118479486D02*
X121760405Y-118489015D01*
X121760405Y-118489015D02*
X121732886Y-118503125D01*
X121732886Y-118503125D02*
X121703936Y-118526568D01*
X121703936Y-118526568D02*
X121745124Y-118578571D01*
X121745124Y-118578571D02*
X121770518Y-118610064D01*
X121770518Y-118610064D02*
X121787762Y-118625428D01*
X121787762Y-118625428D02*
X121804898Y-118627776D01*
X121804898Y-118627776D02*
X121829973Y-118620217D01*
X121829973Y-118620217D02*
X121841743Y-118615941D01*
X121841743Y-118615941D02*
X121889730Y-118609631D01*
X121889730Y-118609631D02*
X121933676Y-118623156D01*
X121933676Y-118623156D02*
X121965940Y-118653710D01*
X121965940Y-118653710D02*
X121971181Y-118663452D01*
X121971181Y-118663452D02*
X121976888Y-118689258D01*
X121976888Y-118689258D02*
X121981294Y-118736817D01*
X121981294Y-118736817D02*
X121984189Y-118802758D01*
X121984189Y-118802758D02*
X121985369Y-118883710D01*
X121985369Y-118883710D02*
X121985386Y-118895226D01*
X121985386Y-118895226D02*
X121985386Y-119095822D01*
X121985386Y-119095822D02*
X122123703Y-119095822D01*
X122123703Y-119095822D02*
X122123703Y-118479683D01*
X122123703Y-118479683D02*
X122054544Y-118479683D01*
X122054544Y-118479683D02*
X122014667Y-118480725D01*
X122014667Y-118480725D02*
X121993893Y-118485358D01*
X121993893Y-118485358D02*
X121986211Y-118495849D01*
X121986211Y-118495849D02*
X121985386Y-118505745D01*
X121985386Y-118505745D02*
X121985386Y-118531806D01*
X121985386Y-118531806D02*
X121952255Y-118505745D01*
X121952255Y-118505745D02*
X121914265Y-118487965D01*
X121914265Y-118487965D02*
X121863230Y-118479174D01*
X121863230Y-118479174D02*
X121808745Y-118479486D01*
X121808745Y-118479486D02*
X121808745Y-118479486D01*
G36*
X121914265Y-118487965D02*
G01*
X121952255Y-118505745D01*
X121985386Y-118531806D01*
X121985386Y-118505745D01*
X121986211Y-118495849D01*
X121993893Y-118485358D01*
X122014667Y-118480725D01*
X122054544Y-118479683D01*
X122123703Y-118479683D01*
X122123703Y-119095822D01*
X121985386Y-119095822D01*
X121985386Y-118895226D01*
X121985369Y-118883710D01*
X121984189Y-118802758D01*
X121981294Y-118736817D01*
X121976888Y-118689258D01*
X121971181Y-118663452D01*
X121965940Y-118653710D01*
X121933676Y-118623156D01*
X121889730Y-118609631D01*
X121841743Y-118615941D01*
X121829973Y-118620217D01*
X121804898Y-118627776D01*
X121787762Y-118625428D01*
X121770518Y-118610064D01*
X121745124Y-118578571D01*
X121703936Y-118526568D01*
X121732886Y-118503125D01*
X121760405Y-118489015D01*
X121808745Y-118479486D01*
X121863230Y-118479174D01*
X121914265Y-118487965D01*
G37*
X121914265Y-118487965D02*
X121952255Y-118505745D01*
X121985386Y-118531806D01*
X121985386Y-118505745D01*
X121986211Y-118495849D01*
X121993893Y-118485358D01*
X122014667Y-118480725D01*
X122054544Y-118479683D01*
X122123703Y-118479683D01*
X122123703Y-119095822D01*
X121985386Y-119095822D01*
X121985386Y-118895226D01*
X121985369Y-118883710D01*
X121984189Y-118802758D01*
X121981294Y-118736817D01*
X121976888Y-118689258D01*
X121971181Y-118663452D01*
X121965940Y-118653710D01*
X121933676Y-118623156D01*
X121889730Y-118609631D01*
X121841743Y-118615941D01*
X121829973Y-118620217D01*
X121804898Y-118627776D01*
X121787762Y-118625428D01*
X121770518Y-118610064D01*
X121745124Y-118578571D01*
X121703936Y-118526568D01*
X121732886Y-118503125D01*
X121760405Y-118489015D01*
X121808745Y-118479486D01*
X121863230Y-118479174D01*
X121914265Y-118487965D01*
X124437356Y-118481020D02*
X124418539Y-118486660D01*
X124418539Y-118486660D02*
X124412473Y-118499053D01*
X124412473Y-118499053D02*
X124412218Y-118504647D01*
X124412218Y-118504647D02*
X124411129Y-118520230D01*
X124411129Y-118520230D02*
X124403632Y-118522676D01*
X124403632Y-118522676D02*
X124383381Y-118511993D01*
X124383381Y-118511993D02*
X124371351Y-118504694D01*
X124371351Y-118504694D02*
X124333400Y-118489063D01*
X124333400Y-118489063D02*
X124288072Y-118481334D01*
X124288072Y-118481334D02*
X124240544Y-118480740D01*
X124240544Y-118480740D02*
X124195995Y-118486513D01*
X124195995Y-118486513D02*
X124159602Y-118497884D01*
X124159602Y-118497884D02*
X124136543Y-118514088D01*
X124136543Y-118514088D02*
X124131996Y-118534355D01*
X124131996Y-118534355D02*
X124134291Y-118539843D01*
X124134291Y-118539843D02*
X124151020Y-118562626D01*
X124151020Y-118562626D02*
X124176963Y-118590647D01*
X124176963Y-118590647D02*
X124181655Y-118595177D01*
X124181655Y-118595177D02*
X124206383Y-118616005D01*
X124206383Y-118616005D02*
X124227718Y-118622735D01*
X124227718Y-118622735D02*
X124257555Y-118618038D01*
X124257555Y-118618038D02*
X124269508Y-118614917D01*
X124269508Y-118614917D02*
X124306705Y-118607421D01*
X124306705Y-118607421D02*
X124332859Y-118610792D01*
X124332859Y-118610792D02*
X124354946Y-118622681D01*
X124354946Y-118622681D02*
X124375178Y-118638635D01*
X124375178Y-118638635D02*
X124390079Y-118658700D01*
X124390079Y-118658700D02*
X124400434Y-118686702D01*
X124400434Y-118686702D02*
X124407029Y-118726467D01*
X124407029Y-118726467D02*
X124410649Y-118781823D01*
X124410649Y-118781823D02*
X124412078Y-118856594D01*
X124412078Y-118856594D02*
X124412218Y-118901740D01*
X124412218Y-118901740D02*
X124412218Y-119095822D01*
X124412218Y-119095822D02*
X124537960Y-119095822D01*
X124537960Y-119095822D02*
X124537960Y-118479683D01*
X124537960Y-118479683D02*
X124475089Y-118479683D01*
X124475089Y-118479683D02*
X124437356Y-118481020D01*
X124437356Y-118481020D02*
X124437356Y-118481020D01*
G36*
X124537960Y-119095822D02*
G01*
X124412218Y-119095822D01*
X124412218Y-118901740D01*
X124412078Y-118856594D01*
X124410649Y-118781823D01*
X124407029Y-118726467D01*
X124400434Y-118686702D01*
X124390079Y-118658700D01*
X124375178Y-118638635D01*
X124354946Y-118622681D01*
X124332859Y-118610792D01*
X124306705Y-118607421D01*
X124269508Y-118614917D01*
X124257555Y-118618038D01*
X124227718Y-118622735D01*
X124206383Y-118616005D01*
X124181655Y-118595177D01*
X124176963Y-118590647D01*
X124151020Y-118562626D01*
X124134291Y-118539843D01*
X124131996Y-118534355D01*
X124136543Y-118514088D01*
X124159602Y-118497884D01*
X124195995Y-118486513D01*
X124240544Y-118480740D01*
X124288072Y-118481334D01*
X124333400Y-118489063D01*
X124371351Y-118504694D01*
X124383381Y-118511993D01*
X124403632Y-118522676D01*
X124411129Y-118520230D01*
X124412218Y-118504647D01*
X124412473Y-118499053D01*
X124418539Y-118486660D01*
X124437356Y-118481020D01*
X124475089Y-118479683D01*
X124537960Y-118479683D01*
X124537960Y-119095822D01*
G37*
X124537960Y-119095822D02*
X124412218Y-119095822D01*
X124412218Y-118901740D01*
X124412078Y-118856594D01*
X124410649Y-118781823D01*
X124407029Y-118726467D01*
X124400434Y-118686702D01*
X124390079Y-118658700D01*
X124375178Y-118638635D01*
X124354946Y-118622681D01*
X124332859Y-118610792D01*
X124306705Y-118607421D01*
X124269508Y-118614917D01*
X124257555Y-118618038D01*
X124227718Y-118622735D01*
X124206383Y-118616005D01*
X124181655Y-118595177D01*
X124176963Y-118590647D01*
X124151020Y-118562626D01*
X124134291Y-118539843D01*
X124131996Y-118534355D01*
X124136543Y-118514088D01*
X124159602Y-118497884D01*
X124195995Y-118486513D01*
X124240544Y-118480740D01*
X124288072Y-118481334D01*
X124333400Y-118489063D01*
X124371351Y-118504694D01*
X124383381Y-118511993D01*
X124403632Y-118522676D01*
X124411129Y-118520230D01*
X124412218Y-118504647D01*
X124412473Y-118499053D01*
X124418539Y-118486660D01*
X124437356Y-118481020D01*
X124475089Y-118479683D01*
X124537960Y-118479683D01*
X124537960Y-119095822D01*
X120766102Y-117534457D02*
X120733904Y-117542279D01*
X120733904Y-117542279D02*
X120672175Y-117570921D01*
X120672175Y-117570921D02*
X120619390Y-117614667D01*
X120619390Y-117614667D02*
X120582859Y-117667117D01*
X120582859Y-117667117D02*
X120577840Y-117678893D01*
X120577840Y-117678893D02*
X120570955Y-117709740D01*
X120570955Y-117709740D02*
X120566136Y-117755371D01*
X120566136Y-117755371D02*
X120564495Y-117801492D01*
X120564495Y-117801492D02*
X120564495Y-117888693D01*
X120564495Y-117888693D02*
X120746822Y-117888693D01*
X120746822Y-117888693D02*
X120822021Y-117888978D01*
X120822021Y-117888978D02*
X120874997Y-117890704D01*
X120874997Y-117890704D02*
X120908675Y-117895181D01*
X120908675Y-117895181D02*
X120925980Y-117903720D01*
X120925980Y-117903720D02*
X120929837Y-117917630D01*
X120929837Y-117917630D02*
X120923171Y-117938222D01*
X120923171Y-117938222D02*
X120911230Y-117962315D01*
X120911230Y-117962315D02*
X120877920Y-118002525D01*
X120877920Y-118002525D02*
X120831632Y-118022558D01*
X120831632Y-118022558D02*
X120775056Y-118021905D01*
X120775056Y-118021905D02*
X120710969Y-118000101D01*
X120710969Y-118000101D02*
X120655583Y-117973193D01*
X120655583Y-117973193D02*
X120609625Y-118009532D01*
X120609625Y-118009532D02*
X120563667Y-118045872D01*
X120563667Y-118045872D02*
X120606904Y-118085819D01*
X120606904Y-118085819D02*
X120664626Y-118123563D01*
X120664626Y-118123563D02*
X120735614Y-118146320D01*
X120735614Y-118146320D02*
X120811971Y-118152688D01*
X120811971Y-118152688D02*
X120885801Y-118141268D01*
X120885801Y-118141268D02*
X120897713Y-118137393D01*
X120897713Y-118137393D02*
X120962601Y-118103506D01*
X120962601Y-118103506D02*
X121010870Y-118052986D01*
X121010870Y-118052986D02*
X121043535Y-117984325D01*
X121043535Y-117984325D02*
X121061615Y-117896014D01*
X121061615Y-117896014D02*
X121061825Y-117894121D01*
X121061825Y-117894121D02*
X121063444Y-117797878D01*
X121063444Y-117797878D02*
X121056900Y-117763542D01*
X121056900Y-117763542D02*
X120929148Y-117763542D01*
X120929148Y-117763542D02*
X120917416Y-117768822D01*
X120917416Y-117768822D02*
X120885562Y-117772867D01*
X120885562Y-117772867D02*
X120838603Y-117775176D01*
X120838603Y-117775176D02*
X120808846Y-117775525D01*
X120808846Y-117775525D02*
X120753352Y-117775306D01*
X120753352Y-117775306D02*
X120718654Y-117773916D01*
X120718654Y-117773916D02*
X120700399Y-117770251D01*
X120700399Y-117770251D02*
X120694234Y-117763210D01*
X120694234Y-117763210D02*
X120695805Y-117751690D01*
X120695805Y-117751690D02*
X120697122Y-117747233D01*
X120697122Y-117747233D02*
X120719618Y-117705355D01*
X120719618Y-117705355D02*
X120754997Y-117671604D01*
X120754997Y-117671604D02*
X120786220Y-117656773D01*
X120786220Y-117656773D02*
X120827699Y-117657668D01*
X120827699Y-117657668D02*
X120869731Y-117676164D01*
X120869731Y-117676164D02*
X120904988Y-117706786D01*
X120904988Y-117706786D02*
X120926146Y-117744062D01*
X120926146Y-117744062D02*
X120929148Y-117763542D01*
X120929148Y-117763542D02*
X121056900Y-117763542D01*
X121056900Y-117763542D02*
X121047310Y-117713229D01*
X121047310Y-117713229D02*
X121015302Y-117642191D01*
X121015302Y-117642191D02*
X120969299Y-117586779D01*
X120969299Y-117586779D02*
X120911179Y-117549009D01*
X120911179Y-117549009D02*
X120842820Y-117530896D01*
X120842820Y-117530896D02*
X120766102Y-117534457D01*
X120766102Y-117534457D02*
X120766102Y-117534457D01*
G36*
X121061825Y-117894121D02*
G01*
X121061615Y-117896014D01*
X121043535Y-117984325D01*
X121010870Y-118052986D01*
X120962601Y-118103506D01*
X120897713Y-118137393D01*
X120885801Y-118141268D01*
X120811971Y-118152688D01*
X120735614Y-118146320D01*
X120664626Y-118123563D01*
X120606904Y-118085819D01*
X120563667Y-118045872D01*
X120609625Y-118009532D01*
X120655583Y-117973193D01*
X120710969Y-118000101D01*
X120775056Y-118021905D01*
X120831632Y-118022558D01*
X120877920Y-118002525D01*
X120911230Y-117962315D01*
X120923171Y-117938222D01*
X120929837Y-117917630D01*
X120925980Y-117903720D01*
X120908675Y-117895181D01*
X120874997Y-117890704D01*
X120822021Y-117888978D01*
X120746822Y-117888693D01*
X120564495Y-117888693D01*
X120564495Y-117801492D01*
X120565857Y-117763210D01*
X120694234Y-117763210D01*
X120700399Y-117770251D01*
X120718654Y-117773916D01*
X120753352Y-117775306D01*
X120808846Y-117775525D01*
X120838603Y-117775176D01*
X120885562Y-117772867D01*
X120917416Y-117768822D01*
X120929148Y-117763542D01*
X120926146Y-117744062D01*
X120904988Y-117706786D01*
X120869731Y-117676164D01*
X120827699Y-117657668D01*
X120786220Y-117656773D01*
X120754997Y-117671604D01*
X120719618Y-117705355D01*
X120697122Y-117747233D01*
X120695805Y-117751690D01*
X120694234Y-117763210D01*
X120565857Y-117763210D01*
X120566136Y-117755371D01*
X120570955Y-117709740D01*
X120577840Y-117678893D01*
X120582859Y-117667117D01*
X120619390Y-117614667D01*
X120672175Y-117570921D01*
X120733904Y-117542279D01*
X120766102Y-117534457D01*
X120842820Y-117530896D01*
X120911179Y-117549009D01*
X120969299Y-117586779D01*
X121015302Y-117642191D01*
X121047310Y-117713229D01*
X121056900Y-117763542D01*
X121063444Y-117797878D01*
X121061825Y-117894121D01*
G37*
X121061825Y-117894121D02*
X121061615Y-117896014D01*
X121043535Y-117984325D01*
X121010870Y-118052986D01*
X120962601Y-118103506D01*
X120897713Y-118137393D01*
X120885801Y-118141268D01*
X120811971Y-118152688D01*
X120735614Y-118146320D01*
X120664626Y-118123563D01*
X120606904Y-118085819D01*
X120563667Y-118045872D01*
X120609625Y-118009532D01*
X120655583Y-117973193D01*
X120710969Y-118000101D01*
X120775056Y-118021905D01*
X120831632Y-118022558D01*
X120877920Y-118002525D01*
X120911230Y-117962315D01*
X120923171Y-117938222D01*
X120929837Y-117917630D01*
X120925980Y-117903720D01*
X120908675Y-117895181D01*
X120874997Y-117890704D01*
X120822021Y-117888978D01*
X120746822Y-117888693D01*
X120564495Y-117888693D01*
X120564495Y-117801492D01*
X120565857Y-117763210D01*
X120694234Y-117763210D01*
X120700399Y-117770251D01*
X120718654Y-117773916D01*
X120753352Y-117775306D01*
X120808846Y-117775525D01*
X120838603Y-117775176D01*
X120885562Y-117772867D01*
X120917416Y-117768822D01*
X120929148Y-117763542D01*
X120926146Y-117744062D01*
X120904988Y-117706786D01*
X120869731Y-117676164D01*
X120827699Y-117657668D01*
X120786220Y-117656773D01*
X120754997Y-117671604D01*
X120719618Y-117705355D01*
X120697122Y-117747233D01*
X120695805Y-117751690D01*
X120694234Y-117763210D01*
X120565857Y-117763210D01*
X120566136Y-117755371D01*
X120570955Y-117709740D01*
X120577840Y-117678893D01*
X120582859Y-117667117D01*
X120619390Y-117614667D01*
X120672175Y-117570921D01*
X120733904Y-117542279D01*
X120766102Y-117534457D01*
X120842820Y-117530896D01*
X120911179Y-117549009D01*
X120969299Y-117586779D01*
X121015302Y-117642191D01*
X121047310Y-117713229D01*
X121056900Y-117763542D01*
X121063444Y-117797878D01*
X121061825Y-117894121D01*
X121411419Y-118482970D02*
X121351315Y-118498597D01*
X121351315Y-118498597D02*
X121300979Y-118530848D01*
X121300979Y-118530848D02*
X121276607Y-118554940D01*
X121276607Y-118554940D02*
X121236655Y-118611895D01*
X121236655Y-118611895D02*
X121213758Y-118677965D01*
X121213758Y-118677965D02*
X121205892Y-118759182D01*
X121205892Y-118759182D02*
X121205852Y-118765748D01*
X121205852Y-118765748D02*
X121205782Y-118831763D01*
X121205782Y-118831763D02*
X121585736Y-118831763D01*
X121585736Y-118831763D02*
X121577637Y-118866342D01*
X121577637Y-118866342D02*
X121563013Y-118897659D01*
X121563013Y-118897659D02*
X121537419Y-118930291D01*
X121537419Y-118930291D02*
X121532065Y-118935500D01*
X121532065Y-118935500D02*
X121486057Y-118963694D01*
X121486057Y-118963694D02*
X121433590Y-118968475D01*
X121433590Y-118968475D02*
X121373197Y-118949926D01*
X121373197Y-118949926D02*
X121362960Y-118944931D01*
X121362960Y-118944931D02*
X121331561Y-118929745D01*
X121331561Y-118929745D02*
X121310530Y-118921094D01*
X121310530Y-118921094D02*
X121306861Y-118920293D01*
X121306861Y-118920293D02*
X121294052Y-118928063D01*
X121294052Y-118928063D02*
X121269622Y-118947072D01*
X121269622Y-118947072D02*
X121257221Y-118957460D01*
X121257221Y-118957460D02*
X121231524Y-118981321D01*
X121231524Y-118981321D02*
X121223085Y-118997077D01*
X121223085Y-118997077D02*
X121228942Y-119011571D01*
X121228942Y-119011571D02*
X121232072Y-119015534D01*
X121232072Y-119015534D02*
X121253275Y-119032879D01*
X121253275Y-119032879D02*
X121288262Y-119053959D01*
X121288262Y-119053959D02*
X121312663Y-119066265D01*
X121312663Y-119066265D02*
X121381928Y-119087946D01*
X121381928Y-119087946D02*
X121458612Y-119094971D01*
X121458612Y-119094971D02*
X121531235Y-119086647D01*
X121531235Y-119086647D02*
X121551574Y-119080686D01*
X121551574Y-119080686D02*
X121614524Y-119046952D01*
X121614524Y-119046952D02*
X121661185Y-118995045D01*
X121661185Y-118995045D02*
X121691827Y-118924459D01*
X121691827Y-118924459D02*
X121706718Y-118834692D01*
X121706718Y-118834692D02*
X121708353Y-118787753D01*
X121708353Y-118787753D02*
X121703579Y-118719413D01*
X121703579Y-118719413D02*
X121583010Y-118719413D01*
X121583010Y-118719413D02*
X121571348Y-118724465D01*
X121571348Y-118724465D02*
X121540002Y-118728429D01*
X121540002Y-118728429D02*
X121494429Y-118730768D01*
X121494429Y-118730768D02*
X121463554Y-118731169D01*
X121463554Y-118731169D02*
X121408019Y-118730783D01*
X121408019Y-118730783D02*
X121372967Y-118728975D01*
X121372967Y-118728975D02*
X121353738Y-118724773D01*
X121353738Y-118724773D02*
X121345670Y-118717203D01*
X121345670Y-118717203D02*
X121344099Y-118706218D01*
X121344099Y-118706218D02*
X121354879Y-118672381D01*
X121354879Y-118672381D02*
X121382020Y-118638940D01*
X121382020Y-118638940D02*
X121417723Y-118613272D01*
X121417723Y-118613272D02*
X121453440Y-118602772D01*
X121453440Y-118602772D02*
X121501952Y-118612086D01*
X121501952Y-118612086D02*
X121543947Y-118639013D01*
X121543947Y-118639013D02*
X121573064Y-118677827D01*
X121573064Y-118677827D02*
X121583010Y-118719413D01*
X121583010Y-118719413D02*
X121703579Y-118719413D01*
X121703579Y-118719413D02*
X121701401Y-118688236D01*
X121701401Y-118688236D02*
X121679945Y-118608949D01*
X121679945Y-118608949D02*
X121643530Y-118549263D01*
X121643530Y-118549263D02*
X121591703Y-118508549D01*
X121591703Y-118508549D02*
X121524010Y-118486179D01*
X121524010Y-118486179D02*
X121487338Y-118481871D01*
X121487338Y-118481871D02*
X121411419Y-118482970D01*
X121411419Y-118482970D02*
X121411419Y-118482970D01*
G36*
X121706718Y-118834692D02*
G01*
X121691827Y-118924459D01*
X121661185Y-118995045D01*
X121614524Y-119046952D01*
X121551574Y-119080686D01*
X121531235Y-119086647D01*
X121458612Y-119094971D01*
X121381928Y-119087946D01*
X121312663Y-119066265D01*
X121288262Y-119053959D01*
X121253275Y-119032879D01*
X121232072Y-119015534D01*
X121228942Y-119011571D01*
X121223085Y-118997077D01*
X121231524Y-118981321D01*
X121257221Y-118957460D01*
X121269622Y-118947072D01*
X121294052Y-118928063D01*
X121306861Y-118920293D01*
X121310530Y-118921094D01*
X121331561Y-118929745D01*
X121362960Y-118944931D01*
X121373197Y-118949926D01*
X121433590Y-118968475D01*
X121486057Y-118963694D01*
X121532065Y-118935500D01*
X121537419Y-118930291D01*
X121563013Y-118897659D01*
X121577637Y-118866342D01*
X121585736Y-118831763D01*
X121205782Y-118831763D01*
X121205852Y-118765748D01*
X121205892Y-118759182D01*
X121211022Y-118706218D01*
X121344099Y-118706218D01*
X121345670Y-118717203D01*
X121353738Y-118724773D01*
X121372967Y-118728975D01*
X121408019Y-118730783D01*
X121463554Y-118731169D01*
X121494429Y-118730768D01*
X121540002Y-118728429D01*
X121571348Y-118724465D01*
X121583010Y-118719413D01*
X121573064Y-118677827D01*
X121543947Y-118639013D01*
X121501952Y-118612086D01*
X121453440Y-118602772D01*
X121417723Y-118613272D01*
X121382020Y-118638940D01*
X121354879Y-118672381D01*
X121344099Y-118706218D01*
X121211022Y-118706218D01*
X121213758Y-118677965D01*
X121236655Y-118611895D01*
X121276607Y-118554940D01*
X121300979Y-118530848D01*
X121351315Y-118498597D01*
X121411419Y-118482970D01*
X121487338Y-118481871D01*
X121524010Y-118486179D01*
X121591703Y-118508549D01*
X121643530Y-118549263D01*
X121679945Y-118608949D01*
X121701401Y-118688236D01*
X121703579Y-118719413D01*
X121708353Y-118787753D01*
X121706718Y-118834692D01*
G37*
X121706718Y-118834692D02*
X121691827Y-118924459D01*
X121661185Y-118995045D01*
X121614524Y-119046952D01*
X121551574Y-119080686D01*
X121531235Y-119086647D01*
X121458612Y-119094971D01*
X121381928Y-119087946D01*
X121312663Y-119066265D01*
X121288262Y-119053959D01*
X121253275Y-119032879D01*
X121232072Y-119015534D01*
X121228942Y-119011571D01*
X121223085Y-118997077D01*
X121231524Y-118981321D01*
X121257221Y-118957460D01*
X121269622Y-118947072D01*
X121294052Y-118928063D01*
X121306861Y-118920293D01*
X121310530Y-118921094D01*
X121331561Y-118929745D01*
X121362960Y-118944931D01*
X121373197Y-118949926D01*
X121433590Y-118968475D01*
X121486057Y-118963694D01*
X121532065Y-118935500D01*
X121537419Y-118930291D01*
X121563013Y-118897659D01*
X121577637Y-118866342D01*
X121585736Y-118831763D01*
X121205782Y-118831763D01*
X121205852Y-118765748D01*
X121205892Y-118759182D01*
X121211022Y-118706218D01*
X121344099Y-118706218D01*
X121345670Y-118717203D01*
X121353738Y-118724773D01*
X121372967Y-118728975D01*
X121408019Y-118730783D01*
X121463554Y-118731169D01*
X121494429Y-118730768D01*
X121540002Y-118728429D01*
X121571348Y-118724465D01*
X121583010Y-118719413D01*
X121573064Y-118677827D01*
X121543947Y-118639013D01*
X121501952Y-118612086D01*
X121453440Y-118602772D01*
X121417723Y-118613272D01*
X121382020Y-118638940D01*
X121354879Y-118672381D01*
X121344099Y-118706218D01*
X121211022Y-118706218D01*
X121213758Y-118677965D01*
X121236655Y-118611895D01*
X121276607Y-118554940D01*
X121300979Y-118530848D01*
X121351315Y-118498597D01*
X121411419Y-118482970D01*
X121487338Y-118481871D01*
X121524010Y-118486179D01*
X121591703Y-118508549D01*
X121643530Y-118549263D01*
X121679945Y-118608949D01*
X121701401Y-118688236D01*
X121703579Y-118719413D01*
X121708353Y-118787753D01*
X121706718Y-118834692D01*
X124800699Y-117550614D02*
X124788168Y-117556514D01*
X124788168Y-117556514D02*
X124744799Y-117588283D01*
X124744799Y-117588283D02*
X124703790Y-117634646D01*
X124703790Y-117634646D02*
X124673168Y-117685696D01*
X124673168Y-117685696D02*
X124664459Y-117709166D01*
X124664459Y-117709166D02*
X124656512Y-117751091D01*
X124656512Y-117751091D02*
X124651774Y-117801757D01*
X124651774Y-117801757D02*
X124651199Y-117822679D01*
X124651199Y-117822679D02*
X124651129Y-117888693D01*
X124651129Y-117888693D02*
X125031083Y-117888693D01*
X125031083Y-117888693D02*
X125022983Y-117923273D01*
X125022983Y-117923273D02*
X125003104Y-117964170D01*
X125003104Y-117964170D02*
X124968347Y-117999514D01*
X124968347Y-117999514D02*
X124926998Y-118022282D01*
X124926998Y-118022282D02*
X124900649Y-118027010D01*
X124900649Y-118027010D02*
X124864916Y-118021273D01*
X124864916Y-118021273D02*
X124822282Y-118006882D01*
X124822282Y-118006882D02*
X124807799Y-118000262D01*
X124807799Y-118000262D02*
X124754240Y-117973513D01*
X124754240Y-117973513D02*
X124708533Y-118008376D01*
X124708533Y-118008376D02*
X124682158Y-118031955D01*
X124682158Y-118031955D02*
X124668124Y-118051417D01*
X124668124Y-118051417D02*
X124667414Y-118057129D01*
X124667414Y-118057129D02*
X124679951Y-118070973D01*
X124679951Y-118070973D02*
X124707428Y-118092012D01*
X124707428Y-118092012D02*
X124732366Y-118108425D01*
X124732366Y-118108425D02*
X124799664Y-118137930D01*
X124799664Y-118137930D02*
X124875110Y-118151284D01*
X124875110Y-118151284D02*
X124949888Y-118147812D01*
X124949888Y-118147812D02*
X125009495Y-118129663D01*
X125009495Y-118129663D02*
X125070941Y-118090784D01*
X125070941Y-118090784D02*
X125114608Y-118039595D01*
X125114608Y-118039595D02*
X125141926Y-117973367D01*
X125141926Y-117973367D02*
X125154322Y-117889371D01*
X125154322Y-117889371D02*
X125155421Y-117850936D01*
X125155421Y-117850936D02*
X125151022Y-117762861D01*
X125151022Y-117762861D02*
X125150482Y-117760299D01*
X125150482Y-117760299D02*
X125024582Y-117760299D01*
X125024582Y-117760299D02*
X125021115Y-117768558D01*
X125021115Y-117768558D02*
X125006863Y-117773113D01*
X125006863Y-117773113D02*
X124977470Y-117775065D01*
X124977470Y-117775065D02*
X124928575Y-117775517D01*
X124928575Y-117775517D02*
X124909748Y-117775525D01*
X124909748Y-117775525D02*
X124852467Y-117774843D01*
X124852467Y-117774843D02*
X124816141Y-117772364D01*
X124816141Y-117772364D02*
X124796604Y-117767443D01*
X124796604Y-117767443D02*
X124789690Y-117759434D01*
X124789690Y-117759434D02*
X124789445Y-117756862D01*
X124789445Y-117756862D02*
X124797336Y-117736423D01*
X124797336Y-117736423D02*
X124817085Y-117707789D01*
X124817085Y-117707789D02*
X124825575Y-117697763D01*
X124825575Y-117697763D02*
X124857094Y-117669408D01*
X124857094Y-117669408D02*
X124889949Y-117658259D01*
X124889949Y-117658259D02*
X124907651Y-117657327D01*
X124907651Y-117657327D02*
X124955539Y-117668981D01*
X124955539Y-117668981D02*
X124995699Y-117700285D01*
X124995699Y-117700285D02*
X125021173Y-117745752D01*
X125021173Y-117745752D02*
X125021625Y-117747233D01*
X125021625Y-117747233D02*
X125024582Y-117760299D01*
X125024582Y-117760299D02*
X125150482Y-117760299D01*
X125150482Y-117760299D02*
X125136392Y-117693510D01*
X125136392Y-117693510D02*
X125110038Y-117638025D01*
X125110038Y-117638025D02*
X125077807Y-117598639D01*
X125077807Y-117598639D02*
X125018217Y-117555931D01*
X125018217Y-117555931D02*
X124948168Y-117533109D01*
X124948168Y-117533109D02*
X124873661Y-117531046D01*
X124873661Y-117531046D02*
X124800699Y-117550614D01*
X124800699Y-117550614D02*
X124800699Y-117550614D01*
G36*
X125155421Y-117850936D02*
G01*
X125154322Y-117889371D01*
X125141926Y-117973367D01*
X125114608Y-118039595D01*
X125070941Y-118090784D01*
X125009495Y-118129663D01*
X124949888Y-118147812D01*
X124875110Y-118151284D01*
X124799664Y-118137930D01*
X124732366Y-118108425D01*
X124707428Y-118092012D01*
X124679951Y-118070973D01*
X124667414Y-118057129D01*
X124668124Y-118051417D01*
X124682158Y-118031955D01*
X124708533Y-118008376D01*
X124754240Y-117973513D01*
X124807799Y-118000262D01*
X124822282Y-118006882D01*
X124864916Y-118021273D01*
X124900649Y-118027010D01*
X124926998Y-118022282D01*
X124968347Y-117999514D01*
X125003104Y-117964170D01*
X125022983Y-117923273D01*
X125031083Y-117888693D01*
X124651129Y-117888693D01*
X124651199Y-117822679D01*
X124651774Y-117801757D01*
X124655972Y-117756862D01*
X124789445Y-117756862D01*
X124789690Y-117759434D01*
X124796604Y-117767443D01*
X124816141Y-117772364D01*
X124852467Y-117774843D01*
X124909748Y-117775525D01*
X124928575Y-117775517D01*
X124977470Y-117775065D01*
X125006863Y-117773113D01*
X125021115Y-117768558D01*
X125024582Y-117760299D01*
X125021625Y-117747233D01*
X125021173Y-117745752D01*
X124995699Y-117700285D01*
X124955539Y-117668981D01*
X124907651Y-117657327D01*
X124889949Y-117658259D01*
X124857094Y-117669408D01*
X124825575Y-117697763D01*
X124817085Y-117707789D01*
X124797336Y-117736423D01*
X124789445Y-117756862D01*
X124655972Y-117756862D01*
X124656512Y-117751091D01*
X124664459Y-117709166D01*
X124673168Y-117685696D01*
X124703790Y-117634646D01*
X124744799Y-117588283D01*
X124788168Y-117556514D01*
X124800699Y-117550614D01*
X124873661Y-117531046D01*
X124948168Y-117533109D01*
X125018217Y-117555931D01*
X125077807Y-117598639D01*
X125110038Y-117638025D01*
X125136392Y-117693510D01*
X125150482Y-117760299D01*
X125151022Y-117762861D01*
X125155421Y-117850936D01*
G37*
X125155421Y-117850936D02*
X125154322Y-117889371D01*
X125141926Y-117973367D01*
X125114608Y-118039595D01*
X125070941Y-118090784D01*
X125009495Y-118129663D01*
X124949888Y-118147812D01*
X124875110Y-118151284D01*
X124799664Y-118137930D01*
X124732366Y-118108425D01*
X124707428Y-118092012D01*
X124679951Y-118070973D01*
X124667414Y-118057129D01*
X124668124Y-118051417D01*
X124682158Y-118031955D01*
X124708533Y-118008376D01*
X124754240Y-117973513D01*
X124807799Y-118000262D01*
X124822282Y-118006882D01*
X124864916Y-118021273D01*
X124900649Y-118027010D01*
X124926998Y-118022282D01*
X124968347Y-117999514D01*
X125003104Y-117964170D01*
X125022983Y-117923273D01*
X125031083Y-117888693D01*
X124651129Y-117888693D01*
X124651199Y-117822679D01*
X124651774Y-117801757D01*
X124655972Y-117756862D01*
X124789445Y-117756862D01*
X124789690Y-117759434D01*
X124796604Y-117767443D01*
X124816141Y-117772364D01*
X124852467Y-117774843D01*
X124909748Y-117775525D01*
X124928575Y-117775517D01*
X124977470Y-117775065D01*
X125006863Y-117773113D01*
X125021115Y-117768558D01*
X125024582Y-117760299D01*
X125021625Y-117747233D01*
X125021173Y-117745752D01*
X124995699Y-117700285D01*
X124955539Y-117668981D01*
X124907651Y-117657327D01*
X124889949Y-117658259D01*
X124857094Y-117669408D01*
X124825575Y-117697763D01*
X124817085Y-117707789D01*
X124797336Y-117736423D01*
X124789445Y-117756862D01*
X124655972Y-117756862D01*
X124656512Y-117751091D01*
X124664459Y-117709166D01*
X124673168Y-117685696D01*
X124703790Y-117634646D01*
X124744799Y-117588283D01*
X124788168Y-117556514D01*
X124800699Y-117550614D01*
X124873661Y-117531046D01*
X124948168Y-117533109D01*
X125018217Y-117555931D01*
X125077807Y-117598639D01*
X125110038Y-117638025D01*
X125136392Y-117693510D01*
X125150482Y-117760299D01*
X125151022Y-117762861D01*
X125155421Y-117850936D01*
X125352759Y-117547184D02*
X125326247Y-117560282D01*
X125326247Y-117560282D02*
X125293553Y-117583106D01*
X125293553Y-117583106D02*
X125269725Y-117607996D01*
X125269725Y-117607996D02*
X125253406Y-117639249D01*
X125253406Y-117639249D02*
X125243240Y-117681166D01*
X125243240Y-117681166D02*
X125237872Y-117738044D01*
X125237872Y-117738044D02*
X125235944Y-117814184D01*
X125235944Y-117814184D02*
X125235831Y-117846917D01*
X125235831Y-117846917D02*
X125236161Y-117918656D01*
X125236161Y-117918656D02*
X125237527Y-117969927D01*
X125237527Y-117969927D02*
X125240500Y-118005404D01*
X125240500Y-118005404D02*
X125245649Y-118029763D01*
X125245649Y-118029763D02*
X125253543Y-118047680D01*
X125253543Y-118047680D02*
X125261757Y-118059902D01*
X125261757Y-118059902D02*
X125314187Y-118111905D01*
X125314187Y-118111905D02*
X125375930Y-118143184D01*
X125375930Y-118143184D02*
X125442536Y-118152592D01*
X125442536Y-118152592D02*
X125509558Y-118138980D01*
X125509558Y-118138980D02*
X125530792Y-118129354D01*
X125530792Y-118129354D02*
X125581624Y-118102859D01*
X125581624Y-118102859D02*
X125581624Y-118518052D01*
X125581624Y-118518052D02*
X125544525Y-118498868D01*
X125544525Y-118498868D02*
X125495643Y-118484025D01*
X125495643Y-118484025D02*
X125435561Y-118480222D01*
X125435561Y-118480222D02*
X125375564Y-118487243D01*
X125375564Y-118487243D02*
X125330256Y-118503013D01*
X125330256Y-118503013D02*
X125292675Y-118533047D01*
X125292675Y-118533047D02*
X125260564Y-118576024D01*
X125260564Y-118576024D02*
X125258150Y-118580436D01*
X125258150Y-118580436D02*
X125247967Y-118601221D01*
X125247967Y-118601221D02*
X125240530Y-118622170D01*
X125240530Y-118622170D02*
X125235411Y-118647548D01*
X125235411Y-118647548D02*
X125232181Y-118681618D01*
X125232181Y-118681618D02*
X125230413Y-118728641D01*
X125230413Y-118728641D02*
X125229677Y-118792882D01*
X125229677Y-118792882D02*
X125229544Y-118865176D01*
X125229544Y-118865176D02*
X125229544Y-119095822D01*
X125229544Y-119095822D02*
X125367861Y-119095822D01*
X125367861Y-119095822D02*
X125367861Y-118670533D01*
X125367861Y-118670533D02*
X125406549Y-118637979D01*
X125406549Y-118637979D02*
X125446738Y-118611940D01*
X125446738Y-118611940D02*
X125484797Y-118607205D01*
X125484797Y-118607205D02*
X125523066Y-118619389D01*
X125523066Y-118619389D02*
X125543462Y-118631320D01*
X125543462Y-118631320D02*
X125558642Y-118648313D01*
X125558642Y-118648313D02*
X125569438Y-118673995D01*
X125569438Y-118673995D02*
X125576683Y-118711991D01*
X125576683Y-118711991D02*
X125581208Y-118765926D01*
X125581208Y-118765926D02*
X125583844Y-118839425D01*
X125583844Y-118839425D02*
X125584772Y-118888347D01*
X125584772Y-118888347D02*
X125587911Y-119089535D01*
X125587911Y-119089535D02*
X125653926Y-119093336D01*
X125653926Y-119093336D02*
X125719940Y-119097136D01*
X125719940Y-119097136D02*
X125719940Y-117848650D01*
X125719940Y-117848650D02*
X125581624Y-117848650D01*
X125581624Y-117848650D02*
X125578097Y-117918254D01*
X125578097Y-117918254D02*
X125566215Y-117966569D01*
X125566215Y-117966569D02*
X125544020Y-117996631D01*
X125544020Y-117996631D02*
X125509559Y-118011471D01*
X125509559Y-118011471D02*
X125474742Y-118014436D01*
X125474742Y-118014436D02*
X125435329Y-118011028D01*
X125435329Y-118011028D02*
X125409171Y-117997617D01*
X125409171Y-117997617D02*
X125392814Y-117979896D01*
X125392814Y-117979896D02*
X125379937Y-117960835D01*
X125379937Y-117960835D02*
X125372272Y-117939601D01*
X125372272Y-117939601D02*
X125368861Y-117909849D01*
X125368861Y-117909849D02*
X125368749Y-117865236D01*
X125368749Y-117865236D02*
X125369897Y-117827880D01*
X125369897Y-117827880D02*
X125372532Y-117771604D01*
X125372532Y-117771604D02*
X125376456Y-117734658D01*
X125376456Y-117734658D02*
X125383063Y-117711223D01*
X125383063Y-117711223D02*
X125393749Y-117695480D01*
X125393749Y-117695480D02*
X125403833Y-117686380D01*
X125403833Y-117686380D02*
X125445970Y-117666537D01*
X125445970Y-117666537D02*
X125495840Y-117663332D01*
X125495840Y-117663332D02*
X125524476Y-117670168D01*
X125524476Y-117670168D02*
X125552828Y-117694464D01*
X125552828Y-117694464D02*
X125571609Y-117741728D01*
X125571609Y-117741728D02*
X125580712Y-117811624D01*
X125580712Y-117811624D02*
X125581624Y-117848650D01*
X125581624Y-117848650D02*
X125719940Y-117848650D01*
X125719940Y-117848650D02*
X125719940Y-117536614D01*
X125719940Y-117536614D02*
X125650782Y-117536614D01*
X125650782Y-117536614D02*
X125609260Y-117538256D01*
X125609260Y-117538256D02*
X125587838Y-117544087D01*
X125587838Y-117544087D02*
X125581626Y-117555461D01*
X125581626Y-117555461D02*
X125581624Y-117555798D01*
X125581624Y-117555798D02*
X125578742Y-117566938D01*
X125578742Y-117566938D02*
X125566030Y-117565673D01*
X125566030Y-117565673D02*
X125540757Y-117553433D01*
X125540757Y-117553433D02*
X125481869Y-117534707D01*
X125481869Y-117534707D02*
X125415615Y-117532739D01*
X125415615Y-117532739D02*
X125352759Y-117547184D01*
X125352759Y-117547184D02*
X125352759Y-117547184D01*
G36*
X125653926Y-119093336D02*
G01*
X125587911Y-119089535D01*
X125584772Y-118888347D01*
X125583844Y-118839425D01*
X125581208Y-118765926D01*
X125576683Y-118711991D01*
X125569438Y-118673995D01*
X125558642Y-118648313D01*
X125543462Y-118631320D01*
X125523066Y-118619389D01*
X125484797Y-118607205D01*
X125446738Y-118611940D01*
X125406549Y-118637979D01*
X125367861Y-118670533D01*
X125367861Y-119095822D01*
X125229544Y-119095822D01*
X125229544Y-118865176D01*
X125229677Y-118792882D01*
X125230413Y-118728641D01*
X125232181Y-118681618D01*
X125235411Y-118647548D01*
X125240530Y-118622170D01*
X125247967Y-118601221D01*
X125258150Y-118580436D01*
X125260564Y-118576024D01*
X125292675Y-118533047D01*
X125330256Y-118503013D01*
X125375564Y-118487243D01*
X125435561Y-118480222D01*
X125495643Y-118484025D01*
X125544525Y-118498868D01*
X125581624Y-118518052D01*
X125581624Y-118102859D01*
X125530792Y-118129354D01*
X125509558Y-118138980D01*
X125442536Y-118152592D01*
X125375930Y-118143184D01*
X125314187Y-118111905D01*
X125261757Y-118059902D01*
X125253543Y-118047680D01*
X125245649Y-118029763D01*
X125240500Y-118005404D01*
X125237527Y-117969927D01*
X125236161Y-117918656D01*
X125235915Y-117865236D01*
X125368749Y-117865236D01*
X125368861Y-117909849D01*
X125372272Y-117939601D01*
X125379937Y-117960835D01*
X125392814Y-117979896D01*
X125409171Y-117997617D01*
X125435329Y-118011028D01*
X125474742Y-118014436D01*
X125509559Y-118011471D01*
X125544020Y-117996631D01*
X125566215Y-117966569D01*
X125578097Y-117918254D01*
X125581624Y-117848650D01*
X125580712Y-117811624D01*
X125571609Y-117741728D01*
X125552828Y-117694464D01*
X125524476Y-117670168D01*
X125495840Y-117663332D01*
X125445970Y-117666537D01*
X125403833Y-117686380D01*
X125393749Y-117695480D01*
X125383063Y-117711223D01*
X125376456Y-117734658D01*
X125372532Y-117771604D01*
X125369897Y-117827880D01*
X125368749Y-117865236D01*
X125235915Y-117865236D01*
X125235831Y-117846917D01*
X125235944Y-117814184D01*
X125237872Y-117738044D01*
X125243240Y-117681166D01*
X125253406Y-117639249D01*
X125269725Y-117607996D01*
X125293553Y-117583106D01*
X125326247Y-117560282D01*
X125352759Y-117547184D01*
X125415615Y-117532739D01*
X125481869Y-117534707D01*
X125540757Y-117553433D01*
X125566030Y-117565673D01*
X125578742Y-117566938D01*
X125581624Y-117555798D01*
X125581626Y-117555461D01*
X125587838Y-117544087D01*
X125609260Y-117538256D01*
X125650782Y-117536614D01*
X125719940Y-117536614D01*
X125719940Y-119097136D01*
X125653926Y-119093336D01*
G37*
X125653926Y-119093336D02*
X125587911Y-119089535D01*
X125584772Y-118888347D01*
X125583844Y-118839425D01*
X125581208Y-118765926D01*
X125576683Y-118711991D01*
X125569438Y-118673995D01*
X125558642Y-118648313D01*
X125543462Y-118631320D01*
X125523066Y-118619389D01*
X125484797Y-118607205D01*
X125446738Y-118611940D01*
X125406549Y-118637979D01*
X125367861Y-118670533D01*
X125367861Y-119095822D01*
X125229544Y-119095822D01*
X125229544Y-118865176D01*
X125229677Y-118792882D01*
X125230413Y-118728641D01*
X125232181Y-118681618D01*
X125235411Y-118647548D01*
X125240530Y-118622170D01*
X125247967Y-118601221D01*
X125258150Y-118580436D01*
X125260564Y-118576024D01*
X125292675Y-118533047D01*
X125330256Y-118503013D01*
X125375564Y-118487243D01*
X125435561Y-118480222D01*
X125495643Y-118484025D01*
X125544525Y-118498868D01*
X125581624Y-118518052D01*
X125581624Y-118102859D01*
X125530792Y-118129354D01*
X125509558Y-118138980D01*
X125442536Y-118152592D01*
X125375930Y-118143184D01*
X125314187Y-118111905D01*
X125261757Y-118059902D01*
X125253543Y-118047680D01*
X125245649Y-118029763D01*
X125240500Y-118005404D01*
X125237527Y-117969927D01*
X125236161Y-117918656D01*
X125235915Y-117865236D01*
X125368749Y-117865236D01*
X125368861Y-117909849D01*
X125372272Y-117939601D01*
X125379937Y-117960835D01*
X125392814Y-117979896D01*
X125409171Y-117997617D01*
X125435329Y-118011028D01*
X125474742Y-118014436D01*
X125509559Y-118011471D01*
X125544020Y-117996631D01*
X125566215Y-117966569D01*
X125578097Y-117918254D01*
X125581624Y-117848650D01*
X125580712Y-117811624D01*
X125571609Y-117741728D01*
X125552828Y-117694464D01*
X125524476Y-117670168D01*
X125495840Y-117663332D01*
X125445970Y-117666537D01*
X125403833Y-117686380D01*
X125393749Y-117695480D01*
X125383063Y-117711223D01*
X125376456Y-117734658D01*
X125372532Y-117771604D01*
X125369897Y-117827880D01*
X125368749Y-117865236D01*
X125235915Y-117865236D01*
X125235831Y-117846917D01*
X125235944Y-117814184D01*
X125237872Y-117738044D01*
X125243240Y-117681166D01*
X125253406Y-117639249D01*
X125269725Y-117607996D01*
X125293553Y-117583106D01*
X125326247Y-117560282D01*
X125352759Y-117547184D01*
X125415615Y-117532739D01*
X125481869Y-117534707D01*
X125540757Y-117553433D01*
X125566030Y-117565673D01*
X125578742Y-117566938D01*
X125581624Y-117555798D01*
X125581626Y-117555461D01*
X125587838Y-117544087D01*
X125609260Y-117538256D01*
X125650782Y-117536614D01*
X125719940Y-117536614D01*
X125719940Y-119097136D01*
X125653926Y-119093336D01*
X122450633Y-117732342D02*
X122449445Y-117824563D01*
X122449445Y-117824563D02*
X122445103Y-117894610D01*
X122445103Y-117894610D02*
X122436442Y-117945381D01*
X122436442Y-117945381D02*
X122422296Y-117979772D01*
X122422296Y-117979772D02*
X122401500Y-118000679D01*
X122401500Y-118000679D02*
X122372890Y-118011000D01*
X122372890Y-118011000D02*
X122337465Y-118013636D01*
X122337465Y-118013636D02*
X122300364Y-118010682D01*
X122300364Y-118010682D02*
X122272182Y-117999889D01*
X122272182Y-117999889D02*
X122251757Y-117978360D01*
X122251757Y-117978360D02*
X122237921Y-117943199D01*
X122237921Y-117943199D02*
X122229509Y-117891510D01*
X122229509Y-117891510D02*
X122225357Y-117820394D01*
X122225357Y-117820394D02*
X122224297Y-117732342D01*
X122224297Y-117732342D02*
X122224297Y-117536614D01*
X122224297Y-117536614D02*
X122085980Y-117536614D01*
X122085980Y-117536614D02*
X122085980Y-118140179D01*
X122085980Y-118140179D02*
X122155138Y-118140179D01*
X122155138Y-118140179D02*
X122196830Y-118138489D01*
X122196830Y-118138489D02*
X122218299Y-118132556D01*
X122218299Y-118132556D02*
X122224297Y-118121293D01*
X122224297Y-118121293D02*
X122227909Y-118111261D01*
X122227909Y-118111261D02*
X122242286Y-118113383D01*
X122242286Y-118113383D02*
X122271264Y-118127580D01*
X122271264Y-118127580D02*
X122337681Y-118149480D01*
X122337681Y-118149480D02*
X122408125Y-118147928D01*
X122408125Y-118147928D02*
X122475623Y-118124147D01*
X122475623Y-118124147D02*
X122507767Y-118105362D01*
X122507767Y-118105362D02*
X122532285Y-118085022D01*
X122532285Y-118085022D02*
X122550196Y-118059573D01*
X122550196Y-118059573D02*
X122562521Y-118025458D01*
X122562521Y-118025458D02*
X122570277Y-117979121D01*
X122570277Y-117979121D02*
X122574484Y-117917007D01*
X122574484Y-117917007D02*
X122576160Y-117835561D01*
X122576160Y-117835561D02*
X122576376Y-117772578D01*
X122576376Y-117772578D02*
X122576376Y-117536614D01*
X122576376Y-117536614D02*
X122450633Y-117536614D01*
X122450633Y-117536614D02*
X122450633Y-117732342D01*
X122450633Y-117732342D02*
X122450633Y-117732342D01*
G36*
X122224297Y-117732342D02*
G01*
X122225357Y-117820394D01*
X122229509Y-117891510D01*
X122237921Y-117943199D01*
X122251757Y-117978360D01*
X122272182Y-117999889D01*
X122300364Y-118010682D01*
X122337465Y-118013636D01*
X122372890Y-118011000D01*
X122401500Y-118000679D01*
X122422296Y-117979772D01*
X122436442Y-117945381D01*
X122445103Y-117894610D01*
X122449445Y-117824563D01*
X122450633Y-117732342D01*
X122450633Y-117536614D01*
X122576376Y-117536614D01*
X122576376Y-117772578D01*
X122576160Y-117835561D01*
X122574484Y-117917007D01*
X122570277Y-117979121D01*
X122562521Y-118025458D01*
X122550196Y-118059573D01*
X122532285Y-118085022D01*
X122507767Y-118105362D01*
X122475623Y-118124147D01*
X122408125Y-118147928D01*
X122337681Y-118149480D01*
X122271264Y-118127580D01*
X122242286Y-118113383D01*
X122227909Y-118111261D01*
X122224297Y-118121293D01*
X122218299Y-118132556D01*
X122196830Y-118138489D01*
X122155138Y-118140179D01*
X122085980Y-118140179D01*
X122085980Y-117536614D01*
X122224297Y-117536614D01*
X122224297Y-117732342D01*
G37*
X122224297Y-117732342D02*
X122225357Y-117820394D01*
X122229509Y-117891510D01*
X122237921Y-117943199D01*
X122251757Y-117978360D01*
X122272182Y-117999889D01*
X122300364Y-118010682D01*
X122337465Y-118013636D01*
X122372890Y-118011000D01*
X122401500Y-118000679D01*
X122422296Y-117979772D01*
X122436442Y-117945381D01*
X122445103Y-117894610D01*
X122449445Y-117824563D01*
X122450633Y-117732342D01*
X122450633Y-117536614D01*
X122576376Y-117536614D01*
X122576376Y-117772578D01*
X122576160Y-117835561D01*
X122574484Y-117917007D01*
X122570277Y-117979121D01*
X122562521Y-118025458D01*
X122550196Y-118059573D01*
X122532285Y-118085022D01*
X122507767Y-118105362D01*
X122475623Y-118124147D01*
X122408125Y-118147928D01*
X122337681Y-118149480D01*
X122271264Y-118127580D01*
X122242286Y-118113383D01*
X122227909Y-118111261D01*
X122224297Y-118121293D01*
X122218299Y-118132556D01*
X122196830Y-118138489D01*
X122155138Y-118140179D01*
X122085980Y-118140179D01*
X122085980Y-117536614D01*
X122224297Y-117536614D01*
X122224297Y-117732342D01*
%TD*%
D16*
%TO.C,J3*%
X153987500Y-118017500D03*
D17*
X151447500Y-118017500D03*
X153987500Y-115477500D03*
X151447500Y-115477500D03*
X153987500Y-112937500D03*
X151447500Y-112937500D03*
X153987500Y-110397500D03*
X151447500Y-110397500D03*
X153987500Y-107857500D03*
X151447500Y-107857500D03*
%TD*%
M02*
