M48
; DRILL file {KiCad 6.0.2+dfsg-1} date Mo 03 Okt 2022 17:06:07
; FORMAT={-:-/ absolute / metric / decimal}
; #@! TF.CreationDate,2022-10-03T17:06:07+02:00
; #@! TF.GenerationSoftware,Kicad,Pcbnew,6.0.2+dfsg-1
; #@! TF.FileFunction,Plated,1,2,PTH
FMAT,2
METRIC
; #@! TA.AperFunction,Plated,PTH,ViaDrill
T1C0.800
; #@! TA.AperFunction,Plated,PTH,ComponentDrill
T2C0.810
; #@! TA.AperFunction,Plated,PTH,ComponentDrill
T3C0.813
; #@! TA.AperFunction,Plated,PTH,ComponentDrill
T4C1.000
; #@! TA.AperFunction,Plated,PTH,ComponentDrill
T5C1.016
; #@! TA.AperFunction,Plated,PTH,ComponentDrill
T6C3.000
; #@! TA.AperFunction,Plated,PTH,ComponentDrill
T7C3.000
%
G90
G05
T1
X106.934Y-133.477
X120.523Y-113.03
X123.444Y-121.412
X126.365Y-111.125
X127.635Y-113.947
X136.779Y-115.57
X140.462Y-122.682
X141.986Y-124.46
X147.32Y-122.936
X149.316Y-111.222
T2
X111.125Y-117.475
X111.125Y-120.015
X111.125Y-122.555
X113.665Y-116.205
X113.665Y-118.745
X113.665Y-121.285
T3
X110.109Y-130.937
X110.49Y-107.95
X112.649Y-130.937
X113.03Y-107.95
X115.57Y-107.95
X116.84Y-130.81
X117.983Y-111.252
X117.983Y-121.412
X118.11Y-107.95
X119.38Y-130.81
X120.523Y-123.19
X120.523Y-125.73
X124.079Y-130.81
X126.619Y-130.81
X130.81Y-107.95
X130.81Y-130.81
X133.35Y-107.95
X133.35Y-130.81
X135.89Y-107.95
X135.89Y-130.81
X138.43Y-107.95
X138.43Y-130.81
X140.97Y-107.95
X140.97Y-130.81
X143.51Y-107.95
X143.51Y-130.81
X146.05Y-107.95
X146.05Y-130.81
X148.59Y-107.95
X148.59Y-130.81
T4
X126.365Y-108.458
T5
X151.447Y-107.858
X151.447Y-110.397
X151.447Y-112.938
X151.447Y-115.477
X151.447Y-118.017
X153.987Y-107.858
X153.987Y-110.397
X153.987Y-112.938
X153.987Y-115.477
X153.987Y-118.017
T6
X103.886Y-107.95
X103.886Y-130.81
X153.67Y-130.81
T7
X103.987Y-107.858
X103.987Y-130.718
X104.775Y-114.3
X104.775Y-124.46
T0
M30
