%TF.GenerationSoftware,KiCad,Pcbnew,6.0.2+dfsg-1*%
%TF.CreationDate,2022-10-03T17:06:02+02:00*%
%TF.ProjectId,smartyreader_ng_lora,736d6172-7479-4726-9561-6465725f6e67,rev?*%
%TF.SameCoordinates,Original*%
%TF.FileFunction,Copper,L2,Bot*%
%TF.FilePolarity,Positive*%
%FSLAX46Y46*%
G04 Gerber Fmt 4.6, Leading zero omitted, Abs format (unit mm)*
G04 Created by KiCad (PCBNEW 6.0.2+dfsg-1) date 2022-10-03 17:06:02*
%MOMM*%
%LPD*%
G01*
G04 APERTURE LIST*
%TA.AperFunction,ComponentPad*%
%ADD10C,1.998980*%
%TD*%
%TA.AperFunction,ComponentPad*%
%ADD11O,1.500000X1.998980*%
%TD*%
%TA.AperFunction,ComponentPad*%
%ADD12R,1.998980X1.998980*%
%TD*%
%TA.AperFunction,ComponentPad*%
%ADD13C,5.000000*%
%TD*%
%TA.AperFunction,ComponentPad*%
%ADD14O,2.000000X1.500000*%
%TD*%
%TA.AperFunction,ComponentPad*%
%ADD15C,1.500000*%
%TD*%
%TA.AperFunction,ComponentPad*%
%ADD16C,2.000000*%
%TD*%
%TA.AperFunction,ComponentPad*%
%ADD17C,3.500000*%
%TD*%
%TA.AperFunction,ComponentPad*%
%ADD18C,2.600000*%
%TD*%
%TA.AperFunction,ComponentPad*%
%ADD19C,5.128260*%
%TD*%
%TA.AperFunction,SMDPad,CuDef*%
%ADD20R,1.000000X2.000000*%
%TD*%
%TA.AperFunction,SMDPad,CuDef*%
%ADD21R,1.300000X1.500000*%
%TD*%
%TA.AperFunction,ViaPad*%
%ADD22C,2.000000*%
%TD*%
%TA.AperFunction,Conductor*%
%ADD23C,0.500000*%
%TD*%
%TA.AperFunction,Conductor*%
%ADD24C,0.400000*%
%TD*%
%TA.AperFunction,Conductor*%
%ADD25C,1.000000*%
%TD*%
G04 APERTURE END LIST*
D10*
%TO.P,W1,16,3V3*%
%TO.N,+3.3V*%
X148590000Y-130810000D03*
%TO.P,W1,15,PD_SS_15_D8*%
%TO.N,Net-(D1-Pad2)*%
X146050000Y-130810000D03*
%TO.P,W1,14,MOSI_13_D7*%
%TO.N,Net-(J3-Pad6)*%
X143510000Y-130810000D03*
%TO.P,W1,13,MISO_12_D6*%
%TO.N,Net-(J3-Pad8)*%
X140970000Y-130810000D03*
%TO.P,W1,12,SCK_14_D5*%
%TO.N,Net-(J3-Pad2)*%
X138430000Y-130810000D03*
%TO.P,W1,11,16_D0*%
%TO.N,Net-(U1-Pad5)*%
X135890000Y-130810000D03*
%TO.P,W1,10,max_3V3_A0*%
%TO.N,unconnected-(W1-Pad10)*%
X133350000Y-130810000D03*
%TO.P,W1,9,RST*%
%TO.N,Net-(J3-Pad5)*%
X130810000Y-130810000D03*
%TO.P,W1,8,TX*%
%TO.N,unconnected-(W1-Pad8)*%
X130810000Y-107950000D03*
%TO.P,W1,7,RX*%
%TO.N,Net-(J1-Pad5)*%
X133350000Y-107950000D03*
%TO.P,W1,6,D1_5_SCL*%
%TO.N,Net-(J2-Pad4)*%
X135890000Y-107950000D03*
D11*
%TO.P,W1,5,D2_4_SDA*%
%TO.N,Net-(J2-Pad3)*%
X138430000Y-107950000D03*
%TO.P,W1,4,D3_0_PU*%
%TO.N,Net-(J3-Pad4)*%
X140970000Y-107950000D03*
%TO.P,W1,3,D4_2_LEDPU*%
%TO.N,unconnected-(W1-Pad3)*%
X143510000Y-107950000D03*
%TO.P,W1,2,GND*%
%TO.N,~*%
X146050000Y-107950000D03*
D12*
%TO.P,W1,1,5V*%
%TO.N,+5V*%
X148590000Y-107950000D03*
%TD*%
%TO.P,J3,1,NC*%
%TO.N,unconnected-(J3-Pad1)*%
X153987500Y-118017500D03*
D10*
%TO.P,J3,2,SCKL*%
%TO.N,Net-(J3-Pad2)*%
X151447500Y-118017500D03*
%TO.P,J3,3,INT*%
%TO.N,unconnected-(J3-Pad3)*%
X153987500Y-115477500D03*
%TO.P,J3,4,SCS*%
%TO.N,Net-(J3-Pad4)*%
X151447500Y-115477500D03*
%TO.P,J3,5,RESET*%
%TO.N,Net-(J3-Pad5)*%
X153987500Y-112937500D03*
%TO.P,J3,6,MOSI*%
%TO.N,Net-(J3-Pad6)*%
X151447500Y-112937500D03*
%TO.P,J3,7,GND*%
%TO.N,~*%
X153987500Y-110397500D03*
%TO.P,J3,8,MISO*%
%TO.N,Net-(J3-Pad8)*%
X151447500Y-110397500D03*
%TO.P,J3,9,5V*%
%TO.N,+5V*%
X153987500Y-107857500D03*
%TO.P,J3,10,3.3V*%
%TO.N,unconnected-(J3-Pad10)*%
X151447500Y-107857500D03*
D13*
%TO.P,J3,*%
%TO.N,*%
X103987500Y-107857500D03*
X103987500Y-130717500D03*
%TD*%
D10*
%TO.P,C1,1*%
%TO.N,+5V*%
X120523000Y-123190000D03*
%TO.P,C1,2*%
%TO.N,~*%
X120523000Y-125730000D03*
%TD*%
D14*
%TO.P,J1,1,1*%
%TO.N,+5V*%
X113665000Y-116205000D03*
%TO.P,J1,2,2*%
X111125000Y-117475000D03*
%TO.P,J1,3,3*%
%TO.N,~*%
X113665000Y-118745000D03*
D15*
%TO.P,J1,4,4*%
%TO.N,unconnected-(J1-Pad4)*%
X111125000Y-120015000D03*
D16*
%TO.P,J1,5,5*%
%TO.N,Net-(J1-Pad5)*%
X113665000Y-121285000D03*
%TO.P,J1,6,6*%
%TO.N,~*%
X111125000Y-122555000D03*
D17*
%TO.P,J1,7*%
%TO.N,N/C*%
X104775000Y-114300000D03*
%TO.P,J1,8*%
X104775000Y-124460000D03*
%TD*%
D12*
%TO.P,J2,1,11*%
%TO.N,~*%
X118110000Y-107950000D03*
D10*
%TO.P,J2,2,12*%
%TO.N,+3.3V*%
X115570000Y-107950000D03*
%TO.P,J2,3,13*%
%TO.N,Net-(J2-Pad3)*%
X113030000Y-107950000D03*
%TO.P,J2,4,14*%
%TO.N,Net-(J2-Pad4)*%
X110490000Y-107950000D03*
%TD*%
D12*
%TO.P,J5,1,11*%
%TO.N,+5V*%
X116840000Y-130810000D03*
D10*
%TO.P,J5,2,12*%
%TO.N,~*%
X119380000Y-130810000D03*
%TD*%
%TO.P,R4,1*%
%TO.N,+3.3V*%
X117983000Y-111252000D03*
%TO.P,R4,2*%
%TO.N,Net-(J1-Pad5)*%
X117983000Y-121412000D03*
%TD*%
%TO.P,C3,1*%
%TO.N,+3.3V*%
X124079000Y-130810000D03*
%TO.P,C3,2*%
%TO.N,~*%
X126619000Y-130810000D03*
%TD*%
D18*
%TO.P,J7,1,11*%
%TO.N,Net-(J6-Pad1)*%
X126365000Y-108458000D03*
%TD*%
D12*
%TO.P,C2,1*%
%TO.N,+5V*%
X110109000Y-130937000D03*
D10*
%TO.P,C2,2*%
%TO.N,~*%
X112649000Y-130937000D03*
%TD*%
D19*
%TO.P,H1,1*%
%TO.N,N/C*%
X103886000Y-107950000D03*
%TD*%
%TO.P,H2,1*%
%TO.N,N/C*%
X153670000Y-130810000D03*
%TD*%
%TO.P,H3,1*%
%TO.N,N/C*%
X103886000Y-130810000D03*
%TD*%
D20*
%TO.P,U1,1,GND*%
%TO.N,~*%
X142810000Y-127126000D03*
%TO.P,U1,2,MISO*%
%TO.N,Net-(J3-Pad8)*%
X140810000Y-127126000D03*
%TO.P,U1,3,MOSI*%
%TO.N,Net-(J3-Pad6)*%
X138810000Y-127126000D03*
%TO.P,U1,4,SCK*%
%TO.N,Net-(J3-Pad2)*%
X136810000Y-127126000D03*
%TO.P,U1,5,NSS*%
%TO.N,Net-(U1-Pad5)*%
X134810000Y-127126000D03*
%TO.P,U1,6,RESET*%
%TO.N,Net-(J3-Pad5)*%
X132810000Y-127126000D03*
%TO.P,U1,7,DIO5*%
%TO.N,unconnected-(U1-Pad7)*%
X130810000Y-127126000D03*
%TO.P,U1,8,GND*%
%TO.N,~*%
X128810000Y-127126000D03*
%TO.P,U1,9,ANT*%
%TO.N,Net-(J6-Pad1)*%
X128810000Y-111126000D03*
%TO.P,U1,10,GND*%
%TO.N,~*%
X130810000Y-111126000D03*
%TO.P,U1,11,DIO3*%
%TO.N,unconnected-(U1-Pad11)*%
X132810000Y-111126000D03*
%TO.P,U1,12,DIO4*%
%TO.N,unconnected-(U1-Pad12)*%
X134810000Y-111126000D03*
%TO.P,U1,13,3.3V*%
%TO.N,+3.3V*%
X136810000Y-111126000D03*
%TO.P,U1,14,DIO0*%
%TO.N,Net-(D1-Pad1)*%
X138810000Y-111126000D03*
%TO.P,U1,15,DIO1*%
%TO.N,Net-(D2-Pad1)*%
X140810000Y-111126000D03*
%TO.P,U1,16,DIO2*%
%TO.N,unconnected-(U1-Pad16)*%
X142810000Y-111126000D03*
%TD*%
D21*
%TO.P,D1,1,A*%
%TO.N,Net-(D1-Pad1)*%
X145796000Y-117856000D03*
%TO.P,D1,2,K*%
%TO.N,Net-(D1-Pad2)*%
X145796000Y-120556000D03*
%TD*%
%TO.P,D2,1,A*%
%TO.N,Net-(D2-Pad1)*%
X148336000Y-117776000D03*
%TO.P,D2,2,K*%
%TO.N,Net-(D1-Pad2)*%
X148336000Y-120476000D03*
%TD*%
D22*
%TO.N,Net-(D1-Pad2)*%
X147320000Y-122936000D03*
%TO.N,Net-(J3-Pad2)*%
X140462000Y-122682000D03*
%TO.N,Net-(J3-Pad8)*%
X141986000Y-124460000D03*
X149316459Y-111221709D03*
%TO.N,Net-(J1-Pad5)*%
X123444000Y-121412000D03*
%TO.N,~*%
X127635000Y-113947000D03*
X120523000Y-113030000D03*
%TO.N,Net-(J6-Pad1)*%
X126365000Y-111125000D03*
%TO.N,+3.3V*%
X136779000Y-115570000D03*
X106934000Y-133477000D03*
%TD*%
D23*
%TO.N,Net-(D1-Pad1)*%
X138810000Y-111126000D02*
X138810000Y-112902000D01*
X138810000Y-112902000D02*
X140970000Y-115062000D01*
X140970000Y-115062000D02*
X145034000Y-115062000D01*
X145034000Y-115062000D02*
X145796000Y-115824000D01*
X145796000Y-115824000D02*
X145796000Y-117856000D01*
X145542000Y-118110000D02*
X145796000Y-117856000D01*
%TO.N,Net-(D1-Pad2)*%
X145796000Y-120556000D02*
X148256000Y-120556000D01*
X148256000Y-120556000D02*
X148336000Y-120476000D01*
%TO.N,Net-(D2-Pad1)*%
X140810000Y-111126000D02*
X140810000Y-112362000D01*
X140810000Y-112362000D02*
X141478000Y-113030000D01*
X145542000Y-113030000D02*
X148336000Y-115824000D01*
X141478000Y-113030000D02*
X145542000Y-113030000D01*
X148336000Y-115824000D02*
X148336000Y-117776000D01*
%TO.N,Net-(D1-Pad2)*%
X147320000Y-122936000D02*
X147320000Y-121064000D01*
X147320000Y-121064000D02*
X147574000Y-120810000D01*
%TO.N,Net-(J3-Pad2)*%
X151396480Y-124701520D02*
X151396480Y-118068520D01*
X151396480Y-118068520D02*
X151447500Y-118017500D01*
X140462000Y-122682000D02*
X142748000Y-122682000D01*
X142748000Y-122682000D02*
X146050000Y-125984000D01*
X146050000Y-125984000D02*
X150114000Y-125984000D01*
X150114000Y-125984000D02*
X151396480Y-124701520D01*
%TO.N,~*%
X142810000Y-127126000D02*
X142810000Y-127316000D01*
X142810000Y-127316000D02*
X144272000Y-128778000D01*
X144272000Y-128778000D02*
X149710982Y-128778000D01*
X149710982Y-128778000D02*
X152146000Y-125730000D01*
X152146000Y-124460000D02*
X156210000Y-120396000D01*
X152146000Y-125730000D02*
X152146000Y-124460000D01*
X156210000Y-120396000D02*
X156210000Y-109220000D01*
%TO.N,Net-(J3-Pad8)*%
X150140668Y-110397500D02*
X149316459Y-111221709D01*
X151447500Y-110397500D02*
X150140668Y-110397500D01*
%TO.N,Net-(J3-Pad4)*%
X142494000Y-109474000D02*
X145542000Y-109474000D01*
X140970000Y-107950000D02*
X142494000Y-109474000D01*
X145542000Y-109474000D02*
X145542000Y-109572000D01*
X145542000Y-109572000D02*
X151447500Y-115477500D01*
%TO.N,~*%
X146050000Y-107950000D02*
X146050000Y-106934000D01*
X146050000Y-106934000D02*
X147574000Y-105410000D01*
X147574000Y-105410000D02*
X154940000Y-105410000D01*
X154940000Y-110490000D02*
X154080000Y-110490000D01*
X154940000Y-105410000D02*
X156210000Y-106680000D01*
X156210000Y-106680000D02*
X156210000Y-109220000D01*
X156210000Y-109220000D02*
X154940000Y-110490000D01*
X154080000Y-110490000D02*
X153987500Y-110397500D01*
%TO.N,+5V*%
X148590000Y-107950000D02*
X150181501Y-106358499D01*
X150181501Y-106358499D02*
X152488499Y-106358499D01*
X152488499Y-106358499D02*
X153987500Y-107857500D01*
%TO.N,Net-(J1-Pad5)*%
X123444000Y-107823000D02*
X124968000Y-106299000D01*
X128905000Y-108820998D02*
X129710001Y-109625999D01*
X129710001Y-109625999D02*
X131699000Y-109625999D01*
X127508000Y-106299000D02*
X128905000Y-107696000D01*
X128905000Y-107696000D02*
X128905000Y-108820998D01*
X124968000Y-106299000D02*
X127508000Y-106299000D01*
X123444000Y-117983000D02*
X123444000Y-107823000D01*
X131699000Y-109625999D02*
X131909999Y-109390001D01*
X131909999Y-109390001D02*
X133350000Y-107950000D01*
X123444000Y-117983000D02*
X123444000Y-121412000D01*
%TO.N,~*%
X119634000Y-115316000D02*
X119380000Y-115062000D01*
X119380000Y-115062000D02*
X114808000Y-115062000D01*
X114808000Y-115062000D02*
X113792000Y-114046000D01*
X113792000Y-114046000D02*
X113284000Y-114046000D01*
X110490000Y-114046000D02*
X109220000Y-115316000D01*
X109220000Y-115316000D02*
X109220000Y-118872000D01*
X109220000Y-120650000D02*
X111125000Y-122555000D01*
X118110000Y-108204000D02*
X113284000Y-113030000D01*
X113284000Y-113030000D02*
X113284000Y-114046000D01*
X113284000Y-114046000D02*
X110490000Y-114046000D01*
X109347000Y-118745000D02*
X109220000Y-118872000D01*
X109220000Y-118872000D02*
X109220000Y-120650000D01*
X127079000Y-128857000D02*
X128810000Y-127126000D01*
X121666000Y-128524000D02*
X126746000Y-128524000D01*
X126619000Y-130810000D02*
X126619000Y-129317000D01*
X118110000Y-107950000D02*
X118110000Y-108204000D01*
D24*
X139827000Y-128453002D02*
X139827000Y-125730000D01*
D23*
X126619000Y-129317000D02*
X127079000Y-128857000D01*
X113665000Y-118745000D02*
X109347000Y-118745000D01*
D24*
X142810000Y-127126000D02*
X142810000Y-127954000D01*
D23*
X121666000Y-128524000D02*
X121666000Y-126873000D01*
D24*
X129187000Y-125349000D02*
X128810000Y-125726000D01*
D23*
X121666000Y-126873000D02*
X120523000Y-125730000D01*
X127635000Y-113947000D02*
X129049213Y-113947000D01*
D24*
X142810000Y-127954000D02*
X142163481Y-128600518D01*
X142163481Y-128600518D02*
X142148953Y-128585990D01*
X139959988Y-128585990D02*
X139827000Y-128453002D01*
D23*
X130810000Y-112186213D02*
X130810000Y-111126000D01*
D24*
X139827000Y-125730000D02*
X139446000Y-125349000D01*
X128810000Y-125726000D02*
X128810000Y-127126000D01*
D23*
X119634000Y-113919000D02*
X120523000Y-113030000D01*
X126746000Y-128524000D02*
X127079000Y-128857000D01*
X119380000Y-130810000D02*
X121666000Y-128524000D01*
D24*
X142148953Y-128585990D02*
X139959988Y-128585990D01*
X139446000Y-125349000D02*
X129187000Y-125349000D01*
D23*
X129049213Y-113947000D02*
X130810000Y-112186213D01*
X119634000Y-115316000D02*
X119634000Y-113919000D01*
%TO.N,Net-(J6-Pad1)*%
X128809000Y-111125000D02*
X128810000Y-111126000D01*
X126365000Y-111125000D02*
X128809000Y-111125000D01*
%TO.N,Net-(U1-Pad5)*%
X134810000Y-129730000D02*
X135890000Y-130810000D01*
X134810000Y-127126000D02*
X134810000Y-129730000D01*
D25*
%TO.N,+5V*%
X115824000Y-123190000D02*
X115824000Y-117602000D01*
X114427000Y-116205000D02*
X113665000Y-116205000D01*
X116713000Y-124079000D02*
X115824000Y-123190000D01*
X115824000Y-117602000D02*
X114427000Y-116205000D01*
X119634000Y-124079000D02*
X120523000Y-123190000D01*
X116713000Y-124079000D02*
X119634000Y-124079000D01*
%TO.N,+3.3V*%
X148590000Y-132842000D02*
X147955000Y-133477000D01*
X147955000Y-133477000D02*
X124206000Y-133477000D01*
X124079000Y-133350000D02*
X124206000Y-133477000D01*
X124206000Y-133477000D02*
X106934000Y-133477000D01*
X136810000Y-115539000D02*
X136779000Y-115570000D01*
X136810000Y-111126000D02*
X136810000Y-115539000D01*
X124079000Y-130810000D02*
X124079000Y-133350000D01*
X148590000Y-130810000D02*
X148590000Y-132842000D01*
D23*
%TO.N,Net-(J3-Pad2)*%
X136810000Y-129190000D02*
X138430000Y-130810000D01*
X136810000Y-127126000D02*
X136810000Y-129190000D01*
%TO.N,Net-(J3-Pad5)*%
X130810000Y-130810000D02*
X132810000Y-128810000D01*
X132810000Y-128810000D02*
X132810000Y-127126000D01*
X132810000Y-126725998D02*
X132810000Y-127126000D01*
%TO.N,Net-(J3-Pad6)*%
X138810000Y-128142000D02*
X138811000Y-129286000D01*
X138810000Y-127126000D02*
X138810000Y-128142000D01*
X138811000Y-129286000D02*
X141859000Y-129286000D01*
X141859000Y-129286000D02*
X143510000Y-130810000D01*
%TO.N,Net-(J3-Pad8)*%
X140810000Y-127126000D02*
X140810000Y-125636000D01*
X140810000Y-125636000D02*
X141986000Y-124460000D01*
%TD*%
%TA.AperFunction,Conductor*%
%TO.N,~*%
G36*
X156914121Y-104668002D02*
G01*
X156960614Y-104721658D01*
X156972000Y-104774000D01*
X156972000Y-130407349D01*
X156951998Y-130475470D01*
X156898342Y-130521963D01*
X156828068Y-130532067D01*
X156763488Y-130502573D01*
X156725104Y-130442847D01*
X156721764Y-130428362D01*
X156671581Y-130131660D01*
X156671580Y-130131655D01*
X156670994Y-130128191D01*
X156576291Y-129797922D01*
X156490625Y-129590081D01*
X156446701Y-129483514D01*
X156446697Y-129483507D01*
X156445363Y-129480269D01*
X156317406Y-129247516D01*
X156281536Y-129182268D01*
X156281533Y-129182264D01*
X156279843Y-129179189D01*
X156081794Y-128898436D01*
X155988987Y-128793905D01*
X155856014Y-128644134D01*
X155856010Y-128644130D01*
X155853683Y-128641509D01*
X155851082Y-128639167D01*
X155851077Y-128639162D01*
X155600975Y-128413969D01*
X155600974Y-128413968D01*
X155598355Y-128411610D01*
X155466314Y-128317078D01*
X155321858Y-128213657D01*
X155321851Y-128213653D01*
X155318991Y-128211605D01*
X155019074Y-128043987D01*
X154702342Y-127910846D01*
X154658808Y-127898033D01*
X154464742Y-127840916D01*
X154372743Y-127813839D01*
X154369286Y-127813230D01*
X154369280Y-127813228D01*
X154172609Y-127778550D01*
X154034385Y-127754177D01*
X154030876Y-127753956D01*
X154030874Y-127753956D01*
X153695003Y-127732825D01*
X153694997Y-127732825D01*
X153691485Y-127732604D01*
X153594753Y-127737335D01*
X153351824Y-127749216D01*
X153351816Y-127749217D01*
X153348317Y-127749388D01*
X153344849Y-127749950D01*
X153344846Y-127749950D01*
X153012633Y-127803756D01*
X153012630Y-127803757D01*
X153009158Y-127804319D01*
X153005771Y-127805265D01*
X153005765Y-127805266D01*
X152681632Y-127895766D01*
X152678237Y-127896714D01*
X152674974Y-127898032D01*
X152674972Y-127898033D01*
X152643259Y-127910846D01*
X152359677Y-128025421D01*
X152057449Y-128188835D01*
X151775320Y-128384920D01*
X151772678Y-128387233D01*
X151772674Y-128387236D01*
X151611661Y-128528192D01*
X151516806Y-128611231D01*
X151285131Y-128864948D01*
X151083181Y-129142909D01*
X150913473Y-129441648D01*
X150848925Y-129592250D01*
X150783819Y-129744154D01*
X150778123Y-129757443D01*
X150678818Y-130086357D01*
X150652087Y-130232001D01*
X150626554Y-130371126D01*
X150616796Y-130424291D01*
X150592829Y-130767032D01*
X150607217Y-131110309D01*
X150618319Y-131182022D01*
X150653434Y-131408853D01*
X150659779Y-131449842D01*
X150660701Y-131453234D01*
X150660701Y-131453236D01*
X150672518Y-131496730D01*
X150749862Y-131781401D01*
X150790015Y-131882816D01*
X150852165Y-132039789D01*
X150876341Y-132100852D01*
X150877996Y-132103964D01*
X150877998Y-132103969D01*
X150921488Y-132185762D01*
X151037641Y-132404213D01*
X151039631Y-132407119D01*
X151039632Y-132407121D01*
X151229761Y-132684797D01*
X151229766Y-132684803D01*
X151231752Y-132687704D01*
X151456253Y-132947791D01*
X151708346Y-133181232D01*
X151711168Y-133183313D01*
X151711171Y-133183315D01*
X151789702Y-133241213D01*
X151984890Y-133385118D01*
X151987927Y-133386872D01*
X151987931Y-133386874D01*
X152103199Y-133453424D01*
X152282437Y-133556907D01*
X152312170Y-133569897D01*
X152594058Y-133693051D01*
X152594068Y-133693055D01*
X152597280Y-133694458D01*
X152600637Y-133695497D01*
X152600642Y-133695499D01*
X152737117Y-133737745D01*
X152925492Y-133796057D01*
X152928948Y-133796716D01*
X152928947Y-133796716D01*
X153259518Y-133859776D01*
X153259524Y-133859777D01*
X153262985Y-133860437D01*
X153266497Y-133860707D01*
X153269493Y-133861107D01*
X153334369Y-133889946D01*
X153373355Y-133949280D01*
X153374073Y-134020273D01*
X153336296Y-134080385D01*
X153272016Y-134110530D01*
X153252824Y-134112000D01*
X149050426Y-134112000D01*
X148982305Y-134091998D01*
X148935812Y-134038342D01*
X148925708Y-133968068D01*
X148955202Y-133903488D01*
X148961330Y-133896905D01*
X149259383Y-133598851D01*
X149269527Y-133589749D01*
X149294218Y-133569897D01*
X149299025Y-133566032D01*
X149331292Y-133527578D01*
X149334473Y-133523930D01*
X149336117Y-133522117D01*
X149338309Y-133519925D01*
X149365580Y-133486724D01*
X149366362Y-133485782D01*
X149373732Y-133477000D01*
X149426154Y-133414526D01*
X149428723Y-133409853D01*
X149432103Y-133405738D01*
X149444276Y-133383037D01*
X149476028Y-133323820D01*
X149476657Y-133322662D01*
X149518465Y-133246612D01*
X149518465Y-133246611D01*
X149521433Y-133241213D01*
X149523044Y-133236135D01*
X149525563Y-133231437D01*
X149552753Y-133142502D01*
X149553136Y-133141272D01*
X149579371Y-133058570D01*
X149581235Y-133052694D01*
X149581828Y-133047403D01*
X149583388Y-133042302D01*
X149592795Y-132949689D01*
X149592915Y-132948569D01*
X149598500Y-132898773D01*
X149598500Y-132895244D01*
X149598555Y-132894261D01*
X149599004Y-132888556D01*
X149602752Y-132851664D01*
X149602752Y-132851661D01*
X149603374Y-132845537D01*
X149599059Y-132799888D01*
X149598500Y-132788031D01*
X149598500Y-131989883D01*
X149618502Y-131921762D01*
X149642665Y-131894076D01*
X149659607Y-131879607D01*
X149813762Y-131699115D01*
X149937784Y-131496730D01*
X149955800Y-131453236D01*
X150026726Y-131282004D01*
X150026728Y-131281998D01*
X150028618Y-131277435D01*
X150029811Y-131272468D01*
X150082875Y-131051440D01*
X150084030Y-131046631D01*
X150102653Y-130810000D01*
X150084030Y-130573369D01*
X150044172Y-130407349D01*
X150029772Y-130347370D01*
X150029770Y-130347365D01*
X150028618Y-130342565D01*
X150026728Y-130338002D01*
X150026726Y-130337996D01*
X149939679Y-130127844D01*
X149939677Y-130127840D01*
X149937784Y-130123270D01*
X149813762Y-129920885D01*
X149659607Y-129740393D01*
X149479115Y-129586238D01*
X149276730Y-129462216D01*
X149272160Y-129460323D01*
X149272156Y-129460321D01*
X149062004Y-129373274D01*
X149061998Y-129373272D01*
X149057435Y-129371382D01*
X149052635Y-129370230D01*
X149052630Y-129370228D01*
X148947215Y-129344920D01*
X148826631Y-129315970D01*
X148590000Y-129297347D01*
X148353369Y-129315970D01*
X148232785Y-129344920D01*
X148127370Y-129370228D01*
X148127365Y-129370230D01*
X148122565Y-129371382D01*
X148118002Y-129373272D01*
X148117996Y-129373274D01*
X147907844Y-129460321D01*
X147907840Y-129460323D01*
X147903270Y-129462216D01*
X147700885Y-129586238D01*
X147520393Y-129740393D01*
X147517185Y-129744149D01*
X147517180Y-129744154D01*
X147415811Y-129862842D01*
X147356361Y-129901652D01*
X147285366Y-129902159D01*
X147224189Y-129862842D01*
X147122820Y-129744154D01*
X147122815Y-129744149D01*
X147119607Y-129740393D01*
X146939115Y-129586238D01*
X146736730Y-129462216D01*
X146732160Y-129460323D01*
X146732156Y-129460321D01*
X146522004Y-129373274D01*
X146521998Y-129373272D01*
X146517435Y-129371382D01*
X146512635Y-129370230D01*
X146512630Y-129370228D01*
X146407215Y-129344920D01*
X146286631Y-129315970D01*
X146050000Y-129297347D01*
X145813369Y-129315970D01*
X145692785Y-129344920D01*
X145587370Y-129370228D01*
X145587365Y-129370230D01*
X145582565Y-129371382D01*
X145578002Y-129373272D01*
X145577996Y-129373274D01*
X145367844Y-129460321D01*
X145367840Y-129460323D01*
X145363270Y-129462216D01*
X145160885Y-129586238D01*
X144980393Y-129740393D01*
X144977185Y-129744149D01*
X144977180Y-129744154D01*
X144875811Y-129862842D01*
X144816361Y-129901652D01*
X144745366Y-129902159D01*
X144684189Y-129862842D01*
X144582820Y-129744154D01*
X144582815Y-129744149D01*
X144579607Y-129740393D01*
X144399115Y-129586238D01*
X144196730Y-129462216D01*
X144192160Y-129460323D01*
X144192156Y-129460321D01*
X143982004Y-129373274D01*
X143981998Y-129373272D01*
X143977435Y-129371382D01*
X143972635Y-129370230D01*
X143972630Y-129370228D01*
X143867215Y-129344920D01*
X143746631Y-129315970D01*
X143510000Y-129297347D01*
X143273369Y-129315970D01*
X143268562Y-129317124D01*
X143268556Y-129317125D01*
X143129583Y-129350490D01*
X143058675Y-129346943D01*
X143014706Y-129320556D01*
X142498759Y-128844298D01*
X142462270Y-128783396D01*
X142464501Y-128712434D01*
X142504742Y-128653943D01*
X142548725Y-128630817D01*
X142553124Y-128629525D01*
X142554329Y-128628135D01*
X142556000Y-128620452D01*
X142556000Y-128615884D01*
X143064000Y-128615884D01*
X143068475Y-128631123D01*
X143069865Y-128632328D01*
X143077548Y-128633999D01*
X143354669Y-128633999D01*
X143361490Y-128633629D01*
X143412352Y-128628105D01*
X143427604Y-128624479D01*
X143548054Y-128579324D01*
X143563649Y-128570786D01*
X143665724Y-128494285D01*
X143678285Y-128481724D01*
X143754786Y-128379649D01*
X143763324Y-128364054D01*
X143808478Y-128243606D01*
X143812105Y-128228351D01*
X143817631Y-128177486D01*
X143818000Y-128170672D01*
X143818000Y-127398115D01*
X143813525Y-127382876D01*
X143812135Y-127381671D01*
X143804452Y-127380000D01*
X143082115Y-127380000D01*
X143066876Y-127384475D01*
X143065671Y-127385865D01*
X143064000Y-127393548D01*
X143064000Y-128615884D01*
X142556000Y-128615884D01*
X142556000Y-126998000D01*
X142576002Y-126929879D01*
X142629658Y-126883386D01*
X142682000Y-126872000D01*
X143799884Y-126872000D01*
X143815123Y-126867525D01*
X143816328Y-126866135D01*
X143817999Y-126858452D01*
X143817999Y-126081331D01*
X143817629Y-126074510D01*
X143812105Y-126023648D01*
X143808479Y-126008396D01*
X143763324Y-125887946D01*
X143754786Y-125872351D01*
X143678285Y-125770276D01*
X143665724Y-125757715D01*
X143563649Y-125681214D01*
X143548054Y-125672676D01*
X143427606Y-125627522D01*
X143412351Y-125623895D01*
X143361486Y-125618369D01*
X143354672Y-125618000D01*
X143254099Y-125618000D01*
X143185978Y-125597998D01*
X143139485Y-125544342D01*
X143129381Y-125474068D01*
X143158288Y-125410170D01*
X143206961Y-125353182D01*
X143206969Y-125353170D01*
X143210176Y-125349416D01*
X143212755Y-125345208D01*
X143212759Y-125345202D01*
X143331654Y-125151183D01*
X143334240Y-125146963D01*
X143340931Y-125130811D01*
X143423211Y-124932167D01*
X143423212Y-124932165D01*
X143425105Y-124927594D01*
X143450070Y-124823608D01*
X143468571Y-124746547D01*
X143503923Y-124684977D01*
X143566950Y-124652295D01*
X143637641Y-124658876D01*
X143680185Y-124686866D01*
X145466230Y-126472911D01*
X145478616Y-126487323D01*
X145487149Y-126498918D01*
X145487154Y-126498923D01*
X145491492Y-126504818D01*
X145497070Y-126509557D01*
X145497073Y-126509560D01*
X145531768Y-126539035D01*
X145539284Y-126545965D01*
X145544979Y-126551660D01*
X145547861Y-126553940D01*
X145567251Y-126569281D01*
X145570655Y-126572072D01*
X145620703Y-126614591D01*
X145626285Y-126619333D01*
X145632801Y-126622661D01*
X145637850Y-126626028D01*
X145642979Y-126629195D01*
X145648716Y-126633734D01*
X145714875Y-126664655D01*
X145718769Y-126666558D01*
X145783808Y-126699769D01*
X145790916Y-126701508D01*
X145796559Y-126703607D01*
X145802322Y-126705524D01*
X145808950Y-126708622D01*
X145879739Y-126723346D01*
X145880412Y-126723486D01*
X145884696Y-126724456D01*
X145955610Y-126741808D01*
X145961212Y-126742156D01*
X145961215Y-126742156D01*
X145966764Y-126742500D01*
X145966762Y-126742536D01*
X145970755Y-126742775D01*
X145974947Y-126743149D01*
X145982115Y-126744640D01*
X146059520Y-126742546D01*
X146062928Y-126742500D01*
X150046930Y-126742500D01*
X150065880Y-126743933D01*
X150080115Y-126746099D01*
X150080119Y-126746099D01*
X150087349Y-126747199D01*
X150094641Y-126746606D01*
X150094644Y-126746606D01*
X150140018Y-126742915D01*
X150150233Y-126742500D01*
X150158293Y-126742500D01*
X150175680Y-126740473D01*
X150186507Y-126739211D01*
X150190882Y-126738778D01*
X150256339Y-126733454D01*
X150256342Y-126733453D01*
X150263637Y-126732860D01*
X150270601Y-126730604D01*
X150276560Y-126729413D01*
X150282415Y-126728029D01*
X150289681Y-126727182D01*
X150358327Y-126702265D01*
X150362455Y-126700848D01*
X150424936Y-126680607D01*
X150424938Y-126680606D01*
X150431899Y-126678351D01*
X150438154Y-126674555D01*
X150443628Y-126672049D01*
X150449058Y-126669330D01*
X150455937Y-126666833D01*
X150462058Y-126662820D01*
X150516976Y-126626814D01*
X150520680Y-126624477D01*
X150583107Y-126586595D01*
X150591484Y-126579197D01*
X150591508Y-126579224D01*
X150594500Y-126576571D01*
X150597733Y-126573868D01*
X150603852Y-126569856D01*
X150657128Y-126513617D01*
X150659506Y-126511175D01*
X151885391Y-125285290D01*
X151899803Y-125272904D01*
X151911398Y-125264371D01*
X151911403Y-125264366D01*
X151917298Y-125260028D01*
X151922037Y-125254450D01*
X151922040Y-125254447D01*
X151951515Y-125219752D01*
X151958445Y-125212236D01*
X151964141Y-125206540D01*
X151966404Y-125203679D01*
X151966409Y-125203674D01*
X151981765Y-125184264D01*
X151984554Y-125180862D01*
X152027076Y-125130811D01*
X152027077Y-125130810D01*
X152031813Y-125125235D01*
X152035141Y-125118718D01*
X152038507Y-125113670D01*
X152041670Y-125108548D01*
X152046215Y-125102804D01*
X152077144Y-125036625D01*
X152079043Y-125032741D01*
X152112249Y-124967712D01*
X152113990Y-124960597D01*
X152116093Y-124954942D01*
X152118002Y-124949203D01*
X152121102Y-124942570D01*
X152135971Y-124871085D01*
X152136941Y-124866802D01*
X152137651Y-124863901D01*
X152154288Y-124795910D01*
X152154980Y-124784756D01*
X152155015Y-124784758D01*
X152155255Y-124780786D01*
X152155632Y-124776565D01*
X152157121Y-124769405D01*
X152155026Y-124691978D01*
X152154980Y-124688570D01*
X152154980Y-119423132D01*
X152174982Y-119355011D01*
X152215145Y-119315699D01*
X152257020Y-119290038D01*
X152336615Y-119241262D01*
X152348149Y-119231411D01*
X152412939Y-119202381D01*
X152483139Y-119212986D01*
X152535710Y-119259201D01*
X152537395Y-119263695D01*
X152542780Y-119270880D01*
X152542781Y-119270882D01*
X152550619Y-119281340D01*
X152624749Y-119380251D01*
X152741305Y-119467605D01*
X152877694Y-119518735D01*
X152939876Y-119525490D01*
X155035124Y-119525490D01*
X155097306Y-119518735D01*
X155233695Y-119467605D01*
X155350251Y-119380251D01*
X155437605Y-119263695D01*
X155488735Y-119127306D01*
X155495490Y-119065124D01*
X155495490Y-116969876D01*
X155488735Y-116907694D01*
X155437605Y-116771305D01*
X155350251Y-116654749D01*
X155233695Y-116567395D01*
X155233570Y-116567348D01*
X155186569Y-116520242D01*
X155171554Y-116450851D01*
X155196438Y-116384358D01*
X155201411Y-116378149D01*
X155208052Y-116370373D01*
X155211262Y-116366615D01*
X155335284Y-116164230D01*
X155346074Y-116138181D01*
X155424226Y-115949504D01*
X155424228Y-115949498D01*
X155426118Y-115944935D01*
X155447133Y-115857405D01*
X155460488Y-115801777D01*
X155481530Y-115714131D01*
X155500153Y-115477500D01*
X155481530Y-115240869D01*
X155448749Y-115104329D01*
X155427272Y-115014870D01*
X155427270Y-115014865D01*
X155426118Y-115010065D01*
X155424228Y-115005502D01*
X155424226Y-115005496D01*
X155337179Y-114795344D01*
X155337177Y-114795340D01*
X155335284Y-114790770D01*
X155211262Y-114588385D01*
X155057107Y-114407893D01*
X155053351Y-114404685D01*
X155053346Y-114404680D01*
X154934658Y-114303311D01*
X154895848Y-114243861D01*
X154895341Y-114172866D01*
X154934658Y-114111689D01*
X155053346Y-114010320D01*
X155053351Y-114010315D01*
X155057107Y-114007107D01*
X155211262Y-113826615D01*
X155335284Y-113624230D01*
X155337831Y-113618082D01*
X155424226Y-113409504D01*
X155424228Y-113409498D01*
X155426118Y-113404935D01*
X155431370Y-113383062D01*
X155470542Y-113219899D01*
X155481530Y-113174131D01*
X155500153Y-112937500D01*
X155481530Y-112700869D01*
X155450299Y-112570786D01*
X155427272Y-112474870D01*
X155427270Y-112474865D01*
X155426118Y-112470065D01*
X155424228Y-112465502D01*
X155424226Y-112465496D01*
X155337179Y-112255344D01*
X155337177Y-112255340D01*
X155335284Y-112250770D01*
X155211262Y-112048385D01*
X155057107Y-111867893D01*
X155053351Y-111864685D01*
X155053346Y-111864680D01*
X154900407Y-111734058D01*
X154861597Y-111674608D01*
X154859318Y-111639175D01*
X154851252Y-111620462D01*
X154000312Y-110769522D01*
X153986368Y-110761908D01*
X153984535Y-110762039D01*
X153977920Y-110766290D01*
X153126791Y-111617419D01*
X153117939Y-111633630D01*
X153103900Y-111698162D01*
X153075144Y-111733587D01*
X152921655Y-111864680D01*
X152917893Y-111867893D01*
X152914685Y-111871649D01*
X152914680Y-111871654D01*
X152813311Y-111990342D01*
X152753861Y-112029152D01*
X152682866Y-112029659D01*
X152621689Y-111990342D01*
X152520320Y-111871654D01*
X152520315Y-111871649D01*
X152517107Y-111867893D01*
X152513351Y-111864685D01*
X152513346Y-111864680D01*
X152394658Y-111763311D01*
X152355848Y-111703861D01*
X152355341Y-111632866D01*
X152394658Y-111571689D01*
X152513346Y-111470320D01*
X152513351Y-111470315D01*
X152517107Y-111467107D01*
X152520315Y-111463351D01*
X152520320Y-111463346D01*
X152650942Y-111310407D01*
X152710392Y-111271597D01*
X152745825Y-111269318D01*
X152764538Y-111261252D01*
X153615478Y-110410312D01*
X153621856Y-110398632D01*
X154351908Y-110398632D01*
X154352039Y-110400465D01*
X154356290Y-110407080D01*
X155207419Y-111258209D01*
X155219799Y-111264969D01*
X155227449Y-111259242D01*
X155332250Y-111088222D01*
X155336731Y-111079428D01*
X155423747Y-110869353D01*
X155426796Y-110859968D01*
X155479879Y-110638866D01*
X155481422Y-110629119D01*
X155499263Y-110402430D01*
X155499263Y-110392570D01*
X155481422Y-110165881D01*
X155479879Y-110156134D01*
X155426796Y-109935032D01*
X155423747Y-109925647D01*
X155336731Y-109715572D01*
X155332250Y-109706778D01*
X155229696Y-109539424D01*
X155219240Y-109529964D01*
X155210462Y-109533748D01*
X154359522Y-110384688D01*
X154351908Y-110398632D01*
X153621856Y-110398632D01*
X153623092Y-110396368D01*
X153622961Y-110394535D01*
X153618710Y-110387920D01*
X152767581Y-109536791D01*
X152751370Y-109527939D01*
X152686838Y-109513900D01*
X152651413Y-109485144D01*
X152520315Y-109331649D01*
X152517107Y-109327893D01*
X152513351Y-109324685D01*
X152513346Y-109324680D01*
X152394658Y-109223311D01*
X152355848Y-109163861D01*
X152355341Y-109092866D01*
X152394658Y-109031689D01*
X152513346Y-108930320D01*
X152513351Y-108930315D01*
X152517107Y-108927107D01*
X152520315Y-108923351D01*
X152520320Y-108923346D01*
X152621689Y-108804658D01*
X152681139Y-108765848D01*
X152752134Y-108765341D01*
X152813311Y-108804658D01*
X152914680Y-108923346D01*
X152914685Y-108923351D01*
X152917893Y-108927107D01*
X152921649Y-108930315D01*
X152921654Y-108930320D01*
X153074593Y-109060942D01*
X153113403Y-109120392D01*
X153115682Y-109155825D01*
X153123748Y-109174538D01*
X153974688Y-110025478D01*
X153988632Y-110033092D01*
X153990465Y-110032961D01*
X153997080Y-110028710D01*
X154848209Y-109177581D01*
X154857061Y-109161370D01*
X154871100Y-109096838D01*
X154899856Y-109061413D01*
X155053351Y-108930315D01*
X155057107Y-108927107D01*
X155211262Y-108746615D01*
X155335284Y-108544230D01*
X155337179Y-108539656D01*
X155424226Y-108329504D01*
X155424228Y-108329498D01*
X155426118Y-108324935D01*
X155481530Y-108094131D01*
X155500153Y-107857500D01*
X155481530Y-107620869D01*
X155446929Y-107476748D01*
X155427272Y-107394870D01*
X155427270Y-107394865D01*
X155426118Y-107390065D01*
X155424228Y-107385502D01*
X155424226Y-107385496D01*
X155337179Y-107175344D01*
X155337177Y-107175340D01*
X155335284Y-107170770D01*
X155211262Y-106968385D01*
X155057107Y-106787893D01*
X154876615Y-106633738D01*
X154674230Y-106509716D01*
X154669660Y-106507823D01*
X154669656Y-106507821D01*
X154459504Y-106420774D01*
X154459498Y-106420772D01*
X154454935Y-106418882D01*
X154450135Y-106417730D01*
X154450130Y-106417728D01*
X154304474Y-106382759D01*
X154224131Y-106363470D01*
X153987500Y-106344847D01*
X153750869Y-106363470D01*
X153670526Y-106382759D01*
X153599619Y-106379213D01*
X153552017Y-106349336D01*
X153072269Y-105869588D01*
X153059883Y-105855176D01*
X153051350Y-105843581D01*
X153051345Y-105843576D01*
X153047007Y-105837681D01*
X153041429Y-105832942D01*
X153041426Y-105832939D01*
X153006731Y-105803464D01*
X152999215Y-105796534D01*
X152993520Y-105790839D01*
X152977522Y-105778182D01*
X152971248Y-105773218D01*
X152967844Y-105770427D01*
X152917796Y-105727908D01*
X152917794Y-105727907D01*
X152912214Y-105723166D01*
X152905698Y-105719838D01*
X152900649Y-105716471D01*
X152895520Y-105713304D01*
X152889783Y-105708765D01*
X152823624Y-105677844D01*
X152819724Y-105675938D01*
X152754691Y-105642730D01*
X152747583Y-105640991D01*
X152741940Y-105638892D01*
X152736177Y-105636975D01*
X152729549Y-105633877D01*
X152658082Y-105619012D01*
X152653798Y-105618042D01*
X152647247Y-105616439D01*
X152582889Y-105600691D01*
X152577287Y-105600343D01*
X152577284Y-105600343D01*
X152571735Y-105599999D01*
X152571737Y-105599963D01*
X152567744Y-105599724D01*
X152563552Y-105599350D01*
X152556384Y-105597859D01*
X152492619Y-105599584D01*
X152478978Y-105599953D01*
X152475571Y-105599999D01*
X150248570Y-105599999D01*
X150229622Y-105598566D01*
X150222281Y-105597449D01*
X150215384Y-105596400D01*
X150215382Y-105596400D01*
X150208152Y-105595300D01*
X150200860Y-105595893D01*
X150200857Y-105595893D01*
X150155483Y-105599584D01*
X150145268Y-105599999D01*
X150137208Y-105599999D01*
X150123918Y-105601548D01*
X150108994Y-105603288D01*
X150104619Y-105603721D01*
X150039162Y-105609045D01*
X150039159Y-105609046D01*
X150031864Y-105609639D01*
X150024900Y-105611895D01*
X150018941Y-105613086D01*
X150013086Y-105614470D01*
X150005820Y-105615317D01*
X149937174Y-105640234D01*
X149933046Y-105641651D01*
X149870565Y-105661892D01*
X149870563Y-105661893D01*
X149863602Y-105664148D01*
X149857347Y-105667944D01*
X149851873Y-105670450D01*
X149846443Y-105673169D01*
X149839564Y-105675666D01*
X149778517Y-105715690D01*
X149774828Y-105718017D01*
X149774109Y-105718454D01*
X149717194Y-105752990D01*
X149717189Y-105752994D01*
X149712393Y-105755904D01*
X149704017Y-105763302D01*
X149703994Y-105763276D01*
X149701004Y-105765925D01*
X149697765Y-105768633D01*
X149691649Y-105772643D01*
X149686622Y-105777950D01*
X149686618Y-105777953D01*
X149638373Y-105828882D01*
X149635995Y-105831324D01*
X149062214Y-106405105D01*
X148999902Y-106439131D01*
X148973119Y-106442010D01*
X147542376Y-106442010D01*
X147480194Y-106448765D01*
X147343805Y-106499895D01*
X147227249Y-106587249D01*
X147139895Y-106703805D01*
X147136743Y-106712214D01*
X147136742Y-106712215D01*
X147124653Y-106744462D01*
X147082012Y-106801227D01*
X147015450Y-106825927D01*
X146946101Y-106810720D01*
X146918987Y-106790717D01*
X146848925Y-106722823D01*
X146840221Y-106715775D01*
X146663156Y-106596791D01*
X146653358Y-106591405D01*
X146458010Y-106505653D01*
X146447418Y-106502088D01*
X146321616Y-106471886D01*
X146307530Y-106472591D01*
X146304000Y-106481470D01*
X146304000Y-108078000D01*
X146283998Y-108146121D01*
X146230342Y-108192614D01*
X146178000Y-108204000D01*
X145922000Y-108204000D01*
X145853879Y-108183998D01*
X145807386Y-108130342D01*
X145796000Y-108078000D01*
X145796000Y-106482099D01*
X145791895Y-106468117D01*
X145782272Y-106466624D01*
X145782027Y-106466676D01*
X145578117Y-106529408D01*
X145567771Y-106533629D01*
X145378186Y-106631481D01*
X145368755Y-106637467D01*
X145199499Y-106767342D01*
X145191276Y-106774903D01*
X145047688Y-106932704D01*
X145040933Y-106941604D01*
X144927566Y-107122325D01*
X144922489Y-107132291D01*
X144897333Y-107194868D01*
X144853367Y-107250613D01*
X144786242Y-107273738D01*
X144717271Y-107256901D01*
X144666700Y-107202117D01*
X144663242Y-107194868D01*
X144597622Y-107057292D01*
X144466529Y-106874856D01*
X144380666Y-106791649D01*
X144309229Y-106722421D01*
X144309226Y-106722419D01*
X144305201Y-106718518D01*
X144118738Y-106593220D01*
X143913033Y-106502922D01*
X143907582Y-106501613D01*
X143907578Y-106501612D01*
X143700046Y-106451788D01*
X143700045Y-106451788D01*
X143694589Y-106450478D01*
X143606289Y-106445387D01*
X143475917Y-106437870D01*
X143475914Y-106437870D01*
X143470310Y-106437547D01*
X143247285Y-106464535D01*
X143032565Y-106530592D01*
X143027585Y-106533162D01*
X143027581Y-106533164D01*
X142888785Y-106604802D01*
X142832936Y-106633628D01*
X142654708Y-106770387D01*
X142503515Y-106936546D01*
X142500537Y-106941293D01*
X142500535Y-106941296D01*
X142422871Y-107065104D01*
X142384136Y-107126854D01*
X142357039Y-107194260D01*
X142313075Y-107250000D01*
X142245950Y-107273126D01*
X142176979Y-107256289D01*
X142126408Y-107201505D01*
X142123242Y-107194868D01*
X142057622Y-107057292D01*
X141926529Y-106874856D01*
X141840666Y-106791649D01*
X141769229Y-106722421D01*
X141769226Y-106722419D01*
X141765201Y-106718518D01*
X141578738Y-106593220D01*
X141373033Y-106502922D01*
X141367582Y-106501613D01*
X141367578Y-106501612D01*
X141160046Y-106451788D01*
X141160045Y-106451788D01*
X141154589Y-106450478D01*
X141066289Y-106445387D01*
X140935917Y-106437870D01*
X140935914Y-106437870D01*
X140930310Y-106437547D01*
X140707285Y-106464535D01*
X140492565Y-106530592D01*
X140487585Y-106533162D01*
X140487581Y-106533164D01*
X140348785Y-106604802D01*
X140292936Y-106633628D01*
X140114708Y-106770387D01*
X139963515Y-106936546D01*
X139960537Y-106941293D01*
X139960535Y-106941296D01*
X139882871Y-107065104D01*
X139844136Y-107126854D01*
X139817039Y-107194260D01*
X139773075Y-107250000D01*
X139705950Y-107273126D01*
X139636979Y-107256289D01*
X139586408Y-107201505D01*
X139583242Y-107194868D01*
X139517622Y-107057292D01*
X139386529Y-106874856D01*
X139300666Y-106791649D01*
X139229229Y-106722421D01*
X139229226Y-106722419D01*
X139225201Y-106718518D01*
X139038738Y-106593220D01*
X138833033Y-106502922D01*
X138827582Y-106501613D01*
X138827578Y-106501612D01*
X138620046Y-106451788D01*
X138620045Y-106451788D01*
X138614589Y-106450478D01*
X138526289Y-106445387D01*
X138395917Y-106437870D01*
X138395914Y-106437870D01*
X138390310Y-106437547D01*
X138167285Y-106464535D01*
X137952565Y-106530592D01*
X137947585Y-106533162D01*
X137947581Y-106533164D01*
X137808785Y-106604802D01*
X137752936Y-106633628D01*
X137574708Y-106770387D01*
X137423515Y-106936546D01*
X137420532Y-106941301D01*
X137420530Y-106941304D01*
X137336274Y-107075619D01*
X137283131Y-107122697D01*
X137212972Y-107133569D01*
X137148072Y-107104785D01*
X137122104Y-107074497D01*
X137116348Y-107065104D01*
X137116344Y-107065099D01*
X137113762Y-107060885D01*
X136959607Y-106880393D01*
X136779115Y-106726238D01*
X136576730Y-106602216D01*
X136572160Y-106600323D01*
X136572156Y-106600321D01*
X136362004Y-106513274D01*
X136361998Y-106513272D01*
X136357435Y-106511382D01*
X136352635Y-106510230D01*
X136352630Y-106510228D01*
X136195861Y-106472591D01*
X136126631Y-106455970D01*
X135890000Y-106437347D01*
X135653369Y-106455970D01*
X135584139Y-106472591D01*
X135427370Y-106510228D01*
X135427365Y-106510230D01*
X135422565Y-106511382D01*
X135418002Y-106513272D01*
X135417996Y-106513274D01*
X135207844Y-106600321D01*
X135207840Y-106600323D01*
X135203270Y-106602216D01*
X135000885Y-106726238D01*
X134820393Y-106880393D01*
X134817185Y-106884149D01*
X134817180Y-106884154D01*
X134715811Y-107002842D01*
X134656361Y-107041652D01*
X134585366Y-107042159D01*
X134524189Y-107002842D01*
X134422820Y-106884154D01*
X134422815Y-106884149D01*
X134419607Y-106880393D01*
X134239115Y-106726238D01*
X134036730Y-106602216D01*
X134032160Y-106600323D01*
X134032156Y-106600321D01*
X133822004Y-106513274D01*
X133821998Y-106513272D01*
X133817435Y-106511382D01*
X133812635Y-106510230D01*
X133812630Y-106510228D01*
X133655861Y-106472591D01*
X133586631Y-106455970D01*
X133350000Y-106437347D01*
X133113369Y-106455970D01*
X133044139Y-106472591D01*
X132887370Y-106510228D01*
X132887365Y-106510230D01*
X132882565Y-106511382D01*
X132878002Y-106513272D01*
X132877996Y-106513274D01*
X132667844Y-106600321D01*
X132667840Y-106600323D01*
X132663270Y-106602216D01*
X132460885Y-106726238D01*
X132280393Y-106880393D01*
X132277185Y-106884149D01*
X132277180Y-106884154D01*
X132175811Y-107002842D01*
X132116361Y-107041652D01*
X132045366Y-107042159D01*
X131984189Y-107002842D01*
X131882820Y-106884154D01*
X131882815Y-106884149D01*
X131879607Y-106880393D01*
X131699115Y-106726238D01*
X131496730Y-106602216D01*
X131492160Y-106600323D01*
X131492156Y-106600321D01*
X131282004Y-106513274D01*
X131281998Y-106513272D01*
X131277435Y-106511382D01*
X131272635Y-106510230D01*
X131272630Y-106510228D01*
X131115861Y-106472591D01*
X131046631Y-106455970D01*
X130810000Y-106437347D01*
X130573369Y-106455970D01*
X130504139Y-106472591D01*
X130347370Y-106510228D01*
X130347365Y-106510230D01*
X130342565Y-106511382D01*
X130338002Y-106513272D01*
X130337996Y-106513274D01*
X130127844Y-106600321D01*
X130127840Y-106600323D01*
X130123270Y-106602216D01*
X129920885Y-106726238D01*
X129740393Y-106880393D01*
X129586238Y-107060885D01*
X129583656Y-107065099D01*
X129577163Y-107075694D01*
X129524515Y-107123325D01*
X129454473Y-107134932D01*
X129389276Y-107106829D01*
X129380635Y-107098954D01*
X128091770Y-105810089D01*
X128079384Y-105795677D01*
X128070851Y-105784082D01*
X128070846Y-105784077D01*
X128066508Y-105778182D01*
X128060930Y-105773443D01*
X128060927Y-105773440D01*
X128026232Y-105743965D01*
X128018716Y-105737035D01*
X128013021Y-105731340D01*
X128002689Y-105723166D01*
X127990749Y-105713719D01*
X127987345Y-105710928D01*
X127937297Y-105668409D01*
X127937295Y-105668408D01*
X127931715Y-105663667D01*
X127925199Y-105660339D01*
X127920150Y-105656972D01*
X127915021Y-105653805D01*
X127909284Y-105649266D01*
X127843125Y-105618345D01*
X127839225Y-105616439D01*
X127774192Y-105583231D01*
X127767084Y-105581492D01*
X127761441Y-105579393D01*
X127755678Y-105577476D01*
X127749050Y-105574378D01*
X127677583Y-105559513D01*
X127673299Y-105558543D01*
X127638958Y-105550140D01*
X127602390Y-105541192D01*
X127596788Y-105540844D01*
X127596785Y-105540844D01*
X127591236Y-105540500D01*
X127591238Y-105540464D01*
X127587245Y-105540225D01*
X127583053Y-105539851D01*
X127575885Y-105538360D01*
X127512120Y-105540085D01*
X127498479Y-105540454D01*
X127495072Y-105540500D01*
X125035063Y-105540500D01*
X125016114Y-105539067D01*
X125015907Y-105539036D01*
X124994651Y-105535802D01*
X124987359Y-105536395D01*
X124987356Y-105536395D01*
X124941991Y-105540085D01*
X124931777Y-105540500D01*
X124923707Y-105540500D01*
X124920087Y-105540922D01*
X124920069Y-105540923D01*
X124895461Y-105543792D01*
X124891100Y-105544224D01*
X124865981Y-105546267D01*
X124825661Y-105549546D01*
X124825658Y-105549547D01*
X124818363Y-105550140D01*
X124811399Y-105552396D01*
X124805440Y-105553587D01*
X124799585Y-105554971D01*
X124792319Y-105555818D01*
X124723673Y-105580735D01*
X124719545Y-105582152D01*
X124657064Y-105602393D01*
X124657062Y-105602394D01*
X124650101Y-105604649D01*
X124643844Y-105608446D01*
X124638375Y-105610950D01*
X124632945Y-105613669D01*
X124626063Y-105616167D01*
X124565016Y-105656191D01*
X124561327Y-105658518D01*
X124555768Y-105661892D01*
X124503693Y-105693491D01*
X124503688Y-105693495D01*
X124498892Y-105696405D01*
X124490516Y-105703803D01*
X124490493Y-105703777D01*
X124487503Y-105706426D01*
X124484264Y-105709134D01*
X124478148Y-105713144D01*
X124473121Y-105718451D01*
X124473117Y-105718454D01*
X124424872Y-105769383D01*
X124422494Y-105771825D01*
X122955089Y-107239230D01*
X122940677Y-107251616D01*
X122929082Y-107260149D01*
X122929077Y-107260154D01*
X122923182Y-107264492D01*
X122918443Y-107270070D01*
X122918440Y-107270073D01*
X122888965Y-107304768D01*
X122882035Y-107312284D01*
X122876340Y-107317979D01*
X122874060Y-107320861D01*
X122858719Y-107340251D01*
X122855928Y-107343655D01*
X122816500Y-107390065D01*
X122808667Y-107399285D01*
X122805339Y-107405801D01*
X122801972Y-107410850D01*
X122798805Y-107415979D01*
X122794266Y-107421716D01*
X122763345Y-107487875D01*
X122761442Y-107491769D01*
X122728231Y-107556808D01*
X122726492Y-107563916D01*
X122724393Y-107569559D01*
X122722476Y-107575322D01*
X122719378Y-107581950D01*
X122717888Y-107589112D01*
X122717888Y-107589113D01*
X122704514Y-107653412D01*
X122703544Y-107657696D01*
X122686192Y-107728610D01*
X122685500Y-107739764D01*
X122685464Y-107739762D01*
X122685225Y-107743755D01*
X122684851Y-107747947D01*
X122683360Y-107755115D01*
X122683558Y-107762432D01*
X122685454Y-107832521D01*
X122685500Y-107835928D01*
X122685500Y-120037035D01*
X122665498Y-120105156D01*
X122625337Y-120144466D01*
X122554584Y-120187824D01*
X122550822Y-120191037D01*
X122487023Y-120245527D01*
X122374031Y-120342031D01*
X122219824Y-120522584D01*
X122217245Y-120526792D01*
X122217241Y-120526798D01*
X122217057Y-120527099D01*
X122095760Y-120725037D01*
X122093867Y-120729607D01*
X122093865Y-120729611D01*
X122053510Y-120827038D01*
X122004895Y-120944406D01*
X121999882Y-120965287D01*
X121953317Y-121159245D01*
X121949465Y-121175289D01*
X121930835Y-121412000D01*
X121949465Y-121648711D01*
X121950619Y-121653518D01*
X121950620Y-121653524D01*
X121960811Y-121695970D01*
X122004895Y-121879594D01*
X122006788Y-121884165D01*
X122006789Y-121884167D01*
X122076063Y-122051409D01*
X122095760Y-122098963D01*
X122098346Y-122103183D01*
X122217241Y-122297202D01*
X122217245Y-122297208D01*
X122219824Y-122301416D01*
X122374031Y-122481969D01*
X122554584Y-122636176D01*
X122558792Y-122638755D01*
X122558798Y-122638759D01*
X122695557Y-122722565D01*
X122757037Y-122760240D01*
X122761607Y-122762133D01*
X122761611Y-122762135D01*
X122971833Y-122849211D01*
X122976406Y-122851105D01*
X123056609Y-122870360D01*
X123202476Y-122905380D01*
X123202482Y-122905381D01*
X123207289Y-122906535D01*
X123433204Y-122924315D01*
X123437495Y-122924653D01*
X123444000Y-122925165D01*
X123450506Y-122924653D01*
X123454796Y-122924315D01*
X123680711Y-122906535D01*
X123685518Y-122905381D01*
X123685524Y-122905380D01*
X123831391Y-122870360D01*
X123911594Y-122851105D01*
X123916167Y-122849211D01*
X124126389Y-122762135D01*
X124126393Y-122762133D01*
X124130963Y-122760240D01*
X124192443Y-122722565D01*
X124329202Y-122638759D01*
X124329208Y-122638755D01*
X124333416Y-122636176D01*
X124513969Y-122481969D01*
X124668176Y-122301416D01*
X124670755Y-122297208D01*
X124670759Y-122297202D01*
X124789654Y-122103183D01*
X124792240Y-122098963D01*
X124811938Y-122051409D01*
X124881211Y-121884167D01*
X124881212Y-121884165D01*
X124883105Y-121879594D01*
X124927189Y-121695970D01*
X124937380Y-121653524D01*
X124937381Y-121653518D01*
X124938535Y-121648711D01*
X124957165Y-121412000D01*
X124938535Y-121175289D01*
X124934684Y-121159245D01*
X124888118Y-120965287D01*
X124883105Y-120944406D01*
X124834490Y-120827038D01*
X124794135Y-120729611D01*
X124794133Y-120729607D01*
X124792240Y-120725037D01*
X124670943Y-120527099D01*
X124670759Y-120526798D01*
X124670755Y-120526792D01*
X124668176Y-120522584D01*
X124513969Y-120342031D01*
X124400978Y-120245527D01*
X124337178Y-120191037D01*
X124333416Y-120187824D01*
X124262664Y-120144467D01*
X124215033Y-120091819D01*
X124202500Y-120037035D01*
X124202500Y-108189371D01*
X124222502Y-108121250D01*
X124239405Y-108100276D01*
X124385141Y-107954540D01*
X124447453Y-107920514D01*
X124518268Y-107925579D01*
X124575104Y-107968126D01*
X124599915Y-108034646D01*
X124596359Y-108074650D01*
X124592664Y-108089200D01*
X124578981Y-108143077D01*
X124552050Y-108410526D01*
X124564947Y-108679019D01*
X124617388Y-108942656D01*
X124708220Y-109195646D01*
X124710432Y-109199762D01*
X124710433Y-109199765D01*
X124785945Y-109340298D01*
X124835450Y-109432431D01*
X124838241Y-109436168D01*
X124838245Y-109436175D01*
X124919887Y-109545506D01*
X124996281Y-109647810D01*
X124999590Y-109651090D01*
X124999595Y-109651096D01*
X125177752Y-109827704D01*
X125187180Y-109837050D01*
X125190942Y-109839808D01*
X125190945Y-109839811D01*
X125258537Y-109889371D01*
X125301645Y-109945782D01*
X125307412Y-110016544D01*
X125279843Y-110072814D01*
X125140824Y-110235584D01*
X125138245Y-110239792D01*
X125138241Y-110239798D01*
X125033750Y-110410312D01*
X125016760Y-110438037D01*
X125014867Y-110442607D01*
X125014865Y-110442611D01*
X124952397Y-110593424D01*
X124925895Y-110657406D01*
X124916074Y-110698314D01*
X124873516Y-110875581D01*
X124870465Y-110888289D01*
X124851835Y-111125000D01*
X124870465Y-111361711D01*
X124871619Y-111366518D01*
X124871620Y-111366524D01*
X124894865Y-111463346D01*
X124925895Y-111592594D01*
X124927788Y-111597165D01*
X124927789Y-111597167D01*
X124996608Y-111763311D01*
X125016760Y-111811963D01*
X125019346Y-111816183D01*
X125138241Y-112010202D01*
X125138245Y-112010208D01*
X125140824Y-112014416D01*
X125295031Y-112194969D01*
X125475584Y-112349176D01*
X125479792Y-112351755D01*
X125479798Y-112351759D01*
X125629261Y-112443350D01*
X125678037Y-112473240D01*
X125682607Y-112475133D01*
X125682611Y-112475135D01*
X125892833Y-112562211D01*
X125897406Y-112564105D01*
X125949514Y-112576615D01*
X126123476Y-112618380D01*
X126123482Y-112618381D01*
X126128289Y-112619535D01*
X126365000Y-112638165D01*
X126601711Y-112619535D01*
X126606518Y-112618381D01*
X126606524Y-112618380D01*
X126780486Y-112576615D01*
X126832594Y-112564105D01*
X126837167Y-112562211D01*
X127047389Y-112475135D01*
X127047393Y-112475133D01*
X127051963Y-112473240D01*
X127100739Y-112443350D01*
X127250202Y-112351759D01*
X127250208Y-112351755D01*
X127254416Y-112349176D01*
X127434969Y-112194969D01*
X127438177Y-112191213D01*
X127579689Y-112025524D01*
X127639140Y-111986715D01*
X127710134Y-111986209D01*
X127770133Y-112024165D01*
X127800086Y-112088533D01*
X127801500Y-112107355D01*
X127801500Y-112174134D01*
X127808255Y-112236316D01*
X127859385Y-112372705D01*
X127946739Y-112489261D01*
X128063295Y-112576615D01*
X128199684Y-112627745D01*
X128261866Y-112634500D01*
X129358134Y-112634500D01*
X129420316Y-112627745D01*
X129556705Y-112576615D01*
X129673261Y-112489261D01*
X129709487Y-112440925D01*
X129766345Y-112398411D01*
X129837164Y-112393385D01*
X129899457Y-112427445D01*
X129911138Y-112440925D01*
X129941717Y-112481726D01*
X129954276Y-112494285D01*
X130056351Y-112570786D01*
X130071946Y-112579324D01*
X130192394Y-112624478D01*
X130207649Y-112628105D01*
X130258514Y-112633631D01*
X130265328Y-112634000D01*
X130537885Y-112634000D01*
X130553124Y-112629525D01*
X130554329Y-112628135D01*
X130556000Y-112620452D01*
X130556000Y-110998000D01*
X130576002Y-110929879D01*
X130629658Y-110883386D01*
X130682000Y-110872000D01*
X130938000Y-110872000D01*
X131006121Y-110892002D01*
X131052614Y-110945658D01*
X131064000Y-110998000D01*
X131064000Y-112615884D01*
X131068475Y-112631123D01*
X131069865Y-112632328D01*
X131077548Y-112633999D01*
X131354669Y-112633999D01*
X131361490Y-112633629D01*
X131412352Y-112628105D01*
X131427604Y-112624479D01*
X131548054Y-112579324D01*
X131563649Y-112570786D01*
X131665724Y-112494285D01*
X131678283Y-112481726D01*
X131708862Y-112440925D01*
X131765722Y-112398411D01*
X131836540Y-112393386D01*
X131898834Y-112427446D01*
X131910513Y-112440925D01*
X131946739Y-112489261D01*
X132063295Y-112576615D01*
X132199684Y-112627745D01*
X132261866Y-112634500D01*
X133358134Y-112634500D01*
X133420316Y-112627745D01*
X133556705Y-112576615D01*
X133673261Y-112489261D01*
X133709176Y-112441340D01*
X133766033Y-112398827D01*
X133836851Y-112393801D01*
X133899145Y-112427861D01*
X133910817Y-112441330D01*
X133946739Y-112489261D01*
X134063295Y-112576615D01*
X134199684Y-112627745D01*
X134261866Y-112634500D01*
X135358134Y-112634500D01*
X135420316Y-112627745D01*
X135556705Y-112576615D01*
X135568501Y-112567775D01*
X135599935Y-112544216D01*
X135666442Y-112519368D01*
X135735824Y-112534421D01*
X135786054Y-112584595D01*
X135801500Y-112645042D01*
X135801500Y-114362969D01*
X135781498Y-114431090D01*
X135757330Y-114458780D01*
X135712798Y-114496813D01*
X135712793Y-114496818D01*
X135709031Y-114500031D01*
X135554824Y-114680584D01*
X135552245Y-114684792D01*
X135552241Y-114684798D01*
X135433346Y-114878817D01*
X135430760Y-114883037D01*
X135428867Y-114887607D01*
X135428865Y-114887611D01*
X135348300Y-115082115D01*
X135339895Y-115102406D01*
X135338740Y-115107218D01*
X135287890Y-115319023D01*
X135284465Y-115333289D01*
X135265835Y-115570000D01*
X135284465Y-115806711D01*
X135285619Y-115811518D01*
X135285620Y-115811524D01*
X135320640Y-115957391D01*
X135339895Y-116037594D01*
X135341788Y-116042165D01*
X135341789Y-116042167D01*
X135419958Y-116230884D01*
X135430760Y-116256963D01*
X135433346Y-116261183D01*
X135552241Y-116455202D01*
X135552245Y-116455208D01*
X135554824Y-116459416D01*
X135709031Y-116639969D01*
X135889584Y-116794176D01*
X135893792Y-116796755D01*
X135893798Y-116796759D01*
X136075792Y-116908285D01*
X136092037Y-116918240D01*
X136096607Y-116920133D01*
X136096611Y-116920135D01*
X136306833Y-117007211D01*
X136311406Y-117009105D01*
X136391609Y-117028360D01*
X136537476Y-117063380D01*
X136537482Y-117063381D01*
X136542289Y-117064535D01*
X136779000Y-117083165D01*
X137015711Y-117064535D01*
X137020518Y-117063381D01*
X137020524Y-117063380D01*
X137166391Y-117028360D01*
X137246594Y-117009105D01*
X137251167Y-117007211D01*
X137461389Y-116920135D01*
X137461393Y-116920133D01*
X137465963Y-116918240D01*
X137482208Y-116908285D01*
X137664202Y-116796759D01*
X137664208Y-116796755D01*
X137668416Y-116794176D01*
X137848969Y-116639969D01*
X138003176Y-116459416D01*
X138005755Y-116455208D01*
X138005759Y-116455202D01*
X138124654Y-116261183D01*
X138127240Y-116256963D01*
X138138043Y-116230884D01*
X138216211Y-116042167D01*
X138216212Y-116042165D01*
X138218105Y-116037594D01*
X138237360Y-115957391D01*
X138272380Y-115811524D01*
X138272381Y-115811518D01*
X138273535Y-115806711D01*
X138292165Y-115570000D01*
X138273535Y-115333289D01*
X138270111Y-115319023D01*
X138219260Y-115107218D01*
X138218105Y-115102406D01*
X138209700Y-115082115D01*
X138129135Y-114887611D01*
X138129133Y-114887607D01*
X138127240Y-114883037D01*
X138124654Y-114878817D01*
X138005759Y-114684798D01*
X138005755Y-114684792D01*
X138003176Y-114680584D01*
X137848969Y-114500031D01*
X137850757Y-114498504D01*
X137821379Y-114444703D01*
X137818500Y-114417920D01*
X137818500Y-113104263D01*
X137838502Y-113036142D01*
X137892158Y-112989649D01*
X137962432Y-112979545D01*
X138027012Y-113009039D01*
X138066399Y-113074085D01*
X138066818Y-113077681D01*
X138091735Y-113146327D01*
X138093152Y-113150455D01*
X138115649Y-113219899D01*
X138119445Y-113226154D01*
X138121951Y-113231628D01*
X138124670Y-113237058D01*
X138127167Y-113243937D01*
X138131180Y-113250057D01*
X138131180Y-113250058D01*
X138167186Y-113304976D01*
X138169523Y-113308680D01*
X138207405Y-113371107D01*
X138211121Y-113375315D01*
X138211122Y-113375316D01*
X138214803Y-113379484D01*
X138214776Y-113379508D01*
X138217429Y-113382500D01*
X138220132Y-113385733D01*
X138224144Y-113391852D01*
X138237955Y-113404935D01*
X138280383Y-113445128D01*
X138282825Y-113447506D01*
X140386230Y-115550911D01*
X140398616Y-115565323D01*
X140407149Y-115576918D01*
X140407154Y-115576923D01*
X140411492Y-115582818D01*
X140417070Y-115587557D01*
X140417073Y-115587560D01*
X140451768Y-115617035D01*
X140459284Y-115623965D01*
X140464979Y-115629660D01*
X140467861Y-115631940D01*
X140487251Y-115647281D01*
X140490655Y-115650072D01*
X140540703Y-115692591D01*
X140546285Y-115697333D01*
X140552801Y-115700661D01*
X140557850Y-115704028D01*
X140562979Y-115707195D01*
X140568716Y-115711734D01*
X140634875Y-115742655D01*
X140638769Y-115744558D01*
X140703808Y-115777769D01*
X140710916Y-115779508D01*
X140716559Y-115781607D01*
X140722322Y-115783524D01*
X140728950Y-115786622D01*
X140736112Y-115788112D01*
X140736113Y-115788112D01*
X140769748Y-115795108D01*
X140783566Y-115797982D01*
X140800412Y-115801486D01*
X140804696Y-115802456D01*
X140875610Y-115819808D01*
X140881212Y-115820156D01*
X140881215Y-115820156D01*
X140886764Y-115820500D01*
X140886762Y-115820536D01*
X140890755Y-115820775D01*
X140894947Y-115821149D01*
X140902115Y-115822640D01*
X140979520Y-115820546D01*
X140982928Y-115820500D01*
X144667629Y-115820500D01*
X144735750Y-115840502D01*
X144756724Y-115857405D01*
X145000595Y-116101276D01*
X145034621Y-116163588D01*
X145037500Y-116190371D01*
X145037500Y-116516246D01*
X145017498Y-116584367D01*
X144963842Y-116630860D01*
X144955730Y-116634228D01*
X144915345Y-116649368D01*
X144899295Y-116655385D01*
X144782739Y-116742739D01*
X144695385Y-116859295D01*
X144644255Y-116995684D01*
X144637500Y-117057866D01*
X144637500Y-118654134D01*
X144644255Y-118716316D01*
X144695385Y-118852705D01*
X144782739Y-118969261D01*
X144899295Y-119056615D01*
X144907703Y-119059767D01*
X144983062Y-119088018D01*
X145039826Y-119130660D01*
X145064526Y-119197221D01*
X145049319Y-119266570D01*
X144999033Y-119316688D01*
X144983062Y-119323982D01*
X144899295Y-119355385D01*
X144782739Y-119442739D01*
X144695385Y-119559295D01*
X144644255Y-119695684D01*
X144637500Y-119757866D01*
X144637500Y-121354134D01*
X144644255Y-121416316D01*
X144695385Y-121552705D01*
X144782739Y-121669261D01*
X144899295Y-121756615D01*
X145035684Y-121807745D01*
X145097866Y-121814500D01*
X146020727Y-121814500D01*
X146088848Y-121834502D01*
X146135341Y-121888158D01*
X146145445Y-121958432D01*
X146116538Y-122022330D01*
X146099039Y-122042818D01*
X146099034Y-122042825D01*
X146095824Y-122046584D01*
X146093245Y-122050792D01*
X146093241Y-122050798D01*
X146003695Y-122196924D01*
X145971760Y-122249037D01*
X145969867Y-122253607D01*
X145969865Y-122253611D01*
X145882847Y-122463694D01*
X145880895Y-122468406D01*
X145879740Y-122473218D01*
X145829616Y-122682000D01*
X145825465Y-122699289D01*
X145806835Y-122936000D01*
X145825465Y-123172711D01*
X145826619Y-123177518D01*
X145826620Y-123177524D01*
X145861640Y-123323391D01*
X145880895Y-123403594D01*
X145882788Y-123408165D01*
X145882789Y-123408167D01*
X145952248Y-123575856D01*
X145971760Y-123622963D01*
X145974346Y-123627183D01*
X146093241Y-123821202D01*
X146093245Y-123821208D01*
X146095824Y-123825416D01*
X146250031Y-124005969D01*
X146430584Y-124160176D01*
X146434792Y-124162755D01*
X146434798Y-124162759D01*
X146592840Y-124259607D01*
X146633037Y-124284240D01*
X146637607Y-124286133D01*
X146637611Y-124286135D01*
X146847833Y-124373211D01*
X146852406Y-124375105D01*
X146930747Y-124393913D01*
X147078476Y-124429380D01*
X147078482Y-124429381D01*
X147083289Y-124430535D01*
X147320000Y-124449165D01*
X147556711Y-124430535D01*
X147561518Y-124429381D01*
X147561524Y-124429380D01*
X147709253Y-124393913D01*
X147787594Y-124375105D01*
X147792167Y-124373211D01*
X148002389Y-124286135D01*
X148002393Y-124286133D01*
X148006963Y-124284240D01*
X148047160Y-124259607D01*
X148205202Y-124162759D01*
X148205208Y-124162755D01*
X148209416Y-124160176D01*
X148389969Y-124005969D01*
X148544176Y-123825416D01*
X148546755Y-123821208D01*
X148546759Y-123821202D01*
X148665654Y-123627183D01*
X148668240Y-123622963D01*
X148687753Y-123575856D01*
X148757211Y-123408167D01*
X148757212Y-123408165D01*
X148759105Y-123403594D01*
X148778360Y-123323391D01*
X148813380Y-123177524D01*
X148813381Y-123177518D01*
X148814535Y-123172711D01*
X148833165Y-122936000D01*
X148814535Y-122699289D01*
X148810385Y-122682000D01*
X148760260Y-122473218D01*
X148759105Y-122468406D01*
X148757153Y-122463694D01*
X148670135Y-122253611D01*
X148670133Y-122253607D01*
X148668240Y-122249037D01*
X148636305Y-122196924D01*
X148546759Y-122050798D01*
X148546755Y-122050792D01*
X148544176Y-122046584D01*
X148455135Y-121942330D01*
X148426104Y-121877541D01*
X148436709Y-121807341D01*
X148483583Y-121754019D01*
X148550946Y-121734500D01*
X149034134Y-121734500D01*
X149096316Y-121727745D01*
X149232705Y-121676615D01*
X149349261Y-121589261D01*
X149436615Y-121472705D01*
X149487745Y-121336316D01*
X149494500Y-121274134D01*
X149494500Y-119677866D01*
X149487745Y-119615684D01*
X149436615Y-119479295D01*
X149349261Y-119362739D01*
X149232705Y-119275385D01*
X149148938Y-119243982D01*
X149092174Y-119201340D01*
X149067474Y-119134779D01*
X149082681Y-119065430D01*
X149132967Y-119015312D01*
X149148938Y-119008018D01*
X149224297Y-118979767D01*
X149232705Y-118976615D01*
X149349261Y-118889261D01*
X149436615Y-118772705D01*
X149487745Y-118636316D01*
X149494500Y-118574134D01*
X149494500Y-116977866D01*
X149487745Y-116915684D01*
X149436615Y-116779295D01*
X149349261Y-116662739D01*
X149232705Y-116575385D01*
X149211392Y-116567395D01*
X149176270Y-116554228D01*
X149119505Y-116511586D01*
X149094806Y-116445024D01*
X149094500Y-116436246D01*
X149094500Y-115891070D01*
X149095933Y-115872120D01*
X149098099Y-115857885D01*
X149098099Y-115857881D01*
X149099199Y-115850651D01*
X149098374Y-115840502D01*
X149094915Y-115797982D01*
X149094500Y-115787767D01*
X149094500Y-115779707D01*
X149091209Y-115751480D01*
X149090778Y-115747121D01*
X149088151Y-115714829D01*
X149084860Y-115674364D01*
X149082605Y-115667403D01*
X149081418Y-115661463D01*
X149080029Y-115655588D01*
X149079182Y-115648319D01*
X149054264Y-115579670D01*
X149052847Y-115575542D01*
X149032607Y-115513064D01*
X149032606Y-115513062D01*
X149030351Y-115506101D01*
X149026555Y-115499846D01*
X149024049Y-115494372D01*
X149021330Y-115488942D01*
X149018833Y-115482063D01*
X149012609Y-115472570D01*
X148978814Y-115421024D01*
X148976467Y-115417305D01*
X148938595Y-115354893D01*
X148931197Y-115346516D01*
X148931224Y-115346492D01*
X148928571Y-115343500D01*
X148925868Y-115340267D01*
X148921856Y-115334148D01*
X148865617Y-115280872D01*
X148863175Y-115278494D01*
X146125770Y-112541089D01*
X146113384Y-112526677D01*
X146104851Y-112515082D01*
X146104846Y-112515077D01*
X146100508Y-112509182D01*
X146094930Y-112504443D01*
X146094927Y-112504440D01*
X146060232Y-112474965D01*
X146052716Y-112468035D01*
X146047021Y-112462340D01*
X146040880Y-112457482D01*
X146024749Y-112444719D01*
X146021345Y-112441928D01*
X145971297Y-112399409D01*
X145971295Y-112399408D01*
X145965715Y-112394667D01*
X145959199Y-112391339D01*
X145954150Y-112387972D01*
X145949021Y-112384805D01*
X145943284Y-112380266D01*
X145877125Y-112349345D01*
X145873225Y-112347439D01*
X145808192Y-112314231D01*
X145801084Y-112312492D01*
X145795441Y-112310393D01*
X145789678Y-112308476D01*
X145783050Y-112305378D01*
X145711583Y-112290513D01*
X145707299Y-112289543D01*
X145636390Y-112272192D01*
X145630788Y-112271844D01*
X145630785Y-112271844D01*
X145625236Y-112271500D01*
X145625238Y-112271464D01*
X145621245Y-112271225D01*
X145617053Y-112270851D01*
X145609885Y-112269360D01*
X145543675Y-112271151D01*
X145532479Y-112271454D01*
X145529072Y-112271500D01*
X143944500Y-112271500D01*
X143876379Y-112251498D01*
X143829886Y-112197842D01*
X143818500Y-112145500D01*
X143818500Y-110358500D01*
X143838502Y-110290379D01*
X143892158Y-110243886D01*
X143944500Y-110232500D01*
X145077629Y-110232500D01*
X145145750Y-110252502D01*
X145166724Y-110269405D01*
X149939336Y-115042017D01*
X149973362Y-115104329D01*
X149972759Y-115160526D01*
X149953470Y-115240869D01*
X149934847Y-115477500D01*
X149953470Y-115714131D01*
X149974512Y-115801777D01*
X149987868Y-115857405D01*
X150008882Y-115944935D01*
X150010772Y-115949498D01*
X150010774Y-115949504D01*
X150088926Y-116138181D01*
X150099716Y-116164230D01*
X150223738Y-116366615D01*
X150377893Y-116547107D01*
X150381649Y-116550315D01*
X150381654Y-116550320D01*
X150500342Y-116651689D01*
X150539152Y-116711139D01*
X150539659Y-116782134D01*
X150500342Y-116843311D01*
X150381654Y-116944680D01*
X150381649Y-116944685D01*
X150377893Y-116947893D01*
X150223738Y-117128385D01*
X150099716Y-117330770D01*
X150097823Y-117335340D01*
X150097821Y-117335344D01*
X150010774Y-117545496D01*
X150010772Y-117545502D01*
X150008882Y-117550065D01*
X150007730Y-117554865D01*
X150007728Y-117554870D01*
X149995339Y-117606475D01*
X149953470Y-117780869D01*
X149934847Y-118017500D01*
X149953470Y-118254131D01*
X149970688Y-118325847D01*
X150007148Y-118477712D01*
X150008882Y-118484935D01*
X150010772Y-118489498D01*
X150010774Y-118489504D01*
X150097821Y-118699656D01*
X150099716Y-118704230D01*
X150223738Y-118906615D01*
X150377893Y-119087107D01*
X150558385Y-119241262D01*
X150562601Y-119243846D01*
X150562603Y-119243847D01*
X150577816Y-119253170D01*
X150625447Y-119305818D01*
X150637980Y-119360602D01*
X150637980Y-124335149D01*
X150617978Y-124403270D01*
X150601075Y-124424244D01*
X149836724Y-125188595D01*
X149774412Y-125222621D01*
X149747629Y-125225500D01*
X146416371Y-125225500D01*
X146348250Y-125205498D01*
X146327276Y-125188595D01*
X143331770Y-122193089D01*
X143319384Y-122178677D01*
X143310851Y-122167082D01*
X143310846Y-122167077D01*
X143306508Y-122161182D01*
X143300930Y-122156443D01*
X143300927Y-122156440D01*
X143266232Y-122126965D01*
X143258716Y-122120035D01*
X143253021Y-122114340D01*
X143233585Y-122098963D01*
X143230749Y-122096719D01*
X143227345Y-122093928D01*
X143177297Y-122051409D01*
X143177295Y-122051408D01*
X143171715Y-122046667D01*
X143165199Y-122043339D01*
X143160150Y-122039972D01*
X143155021Y-122036805D01*
X143149284Y-122032266D01*
X143083125Y-122001345D01*
X143079225Y-121999439D01*
X143070669Y-121995070D01*
X143014192Y-121966231D01*
X143007084Y-121964492D01*
X143001441Y-121962393D01*
X142995678Y-121960476D01*
X142989050Y-121957378D01*
X142917583Y-121942513D01*
X142913299Y-121941543D01*
X142842390Y-121924192D01*
X142836788Y-121923844D01*
X142836785Y-121923844D01*
X142831236Y-121923500D01*
X142831238Y-121923464D01*
X142827245Y-121923225D01*
X142823053Y-121922851D01*
X142815885Y-121921360D01*
X142749675Y-121923151D01*
X142738479Y-121923454D01*
X142735072Y-121923500D01*
X141836965Y-121923500D01*
X141768844Y-121903498D01*
X141729533Y-121863336D01*
X141718175Y-121844802D01*
X141686176Y-121792584D01*
X141650986Y-121751382D01*
X141535177Y-121615787D01*
X141531969Y-121612031D01*
X141351416Y-121457824D01*
X141347208Y-121455245D01*
X141347202Y-121455241D01*
X141153183Y-121336346D01*
X141148963Y-121333760D01*
X141144393Y-121331867D01*
X141144389Y-121331865D01*
X140934167Y-121244789D01*
X140934165Y-121244788D01*
X140929594Y-121242895D01*
X140845080Y-121222605D01*
X140703524Y-121188620D01*
X140703518Y-121188619D01*
X140698711Y-121187465D01*
X140462000Y-121168835D01*
X140225289Y-121187465D01*
X140220482Y-121188619D01*
X140220476Y-121188620D01*
X140078920Y-121222605D01*
X139994406Y-121242895D01*
X139989835Y-121244788D01*
X139989833Y-121244789D01*
X139779611Y-121331865D01*
X139779607Y-121331867D01*
X139775037Y-121333760D01*
X139770817Y-121336346D01*
X139576798Y-121455241D01*
X139576792Y-121455245D01*
X139572584Y-121457824D01*
X139392031Y-121612031D01*
X139237824Y-121792584D01*
X139235245Y-121796792D01*
X139235241Y-121796798D01*
X139132992Y-121963654D01*
X139113760Y-121995037D01*
X139111867Y-121999607D01*
X139111865Y-121999611D01*
X139060280Y-122124149D01*
X139022895Y-122214406D01*
X139021740Y-122219218D01*
X138985357Y-122370765D01*
X138967465Y-122445289D01*
X138948835Y-122682000D01*
X138967465Y-122918711D01*
X138968619Y-122923518D01*
X138968620Y-122923524D01*
X138991958Y-123020731D01*
X139022895Y-123149594D01*
X139024788Y-123154165D01*
X139024789Y-123154167D01*
X139078221Y-123283163D01*
X139113760Y-123368963D01*
X139116346Y-123373183D01*
X139235241Y-123567202D01*
X139235245Y-123567208D01*
X139237824Y-123571416D01*
X139392031Y-123751969D01*
X139572584Y-123906176D01*
X139576792Y-123908755D01*
X139576798Y-123908759D01*
X139740665Y-124009177D01*
X139775037Y-124030240D01*
X139779607Y-124032133D01*
X139779611Y-124032135D01*
X139989833Y-124119211D01*
X139994406Y-124121105D01*
X140074609Y-124140360D01*
X140220476Y-124175380D01*
X140220482Y-124175381D01*
X140225289Y-124176535D01*
X140303027Y-124182653D01*
X140367871Y-124187757D01*
X140434213Y-124213043D01*
X140476352Y-124270181D01*
X140483597Y-124323255D01*
X140478554Y-124387339D01*
X140472835Y-124460000D01*
X140491465Y-124696711D01*
X140492619Y-124701518D01*
X140492620Y-124701524D01*
X140510836Y-124777398D01*
X140507289Y-124848306D01*
X140477412Y-124895907D01*
X140321089Y-125052230D01*
X140306677Y-125064616D01*
X140295082Y-125073149D01*
X140295077Y-125073154D01*
X140289182Y-125077492D01*
X140284443Y-125083070D01*
X140284440Y-125083073D01*
X140254965Y-125117768D01*
X140248035Y-125125284D01*
X140242340Y-125130979D01*
X140240060Y-125133861D01*
X140224719Y-125153251D01*
X140221928Y-125156655D01*
X140179409Y-125206703D01*
X140174667Y-125212285D01*
X140171339Y-125218801D01*
X140167972Y-125223850D01*
X140164805Y-125228979D01*
X140160266Y-125234716D01*
X140129345Y-125300875D01*
X140127442Y-125304769D01*
X140094231Y-125369808D01*
X140092492Y-125376916D01*
X140090393Y-125382559D01*
X140088476Y-125388322D01*
X140085378Y-125394950D01*
X140083888Y-125402112D01*
X140083888Y-125402113D01*
X140070514Y-125466412D01*
X140069544Y-125470696D01*
X140052192Y-125541610D01*
X140051500Y-125552764D01*
X140051464Y-125552762D01*
X140051225Y-125556755D01*
X140050851Y-125560947D01*
X140049360Y-125568115D01*
X140050169Y-125597998D01*
X140050719Y-125618341D01*
X140032567Y-125686978D01*
X140000331Y-125722574D01*
X139946739Y-125762739D01*
X139910824Y-125810660D01*
X139853967Y-125853173D01*
X139783149Y-125858199D01*
X139720855Y-125824139D01*
X139709183Y-125810670D01*
X139673261Y-125762739D01*
X139556705Y-125675385D01*
X139420316Y-125624255D01*
X139358134Y-125617500D01*
X138261866Y-125617500D01*
X138199684Y-125624255D01*
X138063295Y-125675385D01*
X137946739Y-125762739D01*
X137910824Y-125810660D01*
X137853967Y-125853173D01*
X137783149Y-125858199D01*
X137720855Y-125824139D01*
X137709183Y-125810670D01*
X137673261Y-125762739D01*
X137556705Y-125675385D01*
X137420316Y-125624255D01*
X137358134Y-125617500D01*
X136261866Y-125617500D01*
X136199684Y-125624255D01*
X136063295Y-125675385D01*
X135946739Y-125762739D01*
X135910824Y-125810660D01*
X135853967Y-125853173D01*
X135783149Y-125858199D01*
X135720855Y-125824139D01*
X135709183Y-125810670D01*
X135673261Y-125762739D01*
X135556705Y-125675385D01*
X135420316Y-125624255D01*
X135358134Y-125617500D01*
X134261866Y-125617500D01*
X134199684Y-125624255D01*
X134063295Y-125675385D01*
X133946739Y-125762739D01*
X133910824Y-125810660D01*
X133853967Y-125853173D01*
X133783149Y-125858199D01*
X133720855Y-125824139D01*
X133709183Y-125810670D01*
X133673261Y-125762739D01*
X133556705Y-125675385D01*
X133420316Y-125624255D01*
X133358134Y-125617500D01*
X132261866Y-125617500D01*
X132199684Y-125624255D01*
X132063295Y-125675385D01*
X131946739Y-125762739D01*
X131910824Y-125810660D01*
X131853967Y-125853173D01*
X131783149Y-125858199D01*
X131720855Y-125824139D01*
X131709183Y-125810670D01*
X131673261Y-125762739D01*
X131556705Y-125675385D01*
X131420316Y-125624255D01*
X131358134Y-125617500D01*
X130261866Y-125617500D01*
X130199684Y-125624255D01*
X130063295Y-125675385D01*
X129946739Y-125762739D01*
X129941358Y-125769919D01*
X129910514Y-125811074D01*
X129853655Y-125853589D01*
X129782836Y-125858615D01*
X129720543Y-125824555D01*
X129708862Y-125811075D01*
X129678283Y-125770274D01*
X129665724Y-125757715D01*
X129563649Y-125681214D01*
X129548054Y-125672676D01*
X129427606Y-125627522D01*
X129412351Y-125623895D01*
X129361486Y-125618369D01*
X129354672Y-125618000D01*
X129082115Y-125618000D01*
X129066876Y-125622475D01*
X129065671Y-125623865D01*
X129064000Y-125631548D01*
X129064000Y-128615884D01*
X129068475Y-128631123D01*
X129069865Y-128632328D01*
X129077548Y-128633999D01*
X129354669Y-128633999D01*
X129361490Y-128633629D01*
X129412352Y-128628105D01*
X129427604Y-128624479D01*
X129548054Y-128579324D01*
X129563649Y-128570786D01*
X129665724Y-128494285D01*
X129678283Y-128481726D01*
X129708862Y-128440925D01*
X129765722Y-128398411D01*
X129836540Y-128393386D01*
X129898834Y-128427446D01*
X129910513Y-128440925D01*
X129946739Y-128489261D01*
X130063295Y-128576615D01*
X130199684Y-128627745D01*
X130261866Y-128634500D01*
X131358134Y-128634500D01*
X131420316Y-128627745D01*
X131556705Y-128576615D01*
X131673261Y-128489261D01*
X131709176Y-128441340D01*
X131766033Y-128398827D01*
X131836851Y-128393801D01*
X131899145Y-128427861D01*
X131910821Y-128441336D01*
X131927356Y-128463398D01*
X131928916Y-128465480D01*
X131953761Y-128531987D01*
X131938706Y-128601369D01*
X131917182Y-128630137D01*
X131245483Y-129301836D01*
X131183171Y-129335862D01*
X131126974Y-129335259D01*
X131046631Y-129315970D01*
X130810000Y-129297347D01*
X130573369Y-129315970D01*
X130452785Y-129344920D01*
X130347370Y-129370228D01*
X130347365Y-129370230D01*
X130342565Y-129371382D01*
X130338002Y-129373272D01*
X130337996Y-129373274D01*
X130127844Y-129460321D01*
X130127840Y-129460323D01*
X130123270Y-129462216D01*
X129920885Y-129586238D01*
X129740393Y-129740393D01*
X129586238Y-129920885D01*
X129462216Y-130123270D01*
X129460323Y-130127840D01*
X129460321Y-130127844D01*
X129373274Y-130337996D01*
X129373272Y-130338002D01*
X129371382Y-130342565D01*
X129370230Y-130347365D01*
X129370228Y-130347370D01*
X129355828Y-130407349D01*
X129315970Y-130573369D01*
X129297347Y-130810000D01*
X129315970Y-131046631D01*
X129317125Y-131051440D01*
X129370190Y-131272468D01*
X129371382Y-131277435D01*
X129373272Y-131281998D01*
X129373274Y-131282004D01*
X129444200Y-131453236D01*
X129462216Y-131496730D01*
X129586238Y-131699115D01*
X129740393Y-131879607D01*
X129920885Y-132033762D01*
X130123270Y-132157784D01*
X130127840Y-132159677D01*
X130127844Y-132159679D01*
X130288179Y-132226091D01*
X130343460Y-132270639D01*
X130365881Y-132338002D01*
X130348323Y-132406794D01*
X130296361Y-132455172D01*
X130239961Y-132468500D01*
X127187731Y-132468500D01*
X127119610Y-132448498D01*
X127073117Y-132394842D01*
X127063013Y-132324568D01*
X127092507Y-132259988D01*
X127139513Y-132226091D01*
X127300928Y-132159231D01*
X127309722Y-132154750D01*
X127477076Y-132052196D01*
X127486536Y-132041740D01*
X127482752Y-132032962D01*
X126631812Y-131182022D01*
X126617868Y-131174408D01*
X126616035Y-131174539D01*
X126609420Y-131178790D01*
X125758291Y-132029919D01*
X125751531Y-132042299D01*
X125757258Y-132049949D01*
X125928278Y-132154750D01*
X125937072Y-132159231D01*
X126098487Y-132226091D01*
X126153768Y-132270639D01*
X126176189Y-132338003D01*
X126158631Y-132406794D01*
X126106669Y-132455172D01*
X126050269Y-132468500D01*
X125213500Y-132468500D01*
X125145379Y-132448498D01*
X125098886Y-132394842D01*
X125087500Y-132342500D01*
X125087500Y-131989883D01*
X125107502Y-131921762D01*
X125131665Y-131894076D01*
X125148607Y-131879607D01*
X125151822Y-131875843D01*
X125151828Y-131875837D01*
X125282442Y-131722907D01*
X125341892Y-131684097D01*
X125377325Y-131681818D01*
X125396038Y-131673752D01*
X126246978Y-130822812D01*
X126253356Y-130811132D01*
X126983408Y-130811132D01*
X126983539Y-130812965D01*
X126987790Y-130819580D01*
X127838919Y-131670709D01*
X127851299Y-131677469D01*
X127858949Y-131671742D01*
X127963750Y-131500722D01*
X127968231Y-131491928D01*
X128055247Y-131281853D01*
X128058296Y-131272468D01*
X128111379Y-131051366D01*
X128112922Y-131041619D01*
X128130763Y-130814930D01*
X128130763Y-130805070D01*
X128112922Y-130578381D01*
X128111379Y-130568634D01*
X128058296Y-130347532D01*
X128055247Y-130338147D01*
X127968231Y-130128072D01*
X127963750Y-130119278D01*
X127861196Y-129951924D01*
X127850740Y-129942464D01*
X127841962Y-129946248D01*
X126991022Y-130797188D01*
X126983408Y-130811132D01*
X126253356Y-130811132D01*
X126254592Y-130808868D01*
X126254461Y-130807035D01*
X126250210Y-130800420D01*
X125399081Y-129949291D01*
X125382870Y-129940439D01*
X125318338Y-129926400D01*
X125282913Y-129897644D01*
X125151815Y-129744149D01*
X125148607Y-129740393D01*
X124968115Y-129586238D01*
X124955096Y-129578260D01*
X125751464Y-129578260D01*
X125755248Y-129587038D01*
X126606188Y-130437978D01*
X126620132Y-130445592D01*
X126621965Y-130445461D01*
X126628580Y-130441210D01*
X127479709Y-129590081D01*
X127486469Y-129577701D01*
X127480742Y-129570051D01*
X127309722Y-129465250D01*
X127300928Y-129460769D01*
X127090853Y-129373753D01*
X127081468Y-129370704D01*
X126860366Y-129317621D01*
X126850619Y-129316078D01*
X126623930Y-129298237D01*
X126614070Y-129298237D01*
X126387381Y-129316078D01*
X126377634Y-129317621D01*
X126156532Y-129370704D01*
X126147147Y-129373753D01*
X125937072Y-129460769D01*
X125928278Y-129465250D01*
X125760924Y-129567804D01*
X125751464Y-129578260D01*
X124955096Y-129578260D01*
X124765730Y-129462216D01*
X124761160Y-129460323D01*
X124761156Y-129460321D01*
X124551004Y-129373274D01*
X124550998Y-129373272D01*
X124546435Y-129371382D01*
X124541635Y-129370230D01*
X124541630Y-129370228D01*
X124436215Y-129344920D01*
X124315631Y-129315970D01*
X124079000Y-129297347D01*
X123842369Y-129315970D01*
X123721785Y-129344920D01*
X123616370Y-129370228D01*
X123616365Y-129370230D01*
X123611565Y-129371382D01*
X123607002Y-129373272D01*
X123606996Y-129373274D01*
X123396844Y-129460321D01*
X123396840Y-129460323D01*
X123392270Y-129462216D01*
X123189885Y-129586238D01*
X123009393Y-129740393D01*
X122855238Y-129920885D01*
X122731216Y-130123270D01*
X122729323Y-130127840D01*
X122729321Y-130127844D01*
X122642274Y-130337996D01*
X122642272Y-130338002D01*
X122640382Y-130342565D01*
X122639230Y-130347365D01*
X122639228Y-130347370D01*
X122624828Y-130407349D01*
X122584970Y-130573369D01*
X122566347Y-130810000D01*
X122584970Y-131046631D01*
X122586125Y-131051440D01*
X122639190Y-131272468D01*
X122640382Y-131277435D01*
X122642272Y-131281998D01*
X122642274Y-131282004D01*
X122713200Y-131453236D01*
X122731216Y-131496730D01*
X122855238Y-131699115D01*
X123009393Y-131879607D01*
X123026331Y-131894074D01*
X123065139Y-131953520D01*
X123070500Y-131989883D01*
X123070500Y-132342500D01*
X123050498Y-132410621D01*
X122996842Y-132457114D01*
X122944500Y-132468500D01*
X119948731Y-132468500D01*
X119880610Y-132448498D01*
X119834117Y-132394842D01*
X119824013Y-132324568D01*
X119853507Y-132259988D01*
X119900513Y-132226091D01*
X120061928Y-132159231D01*
X120070722Y-132154750D01*
X120238076Y-132052196D01*
X120247536Y-132041740D01*
X120243752Y-132032962D01*
X119109885Y-130899095D01*
X119075859Y-130836783D01*
X119077694Y-130811132D01*
X119744408Y-130811132D01*
X119744539Y-130812965D01*
X119748790Y-130819580D01*
X120599919Y-131670709D01*
X120612299Y-131677469D01*
X120619949Y-131671742D01*
X120724750Y-131500722D01*
X120729231Y-131491928D01*
X120816247Y-131281853D01*
X120819296Y-131272468D01*
X120872379Y-131051366D01*
X120873922Y-131041619D01*
X120891763Y-130814930D01*
X120891763Y-130805070D01*
X120873922Y-130578381D01*
X120872379Y-130568634D01*
X120819296Y-130347532D01*
X120816247Y-130338147D01*
X120729231Y-130128072D01*
X120724750Y-130119278D01*
X120622196Y-129951924D01*
X120611740Y-129942464D01*
X120602962Y-129946248D01*
X119752022Y-130797188D01*
X119744408Y-130811132D01*
X119077694Y-130811132D01*
X119080924Y-130765968D01*
X119109885Y-130720905D01*
X120240709Y-129590081D01*
X120247469Y-129577701D01*
X120241742Y-129570051D01*
X120070722Y-129465250D01*
X120061928Y-129460769D01*
X119851853Y-129373753D01*
X119842468Y-129370704D01*
X119621366Y-129317621D01*
X119611619Y-129316078D01*
X119384930Y-129298237D01*
X119375070Y-129298237D01*
X119148381Y-129316078D01*
X119138634Y-129317621D01*
X118917532Y-129370704D01*
X118908147Y-129373753D01*
X118698072Y-129460769D01*
X118689278Y-129465250D01*
X118495394Y-129584062D01*
X118487421Y-129589855D01*
X118479598Y-129596536D01*
X118414808Y-129625567D01*
X118344608Y-129614962D01*
X118291919Y-129568643D01*
X118290105Y-129563805D01*
X118202751Y-129447249D01*
X118086195Y-129359895D01*
X117949806Y-129308765D01*
X117887624Y-129302010D01*
X115792376Y-129302010D01*
X115730194Y-129308765D01*
X115593805Y-129359895D01*
X115477249Y-129447249D01*
X115389895Y-129563805D01*
X115338765Y-129700194D01*
X115332010Y-129762376D01*
X115332010Y-131857624D01*
X115338765Y-131919806D01*
X115389895Y-132056195D01*
X115477249Y-132172751D01*
X115548421Y-132226091D01*
X115569213Y-132241674D01*
X115611728Y-132298533D01*
X115616754Y-132369351D01*
X115582694Y-132431645D01*
X115520363Y-132465635D01*
X115493648Y-132468500D01*
X113481737Y-132468500D01*
X113413616Y-132448498D01*
X113367123Y-132394842D01*
X113357019Y-132324568D01*
X113386513Y-132259988D01*
X113415902Y-132235067D01*
X113507076Y-132179196D01*
X113516536Y-132168740D01*
X113512752Y-132159962D01*
X112378885Y-131026095D01*
X112344859Y-130963783D01*
X112346694Y-130938132D01*
X113013408Y-130938132D01*
X113013539Y-130939965D01*
X113017790Y-130946580D01*
X113868919Y-131797709D01*
X113881299Y-131804469D01*
X113888949Y-131798742D01*
X113993750Y-131627722D01*
X113998231Y-131618928D01*
X114085247Y-131408853D01*
X114088296Y-131399468D01*
X114141379Y-131178366D01*
X114142922Y-131168619D01*
X114160763Y-130941930D01*
X114160763Y-130932070D01*
X114142922Y-130705381D01*
X114141379Y-130695634D01*
X114088296Y-130474532D01*
X114085247Y-130465147D01*
X113998231Y-130255072D01*
X113993750Y-130246278D01*
X113891196Y-130078924D01*
X113880740Y-130069464D01*
X113871962Y-130073248D01*
X113021022Y-130924188D01*
X113013408Y-130938132D01*
X112346694Y-130938132D01*
X112349924Y-130892968D01*
X112378885Y-130847905D01*
X113509709Y-129717081D01*
X113516469Y-129704701D01*
X113510742Y-129697051D01*
X113339722Y-129592250D01*
X113330928Y-129587769D01*
X113120853Y-129500753D01*
X113111468Y-129497704D01*
X112890366Y-129444621D01*
X112880619Y-129443078D01*
X112653930Y-129425237D01*
X112644070Y-129425237D01*
X112417381Y-129443078D01*
X112407634Y-129444621D01*
X112186532Y-129497704D01*
X112177147Y-129500753D01*
X111967072Y-129587769D01*
X111958278Y-129592250D01*
X111764394Y-129711062D01*
X111756421Y-129716855D01*
X111748598Y-129723536D01*
X111683808Y-129752567D01*
X111613608Y-129741962D01*
X111560919Y-129695643D01*
X111559105Y-129690805D01*
X111471751Y-129574249D01*
X111355195Y-129486895D01*
X111218806Y-129435765D01*
X111156624Y-129429010D01*
X109061376Y-129429010D01*
X108999194Y-129435765D01*
X108862805Y-129486895D01*
X108746249Y-129574249D01*
X108658895Y-129690805D01*
X108607765Y-129827194D01*
X108601010Y-129889376D01*
X108601010Y-131984624D01*
X108607765Y-132046806D01*
X108658895Y-132183195D01*
X108716536Y-132260105D01*
X108721655Y-132266935D01*
X108746503Y-132333441D01*
X108731450Y-132402824D01*
X108681276Y-132453054D01*
X108620829Y-132468500D01*
X108114556Y-132468500D01*
X108046435Y-132448498D01*
X108018746Y-132424332D01*
X108007178Y-132410788D01*
X108007177Y-132410787D01*
X108003969Y-132407031D01*
X107823416Y-132252824D01*
X107819208Y-132250245D01*
X107819202Y-132250241D01*
X107625183Y-132131346D01*
X107620963Y-132128760D01*
X107616393Y-132126867D01*
X107616389Y-132126865D01*
X107406167Y-132039789D01*
X107406165Y-132039788D01*
X107401594Y-132037895D01*
X107320783Y-132018494D01*
X107175524Y-131983620D01*
X107175518Y-131983619D01*
X107170711Y-131982465D01*
X106934000Y-131963835D01*
X106929070Y-131964223D01*
X106929063Y-131964223D01*
X106925253Y-131964523D01*
X106855772Y-131949930D01*
X106805211Y-131900089D01*
X106789623Y-131830825D01*
X106795261Y-131800813D01*
X106797493Y-131793777D01*
X106799269Y-131788575D01*
X106871229Y-131591937D01*
X106871230Y-131591933D01*
X106872477Y-131588526D01*
X106873322Y-131585004D01*
X106873325Y-131584996D01*
X106952624Y-131254691D01*
X106952625Y-131254687D01*
X106953471Y-131251162D01*
X106970516Y-131110309D01*
X106994816Y-130909504D01*
X106994816Y-130909497D01*
X106995152Y-130906725D01*
X106995492Y-130895928D01*
X107001011Y-130720297D01*
X107001099Y-130717500D01*
X106999838Y-130695634D01*
X106981336Y-130374746D01*
X106981335Y-130374741D01*
X106981127Y-130371126D01*
X106960872Y-130255072D01*
X106922100Y-130032915D01*
X106922098Y-130032908D01*
X106921476Y-130029342D01*
X106896863Y-129946248D01*
X106842397Y-129762376D01*
X106822937Y-129696680D01*
X106819336Y-129688238D01*
X106688240Y-129380886D01*
X106688238Y-129380883D01*
X106686816Y-129377548D01*
X106684652Y-129373753D01*
X106516708Y-129079316D01*
X106514917Y-129076176D01*
X106499595Y-129055317D01*
X106388727Y-128904390D01*
X106309518Y-128796560D01*
X106073342Y-128542404D01*
X105809519Y-128317078D01*
X105591639Y-128170669D01*
X127802001Y-128170669D01*
X127802371Y-128177490D01*
X127807895Y-128228352D01*
X127811521Y-128243604D01*
X127856676Y-128364054D01*
X127865214Y-128379649D01*
X127941715Y-128481724D01*
X127954276Y-128494285D01*
X128056351Y-128570786D01*
X128071946Y-128579324D01*
X128192394Y-128624478D01*
X128207649Y-128628105D01*
X128258514Y-128633631D01*
X128265328Y-128634000D01*
X128537885Y-128634000D01*
X128553124Y-128629525D01*
X128554329Y-128628135D01*
X128556000Y-128620452D01*
X128556000Y-127398115D01*
X128551525Y-127382876D01*
X128550135Y-127381671D01*
X128542452Y-127380000D01*
X127820116Y-127380000D01*
X127804877Y-127384475D01*
X127803672Y-127385865D01*
X127802001Y-127393548D01*
X127802001Y-128170669D01*
X105591639Y-128170669D01*
X105521547Y-128123569D01*
X105213241Y-127964440D01*
X104888689Y-127841802D01*
X104885168Y-127840918D01*
X104885163Y-127840916D01*
X104723878Y-127800404D01*
X104552192Y-127757280D01*
X104526944Y-127753956D01*
X104211815Y-127712468D01*
X104211807Y-127712467D01*
X104208211Y-127711994D01*
X104063545Y-127709721D01*
X103864946Y-127706601D01*
X103864942Y-127706601D01*
X103861304Y-127706544D01*
X103857690Y-127706905D01*
X103857684Y-127706905D01*
X103614343Y-127731194D01*
X103516069Y-127741003D01*
X103227172Y-127803993D01*
X103225158Y-127804319D01*
X103223312Y-127804835D01*
X103196280Y-127810729D01*
X103180637Y-127814139D01*
X103180635Y-127814140D01*
X103177083Y-127814914D01*
X103135728Y-127829072D01*
X103128831Y-127831214D01*
X102894237Y-127896714D01*
X102890974Y-127898032D01*
X102890972Y-127898033D01*
X102859259Y-127910846D01*
X102575677Y-128025421D01*
X102273449Y-128188835D01*
X101991320Y-128384920D01*
X101988678Y-128387233D01*
X101988674Y-128387236D01*
X101827661Y-128528192D01*
X101732806Y-128611231D01*
X101501131Y-128864948D01*
X101299181Y-129142909D01*
X101129473Y-129441648D01*
X101083809Y-129548189D01*
X101079811Y-129557518D01*
X101034591Y-129612250D01*
X100966958Y-129633846D01*
X100898387Y-129615449D01*
X100850647Y-129562900D01*
X100838000Y-129507881D01*
X100838000Y-126962299D01*
X119655531Y-126962299D01*
X119661258Y-126969949D01*
X119832278Y-127074750D01*
X119841072Y-127079231D01*
X120051147Y-127166247D01*
X120060532Y-127169296D01*
X120281634Y-127222379D01*
X120291381Y-127223922D01*
X120518070Y-127241763D01*
X120527930Y-127241763D01*
X120754619Y-127223922D01*
X120764366Y-127222379D01*
X120985468Y-127169296D01*
X120994853Y-127166247D01*
X121204928Y-127079231D01*
X121213722Y-127074750D01*
X121381076Y-126972196D01*
X121390536Y-126961740D01*
X121386752Y-126952962D01*
X121287675Y-126853885D01*
X127802000Y-126853885D01*
X127806475Y-126869124D01*
X127807865Y-126870329D01*
X127815548Y-126872000D01*
X128537885Y-126872000D01*
X128553124Y-126867525D01*
X128554329Y-126866135D01*
X128556000Y-126858452D01*
X128556000Y-125636116D01*
X128551525Y-125620877D01*
X128550135Y-125619672D01*
X128542452Y-125618001D01*
X128265331Y-125618001D01*
X128258510Y-125618371D01*
X128207648Y-125623895D01*
X128192396Y-125627521D01*
X128071946Y-125672676D01*
X128056351Y-125681214D01*
X127954276Y-125757715D01*
X127941715Y-125770276D01*
X127865214Y-125872351D01*
X127856676Y-125887946D01*
X127811522Y-126008394D01*
X127807895Y-126023649D01*
X127802369Y-126074514D01*
X127802000Y-126081328D01*
X127802000Y-126853885D01*
X121287675Y-126853885D01*
X120535812Y-126102022D01*
X120521868Y-126094408D01*
X120520035Y-126094539D01*
X120513420Y-126098790D01*
X119662291Y-126949919D01*
X119655531Y-126962299D01*
X100838000Y-126962299D01*
X100838000Y-124460000D01*
X102511654Y-124460000D01*
X102511924Y-124464119D01*
X102527169Y-124696711D01*
X102531017Y-124755426D01*
X102531819Y-124759459D01*
X102531820Y-124759465D01*
X102586563Y-125034672D01*
X102588776Y-125045797D01*
X102590103Y-125049706D01*
X102590104Y-125049710D01*
X102664045Y-125267532D01*
X102683941Y-125326145D01*
X102711891Y-125382821D01*
X102792961Y-125547215D01*
X102814885Y-125591673D01*
X102835466Y-125622475D01*
X102970492Y-125824555D01*
X102979367Y-125837838D01*
X102982081Y-125840932D01*
X102982085Y-125840938D01*
X103142319Y-126023649D01*
X103174573Y-126060427D01*
X103177662Y-126063136D01*
X103394062Y-126252915D01*
X103394068Y-126252919D01*
X103397162Y-126255633D01*
X103400588Y-126257922D01*
X103400593Y-126257926D01*
X103584405Y-126380744D01*
X103643327Y-126420115D01*
X103647026Y-126421939D01*
X103647031Y-126421942D01*
X103764062Y-126479655D01*
X103908855Y-126551059D01*
X103912760Y-126552384D01*
X103912761Y-126552385D01*
X104185290Y-126644896D01*
X104185294Y-126644897D01*
X104189203Y-126646224D01*
X104193247Y-126647028D01*
X104193253Y-126647030D01*
X104475535Y-126703180D01*
X104475541Y-126703181D01*
X104479574Y-126703983D01*
X104483679Y-126704252D01*
X104483686Y-126704253D01*
X104770881Y-126723076D01*
X104775000Y-126723346D01*
X104779119Y-126723076D01*
X105066314Y-126704253D01*
X105066321Y-126704252D01*
X105070426Y-126703983D01*
X105074459Y-126703181D01*
X105074465Y-126703180D01*
X105356747Y-126647030D01*
X105356753Y-126647028D01*
X105360797Y-126646224D01*
X105364706Y-126644897D01*
X105364710Y-126644896D01*
X105637239Y-126552385D01*
X105637240Y-126552384D01*
X105641145Y-126551059D01*
X105785938Y-126479655D01*
X105902969Y-126421942D01*
X105902974Y-126421939D01*
X105906673Y-126420115D01*
X105965595Y-126380744D01*
X106149407Y-126257926D01*
X106149412Y-126257922D01*
X106152838Y-126255633D01*
X106155932Y-126252919D01*
X106155938Y-126252915D01*
X106372338Y-126063136D01*
X106375427Y-126060427D01*
X106407681Y-126023649D01*
X106567915Y-125840938D01*
X106567919Y-125840932D01*
X106570633Y-125837838D01*
X106579509Y-125824555D01*
X106714534Y-125622475D01*
X106735115Y-125591673D01*
X106757040Y-125547215D01*
X106838109Y-125382821D01*
X106866059Y-125326145D01*
X106885955Y-125267532D01*
X106959896Y-125049710D01*
X106959897Y-125049706D01*
X106961224Y-125045797D01*
X106963437Y-125034672D01*
X107018180Y-124759465D01*
X107018181Y-124759459D01*
X107018983Y-124755426D01*
X107022832Y-124696711D01*
X107038076Y-124464119D01*
X107038346Y-124460000D01*
X107034628Y-124403270D01*
X107019253Y-124168686D01*
X107019252Y-124168679D01*
X107018983Y-124164574D01*
X107018109Y-124160176D01*
X106962030Y-123878253D01*
X106962028Y-123878247D01*
X106961224Y-123874203D01*
X106943794Y-123822854D01*
X106931851Y-123787670D01*
X110257160Y-123787670D01*
X110262887Y-123795320D01*
X110434042Y-123900205D01*
X110442837Y-123904687D01*
X110652988Y-123991734D01*
X110662373Y-123994783D01*
X110883554Y-124047885D01*
X110893301Y-124049428D01*
X111120070Y-124067275D01*
X111129930Y-124067275D01*
X111356699Y-124049428D01*
X111366446Y-124047885D01*
X111587627Y-123994783D01*
X111597012Y-123991734D01*
X111807163Y-123904687D01*
X111815958Y-123900205D01*
X111983445Y-123797568D01*
X111992907Y-123787110D01*
X111989124Y-123778334D01*
X111137812Y-122927022D01*
X111123868Y-122919408D01*
X111122035Y-122919539D01*
X111115420Y-122923790D01*
X110263920Y-123775290D01*
X110257160Y-123787670D01*
X106931851Y-123787670D01*
X106867385Y-123597761D01*
X106867384Y-123597760D01*
X106866059Y-123593855D01*
X106781724Y-123422840D01*
X106736942Y-123332031D01*
X106736939Y-123332026D01*
X106735115Y-123328327D01*
X106680078Y-123245958D01*
X106572926Y-123085593D01*
X106572922Y-123085588D01*
X106570633Y-123082162D01*
X106567919Y-123079068D01*
X106567915Y-123079062D01*
X106378136Y-122862662D01*
X106375427Y-122859573D01*
X106305405Y-122798165D01*
X106155938Y-122667085D01*
X106155932Y-122667081D01*
X106152838Y-122664367D01*
X106149412Y-122662078D01*
X106149407Y-122662074D01*
X105996537Y-122559930D01*
X109612725Y-122559930D01*
X109630572Y-122786699D01*
X109632115Y-122796446D01*
X109685217Y-123017627D01*
X109688266Y-123027012D01*
X109775313Y-123237163D01*
X109779795Y-123245958D01*
X109882432Y-123413445D01*
X109892890Y-123422907D01*
X109901666Y-123419124D01*
X110752978Y-122567812D01*
X110760592Y-122553868D01*
X110760461Y-122552035D01*
X110756210Y-122545420D01*
X109904710Y-121693920D01*
X109892330Y-121687160D01*
X109884680Y-121692887D01*
X109779795Y-121864042D01*
X109775313Y-121872837D01*
X109688266Y-122082988D01*
X109685217Y-122092373D01*
X109632115Y-122313554D01*
X109630572Y-122323301D01*
X109612725Y-122550070D01*
X109612725Y-122559930D01*
X105996537Y-122559930D01*
X105910106Y-122502179D01*
X105906673Y-122499885D01*
X105902974Y-122498061D01*
X105902969Y-122498058D01*
X105677550Y-122386894D01*
X105641145Y-122368941D01*
X105599985Y-122354969D01*
X105364710Y-122275104D01*
X105364706Y-122275103D01*
X105360797Y-122273776D01*
X105356753Y-122272972D01*
X105356747Y-122272970D01*
X105074465Y-122216820D01*
X105074459Y-122216819D01*
X105070426Y-122216017D01*
X105066321Y-122215748D01*
X105066314Y-122215747D01*
X104779119Y-122196924D01*
X104775000Y-122196654D01*
X104770881Y-122196924D01*
X104483686Y-122215747D01*
X104483679Y-122215748D01*
X104479574Y-122216017D01*
X104475541Y-122216819D01*
X104475535Y-122216820D01*
X104193253Y-122272970D01*
X104193247Y-122272972D01*
X104189203Y-122273776D01*
X104185294Y-122275103D01*
X104185290Y-122275104D01*
X103950015Y-122354969D01*
X103908855Y-122368941D01*
X103872450Y-122386894D01*
X103647031Y-122498058D01*
X103647026Y-122498061D01*
X103643327Y-122499885D01*
X103639894Y-122502179D01*
X103400593Y-122662074D01*
X103400588Y-122662078D01*
X103397162Y-122664367D01*
X103394068Y-122667081D01*
X103394062Y-122667085D01*
X103244595Y-122798165D01*
X103174573Y-122859573D01*
X103171864Y-122862662D01*
X102982085Y-123079062D01*
X102982081Y-123079068D01*
X102979367Y-123082162D01*
X102977078Y-123085588D01*
X102977074Y-123085593D01*
X102869922Y-123245958D01*
X102814885Y-123328327D01*
X102813061Y-123332026D01*
X102813058Y-123332031D01*
X102768276Y-123422840D01*
X102683941Y-123593855D01*
X102682616Y-123597760D01*
X102682615Y-123597761D01*
X102606207Y-123822854D01*
X102588776Y-123874203D01*
X102587972Y-123878247D01*
X102587970Y-123878253D01*
X102531892Y-124160176D01*
X102531017Y-124164574D01*
X102530748Y-124168679D01*
X102530747Y-124168686D01*
X102515372Y-124403270D01*
X102511654Y-124460000D01*
X100838000Y-124460000D01*
X100838000Y-117514690D01*
X109612037Y-117514690D01*
X109639025Y-117737715D01*
X109705082Y-117952435D01*
X109707652Y-117957415D01*
X109707654Y-117957419D01*
X109741209Y-118022430D01*
X109808118Y-118152064D01*
X109944877Y-118330292D01*
X110111036Y-118481485D01*
X110115783Y-118484463D01*
X110115786Y-118484465D01*
X110243626Y-118564658D01*
X110301344Y-118600864D01*
X110446800Y-118659337D01*
X110503571Y-118682159D01*
X110559315Y-118726126D01*
X110582440Y-118793251D01*
X110565603Y-118862222D01*
X110509823Y-118913261D01*
X110493347Y-118920944D01*
X110488840Y-118924100D01*
X110488838Y-118924101D01*
X110317473Y-119044092D01*
X110317470Y-119044094D01*
X110312962Y-119047251D01*
X110157251Y-119202962D01*
X110154094Y-119207470D01*
X110154092Y-119207473D01*
X110046870Y-119360602D01*
X110030944Y-119383347D01*
X110028621Y-119388329D01*
X110028618Y-119388334D01*
X110012392Y-119423132D01*
X109937880Y-119582924D01*
X109880885Y-119795629D01*
X109861693Y-120015000D01*
X109880885Y-120234371D01*
X109937880Y-120447076D01*
X109940205Y-120452061D01*
X110028618Y-120641666D01*
X110028621Y-120641671D01*
X110030944Y-120646653D01*
X110034100Y-120651160D01*
X110034101Y-120651162D01*
X110150507Y-120817406D01*
X110157251Y-120827038D01*
X110312962Y-120982749D01*
X110317471Y-120985906D01*
X110317473Y-120985908D01*
X110384967Y-121033168D01*
X110429295Y-121088626D01*
X110436604Y-121159245D01*
X110404573Y-121222605D01*
X110378531Y-121243814D01*
X110266553Y-121312435D01*
X110257093Y-121322890D01*
X110260876Y-121331666D01*
X112345290Y-123416080D01*
X112357670Y-123422840D01*
X112365320Y-123417113D01*
X112470205Y-123245958D01*
X112474687Y-123237163D01*
X112561734Y-123027012D01*
X112564783Y-123017627D01*
X112617885Y-122796446D01*
X112619428Y-122786699D01*
X112631317Y-122635635D01*
X112656602Y-122569294D01*
X112713740Y-122527154D01*
X112784590Y-122522595D01*
X112822764Y-122538089D01*
X112973807Y-122630649D01*
X112973817Y-122630654D01*
X112978037Y-122633240D01*
X112982607Y-122635133D01*
X112982611Y-122635135D01*
X113192833Y-122722211D01*
X113197406Y-122724105D01*
X113277609Y-122743360D01*
X113423476Y-122778380D01*
X113423482Y-122778381D01*
X113428289Y-122779535D01*
X113665000Y-122798165D01*
X113901711Y-122779535D01*
X113906518Y-122778381D01*
X113906524Y-122778380D01*
X114052391Y-122743360D01*
X114132594Y-122724105D01*
X114137167Y-122722211D01*
X114347389Y-122635135D01*
X114347393Y-122635133D01*
X114351963Y-122633240D01*
X114456313Y-122569294D01*
X114550202Y-122511759D01*
X114550208Y-122511755D01*
X114554416Y-122509176D01*
X114558178Y-122505963D01*
X114558182Y-122505960D01*
X114607670Y-122463694D01*
X114672460Y-122434663D01*
X114742660Y-122445268D01*
X114795982Y-122492143D01*
X114815500Y-122559505D01*
X114815500Y-123128157D01*
X114814763Y-123141764D01*
X114813913Y-123149594D01*
X114810676Y-123179388D01*
X114812036Y-123194930D01*
X114815050Y-123229388D01*
X114815379Y-123234214D01*
X114815500Y-123236686D01*
X114815500Y-123239769D01*
X114815801Y-123242837D01*
X114819690Y-123282506D01*
X114819812Y-123283819D01*
X114827913Y-123376413D01*
X114829400Y-123381532D01*
X114829920Y-123386833D01*
X114856791Y-123475834D01*
X114857126Y-123476967D01*
X114883091Y-123566336D01*
X114885544Y-123571068D01*
X114887084Y-123576169D01*
X114889978Y-123581612D01*
X114930731Y-123658260D01*
X114931343Y-123659426D01*
X114971271Y-123736453D01*
X114974108Y-123741926D01*
X114977431Y-123746089D01*
X114979934Y-123750796D01*
X115038755Y-123822918D01*
X115039446Y-123823774D01*
X115070738Y-123862973D01*
X115073242Y-123865477D01*
X115073884Y-123866195D01*
X115077585Y-123870528D01*
X115104935Y-123904062D01*
X115140267Y-123933291D01*
X115149037Y-123941272D01*
X115956149Y-124748383D01*
X115965251Y-124758527D01*
X115988968Y-124788025D01*
X115993696Y-124791992D01*
X116027421Y-124820291D01*
X116031069Y-124823472D01*
X116032881Y-124825115D01*
X116035075Y-124827309D01*
X116068349Y-124854642D01*
X116069147Y-124855304D01*
X116140474Y-124915154D01*
X116145144Y-124917722D01*
X116149261Y-124921103D01*
X116189297Y-124942570D01*
X116231086Y-124964977D01*
X116232245Y-124965606D01*
X116308381Y-125007462D01*
X116308389Y-125007465D01*
X116313787Y-125010433D01*
X116318869Y-125012045D01*
X116323563Y-125014562D01*
X116389337Y-125034672D01*
X116412477Y-125041747D01*
X116413735Y-125042139D01*
X116437602Y-125049710D01*
X116502306Y-125070235D01*
X116507597Y-125070829D01*
X116512698Y-125072388D01*
X116605263Y-125081790D01*
X116606450Y-125081916D01*
X116635838Y-125085213D01*
X116652730Y-125087108D01*
X116652735Y-125087108D01*
X116656227Y-125087500D01*
X116659752Y-125087500D01*
X116660737Y-125087555D01*
X116666432Y-125088003D01*
X116678342Y-125089213D01*
X116703334Y-125091752D01*
X116703339Y-125091752D01*
X116709462Y-125092374D01*
X116755108Y-125088059D01*
X116766967Y-125087500D01*
X118968865Y-125087500D01*
X119036986Y-125107502D01*
X119083479Y-125161158D01*
X119093583Y-125231432D01*
X119087606Y-125253219D01*
X119088283Y-125253439D01*
X119083704Y-125267532D01*
X119030621Y-125488634D01*
X119029078Y-125498381D01*
X119011237Y-125725070D01*
X119011237Y-125734930D01*
X119029078Y-125961619D01*
X119030621Y-125971366D01*
X119083704Y-126192468D01*
X119086753Y-126201853D01*
X119173769Y-126411928D01*
X119178250Y-126420722D01*
X119280804Y-126588076D01*
X119291260Y-126597536D01*
X119300038Y-126593752D01*
X120162658Y-125731132D01*
X120887408Y-125731132D01*
X120887539Y-125732965D01*
X120891790Y-125739580D01*
X121742919Y-126590709D01*
X121755299Y-126597469D01*
X121762949Y-126591742D01*
X121867750Y-126420722D01*
X121872231Y-126411928D01*
X121959247Y-126201853D01*
X121962296Y-126192468D01*
X122015379Y-125971366D01*
X122016922Y-125961619D01*
X122034763Y-125734930D01*
X122034763Y-125725070D01*
X122016922Y-125498381D01*
X122015379Y-125488634D01*
X121962296Y-125267532D01*
X121959247Y-125258147D01*
X121872231Y-125048072D01*
X121867750Y-125039278D01*
X121765196Y-124871924D01*
X121754740Y-124862464D01*
X121745962Y-124866248D01*
X120895022Y-125717188D01*
X120887408Y-125731132D01*
X120162658Y-125731132D01*
X121383709Y-124510081D01*
X121392561Y-124493870D01*
X121406600Y-124429338D01*
X121435356Y-124393913D01*
X121588851Y-124262815D01*
X121592607Y-124259607D01*
X121746762Y-124079115D01*
X121870784Y-123876730D01*
X121875148Y-123866195D01*
X121959726Y-123662004D01*
X121959728Y-123661998D01*
X121961618Y-123657435D01*
X121970993Y-123618389D01*
X122015875Y-123431440D01*
X122017030Y-123426631D01*
X122035653Y-123190000D01*
X122017030Y-122953369D01*
X121979356Y-122796446D01*
X121962772Y-122727370D01*
X121962770Y-122727365D01*
X121961618Y-122722565D01*
X121959728Y-122718002D01*
X121959726Y-122717996D01*
X121872679Y-122507844D01*
X121872677Y-122507840D01*
X121870784Y-122503270D01*
X121746762Y-122300885D01*
X121592607Y-122120393D01*
X121412115Y-121966238D01*
X121209730Y-121842216D01*
X121205160Y-121840323D01*
X121205156Y-121840321D01*
X120995004Y-121753274D01*
X120994998Y-121753272D01*
X120990435Y-121751382D01*
X120985635Y-121750230D01*
X120985630Y-121750228D01*
X120880215Y-121724920D01*
X120759631Y-121695970D01*
X120523000Y-121677347D01*
X120286369Y-121695970D01*
X120165785Y-121724920D01*
X120060370Y-121750228D01*
X120060365Y-121750230D01*
X120055565Y-121751382D01*
X120051002Y-121753272D01*
X120050996Y-121753274D01*
X119840844Y-121840321D01*
X119840840Y-121840323D01*
X119836270Y-121842216D01*
X119832050Y-121844802D01*
X119638101Y-121963654D01*
X119638098Y-121963656D01*
X119633885Y-121966238D01*
X119630125Y-121969449D01*
X119627699Y-121971212D01*
X119560832Y-121995070D01*
X119491680Y-121978990D01*
X119442200Y-121928076D01*
X119428100Y-121858494D01*
X119431119Y-121839861D01*
X119438625Y-121808598D01*
X119477030Y-121648631D01*
X119495653Y-121412000D01*
X119477030Y-121175369D01*
X119431544Y-120985908D01*
X119422772Y-120949370D01*
X119422770Y-120949365D01*
X119421618Y-120944565D01*
X119419728Y-120940002D01*
X119419726Y-120939996D01*
X119332679Y-120729844D01*
X119332677Y-120729840D01*
X119330784Y-120725270D01*
X119206762Y-120522885D01*
X119052607Y-120342393D01*
X118872115Y-120188238D01*
X118669730Y-120064216D01*
X118665160Y-120062323D01*
X118665156Y-120062321D01*
X118455004Y-119975274D01*
X118454998Y-119975272D01*
X118450435Y-119973382D01*
X118445635Y-119972230D01*
X118445630Y-119972228D01*
X118340215Y-119946920D01*
X118219631Y-119917970D01*
X117983000Y-119899347D01*
X117746369Y-119917970D01*
X117625785Y-119946920D01*
X117520370Y-119972228D01*
X117520365Y-119972230D01*
X117515565Y-119973382D01*
X117511002Y-119975272D01*
X117510996Y-119975274D01*
X117300844Y-120062321D01*
X117300840Y-120062323D01*
X117296270Y-120064216D01*
X117093885Y-120188238D01*
X117090130Y-120191445D01*
X117090126Y-120191448D01*
X117090125Y-120191449D01*
X117040330Y-120233979D01*
X116975541Y-120263009D01*
X116905341Y-120252404D01*
X116852019Y-120205530D01*
X116832500Y-120138167D01*
X116832500Y-117663842D01*
X116833237Y-117650235D01*
X116836659Y-117618737D01*
X116836659Y-117618732D01*
X116837324Y-117612611D01*
X116832950Y-117562609D01*
X116832621Y-117557784D01*
X116832500Y-117555313D01*
X116832500Y-117552231D01*
X116828309Y-117509489D01*
X116828187Y-117508174D01*
X116824786Y-117469303D01*
X116820087Y-117415587D01*
X116818600Y-117410468D01*
X116818080Y-117405167D01*
X116791218Y-117316194D01*
X116790862Y-117314994D01*
X116764909Y-117225663D01*
X116762455Y-117220929D01*
X116760916Y-117215831D01*
X116717316Y-117133831D01*
X116716702Y-117132663D01*
X116676726Y-117055541D01*
X116676725Y-117055540D01*
X116673892Y-117050074D01*
X116670569Y-117045911D01*
X116668066Y-117041204D01*
X116609245Y-116969082D01*
X116608554Y-116968226D01*
X116577262Y-116929027D01*
X116574758Y-116926523D01*
X116574116Y-116925805D01*
X116570415Y-116921472D01*
X116543065Y-116887938D01*
X116507737Y-116858712D01*
X116498958Y-116850723D01*
X115183855Y-115535621D01*
X115174753Y-115525478D01*
X115154897Y-115500782D01*
X115151032Y-115495975D01*
X115112578Y-115463708D01*
X115108931Y-115460528D01*
X115107119Y-115458885D01*
X115104925Y-115456691D01*
X115071651Y-115429358D01*
X115070853Y-115428696D01*
X114999526Y-115368846D01*
X114994856Y-115366278D01*
X114990739Y-115362897D01*
X114908914Y-115319023D01*
X114907755Y-115318394D01*
X114831619Y-115276538D01*
X114831611Y-115276535D01*
X114826213Y-115273567D01*
X114821131Y-115271955D01*
X114816437Y-115269438D01*
X114810539Y-115267635D01*
X114810537Y-115267634D01*
X114753830Y-115250297D01*
X114705871Y-115222998D01*
X114683116Y-115202293D01*
X114678964Y-115198515D01*
X114488656Y-115079136D01*
X114280217Y-114995344D01*
X114060233Y-114949787D01*
X114055622Y-114949521D01*
X114055621Y-114949521D01*
X114005048Y-114946605D01*
X114005044Y-114946605D01*
X114003225Y-114946500D01*
X113358001Y-114946500D01*
X113355214Y-114946749D01*
X113355208Y-114946749D01*
X113285071Y-114953009D01*
X113191238Y-114961383D01*
X113185824Y-114962864D01*
X113185819Y-114962865D01*
X113071262Y-114994205D01*
X112974549Y-115020663D01*
X112969491Y-115023075D01*
X112969487Y-115023077D01*
X112929779Y-115042017D01*
X112771782Y-115117378D01*
X112589346Y-115248471D01*
X112566235Y-115272320D01*
X112468858Y-115372805D01*
X112433008Y-115409799D01*
X112401498Y-115456691D01*
X112313558Y-115587560D01*
X112307710Y-115596262D01*
X112217412Y-115801967D01*
X112216103Y-115807418D01*
X112216102Y-115807422D01*
X112193123Y-115903136D01*
X112164968Y-116020411D01*
X112152037Y-116244690D01*
X112152256Y-116246502D01*
X112134705Y-116314060D01*
X112082536Y-116362216D01*
X112012615Y-116374522D01*
X111959661Y-116356039D01*
X111953410Y-116352118D01*
X111953409Y-116352117D01*
X111948656Y-116349136D01*
X111740217Y-116265344D01*
X111520233Y-116219787D01*
X111515622Y-116219521D01*
X111515621Y-116219521D01*
X111465048Y-116216605D01*
X111465044Y-116216605D01*
X111463225Y-116216500D01*
X110818001Y-116216500D01*
X110815214Y-116216749D01*
X110815208Y-116216749D01*
X110745071Y-116223009D01*
X110651238Y-116231383D01*
X110645824Y-116232864D01*
X110645819Y-116232865D01*
X110539534Y-116261942D01*
X110434549Y-116290663D01*
X110429491Y-116293075D01*
X110429487Y-116293077D01*
X110385496Y-116314060D01*
X110231782Y-116387378D01*
X110096071Y-116484896D01*
X110058928Y-116511586D01*
X110049346Y-116518471D01*
X110021596Y-116547107D01*
X109920249Y-116651689D01*
X109893008Y-116679799D01*
X109767710Y-116866262D01*
X109677412Y-117071967D01*
X109676103Y-117077418D01*
X109676102Y-117077422D01*
X109641752Y-117220501D01*
X109624968Y-117290411D01*
X109624645Y-117296016D01*
X109612413Y-117508174D01*
X109612037Y-117514690D01*
X100838000Y-117514690D01*
X100838000Y-114300000D01*
X102511654Y-114300000D01*
X102511924Y-114304119D01*
X102530556Y-114588385D01*
X102531017Y-114595426D01*
X102531819Y-114599459D01*
X102531820Y-114599465D01*
X102587970Y-114881747D01*
X102588776Y-114885797D01*
X102590103Y-114889706D01*
X102590104Y-114889710D01*
X102682034Y-115160527D01*
X102683941Y-115166145D01*
X102685765Y-115169843D01*
X102802112Y-115405771D01*
X102814885Y-115431673D01*
X102848800Y-115482430D01*
X102977046Y-115674364D01*
X102979367Y-115677838D01*
X102982081Y-115680932D01*
X102982085Y-115680938D01*
X103149748Y-115872120D01*
X103174573Y-115900427D01*
X103177662Y-115903136D01*
X103394062Y-116092915D01*
X103394068Y-116092919D01*
X103397162Y-116095633D01*
X103400588Y-116097922D01*
X103400593Y-116097926D01*
X103578052Y-116216500D01*
X103643327Y-116260115D01*
X103647026Y-116261939D01*
X103647031Y-116261942D01*
X103783313Y-116329148D01*
X103908855Y-116391059D01*
X103912760Y-116392384D01*
X103912761Y-116392385D01*
X104185290Y-116484896D01*
X104185294Y-116484897D01*
X104189203Y-116486224D01*
X104193247Y-116487028D01*
X104193253Y-116487030D01*
X104475535Y-116543180D01*
X104475541Y-116543181D01*
X104479574Y-116543983D01*
X104483679Y-116544252D01*
X104483686Y-116544253D01*
X104770881Y-116563076D01*
X104775000Y-116563346D01*
X104779119Y-116563076D01*
X105066314Y-116544253D01*
X105066321Y-116544252D01*
X105070426Y-116543983D01*
X105074459Y-116543181D01*
X105074465Y-116543180D01*
X105356747Y-116487030D01*
X105356753Y-116487028D01*
X105360797Y-116486224D01*
X105364706Y-116484897D01*
X105364710Y-116484896D01*
X105637239Y-116392385D01*
X105637240Y-116392384D01*
X105641145Y-116391059D01*
X105766687Y-116329148D01*
X105902969Y-116261942D01*
X105902974Y-116261939D01*
X105906673Y-116260115D01*
X105971948Y-116216500D01*
X106149407Y-116097926D01*
X106149412Y-116097922D01*
X106152838Y-116095633D01*
X106155932Y-116092919D01*
X106155938Y-116092915D01*
X106372338Y-115903136D01*
X106375427Y-115900427D01*
X106400252Y-115872120D01*
X106567915Y-115680938D01*
X106567919Y-115680932D01*
X106570633Y-115677838D01*
X106572955Y-115674364D01*
X106701200Y-115482430D01*
X106735115Y-115431673D01*
X106747889Y-115405771D01*
X106864235Y-115169843D01*
X106866059Y-115166145D01*
X106867966Y-115160527D01*
X106959896Y-114889710D01*
X106959897Y-114889706D01*
X106961224Y-114885797D01*
X106962030Y-114881747D01*
X107018180Y-114599465D01*
X107018181Y-114599459D01*
X107018983Y-114595426D01*
X107019445Y-114588385D01*
X107038076Y-114304119D01*
X107038346Y-114300000D01*
X107018983Y-114004574D01*
X106987411Y-113845848D01*
X106962030Y-113718253D01*
X106962028Y-113718247D01*
X106961224Y-113714203D01*
X106949524Y-113679734D01*
X106867385Y-113437761D01*
X106867384Y-113437760D01*
X106866059Y-113433855D01*
X106740349Y-113178940D01*
X106736942Y-113172031D01*
X106736939Y-113172026D01*
X106735115Y-113168327D01*
X106646792Y-113036142D01*
X106572926Y-112925593D01*
X106572922Y-112925588D01*
X106570633Y-112922162D01*
X106567919Y-112919068D01*
X106567915Y-112919062D01*
X106378136Y-112702662D01*
X106375427Y-112699573D01*
X106366532Y-112691772D01*
X106155938Y-112507085D01*
X106155932Y-112507081D01*
X106152838Y-112504367D01*
X106149412Y-112502078D01*
X106149407Y-112502074D01*
X105965595Y-112379256D01*
X105906673Y-112339885D01*
X105902974Y-112338061D01*
X105902969Y-112338058D01*
X105717408Y-112246550D01*
X105641145Y-112208941D01*
X105637239Y-112207615D01*
X105364710Y-112115104D01*
X105364706Y-112115103D01*
X105360797Y-112113776D01*
X105356753Y-112112972D01*
X105356747Y-112112970D01*
X105074465Y-112056820D01*
X105074459Y-112056819D01*
X105070426Y-112056017D01*
X105066321Y-112055748D01*
X105066314Y-112055747D01*
X104779119Y-112036924D01*
X104775000Y-112036654D01*
X104770881Y-112036924D01*
X104483686Y-112055747D01*
X104483679Y-112055748D01*
X104479574Y-112056017D01*
X104475541Y-112056819D01*
X104475535Y-112056820D01*
X104193253Y-112112970D01*
X104193247Y-112112972D01*
X104189203Y-112113776D01*
X104185294Y-112115103D01*
X104185290Y-112115104D01*
X103912761Y-112207615D01*
X103908855Y-112208941D01*
X103832592Y-112246550D01*
X103647031Y-112338058D01*
X103647026Y-112338061D01*
X103643327Y-112339885D01*
X103584405Y-112379256D01*
X103400593Y-112502074D01*
X103400588Y-112502078D01*
X103397162Y-112504367D01*
X103394068Y-112507081D01*
X103394062Y-112507085D01*
X103183468Y-112691772D01*
X103174573Y-112699573D01*
X103171864Y-112702662D01*
X102982085Y-112919062D01*
X102982081Y-112919068D01*
X102979367Y-112922162D01*
X102977078Y-112925588D01*
X102977074Y-112925593D01*
X102903208Y-113036142D01*
X102814885Y-113168327D01*
X102813061Y-113172026D01*
X102813058Y-113172031D01*
X102809651Y-113178940D01*
X102683941Y-113433855D01*
X102682616Y-113437760D01*
X102682615Y-113437761D01*
X102600477Y-113679734D01*
X102588776Y-113714203D01*
X102587972Y-113718247D01*
X102587970Y-113718253D01*
X102562590Y-113845848D01*
X102531017Y-114004574D01*
X102511654Y-114300000D01*
X100838000Y-114300000D01*
X100838000Y-111252000D01*
X116470347Y-111252000D01*
X116488970Y-111488631D01*
X116513239Y-111589716D01*
X116539275Y-111698162D01*
X116544382Y-111719435D01*
X116546272Y-111723998D01*
X116546274Y-111724004D01*
X116612339Y-111883500D01*
X116635216Y-111938730D01*
X116759238Y-112141115D01*
X116853514Y-112251498D01*
X116909937Y-112317560D01*
X116913393Y-112321607D01*
X117093885Y-112475762D01*
X117296270Y-112599784D01*
X117300840Y-112601677D01*
X117300844Y-112601679D01*
X117510996Y-112688726D01*
X117511002Y-112688728D01*
X117515565Y-112690618D01*
X117520365Y-112691770D01*
X117520370Y-112691772D01*
X117596537Y-112710058D01*
X117746369Y-112746030D01*
X117983000Y-112764653D01*
X118219631Y-112746030D01*
X118369463Y-112710058D01*
X118445630Y-112691772D01*
X118445635Y-112691770D01*
X118450435Y-112690618D01*
X118454998Y-112688728D01*
X118455004Y-112688726D01*
X118665156Y-112601679D01*
X118665160Y-112601677D01*
X118669730Y-112599784D01*
X118872115Y-112475762D01*
X119052607Y-112321607D01*
X119056064Y-112317560D01*
X119112486Y-112251498D01*
X119206762Y-112141115D01*
X119330784Y-111938730D01*
X119353661Y-111883500D01*
X119419726Y-111724004D01*
X119419728Y-111723998D01*
X119421618Y-111719435D01*
X119426726Y-111698162D01*
X119452761Y-111589716D01*
X119477030Y-111488631D01*
X119495653Y-111252000D01*
X119477030Y-111015369D01*
X119441974Y-110869353D01*
X119422772Y-110789370D01*
X119422770Y-110789365D01*
X119421618Y-110784565D01*
X119419728Y-110780002D01*
X119419726Y-110779996D01*
X119332679Y-110569844D01*
X119332677Y-110569840D01*
X119330784Y-110565270D01*
X119206762Y-110362885D01*
X119052607Y-110182393D01*
X118872115Y-110028238D01*
X118669730Y-109904216D01*
X118665160Y-109902323D01*
X118665156Y-109902321D01*
X118455004Y-109815274D01*
X118454998Y-109815272D01*
X118450435Y-109813382D01*
X118445635Y-109812230D01*
X118445630Y-109812228D01*
X118319038Y-109781836D01*
X118219631Y-109757970D01*
X117983000Y-109739347D01*
X117746369Y-109757970D01*
X117646962Y-109781836D01*
X117520370Y-109812228D01*
X117520365Y-109812230D01*
X117515565Y-109813382D01*
X117511002Y-109815272D01*
X117510996Y-109815274D01*
X117300844Y-109902321D01*
X117300840Y-109902323D01*
X117296270Y-109904216D01*
X117093885Y-110028238D01*
X116913393Y-110182393D01*
X116759238Y-110362885D01*
X116635216Y-110565270D01*
X116633323Y-110569840D01*
X116633321Y-110569844D01*
X116546274Y-110779996D01*
X116546272Y-110780002D01*
X116544382Y-110784565D01*
X116543230Y-110789365D01*
X116543228Y-110789370D01*
X116524026Y-110869353D01*
X116488970Y-111015369D01*
X116470347Y-111252000D01*
X100838000Y-111252000D01*
X100838000Y-109258976D01*
X100858002Y-109190855D01*
X100911658Y-109144362D01*
X100981932Y-109134258D01*
X101046512Y-109163752D01*
X101081152Y-109212592D01*
X101092341Y-109240852D01*
X101093996Y-109243964D01*
X101093998Y-109243969D01*
X101169904Y-109386726D01*
X101253641Y-109544213D01*
X101255631Y-109547119D01*
X101255632Y-109547121D01*
X101445761Y-109824797D01*
X101445766Y-109824803D01*
X101447752Y-109827704D01*
X101672253Y-110087791D01*
X101674823Y-110090171D01*
X101674827Y-110090175D01*
X101751170Y-110160869D01*
X101924346Y-110321232D01*
X101927168Y-110323313D01*
X101927171Y-110323315D01*
X101945064Y-110336507D01*
X102200890Y-110525118D01*
X102203927Y-110526872D01*
X102203931Y-110526874D01*
X102319199Y-110593424D01*
X102498437Y-110696907D01*
X102501658Y-110698314D01*
X102810058Y-110833051D01*
X102810068Y-110833055D01*
X102813280Y-110834458D01*
X102816637Y-110835497D01*
X102816642Y-110835499D01*
X102953117Y-110877745D01*
X103141492Y-110936057D01*
X103144948Y-110936716D01*
X103144947Y-110936716D01*
X103475534Y-110999779D01*
X103475539Y-110999780D01*
X103478985Y-111000437D01*
X103704711Y-111017806D01*
X103818053Y-111026527D01*
X103818054Y-111026527D01*
X103821550Y-111026796D01*
X104036692Y-111019283D01*
X104161404Y-111014928D01*
X104161408Y-111014928D01*
X104164919Y-111014805D01*
X104334865Y-110989709D01*
X104501332Y-110965128D01*
X104501337Y-110965127D01*
X104504811Y-110964614D01*
X104508203Y-110963718D01*
X104508207Y-110963717D01*
X104833600Y-110877745D01*
X104833601Y-110877745D01*
X104836991Y-110876849D01*
X104946282Y-110834458D01*
X105154044Y-110753873D01*
X105154051Y-110753870D01*
X105157317Y-110752603D01*
X105160421Y-110750980D01*
X105160426Y-110750978D01*
X105458689Y-110595049D01*
X105458691Y-110595048D01*
X105461797Y-110593424D01*
X105555048Y-110530526D01*
X105743720Y-110403265D01*
X105743722Y-110403264D01*
X105746636Y-110401298D01*
X105754583Y-110394535D01*
X106005611Y-110180893D01*
X106005612Y-110180892D01*
X106008284Y-110178618D01*
X106149057Y-110028710D01*
X106241069Y-109930728D01*
X106241073Y-109930723D01*
X106243480Y-109928160D01*
X106245585Y-109925346D01*
X106245591Y-109925339D01*
X106430681Y-109677922D01*
X106449291Y-109653046D01*
X106451876Y-109648640D01*
X106621371Y-109359744D01*
X106621374Y-109359739D01*
X106623153Y-109356706D01*
X106634309Y-109331649D01*
X106761467Y-109046048D01*
X106761469Y-109046043D01*
X106762899Y-109042831D01*
X106797493Y-108933777D01*
X106799269Y-108928575D01*
X106871229Y-108731937D01*
X106871230Y-108731933D01*
X106872477Y-108728526D01*
X106873322Y-108725004D01*
X106873325Y-108724996D01*
X106952624Y-108394691D01*
X106952625Y-108394687D01*
X106953471Y-108391162D01*
X106959091Y-108344723D01*
X106994816Y-108049504D01*
X106994816Y-108049497D01*
X106995152Y-108046725D01*
X106998192Y-107950000D01*
X108977347Y-107950000D01*
X108995970Y-108186631D01*
X109024920Y-108307215D01*
X109045922Y-108394691D01*
X109051382Y-108417435D01*
X109053272Y-108421998D01*
X109053274Y-108422004D01*
X109140321Y-108632156D01*
X109142216Y-108636730D01*
X109266238Y-108839115D01*
X109420393Y-109019607D01*
X109600885Y-109173762D01*
X109803270Y-109297784D01*
X109807840Y-109299677D01*
X109807844Y-109299679D01*
X110017996Y-109386726D01*
X110018002Y-109386728D01*
X110022565Y-109388618D01*
X110027365Y-109389770D01*
X110027370Y-109389772D01*
X110132394Y-109414986D01*
X110253369Y-109444030D01*
X110490000Y-109462653D01*
X110726631Y-109444030D01*
X110847606Y-109414986D01*
X110952630Y-109389772D01*
X110952635Y-109389770D01*
X110957435Y-109388618D01*
X110961998Y-109386728D01*
X110962004Y-109386726D01*
X111172156Y-109299679D01*
X111172160Y-109299677D01*
X111176730Y-109297784D01*
X111379115Y-109173762D01*
X111559607Y-109019607D01*
X111562815Y-109015851D01*
X111562820Y-109015846D01*
X111664189Y-108897158D01*
X111723639Y-108858348D01*
X111794634Y-108857841D01*
X111855811Y-108897158D01*
X111957180Y-109015846D01*
X111957185Y-109015851D01*
X111960393Y-109019607D01*
X112140885Y-109173762D01*
X112343270Y-109297784D01*
X112347840Y-109299677D01*
X112347844Y-109299679D01*
X112557996Y-109386726D01*
X112558002Y-109386728D01*
X112562565Y-109388618D01*
X112567365Y-109389770D01*
X112567370Y-109389772D01*
X112672394Y-109414986D01*
X112793369Y-109444030D01*
X113030000Y-109462653D01*
X113266631Y-109444030D01*
X113387606Y-109414986D01*
X113492630Y-109389772D01*
X113492635Y-109389770D01*
X113497435Y-109388618D01*
X113501998Y-109386728D01*
X113502004Y-109386726D01*
X113712156Y-109299679D01*
X113712160Y-109299677D01*
X113716730Y-109297784D01*
X113919115Y-109173762D01*
X114099607Y-109019607D01*
X114102815Y-109015851D01*
X114102820Y-109015846D01*
X114204189Y-108897158D01*
X114263639Y-108858348D01*
X114334634Y-108857841D01*
X114395811Y-108897158D01*
X114497180Y-109015846D01*
X114497185Y-109015851D01*
X114500393Y-109019607D01*
X114680885Y-109173762D01*
X114883270Y-109297784D01*
X114887840Y-109299677D01*
X114887844Y-109299679D01*
X115097996Y-109386726D01*
X115098002Y-109386728D01*
X115102565Y-109388618D01*
X115107365Y-109389770D01*
X115107370Y-109389772D01*
X115212394Y-109414986D01*
X115333369Y-109444030D01*
X115570000Y-109462653D01*
X115806631Y-109444030D01*
X115927606Y-109414986D01*
X116032630Y-109389772D01*
X116032635Y-109389770D01*
X116037435Y-109388618D01*
X116041998Y-109386728D01*
X116042004Y-109386726D01*
X116252156Y-109299679D01*
X116252160Y-109299677D01*
X116256730Y-109297784D01*
X116459115Y-109173762D01*
X116462870Y-109170555D01*
X116462874Y-109170552D01*
X116471040Y-109163577D01*
X116535830Y-109134546D01*
X116606030Y-109145151D01*
X116659352Y-109192025D01*
X116663389Y-109198876D01*
X116665720Y-109203133D01*
X116742225Y-109305214D01*
X116754786Y-109317775D01*
X116856861Y-109394276D01*
X116872456Y-109402814D01*
X116992904Y-109447968D01*
X117008159Y-109451595D01*
X117059024Y-109457121D01*
X117065838Y-109457490D01*
X117837885Y-109457490D01*
X117853124Y-109453015D01*
X117854329Y-109451625D01*
X117856000Y-109443942D01*
X117856000Y-109439374D01*
X118364000Y-109439374D01*
X118368475Y-109454613D01*
X118369865Y-109455818D01*
X118377548Y-109457489D01*
X119154159Y-109457489D01*
X119160980Y-109457119D01*
X119211842Y-109451595D01*
X119227094Y-109447969D01*
X119347544Y-109402814D01*
X119363139Y-109394276D01*
X119465214Y-109317775D01*
X119477775Y-109305214D01*
X119554276Y-109203139D01*
X119562814Y-109187544D01*
X119607968Y-109067096D01*
X119611595Y-109051841D01*
X119617121Y-109000976D01*
X119617490Y-108994162D01*
X119617490Y-108222115D01*
X119613015Y-108206876D01*
X119611625Y-108205671D01*
X119603942Y-108204000D01*
X118382115Y-108204000D01*
X118366876Y-108208475D01*
X118365671Y-108209865D01*
X118364000Y-108217548D01*
X118364000Y-109439374D01*
X117856000Y-109439374D01*
X117856000Y-107677885D01*
X118364000Y-107677885D01*
X118368475Y-107693124D01*
X118369865Y-107694329D01*
X118377548Y-107696000D01*
X119599374Y-107696000D01*
X119614613Y-107691525D01*
X119615818Y-107690135D01*
X119617489Y-107682452D01*
X119617489Y-106905841D01*
X119617119Y-106899020D01*
X119611595Y-106848158D01*
X119607969Y-106832906D01*
X119562814Y-106712456D01*
X119554276Y-106696861D01*
X119477775Y-106594786D01*
X119465214Y-106582225D01*
X119363139Y-106505724D01*
X119347544Y-106497186D01*
X119227096Y-106452032D01*
X119211841Y-106448405D01*
X119160976Y-106442879D01*
X119154162Y-106442510D01*
X118382115Y-106442510D01*
X118366876Y-106446985D01*
X118365671Y-106448375D01*
X118364000Y-106456058D01*
X118364000Y-107677885D01*
X117856000Y-107677885D01*
X117856000Y-106460626D01*
X117851525Y-106445387D01*
X117850135Y-106444182D01*
X117842452Y-106442511D01*
X117065841Y-106442511D01*
X117059020Y-106442881D01*
X117008158Y-106448405D01*
X116992906Y-106452031D01*
X116872456Y-106497186D01*
X116856861Y-106505724D01*
X116754786Y-106582225D01*
X116742225Y-106594786D01*
X116665720Y-106696867D01*
X116663389Y-106701124D01*
X116613130Y-106751269D01*
X116543738Y-106766281D01*
X116477246Y-106741394D01*
X116471040Y-106736423D01*
X116462874Y-106729448D01*
X116462870Y-106729445D01*
X116459115Y-106726238D01*
X116256730Y-106602216D01*
X116252160Y-106600323D01*
X116252156Y-106600321D01*
X116042004Y-106513274D01*
X116041998Y-106513272D01*
X116037435Y-106511382D01*
X116032635Y-106510230D01*
X116032630Y-106510228D01*
X115875861Y-106472591D01*
X115806631Y-106455970D01*
X115570000Y-106437347D01*
X115333369Y-106455970D01*
X115264139Y-106472591D01*
X115107370Y-106510228D01*
X115107365Y-106510230D01*
X115102565Y-106511382D01*
X115098002Y-106513272D01*
X115097996Y-106513274D01*
X114887844Y-106600321D01*
X114887840Y-106600323D01*
X114883270Y-106602216D01*
X114680885Y-106726238D01*
X114500393Y-106880393D01*
X114497185Y-106884149D01*
X114497180Y-106884154D01*
X114395811Y-107002842D01*
X114336361Y-107041652D01*
X114265366Y-107042159D01*
X114204189Y-107002842D01*
X114102820Y-106884154D01*
X114102815Y-106884149D01*
X114099607Y-106880393D01*
X113919115Y-106726238D01*
X113716730Y-106602216D01*
X113712160Y-106600323D01*
X113712156Y-106600321D01*
X113502004Y-106513274D01*
X113501998Y-106513272D01*
X113497435Y-106511382D01*
X113492635Y-106510230D01*
X113492630Y-106510228D01*
X113335861Y-106472591D01*
X113266631Y-106455970D01*
X113030000Y-106437347D01*
X112793369Y-106455970D01*
X112724139Y-106472591D01*
X112567370Y-106510228D01*
X112567365Y-106510230D01*
X112562565Y-106511382D01*
X112558002Y-106513272D01*
X112557996Y-106513274D01*
X112347844Y-106600321D01*
X112347840Y-106600323D01*
X112343270Y-106602216D01*
X112140885Y-106726238D01*
X111960393Y-106880393D01*
X111957185Y-106884149D01*
X111957180Y-106884154D01*
X111855811Y-107002842D01*
X111796361Y-107041652D01*
X111725366Y-107042159D01*
X111664189Y-107002842D01*
X111562820Y-106884154D01*
X111562815Y-106884149D01*
X111559607Y-106880393D01*
X111379115Y-106726238D01*
X111176730Y-106602216D01*
X111172160Y-106600323D01*
X111172156Y-106600321D01*
X110962004Y-106513274D01*
X110961998Y-106513272D01*
X110957435Y-106511382D01*
X110952635Y-106510230D01*
X110952630Y-106510228D01*
X110795861Y-106472591D01*
X110726631Y-106455970D01*
X110490000Y-106437347D01*
X110253369Y-106455970D01*
X110184139Y-106472591D01*
X110027370Y-106510228D01*
X110027365Y-106510230D01*
X110022565Y-106511382D01*
X110018002Y-106513272D01*
X110017996Y-106513274D01*
X109807844Y-106600321D01*
X109807840Y-106600323D01*
X109803270Y-106602216D01*
X109600885Y-106726238D01*
X109420393Y-106880393D01*
X109266238Y-107060885D01*
X109142216Y-107263270D01*
X109140323Y-107267840D01*
X109140321Y-107267844D01*
X109053274Y-107477996D01*
X109053272Y-107478002D01*
X109051382Y-107482565D01*
X109050230Y-107487365D01*
X109050228Y-107487370D01*
X109030496Y-107569559D01*
X108995970Y-107713369D01*
X108977347Y-107950000D01*
X106998192Y-107950000D01*
X107001099Y-107857500D01*
X106999659Y-107832521D01*
X106981336Y-107514746D01*
X106981335Y-107514741D01*
X106981127Y-107511126D01*
X106951607Y-107341982D01*
X106922100Y-107172915D01*
X106922098Y-107172908D01*
X106921476Y-107169342D01*
X106916257Y-107151721D01*
X106853928Y-106941304D01*
X106822937Y-106836680D01*
X106821327Y-106832906D01*
X106688240Y-106520886D01*
X106688238Y-106520883D01*
X106686816Y-106517548D01*
X106680032Y-106505653D01*
X106516708Y-106219316D01*
X106514917Y-106216176D01*
X106309518Y-105936560D01*
X106073342Y-105682404D01*
X105809519Y-105457078D01*
X105521547Y-105263569D01*
X105213241Y-105104440D01*
X104888689Y-104981802D01*
X104885168Y-104980918D01*
X104885163Y-104980916D01*
X104555719Y-104898166D01*
X104555720Y-104898166D01*
X104552192Y-104897280D01*
X104552248Y-104897056D01*
X104490471Y-104865357D01*
X104454855Y-104803940D01*
X104458097Y-104733018D01*
X104499168Y-104675107D01*
X104565028Y-104648594D01*
X104577246Y-104648000D01*
X156846000Y-104648000D01*
X156914121Y-104668002D01*
G37*
%TD.AperFunction*%
%TA.AperFunction,Conductor*%
G36*
X112176291Y-118490978D02*
G01*
X112176309Y-118490593D01*
X112185079Y-118491000D01*
X113793000Y-118491000D01*
X113861121Y-118511002D01*
X113907614Y-118564658D01*
X113919000Y-118617000D01*
X113919000Y-118873000D01*
X113898998Y-118941121D01*
X113845342Y-118987614D01*
X113793000Y-118999000D01*
X112196589Y-118999000D01*
X112182609Y-119003105D01*
X112181757Y-119008593D01*
X112151544Y-119072840D01*
X112091394Y-119110555D01*
X112020401Y-119109762D01*
X111968152Y-119078365D01*
X111937038Y-119047251D01*
X111756654Y-118920944D01*
X111751673Y-118918621D01*
X111751662Y-118918615D01*
X111736021Y-118911322D01*
X111682737Y-118864405D01*
X111663276Y-118796128D01*
X111683818Y-118728168D01*
X111737841Y-118682102D01*
X111756022Y-118675595D01*
X111790629Y-118666128D01*
X111810038Y-118660818D01*
X111810040Y-118660817D01*
X111815451Y-118659337D01*
X111820509Y-118656925D01*
X111820513Y-118656923D01*
X111938042Y-118600864D01*
X112018218Y-118562622D01*
X112089701Y-118511256D01*
X112156694Y-118487749D01*
X112176291Y-118490978D01*
G37*
%TD.AperFunction*%
%TD*%
M02*
