%TF.GenerationSoftware,KiCad,Pcbnew,6.0.2+dfsg-1*%
%TF.CreationDate,2022-10-03T17:06:02+02:00*%
%TF.ProjectId,smartyreader_ng_lora,736d6172-7479-4726-9561-6465725f6e67,rev?*%
%TF.SameCoordinates,Original*%
%TF.FileFunction,Soldermask,Top*%
%TF.FilePolarity,Negative*%
%FSLAX46Y46*%
G04 Gerber Fmt 4.6, Leading zero omitted, Abs format (unit mm)*
G04 Created by KiCad (PCBNEW 6.0.2+dfsg-1) date 2022-10-03 17:06:02*
%MOMM*%
%LPD*%
G01*
G04 APERTURE LIST*
G04 Aperture macros list*
%AMRoundRect*
0 Rectangle with rounded corners*
0 $1 Rounding radius*
0 $2 $3 $4 $5 $6 $7 $8 $9 X,Y pos of 4 corners*
0 Add a 4 corners polygon primitive as box body*
4,1,4,$2,$3,$4,$5,$6,$7,$8,$9,$2,$3,0*
0 Add four circle primitives for the rounded corners*
1,1,$1+$1,$2,$3*
1,1,$1+$1,$4,$5*
1,1,$1+$1,$6,$7*
1,1,$1+$1,$8,$9*
0 Add four rect primitives between the rounded corners*
20,1,$1+$1,$2,$3,$4,$5,0*
20,1,$1+$1,$4,$5,$6,$7,0*
20,1,$1+$1,$6,$7,$8,$9,0*
20,1,$1+$1,$8,$9,$2,$3,0*%
G04 Aperture macros list end*
%ADD10C,2.398980*%
%ADD11O,1.900000X2.398980*%
%ADD12RoundRect,0.200000X0.999490X0.999490X-0.999490X0.999490X-0.999490X-0.999490X0.999490X-0.999490X0*%
%ADD13C,5.400000*%
%ADD14O,2.400000X1.900000*%
%ADD15C,1.900000*%
%ADD16C,2.400000*%
%ADD17C,3.900000*%
%ADD18RoundRect,0.200000X-0.999490X-0.999490X0.999490X-0.999490X0.999490X0.999490X-0.999490X0.999490X0*%
%ADD19RoundRect,0.200000X0.650000X-0.750000X0.650000X0.750000X-0.650000X0.750000X-0.650000X-0.750000X0*%
%ADD20RoundRect,0.200000X0.500000X-0.500000X0.500000X0.500000X-0.500000X0.500000X-0.500000X-0.500000X0*%
%ADD21RoundRect,0.200000X1.100000X-0.525000X1.100000X0.525000X-1.100000X0.525000X-1.100000X-0.525000X0*%
%ADD22C,3.000000*%
%ADD23C,5.528260*%
G04 APERTURE END LIST*
D10*
%TO.C,W1*%
X148590000Y-130810000D03*
X146050000Y-130810000D03*
X143510000Y-130810000D03*
X140970000Y-130810000D03*
X138430000Y-130810000D03*
X135890000Y-130810000D03*
X133350000Y-130810000D03*
X130810000Y-130810000D03*
X130810000Y-107950000D03*
X133350000Y-107950000D03*
X135890000Y-107950000D03*
D11*
X138430000Y-107950000D03*
X140970000Y-107950000D03*
X143510000Y-107950000D03*
X146050000Y-107950000D03*
D12*
X148590000Y-107950000D03*
%TD*%
%TO.C,J3*%
X153987500Y-118017500D03*
D10*
X151447500Y-118017500D03*
X153987500Y-115477500D03*
X151447500Y-115477500D03*
X153987500Y-112937500D03*
X151447500Y-112937500D03*
X153987500Y-110397500D03*
X151447500Y-110397500D03*
X153987500Y-107857500D03*
X151447500Y-107857500D03*
D13*
X103987500Y-107857500D03*
X103987500Y-130717500D03*
%TD*%
D10*
%TO.C,C1*%
X120523000Y-123190000D03*
X120523000Y-125730000D03*
%TD*%
D14*
%TO.C,J1*%
X113665000Y-116205000D03*
X111125000Y-117475000D03*
X113665000Y-118745000D03*
D15*
X111125000Y-120015000D03*
D16*
X113665000Y-121285000D03*
X111125000Y-122555000D03*
D17*
X104775000Y-114300000D03*
X104775000Y-124460000D03*
%TD*%
D12*
%TO.C,J2*%
X118110000Y-107950000D03*
D10*
X115570000Y-107950000D03*
X113030000Y-107950000D03*
X110490000Y-107950000D03*
%TD*%
D18*
%TO.C,J5*%
X116840000Y-130810000D03*
D10*
X119380000Y-130810000D03*
%TD*%
%TO.C,R4*%
X117983000Y-111252000D03*
X117983000Y-121412000D03*
%TD*%
D19*
%TO.C,R5*%
X138430000Y-113110000D03*
X138430000Y-110410000D03*
%TD*%
D10*
%TO.C,C3*%
X124079000Y-130810000D03*
X126619000Y-130810000D03*
%TD*%
D20*
%TO.C,J6*%
X124587000Y-111125000D03*
D21*
X123087000Y-109650000D03*
X123087000Y-112600000D03*
D20*
X121587000Y-111125000D03*
%TD*%
D19*
%TO.C,R6*%
X135890000Y-113110000D03*
X135890000Y-110410000D03*
%TD*%
D22*
%TO.C,J7*%
X126365000Y-108458000D03*
%TD*%
D18*
%TO.C,C2*%
X110109000Y-130937000D03*
D10*
X112649000Y-130937000D03*
%TD*%
D23*
%TO.C,H1*%
X103886000Y-107950000D03*
%TD*%
%TO.C,H2*%
X153670000Y-130810000D03*
%TD*%
%TO.C,H3*%
X103886000Y-130810000D03*
%TD*%
M02*
