%TF.GenerationSoftware,KiCad,Pcbnew,6.0.2+dfsg-1*%
%TF.CreationDate,2022-10-03T17:06:02+02:00*%
%TF.ProjectId,smartyreader_ng_lora,736d6172-7479-4726-9561-6465725f6e67,rev?*%
%TF.SameCoordinates,Original*%
%TF.FileFunction,Legend,Top*%
%TF.FilePolarity,Positive*%
%FSLAX46Y46*%
G04 Gerber Fmt 4.6, Leading zero omitted, Abs format (unit mm)*
G04 Created by KiCad (PCBNEW 6.0.2+dfsg-1) date 2022-10-03 17:06:02*
%MOMM*%
%LPD*%
G01*
G04 APERTURE LIST*
%ADD10C,0.200000*%
%ADD11C,0.250000*%
%ADD12C,0.127000*%
%ADD13C,0.150000*%
%ADD14C,0.250190*%
%ADD15C,0.203200*%
%ADD16C,0.190500*%
%ADD17C,0.381000*%
%ADD18C,0.304800*%
%ADD19C,0.120000*%
%ADD20C,0.010000*%
%ADD21C,1.998980*%
%ADD22O,1.500000X1.998980*%
%ADD23R,1.998980X1.998980*%
%ADD24C,2.600000*%
%ADD25C,5.128260*%
G04 APERTURE END LIST*
D10*
X151682714Y-125504380D02*
X151682714Y-124504380D01*
X151682714Y-125456761D02*
X151606523Y-125504380D01*
X151454142Y-125504380D01*
X151377952Y-125456761D01*
X151339857Y-125409142D01*
X151301761Y-125313904D01*
X151301761Y-125028190D01*
X151339857Y-124932952D01*
X151377952Y-124885333D01*
X151454142Y-124837714D01*
X151606523Y-124837714D01*
X151682714Y-124885333D01*
X152368428Y-125456761D02*
X152292238Y-125504380D01*
X152139857Y-125504380D01*
X152063666Y-125456761D01*
X152025571Y-125361523D01*
X152025571Y-124980571D01*
X152063666Y-124885333D01*
X152139857Y-124837714D01*
X152292238Y-124837714D01*
X152368428Y-124885333D01*
X152406523Y-124980571D01*
X152406523Y-125075809D01*
X152025571Y-125171047D01*
X152711285Y-125456761D02*
X152787476Y-125504380D01*
X152939857Y-125504380D01*
X153016047Y-125456761D01*
X153054142Y-125361523D01*
X153054142Y-125313904D01*
X153016047Y-125218666D01*
X152939857Y-125171047D01*
X152825571Y-125171047D01*
X152749380Y-125123428D01*
X152711285Y-125028190D01*
X152711285Y-124980571D01*
X152749380Y-124885333D01*
X152825571Y-124837714D01*
X152939857Y-124837714D01*
X153016047Y-124885333D01*
X153397000Y-125504380D02*
X153397000Y-124837714D01*
X153397000Y-124504380D02*
X153358904Y-124552000D01*
X153397000Y-124599619D01*
X153435095Y-124552000D01*
X153397000Y-124504380D01*
X153397000Y-124599619D01*
X154120809Y-124837714D02*
X154120809Y-125647238D01*
X154082714Y-125742476D01*
X154044619Y-125790095D01*
X153968428Y-125837714D01*
X153854142Y-125837714D01*
X153777952Y-125790095D01*
X154120809Y-125456761D02*
X154044619Y-125504380D01*
X153892238Y-125504380D01*
X153816047Y-125456761D01*
X153777952Y-125409142D01*
X153739857Y-125313904D01*
X153739857Y-125028190D01*
X153777952Y-124932952D01*
X153816047Y-124885333D01*
X153892238Y-124837714D01*
X154044619Y-124837714D01*
X154120809Y-124885333D01*
X154501761Y-124837714D02*
X154501761Y-125504380D01*
X154501761Y-124932952D02*
X154539857Y-124885333D01*
X154616047Y-124837714D01*
X154730333Y-124837714D01*
X154806523Y-124885333D01*
X154844619Y-124980571D01*
X154844619Y-125504380D01*
X155530333Y-125456761D02*
X155454142Y-125504380D01*
X155301761Y-125504380D01*
X155225571Y-125456761D01*
X155187476Y-125361523D01*
X155187476Y-124980571D01*
X155225571Y-124885333D01*
X155301761Y-124837714D01*
X155454142Y-124837714D01*
X155530333Y-124885333D01*
X155568428Y-124980571D01*
X155568428Y-125075809D01*
X155187476Y-125171047D01*
X156254142Y-125504380D02*
X156254142Y-124504380D01*
X156254142Y-125456761D02*
X156177952Y-125504380D01*
X156025571Y-125504380D01*
X155949380Y-125456761D01*
X155911285Y-125409142D01*
X155873190Y-125313904D01*
X155873190Y-125028190D01*
X155911285Y-124932952D01*
X155949380Y-124885333D01*
X156025571Y-124837714D01*
X156177952Y-124837714D01*
X156254142Y-124885333D01*
X150825571Y-126447714D02*
X150977952Y-127114380D01*
X151130333Y-126638190D01*
X151282714Y-127114380D01*
X151435095Y-126447714D01*
X151739857Y-127114380D02*
X151739857Y-126447714D01*
X151739857Y-126114380D02*
X151701761Y-126162000D01*
X151739857Y-126209619D01*
X151777952Y-126162000D01*
X151739857Y-126114380D01*
X151739857Y-126209619D01*
X152006523Y-126447714D02*
X152311285Y-126447714D01*
X152120809Y-126114380D02*
X152120809Y-126971523D01*
X152158904Y-127066761D01*
X152235095Y-127114380D01*
X152311285Y-127114380D01*
X152577952Y-127114380D02*
X152577952Y-126114380D01*
X152920809Y-127114380D02*
X152920809Y-126590571D01*
X152882714Y-126495333D01*
X152806523Y-126447714D01*
X152692238Y-126447714D01*
X152616047Y-126495333D01*
X152577952Y-126542952D01*
X153911285Y-127114380D02*
X153911285Y-126114380D01*
X153987476Y-126733428D02*
X154216047Y-127114380D01*
X154216047Y-126447714D02*
X153911285Y-126828666D01*
X154558904Y-127114380D02*
X154558904Y-126447714D01*
X154558904Y-126114380D02*
X154520809Y-126162000D01*
X154558904Y-126209619D01*
X154597000Y-126162000D01*
X154558904Y-126114380D01*
X154558904Y-126209619D01*
X155282714Y-127066761D02*
X155206523Y-127114380D01*
X155054142Y-127114380D01*
X154977952Y-127066761D01*
X154939857Y-127019142D01*
X154901761Y-126923904D01*
X154901761Y-126638190D01*
X154939857Y-126542952D01*
X154977952Y-126495333D01*
X155054142Y-126447714D01*
X155206523Y-126447714D01*
X155282714Y-126495333D01*
X155968428Y-127114380D02*
X155968428Y-126590571D01*
X155930333Y-126495333D01*
X155854142Y-126447714D01*
X155701761Y-126447714D01*
X155625571Y-126495333D01*
X155968428Y-127066761D02*
X155892238Y-127114380D01*
X155701761Y-127114380D01*
X155625571Y-127066761D01*
X155587476Y-126971523D01*
X155587476Y-126876285D01*
X155625571Y-126781047D01*
X155701761Y-126733428D01*
X155892238Y-126733428D01*
X155968428Y-126685809D01*
X156692238Y-127114380D02*
X156692238Y-126114380D01*
X156692238Y-127066761D02*
X156616047Y-127114380D01*
X156463666Y-127114380D01*
X156387476Y-127066761D01*
X156349380Y-127019142D01*
X156311285Y-126923904D01*
X156311285Y-126638190D01*
X156349380Y-126542952D01*
X156387476Y-126495333D01*
X156463666Y-126447714D01*
X156616047Y-126447714D01*
X156692238Y-126495333D01*
D11*
X127038904Y-123274190D02*
X127224619Y-123336095D01*
X127534142Y-123336095D01*
X127657952Y-123274190D01*
X127719857Y-123212285D01*
X127781761Y-123088476D01*
X127781761Y-122964666D01*
X127719857Y-122840857D01*
X127657952Y-122778952D01*
X127534142Y-122717047D01*
X127286523Y-122655142D01*
X127162714Y-122593238D01*
X127100809Y-122531333D01*
X127038904Y-122407523D01*
X127038904Y-122283714D01*
X127100809Y-122159904D01*
X127162714Y-122098000D01*
X127286523Y-122036095D01*
X127596047Y-122036095D01*
X127781761Y-122098000D01*
X128338904Y-123336095D02*
X128338904Y-122469428D01*
X128338904Y-122593238D02*
X128400809Y-122531333D01*
X128524619Y-122469428D01*
X128710333Y-122469428D01*
X128834142Y-122531333D01*
X128896047Y-122655142D01*
X128896047Y-123336095D01*
X128896047Y-122655142D02*
X128957952Y-122531333D01*
X129081761Y-122469428D01*
X129267476Y-122469428D01*
X129391285Y-122531333D01*
X129453190Y-122655142D01*
X129453190Y-123336095D01*
X130629380Y-123336095D02*
X130629380Y-122655142D01*
X130567476Y-122531333D01*
X130443666Y-122469428D01*
X130196047Y-122469428D01*
X130072238Y-122531333D01*
X130629380Y-123274190D02*
X130505571Y-123336095D01*
X130196047Y-123336095D01*
X130072238Y-123274190D01*
X130010333Y-123150380D01*
X130010333Y-123026571D01*
X130072238Y-122902761D01*
X130196047Y-122840857D01*
X130505571Y-122840857D01*
X130629380Y-122778952D01*
X131248428Y-123336095D02*
X131248428Y-122469428D01*
X131248428Y-122717047D02*
X131310333Y-122593238D01*
X131372238Y-122531333D01*
X131496047Y-122469428D01*
X131619857Y-122469428D01*
X131867476Y-122469428D02*
X132362714Y-122469428D01*
X132053190Y-122036095D02*
X132053190Y-123150380D01*
X132115095Y-123274190D01*
X132238904Y-123336095D01*
X132362714Y-123336095D01*
X132672238Y-122469428D02*
X132981761Y-123336095D01*
X133291285Y-122469428D02*
X132981761Y-123336095D01*
X132857952Y-123645619D01*
X132796047Y-123707523D01*
X132672238Y-123769428D01*
X134529380Y-123336095D02*
X134096047Y-122717047D01*
X133786523Y-123336095D02*
X133786523Y-122036095D01*
X134281761Y-122036095D01*
X134405571Y-122098000D01*
X134467476Y-122159904D01*
X134529380Y-122283714D01*
X134529380Y-122469428D01*
X134467476Y-122593238D01*
X134405571Y-122655142D01*
X134281761Y-122717047D01*
X133786523Y-122717047D01*
X135581761Y-123274190D02*
X135457952Y-123336095D01*
X135210333Y-123336095D01*
X135086523Y-123274190D01*
X135024619Y-123150380D01*
X135024619Y-122655142D01*
X135086523Y-122531333D01*
X135210333Y-122469428D01*
X135457952Y-122469428D01*
X135581761Y-122531333D01*
X135643666Y-122655142D01*
X135643666Y-122778952D01*
X135024619Y-122902761D01*
X136757952Y-123336095D02*
X136757952Y-122655142D01*
X136696047Y-122531333D01*
X136572238Y-122469428D01*
X136324619Y-122469428D01*
X136200809Y-122531333D01*
X136757952Y-123274190D02*
X136634142Y-123336095D01*
X136324619Y-123336095D01*
X136200809Y-123274190D01*
X136138904Y-123150380D01*
X136138904Y-123026571D01*
X136200809Y-122902761D01*
X136324619Y-122840857D01*
X136634142Y-122840857D01*
X136757952Y-122778952D01*
X137934142Y-123336095D02*
X137934142Y-122036095D01*
X137934142Y-123274190D02*
X137810333Y-123336095D01*
X137562714Y-123336095D01*
X137438904Y-123274190D01*
X137377000Y-123212285D01*
X137315095Y-123088476D01*
X137315095Y-122717047D01*
X137377000Y-122593238D01*
X137438904Y-122531333D01*
X137562714Y-122469428D01*
X137810333Y-122469428D01*
X137934142Y-122531333D01*
X139048428Y-123274190D02*
X138924619Y-123336095D01*
X138677000Y-123336095D01*
X138553190Y-123274190D01*
X138491285Y-123150380D01*
X138491285Y-122655142D01*
X138553190Y-122531333D01*
X138677000Y-122469428D01*
X138924619Y-122469428D01*
X139048428Y-122531333D01*
X139110333Y-122655142D01*
X139110333Y-122778952D01*
X138491285Y-122902761D01*
X139667476Y-123336095D02*
X139667476Y-122469428D01*
X139667476Y-122717047D02*
X139729380Y-122593238D01*
X139791285Y-122531333D01*
X139915095Y-122469428D01*
X140038904Y-122469428D01*
X127472238Y-124562428D02*
X127781761Y-125429095D01*
X128091285Y-124562428D01*
X129515095Y-124252904D02*
X129577000Y-124191000D01*
X129700809Y-124129095D01*
X130010333Y-124129095D01*
X130134142Y-124191000D01*
X130196047Y-124252904D01*
X130257952Y-124376714D01*
X130257952Y-124500523D01*
X130196047Y-124686238D01*
X129453190Y-125429095D01*
X130257952Y-125429095D01*
X130815095Y-125305285D02*
X130877000Y-125367190D01*
X130815095Y-125429095D01*
X130753190Y-125367190D01*
X130815095Y-125305285D01*
X130815095Y-125429095D01*
X131372238Y-124252904D02*
X131434142Y-124191000D01*
X131557952Y-124129095D01*
X131867476Y-124129095D01*
X131991285Y-124191000D01*
X132053190Y-124252904D01*
X132115095Y-124376714D01*
X132115095Y-124500523D01*
X132053190Y-124686238D01*
X131310333Y-125429095D01*
X132115095Y-125429095D01*
X134343666Y-125429095D02*
X133600809Y-125429095D01*
X133972238Y-125429095D02*
X133972238Y-124129095D01*
X133848428Y-124314809D01*
X133724619Y-124438619D01*
X133600809Y-124500523D01*
X135148428Y-124129095D02*
X135272238Y-124129095D01*
X135396047Y-124191000D01*
X135457952Y-124252904D01*
X135519857Y-124376714D01*
X135581761Y-124624333D01*
X135581761Y-124933857D01*
X135519857Y-125181476D01*
X135457952Y-125305285D01*
X135396047Y-125367190D01*
X135272238Y-125429095D01*
X135148428Y-125429095D01*
X135024619Y-125367190D01*
X134962714Y-125305285D01*
X134900809Y-125181476D01*
X134838904Y-124933857D01*
X134838904Y-124624333D01*
X134900809Y-124376714D01*
X134962714Y-124252904D01*
X135024619Y-124191000D01*
X135148428Y-124129095D01*
X137067476Y-124067190D02*
X135953190Y-125738619D01*
X137438904Y-124252904D02*
X137500809Y-124191000D01*
X137624619Y-124129095D01*
X137934142Y-124129095D01*
X138057952Y-124191000D01*
X138119857Y-124252904D01*
X138181761Y-124376714D01*
X138181761Y-124500523D01*
X138119857Y-124686238D01*
X137377000Y-125429095D01*
X138181761Y-125429095D01*
X138677000Y-124252904D02*
X138738904Y-124191000D01*
X138862714Y-124129095D01*
X139172238Y-124129095D01*
X139296047Y-124191000D01*
X139357952Y-124252904D01*
X139419857Y-124376714D01*
X139419857Y-124500523D01*
X139357952Y-124686238D01*
X138615095Y-125429095D01*
X139419857Y-125429095D01*
X128246047Y-127522095D02*
X128246047Y-126222095D01*
X128246047Y-126717333D02*
X128369857Y-126655428D01*
X128617476Y-126655428D01*
X128741285Y-126717333D01*
X128803190Y-126779238D01*
X128865095Y-126903047D01*
X128865095Y-127274476D01*
X128803190Y-127398285D01*
X128741285Y-127460190D01*
X128617476Y-127522095D01*
X128369857Y-127522095D01*
X128246047Y-127460190D01*
X129298428Y-126655428D02*
X129607952Y-127522095D01*
X129917476Y-126655428D02*
X129607952Y-127522095D01*
X129484142Y-127831619D01*
X129422238Y-127893523D01*
X129298428Y-127955428D01*
X131279380Y-126655428D02*
X131527000Y-127522095D01*
X131774619Y-126903047D01*
X132022238Y-127522095D01*
X132269857Y-126655428D01*
X133260333Y-127460190D02*
X133136523Y-127522095D01*
X132888904Y-127522095D01*
X132765095Y-127460190D01*
X132703190Y-127336380D01*
X132703190Y-126841142D01*
X132765095Y-126717333D01*
X132888904Y-126655428D01*
X133136523Y-126655428D01*
X133260333Y-126717333D01*
X133322238Y-126841142D01*
X133322238Y-126964952D01*
X132703190Y-127088761D01*
X133879380Y-127522095D02*
X133879380Y-126655428D01*
X133879380Y-126222095D02*
X133817476Y-126284000D01*
X133879380Y-126345904D01*
X133941285Y-126284000D01*
X133879380Y-126222095D01*
X133879380Y-126345904D01*
X135055571Y-126655428D02*
X135055571Y-127707809D01*
X134993666Y-127831619D01*
X134931761Y-127893523D01*
X134807952Y-127955428D01*
X134622238Y-127955428D01*
X134498428Y-127893523D01*
X135055571Y-127460190D02*
X134931761Y-127522095D01*
X134684142Y-127522095D01*
X134560333Y-127460190D01*
X134498428Y-127398285D01*
X134436523Y-127274476D01*
X134436523Y-126903047D01*
X134498428Y-126779238D01*
X134560333Y-126717333D01*
X134684142Y-126655428D01*
X134931761Y-126655428D01*
X135055571Y-126717333D01*
X136231761Y-126655428D02*
X136231761Y-127522095D01*
X135674619Y-126655428D02*
X135674619Y-127336380D01*
X135736523Y-127460190D01*
X135860333Y-127522095D01*
X136046047Y-127522095D01*
X136169857Y-127460190D01*
X136231761Y-127398285D01*
X136850809Y-127398285D02*
X136912714Y-127460190D01*
X136850809Y-127522095D01*
X136788904Y-127460190D01*
X136850809Y-127398285D01*
X136850809Y-127522095D01*
X137655571Y-127522095D02*
X137531761Y-127460190D01*
X137469857Y-127336380D01*
X137469857Y-126222095D01*
X138707952Y-126655428D02*
X138707952Y-127522095D01*
X138150809Y-126655428D02*
X138150809Y-127336380D01*
X138212714Y-127460190D01*
X138336523Y-127522095D01*
X138522238Y-127522095D01*
X138646047Y-127460190D01*
X138707952Y-127398285D01*
D12*
%TO.C,C1*%
X121048235Y-120776576D02*
X121084400Y-120812741D01*
X121120565Y-120921235D01*
X121120565Y-120993565D01*
X121084400Y-121102059D01*
X121012070Y-121174389D01*
X120939741Y-121210553D01*
X120795082Y-121246718D01*
X120686588Y-121246718D01*
X120541929Y-121210553D01*
X120469599Y-121174389D01*
X120397270Y-121102059D01*
X120361105Y-120993565D01*
X120361105Y-120921235D01*
X120397270Y-120812741D01*
X120433434Y-120776576D01*
X121120565Y-120053281D02*
X121120565Y-120487258D01*
X121120565Y-120270270D02*
X120361105Y-120270270D01*
X120469599Y-120342599D01*
X120541929Y-120414929D01*
X120578093Y-120487258D01*
D13*
%TO.C,J1*%
X108886666Y-118324380D02*
X108886666Y-119038666D01*
X108839047Y-119181523D01*
X108743809Y-119276761D01*
X108600952Y-119324380D01*
X108505714Y-119324380D01*
X109886666Y-119324380D02*
X109315238Y-119324380D01*
X109600952Y-119324380D02*
X109600952Y-118324380D01*
X109505714Y-118467238D01*
X109410476Y-118562476D01*
X109315238Y-118610095D01*
D14*
%TO.C,J2*%
X107206626Y-104861964D02*
X107206626Y-105576793D01*
X107154859Y-105719759D01*
X107051323Y-105815069D01*
X106896020Y-105862724D01*
X106792485Y-105862724D01*
X107672535Y-104957275D02*
X107724302Y-104909620D01*
X107827838Y-104861964D01*
X108086676Y-104861964D01*
X108190211Y-104909620D01*
X108241979Y-104957275D01*
X108293746Y-105052585D01*
X108293746Y-105147896D01*
X108241979Y-105290861D01*
X107620767Y-105862724D01*
X108293746Y-105862724D01*
X106855380Y-112720724D02*
X106855380Y-111719964D01*
X107290809Y-111815275D02*
X107339190Y-111767620D01*
X107435952Y-111719964D01*
X107677857Y-111719964D01*
X107774619Y-111767620D01*
X107823000Y-111815275D01*
X107871380Y-111910585D01*
X107871380Y-112005896D01*
X107823000Y-112148861D01*
X107242428Y-112720724D01*
X107871380Y-112720724D01*
X108887380Y-112625414D02*
X108839000Y-112673069D01*
X108693857Y-112720724D01*
X108597095Y-112720724D01*
X108451952Y-112673069D01*
X108355190Y-112577759D01*
X108306809Y-112482448D01*
X108258428Y-112291827D01*
X108258428Y-112148861D01*
X108306809Y-111958240D01*
X108355190Y-111862930D01*
X108451952Y-111767620D01*
X108597095Y-111719964D01*
X108693857Y-111719964D01*
X108839000Y-111767620D01*
X108887380Y-111815275D01*
X109080904Y-112816035D02*
X109855000Y-112816035D01*
X110096904Y-112720724D02*
X110096904Y-111719964D01*
X110096904Y-112196517D02*
X110677476Y-112196517D01*
X110677476Y-112720724D02*
X110677476Y-111719964D01*
X111548333Y-112673069D02*
X111451571Y-112720724D01*
X111258047Y-112720724D01*
X111161285Y-112673069D01*
X111112904Y-112577759D01*
X111112904Y-112196517D01*
X111161285Y-112101206D01*
X111258047Y-112053551D01*
X111451571Y-112053551D01*
X111548333Y-112101206D01*
X111596714Y-112196517D01*
X111596714Y-112291827D01*
X111112904Y-112387138D01*
X112467571Y-112720724D02*
X112467571Y-112196517D01*
X112419190Y-112101206D01*
X112322428Y-112053551D01*
X112128904Y-112053551D01*
X112032142Y-112101206D01*
X112467571Y-112673069D02*
X112370809Y-112720724D01*
X112128904Y-112720724D01*
X112032142Y-112673069D01*
X111983761Y-112577759D01*
X111983761Y-112482448D01*
X112032142Y-112387138D01*
X112128904Y-112339482D01*
X112370809Y-112339482D01*
X112467571Y-112291827D01*
X113386809Y-112720724D02*
X113386809Y-111719964D01*
X113386809Y-112673069D02*
X113290047Y-112720724D01*
X113096523Y-112720724D01*
X112999761Y-112673069D01*
X112951380Y-112625414D01*
X112903000Y-112530103D01*
X112903000Y-112244172D01*
X112951380Y-112148861D01*
X112999761Y-112101206D01*
X113096523Y-112053551D01*
X113290047Y-112053551D01*
X113386809Y-112101206D01*
X114257666Y-112673069D02*
X114160904Y-112720724D01*
X113967380Y-112720724D01*
X113870619Y-112673069D01*
X113822238Y-112577759D01*
X113822238Y-112196517D01*
X113870619Y-112101206D01*
X113967380Y-112053551D01*
X114160904Y-112053551D01*
X114257666Y-112101206D01*
X114306047Y-112196517D01*
X114306047Y-112291827D01*
X113822238Y-112387138D01*
X114741476Y-112720724D02*
X114741476Y-112053551D01*
X114741476Y-112244172D02*
X114789857Y-112148861D01*
X114838238Y-112101206D01*
X114935000Y-112053551D01*
X115031761Y-112053551D01*
%TO.C,J5*%
X115842626Y-127975964D02*
X115842626Y-128690793D01*
X115790859Y-128833759D01*
X115687323Y-128929069D01*
X115532020Y-128976724D01*
X115428485Y-128976724D01*
X116877979Y-127975964D02*
X116360302Y-127975964D01*
X116308535Y-128452517D01*
X116360302Y-128404861D01*
X116463838Y-128357206D01*
X116722676Y-128357206D01*
X116826211Y-128404861D01*
X116877979Y-128452517D01*
X116929746Y-128547827D01*
X116929746Y-128786103D01*
X116877979Y-128881414D01*
X116826211Y-128929069D01*
X116722676Y-128976724D01*
X116463838Y-128976724D01*
X116360302Y-128929069D01*
X116308535Y-128881414D01*
X114862428Y-126070964D02*
X114378619Y-126070964D01*
X114330238Y-126547517D01*
X114378619Y-126499861D01*
X114475380Y-126452206D01*
X114717285Y-126452206D01*
X114814047Y-126499861D01*
X114862428Y-126547517D01*
X114910809Y-126642827D01*
X114910809Y-126881103D01*
X114862428Y-126976414D01*
X114814047Y-127024069D01*
X114717285Y-127071724D01*
X114475380Y-127071724D01*
X114378619Y-127024069D01*
X114330238Y-126976414D01*
X115201095Y-126070964D02*
X115539761Y-127071724D01*
X115878428Y-126070964D01*
X115975190Y-127167035D02*
X116749285Y-127167035D01*
X116991190Y-127071724D02*
X116991190Y-126070964D01*
X116991190Y-126547517D02*
X117571761Y-126547517D01*
X117571761Y-127071724D02*
X117571761Y-126070964D01*
X118587761Y-127071724D02*
X118007190Y-127071724D01*
X118297476Y-127071724D02*
X118297476Y-126070964D01*
X118200714Y-126213930D01*
X118103952Y-126309240D01*
X118007190Y-126356896D01*
D15*
%TO.C,R4*%
X118614976Y-116543666D02*
X117949738Y-116967000D01*
X118614976Y-117269380D02*
X117217976Y-117269380D01*
X117217976Y-116785571D01*
X117284500Y-116664619D01*
X117351023Y-116604142D01*
X117484071Y-116543666D01*
X117683642Y-116543666D01*
X117816690Y-116604142D01*
X117883214Y-116664619D01*
X117949738Y-116785571D01*
X117949738Y-117269380D01*
X117683642Y-115455095D02*
X118614976Y-115455095D01*
X117151452Y-115757476D02*
X118149309Y-116059857D01*
X118149309Y-115273666D01*
D13*
%TO.C,R5*%
X140295333Y-112212380D02*
X139962000Y-111736190D01*
X139723904Y-112212380D02*
X139723904Y-111212380D01*
X140104857Y-111212380D01*
X140200095Y-111260000D01*
X140247714Y-111307619D01*
X140295333Y-111402857D01*
X140295333Y-111545714D01*
X140247714Y-111640952D01*
X140200095Y-111688571D01*
X140104857Y-111736190D01*
X139723904Y-111736190D01*
X141200095Y-111212380D02*
X140723904Y-111212380D01*
X140676285Y-111688571D01*
X140723904Y-111640952D01*
X140819142Y-111593333D01*
X141057238Y-111593333D01*
X141152476Y-111640952D01*
X141200095Y-111688571D01*
X141247714Y-111783809D01*
X141247714Y-112021904D01*
X141200095Y-112117142D01*
X141152476Y-112164761D01*
X141057238Y-112212380D01*
X140819142Y-112212380D01*
X140723904Y-112164761D01*
X140676285Y-112117142D01*
D12*
%TO.C,C3*%
X125222423Y-129239735D02*
X125186258Y-129275900D01*
X125077764Y-129312065D01*
X125005434Y-129312065D01*
X124896940Y-129275900D01*
X124824610Y-129203570D01*
X124788446Y-129131241D01*
X124752281Y-128986582D01*
X124752281Y-128878088D01*
X124788446Y-128733429D01*
X124824610Y-128661099D01*
X124896940Y-128588770D01*
X125005434Y-128552605D01*
X125077764Y-128552605D01*
X125186258Y-128588770D01*
X125222423Y-128624934D01*
X125475576Y-128552605D02*
X125945718Y-128552605D01*
X125692565Y-128841923D01*
X125801059Y-128841923D01*
X125873389Y-128878088D01*
X125909553Y-128914252D01*
X125945718Y-128986582D01*
X125945718Y-129167406D01*
X125909553Y-129239735D01*
X125873389Y-129275900D01*
X125801059Y-129312065D01*
X125584070Y-129312065D01*
X125511741Y-129275900D01*
X125475576Y-129239735D01*
D13*
%TO.C,J6*%
X126039380Y-111458333D02*
X126753666Y-111458333D01*
X126896523Y-111505952D01*
X126991761Y-111601190D01*
X127039380Y-111744047D01*
X127039380Y-111839285D01*
X126039380Y-110553571D02*
X126039380Y-110744047D01*
X126087000Y-110839285D01*
X126134619Y-110886904D01*
X126277476Y-110982142D01*
X126467952Y-111029761D01*
X126848904Y-111029761D01*
X126944142Y-110982142D01*
X126991761Y-110934523D01*
X127039380Y-110839285D01*
X127039380Y-110648809D01*
X126991761Y-110553571D01*
X126944142Y-110505952D01*
X126848904Y-110458333D01*
X126610809Y-110458333D01*
X126515571Y-110505952D01*
X126467952Y-110553571D01*
X126420333Y-110648809D01*
X126420333Y-110839285D01*
X126467952Y-110934523D01*
X126515571Y-110982142D01*
X126610809Y-111029761D01*
%TO.C,R6*%
X133691333Y-111958380D02*
X133358000Y-111482190D01*
X133119904Y-111958380D02*
X133119904Y-110958380D01*
X133500857Y-110958380D01*
X133596095Y-111006000D01*
X133643714Y-111053619D01*
X133691333Y-111148857D01*
X133691333Y-111291714D01*
X133643714Y-111386952D01*
X133596095Y-111434571D01*
X133500857Y-111482190D01*
X133119904Y-111482190D01*
X134548476Y-110958380D02*
X134358000Y-110958380D01*
X134262761Y-111006000D01*
X134215142Y-111053619D01*
X134119904Y-111196476D01*
X134072285Y-111386952D01*
X134072285Y-111767904D01*
X134119904Y-111863142D01*
X134167523Y-111910761D01*
X134262761Y-111958380D01*
X134453238Y-111958380D01*
X134548476Y-111910761D01*
X134596095Y-111863142D01*
X134643714Y-111767904D01*
X134643714Y-111529809D01*
X134596095Y-111434571D01*
X134548476Y-111386952D01*
X134453238Y-111339333D01*
X134262761Y-111339333D01*
X134167523Y-111386952D01*
X134119904Y-111434571D01*
X134072285Y-111529809D01*
D12*
%TO.C,C2*%
X111252000Y-127399142D02*
X111215714Y-127435428D01*
X111106857Y-127471714D01*
X111034285Y-127471714D01*
X110925428Y-127435428D01*
X110852857Y-127362857D01*
X110816571Y-127290285D01*
X110780285Y-127145142D01*
X110780285Y-127036285D01*
X110816571Y-126891142D01*
X110852857Y-126818571D01*
X110925428Y-126746000D01*
X111034285Y-126709714D01*
X111106857Y-126709714D01*
X111215714Y-126746000D01*
X111252000Y-126782285D01*
X111542285Y-126782285D02*
X111578571Y-126746000D01*
X111651142Y-126709714D01*
X111832571Y-126709714D01*
X111905142Y-126746000D01*
X111941428Y-126782285D01*
X111977714Y-126854857D01*
X111977714Y-126927428D01*
X111941428Y-127036285D01*
X111506000Y-127471714D01*
X111977714Y-127471714D01*
X110175523Y-134075714D02*
X109812666Y-134075714D01*
X109994095Y-134075714D02*
X109994095Y-133313714D01*
X109933619Y-133422571D01*
X109873142Y-133495142D01*
X109812666Y-133531428D01*
X110568619Y-133313714D02*
X110629095Y-133313714D01*
X110689571Y-133350000D01*
X110719809Y-133386285D01*
X110750047Y-133458857D01*
X110780285Y-133604000D01*
X110780285Y-133785428D01*
X110750047Y-133930571D01*
X110719809Y-134003142D01*
X110689571Y-134039428D01*
X110629095Y-134075714D01*
X110568619Y-134075714D01*
X110508142Y-134039428D01*
X110477904Y-134003142D01*
X110447666Y-133930571D01*
X110417428Y-133785428D01*
X110417428Y-133604000D01*
X110447666Y-133458857D01*
X110477904Y-133386285D01*
X110508142Y-133350000D01*
X110568619Y-133313714D01*
X111173380Y-133313714D02*
X111233857Y-133313714D01*
X111294333Y-133350000D01*
X111324571Y-133386285D01*
X111354809Y-133458857D01*
X111385047Y-133604000D01*
X111385047Y-133785428D01*
X111354809Y-133930571D01*
X111324571Y-134003142D01*
X111294333Y-134039428D01*
X111233857Y-134075714D01*
X111173380Y-134075714D01*
X111112904Y-134039428D01*
X111082666Y-134003142D01*
X111052428Y-133930571D01*
X111022190Y-133785428D01*
X111022190Y-133604000D01*
X111052428Y-133458857D01*
X111082666Y-133386285D01*
X111112904Y-133350000D01*
X111173380Y-133313714D01*
X111778142Y-133313714D02*
X111838619Y-133313714D01*
X111899095Y-133350000D01*
X111929333Y-133386285D01*
X111959571Y-133458857D01*
X111989809Y-133604000D01*
X111989809Y-133785428D01*
X111959571Y-133930571D01*
X111929333Y-134003142D01*
X111899095Y-134039428D01*
X111838619Y-134075714D01*
X111778142Y-134075714D01*
X111717666Y-134039428D01*
X111687428Y-134003142D01*
X111657190Y-133930571D01*
X111626952Y-133785428D01*
X111626952Y-133604000D01*
X111657190Y-133458857D01*
X111687428Y-133386285D01*
X111717666Y-133350000D01*
X111778142Y-133313714D01*
X112261952Y-133567714D02*
X112261952Y-134329714D01*
X112564333Y-133966857D02*
X112594571Y-134039428D01*
X112655047Y-134075714D01*
X112261952Y-133966857D02*
X112292190Y-134039428D01*
X112352666Y-134075714D01*
X112473619Y-134075714D01*
X112534095Y-134039428D01*
X112564333Y-133966857D01*
X112564333Y-133567714D01*
X113138857Y-133676571D02*
X112927190Y-133676571D01*
X112927190Y-134075714D02*
X112927190Y-133313714D01*
X113229571Y-133313714D01*
D16*
X108040714Y-130991428D02*
X108621285Y-130991428D01*
X108331000Y-131281714D02*
X108331000Y-130701142D01*
D17*
%TO.C,W1*%
X157210000Y-129540000D02*
X122190000Y-129540000D01*
X151765000Y-115570000D02*
X151765000Y-123190000D01*
X157210000Y-132080000D02*
X122200000Y-132080000D01*
X151859000Y-123190000D02*
X157099000Y-123190000D01*
X157099000Y-115570000D02*
X151859000Y-115570000D01*
X122190000Y-106680000D02*
X157210000Y-106680000D01*
X157226000Y-106680000D02*
X157226000Y-132080000D01*
X122174000Y-132080000D02*
X122174000Y-106680000D01*
X157210000Y-109220000D02*
X122190000Y-109220000D01*
D18*
%TO.C,C1*%
X119253000Y-127000000D02*
X119253000Y-121920000D01*
X119253000Y-121920000D02*
X121793000Y-121920000D01*
X121158000Y-121920000D02*
X121793000Y-122555000D01*
X121793000Y-127000000D02*
X119253000Y-127000000D01*
X121793000Y-121970800D02*
X121793000Y-127000000D01*
D13*
%TO.C,J1*%
X94615000Y-125730000D02*
X94615000Y-113665000D01*
X114935000Y-113030000D02*
X114935000Y-125730000D01*
X114935000Y-113030000D02*
X94615000Y-113030000D01*
X94615000Y-113030000D02*
X94615000Y-113665000D01*
X114935000Y-125730000D02*
X94615000Y-125730000D01*
D17*
%TO.C,J2*%
X112522000Y-107442000D02*
X112522000Y-108458000D01*
X116078000Y-108458000D02*
X115062000Y-108458000D01*
X116078000Y-108458000D02*
X116078000Y-107442000D01*
X112522000Y-108458000D02*
X113538000Y-108458000D01*
X115062000Y-108458000D02*
X115062000Y-107442000D01*
X113538000Y-108458000D02*
X113538000Y-107442000D01*
X117856000Y-105410000D02*
X117856000Y-105918000D01*
X108966000Y-105410000D02*
X119634000Y-105410000D01*
X119634000Y-111252000D02*
X108966000Y-111252000D01*
X118618000Y-107442000D02*
X117602000Y-107442000D01*
X113538000Y-107442000D02*
X112522000Y-107442000D01*
X108966000Y-110744000D02*
X108966000Y-105410000D01*
X110744000Y-105918000D02*
X110744000Y-105410000D01*
X109982000Y-107442000D02*
X109982000Y-108458000D01*
X115062000Y-107442000D02*
X116078000Y-107442000D01*
X117856000Y-105918000D02*
X110744000Y-105918000D01*
X117602000Y-108458000D02*
X118618000Y-108458000D01*
X110998000Y-107442000D02*
X109982000Y-107442000D01*
X109982000Y-108458000D02*
X110998000Y-108458000D01*
X119634000Y-105410000D02*
X119634000Y-111252000D01*
X108966000Y-111252000D02*
X108966000Y-110744000D01*
X117602000Y-107442000D02*
X117602000Y-108458000D01*
X110998000Y-108458000D02*
X110998000Y-107442000D01*
X118618000Y-108458000D02*
X118618000Y-107442000D01*
%TO.C,J5*%
X117094000Y-133350000D02*
X117094000Y-132842000D01*
X117348000Y-130302000D02*
X116332000Y-130302000D01*
X117348000Y-131318000D02*
X117348000Y-130302000D01*
X119888000Y-130302000D02*
X119888000Y-131318000D01*
X121110000Y-133350000D02*
X115110000Y-133350000D01*
X118872000Y-130302000D02*
X119888000Y-130302000D01*
X115110000Y-127508000D02*
X121110000Y-127508000D01*
X119126000Y-132842000D02*
X119126000Y-133350000D01*
X118872000Y-130302000D02*
X118872000Y-131318000D01*
X119888000Y-131318000D02*
X118872000Y-131318000D01*
X116332000Y-130302000D02*
X116332000Y-131318000D01*
X121158000Y-127610000D02*
X121158000Y-133350000D01*
X116332000Y-131318000D02*
X117348000Y-131318000D01*
X115062000Y-133350000D02*
X115062000Y-127508000D01*
X117094000Y-132842000D02*
X119110000Y-132842000D01*
D18*
%TO.C,R4*%
X117983000Y-121412000D02*
X117983000Y-120396000D01*
X117983000Y-112268000D02*
X118999000Y-112268000D01*
X116967000Y-112268000D02*
X117983000Y-112268000D01*
X118491000Y-112268000D02*
X118999000Y-112776000D01*
X116967000Y-120396000D02*
X116967000Y-112268000D01*
X118999000Y-120396000D02*
X116967000Y-120396000D01*
X117983000Y-111252000D02*
X117983000Y-112268000D01*
X118999000Y-112268000D02*
X118999000Y-120396000D01*
D19*
%TO.C,R5*%
X139310000Y-111160000D02*
X139310000Y-112360000D01*
X137550000Y-112360000D02*
X137550000Y-111160000D01*
D18*
%TO.C,C3*%
X122859800Y-129540000D02*
X127889000Y-129540000D01*
X122809000Y-132080000D02*
X122809000Y-129540000D01*
X127889000Y-132080000D02*
X122809000Y-132080000D01*
X127889000Y-129540000D02*
X127889000Y-132080000D01*
X122809000Y-130175000D02*
X123444000Y-129540000D01*
D19*
%TO.C,J6*%
X124387000Y-109625000D02*
X124587000Y-109625000D01*
X124587000Y-111825000D02*
X125087000Y-111825000D01*
X121587000Y-112625000D02*
X121587000Y-111825000D01*
X121787000Y-112625000D02*
X121587000Y-112625000D01*
X124587000Y-109625000D02*
X124587000Y-110425000D01*
X124587000Y-112425000D02*
X124387000Y-112625000D01*
X124587000Y-111825000D02*
X124587000Y-112425000D01*
X121587000Y-109625000D02*
X121787000Y-109625000D01*
X124587000Y-110425000D02*
X125087000Y-110425000D01*
X121587000Y-110425000D02*
X121587000Y-109625000D01*
%TO.C,R6*%
X136770000Y-111160000D02*
X136770000Y-112360000D01*
X135010000Y-112360000D02*
X135010000Y-111160000D01*
D12*
%TO.C,C2*%
X113922173Y-130937000D02*
G75*
G03*
X113922173Y-130937000I-2543173J0D01*
G01*
D20*
%TO.C,LOGO?2*%
X133111618Y-118923664D02*
X133171722Y-118939291D01*
X133171722Y-118939291D02*
X133222058Y-118971542D01*
X133222058Y-118971542D02*
X133246430Y-118995634D01*
X133246430Y-118995634D02*
X133286382Y-119052589D01*
X133286382Y-119052589D02*
X133309279Y-119118659D01*
X133309279Y-119118659D02*
X133317145Y-119199876D01*
X133317145Y-119199876D02*
X133317185Y-119206442D01*
X133317185Y-119206442D02*
X133317255Y-119272457D01*
X133317255Y-119272457D02*
X132937301Y-119272457D01*
X132937301Y-119272457D02*
X132945400Y-119307036D01*
X132945400Y-119307036D02*
X132960024Y-119338353D01*
X132960024Y-119338353D02*
X132985618Y-119370985D01*
X132985618Y-119370985D02*
X132990972Y-119376194D01*
X132990972Y-119376194D02*
X133036980Y-119404388D01*
X133036980Y-119404388D02*
X133089447Y-119409169D01*
X133089447Y-119409169D02*
X133149840Y-119390620D01*
X133149840Y-119390620D02*
X133160077Y-119385625D01*
X133160077Y-119385625D02*
X133191476Y-119370439D01*
X133191476Y-119370439D02*
X133212507Y-119361788D01*
X133212507Y-119361788D02*
X133216176Y-119360987D01*
X133216176Y-119360987D02*
X133228985Y-119368757D01*
X133228985Y-119368757D02*
X133253415Y-119387766D01*
X133253415Y-119387766D02*
X133265816Y-119398154D01*
X133265816Y-119398154D02*
X133291513Y-119422015D01*
X133291513Y-119422015D02*
X133299952Y-119437771D01*
X133299952Y-119437771D02*
X133294095Y-119452265D01*
X133294095Y-119452265D02*
X133290965Y-119456228D01*
X133290965Y-119456228D02*
X133269762Y-119473573D01*
X133269762Y-119473573D02*
X133234775Y-119494653D01*
X133234775Y-119494653D02*
X133210374Y-119506959D01*
X133210374Y-119506959D02*
X133141109Y-119528640D01*
X133141109Y-119528640D02*
X133064425Y-119535665D01*
X133064425Y-119535665D02*
X132991802Y-119527341D01*
X132991802Y-119527341D02*
X132971463Y-119521380D01*
X132971463Y-119521380D02*
X132908513Y-119487646D01*
X132908513Y-119487646D02*
X132861852Y-119435739D01*
X132861852Y-119435739D02*
X132831210Y-119365153D01*
X132831210Y-119365153D02*
X132816319Y-119275386D01*
X132816319Y-119275386D02*
X132814684Y-119228447D01*
X132814684Y-119228447D02*
X132819458Y-119160107D01*
X132819458Y-119160107D02*
X132940027Y-119160107D01*
X132940027Y-119160107D02*
X132951689Y-119165159D01*
X132951689Y-119165159D02*
X132983035Y-119169123D01*
X132983035Y-119169123D02*
X133028608Y-119171462D01*
X133028608Y-119171462D02*
X133059483Y-119171863D01*
X133059483Y-119171863D02*
X133115018Y-119171477D01*
X133115018Y-119171477D02*
X133150070Y-119169669D01*
X133150070Y-119169669D02*
X133169299Y-119165467D01*
X133169299Y-119165467D02*
X133177367Y-119157897D01*
X133177367Y-119157897D02*
X133178938Y-119146912D01*
X133178938Y-119146912D02*
X133168158Y-119113075D01*
X133168158Y-119113075D02*
X133141017Y-119079634D01*
X133141017Y-119079634D02*
X133105314Y-119053966D01*
X133105314Y-119053966D02*
X133069597Y-119043466D01*
X133069597Y-119043466D02*
X133021085Y-119052780D01*
X133021085Y-119052780D02*
X132979090Y-119079707D01*
X132979090Y-119079707D02*
X132949973Y-119118521D01*
X132949973Y-119118521D02*
X132940027Y-119160107D01*
X132940027Y-119160107D02*
X132819458Y-119160107D01*
X132819458Y-119160107D02*
X132821636Y-119128930D01*
X132821636Y-119128930D02*
X132843092Y-119049643D01*
X132843092Y-119049643D02*
X132879507Y-118989957D01*
X132879507Y-118989957D02*
X132931334Y-118949243D01*
X132931334Y-118949243D02*
X132999027Y-118926873D01*
X132999027Y-118926873D02*
X133035699Y-118922565D01*
X133035699Y-118922565D02*
X133111618Y-118923664D01*
X133111618Y-118923664D02*
X133111618Y-118923664D01*
G36*
X132843092Y-119049643D02*
G01*
X132879507Y-118989957D01*
X132931334Y-118949243D01*
X132999027Y-118926873D01*
X133035699Y-118922565D01*
X133111618Y-118923664D01*
X133171722Y-118939291D01*
X133222058Y-118971542D01*
X133246430Y-118995634D01*
X133286382Y-119052589D01*
X133309279Y-119118659D01*
X133317145Y-119199876D01*
X133317185Y-119206442D01*
X133317255Y-119272457D01*
X132937301Y-119272457D01*
X132945400Y-119307036D01*
X132960024Y-119338353D01*
X132985618Y-119370985D01*
X132990972Y-119376194D01*
X133036980Y-119404388D01*
X133089447Y-119409169D01*
X133149840Y-119390620D01*
X133160077Y-119385625D01*
X133191476Y-119370439D01*
X133212507Y-119361788D01*
X133216176Y-119360987D01*
X133228985Y-119368757D01*
X133253415Y-119387766D01*
X133265816Y-119398154D01*
X133291513Y-119422015D01*
X133299952Y-119437771D01*
X133294095Y-119452265D01*
X133290965Y-119456228D01*
X133269762Y-119473573D01*
X133234775Y-119494653D01*
X133210374Y-119506959D01*
X133141109Y-119528640D01*
X133064425Y-119535665D01*
X132991802Y-119527341D01*
X132971463Y-119521380D01*
X132908513Y-119487646D01*
X132861852Y-119435739D01*
X132831210Y-119365153D01*
X132816319Y-119275386D01*
X132814684Y-119228447D01*
X132819458Y-119160107D01*
X132940027Y-119160107D01*
X132951689Y-119165159D01*
X132983035Y-119169123D01*
X133028608Y-119171462D01*
X133059483Y-119171863D01*
X133115018Y-119171477D01*
X133150070Y-119169669D01*
X133169299Y-119165467D01*
X133177367Y-119157897D01*
X133178938Y-119146912D01*
X133168158Y-119113075D01*
X133141017Y-119079634D01*
X133105314Y-119053966D01*
X133069597Y-119043466D01*
X133021085Y-119052780D01*
X132979090Y-119079707D01*
X132949973Y-119118521D01*
X132940027Y-119160107D01*
X132819458Y-119160107D01*
X132821636Y-119128930D01*
X132843092Y-119049643D01*
G37*
X132843092Y-119049643D02*
X132879507Y-118989957D01*
X132931334Y-118949243D01*
X132999027Y-118926873D01*
X133035699Y-118922565D01*
X133111618Y-118923664D01*
X133171722Y-118939291D01*
X133222058Y-118971542D01*
X133246430Y-118995634D01*
X133286382Y-119052589D01*
X133309279Y-119118659D01*
X133317145Y-119199876D01*
X133317185Y-119206442D01*
X133317255Y-119272457D01*
X132937301Y-119272457D01*
X132945400Y-119307036D01*
X132960024Y-119338353D01*
X132985618Y-119370985D01*
X132990972Y-119376194D01*
X133036980Y-119404388D01*
X133089447Y-119409169D01*
X133149840Y-119390620D01*
X133160077Y-119385625D01*
X133191476Y-119370439D01*
X133212507Y-119361788D01*
X133216176Y-119360987D01*
X133228985Y-119368757D01*
X133253415Y-119387766D01*
X133265816Y-119398154D01*
X133291513Y-119422015D01*
X133299952Y-119437771D01*
X133294095Y-119452265D01*
X133290965Y-119456228D01*
X133269762Y-119473573D01*
X133234775Y-119494653D01*
X133210374Y-119506959D01*
X133141109Y-119528640D01*
X133064425Y-119535665D01*
X132991802Y-119527341D01*
X132971463Y-119521380D01*
X132908513Y-119487646D01*
X132861852Y-119435739D01*
X132831210Y-119365153D01*
X132816319Y-119275386D01*
X132814684Y-119228447D01*
X132819458Y-119160107D01*
X132940027Y-119160107D01*
X132951689Y-119165159D01*
X132983035Y-119169123D01*
X133028608Y-119171462D01*
X133059483Y-119171863D01*
X133115018Y-119171477D01*
X133150070Y-119169669D01*
X133169299Y-119165467D01*
X133177367Y-119157897D01*
X133178938Y-119146912D01*
X133168158Y-119113075D01*
X133141017Y-119079634D01*
X133105314Y-119053966D01*
X133069597Y-119043466D01*
X133021085Y-119052780D01*
X132979090Y-119079707D01*
X132949973Y-119118521D01*
X132940027Y-119160107D01*
X132819458Y-119160107D01*
X132821636Y-119128930D01*
X132843092Y-119049643D01*
X131456001Y-113808712D02*
X131512849Y-114110264D01*
X131512849Y-114110264D02*
X131932375Y-114283206D01*
X131932375Y-114283206D02*
X132184021Y-114112089D01*
X132184021Y-114112089D02*
X132254495Y-114064444D01*
X132254495Y-114064444D02*
X132318200Y-114021904D01*
X132318200Y-114021904D02*
X132372163Y-113986409D01*
X132372163Y-113986409D02*
X132413410Y-113959904D01*
X132413410Y-113959904D02*
X132438971Y-113944330D01*
X132438971Y-113944330D02*
X132445932Y-113940972D01*
X132445932Y-113940972D02*
X132458472Y-113949608D01*
X132458472Y-113949608D02*
X132485268Y-113973486D01*
X132485268Y-113973486D02*
X132523317Y-114009553D01*
X132523317Y-114009553D02*
X132569616Y-114054761D01*
X132569616Y-114054761D02*
X132621160Y-114106058D01*
X132621160Y-114106058D02*
X132674946Y-114160395D01*
X132674946Y-114160395D02*
X132727972Y-114214722D01*
X132727972Y-114214722D02*
X132777232Y-114265989D01*
X132777232Y-114265989D02*
X132819724Y-114311145D01*
X132819724Y-114311145D02*
X132852444Y-114347140D01*
X132852444Y-114347140D02*
X132872388Y-114370924D01*
X132872388Y-114370924D02*
X132877156Y-114378884D01*
X132877156Y-114378884D02*
X132870294Y-114393559D01*
X132870294Y-114393559D02*
X132851057Y-114425708D01*
X132851057Y-114425708D02*
X132821467Y-114472186D01*
X132821467Y-114472186D02*
X132783547Y-114529850D01*
X132783547Y-114529850D02*
X132739319Y-114595554D01*
X132739319Y-114595554D02*
X132713691Y-114633030D01*
X132713691Y-114633030D02*
X132666978Y-114701462D01*
X132666978Y-114701462D02*
X132625469Y-114763214D01*
X132625469Y-114763214D02*
X132591177Y-114815213D01*
X132591177Y-114815213D02*
X132566117Y-114854386D01*
X132566117Y-114854386D02*
X132552301Y-114877659D01*
X132552301Y-114877659D02*
X132550225Y-114882549D01*
X132550225Y-114882549D02*
X132554932Y-114896449D01*
X132554932Y-114896449D02*
X132567760Y-114928844D01*
X132567760Y-114928844D02*
X132586775Y-114975179D01*
X132586775Y-114975179D02*
X132610040Y-115030900D01*
X132610040Y-115030900D02*
X132635621Y-115091452D01*
X132635621Y-115091452D02*
X132661582Y-115152280D01*
X132661582Y-115152280D02*
X132685987Y-115208830D01*
X132685987Y-115208830D02*
X132706900Y-115256546D01*
X132706900Y-115256546D02*
X132722386Y-115290875D01*
X132722386Y-115290875D02*
X132730509Y-115307262D01*
X132730509Y-115307262D02*
X132730989Y-115307906D01*
X132730989Y-115307906D02*
X132743744Y-115311035D01*
X132743744Y-115311035D02*
X132777714Y-115318015D01*
X132777714Y-115318015D02*
X132829377Y-115328161D01*
X132829377Y-115328161D02*
X132895213Y-115340786D01*
X132895213Y-115340786D02*
X132971701Y-115355203D01*
X132971701Y-115355203D02*
X133016327Y-115363517D01*
X133016327Y-115363517D02*
X133098058Y-115379078D01*
X133098058Y-115379078D02*
X133171880Y-115393886D01*
X133171880Y-115393886D02*
X133234058Y-115407130D01*
X133234058Y-115407130D02*
X133280859Y-115417999D01*
X133280859Y-115417999D02*
X133308546Y-115425683D01*
X133308546Y-115425683D02*
X133314111Y-115428121D01*
X133314111Y-115428121D02*
X133319563Y-115444624D01*
X133319563Y-115444624D02*
X133323961Y-115481894D01*
X133323961Y-115481894D02*
X133327309Y-115535574D01*
X133327309Y-115535574D02*
X133329611Y-115601306D01*
X133329611Y-115601306D02*
X133330869Y-115674731D01*
X133330869Y-115674731D02*
X133331085Y-115751490D01*
X133331085Y-115751490D02*
X133330264Y-115827226D01*
X133330264Y-115827226D02*
X133328408Y-115897580D01*
X133328408Y-115897580D02*
X133325519Y-115958194D01*
X133325519Y-115958194D02*
X133321602Y-116004710D01*
X133321602Y-116004710D02*
X133316659Y-116032769D01*
X133316659Y-116032769D02*
X133313694Y-116038610D01*
X133313694Y-116038610D02*
X133295971Y-116045611D01*
X133295971Y-116045611D02*
X133258418Y-116055621D01*
X133258418Y-116055621D02*
X133206001Y-116067463D01*
X133206001Y-116067463D02*
X133143689Y-116079961D01*
X133143689Y-116079961D02*
X133121937Y-116084004D01*
X133121937Y-116084004D02*
X133017061Y-116103214D01*
X133017061Y-116103214D02*
X132934217Y-116118685D01*
X132934217Y-116118685D02*
X132870667Y-116131031D01*
X132870667Y-116131031D02*
X132823674Y-116140867D01*
X132823674Y-116140867D02*
X132790500Y-116148808D01*
X132790500Y-116148808D02*
X132768408Y-116155470D01*
X132768408Y-116155470D02*
X132754661Y-116161467D01*
X132754661Y-116161467D02*
X132746521Y-116167413D01*
X132746521Y-116167413D02*
X132745382Y-116168588D01*
X132745382Y-116168588D02*
X132734014Y-116187520D01*
X132734014Y-116187520D02*
X132716672Y-116224363D01*
X132716672Y-116224363D02*
X132695087Y-116274607D01*
X132695087Y-116274607D02*
X132670991Y-116333740D01*
X132670991Y-116333740D02*
X132646116Y-116397250D01*
X132646116Y-116397250D02*
X132622194Y-116460626D01*
X132622194Y-116460626D02*
X132600956Y-116519356D01*
X132600956Y-116519356D02*
X132584134Y-116568929D01*
X132584134Y-116568929D02*
X132573459Y-116604833D01*
X132573459Y-116604833D02*
X132570664Y-116622556D01*
X132570664Y-116622556D02*
X132570897Y-116623177D01*
X132570897Y-116623177D02*
X132580368Y-116637664D01*
X132580368Y-116637664D02*
X132601855Y-116669538D01*
X132601855Y-116669538D02*
X132633100Y-116715483D01*
X132633100Y-116715483D02*
X132671844Y-116772179D01*
X132671844Y-116772179D02*
X132715830Y-116836311D01*
X132715830Y-116836311D02*
X132728356Y-116854536D01*
X132728356Y-116854536D02*
X132773021Y-116920608D01*
X132773021Y-116920608D02*
X132812325Y-116980894D01*
X132812325Y-116980894D02*
X132844125Y-117031929D01*
X132844125Y-117031929D02*
X132866282Y-117070254D01*
X132866282Y-117070254D02*
X132876654Y-117092405D01*
X132876654Y-117092405D02*
X132877156Y-117095126D01*
X132877156Y-117095126D02*
X132868442Y-117109430D01*
X132868442Y-117109430D02*
X132844362Y-117137766D01*
X132844362Y-117137766D02*
X132808013Y-117177090D01*
X132808013Y-117177090D02*
X132762490Y-117224355D01*
X132762490Y-117224355D02*
X132710889Y-117276517D01*
X132710889Y-117276517D02*
X132656304Y-117330529D01*
X132656304Y-117330529D02*
X132601831Y-117383347D01*
X132601831Y-117383347D02*
X132550566Y-117431925D01*
X132550566Y-117431925D02*
X132505604Y-117473217D01*
X132505604Y-117473217D02*
X132470041Y-117504179D01*
X132470041Y-117504179D02*
X132446972Y-117521764D01*
X132446972Y-117521764D02*
X132440591Y-117524635D01*
X132440591Y-117524635D02*
X132425736Y-117517872D01*
X132425736Y-117517872D02*
X132395323Y-117499633D01*
X132395323Y-117499633D02*
X132354305Y-117472991D01*
X132354305Y-117472991D02*
X132322746Y-117451546D01*
X132322746Y-117451546D02*
X132265562Y-117412197D01*
X132265562Y-117412197D02*
X132197843Y-117365865D01*
X132197843Y-117365865D02*
X132129917Y-117319607D01*
X132129917Y-117319607D02*
X132093398Y-117294849D01*
X132093398Y-117294849D02*
X131969789Y-117211241D01*
X131969789Y-117211241D02*
X131866028Y-117267344D01*
X131866028Y-117267344D02*
X131818757Y-117291922D01*
X131818757Y-117291922D02*
X131778560Y-117311025D01*
X131778560Y-117311025D02*
X131751363Y-117321921D01*
X131751363Y-117321921D02*
X131744439Y-117323437D01*
X131744439Y-117323437D02*
X131736114Y-117312243D01*
X131736114Y-117312243D02*
X131719691Y-117280611D01*
X131719691Y-117280611D02*
X131696394Y-117231459D01*
X131696394Y-117231459D02*
X131667451Y-117167704D01*
X131667451Y-117167704D02*
X131634087Y-117092265D01*
X131634087Y-117092265D02*
X131597528Y-117008058D01*
X131597528Y-117008058D02*
X131559001Y-116918002D01*
X131559001Y-116918002D02*
X131519731Y-116825015D01*
X131519731Y-116825015D02*
X131480945Y-116732014D01*
X131480945Y-116732014D02*
X131443867Y-116641917D01*
X131443867Y-116641917D02*
X131409726Y-116557642D01*
X131409726Y-116557642D02*
X131379745Y-116482107D01*
X131379745Y-116482107D02*
X131355153Y-116418228D01*
X131355153Y-116418228D02*
X131337173Y-116368925D01*
X131337173Y-116368925D02*
X131327034Y-116337115D01*
X131327034Y-116337115D02*
X131325403Y-116326190D01*
X131325403Y-116326190D02*
X131338328Y-116312255D01*
X131338328Y-116312255D02*
X131366626Y-116289634D01*
X131366626Y-116289634D02*
X131404383Y-116263027D01*
X131404383Y-116263027D02*
X131407552Y-116260922D01*
X131407552Y-116260922D02*
X131505137Y-116182808D01*
X131505137Y-116182808D02*
X131583823Y-116091676D01*
X131583823Y-116091676D02*
X131642928Y-115990439D01*
X131642928Y-115990439D02*
X131681769Y-115882012D01*
X131681769Y-115882012D02*
X131699665Y-115769308D01*
X131699665Y-115769308D02*
X131695934Y-115655242D01*
X131695934Y-115655242D02*
X131669894Y-115542728D01*
X131669894Y-115542728D02*
X131620862Y-115434679D01*
X131620862Y-115434679D02*
X131606437Y-115411039D01*
X131606437Y-115411039D02*
X131531406Y-115315581D01*
X131531406Y-115315581D02*
X131442767Y-115238926D01*
X131442767Y-115238926D02*
X131343586Y-115181474D01*
X131343586Y-115181474D02*
X131236932Y-115143623D01*
X131236932Y-115143623D02*
X131125873Y-115125772D01*
X131125873Y-115125772D02*
X131013476Y-115128319D01*
X131013476Y-115128319D02*
X130902810Y-115151664D01*
X130902810Y-115151664D02*
X130796943Y-115196204D01*
X130796943Y-115196204D02*
X130698942Y-115262339D01*
X130698942Y-115262339D02*
X130668627Y-115289181D01*
X130668627Y-115289181D02*
X130591475Y-115373206D01*
X130591475Y-115373206D02*
X130535255Y-115461660D01*
X130535255Y-115461660D02*
X130496690Y-115560809D01*
X130496690Y-115560809D02*
X130475211Y-115658997D01*
X130475211Y-115658997D02*
X130469909Y-115769391D01*
X130469909Y-115769391D02*
X130487589Y-115880334D01*
X130487589Y-115880334D02*
X130526456Y-115988075D01*
X130526456Y-115988075D02*
X130584714Y-116088863D01*
X130584714Y-116088863D02*
X130660568Y-116178950D01*
X130660568Y-116178950D02*
X130752220Y-116254586D01*
X130752220Y-116254586D02*
X130764265Y-116262558D01*
X130764265Y-116262558D02*
X130802426Y-116288668D01*
X130802426Y-116288668D02*
X130831436Y-116311289D01*
X130831436Y-116311289D02*
X130845305Y-116325733D01*
X130845305Y-116325733D02*
X130845506Y-116326190D01*
X130845506Y-116326190D02*
X130842529Y-116341815D01*
X130842529Y-116341815D02*
X130830726Y-116377276D01*
X130830726Y-116377276D02*
X130811323Y-116429656D01*
X130811323Y-116429656D02*
X130785549Y-116496039D01*
X130785549Y-116496039D02*
X130754628Y-116573508D01*
X130754628Y-116573508D02*
X130719788Y-116659144D01*
X130719788Y-116659144D02*
X130682254Y-116750031D01*
X130682254Y-116750031D02*
X130643254Y-116843253D01*
X130643254Y-116843253D02*
X130604014Y-116935891D01*
X130604014Y-116935891D02*
X130565761Y-117025029D01*
X130565761Y-117025029D02*
X130529720Y-117107749D01*
X130529720Y-117107749D02*
X130497120Y-117181135D01*
X130497120Y-117181135D02*
X130469185Y-117242269D01*
X130469185Y-117242269D02*
X130447142Y-117288235D01*
X130447142Y-117288235D02*
X130432219Y-117316115D01*
X130432219Y-117316115D02*
X130426209Y-117323437D01*
X130426209Y-117323437D02*
X130407846Y-117317735D01*
X130407846Y-117317735D02*
X130373485Y-117302443D01*
X130373485Y-117302443D02*
X130329053Y-117280293D01*
X130329053Y-117280293D02*
X130304620Y-117267344D01*
X130304620Y-117267344D02*
X130200859Y-117211241D01*
X130200859Y-117211241D02*
X130077250Y-117294849D01*
X130077250Y-117294849D02*
X130014151Y-117337681D01*
X130014151Y-117337681D02*
X129945067Y-117384816D01*
X129945067Y-117384816D02*
X129880330Y-117429197D01*
X129880330Y-117429197D02*
X129847903Y-117451546D01*
X129847903Y-117451546D02*
X129802296Y-117482171D01*
X129802296Y-117482171D02*
X129763677Y-117506441D01*
X129763677Y-117506441D02*
X129737085Y-117521281D01*
X129737085Y-117521281D02*
X129728447Y-117524418D01*
X129728447Y-117524418D02*
X129715876Y-117515955D01*
X129715876Y-117515955D02*
X129688053Y-117492330D01*
X129688053Y-117492330D02*
X129647676Y-117455996D01*
X129647676Y-117455996D02*
X129597442Y-117409405D01*
X129597442Y-117409405D02*
X129540049Y-117355011D01*
X129540049Y-117355011D02*
X129503751Y-117320086D01*
X129503751Y-117320086D02*
X129440247Y-117257690D01*
X129440247Y-117257690D02*
X129385364Y-117201882D01*
X129385364Y-117201882D02*
X129341323Y-117155048D01*
X129341323Y-117155048D02*
X129310342Y-117119576D01*
X129310342Y-117119576D02*
X129294639Y-117097855D01*
X129294639Y-117097855D02*
X129293132Y-117093446D01*
X129293132Y-117093446D02*
X129300123Y-117076679D01*
X129300123Y-117076679D02*
X129319443Y-117042776D01*
X129319443Y-117042776D02*
X129348946Y-116995170D01*
X129348946Y-116995170D02*
X129386492Y-116937293D01*
X129386492Y-116937293D02*
X129429937Y-116872578D01*
X129429937Y-116872578D02*
X129442292Y-116854536D01*
X129442292Y-116854536D02*
X129487310Y-116788961D01*
X129487310Y-116788961D02*
X129527697Y-116729922D01*
X129527697Y-116729922D02*
X129561197Y-116680736D01*
X129561197Y-116680736D02*
X129585551Y-116644722D01*
X129585551Y-116644722D02*
X129598501Y-116625196D01*
X129598501Y-116625196D02*
X129599752Y-116623177D01*
X129599752Y-116623177D02*
X129597881Y-116607616D01*
X129597881Y-116607616D02*
X129587950Y-116573403D01*
X129587950Y-116573403D02*
X129571690Y-116525049D01*
X129571690Y-116525049D02*
X129550832Y-116467065D01*
X129550832Y-116467065D02*
X129527110Y-116403964D01*
X129527110Y-116403964D02*
X129502253Y-116340257D01*
X129502253Y-116340257D02*
X129477995Y-116280455D01*
X129477995Y-116280455D02*
X129456066Y-116229070D01*
X129456066Y-116229070D02*
X129438199Y-116190613D01*
X129438199Y-116190613D02*
X129426124Y-116169596D01*
X129426124Y-116169596D02*
X129425266Y-116168588D01*
X129425266Y-116168588D02*
X129417883Y-116162582D01*
X129417883Y-116162582D02*
X129405412Y-116156642D01*
X129405412Y-116156642D02*
X129385117Y-116150154D01*
X129385117Y-116150154D02*
X129354259Y-116142503D01*
X129354259Y-116142503D02*
X129310103Y-116133074D01*
X129310103Y-116133074D02*
X129249911Y-116121253D01*
X129249911Y-116121253D02*
X129170944Y-116106423D01*
X129170944Y-116106423D02*
X129070467Y-116087971D01*
X129070467Y-116087971D02*
X129048712Y-116084004D01*
X129048712Y-116084004D02*
X128984235Y-116071547D01*
X128984235Y-116071547D02*
X128928026Y-116059360D01*
X128928026Y-116059360D02*
X128885050Y-116048620D01*
X128885050Y-116048620D02*
X128860277Y-116040503D01*
X128860277Y-116040503D02*
X128856955Y-116038610D01*
X128856955Y-116038610D02*
X128851481Y-116021832D01*
X128851481Y-116021832D02*
X128847031Y-115984339D01*
X128847031Y-115984339D02*
X128843609Y-115930488D01*
X128843609Y-115930488D02*
X128841218Y-115864638D01*
X128841218Y-115864638D02*
X128839860Y-115791147D01*
X128839860Y-115791147D02*
X128839538Y-115714374D01*
X128839538Y-115714374D02*
X128840256Y-115638677D01*
X128840256Y-115638677D02*
X128842016Y-115568414D01*
X128842016Y-115568414D02*
X128844821Y-115507944D01*
X128844821Y-115507944D02*
X128848675Y-115461624D01*
X128848675Y-115461624D02*
X128853580Y-115433813D01*
X128853580Y-115433813D02*
X128856537Y-115428121D01*
X128856537Y-115428121D02*
X128873000Y-115422380D01*
X128873000Y-115422380D02*
X128910486Y-115413039D01*
X128910486Y-115413039D02*
X128965262Y-115400909D01*
X128965262Y-115400909D02*
X129033592Y-115386801D01*
X129033592Y-115386801D02*
X129111743Y-115371524D01*
X129111743Y-115371524D02*
X129154321Y-115363517D01*
X129154321Y-115363517D02*
X129235108Y-115348415D01*
X129235108Y-115348415D02*
X129307150Y-115334734D01*
X129307150Y-115334734D02*
X129366926Y-115323161D01*
X129366926Y-115323161D02*
X129410916Y-115314381D01*
X129410916Y-115314381D02*
X129435598Y-115309081D01*
X129435598Y-115309081D02*
X129439660Y-115307906D01*
X129439660Y-115307906D02*
X129446526Y-115294659D01*
X129446526Y-115294659D02*
X129461039Y-115262751D01*
X129461039Y-115262751D02*
X129481266Y-115216741D01*
X129481266Y-115216741D02*
X129505271Y-115161186D01*
X129505271Y-115161186D02*
X129531119Y-115100647D01*
X129531119Y-115100647D02*
X129556877Y-115039680D01*
X129556877Y-115039680D02*
X129580610Y-114982845D01*
X129580610Y-114982845D02*
X129600383Y-114934700D01*
X129600383Y-114934700D02*
X129614261Y-114899804D01*
X129614261Y-114899804D02*
X129620311Y-114882715D01*
X129620311Y-114882715D02*
X129620423Y-114881968D01*
X129620423Y-114881968D02*
X129613565Y-114868487D01*
X129613565Y-114868487D02*
X129594339Y-114837464D01*
X129594339Y-114837464D02*
X129564765Y-114791983D01*
X129564765Y-114791983D02*
X129526864Y-114735126D01*
X129526864Y-114735126D02*
X129482657Y-114669977D01*
X129482657Y-114669977D02*
X129456958Y-114632556D01*
X129456958Y-114632556D02*
X129410130Y-114563941D01*
X129410130Y-114563941D02*
X129368538Y-114501646D01*
X129368538Y-114501646D02*
X129334212Y-114448823D01*
X129334212Y-114448823D02*
X129309180Y-114408621D01*
X129309180Y-114408621D02*
X129295472Y-114384194D01*
X129295472Y-114384194D02*
X129293493Y-114378718D01*
X129293493Y-114378718D02*
X129302003Y-114365972D01*
X129302003Y-114365972D02*
X129325530Y-114338757D01*
X129325530Y-114338757D02*
X129361069Y-114300122D01*
X129361069Y-114300122D02*
X129405614Y-114253117D01*
X129405614Y-114253117D02*
X129456160Y-114200789D01*
X129456160Y-114200789D02*
X129509701Y-114146189D01*
X129509701Y-114146189D02*
X129563232Y-114092364D01*
X129563232Y-114092364D02*
X129613748Y-114042364D01*
X129613748Y-114042364D02*
X129658243Y-113999237D01*
X129658243Y-113999237D02*
X129693712Y-113966033D01*
X129693712Y-113966033D02*
X129717150Y-113945800D01*
X129717150Y-113945800D02*
X129724991Y-113940972D01*
X129724991Y-113940972D02*
X129737757Y-113947761D01*
X129737757Y-113947761D02*
X129768293Y-113966836D01*
X129768293Y-113966836D02*
X129813627Y-113996255D01*
X129813627Y-113996255D02*
X129870793Y-114034075D01*
X129870793Y-114034075D02*
X129936821Y-114078355D01*
X129936821Y-114078355D02*
X129986627Y-114112089D01*
X129986627Y-114112089D02*
X130238273Y-114283206D01*
X130238273Y-114283206D02*
X130448036Y-114196735D01*
X130448036Y-114196735D02*
X130657800Y-114110264D01*
X130657800Y-114110264D02*
X130714648Y-113808712D01*
X130714648Y-113808712D02*
X130771497Y-113507160D01*
X130771497Y-113507160D02*
X131399152Y-113507160D01*
X131399152Y-113507160D02*
X131456001Y-113808712D01*
X131456001Y-113808712D02*
X131456001Y-113808712D01*
G36*
X131456001Y-113808712D02*
G01*
X131512849Y-114110264D01*
X131932375Y-114283206D01*
X132184021Y-114112089D01*
X132254495Y-114064444D01*
X132318200Y-114021904D01*
X132372163Y-113986409D01*
X132413410Y-113959904D01*
X132438971Y-113944330D01*
X132445932Y-113940972D01*
X132458472Y-113949608D01*
X132485268Y-113973486D01*
X132523317Y-114009553D01*
X132569616Y-114054761D01*
X132621160Y-114106058D01*
X132674946Y-114160395D01*
X132727972Y-114214722D01*
X132777232Y-114265989D01*
X132819724Y-114311145D01*
X132852444Y-114347140D01*
X132872388Y-114370924D01*
X132877156Y-114378884D01*
X132870294Y-114393559D01*
X132851057Y-114425708D01*
X132821467Y-114472186D01*
X132783547Y-114529850D01*
X132739319Y-114595554D01*
X132713691Y-114633030D01*
X132666978Y-114701462D01*
X132625469Y-114763214D01*
X132591177Y-114815213D01*
X132566117Y-114854386D01*
X132552301Y-114877659D01*
X132550225Y-114882549D01*
X132554932Y-114896449D01*
X132567760Y-114928844D01*
X132586775Y-114975179D01*
X132610040Y-115030900D01*
X132635621Y-115091452D01*
X132661582Y-115152280D01*
X132685987Y-115208830D01*
X132706900Y-115256546D01*
X132722386Y-115290875D01*
X132730509Y-115307262D01*
X132730989Y-115307906D01*
X132743744Y-115311035D01*
X132777714Y-115318015D01*
X132829377Y-115328161D01*
X132895213Y-115340786D01*
X132971701Y-115355203D01*
X133016327Y-115363517D01*
X133098058Y-115379078D01*
X133171880Y-115393886D01*
X133234058Y-115407130D01*
X133280859Y-115417999D01*
X133308546Y-115425683D01*
X133314111Y-115428121D01*
X133319563Y-115444624D01*
X133323961Y-115481894D01*
X133327309Y-115535574D01*
X133329611Y-115601306D01*
X133330869Y-115674731D01*
X133331085Y-115751490D01*
X133330264Y-115827226D01*
X133328408Y-115897580D01*
X133325519Y-115958194D01*
X133321602Y-116004710D01*
X133316659Y-116032769D01*
X133313694Y-116038610D01*
X133295971Y-116045611D01*
X133258418Y-116055621D01*
X133206001Y-116067463D01*
X133143689Y-116079961D01*
X133121937Y-116084004D01*
X133017061Y-116103214D01*
X132934217Y-116118685D01*
X132870667Y-116131031D01*
X132823674Y-116140867D01*
X132790500Y-116148808D01*
X132768408Y-116155470D01*
X132754661Y-116161467D01*
X132746521Y-116167413D01*
X132745382Y-116168588D01*
X132734014Y-116187520D01*
X132716672Y-116224363D01*
X132695087Y-116274607D01*
X132670991Y-116333740D01*
X132646116Y-116397250D01*
X132622194Y-116460626D01*
X132600956Y-116519356D01*
X132584134Y-116568929D01*
X132573459Y-116604833D01*
X132570664Y-116622556D01*
X132570897Y-116623177D01*
X132580368Y-116637664D01*
X132601855Y-116669538D01*
X132633100Y-116715483D01*
X132671844Y-116772179D01*
X132715830Y-116836311D01*
X132728356Y-116854536D01*
X132773021Y-116920608D01*
X132812325Y-116980894D01*
X132844125Y-117031929D01*
X132866282Y-117070254D01*
X132876654Y-117092405D01*
X132877156Y-117095126D01*
X132868442Y-117109430D01*
X132844362Y-117137766D01*
X132808013Y-117177090D01*
X132762490Y-117224355D01*
X132710889Y-117276517D01*
X132656304Y-117330529D01*
X132601831Y-117383347D01*
X132550566Y-117431925D01*
X132505604Y-117473217D01*
X132470041Y-117504179D01*
X132446972Y-117521764D01*
X132440591Y-117524635D01*
X132425736Y-117517872D01*
X132395323Y-117499633D01*
X132354305Y-117472991D01*
X132322746Y-117451546D01*
X132265562Y-117412197D01*
X132197843Y-117365865D01*
X132129917Y-117319607D01*
X132093398Y-117294849D01*
X131969789Y-117211241D01*
X131866028Y-117267344D01*
X131818757Y-117291922D01*
X131778560Y-117311025D01*
X131751363Y-117321921D01*
X131744439Y-117323437D01*
X131736114Y-117312243D01*
X131719691Y-117280611D01*
X131696394Y-117231459D01*
X131667451Y-117167704D01*
X131634087Y-117092265D01*
X131597528Y-117008058D01*
X131559001Y-116918002D01*
X131519731Y-116825015D01*
X131480945Y-116732014D01*
X131443867Y-116641917D01*
X131409726Y-116557642D01*
X131379745Y-116482107D01*
X131355153Y-116418228D01*
X131337173Y-116368925D01*
X131327034Y-116337115D01*
X131325403Y-116326190D01*
X131338328Y-116312255D01*
X131366626Y-116289634D01*
X131404383Y-116263027D01*
X131407552Y-116260922D01*
X131505137Y-116182808D01*
X131583823Y-116091676D01*
X131642928Y-115990439D01*
X131681769Y-115882012D01*
X131699665Y-115769308D01*
X131695934Y-115655242D01*
X131669894Y-115542728D01*
X131620862Y-115434679D01*
X131606437Y-115411039D01*
X131531406Y-115315581D01*
X131442767Y-115238926D01*
X131343586Y-115181474D01*
X131236932Y-115143623D01*
X131125873Y-115125772D01*
X131013476Y-115128319D01*
X130902810Y-115151664D01*
X130796943Y-115196204D01*
X130698942Y-115262339D01*
X130668627Y-115289181D01*
X130591475Y-115373206D01*
X130535255Y-115461660D01*
X130496690Y-115560809D01*
X130475211Y-115658997D01*
X130469909Y-115769391D01*
X130487589Y-115880334D01*
X130526456Y-115988075D01*
X130584714Y-116088863D01*
X130660568Y-116178950D01*
X130752220Y-116254586D01*
X130764265Y-116262558D01*
X130802426Y-116288668D01*
X130831436Y-116311289D01*
X130845305Y-116325733D01*
X130845506Y-116326190D01*
X130842529Y-116341815D01*
X130830726Y-116377276D01*
X130811323Y-116429656D01*
X130785549Y-116496039D01*
X130754628Y-116573508D01*
X130719788Y-116659144D01*
X130682254Y-116750031D01*
X130643254Y-116843253D01*
X130604014Y-116935891D01*
X130565761Y-117025029D01*
X130529720Y-117107749D01*
X130497120Y-117181135D01*
X130469185Y-117242269D01*
X130447142Y-117288235D01*
X130432219Y-117316115D01*
X130426209Y-117323437D01*
X130407846Y-117317735D01*
X130373485Y-117302443D01*
X130329053Y-117280293D01*
X130304620Y-117267344D01*
X130200859Y-117211241D01*
X130077250Y-117294849D01*
X130014151Y-117337681D01*
X129945067Y-117384816D01*
X129880330Y-117429197D01*
X129847903Y-117451546D01*
X129802296Y-117482171D01*
X129763677Y-117506441D01*
X129737085Y-117521281D01*
X129728447Y-117524418D01*
X129715876Y-117515955D01*
X129688053Y-117492330D01*
X129647676Y-117455996D01*
X129597442Y-117409405D01*
X129540049Y-117355011D01*
X129503751Y-117320086D01*
X129440247Y-117257690D01*
X129385364Y-117201882D01*
X129341323Y-117155048D01*
X129310342Y-117119576D01*
X129294639Y-117097855D01*
X129293132Y-117093446D01*
X129300123Y-117076679D01*
X129319443Y-117042776D01*
X129348946Y-116995170D01*
X129386492Y-116937293D01*
X129429937Y-116872578D01*
X129442292Y-116854536D01*
X129487310Y-116788961D01*
X129527697Y-116729922D01*
X129561197Y-116680736D01*
X129585551Y-116644722D01*
X129598501Y-116625196D01*
X129599752Y-116623177D01*
X129597881Y-116607616D01*
X129587950Y-116573403D01*
X129571690Y-116525049D01*
X129550832Y-116467065D01*
X129527110Y-116403964D01*
X129502253Y-116340257D01*
X129477995Y-116280455D01*
X129456066Y-116229070D01*
X129438199Y-116190613D01*
X129426124Y-116169596D01*
X129425266Y-116168588D01*
X129417883Y-116162582D01*
X129405412Y-116156642D01*
X129385117Y-116150154D01*
X129354259Y-116142503D01*
X129310103Y-116133074D01*
X129249911Y-116121253D01*
X129170944Y-116106423D01*
X129070467Y-116087971D01*
X129048712Y-116084004D01*
X128984235Y-116071547D01*
X128928026Y-116059360D01*
X128885050Y-116048620D01*
X128860277Y-116040503D01*
X128856955Y-116038610D01*
X128851481Y-116021832D01*
X128847031Y-115984339D01*
X128843609Y-115930488D01*
X128841218Y-115864638D01*
X128839860Y-115791147D01*
X128839538Y-115714374D01*
X128840256Y-115638677D01*
X128842016Y-115568414D01*
X128844821Y-115507944D01*
X128848675Y-115461624D01*
X128853580Y-115433813D01*
X128856537Y-115428121D01*
X128873000Y-115422380D01*
X128910486Y-115413039D01*
X128965262Y-115400909D01*
X129033592Y-115386801D01*
X129111743Y-115371524D01*
X129154321Y-115363517D01*
X129235108Y-115348415D01*
X129307150Y-115334734D01*
X129366926Y-115323161D01*
X129410916Y-115314381D01*
X129435598Y-115309081D01*
X129439660Y-115307906D01*
X129446526Y-115294659D01*
X129461039Y-115262751D01*
X129481266Y-115216741D01*
X129505271Y-115161186D01*
X129531119Y-115100647D01*
X129556877Y-115039680D01*
X129580610Y-114982845D01*
X129600383Y-114934700D01*
X129614261Y-114899804D01*
X129620311Y-114882715D01*
X129620423Y-114881968D01*
X129613565Y-114868487D01*
X129594339Y-114837464D01*
X129564765Y-114791983D01*
X129526864Y-114735126D01*
X129482657Y-114669977D01*
X129456958Y-114632556D01*
X129410130Y-114563941D01*
X129368538Y-114501646D01*
X129334212Y-114448823D01*
X129309180Y-114408621D01*
X129295472Y-114384194D01*
X129293493Y-114378718D01*
X129302003Y-114365972D01*
X129325530Y-114338757D01*
X129361069Y-114300122D01*
X129405614Y-114253117D01*
X129456160Y-114200789D01*
X129509701Y-114146189D01*
X129563232Y-114092364D01*
X129613748Y-114042364D01*
X129658243Y-113999237D01*
X129693712Y-113966033D01*
X129717150Y-113945800D01*
X129724991Y-113940972D01*
X129737757Y-113947761D01*
X129768293Y-113966836D01*
X129813627Y-113996255D01*
X129870793Y-114034075D01*
X129936821Y-114078355D01*
X129986627Y-114112089D01*
X130238273Y-114283206D01*
X130448036Y-114196735D01*
X130657800Y-114110264D01*
X130714648Y-113808712D01*
X130771497Y-113507160D01*
X131399152Y-113507160D01*
X131456001Y-113808712D01*
G37*
X131456001Y-113808712D02*
X131512849Y-114110264D01*
X131932375Y-114283206D01*
X132184021Y-114112089D01*
X132254495Y-114064444D01*
X132318200Y-114021904D01*
X132372163Y-113986409D01*
X132413410Y-113959904D01*
X132438971Y-113944330D01*
X132445932Y-113940972D01*
X132458472Y-113949608D01*
X132485268Y-113973486D01*
X132523317Y-114009553D01*
X132569616Y-114054761D01*
X132621160Y-114106058D01*
X132674946Y-114160395D01*
X132727972Y-114214722D01*
X132777232Y-114265989D01*
X132819724Y-114311145D01*
X132852444Y-114347140D01*
X132872388Y-114370924D01*
X132877156Y-114378884D01*
X132870294Y-114393559D01*
X132851057Y-114425708D01*
X132821467Y-114472186D01*
X132783547Y-114529850D01*
X132739319Y-114595554D01*
X132713691Y-114633030D01*
X132666978Y-114701462D01*
X132625469Y-114763214D01*
X132591177Y-114815213D01*
X132566117Y-114854386D01*
X132552301Y-114877659D01*
X132550225Y-114882549D01*
X132554932Y-114896449D01*
X132567760Y-114928844D01*
X132586775Y-114975179D01*
X132610040Y-115030900D01*
X132635621Y-115091452D01*
X132661582Y-115152280D01*
X132685987Y-115208830D01*
X132706900Y-115256546D01*
X132722386Y-115290875D01*
X132730509Y-115307262D01*
X132730989Y-115307906D01*
X132743744Y-115311035D01*
X132777714Y-115318015D01*
X132829377Y-115328161D01*
X132895213Y-115340786D01*
X132971701Y-115355203D01*
X133016327Y-115363517D01*
X133098058Y-115379078D01*
X133171880Y-115393886D01*
X133234058Y-115407130D01*
X133280859Y-115417999D01*
X133308546Y-115425683D01*
X133314111Y-115428121D01*
X133319563Y-115444624D01*
X133323961Y-115481894D01*
X133327309Y-115535574D01*
X133329611Y-115601306D01*
X133330869Y-115674731D01*
X133331085Y-115751490D01*
X133330264Y-115827226D01*
X133328408Y-115897580D01*
X133325519Y-115958194D01*
X133321602Y-116004710D01*
X133316659Y-116032769D01*
X133313694Y-116038610D01*
X133295971Y-116045611D01*
X133258418Y-116055621D01*
X133206001Y-116067463D01*
X133143689Y-116079961D01*
X133121937Y-116084004D01*
X133017061Y-116103214D01*
X132934217Y-116118685D01*
X132870667Y-116131031D01*
X132823674Y-116140867D01*
X132790500Y-116148808D01*
X132768408Y-116155470D01*
X132754661Y-116161467D01*
X132746521Y-116167413D01*
X132745382Y-116168588D01*
X132734014Y-116187520D01*
X132716672Y-116224363D01*
X132695087Y-116274607D01*
X132670991Y-116333740D01*
X132646116Y-116397250D01*
X132622194Y-116460626D01*
X132600956Y-116519356D01*
X132584134Y-116568929D01*
X132573459Y-116604833D01*
X132570664Y-116622556D01*
X132570897Y-116623177D01*
X132580368Y-116637664D01*
X132601855Y-116669538D01*
X132633100Y-116715483D01*
X132671844Y-116772179D01*
X132715830Y-116836311D01*
X132728356Y-116854536D01*
X132773021Y-116920608D01*
X132812325Y-116980894D01*
X132844125Y-117031929D01*
X132866282Y-117070254D01*
X132876654Y-117092405D01*
X132877156Y-117095126D01*
X132868442Y-117109430D01*
X132844362Y-117137766D01*
X132808013Y-117177090D01*
X132762490Y-117224355D01*
X132710889Y-117276517D01*
X132656304Y-117330529D01*
X132601831Y-117383347D01*
X132550566Y-117431925D01*
X132505604Y-117473217D01*
X132470041Y-117504179D01*
X132446972Y-117521764D01*
X132440591Y-117524635D01*
X132425736Y-117517872D01*
X132395323Y-117499633D01*
X132354305Y-117472991D01*
X132322746Y-117451546D01*
X132265562Y-117412197D01*
X132197843Y-117365865D01*
X132129917Y-117319607D01*
X132093398Y-117294849D01*
X131969789Y-117211241D01*
X131866028Y-117267344D01*
X131818757Y-117291922D01*
X131778560Y-117311025D01*
X131751363Y-117321921D01*
X131744439Y-117323437D01*
X131736114Y-117312243D01*
X131719691Y-117280611D01*
X131696394Y-117231459D01*
X131667451Y-117167704D01*
X131634087Y-117092265D01*
X131597528Y-117008058D01*
X131559001Y-116918002D01*
X131519731Y-116825015D01*
X131480945Y-116732014D01*
X131443867Y-116641917D01*
X131409726Y-116557642D01*
X131379745Y-116482107D01*
X131355153Y-116418228D01*
X131337173Y-116368925D01*
X131327034Y-116337115D01*
X131325403Y-116326190D01*
X131338328Y-116312255D01*
X131366626Y-116289634D01*
X131404383Y-116263027D01*
X131407552Y-116260922D01*
X131505137Y-116182808D01*
X131583823Y-116091676D01*
X131642928Y-115990439D01*
X131681769Y-115882012D01*
X131699665Y-115769308D01*
X131695934Y-115655242D01*
X131669894Y-115542728D01*
X131620862Y-115434679D01*
X131606437Y-115411039D01*
X131531406Y-115315581D01*
X131442767Y-115238926D01*
X131343586Y-115181474D01*
X131236932Y-115143623D01*
X131125873Y-115125772D01*
X131013476Y-115128319D01*
X130902810Y-115151664D01*
X130796943Y-115196204D01*
X130698942Y-115262339D01*
X130668627Y-115289181D01*
X130591475Y-115373206D01*
X130535255Y-115461660D01*
X130496690Y-115560809D01*
X130475211Y-115658997D01*
X130469909Y-115769391D01*
X130487589Y-115880334D01*
X130526456Y-115988075D01*
X130584714Y-116088863D01*
X130660568Y-116178950D01*
X130752220Y-116254586D01*
X130764265Y-116262558D01*
X130802426Y-116288668D01*
X130831436Y-116311289D01*
X130845305Y-116325733D01*
X130845506Y-116326190D01*
X130842529Y-116341815D01*
X130830726Y-116377276D01*
X130811323Y-116429656D01*
X130785549Y-116496039D01*
X130754628Y-116573508D01*
X130719788Y-116659144D01*
X130682254Y-116750031D01*
X130643254Y-116843253D01*
X130604014Y-116935891D01*
X130565761Y-117025029D01*
X130529720Y-117107749D01*
X130497120Y-117181135D01*
X130469185Y-117242269D01*
X130447142Y-117288235D01*
X130432219Y-117316115D01*
X130426209Y-117323437D01*
X130407846Y-117317735D01*
X130373485Y-117302443D01*
X130329053Y-117280293D01*
X130304620Y-117267344D01*
X130200859Y-117211241D01*
X130077250Y-117294849D01*
X130014151Y-117337681D01*
X129945067Y-117384816D01*
X129880330Y-117429197D01*
X129847903Y-117451546D01*
X129802296Y-117482171D01*
X129763677Y-117506441D01*
X129737085Y-117521281D01*
X129728447Y-117524418D01*
X129715876Y-117515955D01*
X129688053Y-117492330D01*
X129647676Y-117455996D01*
X129597442Y-117409405D01*
X129540049Y-117355011D01*
X129503751Y-117320086D01*
X129440247Y-117257690D01*
X129385364Y-117201882D01*
X129341323Y-117155048D01*
X129310342Y-117119576D01*
X129294639Y-117097855D01*
X129293132Y-117093446D01*
X129300123Y-117076679D01*
X129319443Y-117042776D01*
X129348946Y-116995170D01*
X129386492Y-116937293D01*
X129429937Y-116872578D01*
X129442292Y-116854536D01*
X129487310Y-116788961D01*
X129527697Y-116729922D01*
X129561197Y-116680736D01*
X129585551Y-116644722D01*
X129598501Y-116625196D01*
X129599752Y-116623177D01*
X129597881Y-116607616D01*
X129587950Y-116573403D01*
X129571690Y-116525049D01*
X129550832Y-116467065D01*
X129527110Y-116403964D01*
X129502253Y-116340257D01*
X129477995Y-116280455D01*
X129456066Y-116229070D01*
X129438199Y-116190613D01*
X129426124Y-116169596D01*
X129425266Y-116168588D01*
X129417883Y-116162582D01*
X129405412Y-116156642D01*
X129385117Y-116150154D01*
X129354259Y-116142503D01*
X129310103Y-116133074D01*
X129249911Y-116121253D01*
X129170944Y-116106423D01*
X129070467Y-116087971D01*
X129048712Y-116084004D01*
X128984235Y-116071547D01*
X128928026Y-116059360D01*
X128885050Y-116048620D01*
X128860277Y-116040503D01*
X128856955Y-116038610D01*
X128851481Y-116021832D01*
X128847031Y-115984339D01*
X128843609Y-115930488D01*
X128841218Y-115864638D01*
X128839860Y-115791147D01*
X128839538Y-115714374D01*
X128840256Y-115638677D01*
X128842016Y-115568414D01*
X128844821Y-115507944D01*
X128848675Y-115461624D01*
X128853580Y-115433813D01*
X128856537Y-115428121D01*
X128873000Y-115422380D01*
X128910486Y-115413039D01*
X128965262Y-115400909D01*
X129033592Y-115386801D01*
X129111743Y-115371524D01*
X129154321Y-115363517D01*
X129235108Y-115348415D01*
X129307150Y-115334734D01*
X129366926Y-115323161D01*
X129410916Y-115314381D01*
X129435598Y-115309081D01*
X129439660Y-115307906D01*
X129446526Y-115294659D01*
X129461039Y-115262751D01*
X129481266Y-115216741D01*
X129505271Y-115161186D01*
X129531119Y-115100647D01*
X129556877Y-115039680D01*
X129580610Y-114982845D01*
X129600383Y-114934700D01*
X129614261Y-114899804D01*
X129620311Y-114882715D01*
X129620423Y-114881968D01*
X129613565Y-114868487D01*
X129594339Y-114837464D01*
X129564765Y-114791983D01*
X129526864Y-114735126D01*
X129482657Y-114669977D01*
X129456958Y-114632556D01*
X129410130Y-114563941D01*
X129368538Y-114501646D01*
X129334212Y-114448823D01*
X129309180Y-114408621D01*
X129295472Y-114384194D01*
X129293493Y-114378718D01*
X129302003Y-114365972D01*
X129325530Y-114338757D01*
X129361069Y-114300122D01*
X129405614Y-114253117D01*
X129456160Y-114200789D01*
X129509701Y-114146189D01*
X129563232Y-114092364D01*
X129613748Y-114042364D01*
X129658243Y-113999237D01*
X129693712Y-113966033D01*
X129717150Y-113945800D01*
X129724991Y-113940972D01*
X129737757Y-113947761D01*
X129768293Y-113966836D01*
X129813627Y-113996255D01*
X129870793Y-114034075D01*
X129936821Y-114078355D01*
X129986627Y-114112089D01*
X130238273Y-114283206D01*
X130448036Y-114196735D01*
X130657800Y-114110264D01*
X130714648Y-113808712D01*
X130771497Y-113507160D01*
X131399152Y-113507160D01*
X131456001Y-113808712D01*
X132714292Y-118920180D02*
X132762632Y-118929709D01*
X132762632Y-118929709D02*
X132790151Y-118943819D01*
X132790151Y-118943819D02*
X132819101Y-118967262D01*
X132819101Y-118967262D02*
X132777913Y-119019265D01*
X132777913Y-119019265D02*
X132752519Y-119050758D01*
X132752519Y-119050758D02*
X132735275Y-119066122D01*
X132735275Y-119066122D02*
X132718139Y-119068470D01*
X132718139Y-119068470D02*
X132693064Y-119060911D01*
X132693064Y-119060911D02*
X132681294Y-119056635D01*
X132681294Y-119056635D02*
X132633307Y-119050325D01*
X132633307Y-119050325D02*
X132589361Y-119063850D01*
X132589361Y-119063850D02*
X132557097Y-119094404D01*
X132557097Y-119094404D02*
X132551856Y-119104146D01*
X132551856Y-119104146D02*
X132546149Y-119129952D01*
X132546149Y-119129952D02*
X132541743Y-119177511D01*
X132541743Y-119177511D02*
X132538848Y-119243452D01*
X132538848Y-119243452D02*
X132537668Y-119324404D01*
X132537668Y-119324404D02*
X132537651Y-119335920D01*
X132537651Y-119335920D02*
X132537651Y-119536516D01*
X132537651Y-119536516D02*
X132399334Y-119536516D01*
X132399334Y-119536516D02*
X132399334Y-118920377D01*
X132399334Y-118920377D02*
X132468493Y-118920377D01*
X132468493Y-118920377D02*
X132508370Y-118921419D01*
X132508370Y-118921419D02*
X132529144Y-118926052D01*
X132529144Y-118926052D02*
X132536826Y-118936543D01*
X132536826Y-118936543D02*
X132537651Y-118946439D01*
X132537651Y-118946439D02*
X132537651Y-118972500D01*
X132537651Y-118972500D02*
X132570782Y-118946439D01*
X132570782Y-118946439D02*
X132608772Y-118928659D01*
X132608772Y-118928659D02*
X132659807Y-118919868D01*
X132659807Y-118919868D02*
X132714292Y-118920180D01*
X132714292Y-118920180D02*
X132714292Y-118920180D01*
G36*
X132714292Y-118920180D02*
G01*
X132762632Y-118929709D01*
X132790151Y-118943819D01*
X132819101Y-118967262D01*
X132777913Y-119019265D01*
X132752519Y-119050758D01*
X132735275Y-119066122D01*
X132718139Y-119068470D01*
X132693064Y-119060911D01*
X132681294Y-119056635D01*
X132633307Y-119050325D01*
X132589361Y-119063850D01*
X132557097Y-119094404D01*
X132551856Y-119104146D01*
X132546149Y-119129952D01*
X132541743Y-119177511D01*
X132538848Y-119243452D01*
X132537668Y-119324404D01*
X132537651Y-119335920D01*
X132537651Y-119536516D01*
X132399334Y-119536516D01*
X132399334Y-118920377D01*
X132468493Y-118920377D01*
X132508370Y-118921419D01*
X132529144Y-118926052D01*
X132536826Y-118936543D01*
X132537651Y-118946439D01*
X132537651Y-118972500D01*
X132570782Y-118946439D01*
X132608772Y-118928659D01*
X132659807Y-118919868D01*
X132714292Y-118920180D01*
G37*
X132714292Y-118920180D02*
X132762632Y-118929709D01*
X132790151Y-118943819D01*
X132819101Y-118967262D01*
X132777913Y-119019265D01*
X132752519Y-119050758D01*
X132735275Y-119066122D01*
X132718139Y-119068470D01*
X132693064Y-119060911D01*
X132681294Y-119056635D01*
X132633307Y-119050325D01*
X132589361Y-119063850D01*
X132557097Y-119094404D01*
X132551856Y-119104146D01*
X132546149Y-119129952D01*
X132541743Y-119177511D01*
X132538848Y-119243452D01*
X132537668Y-119324404D01*
X132537651Y-119335920D01*
X132537651Y-119536516D01*
X132399334Y-119536516D01*
X132399334Y-118920377D01*
X132468493Y-118920377D01*
X132508370Y-118921419D01*
X132529144Y-118926052D01*
X132536826Y-118936543D01*
X132537651Y-118946439D01*
X132537651Y-118972500D01*
X132570782Y-118946439D01*
X132608772Y-118928659D01*
X132659807Y-118919868D01*
X132714292Y-118920180D01*
X128540776Y-117983842D02*
X128606558Y-118012925D01*
X128606558Y-118012925D02*
X128656497Y-118061487D01*
X128656497Y-118061487D02*
X128690663Y-118129602D01*
X128690663Y-118129602D02*
X128709130Y-118217345D01*
X128709130Y-118217345D02*
X128710454Y-118231045D01*
X128710454Y-118231045D02*
X128711491Y-118327633D01*
X128711491Y-118327633D02*
X128698044Y-118412296D01*
X128698044Y-118412296D02*
X128670929Y-118480915D01*
X128670929Y-118480915D02*
X128656410Y-118502988D01*
X128656410Y-118502988D02*
X128605836Y-118549705D01*
X128605836Y-118549705D02*
X128541428Y-118579962D01*
X128541428Y-118579962D02*
X128469371Y-118592518D01*
X128469371Y-118592518D02*
X128395852Y-118586133D01*
X128395852Y-118586133D02*
X128339965Y-118566466D01*
X128339965Y-118566466D02*
X128291905Y-118533323D01*
X128291905Y-118533323D02*
X128252625Y-118489869D01*
X128252625Y-118489869D02*
X128251945Y-118488852D01*
X128251945Y-118488852D02*
X128235993Y-118462032D01*
X128235993Y-118462032D02*
X128225627Y-118435062D01*
X128225627Y-118435062D02*
X128219349Y-118401026D01*
X128219349Y-118401026D02*
X128215664Y-118353004D01*
X128215664Y-118353004D02*
X128214040Y-118313625D01*
X128214040Y-118313625D02*
X128213365Y-118277913D01*
X128213365Y-118277913D02*
X128339082Y-118277913D01*
X128339082Y-118277913D02*
X128340311Y-118313464D01*
X128340311Y-118313464D02*
X128344771Y-118360788D01*
X128344771Y-118360788D02*
X128352640Y-118391159D01*
X128352640Y-118391159D02*
X128366830Y-118412766D01*
X128366830Y-118412766D02*
X128380120Y-118425388D01*
X128380120Y-118425388D02*
X128427235Y-118451816D01*
X128427235Y-118451816D02*
X128476532Y-118455347D01*
X128476532Y-118455347D02*
X128522444Y-118436333D01*
X128522444Y-118436333D02*
X128545399Y-118415025D01*
X128545399Y-118415025D02*
X128561941Y-118393553D01*
X128561941Y-118393553D02*
X128571616Y-118373007D01*
X128571616Y-118373007D02*
X128575863Y-118346268D01*
X128575863Y-118346268D02*
X128576117Y-118306217D01*
X128576117Y-118306217D02*
X128574809Y-118269332D01*
X128574809Y-118269332D02*
X128571994Y-118216641D01*
X128571994Y-118216641D02*
X128567532Y-118182466D01*
X128567532Y-118182466D02*
X128559489Y-118160174D01*
X128559489Y-118160174D02*
X128545934Y-118143136D01*
X128545934Y-118143136D02*
X128535192Y-118133397D01*
X128535192Y-118133397D02*
X128490260Y-118107817D01*
X128490260Y-118107817D02*
X128441788Y-118106541D01*
X128441788Y-118106541D02*
X128401143Y-118121693D01*
X128401143Y-118121693D02*
X128366470Y-118153336D01*
X128366470Y-118153336D02*
X128345813Y-118205314D01*
X128345813Y-118205314D02*
X128339082Y-118277913D01*
X128339082Y-118277913D02*
X128213365Y-118277913D01*
X128213365Y-118277913D02*
X128212558Y-118235315D01*
X128212558Y-118235315D02*
X128215089Y-118176750D01*
X128215089Y-118176750D02*
X128222675Y-118132701D01*
X128222675Y-118132701D02*
X128236356Y-118097942D01*
X128236356Y-118097942D02*
X128257172Y-118067245D01*
X128257172Y-118067245D02*
X128264890Y-118058130D01*
X128264890Y-118058130D02*
X128313148Y-118012715D01*
X128313148Y-118012715D02*
X128364909Y-117986187D01*
X128364909Y-117986187D02*
X128428209Y-117975073D01*
X128428209Y-117975073D02*
X128459076Y-117974165D01*
X128459076Y-117974165D02*
X128540776Y-117983842D01*
X128540776Y-117983842D02*
X128540776Y-117983842D01*
G36*
X128215089Y-118176750D02*
G01*
X128222675Y-118132701D01*
X128236356Y-118097942D01*
X128257172Y-118067245D01*
X128264890Y-118058130D01*
X128313148Y-118012715D01*
X128364909Y-117986187D01*
X128428209Y-117975073D01*
X128459076Y-117974165D01*
X128540776Y-117983842D01*
X128606558Y-118012925D01*
X128656497Y-118061487D01*
X128690663Y-118129602D01*
X128709130Y-118217345D01*
X128710454Y-118231045D01*
X128711491Y-118327633D01*
X128698044Y-118412296D01*
X128670929Y-118480915D01*
X128656410Y-118502988D01*
X128605836Y-118549705D01*
X128541428Y-118579962D01*
X128469371Y-118592518D01*
X128395852Y-118586133D01*
X128339965Y-118566466D01*
X128291905Y-118533323D01*
X128252625Y-118489869D01*
X128251945Y-118488852D01*
X128235993Y-118462032D01*
X128225627Y-118435062D01*
X128219349Y-118401026D01*
X128215664Y-118353004D01*
X128214040Y-118313625D01*
X128213365Y-118277913D01*
X128339082Y-118277913D01*
X128340311Y-118313464D01*
X128344771Y-118360788D01*
X128352640Y-118391159D01*
X128366830Y-118412766D01*
X128380120Y-118425388D01*
X128427235Y-118451816D01*
X128476532Y-118455347D01*
X128522444Y-118436333D01*
X128545399Y-118415025D01*
X128561941Y-118393553D01*
X128571616Y-118373007D01*
X128575863Y-118346268D01*
X128576117Y-118306217D01*
X128574809Y-118269332D01*
X128571994Y-118216641D01*
X128567532Y-118182466D01*
X128559489Y-118160174D01*
X128545934Y-118143136D01*
X128535192Y-118133397D01*
X128490260Y-118107817D01*
X128441788Y-118106541D01*
X128401143Y-118121693D01*
X128366470Y-118153336D01*
X128345813Y-118205314D01*
X128339082Y-118277913D01*
X128213365Y-118277913D01*
X128212558Y-118235315D01*
X128215089Y-118176750D01*
G37*
X128215089Y-118176750D02*
X128222675Y-118132701D01*
X128236356Y-118097942D01*
X128257172Y-118067245D01*
X128264890Y-118058130D01*
X128313148Y-118012715D01*
X128364909Y-117986187D01*
X128428209Y-117975073D01*
X128459076Y-117974165D01*
X128540776Y-117983842D01*
X128606558Y-118012925D01*
X128656497Y-118061487D01*
X128690663Y-118129602D01*
X128709130Y-118217345D01*
X128710454Y-118231045D01*
X128711491Y-118327633D01*
X128698044Y-118412296D01*
X128670929Y-118480915D01*
X128656410Y-118502988D01*
X128605836Y-118549705D01*
X128541428Y-118579962D01*
X128469371Y-118592518D01*
X128395852Y-118586133D01*
X128339965Y-118566466D01*
X128291905Y-118533323D01*
X128252625Y-118489869D01*
X128251945Y-118488852D01*
X128235993Y-118462032D01*
X128225627Y-118435062D01*
X128219349Y-118401026D01*
X128215664Y-118353004D01*
X128214040Y-118313625D01*
X128213365Y-118277913D01*
X128339082Y-118277913D01*
X128340311Y-118313464D01*
X128344771Y-118360788D01*
X128352640Y-118391159D01*
X128366830Y-118412766D01*
X128380120Y-118425388D01*
X128427235Y-118451816D01*
X128476532Y-118455347D01*
X128522444Y-118436333D01*
X128545399Y-118415025D01*
X128561941Y-118393553D01*
X128571616Y-118373007D01*
X128575863Y-118346268D01*
X128576117Y-118306217D01*
X128574809Y-118269332D01*
X128571994Y-118216641D01*
X128567532Y-118182466D01*
X128559489Y-118160174D01*
X128545934Y-118143136D01*
X128535192Y-118133397D01*
X128490260Y-118107817D01*
X128441788Y-118106541D01*
X128401143Y-118121693D01*
X128366470Y-118153336D01*
X128345813Y-118205314D01*
X128339082Y-118277913D01*
X128213365Y-118277913D01*
X128212558Y-118235315D01*
X128215089Y-118176750D01*
X132117448Y-118924111D02*
X132170448Y-118936984D01*
X132170448Y-118936984D02*
X132185768Y-118943804D01*
X132185768Y-118943804D02*
X132215465Y-118961668D01*
X132215465Y-118961668D02*
X132238257Y-118981787D01*
X132238257Y-118981787D02*
X132255120Y-119007656D01*
X132255120Y-119007656D02*
X132267035Y-119042767D01*
X132267035Y-119042767D02*
X132274979Y-119090614D01*
X132274979Y-119090614D02*
X132279931Y-119154690D01*
X132279931Y-119154690D02*
X132282868Y-119238488D01*
X132282868Y-119238488D02*
X132283984Y-119294462D01*
X132283984Y-119294462D02*
X132288089Y-119536516D01*
X132288089Y-119536516D02*
X132217969Y-119536516D01*
X132217969Y-119536516D02*
X132175430Y-119534732D01*
X132175430Y-119534732D02*
X132153513Y-119528636D01*
X132153513Y-119528636D02*
X132147849Y-119518400D01*
X132147849Y-119518400D02*
X132144858Y-119507331D01*
X132144858Y-119507331D02*
X132131488Y-119509448D01*
X132131488Y-119509448D02*
X132113270Y-119518323D01*
X132113270Y-119518323D02*
X132067661Y-119531927D01*
X132067661Y-119531927D02*
X132009044Y-119535593D01*
X132009044Y-119535593D02*
X131947391Y-119529597D01*
X131947391Y-119529597D02*
X131892675Y-119514215D01*
X131892675Y-119514215D02*
X131887767Y-119512080D01*
X131887767Y-119512080D02*
X131837760Y-119476949D01*
X131837760Y-119476949D02*
X131804793Y-119428113D01*
X131804793Y-119428113D02*
X131789624Y-119371027D01*
X131789624Y-119371027D02*
X131790783Y-119350518D01*
X131790783Y-119350518D02*
X131914545Y-119350518D01*
X131914545Y-119350518D02*
X131925450Y-119378119D01*
X131925450Y-119378119D02*
X131957782Y-119397898D01*
X131957782Y-119397898D02*
X132009947Y-119408513D01*
X132009947Y-119408513D02*
X132037824Y-119409922D01*
X132037824Y-119409922D02*
X132084284Y-119406314D01*
X132084284Y-119406314D02*
X132115166Y-119392291D01*
X132115166Y-119392291D02*
X132122701Y-119385625D01*
X132122701Y-119385625D02*
X132143113Y-119349360D01*
X132143113Y-119349360D02*
X132147849Y-119316467D01*
X132147849Y-119316467D02*
X132147849Y-119272457D01*
X132147849Y-119272457D02*
X132086550Y-119272457D01*
X132086550Y-119272457D02*
X132015293Y-119276089D01*
X132015293Y-119276089D02*
X131965313Y-119287512D01*
X131965313Y-119287512D02*
X131933733Y-119307518D01*
X131933733Y-119307518D02*
X131926663Y-119316437D01*
X131926663Y-119316437D02*
X131914545Y-119350518D01*
X131914545Y-119350518D02*
X131790783Y-119350518D01*
X131790783Y-119350518D02*
X131793008Y-119311150D01*
X131793008Y-119311150D02*
X131815700Y-119253938D01*
X131815700Y-119253938D02*
X131846661Y-119215274D01*
X131846661Y-119215274D02*
X131865413Y-119198558D01*
X131865413Y-119198558D02*
X131883770Y-119187572D01*
X131883770Y-119187572D02*
X131907656Y-119180874D01*
X131907656Y-119180874D02*
X131942994Y-119177020D01*
X131942994Y-119177020D02*
X131995706Y-119174567D01*
X131995706Y-119174567D02*
X132016614Y-119173862D01*
X132016614Y-119173862D02*
X132147849Y-119169573D01*
X132147849Y-119169573D02*
X132147657Y-119129852D01*
X132147657Y-119129852D02*
X132142574Y-119088099D01*
X132142574Y-119088099D02*
X132124199Y-119062852D01*
X132124199Y-119062852D02*
X132087076Y-119046724D01*
X132087076Y-119046724D02*
X132086080Y-119046436D01*
X132086080Y-119046436D02*
X132033447Y-119040094D01*
X132033447Y-119040094D02*
X131981943Y-119048378D01*
X131981943Y-119048378D02*
X131943667Y-119068521D01*
X131943667Y-119068521D02*
X131928309Y-119078467D01*
X131928309Y-119078467D02*
X131911767Y-119077091D01*
X131911767Y-119077091D02*
X131886312Y-119062681D01*
X131886312Y-119062681D02*
X131871365Y-119052511D01*
X131871365Y-119052511D02*
X131842128Y-119030782D01*
X131842128Y-119030782D02*
X131824017Y-119014494D01*
X131824017Y-119014494D02*
X131821111Y-119009831D01*
X131821111Y-119009831D02*
X131833077Y-118985699D01*
X131833077Y-118985699D02*
X131868433Y-118956879D01*
X131868433Y-118956879D02*
X131883790Y-118947155D01*
X131883790Y-118947155D02*
X131927938Y-118930408D01*
X131927938Y-118930408D02*
X131987435Y-118920921D01*
X131987435Y-118920921D02*
X132053524Y-118918789D01*
X132053524Y-118918789D02*
X132117448Y-118924111D01*
X132117448Y-118924111D02*
X132117448Y-118924111D01*
G36*
X131815700Y-119253938D02*
G01*
X131846661Y-119215274D01*
X131865413Y-119198558D01*
X131883770Y-119187572D01*
X131907656Y-119180874D01*
X131942994Y-119177020D01*
X131995706Y-119174567D01*
X132016614Y-119173862D01*
X132147849Y-119169573D01*
X132147657Y-119129852D01*
X132142574Y-119088099D01*
X132124199Y-119062852D01*
X132087076Y-119046724D01*
X132086080Y-119046436D01*
X132033447Y-119040094D01*
X131981943Y-119048378D01*
X131943667Y-119068521D01*
X131928309Y-119078467D01*
X131911767Y-119077091D01*
X131886312Y-119062681D01*
X131871365Y-119052511D01*
X131842128Y-119030782D01*
X131824017Y-119014494D01*
X131821111Y-119009831D01*
X131833077Y-118985699D01*
X131868433Y-118956879D01*
X131883790Y-118947155D01*
X131927938Y-118930408D01*
X131987435Y-118920921D01*
X132053524Y-118918789D01*
X132117448Y-118924111D01*
X132170448Y-118936984D01*
X132185768Y-118943804D01*
X132215465Y-118961668D01*
X132238257Y-118981787D01*
X132255120Y-119007656D01*
X132267035Y-119042767D01*
X132274979Y-119090614D01*
X132279931Y-119154690D01*
X132282868Y-119238488D01*
X132283984Y-119294462D01*
X132288089Y-119536516D01*
X132217969Y-119536516D01*
X132175430Y-119534732D01*
X132153513Y-119528636D01*
X132147849Y-119518400D01*
X132144858Y-119507331D01*
X132131488Y-119509448D01*
X132113270Y-119518323D01*
X132067661Y-119531927D01*
X132009044Y-119535593D01*
X131947391Y-119529597D01*
X131892675Y-119514215D01*
X131887767Y-119512080D01*
X131837760Y-119476949D01*
X131804793Y-119428113D01*
X131789624Y-119371027D01*
X131790783Y-119350518D01*
X131914545Y-119350518D01*
X131925450Y-119378119D01*
X131957782Y-119397898D01*
X132009947Y-119408513D01*
X132037824Y-119409922D01*
X132084284Y-119406314D01*
X132115166Y-119392291D01*
X132122701Y-119385625D01*
X132143113Y-119349360D01*
X132147849Y-119316467D01*
X132147849Y-119272457D01*
X132086550Y-119272457D01*
X132015293Y-119276089D01*
X131965313Y-119287512D01*
X131933733Y-119307518D01*
X131926663Y-119316437D01*
X131914545Y-119350518D01*
X131790783Y-119350518D01*
X131793008Y-119311150D01*
X131815700Y-119253938D01*
G37*
X131815700Y-119253938D02*
X131846661Y-119215274D01*
X131865413Y-119198558D01*
X131883770Y-119187572D01*
X131907656Y-119180874D01*
X131942994Y-119177020D01*
X131995706Y-119174567D01*
X132016614Y-119173862D01*
X132147849Y-119169573D01*
X132147657Y-119129852D01*
X132142574Y-119088099D01*
X132124199Y-119062852D01*
X132087076Y-119046724D01*
X132086080Y-119046436D01*
X132033447Y-119040094D01*
X131981943Y-119048378D01*
X131943667Y-119068521D01*
X131928309Y-119078467D01*
X131911767Y-119077091D01*
X131886312Y-119062681D01*
X131871365Y-119052511D01*
X131842128Y-119030782D01*
X131824017Y-119014494D01*
X131821111Y-119009831D01*
X131833077Y-118985699D01*
X131868433Y-118956879D01*
X131883790Y-118947155D01*
X131927938Y-118930408D01*
X131987435Y-118920921D01*
X132053524Y-118918789D01*
X132117448Y-118924111D01*
X132170448Y-118936984D01*
X132185768Y-118943804D01*
X132215465Y-118961668D01*
X132238257Y-118981787D01*
X132255120Y-119007656D01*
X132267035Y-119042767D01*
X132274979Y-119090614D01*
X132279931Y-119154690D01*
X132282868Y-119238488D01*
X132283984Y-119294462D01*
X132288089Y-119536516D01*
X132217969Y-119536516D01*
X132175430Y-119534732D01*
X132153513Y-119528636D01*
X132147849Y-119518400D01*
X132144858Y-119507331D01*
X132131488Y-119509448D01*
X132113270Y-119518323D01*
X132067661Y-119531927D01*
X132009044Y-119535593D01*
X131947391Y-119529597D01*
X131892675Y-119514215D01*
X131887767Y-119512080D01*
X131837760Y-119476949D01*
X131804793Y-119428113D01*
X131789624Y-119371027D01*
X131790783Y-119350518D01*
X131914545Y-119350518D01*
X131925450Y-119378119D01*
X131957782Y-119397898D01*
X132009947Y-119408513D01*
X132037824Y-119409922D01*
X132084284Y-119406314D01*
X132115166Y-119392291D01*
X132122701Y-119385625D01*
X132143113Y-119349360D01*
X132147849Y-119316467D01*
X132147849Y-119272457D01*
X132086550Y-119272457D01*
X132015293Y-119276089D01*
X131965313Y-119287512D01*
X131933733Y-119307518D01*
X131926663Y-119316437D01*
X131914545Y-119350518D01*
X131790783Y-119350518D01*
X131793008Y-119311150D01*
X131815700Y-119253938D01*
X132878497Y-117976724D02*
X132921748Y-117989939D01*
X132921748Y-117989939D02*
X132949595Y-118006635D01*
X132949595Y-118006635D02*
X132958666Y-118019839D01*
X132958666Y-118019839D02*
X132956169Y-118035491D01*
X132956169Y-118035491D02*
X132939968Y-118060079D01*
X132939968Y-118060079D02*
X132926269Y-118077494D01*
X132926269Y-118077494D02*
X132898029Y-118108977D01*
X132898029Y-118108977D02*
X132876812Y-118122223D01*
X132876812Y-118122223D02*
X132858725Y-118121358D01*
X132858725Y-118121358D02*
X132805072Y-118107704D01*
X132805072Y-118107704D02*
X132765667Y-118108324D01*
X132765667Y-118108324D02*
X132733669Y-118123798D01*
X132733669Y-118123798D02*
X132722927Y-118132855D01*
X132722927Y-118132855D02*
X132688542Y-118164721D01*
X132688542Y-118164721D02*
X132688542Y-118580873D01*
X132688542Y-118580873D02*
X132550225Y-118580873D01*
X132550225Y-118580873D02*
X132550225Y-117977308D01*
X132550225Y-117977308D02*
X132619384Y-117977308D01*
X132619384Y-117977308D02*
X132660906Y-117978950D01*
X132660906Y-117978950D02*
X132682328Y-117984781D01*
X132682328Y-117984781D02*
X132688539Y-117996155D01*
X132688539Y-117996155D02*
X132688542Y-117996492D01*
X132688542Y-117996492D02*
X132691476Y-118008407D01*
X132691476Y-118008407D02*
X132704741Y-118006853D01*
X132704741Y-118006853D02*
X132723121Y-117998257D01*
X132723121Y-117998257D02*
X132761083Y-117982262D01*
X132761083Y-117982262D02*
X132791909Y-117972639D01*
X132791909Y-117972639D02*
X132831573Y-117970172D01*
X132831573Y-117970172D02*
X132878497Y-117976724D01*
X132878497Y-117976724D02*
X132878497Y-117976724D01*
G36*
X132878497Y-117976724D02*
G01*
X132921748Y-117989939D01*
X132949595Y-118006635D01*
X132958666Y-118019839D01*
X132956169Y-118035491D01*
X132939968Y-118060079D01*
X132926269Y-118077494D01*
X132898029Y-118108977D01*
X132876812Y-118122223D01*
X132858725Y-118121358D01*
X132805072Y-118107704D01*
X132765667Y-118108324D01*
X132733669Y-118123798D01*
X132722927Y-118132855D01*
X132688542Y-118164721D01*
X132688542Y-118580873D01*
X132550225Y-118580873D01*
X132550225Y-117977308D01*
X132619384Y-117977308D01*
X132660906Y-117978950D01*
X132682328Y-117984781D01*
X132688539Y-117996155D01*
X132688542Y-117996492D01*
X132691476Y-118008407D01*
X132704741Y-118006853D01*
X132723121Y-117998257D01*
X132761083Y-117982262D01*
X132791909Y-117972639D01*
X132831573Y-117970172D01*
X132878497Y-117976724D01*
G37*
X132878497Y-117976724D02*
X132921748Y-117989939D01*
X132949595Y-118006635D01*
X132958666Y-118019839D01*
X132956169Y-118035491D01*
X132939968Y-118060079D01*
X132926269Y-118077494D01*
X132898029Y-118108977D01*
X132876812Y-118122223D01*
X132858725Y-118121358D01*
X132805072Y-118107704D01*
X132765667Y-118108324D01*
X132733669Y-118123798D01*
X132722927Y-118132855D01*
X132688542Y-118164721D01*
X132688542Y-118580873D01*
X132550225Y-118580873D01*
X132550225Y-117977308D01*
X132619384Y-117977308D01*
X132660906Y-117978950D01*
X132682328Y-117984781D01*
X132688539Y-117996155D01*
X132688542Y-117996492D01*
X132691476Y-118008407D01*
X132704741Y-118006853D01*
X132723121Y-117998257D01*
X132761083Y-117982262D01*
X132791909Y-117972639D01*
X132831573Y-117970172D01*
X132878497Y-117976724D01*
X133296263Y-117982574D02*
X133369117Y-118013524D01*
X133369117Y-118013524D02*
X133392064Y-118028589D01*
X133392064Y-118028589D02*
X133421391Y-118051742D01*
X133421391Y-118051742D02*
X133439801Y-118069947D01*
X133439801Y-118069947D02*
X133442998Y-118075877D01*
X133442998Y-118075877D02*
X133433972Y-118089034D01*
X133433972Y-118089034D02*
X133410874Y-118111361D01*
X133410874Y-118111361D02*
X133392381Y-118126944D01*
X133392381Y-118126944D02*
X133341765Y-118167620D01*
X133341765Y-118167620D02*
X133301797Y-118133989D01*
X133301797Y-118133989D02*
X133270911Y-118112278D01*
X133270911Y-118112278D02*
X133240796Y-118104784D01*
X133240796Y-118104784D02*
X133206329Y-118106614D01*
X133206329Y-118106614D02*
X133151598Y-118120222D01*
X133151598Y-118120222D02*
X133113923Y-118148466D01*
X133113923Y-118148466D02*
X133091028Y-118194127D01*
X133091028Y-118194127D02*
X133080634Y-118259983D01*
X133080634Y-118259983D02*
X133080632Y-118260025D01*
X133080632Y-118260025D02*
X133081531Y-118333633D01*
X133081531Y-118333633D02*
X133095500Y-118387640D01*
X133095500Y-118387640D02*
X133123365Y-118424410D01*
X133123365Y-118424410D02*
X133142362Y-118436862D01*
X133142362Y-118436862D02*
X133192813Y-118452367D01*
X133192813Y-118452367D02*
X133246700Y-118452377D01*
X133246700Y-118452377D02*
X133293583Y-118437332D01*
X133293583Y-118437332D02*
X133304681Y-118429981D01*
X133304681Y-118429981D02*
X133332513Y-118411205D01*
X133332513Y-118411205D02*
X133354273Y-118408128D01*
X133354273Y-118408128D02*
X133377741Y-118422103D01*
X133377741Y-118422103D02*
X133403686Y-118447204D01*
X133403686Y-118447204D02*
X133444753Y-118489574D01*
X133444753Y-118489574D02*
X133399158Y-118527158D01*
X133399158Y-118527158D02*
X133328711Y-118569576D01*
X133328711Y-118569576D02*
X133249270Y-118590479D01*
X133249270Y-118590479D02*
X133166252Y-118588966D01*
X133166252Y-118588966D02*
X133111731Y-118575105D01*
X133111731Y-118575105D02*
X133048007Y-118540829D01*
X133048007Y-118540829D02*
X132997042Y-118486906D01*
X132997042Y-118486906D02*
X132973888Y-118448843D01*
X132973888Y-118448843D02*
X132955136Y-118394230D01*
X132955136Y-118394230D02*
X132945752Y-118325063D01*
X132945752Y-118325063D02*
X132945680Y-118250101D01*
X132945680Y-118250101D02*
X132954861Y-118178103D01*
X132954861Y-118178103D02*
X132973236Y-118117831D01*
X132973236Y-118117831D02*
X132976130Y-118111652D01*
X132976130Y-118111652D02*
X133018989Y-118051045D01*
X133018989Y-118051045D02*
X133077016Y-118006918D01*
X133077016Y-118006918D02*
X133145628Y-117980187D01*
X133145628Y-117980187D02*
X133220238Y-117971767D01*
X133220238Y-117971767D02*
X133296263Y-117982574D01*
X133296263Y-117982574D02*
X133296263Y-117982574D01*
G36*
X133296263Y-117982574D02*
G01*
X133369117Y-118013524D01*
X133392064Y-118028589D01*
X133421391Y-118051742D01*
X133439801Y-118069947D01*
X133442998Y-118075877D01*
X133433972Y-118089034D01*
X133410874Y-118111361D01*
X133392381Y-118126944D01*
X133341765Y-118167620D01*
X133301797Y-118133989D01*
X133270911Y-118112278D01*
X133240796Y-118104784D01*
X133206329Y-118106614D01*
X133151598Y-118120222D01*
X133113923Y-118148466D01*
X133091028Y-118194127D01*
X133080634Y-118259983D01*
X133080632Y-118260025D01*
X133081531Y-118333633D01*
X133095500Y-118387640D01*
X133123365Y-118424410D01*
X133142362Y-118436862D01*
X133192813Y-118452367D01*
X133246700Y-118452377D01*
X133293583Y-118437332D01*
X133304681Y-118429981D01*
X133332513Y-118411205D01*
X133354273Y-118408128D01*
X133377741Y-118422103D01*
X133403686Y-118447204D01*
X133444753Y-118489574D01*
X133399158Y-118527158D01*
X133328711Y-118569576D01*
X133249270Y-118590479D01*
X133166252Y-118588966D01*
X133111731Y-118575105D01*
X133048007Y-118540829D01*
X132997042Y-118486906D01*
X132973888Y-118448843D01*
X132955136Y-118394230D01*
X132945752Y-118325063D01*
X132945680Y-118250101D01*
X132954861Y-118178103D01*
X132973236Y-118117831D01*
X132976130Y-118111652D01*
X133018989Y-118051045D01*
X133077016Y-118006918D01*
X133145628Y-117980187D01*
X133220238Y-117971767D01*
X133296263Y-117982574D01*
G37*
X133296263Y-117982574D02*
X133369117Y-118013524D01*
X133392064Y-118028589D01*
X133421391Y-118051742D01*
X133439801Y-118069947D01*
X133442998Y-118075877D01*
X133433972Y-118089034D01*
X133410874Y-118111361D01*
X133392381Y-118126944D01*
X133341765Y-118167620D01*
X133301797Y-118133989D01*
X133270911Y-118112278D01*
X133240796Y-118104784D01*
X133206329Y-118106614D01*
X133151598Y-118120222D01*
X133113923Y-118148466D01*
X133091028Y-118194127D01*
X133080634Y-118259983D01*
X133080632Y-118260025D01*
X133081531Y-118333633D01*
X133095500Y-118387640D01*
X133123365Y-118424410D01*
X133142362Y-118436862D01*
X133192813Y-118452367D01*
X133246700Y-118452377D01*
X133293583Y-118437332D01*
X133304681Y-118429981D01*
X133332513Y-118411205D01*
X133354273Y-118408128D01*
X133377741Y-118422103D01*
X133403686Y-118447204D01*
X133444753Y-118489574D01*
X133399158Y-118527158D01*
X133328711Y-118569576D01*
X133249270Y-118590479D01*
X133166252Y-118588966D01*
X133111731Y-118575105D01*
X133048007Y-118540829D01*
X132997042Y-118486906D01*
X132973888Y-118448843D01*
X132955136Y-118394230D01*
X132945752Y-118325063D01*
X132945680Y-118250101D01*
X132954861Y-118178103D01*
X132973236Y-118117831D01*
X132976130Y-118111652D01*
X133018989Y-118051045D01*
X133077016Y-118006918D01*
X133145628Y-117980187D01*
X133220238Y-117971767D01*
X133296263Y-117982574D01*
X131689799Y-117984749D02*
X131753400Y-118019386D01*
X131753400Y-118019386D02*
X131803160Y-118074066D01*
X131803160Y-118074066D02*
X131826605Y-118118536D01*
X131826605Y-118118536D02*
X131836671Y-118157815D01*
X131836671Y-118157815D02*
X131843193Y-118213810D01*
X131843193Y-118213810D02*
X131845988Y-118278315D01*
X131845988Y-118278315D02*
X131844873Y-118343123D01*
X131844873Y-118343123D02*
X131839663Y-118400028D01*
X131839663Y-118400028D02*
X131833578Y-118430421D01*
X131833578Y-118430421D02*
X131813051Y-118472000D01*
X131813051Y-118472000D02*
X131777500Y-118516162D01*
X131777500Y-118516162D02*
X131734656Y-118554781D01*
X131734656Y-118554781D02*
X131692248Y-118579728D01*
X131692248Y-118579728D02*
X131691214Y-118580124D01*
X131691214Y-118580124D02*
X131638590Y-118591025D01*
X131638590Y-118591025D02*
X131576225Y-118591295D01*
X131576225Y-118591295D02*
X131516961Y-118581370D01*
X131516961Y-118581370D02*
X131494077Y-118573416D01*
X131494077Y-118573416D02*
X131435139Y-118539994D01*
X131435139Y-118539994D02*
X131392927Y-118496205D01*
X131392927Y-118496205D02*
X131365193Y-118438232D01*
X131365193Y-118438232D02*
X131349688Y-118362259D01*
X131349688Y-118362259D02*
X131346180Y-118322465D01*
X131346180Y-118322465D02*
X131346627Y-118272460D01*
X131346627Y-118272460D02*
X131481413Y-118272460D01*
X131481413Y-118272460D02*
X131485954Y-118345426D01*
X131485954Y-118345426D02*
X131499023Y-118401028D01*
X131499023Y-118401028D02*
X131519793Y-118436555D01*
X131519793Y-118436555D02*
X131534589Y-118446714D01*
X131534589Y-118446714D02*
X131572501Y-118453798D01*
X131572501Y-118453798D02*
X131617564Y-118451701D01*
X131617564Y-118451701D02*
X131656524Y-118441506D01*
X131656524Y-118441506D02*
X131666741Y-118435898D01*
X131666741Y-118435898D02*
X131693696Y-118403232D01*
X131693696Y-118403232D02*
X131711488Y-118353239D01*
X131711488Y-118353239D02*
X131719061Y-118292399D01*
X131719061Y-118292399D02*
X131715362Y-118227191D01*
X131715362Y-118227191D02*
X131707094Y-118187947D01*
X131707094Y-118187947D02*
X131683357Y-118142499D01*
X131683357Y-118142499D02*
X131645886Y-118114090D01*
X131645886Y-118114090D02*
X131600757Y-118104267D01*
X131600757Y-118104267D02*
X131554048Y-118114581D01*
X131554048Y-118114581D02*
X131518169Y-118139806D01*
X131518169Y-118139806D02*
X131499314Y-118160619D01*
X131499314Y-118160619D02*
X131488309Y-118181133D01*
X131488309Y-118181133D02*
X131483063Y-118208897D01*
X131483063Y-118208897D02*
X131481486Y-118251456D01*
X131481486Y-118251456D02*
X131481413Y-118272460D01*
X131481413Y-118272460D02*
X131346627Y-118272460D01*
X131346627Y-118272460D02*
X131347131Y-118216274D01*
X131347131Y-118216274D02*
X131364425Y-118129195D01*
X131364425Y-118129195D02*
X131398066Y-118061224D01*
X131398066Y-118061224D02*
X131448055Y-118012358D01*
X131448055Y-118012358D02*
X131514393Y-117982593D01*
X131514393Y-117982593D02*
X131528638Y-117979142D01*
X131528638Y-117979142D02*
X131614247Y-117971039D01*
X131614247Y-117971039D02*
X131689799Y-117984749D01*
X131689799Y-117984749D02*
X131689799Y-117984749D01*
G36*
X131364425Y-118129195D02*
G01*
X131398066Y-118061224D01*
X131448055Y-118012358D01*
X131514393Y-117982593D01*
X131528638Y-117979142D01*
X131614247Y-117971039D01*
X131689799Y-117984749D01*
X131753400Y-118019386D01*
X131803160Y-118074066D01*
X131826605Y-118118536D01*
X131836671Y-118157815D01*
X131843193Y-118213810D01*
X131845988Y-118278315D01*
X131844873Y-118343123D01*
X131839663Y-118400028D01*
X131833578Y-118430421D01*
X131813051Y-118472000D01*
X131777500Y-118516162D01*
X131734656Y-118554781D01*
X131692248Y-118579728D01*
X131691214Y-118580124D01*
X131638590Y-118591025D01*
X131576225Y-118591295D01*
X131516961Y-118581370D01*
X131494077Y-118573416D01*
X131435139Y-118539994D01*
X131392927Y-118496205D01*
X131365193Y-118438232D01*
X131349688Y-118362259D01*
X131346180Y-118322465D01*
X131346627Y-118272460D01*
X131481413Y-118272460D01*
X131485954Y-118345426D01*
X131499023Y-118401028D01*
X131519793Y-118436555D01*
X131534589Y-118446714D01*
X131572501Y-118453798D01*
X131617564Y-118451701D01*
X131656524Y-118441506D01*
X131666741Y-118435898D01*
X131693696Y-118403232D01*
X131711488Y-118353239D01*
X131719061Y-118292399D01*
X131715362Y-118227191D01*
X131707094Y-118187947D01*
X131683357Y-118142499D01*
X131645886Y-118114090D01*
X131600757Y-118104267D01*
X131554048Y-118114581D01*
X131518169Y-118139806D01*
X131499314Y-118160619D01*
X131488309Y-118181133D01*
X131483063Y-118208897D01*
X131481486Y-118251456D01*
X131481413Y-118272460D01*
X131346627Y-118272460D01*
X131347131Y-118216274D01*
X131364425Y-118129195D01*
G37*
X131364425Y-118129195D02*
X131398066Y-118061224D01*
X131448055Y-118012358D01*
X131514393Y-117982593D01*
X131528638Y-117979142D01*
X131614247Y-117971039D01*
X131689799Y-117984749D01*
X131753400Y-118019386D01*
X131803160Y-118074066D01*
X131826605Y-118118536D01*
X131836671Y-118157815D01*
X131843193Y-118213810D01*
X131845988Y-118278315D01*
X131844873Y-118343123D01*
X131839663Y-118400028D01*
X131833578Y-118430421D01*
X131813051Y-118472000D01*
X131777500Y-118516162D01*
X131734656Y-118554781D01*
X131692248Y-118579728D01*
X131691214Y-118580124D01*
X131638590Y-118591025D01*
X131576225Y-118591295D01*
X131516961Y-118581370D01*
X131494077Y-118573416D01*
X131435139Y-118539994D01*
X131392927Y-118496205D01*
X131365193Y-118438232D01*
X131349688Y-118362259D01*
X131346180Y-118322465D01*
X131346627Y-118272460D01*
X131481413Y-118272460D01*
X131485954Y-118345426D01*
X131499023Y-118401028D01*
X131519793Y-118436555D01*
X131534589Y-118446714D01*
X131572501Y-118453798D01*
X131617564Y-118451701D01*
X131656524Y-118441506D01*
X131666741Y-118435898D01*
X131693696Y-118403232D01*
X131711488Y-118353239D01*
X131719061Y-118292399D01*
X131715362Y-118227191D01*
X131707094Y-118187947D01*
X131683357Y-118142499D01*
X131645886Y-118114090D01*
X131600757Y-118104267D01*
X131554048Y-118114581D01*
X131518169Y-118139806D01*
X131499314Y-118160619D01*
X131488309Y-118181133D01*
X131483063Y-118208897D01*
X131481486Y-118251456D01*
X131481413Y-118272460D01*
X131346627Y-118272460D01*
X131347131Y-118216274D01*
X131364425Y-118129195D01*
X129722338Y-117991308D02*
X129734869Y-117997208D01*
X129734869Y-117997208D02*
X129778238Y-118028977D01*
X129778238Y-118028977D02*
X129819247Y-118075340D01*
X129819247Y-118075340D02*
X129849869Y-118126390D01*
X129849869Y-118126390D02*
X129858578Y-118149860D01*
X129858578Y-118149860D02*
X129866525Y-118191785D01*
X129866525Y-118191785D02*
X129871263Y-118242451D01*
X129871263Y-118242451D02*
X129871838Y-118263373D01*
X129871838Y-118263373D02*
X129871908Y-118329387D01*
X129871908Y-118329387D02*
X129491954Y-118329387D01*
X129491954Y-118329387D02*
X129500054Y-118363967D01*
X129500054Y-118363967D02*
X129519933Y-118404864D01*
X129519933Y-118404864D02*
X129554690Y-118440208D01*
X129554690Y-118440208D02*
X129596039Y-118462976D01*
X129596039Y-118462976D02*
X129622388Y-118467704D01*
X129622388Y-118467704D02*
X129658121Y-118461967D01*
X129658121Y-118461967D02*
X129700755Y-118447576D01*
X129700755Y-118447576D02*
X129715238Y-118440956D01*
X129715238Y-118440956D02*
X129768797Y-118414207D01*
X129768797Y-118414207D02*
X129814504Y-118449070D01*
X129814504Y-118449070D02*
X129840879Y-118472649D01*
X129840879Y-118472649D02*
X129854913Y-118492111D01*
X129854913Y-118492111D02*
X129855623Y-118497823D01*
X129855623Y-118497823D02*
X129843086Y-118511667D01*
X129843086Y-118511667D02*
X129815609Y-118532706D01*
X129815609Y-118532706D02*
X129790671Y-118549119D01*
X129790671Y-118549119D02*
X129723373Y-118578624D01*
X129723373Y-118578624D02*
X129647927Y-118591978D01*
X129647927Y-118591978D02*
X129573149Y-118588506D01*
X129573149Y-118588506D02*
X129513542Y-118570357D01*
X129513542Y-118570357D02*
X129452096Y-118531478D01*
X129452096Y-118531478D02*
X129408429Y-118480289D01*
X129408429Y-118480289D02*
X129381111Y-118414061D01*
X129381111Y-118414061D02*
X129368715Y-118330065D01*
X129368715Y-118330065D02*
X129367616Y-118291630D01*
X129367616Y-118291630D02*
X129372015Y-118203555D01*
X129372015Y-118203555D02*
X129372555Y-118200993D01*
X129372555Y-118200993D02*
X129498455Y-118200993D01*
X129498455Y-118200993D02*
X129501922Y-118209252D01*
X129501922Y-118209252D02*
X129516174Y-118213807D01*
X129516174Y-118213807D02*
X129545567Y-118215759D01*
X129545567Y-118215759D02*
X129594462Y-118216211D01*
X129594462Y-118216211D02*
X129613289Y-118216219D01*
X129613289Y-118216219D02*
X129670570Y-118215537D01*
X129670570Y-118215537D02*
X129706896Y-118213058D01*
X129706896Y-118213058D02*
X129726433Y-118208137D01*
X129726433Y-118208137D02*
X129733347Y-118200128D01*
X129733347Y-118200128D02*
X129733592Y-118197556D01*
X129733592Y-118197556D02*
X129725701Y-118177117D01*
X129725701Y-118177117D02*
X129705952Y-118148483D01*
X129705952Y-118148483D02*
X129697462Y-118138457D01*
X129697462Y-118138457D02*
X129665943Y-118110102D01*
X129665943Y-118110102D02*
X129633088Y-118098953D01*
X129633088Y-118098953D02*
X129615386Y-118098021D01*
X129615386Y-118098021D02*
X129567498Y-118109675D01*
X129567498Y-118109675D02*
X129527338Y-118140979D01*
X129527338Y-118140979D02*
X129501864Y-118186446D01*
X129501864Y-118186446D02*
X129501412Y-118187927D01*
X129501412Y-118187927D02*
X129498455Y-118200993D01*
X129498455Y-118200993D02*
X129372555Y-118200993D01*
X129372555Y-118200993D02*
X129386645Y-118134204D01*
X129386645Y-118134204D02*
X129412999Y-118078719D01*
X129412999Y-118078719D02*
X129445230Y-118039333D01*
X129445230Y-118039333D02*
X129504820Y-117996625D01*
X129504820Y-117996625D02*
X129574869Y-117973803D01*
X129574869Y-117973803D02*
X129649376Y-117971740D01*
X129649376Y-117971740D02*
X129722338Y-117991308D01*
X129722338Y-117991308D02*
X129722338Y-117991308D01*
G36*
X129412999Y-118078719D02*
G01*
X129445230Y-118039333D01*
X129504820Y-117996625D01*
X129574869Y-117973803D01*
X129649376Y-117971740D01*
X129722338Y-117991308D01*
X129734869Y-117997208D01*
X129778238Y-118028977D01*
X129819247Y-118075340D01*
X129849869Y-118126390D01*
X129858578Y-118149860D01*
X129866525Y-118191785D01*
X129871263Y-118242451D01*
X129871838Y-118263373D01*
X129871908Y-118329387D01*
X129491954Y-118329387D01*
X129500054Y-118363967D01*
X129519933Y-118404864D01*
X129554690Y-118440208D01*
X129596039Y-118462976D01*
X129622388Y-118467704D01*
X129658121Y-118461967D01*
X129700755Y-118447576D01*
X129715238Y-118440956D01*
X129768797Y-118414207D01*
X129814504Y-118449070D01*
X129840879Y-118472649D01*
X129854913Y-118492111D01*
X129855623Y-118497823D01*
X129843086Y-118511667D01*
X129815609Y-118532706D01*
X129790671Y-118549119D01*
X129723373Y-118578624D01*
X129647927Y-118591978D01*
X129573149Y-118588506D01*
X129513542Y-118570357D01*
X129452096Y-118531478D01*
X129408429Y-118480289D01*
X129381111Y-118414061D01*
X129368715Y-118330065D01*
X129367616Y-118291630D01*
X129372015Y-118203555D01*
X129372555Y-118200993D01*
X129498455Y-118200993D01*
X129501922Y-118209252D01*
X129516174Y-118213807D01*
X129545567Y-118215759D01*
X129594462Y-118216211D01*
X129613289Y-118216219D01*
X129670570Y-118215537D01*
X129706896Y-118213058D01*
X129726433Y-118208137D01*
X129733347Y-118200128D01*
X129733592Y-118197556D01*
X129725701Y-118177117D01*
X129705952Y-118148483D01*
X129697462Y-118138457D01*
X129665943Y-118110102D01*
X129633088Y-118098953D01*
X129615386Y-118098021D01*
X129567498Y-118109675D01*
X129527338Y-118140979D01*
X129501864Y-118186446D01*
X129501412Y-118187927D01*
X129498455Y-118200993D01*
X129372555Y-118200993D01*
X129386645Y-118134204D01*
X129412999Y-118078719D01*
G37*
X129412999Y-118078719D02*
X129445230Y-118039333D01*
X129504820Y-117996625D01*
X129574869Y-117973803D01*
X129649376Y-117971740D01*
X129722338Y-117991308D01*
X129734869Y-117997208D01*
X129778238Y-118028977D01*
X129819247Y-118075340D01*
X129849869Y-118126390D01*
X129858578Y-118149860D01*
X129866525Y-118191785D01*
X129871263Y-118242451D01*
X129871838Y-118263373D01*
X129871908Y-118329387D01*
X129491954Y-118329387D01*
X129500054Y-118363967D01*
X129519933Y-118404864D01*
X129554690Y-118440208D01*
X129596039Y-118462976D01*
X129622388Y-118467704D01*
X129658121Y-118461967D01*
X129700755Y-118447576D01*
X129715238Y-118440956D01*
X129768797Y-118414207D01*
X129814504Y-118449070D01*
X129840879Y-118472649D01*
X129854913Y-118492111D01*
X129855623Y-118497823D01*
X129843086Y-118511667D01*
X129815609Y-118532706D01*
X129790671Y-118549119D01*
X129723373Y-118578624D01*
X129647927Y-118591978D01*
X129573149Y-118588506D01*
X129513542Y-118570357D01*
X129452096Y-118531478D01*
X129408429Y-118480289D01*
X129381111Y-118414061D01*
X129368715Y-118330065D01*
X129367616Y-118291630D01*
X129372015Y-118203555D01*
X129372555Y-118200993D01*
X129498455Y-118200993D01*
X129501922Y-118209252D01*
X129516174Y-118213807D01*
X129545567Y-118215759D01*
X129594462Y-118216211D01*
X129613289Y-118216219D01*
X129670570Y-118215537D01*
X129706896Y-118213058D01*
X129726433Y-118208137D01*
X129733347Y-118200128D01*
X129733592Y-118197556D01*
X129725701Y-118177117D01*
X129705952Y-118148483D01*
X129697462Y-118138457D01*
X129665943Y-118110102D01*
X129633088Y-118098953D01*
X129615386Y-118098021D01*
X129567498Y-118109675D01*
X129527338Y-118140979D01*
X129501864Y-118186446D01*
X129501412Y-118187927D01*
X129498455Y-118200993D01*
X129372555Y-118200993D01*
X129386645Y-118134204D01*
X129412999Y-118078719D01*
X130877849Y-119536516D02*
X130808691Y-119536516D01*
X130808691Y-119536516D02*
X130768549Y-119535339D01*
X130768549Y-119535339D02*
X130747643Y-119530466D01*
X130747643Y-119530466D02*
X130740115Y-119519880D01*
X130740115Y-119519880D02*
X130739532Y-119512723D01*
X130739532Y-119512723D02*
X130738263Y-119498370D01*
X130738263Y-119498370D02*
X130730258Y-119495617D01*
X130730258Y-119495617D02*
X130709222Y-119504465D01*
X130709222Y-119504465D02*
X130692864Y-119512723D01*
X130692864Y-119512723D02*
X130630060Y-119532291D01*
X130630060Y-119532291D02*
X130561789Y-119533423D01*
X130561789Y-119533423D02*
X130506285Y-119518829D01*
X130506285Y-119518829D02*
X130454599Y-119483571D01*
X130454599Y-119483571D02*
X130415199Y-119431529D01*
X130415199Y-119431529D02*
X130393624Y-119370144D01*
X130393624Y-119370144D02*
X130393075Y-119366712D01*
X130393075Y-119366712D02*
X130389870Y-119329265D01*
X130389870Y-119329265D02*
X130388276Y-119275507D01*
X130388276Y-119275507D02*
X130388404Y-119234849D01*
X130388404Y-119234849D02*
X130525758Y-119234849D01*
X130525758Y-119234849D02*
X130528940Y-119288888D01*
X130528940Y-119288888D02*
X130536178Y-119333429D01*
X130536178Y-119333429D02*
X130545977Y-119358582D01*
X130545977Y-119358582D02*
X130583048Y-119392954D01*
X130583048Y-119392954D02*
X130627063Y-119405276D01*
X130627063Y-119405276D02*
X130672453Y-119395312D01*
X130672453Y-119395312D02*
X130711240Y-119365589D01*
X130711240Y-119365589D02*
X130725929Y-119345599D01*
X130725929Y-119345599D02*
X130734518Y-119321744D01*
X130734518Y-119321744D02*
X130738541Y-119286924D01*
X130738541Y-119286924D02*
X130739532Y-119234624D01*
X130739532Y-119234624D02*
X130737759Y-119182833D01*
X130737759Y-119182833D02*
X130733074Y-119137328D01*
X130733074Y-119137328D02*
X130726434Y-119106875D01*
X130726434Y-119106875D02*
X130725327Y-119104146D01*
X130725327Y-119104146D02*
X130698546Y-119071694D01*
X130698546Y-119071694D02*
X130659458Y-119053877D01*
X130659458Y-119053877D02*
X130615722Y-119051000D01*
X130615722Y-119051000D02*
X130574999Y-119063368D01*
X130574999Y-119063368D02*
X130544950Y-119091287D01*
X130544950Y-119091287D02*
X130541833Y-119096842D01*
X130541833Y-119096842D02*
X130532076Y-119130716D01*
X130532076Y-119130716D02*
X130526760Y-119179422D01*
X130526760Y-119179422D02*
X130525758Y-119234849D01*
X130525758Y-119234849D02*
X130388404Y-119234849D01*
X130388404Y-119234849D02*
X130388469Y-119214234D01*
X130388469Y-119214234D02*
X130389373Y-119181257D01*
X130389373Y-119181257D02*
X130395523Y-119099675D01*
X130395523Y-119099675D02*
X130408304Y-119038424D01*
X130408304Y-119038424D02*
X130429566Y-118993143D01*
X130429566Y-118993143D02*
X130461159Y-118959473D01*
X130461159Y-118959473D02*
X130491830Y-118939708D01*
X130491830Y-118939708D02*
X130534683Y-118925814D01*
X130534683Y-118925814D02*
X130587981Y-118921048D01*
X130587981Y-118921048D02*
X130642557Y-118924930D01*
X130642557Y-118924930D02*
X130689245Y-118936976D01*
X130689245Y-118936976D02*
X130713913Y-118951387D01*
X130713913Y-118951387D02*
X130739532Y-118974572D01*
X130739532Y-118974572D02*
X130739532Y-118681467D01*
X130739532Y-118681467D02*
X130877849Y-118681467D01*
X130877849Y-118681467D02*
X130877849Y-119536516D01*
X130877849Y-119536516D02*
X130877849Y-119536516D01*
G36*
X130389373Y-119181257D02*
G01*
X130395523Y-119099675D01*
X130408304Y-119038424D01*
X130429566Y-118993143D01*
X130461159Y-118959473D01*
X130491830Y-118939708D01*
X130534683Y-118925814D01*
X130587981Y-118921048D01*
X130642557Y-118924930D01*
X130689245Y-118936976D01*
X130713913Y-118951387D01*
X130739532Y-118974572D01*
X130739532Y-118681467D01*
X130877849Y-118681467D01*
X130877849Y-119536516D01*
X130808691Y-119536516D01*
X130768549Y-119535339D01*
X130747643Y-119530466D01*
X130740115Y-119519880D01*
X130739532Y-119512723D01*
X130738263Y-119498370D01*
X130730258Y-119495617D01*
X130709222Y-119504465D01*
X130692864Y-119512723D01*
X130630060Y-119532291D01*
X130561789Y-119533423D01*
X130506285Y-119518829D01*
X130454599Y-119483571D01*
X130415199Y-119431529D01*
X130393624Y-119370144D01*
X130393075Y-119366712D01*
X130389870Y-119329265D01*
X130388276Y-119275507D01*
X130388404Y-119234849D01*
X130525758Y-119234849D01*
X130528940Y-119288888D01*
X130536178Y-119333429D01*
X130545977Y-119358582D01*
X130583048Y-119392954D01*
X130627063Y-119405276D01*
X130672453Y-119395312D01*
X130711240Y-119365589D01*
X130725929Y-119345599D01*
X130734518Y-119321744D01*
X130738541Y-119286924D01*
X130739532Y-119234624D01*
X130737759Y-119182833D01*
X130733074Y-119137328D01*
X130726434Y-119106875D01*
X130725327Y-119104146D01*
X130698546Y-119071694D01*
X130659458Y-119053877D01*
X130615722Y-119051000D01*
X130574999Y-119063368D01*
X130544950Y-119091287D01*
X130541833Y-119096842D01*
X130532076Y-119130716D01*
X130526760Y-119179422D01*
X130525758Y-119234849D01*
X130388404Y-119234849D01*
X130388469Y-119214234D01*
X130389373Y-119181257D01*
G37*
X130389373Y-119181257D02*
X130395523Y-119099675D01*
X130408304Y-119038424D01*
X130429566Y-118993143D01*
X130461159Y-118959473D01*
X130491830Y-118939708D01*
X130534683Y-118925814D01*
X130587981Y-118921048D01*
X130642557Y-118924930D01*
X130689245Y-118936976D01*
X130713913Y-118951387D01*
X130739532Y-118974572D01*
X130739532Y-118681467D01*
X130877849Y-118681467D01*
X130877849Y-119536516D01*
X130808691Y-119536516D01*
X130768549Y-119535339D01*
X130747643Y-119530466D01*
X130740115Y-119519880D01*
X130739532Y-119512723D01*
X130738263Y-119498370D01*
X130730258Y-119495617D01*
X130709222Y-119504465D01*
X130692864Y-119512723D01*
X130630060Y-119532291D01*
X130561789Y-119533423D01*
X130506285Y-119518829D01*
X130454599Y-119483571D01*
X130415199Y-119431529D01*
X130393624Y-119370144D01*
X130393075Y-119366712D01*
X130389870Y-119329265D01*
X130388276Y-119275507D01*
X130388404Y-119234849D01*
X130525758Y-119234849D01*
X130528940Y-119288888D01*
X130536178Y-119333429D01*
X130545977Y-119358582D01*
X130583048Y-119392954D01*
X130627063Y-119405276D01*
X130672453Y-119395312D01*
X130711240Y-119365589D01*
X130725929Y-119345599D01*
X130734518Y-119321744D01*
X130738541Y-119286924D01*
X130739532Y-119234624D01*
X130737759Y-119182833D01*
X130733074Y-119137328D01*
X130726434Y-119106875D01*
X130725327Y-119104146D01*
X130698546Y-119071694D01*
X130659458Y-119053877D01*
X130615722Y-119051000D01*
X130574999Y-119063368D01*
X130544950Y-119091287D01*
X130541833Y-119096842D01*
X130532076Y-119130716D01*
X130526760Y-119179422D01*
X130525758Y-119234849D01*
X130388404Y-119234849D01*
X130388469Y-119214234D01*
X130389373Y-119181257D01*
X132072404Y-118173036D02*
X132073592Y-118265257D01*
X132073592Y-118265257D02*
X132077934Y-118335304D01*
X132077934Y-118335304D02*
X132086595Y-118386075D01*
X132086595Y-118386075D02*
X132100741Y-118420466D01*
X132100741Y-118420466D02*
X132121537Y-118441373D01*
X132121537Y-118441373D02*
X132150147Y-118451694D01*
X132150147Y-118451694D02*
X132185572Y-118454330D01*
X132185572Y-118454330D02*
X132222673Y-118451376D01*
X132222673Y-118451376D02*
X132250855Y-118440583D01*
X132250855Y-118440583D02*
X132271280Y-118419054D01*
X132271280Y-118419054D02*
X132285116Y-118383893D01*
X132285116Y-118383893D02*
X132293528Y-118332204D01*
X132293528Y-118332204D02*
X132297680Y-118261088D01*
X132297680Y-118261088D02*
X132298740Y-118173036D01*
X132298740Y-118173036D02*
X132298740Y-117977308D01*
X132298740Y-117977308D02*
X132437057Y-117977308D01*
X132437057Y-117977308D02*
X132437057Y-118580873D01*
X132437057Y-118580873D02*
X132367899Y-118580873D01*
X132367899Y-118580873D02*
X132326207Y-118579183D01*
X132326207Y-118579183D02*
X132304738Y-118573250D01*
X132304738Y-118573250D02*
X132298740Y-118561987D01*
X132298740Y-118561987D02*
X132295128Y-118551955D01*
X132295128Y-118551955D02*
X132280751Y-118554077D01*
X132280751Y-118554077D02*
X132251773Y-118568274D01*
X132251773Y-118568274D02*
X132185356Y-118590174D01*
X132185356Y-118590174D02*
X132114912Y-118588622D01*
X132114912Y-118588622D02*
X132047414Y-118564841D01*
X132047414Y-118564841D02*
X132015270Y-118546056D01*
X132015270Y-118546056D02*
X131990752Y-118525716D01*
X131990752Y-118525716D02*
X131972841Y-118500267D01*
X131972841Y-118500267D02*
X131960516Y-118466152D01*
X131960516Y-118466152D02*
X131952760Y-118419815D01*
X131952760Y-118419815D02*
X131948553Y-118357701D01*
X131948553Y-118357701D02*
X131946877Y-118276255D01*
X131946877Y-118276255D02*
X131946661Y-118213272D01*
X131946661Y-118213272D02*
X131946661Y-117977308D01*
X131946661Y-117977308D02*
X132072404Y-117977308D01*
X132072404Y-117977308D02*
X132072404Y-118173036D01*
X132072404Y-118173036D02*
X132072404Y-118173036D01*
G36*
X132072404Y-118173036D02*
G01*
X132073592Y-118265257D01*
X132077934Y-118335304D01*
X132086595Y-118386075D01*
X132100741Y-118420466D01*
X132121537Y-118441373D01*
X132150147Y-118451694D01*
X132185572Y-118454330D01*
X132222673Y-118451376D01*
X132250855Y-118440583D01*
X132271280Y-118419054D01*
X132285116Y-118383893D01*
X132293528Y-118332204D01*
X132297680Y-118261088D01*
X132298740Y-118173036D01*
X132298740Y-117977308D01*
X132437057Y-117977308D01*
X132437057Y-118580873D01*
X132367899Y-118580873D01*
X132326207Y-118579183D01*
X132304738Y-118573250D01*
X132298740Y-118561987D01*
X132295128Y-118551955D01*
X132280751Y-118554077D01*
X132251773Y-118568274D01*
X132185356Y-118590174D01*
X132114912Y-118588622D01*
X132047414Y-118564841D01*
X132015270Y-118546056D01*
X131990752Y-118525716D01*
X131972841Y-118500267D01*
X131960516Y-118466152D01*
X131952760Y-118419815D01*
X131948553Y-118357701D01*
X131946877Y-118276255D01*
X131946661Y-118213272D01*
X131946661Y-117977308D01*
X132072404Y-117977308D01*
X132072404Y-118173036D01*
G37*
X132072404Y-118173036D02*
X132073592Y-118265257D01*
X132077934Y-118335304D01*
X132086595Y-118386075D01*
X132100741Y-118420466D01*
X132121537Y-118441373D01*
X132150147Y-118451694D01*
X132185572Y-118454330D01*
X132222673Y-118451376D01*
X132250855Y-118440583D01*
X132271280Y-118419054D01*
X132285116Y-118383893D01*
X132293528Y-118332204D01*
X132297680Y-118261088D01*
X132298740Y-118173036D01*
X132298740Y-117977308D01*
X132437057Y-117977308D01*
X132437057Y-118580873D01*
X132367899Y-118580873D01*
X132326207Y-118579183D01*
X132304738Y-118573250D01*
X132298740Y-118561987D01*
X132295128Y-118551955D01*
X132280751Y-118554077D01*
X132251773Y-118568274D01*
X132185356Y-118590174D01*
X132114912Y-118588622D01*
X132047414Y-118564841D01*
X132015270Y-118546056D01*
X131990752Y-118525716D01*
X131972841Y-118500267D01*
X131960516Y-118466152D01*
X131952760Y-118419815D01*
X131948553Y-118357701D01*
X131946877Y-118276255D01*
X131946661Y-118213272D01*
X131946661Y-117977308D01*
X132072404Y-117977308D01*
X132072404Y-118173036D01*
X131360561Y-118922931D02*
X131410292Y-118926665D01*
X131410292Y-118926665D02*
X131540328Y-119316467D01*
X131540328Y-119316467D02*
X131560715Y-119247308D01*
X131560715Y-119247308D02*
X131572983Y-119204568D01*
X131572983Y-119204568D02*
X131589122Y-119146809D01*
X131589122Y-119146809D02*
X131606549Y-119083319D01*
X131606549Y-119083319D02*
X131615763Y-119049264D01*
X131615763Y-119049264D02*
X131650425Y-118920377D01*
X131650425Y-118920377D02*
X131793428Y-118920377D01*
X131793428Y-118920377D02*
X131750683Y-119055551D01*
X131750683Y-119055551D02*
X131729633Y-119122036D01*
X131729633Y-119122036D02*
X131704204Y-119202233D01*
X131704204Y-119202233D02*
X131677647Y-119285887D01*
X131677647Y-119285887D02*
X131653939Y-119360476D01*
X131653939Y-119360476D02*
X131599939Y-119530229D01*
X131599939Y-119530229D02*
X131541635Y-119534022D01*
X131541635Y-119534022D02*
X131483332Y-119537816D01*
X131483332Y-119537816D02*
X131451716Y-119433428D01*
X131451716Y-119433428D02*
X131432219Y-119368583D01*
X131432219Y-119368583D02*
X131410941Y-119297094D01*
X131410941Y-119297094D02*
X131392345Y-119233957D01*
X131392345Y-119233957D02*
X131391611Y-119231444D01*
X131391611Y-119231444D02*
X131377721Y-119188663D01*
X131377721Y-119188663D02*
X131365466Y-119159473D01*
X131365466Y-119159473D02*
X131356883Y-119148435D01*
X131356883Y-119148435D02*
X131355119Y-119149712D01*
X131355119Y-119149712D02*
X131348928Y-119166824D01*
X131348928Y-119166824D02*
X131337165Y-119203481D01*
X131337165Y-119203481D02*
X131321262Y-119255072D01*
X131321262Y-119255072D02*
X131302651Y-119316988D01*
X131302651Y-119316988D02*
X131292580Y-119351046D01*
X131292580Y-119351046D02*
X131238044Y-119536516D01*
X131238044Y-119536516D02*
X131122301Y-119536516D01*
X131122301Y-119536516D02*
X131029774Y-119244165D01*
X131029774Y-119244165D02*
X131003781Y-119162156D01*
X131003781Y-119162156D02*
X130980103Y-119087681D01*
X130980103Y-119087681D02*
X130959857Y-119024238D01*
X130959857Y-119024238D02*
X130944163Y-118975326D01*
X130944163Y-118975326D02*
X130934139Y-118944443D01*
X130934139Y-118944443D02*
X130931092Y-118935420D01*
X130931092Y-118935420D02*
X130933504Y-118926181D01*
X130933504Y-118926181D02*
X130952445Y-118922135D01*
X130952445Y-118922135D02*
X130991860Y-118922540D01*
X130991860Y-118922540D02*
X130998030Y-118922846D01*
X130998030Y-118922846D02*
X131071123Y-118926665D01*
X131071123Y-118926665D02*
X131118994Y-119102704D01*
X131118994Y-119102704D02*
X131136590Y-119166905D01*
X131136590Y-119166905D02*
X131152314Y-119223343D01*
X131152314Y-119223343D02*
X131164783Y-119267116D01*
X131164783Y-119267116D02*
X131172611Y-119293324D01*
X131172611Y-119293324D02*
X131174057Y-119297597D01*
X131174057Y-119297597D02*
X131180051Y-119292684D01*
X131180051Y-119292684D02*
X131192138Y-119267226D01*
X131192138Y-119267226D02*
X131208930Y-119224691D01*
X131208930Y-119224691D02*
X131229040Y-119168544D01*
X131229040Y-119168544D02*
X131246040Y-119117824D01*
X131246040Y-119117824D02*
X131310831Y-118919198D01*
X131310831Y-118919198D02*
X131360561Y-118922931D01*
X131360561Y-118922931D02*
X131360561Y-118922931D01*
G36*
X131360561Y-118922931D02*
G01*
X131410292Y-118926665D01*
X131540328Y-119316467D01*
X131560715Y-119247308D01*
X131572983Y-119204568D01*
X131589122Y-119146809D01*
X131606549Y-119083319D01*
X131615763Y-119049264D01*
X131650425Y-118920377D01*
X131793428Y-118920377D01*
X131750683Y-119055551D01*
X131729633Y-119122036D01*
X131704204Y-119202233D01*
X131677647Y-119285887D01*
X131653939Y-119360476D01*
X131599939Y-119530229D01*
X131541635Y-119534022D01*
X131483332Y-119537816D01*
X131451716Y-119433428D01*
X131432219Y-119368583D01*
X131410941Y-119297094D01*
X131392345Y-119233957D01*
X131391611Y-119231444D01*
X131377721Y-119188663D01*
X131365466Y-119159473D01*
X131356883Y-119148435D01*
X131355119Y-119149712D01*
X131348928Y-119166824D01*
X131337165Y-119203481D01*
X131321262Y-119255072D01*
X131302651Y-119316988D01*
X131292580Y-119351046D01*
X131238044Y-119536516D01*
X131122301Y-119536516D01*
X131029774Y-119244165D01*
X131003781Y-119162156D01*
X130980103Y-119087681D01*
X130959857Y-119024238D01*
X130944163Y-118975326D01*
X130934139Y-118944443D01*
X130931092Y-118935420D01*
X130933504Y-118926181D01*
X130952445Y-118922135D01*
X130991860Y-118922540D01*
X130998030Y-118922846D01*
X131071123Y-118926665D01*
X131118994Y-119102704D01*
X131136590Y-119166905D01*
X131152314Y-119223343D01*
X131164783Y-119267116D01*
X131172611Y-119293324D01*
X131174057Y-119297597D01*
X131180051Y-119292684D01*
X131192138Y-119267226D01*
X131208930Y-119224691D01*
X131229040Y-119168544D01*
X131246040Y-119117824D01*
X131310831Y-118919198D01*
X131360561Y-118922931D01*
G37*
X131360561Y-118922931D02*
X131410292Y-118926665D01*
X131540328Y-119316467D01*
X131560715Y-119247308D01*
X131572983Y-119204568D01*
X131589122Y-119146809D01*
X131606549Y-119083319D01*
X131615763Y-119049264D01*
X131650425Y-118920377D01*
X131793428Y-118920377D01*
X131750683Y-119055551D01*
X131729633Y-119122036D01*
X131704204Y-119202233D01*
X131677647Y-119285887D01*
X131653939Y-119360476D01*
X131599939Y-119530229D01*
X131541635Y-119534022D01*
X131483332Y-119537816D01*
X131451716Y-119433428D01*
X131432219Y-119368583D01*
X131410941Y-119297094D01*
X131392345Y-119233957D01*
X131391611Y-119231444D01*
X131377721Y-119188663D01*
X131365466Y-119159473D01*
X131356883Y-119148435D01*
X131355119Y-119149712D01*
X131348928Y-119166824D01*
X131337165Y-119203481D01*
X131321262Y-119255072D01*
X131302651Y-119316988D01*
X131292580Y-119351046D01*
X131238044Y-119536516D01*
X131122301Y-119536516D01*
X131029774Y-119244165D01*
X131003781Y-119162156D01*
X130980103Y-119087681D01*
X130959857Y-119024238D01*
X130944163Y-118975326D01*
X130934139Y-118944443D01*
X130931092Y-118935420D01*
X130933504Y-118926181D01*
X130952445Y-118922135D01*
X130991860Y-118922540D01*
X130998030Y-118922846D01*
X131071123Y-118926665D01*
X131118994Y-119102704D01*
X131136590Y-119166905D01*
X131152314Y-119223343D01*
X131164783Y-119267116D01*
X131172611Y-119293324D01*
X131174057Y-119297597D01*
X131180051Y-119292684D01*
X131192138Y-119267226D01*
X131208930Y-119224691D01*
X131229040Y-119168544D01*
X131246040Y-119117824D01*
X131310831Y-118919198D01*
X131360561Y-118922931D01*
X130325025Y-117987696D02*
X130356320Y-118002644D01*
X130356320Y-118002644D02*
X130386628Y-118024235D01*
X130386628Y-118024235D02*
X130409719Y-118049085D01*
X130409719Y-118049085D02*
X130426537Y-118080781D01*
X130426537Y-118080781D02*
X130438031Y-118122908D01*
X130438031Y-118122908D02*
X130445146Y-118179052D01*
X130445146Y-118179052D02*
X130448830Y-118252800D01*
X130448830Y-118252800D02*
X130450029Y-118347738D01*
X130450029Y-118347738D02*
X130450048Y-118357679D01*
X130450048Y-118357679D02*
X130450324Y-118580873D01*
X130450324Y-118580873D02*
X130312007Y-118580873D01*
X130312007Y-118580873D02*
X130312007Y-118375112D01*
X130312007Y-118375112D02*
X130311909Y-118298883D01*
X130311909Y-118298883D02*
X130311228Y-118243633D01*
X130311228Y-118243633D02*
X130309386Y-118205195D01*
X130309386Y-118205195D02*
X130305804Y-118179400D01*
X130305804Y-118179400D02*
X130299905Y-118162078D01*
X130299905Y-118162078D02*
X130291110Y-118149062D01*
X130291110Y-118149062D02*
X130278857Y-118136201D01*
X130278857Y-118136201D02*
X130235990Y-118108567D01*
X130235990Y-118108567D02*
X130189194Y-118103439D01*
X130189194Y-118103439D02*
X130144613Y-118120911D01*
X130144613Y-118120911D02*
X130129109Y-118133915D01*
X130129109Y-118133915D02*
X130117727Y-118146141D01*
X130117727Y-118146141D02*
X130109556Y-118159234D01*
X130109556Y-118159234D02*
X130104063Y-118177309D01*
X130104063Y-118177309D02*
X130100717Y-118204481D01*
X130100717Y-118204481D02*
X130098986Y-118244864D01*
X130098986Y-118244864D02*
X130098340Y-118302573D01*
X130098340Y-118302573D02*
X130098245Y-118372826D01*
X130098245Y-118372826D02*
X130098245Y-118580873D01*
X130098245Y-118580873D02*
X129959928Y-118580873D01*
X129959928Y-118580873D02*
X129959928Y-117977308D01*
X129959928Y-117977308D02*
X130029087Y-117977308D01*
X130029087Y-117977308D02*
X130070609Y-117978950D01*
X130070609Y-117978950D02*
X130092031Y-117984781D01*
X130092031Y-117984781D02*
X130098242Y-117996155D01*
X130098242Y-117996155D02*
X130098245Y-117996492D01*
X130098245Y-117996492D02*
X130101127Y-118007632D01*
X130101127Y-118007632D02*
X130113838Y-118006368D01*
X130113838Y-118006368D02*
X130139111Y-117994128D01*
X130139111Y-117994128D02*
X130196432Y-117976118D01*
X130196432Y-117976118D02*
X130262000Y-117974115D01*
X130262000Y-117974115D02*
X130325025Y-117987696D01*
X130325025Y-117987696D02*
X130325025Y-117987696D01*
G36*
X130325025Y-117987696D02*
G01*
X130356320Y-118002644D01*
X130386628Y-118024235D01*
X130409719Y-118049085D01*
X130426537Y-118080781D01*
X130438031Y-118122908D01*
X130445146Y-118179052D01*
X130448830Y-118252800D01*
X130450029Y-118347738D01*
X130450048Y-118357679D01*
X130450324Y-118580873D01*
X130312007Y-118580873D01*
X130312007Y-118375112D01*
X130311909Y-118298883D01*
X130311228Y-118243633D01*
X130309386Y-118205195D01*
X130305804Y-118179400D01*
X130299905Y-118162078D01*
X130291110Y-118149062D01*
X130278857Y-118136201D01*
X130235990Y-118108567D01*
X130189194Y-118103439D01*
X130144613Y-118120911D01*
X130129109Y-118133915D01*
X130117727Y-118146141D01*
X130109556Y-118159234D01*
X130104063Y-118177309D01*
X130100717Y-118204481D01*
X130098986Y-118244864D01*
X130098340Y-118302573D01*
X130098245Y-118372826D01*
X130098245Y-118580873D01*
X129959928Y-118580873D01*
X129959928Y-117977308D01*
X130029087Y-117977308D01*
X130070609Y-117978950D01*
X130092031Y-117984781D01*
X130098242Y-117996155D01*
X130098245Y-117996492D01*
X130101127Y-118007632D01*
X130113838Y-118006368D01*
X130139111Y-117994128D01*
X130196432Y-117976118D01*
X130262000Y-117974115D01*
X130325025Y-117987696D01*
G37*
X130325025Y-117987696D02*
X130356320Y-118002644D01*
X130386628Y-118024235D01*
X130409719Y-118049085D01*
X130426537Y-118080781D01*
X130438031Y-118122908D01*
X130445146Y-118179052D01*
X130448830Y-118252800D01*
X130450029Y-118347738D01*
X130450048Y-118357679D01*
X130450324Y-118580873D01*
X130312007Y-118580873D01*
X130312007Y-118375112D01*
X130311909Y-118298883D01*
X130311228Y-118243633D01*
X130309386Y-118205195D01*
X130305804Y-118179400D01*
X130299905Y-118162078D01*
X130291110Y-118149062D01*
X130278857Y-118136201D01*
X130235990Y-118108567D01*
X130189194Y-118103439D01*
X130144613Y-118120911D01*
X130129109Y-118133915D01*
X130117727Y-118146141D01*
X130109556Y-118159234D01*
X130104063Y-118177309D01*
X130100717Y-118204481D01*
X130098986Y-118244864D01*
X130098340Y-118302573D01*
X130098245Y-118372826D01*
X130098245Y-118580873D01*
X129959928Y-118580873D01*
X129959928Y-117977308D01*
X130029087Y-117977308D01*
X130070609Y-117978950D01*
X130092031Y-117984781D01*
X130098242Y-117996155D01*
X130098245Y-117996492D01*
X130101127Y-118007632D01*
X130113838Y-118006368D01*
X130139111Y-117994128D01*
X130196432Y-117976118D01*
X130262000Y-117974115D01*
X130325025Y-117987696D01*
X130085681Y-118921714D02*
X130104498Y-118927354D01*
X130104498Y-118927354D02*
X130110564Y-118939747D01*
X130110564Y-118939747D02*
X130110819Y-118945341D01*
X130110819Y-118945341D02*
X130111908Y-118960924D01*
X130111908Y-118960924D02*
X130119405Y-118963370D01*
X130119405Y-118963370D02*
X130139656Y-118952687D01*
X130139656Y-118952687D02*
X130151686Y-118945388D01*
X130151686Y-118945388D02*
X130189637Y-118929757D01*
X130189637Y-118929757D02*
X130234965Y-118922028D01*
X130234965Y-118922028D02*
X130282493Y-118921434D01*
X130282493Y-118921434D02*
X130327042Y-118927207D01*
X130327042Y-118927207D02*
X130363435Y-118938578D01*
X130363435Y-118938578D02*
X130386494Y-118954782D01*
X130386494Y-118954782D02*
X130391041Y-118975049D01*
X130391041Y-118975049D02*
X130388746Y-118980537D01*
X130388746Y-118980537D02*
X130372017Y-119003320D01*
X130372017Y-119003320D02*
X130346074Y-119031341D01*
X130346074Y-119031341D02*
X130341382Y-119035871D01*
X130341382Y-119035871D02*
X130316654Y-119056699D01*
X130316654Y-119056699D02*
X130295319Y-119063429D01*
X130295319Y-119063429D02*
X130265482Y-119058732D01*
X130265482Y-119058732D02*
X130253529Y-119055611D01*
X130253529Y-119055611D02*
X130216332Y-119048115D01*
X130216332Y-119048115D02*
X130190178Y-119051486D01*
X130190178Y-119051486D02*
X130168091Y-119063375D01*
X130168091Y-119063375D02*
X130147859Y-119079329D01*
X130147859Y-119079329D02*
X130132958Y-119099394D01*
X130132958Y-119099394D02*
X130122603Y-119127396D01*
X130122603Y-119127396D02*
X130116008Y-119167161D01*
X130116008Y-119167161D02*
X130112388Y-119222517D01*
X130112388Y-119222517D02*
X130110959Y-119297288D01*
X130110959Y-119297288D02*
X130110819Y-119342434D01*
X130110819Y-119342434D02*
X130110819Y-119536516D01*
X130110819Y-119536516D02*
X129985077Y-119536516D01*
X129985077Y-119536516D02*
X129985077Y-118920377D01*
X129985077Y-118920377D02*
X130047948Y-118920377D01*
X130047948Y-118920377D02*
X130085681Y-118921714D01*
X130085681Y-118921714D02*
X130085681Y-118921714D01*
G36*
X130085681Y-118921714D02*
G01*
X130104498Y-118927354D01*
X130110564Y-118939747D01*
X130110819Y-118945341D01*
X130111908Y-118960924D01*
X130119405Y-118963370D01*
X130139656Y-118952687D01*
X130151686Y-118945388D01*
X130189637Y-118929757D01*
X130234965Y-118922028D01*
X130282493Y-118921434D01*
X130327042Y-118927207D01*
X130363435Y-118938578D01*
X130386494Y-118954782D01*
X130391041Y-118975049D01*
X130388746Y-118980537D01*
X130372017Y-119003320D01*
X130346074Y-119031341D01*
X130341382Y-119035871D01*
X130316654Y-119056699D01*
X130295319Y-119063429D01*
X130265482Y-119058732D01*
X130253529Y-119055611D01*
X130216332Y-119048115D01*
X130190178Y-119051486D01*
X130168091Y-119063375D01*
X130147859Y-119079329D01*
X130132958Y-119099394D01*
X130122603Y-119127396D01*
X130116008Y-119167161D01*
X130112388Y-119222517D01*
X130110959Y-119297288D01*
X130110819Y-119342434D01*
X130110819Y-119536516D01*
X129985077Y-119536516D01*
X129985077Y-118920377D01*
X130047948Y-118920377D01*
X130085681Y-118921714D01*
G37*
X130085681Y-118921714D02*
X130104498Y-118927354D01*
X130110564Y-118939747D01*
X130110819Y-118945341D01*
X130111908Y-118960924D01*
X130119405Y-118963370D01*
X130139656Y-118952687D01*
X130151686Y-118945388D01*
X130189637Y-118929757D01*
X130234965Y-118922028D01*
X130282493Y-118921434D01*
X130327042Y-118927207D01*
X130363435Y-118938578D01*
X130386494Y-118954782D01*
X130391041Y-118975049D01*
X130388746Y-118980537D01*
X130372017Y-119003320D01*
X130346074Y-119031341D01*
X130341382Y-119035871D01*
X130316654Y-119056699D01*
X130295319Y-119063429D01*
X130265482Y-119058732D01*
X130253529Y-119055611D01*
X130216332Y-119048115D01*
X130190178Y-119051486D01*
X130168091Y-119063375D01*
X130147859Y-119079329D01*
X130132958Y-119099394D01*
X130122603Y-119127396D01*
X130116008Y-119167161D01*
X130112388Y-119222517D01*
X130110959Y-119297288D01*
X130110819Y-119342434D01*
X130110819Y-119536516D01*
X129985077Y-119536516D01*
X129985077Y-118920377D01*
X130047948Y-118920377D01*
X130085681Y-118921714D01*
X131093054Y-117975146D02*
X131140671Y-117984176D01*
X131140671Y-117984176D02*
X131190071Y-118003064D01*
X131190071Y-118003064D02*
X131195349Y-118005471D01*
X131195349Y-118005471D02*
X131232811Y-118025170D01*
X131232811Y-118025170D02*
X131258754Y-118043475D01*
X131258754Y-118043475D02*
X131267140Y-118055202D01*
X131267140Y-118055202D02*
X131259154Y-118074326D01*
X131259154Y-118074326D02*
X131239757Y-118102544D01*
X131239757Y-118102544D02*
X131231147Y-118113078D01*
X131231147Y-118113078D02*
X131195665Y-118154541D01*
X131195665Y-118154541D02*
X131149922Y-118127552D01*
X131149922Y-118127552D02*
X131106387Y-118109572D01*
X131106387Y-118109572D02*
X131056087Y-118099961D01*
X131056087Y-118099961D02*
X131007849Y-118099354D01*
X131007849Y-118099354D02*
X130970504Y-118108385D01*
X130970504Y-118108385D02*
X130961542Y-118114021D01*
X130961542Y-118114021D02*
X130944474Y-118139865D01*
X130944474Y-118139865D02*
X130942400Y-118169635D01*
X130942400Y-118169635D02*
X130955171Y-118192891D01*
X130955171Y-118192891D02*
X130962725Y-118197402D01*
X130962725Y-118197402D02*
X130985362Y-118203003D01*
X130985362Y-118203003D02*
X131025152Y-118209586D01*
X131025152Y-118209586D02*
X131074203Y-118215877D01*
X131074203Y-118215877D02*
X131083252Y-118216864D01*
X131083252Y-118216864D02*
X131162033Y-118230492D01*
X131162033Y-118230492D02*
X131219173Y-118253640D01*
X131219173Y-118253640D02*
X131257067Y-118288446D01*
X131257067Y-118288446D02*
X131278116Y-118337048D01*
X131278116Y-118337048D02*
X131284672Y-118396412D01*
X131284672Y-118396412D02*
X131275614Y-118463892D01*
X131275614Y-118463892D02*
X131246201Y-118516882D01*
X131246201Y-118516882D02*
X131196315Y-118555477D01*
X131196315Y-118555477D02*
X131125837Y-118579775D01*
X131125837Y-118579775D02*
X131047602Y-118589361D01*
X131047602Y-118589361D02*
X130983803Y-118589246D01*
X130983803Y-118589246D02*
X130932053Y-118580539D01*
X130932053Y-118580539D02*
X130896710Y-118568519D01*
X130896710Y-118568519D02*
X130852054Y-118547574D01*
X130852054Y-118547574D02*
X130810784Y-118523268D01*
X130810784Y-118523268D02*
X130796116Y-118512570D01*
X130796116Y-118512570D02*
X130758394Y-118481778D01*
X130758394Y-118481778D02*
X130803889Y-118435743D01*
X130803889Y-118435743D02*
X130849384Y-118389707D01*
X130849384Y-118389707D02*
X130901109Y-118423937D01*
X130901109Y-118423937D02*
X130952989Y-118449646D01*
X130952989Y-118449646D02*
X131008388Y-118463093D01*
X131008388Y-118463093D02*
X131061642Y-118464512D01*
X131061642Y-118464512D02*
X131107086Y-118454137D01*
X131107086Y-118454137D02*
X131139053Y-118432201D01*
X131139053Y-118432201D02*
X131149375Y-118413692D01*
X131149375Y-118413692D02*
X131147826Y-118384008D01*
X131147826Y-118384008D02*
X131122177Y-118361309D01*
X131122177Y-118361309D02*
X131072497Y-118345634D01*
X131072497Y-118345634D02*
X131018068Y-118338389D01*
X131018068Y-118338389D02*
X130934301Y-118324567D01*
X130934301Y-118324567D02*
X130872070Y-118298490D01*
X130872070Y-118298490D02*
X130830544Y-118259393D01*
X130830544Y-118259393D02*
X130808890Y-118206514D01*
X130808890Y-118206514D02*
X130805890Y-118143820D01*
X130805890Y-118143820D02*
X130820708Y-118078336D01*
X130820708Y-118078336D02*
X130854491Y-118028838D01*
X130854491Y-118028838D02*
X130907542Y-117995102D01*
X130907542Y-117995102D02*
X130980163Y-117976901D01*
X130980163Y-117976901D02*
X131033965Y-117973333D01*
X131033965Y-117973333D02*
X131093054Y-117975146D01*
X131093054Y-117975146D02*
X131093054Y-117975146D01*
G36*
X131093054Y-117975146D02*
G01*
X131140671Y-117984176D01*
X131190071Y-118003064D01*
X131195349Y-118005471D01*
X131232811Y-118025170D01*
X131258754Y-118043475D01*
X131267140Y-118055202D01*
X131259154Y-118074326D01*
X131239757Y-118102544D01*
X131231147Y-118113078D01*
X131195665Y-118154541D01*
X131149922Y-118127552D01*
X131106387Y-118109572D01*
X131056087Y-118099961D01*
X131007849Y-118099354D01*
X130970504Y-118108385D01*
X130961542Y-118114021D01*
X130944474Y-118139865D01*
X130942400Y-118169635D01*
X130955171Y-118192891D01*
X130962725Y-118197402D01*
X130985362Y-118203003D01*
X131025152Y-118209586D01*
X131074203Y-118215877D01*
X131083252Y-118216864D01*
X131162033Y-118230492D01*
X131219173Y-118253640D01*
X131257067Y-118288446D01*
X131278116Y-118337048D01*
X131284672Y-118396412D01*
X131275614Y-118463892D01*
X131246201Y-118516882D01*
X131196315Y-118555477D01*
X131125837Y-118579775D01*
X131047602Y-118589361D01*
X130983803Y-118589246D01*
X130932053Y-118580539D01*
X130896710Y-118568519D01*
X130852054Y-118547574D01*
X130810784Y-118523268D01*
X130796116Y-118512570D01*
X130758394Y-118481778D01*
X130803889Y-118435743D01*
X130849384Y-118389707D01*
X130901109Y-118423937D01*
X130952989Y-118449646D01*
X131008388Y-118463093D01*
X131061642Y-118464512D01*
X131107086Y-118454137D01*
X131139053Y-118432201D01*
X131149375Y-118413692D01*
X131147826Y-118384008D01*
X131122177Y-118361309D01*
X131072497Y-118345634D01*
X131018068Y-118338389D01*
X130934301Y-118324567D01*
X130872070Y-118298490D01*
X130830544Y-118259393D01*
X130808890Y-118206514D01*
X130805890Y-118143820D01*
X130820708Y-118078336D01*
X130854491Y-118028838D01*
X130907542Y-117995102D01*
X130980163Y-117976901D01*
X131033965Y-117973333D01*
X131093054Y-117975146D01*
G37*
X131093054Y-117975146D02*
X131140671Y-117984176D01*
X131190071Y-118003064D01*
X131195349Y-118005471D01*
X131232811Y-118025170D01*
X131258754Y-118043475D01*
X131267140Y-118055202D01*
X131259154Y-118074326D01*
X131239757Y-118102544D01*
X131231147Y-118113078D01*
X131195665Y-118154541D01*
X131149922Y-118127552D01*
X131106387Y-118109572D01*
X131056087Y-118099961D01*
X131007849Y-118099354D01*
X130970504Y-118108385D01*
X130961542Y-118114021D01*
X130944474Y-118139865D01*
X130942400Y-118169635D01*
X130955171Y-118192891D01*
X130962725Y-118197402D01*
X130985362Y-118203003D01*
X131025152Y-118209586D01*
X131074203Y-118215877D01*
X131083252Y-118216864D01*
X131162033Y-118230492D01*
X131219173Y-118253640D01*
X131257067Y-118288446D01*
X131278116Y-118337048D01*
X131284672Y-118396412D01*
X131275614Y-118463892D01*
X131246201Y-118516882D01*
X131196315Y-118555477D01*
X131125837Y-118579775D01*
X131047602Y-118589361D01*
X130983803Y-118589246D01*
X130932053Y-118580539D01*
X130896710Y-118568519D01*
X130852054Y-118547574D01*
X130810784Y-118523268D01*
X130796116Y-118512570D01*
X130758394Y-118481778D01*
X130803889Y-118435743D01*
X130849384Y-118389707D01*
X130901109Y-118423937D01*
X130952989Y-118449646D01*
X131008388Y-118463093D01*
X131061642Y-118464512D01*
X131107086Y-118454137D01*
X131139053Y-118432201D01*
X131149375Y-118413692D01*
X131147826Y-118384008D01*
X131122177Y-118361309D01*
X131072497Y-118345634D01*
X131018068Y-118338389D01*
X130934301Y-118324567D01*
X130872070Y-118298490D01*
X130830544Y-118259393D01*
X130808890Y-118206514D01*
X130805890Y-118143820D01*
X130820708Y-118078336D01*
X130854491Y-118028838D01*
X130907542Y-117995102D01*
X130980163Y-117976901D01*
X131033965Y-117973333D01*
X131093054Y-117975146D01*
X133756935Y-117975151D02*
X133789133Y-117982973D01*
X133789133Y-117982973D02*
X133850862Y-118011615D01*
X133850862Y-118011615D02*
X133903647Y-118055361D01*
X133903647Y-118055361D02*
X133940178Y-118107811D01*
X133940178Y-118107811D02*
X133945197Y-118119587D01*
X133945197Y-118119587D02*
X133952082Y-118150434D01*
X133952082Y-118150434D02*
X133956901Y-118196065D01*
X133956901Y-118196065D02*
X133958542Y-118242186D01*
X133958542Y-118242186D02*
X133958542Y-118329387D01*
X133958542Y-118329387D02*
X133776215Y-118329387D01*
X133776215Y-118329387D02*
X133701016Y-118329672D01*
X133701016Y-118329672D02*
X133648040Y-118331398D01*
X133648040Y-118331398D02*
X133614362Y-118335875D01*
X133614362Y-118335875D02*
X133597057Y-118344414D01*
X133597057Y-118344414D02*
X133593200Y-118358324D01*
X133593200Y-118358324D02*
X133599866Y-118378916D01*
X133599866Y-118378916D02*
X133611807Y-118403009D01*
X133611807Y-118403009D02*
X133645117Y-118443219D01*
X133645117Y-118443219D02*
X133691405Y-118463252D01*
X133691405Y-118463252D02*
X133747981Y-118462599D01*
X133747981Y-118462599D02*
X133812068Y-118440795D01*
X133812068Y-118440795D02*
X133867454Y-118413887D01*
X133867454Y-118413887D02*
X133913412Y-118450226D01*
X133913412Y-118450226D02*
X133959370Y-118486566D01*
X133959370Y-118486566D02*
X133916133Y-118526513D01*
X133916133Y-118526513D02*
X133858411Y-118564257D01*
X133858411Y-118564257D02*
X133787423Y-118587014D01*
X133787423Y-118587014D02*
X133711066Y-118593382D01*
X133711066Y-118593382D02*
X133637236Y-118581962D01*
X133637236Y-118581962D02*
X133625324Y-118578087D01*
X133625324Y-118578087D02*
X133560436Y-118544200D01*
X133560436Y-118544200D02*
X133512167Y-118493680D01*
X133512167Y-118493680D02*
X133479502Y-118425019D01*
X133479502Y-118425019D02*
X133461422Y-118336708D01*
X133461422Y-118336708D02*
X133461212Y-118334815D01*
X133461212Y-118334815D02*
X133459593Y-118238572D01*
X133459593Y-118238572D02*
X133466137Y-118204236D01*
X133466137Y-118204236D02*
X133593889Y-118204236D01*
X133593889Y-118204236D02*
X133605621Y-118209516D01*
X133605621Y-118209516D02*
X133637475Y-118213561D01*
X133637475Y-118213561D02*
X133684434Y-118215870D01*
X133684434Y-118215870D02*
X133714191Y-118216219D01*
X133714191Y-118216219D02*
X133769685Y-118216000D01*
X133769685Y-118216000D02*
X133804383Y-118214610D01*
X133804383Y-118214610D02*
X133822638Y-118210945D01*
X133822638Y-118210945D02*
X133828803Y-118203904D01*
X133828803Y-118203904D02*
X133827232Y-118192384D01*
X133827232Y-118192384D02*
X133825915Y-118187927D01*
X133825915Y-118187927D02*
X133803419Y-118146049D01*
X133803419Y-118146049D02*
X133768040Y-118112298D01*
X133768040Y-118112298D02*
X133736817Y-118097467D01*
X133736817Y-118097467D02*
X133695338Y-118098362D01*
X133695338Y-118098362D02*
X133653306Y-118116858D01*
X133653306Y-118116858D02*
X133618049Y-118147480D01*
X133618049Y-118147480D02*
X133596891Y-118184756D01*
X133596891Y-118184756D02*
X133593889Y-118204236D01*
X133593889Y-118204236D02*
X133466137Y-118204236D01*
X133466137Y-118204236D02*
X133475727Y-118153923D01*
X133475727Y-118153923D02*
X133507735Y-118082885D01*
X133507735Y-118082885D02*
X133553738Y-118027473D01*
X133553738Y-118027473D02*
X133611858Y-117989703D01*
X133611858Y-117989703D02*
X133680217Y-117971590D01*
X133680217Y-117971590D02*
X133756935Y-117975151D01*
X133756935Y-117975151D02*
X133756935Y-117975151D01*
G36*
X133507735Y-118082885D02*
G01*
X133553738Y-118027473D01*
X133611858Y-117989703D01*
X133680217Y-117971590D01*
X133756935Y-117975151D01*
X133789133Y-117982973D01*
X133850862Y-118011615D01*
X133903647Y-118055361D01*
X133940178Y-118107811D01*
X133945197Y-118119587D01*
X133952082Y-118150434D01*
X133956901Y-118196065D01*
X133958542Y-118242186D01*
X133958542Y-118329387D01*
X133776215Y-118329387D01*
X133701016Y-118329672D01*
X133648040Y-118331398D01*
X133614362Y-118335875D01*
X133597057Y-118344414D01*
X133593200Y-118358324D01*
X133599866Y-118378916D01*
X133611807Y-118403009D01*
X133645117Y-118443219D01*
X133691405Y-118463252D01*
X133747981Y-118462599D01*
X133812068Y-118440795D01*
X133867454Y-118413887D01*
X133913412Y-118450226D01*
X133959370Y-118486566D01*
X133916133Y-118526513D01*
X133858411Y-118564257D01*
X133787423Y-118587014D01*
X133711066Y-118593382D01*
X133637236Y-118581962D01*
X133625324Y-118578087D01*
X133560436Y-118544200D01*
X133512167Y-118493680D01*
X133479502Y-118425019D01*
X133461422Y-118336708D01*
X133461212Y-118334815D01*
X133459593Y-118238572D01*
X133466137Y-118204236D01*
X133593889Y-118204236D01*
X133605621Y-118209516D01*
X133637475Y-118213561D01*
X133684434Y-118215870D01*
X133714191Y-118216219D01*
X133769685Y-118216000D01*
X133804383Y-118214610D01*
X133822638Y-118210945D01*
X133828803Y-118203904D01*
X133827232Y-118192384D01*
X133825915Y-118187927D01*
X133803419Y-118146049D01*
X133768040Y-118112298D01*
X133736817Y-118097467D01*
X133695338Y-118098362D01*
X133653306Y-118116858D01*
X133618049Y-118147480D01*
X133596891Y-118184756D01*
X133593889Y-118204236D01*
X133466137Y-118204236D01*
X133475727Y-118153923D01*
X133507735Y-118082885D01*
G37*
X133507735Y-118082885D02*
X133553738Y-118027473D01*
X133611858Y-117989703D01*
X133680217Y-117971590D01*
X133756935Y-117975151D01*
X133789133Y-117982973D01*
X133850862Y-118011615D01*
X133903647Y-118055361D01*
X133940178Y-118107811D01*
X133945197Y-118119587D01*
X133952082Y-118150434D01*
X133956901Y-118196065D01*
X133958542Y-118242186D01*
X133958542Y-118329387D01*
X133776215Y-118329387D01*
X133701016Y-118329672D01*
X133648040Y-118331398D01*
X133614362Y-118335875D01*
X133597057Y-118344414D01*
X133593200Y-118358324D01*
X133599866Y-118378916D01*
X133611807Y-118403009D01*
X133645117Y-118443219D01*
X133691405Y-118463252D01*
X133747981Y-118462599D01*
X133812068Y-118440795D01*
X133867454Y-118413887D01*
X133913412Y-118450226D01*
X133959370Y-118486566D01*
X133916133Y-118526513D01*
X133858411Y-118564257D01*
X133787423Y-118587014D01*
X133711066Y-118593382D01*
X133637236Y-118581962D01*
X133625324Y-118578087D01*
X133560436Y-118544200D01*
X133512167Y-118493680D01*
X133479502Y-118425019D01*
X133461422Y-118336708D01*
X133461212Y-118334815D01*
X133459593Y-118238572D01*
X133466137Y-118204236D01*
X133593889Y-118204236D01*
X133605621Y-118209516D01*
X133637475Y-118213561D01*
X133684434Y-118215870D01*
X133714191Y-118216219D01*
X133769685Y-118216000D01*
X133804383Y-118214610D01*
X133822638Y-118210945D01*
X133828803Y-118203904D01*
X133827232Y-118192384D01*
X133825915Y-118187927D01*
X133803419Y-118146049D01*
X133768040Y-118112298D01*
X133736817Y-118097467D01*
X133695338Y-118098362D01*
X133653306Y-118116858D01*
X133618049Y-118147480D01*
X133596891Y-118184756D01*
X133593889Y-118204236D01*
X133466137Y-118204236D01*
X133475727Y-118153923D01*
X133507735Y-118082885D01*
X129694827Y-118925249D02*
X129753982Y-118941033D01*
X129753982Y-118941033D02*
X129799014Y-118969642D01*
X129799014Y-118969642D02*
X129830791Y-119007113D01*
X129830791Y-119007113D02*
X129840671Y-119023105D01*
X129840671Y-119023105D02*
X129847964Y-119039857D01*
X129847964Y-119039857D02*
X129853063Y-119061286D01*
X129853063Y-119061286D02*
X129856358Y-119091310D01*
X129856358Y-119091310D02*
X129858240Y-119133848D01*
X129858240Y-119133848D02*
X129859100Y-119192816D01*
X129859100Y-119192816D02*
X129859330Y-119272134D01*
X129859330Y-119272134D02*
X129859334Y-119293178D01*
X129859334Y-119293178D02*
X129859334Y-119536516D01*
X129859334Y-119536516D02*
X129798978Y-119536516D01*
X129798978Y-119536516D02*
X129760480Y-119533820D01*
X129760480Y-119533820D02*
X129732014Y-119526989D01*
X129732014Y-119526989D02*
X129724882Y-119522777D01*
X129724882Y-119522777D02*
X129705385Y-119515507D01*
X129705385Y-119515507D02*
X129685471Y-119522777D01*
X129685471Y-119522777D02*
X129652684Y-119531854D01*
X129652684Y-119531854D02*
X129605059Y-119535507D01*
X129605059Y-119535507D02*
X129552273Y-119533922D01*
X129552273Y-119533922D02*
X129504001Y-119527283D01*
X129504001Y-119527283D02*
X129475819Y-119518766D01*
X129475819Y-119518766D02*
X129421284Y-119483757D01*
X129421284Y-119483757D02*
X129387202Y-119435173D01*
X129387202Y-119435173D02*
X129371880Y-119370576D01*
X129371880Y-119370576D02*
X129371738Y-119368917D01*
X129371738Y-119368917D02*
X129373082Y-119340260D01*
X129373082Y-119340260D02*
X129494681Y-119340260D01*
X129494681Y-119340260D02*
X129505311Y-119372855D01*
X129505311Y-119372855D02*
X129522627Y-119391199D01*
X129522627Y-119391199D02*
X129557385Y-119405073D01*
X129557385Y-119405073D02*
X129603264Y-119410611D01*
X129603264Y-119410611D02*
X129650049Y-119407885D01*
X129650049Y-119407885D02*
X129687523Y-119396968D01*
X129687523Y-119396968D02*
X129698022Y-119389963D01*
X129698022Y-119389963D02*
X129716369Y-119357598D01*
X129716369Y-119357598D02*
X129721017Y-119320805D01*
X129721017Y-119320805D02*
X129721017Y-119272457D01*
X129721017Y-119272457D02*
X129651455Y-119272457D01*
X129651455Y-119272457D02*
X129585370Y-119277544D01*
X129585370Y-119277544D02*
X129535273Y-119291957D01*
X129535273Y-119291957D02*
X129504108Y-119314423D01*
X129504108Y-119314423D02*
X129494681Y-119340260D01*
X129494681Y-119340260D02*
X129373082Y-119340260D01*
X129373082Y-119340260D02*
X129375050Y-119298341D01*
X129375050Y-119298341D02*
X129398327Y-119242539D01*
X129398327Y-119242539D02*
X129442089Y-119200341D01*
X129442089Y-119200341D02*
X129448138Y-119196502D01*
X129448138Y-119196502D02*
X129474130Y-119184003D01*
X129474130Y-119184003D02*
X129506302Y-119176434D01*
X129506302Y-119176434D02*
X129551277Y-119172755D01*
X129551277Y-119172755D02*
X129604706Y-119171910D01*
X129604706Y-119171910D02*
X129721017Y-119171863D01*
X129721017Y-119171863D02*
X129721017Y-119123105D01*
X129721017Y-119123105D02*
X129716084Y-119085275D01*
X129716084Y-119085275D02*
X129703494Y-119059930D01*
X129703494Y-119059930D02*
X129702020Y-119058581D01*
X129702020Y-119058581D02*
X129674003Y-119047494D01*
X129674003Y-119047494D02*
X129631711Y-119043197D01*
X129631711Y-119043197D02*
X129584973Y-119045309D01*
X129584973Y-119045309D02*
X129543619Y-119053450D01*
X129543619Y-119053450D02*
X129519080Y-119065659D01*
X129519080Y-119065659D02*
X129505784Y-119075440D01*
X129505784Y-119075440D02*
X129491743Y-119077307D01*
X129491743Y-119077307D02*
X129472366Y-119069294D01*
X129472366Y-119069294D02*
X129443061Y-119049433D01*
X129443061Y-119049433D02*
X129399234Y-119015757D01*
X129399234Y-119015757D02*
X129395212Y-119012603D01*
X129395212Y-119012603D02*
X129397273Y-119000930D01*
X129397273Y-119000930D02*
X129414469Y-118981516D01*
X129414469Y-118981516D02*
X129440604Y-118959942D01*
X129440604Y-118959942D02*
X129469485Y-118941790D01*
X129469485Y-118941790D02*
X129478559Y-118937503D01*
X129478559Y-118937503D02*
X129511657Y-118928950D01*
X129511657Y-118928950D02*
X129560157Y-118922849D01*
X129560157Y-118922849D02*
X129614342Y-118920402D01*
X129614342Y-118920402D02*
X129616876Y-118920397D01*
X129616876Y-118920397D02*
X129694827Y-118925249D01*
X129694827Y-118925249D02*
X129694827Y-118925249D01*
G36*
X129398327Y-119242539D02*
G01*
X129442089Y-119200341D01*
X129448138Y-119196502D01*
X129474130Y-119184003D01*
X129506302Y-119176434D01*
X129551277Y-119172755D01*
X129604706Y-119171910D01*
X129721017Y-119171863D01*
X129721017Y-119123105D01*
X129716084Y-119085275D01*
X129703494Y-119059930D01*
X129702020Y-119058581D01*
X129674003Y-119047494D01*
X129631711Y-119043197D01*
X129584973Y-119045309D01*
X129543619Y-119053450D01*
X129519080Y-119065659D01*
X129505784Y-119075440D01*
X129491743Y-119077307D01*
X129472366Y-119069294D01*
X129443061Y-119049433D01*
X129399234Y-119015757D01*
X129395212Y-119012603D01*
X129397273Y-119000930D01*
X129414469Y-118981516D01*
X129440604Y-118959942D01*
X129469485Y-118941790D01*
X129478559Y-118937503D01*
X129511657Y-118928950D01*
X129560157Y-118922849D01*
X129614342Y-118920402D01*
X129616876Y-118920397D01*
X129694827Y-118925249D01*
X129753982Y-118941033D01*
X129799014Y-118969642D01*
X129830791Y-119007113D01*
X129840671Y-119023105D01*
X129847964Y-119039857D01*
X129853063Y-119061286D01*
X129856358Y-119091310D01*
X129858240Y-119133848D01*
X129859100Y-119192816D01*
X129859330Y-119272134D01*
X129859334Y-119293178D01*
X129859334Y-119536516D01*
X129798978Y-119536516D01*
X129760480Y-119533820D01*
X129732014Y-119526989D01*
X129724882Y-119522777D01*
X129705385Y-119515507D01*
X129685471Y-119522777D01*
X129652684Y-119531854D01*
X129605059Y-119535507D01*
X129552273Y-119533922D01*
X129504001Y-119527283D01*
X129475819Y-119518766D01*
X129421284Y-119483757D01*
X129387202Y-119435173D01*
X129371880Y-119370576D01*
X129371738Y-119368917D01*
X129373082Y-119340260D01*
X129494681Y-119340260D01*
X129505311Y-119372855D01*
X129522627Y-119391199D01*
X129557385Y-119405073D01*
X129603264Y-119410611D01*
X129650049Y-119407885D01*
X129687523Y-119396968D01*
X129698022Y-119389963D01*
X129716369Y-119357598D01*
X129721017Y-119320805D01*
X129721017Y-119272457D01*
X129651455Y-119272457D01*
X129585370Y-119277544D01*
X129535273Y-119291957D01*
X129504108Y-119314423D01*
X129494681Y-119340260D01*
X129373082Y-119340260D01*
X129375050Y-119298341D01*
X129398327Y-119242539D01*
G37*
X129398327Y-119242539D02*
X129442089Y-119200341D01*
X129448138Y-119196502D01*
X129474130Y-119184003D01*
X129506302Y-119176434D01*
X129551277Y-119172755D01*
X129604706Y-119171910D01*
X129721017Y-119171863D01*
X129721017Y-119123105D01*
X129716084Y-119085275D01*
X129703494Y-119059930D01*
X129702020Y-119058581D01*
X129674003Y-119047494D01*
X129631711Y-119043197D01*
X129584973Y-119045309D01*
X129543619Y-119053450D01*
X129519080Y-119065659D01*
X129505784Y-119075440D01*
X129491743Y-119077307D01*
X129472366Y-119069294D01*
X129443061Y-119049433D01*
X129399234Y-119015757D01*
X129395212Y-119012603D01*
X129397273Y-119000930D01*
X129414469Y-118981516D01*
X129440604Y-118959942D01*
X129469485Y-118941790D01*
X129478559Y-118937503D01*
X129511657Y-118928950D01*
X129560157Y-118922849D01*
X129614342Y-118920402D01*
X129616876Y-118920397D01*
X129694827Y-118925249D01*
X129753982Y-118941033D01*
X129799014Y-118969642D01*
X129830791Y-119007113D01*
X129840671Y-119023105D01*
X129847964Y-119039857D01*
X129853063Y-119061286D01*
X129856358Y-119091310D01*
X129858240Y-119133848D01*
X129859100Y-119192816D01*
X129859330Y-119272134D01*
X129859334Y-119293178D01*
X129859334Y-119536516D01*
X129798978Y-119536516D01*
X129760480Y-119533820D01*
X129732014Y-119526989D01*
X129724882Y-119522777D01*
X129705385Y-119515507D01*
X129685471Y-119522777D01*
X129652684Y-119531854D01*
X129605059Y-119535507D01*
X129552273Y-119533922D01*
X129504001Y-119527283D01*
X129475819Y-119518766D01*
X129421284Y-119483757D01*
X129387202Y-119435173D01*
X129371880Y-119370576D01*
X129371738Y-119368917D01*
X129373082Y-119340260D01*
X129494681Y-119340260D01*
X129505311Y-119372855D01*
X129522627Y-119391199D01*
X129557385Y-119405073D01*
X129603264Y-119410611D01*
X129650049Y-119407885D01*
X129687523Y-119396968D01*
X129698022Y-119389963D01*
X129716369Y-119357598D01*
X129721017Y-119320805D01*
X129721017Y-119272457D01*
X129651455Y-119272457D01*
X129585370Y-119277544D01*
X129535273Y-119291957D01*
X129504108Y-119314423D01*
X129494681Y-119340260D01*
X129373082Y-119340260D01*
X129375050Y-119298341D01*
X129398327Y-119242539D01*
X129170278Y-117987878D02*
X129196790Y-118000976D01*
X129196790Y-118000976D02*
X129229484Y-118023800D01*
X129229484Y-118023800D02*
X129253312Y-118048690D01*
X129253312Y-118048690D02*
X129269631Y-118079943D01*
X129269631Y-118079943D02*
X129279797Y-118121860D01*
X129279797Y-118121860D02*
X129285165Y-118178738D01*
X129285165Y-118178738D02*
X129287093Y-118254878D01*
X129287093Y-118254878D02*
X129287206Y-118287611D01*
X129287206Y-118287611D02*
X129286876Y-118359350D01*
X129286876Y-118359350D02*
X129285510Y-118410621D01*
X129285510Y-118410621D02*
X129282537Y-118446098D01*
X129282537Y-118446098D02*
X129277388Y-118470457D01*
X129277388Y-118470457D02*
X129269494Y-118488374D01*
X129269494Y-118488374D02*
X129261280Y-118500596D01*
X129261280Y-118500596D02*
X129208850Y-118552599D01*
X129208850Y-118552599D02*
X129147107Y-118583878D01*
X129147107Y-118583878D02*
X129080501Y-118593286D01*
X129080501Y-118593286D02*
X129013479Y-118579674D01*
X129013479Y-118579674D02*
X128992245Y-118570048D01*
X128992245Y-118570048D02*
X128941413Y-118543553D01*
X128941413Y-118543553D02*
X128941413Y-118958746D01*
X128941413Y-118958746D02*
X128978512Y-118939562D01*
X128978512Y-118939562D02*
X129027394Y-118924719D01*
X129027394Y-118924719D02*
X129087476Y-118920916D01*
X129087476Y-118920916D02*
X129147473Y-118927937D01*
X129147473Y-118927937D02*
X129192781Y-118943707D01*
X129192781Y-118943707D02*
X129230362Y-118973741D01*
X129230362Y-118973741D02*
X129262473Y-119016718D01*
X129262473Y-119016718D02*
X129264887Y-119021130D01*
X129264887Y-119021130D02*
X129275070Y-119041915D01*
X129275070Y-119041915D02*
X129282507Y-119062864D01*
X129282507Y-119062864D02*
X129287626Y-119088242D01*
X129287626Y-119088242D02*
X129290856Y-119122312D01*
X129290856Y-119122312D02*
X129292624Y-119169335D01*
X129292624Y-119169335D02*
X129293360Y-119233576D01*
X129293360Y-119233576D02*
X129293493Y-119305870D01*
X129293493Y-119305870D02*
X129293493Y-119536516D01*
X129293493Y-119536516D02*
X129155176Y-119536516D01*
X129155176Y-119536516D02*
X129155176Y-119111227D01*
X129155176Y-119111227D02*
X129116488Y-119078673D01*
X129116488Y-119078673D02*
X129076299Y-119052634D01*
X129076299Y-119052634D02*
X129038240Y-119047899D01*
X129038240Y-119047899D02*
X128999971Y-119060083D01*
X128999971Y-119060083D02*
X128979575Y-119072014D01*
X128979575Y-119072014D02*
X128964395Y-119089007D01*
X128964395Y-119089007D02*
X128953599Y-119114689D01*
X128953599Y-119114689D02*
X128946354Y-119152685D01*
X128946354Y-119152685D02*
X128941829Y-119206620D01*
X128941829Y-119206620D02*
X128939193Y-119280119D01*
X128939193Y-119280119D02*
X128938265Y-119329041D01*
X128938265Y-119329041D02*
X128935126Y-119530229D01*
X128935126Y-119530229D02*
X128869111Y-119534030D01*
X128869111Y-119534030D02*
X128803097Y-119537830D01*
X128803097Y-119537830D02*
X128803097Y-118289344D01*
X128803097Y-118289344D02*
X128941413Y-118289344D01*
X128941413Y-118289344D02*
X128944940Y-118358948D01*
X128944940Y-118358948D02*
X128956822Y-118407263D01*
X128956822Y-118407263D02*
X128979017Y-118437325D01*
X128979017Y-118437325D02*
X129013478Y-118452165D01*
X129013478Y-118452165D02*
X129048295Y-118455130D01*
X129048295Y-118455130D02*
X129087708Y-118451722D01*
X129087708Y-118451722D02*
X129113866Y-118438311D01*
X129113866Y-118438311D02*
X129130223Y-118420590D01*
X129130223Y-118420590D02*
X129143100Y-118401529D01*
X129143100Y-118401529D02*
X129150765Y-118380295D01*
X129150765Y-118380295D02*
X129154176Y-118350543D01*
X129154176Y-118350543D02*
X129154288Y-118305930D01*
X129154288Y-118305930D02*
X129153140Y-118268574D01*
X129153140Y-118268574D02*
X129150505Y-118212298D01*
X129150505Y-118212298D02*
X129146581Y-118175352D01*
X129146581Y-118175352D02*
X129139974Y-118151917D01*
X129139974Y-118151917D02*
X129129288Y-118136174D01*
X129129288Y-118136174D02*
X129119204Y-118127074D01*
X129119204Y-118127074D02*
X129077067Y-118107231D01*
X129077067Y-118107231D02*
X129027197Y-118104026D01*
X129027197Y-118104026D02*
X128998561Y-118110862D01*
X128998561Y-118110862D02*
X128970209Y-118135158D01*
X128970209Y-118135158D02*
X128951428Y-118182422D01*
X128951428Y-118182422D02*
X128942325Y-118252318D01*
X128942325Y-118252318D02*
X128941413Y-118289344D01*
X128941413Y-118289344D02*
X128803097Y-118289344D01*
X128803097Y-118289344D02*
X128803097Y-117977308D01*
X128803097Y-117977308D02*
X128872255Y-117977308D01*
X128872255Y-117977308D02*
X128913777Y-117978950D01*
X128913777Y-117978950D02*
X128935199Y-117984781D01*
X128935199Y-117984781D02*
X128941411Y-117996155D01*
X128941411Y-117996155D02*
X128941413Y-117996492D01*
X128941413Y-117996492D02*
X128944295Y-118007632D01*
X128944295Y-118007632D02*
X128957007Y-118006367D01*
X128957007Y-118006367D02*
X128982280Y-117994127D01*
X128982280Y-117994127D02*
X129041168Y-117975401D01*
X129041168Y-117975401D02*
X129107422Y-117973433D01*
X129107422Y-117973433D02*
X129170278Y-117987878D01*
X129170278Y-117987878D02*
X129170278Y-117987878D01*
G36*
X128872255Y-117977308D02*
G01*
X128913777Y-117978950D01*
X128935199Y-117984781D01*
X128941411Y-117996155D01*
X128941413Y-117996492D01*
X128944295Y-118007632D01*
X128957007Y-118006367D01*
X128982280Y-117994127D01*
X129041168Y-117975401D01*
X129107422Y-117973433D01*
X129170278Y-117987878D01*
X129196790Y-118000976D01*
X129229484Y-118023800D01*
X129253312Y-118048690D01*
X129269631Y-118079943D01*
X129279797Y-118121860D01*
X129285165Y-118178738D01*
X129287093Y-118254878D01*
X129287206Y-118287611D01*
X129286876Y-118359350D01*
X129285510Y-118410621D01*
X129282537Y-118446098D01*
X129277388Y-118470457D01*
X129269494Y-118488374D01*
X129261280Y-118500596D01*
X129208850Y-118552599D01*
X129147107Y-118583878D01*
X129080501Y-118593286D01*
X129013479Y-118579674D01*
X128992245Y-118570048D01*
X128941413Y-118543553D01*
X128941413Y-118958746D01*
X128978512Y-118939562D01*
X129027394Y-118924719D01*
X129087476Y-118920916D01*
X129147473Y-118927937D01*
X129192781Y-118943707D01*
X129230362Y-118973741D01*
X129262473Y-119016718D01*
X129264887Y-119021130D01*
X129275070Y-119041915D01*
X129282507Y-119062864D01*
X129287626Y-119088242D01*
X129290856Y-119122312D01*
X129292624Y-119169335D01*
X129293360Y-119233576D01*
X129293493Y-119305870D01*
X129293493Y-119536516D01*
X129155176Y-119536516D01*
X129155176Y-119111227D01*
X129116488Y-119078673D01*
X129076299Y-119052634D01*
X129038240Y-119047899D01*
X128999971Y-119060083D01*
X128979575Y-119072014D01*
X128964395Y-119089007D01*
X128953599Y-119114689D01*
X128946354Y-119152685D01*
X128941829Y-119206620D01*
X128939193Y-119280119D01*
X128938265Y-119329041D01*
X128935126Y-119530229D01*
X128869111Y-119534030D01*
X128803097Y-119537830D01*
X128803097Y-118289344D01*
X128941413Y-118289344D01*
X128944940Y-118358948D01*
X128956822Y-118407263D01*
X128979017Y-118437325D01*
X129013478Y-118452165D01*
X129048295Y-118455130D01*
X129087708Y-118451722D01*
X129113866Y-118438311D01*
X129130223Y-118420590D01*
X129143100Y-118401529D01*
X129150765Y-118380295D01*
X129154176Y-118350543D01*
X129154288Y-118305930D01*
X129153140Y-118268574D01*
X129150505Y-118212298D01*
X129146581Y-118175352D01*
X129139974Y-118151917D01*
X129129288Y-118136174D01*
X129119204Y-118127074D01*
X129077067Y-118107231D01*
X129027197Y-118104026D01*
X128998561Y-118110862D01*
X128970209Y-118135158D01*
X128951428Y-118182422D01*
X128942325Y-118252318D01*
X128941413Y-118289344D01*
X128803097Y-118289344D01*
X128803097Y-117977308D01*
X128872255Y-117977308D01*
G37*
X128872255Y-117977308D02*
X128913777Y-117978950D01*
X128935199Y-117984781D01*
X128941411Y-117996155D01*
X128941413Y-117996492D01*
X128944295Y-118007632D01*
X128957007Y-118006367D01*
X128982280Y-117994127D01*
X129041168Y-117975401D01*
X129107422Y-117973433D01*
X129170278Y-117987878D01*
X129196790Y-118000976D01*
X129229484Y-118023800D01*
X129253312Y-118048690D01*
X129269631Y-118079943D01*
X129279797Y-118121860D01*
X129285165Y-118178738D01*
X129287093Y-118254878D01*
X129287206Y-118287611D01*
X129286876Y-118359350D01*
X129285510Y-118410621D01*
X129282537Y-118446098D01*
X129277388Y-118470457D01*
X129269494Y-118488374D01*
X129261280Y-118500596D01*
X129208850Y-118552599D01*
X129147107Y-118583878D01*
X129080501Y-118593286D01*
X129013479Y-118579674D01*
X128992245Y-118570048D01*
X128941413Y-118543553D01*
X128941413Y-118958746D01*
X128978512Y-118939562D01*
X129027394Y-118924719D01*
X129087476Y-118920916D01*
X129147473Y-118927937D01*
X129192781Y-118943707D01*
X129230362Y-118973741D01*
X129262473Y-119016718D01*
X129264887Y-119021130D01*
X129275070Y-119041915D01*
X129282507Y-119062864D01*
X129287626Y-119088242D01*
X129290856Y-119122312D01*
X129292624Y-119169335D01*
X129293360Y-119233576D01*
X129293493Y-119305870D01*
X129293493Y-119536516D01*
X129155176Y-119536516D01*
X129155176Y-119111227D01*
X129116488Y-119078673D01*
X129076299Y-119052634D01*
X129038240Y-119047899D01*
X128999971Y-119060083D01*
X128979575Y-119072014D01*
X128964395Y-119089007D01*
X128953599Y-119114689D01*
X128946354Y-119152685D01*
X128941829Y-119206620D01*
X128939193Y-119280119D01*
X128938265Y-119329041D01*
X128935126Y-119530229D01*
X128869111Y-119534030D01*
X128803097Y-119537830D01*
X128803097Y-118289344D01*
X128941413Y-118289344D01*
X128944940Y-118358948D01*
X128956822Y-118407263D01*
X128979017Y-118437325D01*
X129013478Y-118452165D01*
X129048295Y-118455130D01*
X129087708Y-118451722D01*
X129113866Y-118438311D01*
X129130223Y-118420590D01*
X129143100Y-118401529D01*
X129150765Y-118380295D01*
X129154176Y-118350543D01*
X129154288Y-118305930D01*
X129153140Y-118268574D01*
X129150505Y-118212298D01*
X129146581Y-118175352D01*
X129139974Y-118151917D01*
X129129288Y-118136174D01*
X129119204Y-118127074D01*
X129077067Y-118107231D01*
X129027197Y-118104026D01*
X128998561Y-118110862D01*
X128970209Y-118135158D01*
X128951428Y-118182422D01*
X128942325Y-118252318D01*
X128941413Y-118289344D01*
X128803097Y-118289344D01*
X128803097Y-117977308D01*
X128872255Y-117977308D01*
%TD*%
D21*
%TO.C,W1*%
X148590000Y-130810000D03*
X146050000Y-130810000D03*
X143510000Y-130810000D03*
X140970000Y-130810000D03*
X138430000Y-130810000D03*
X135890000Y-130810000D03*
X133350000Y-130810000D03*
X130810000Y-130810000D03*
X130810000Y-107950000D03*
X133350000Y-107950000D03*
X135890000Y-107950000D03*
D22*
X138430000Y-107950000D03*
X140970000Y-107950000D03*
X143510000Y-107950000D03*
X146050000Y-107950000D03*
D23*
X148590000Y-107950000D03*
%TD*%
%TO.C,J2*%
X118110000Y-107950000D03*
D21*
X115570000Y-107950000D03*
X113030000Y-107950000D03*
X110490000Y-107950000D03*
%TD*%
D23*
%TO.C,J5*%
X116840000Y-130810000D03*
D21*
X119380000Y-130810000D03*
%TD*%
D24*
%TO.C,J7*%
X126365000Y-108458000D03*
%TD*%
D23*
%TO.C,C2*%
X110109000Y-130937000D03*
D21*
X112649000Y-130937000D03*
%TD*%
D25*
%TO.C,H1*%
X103886000Y-107950000D03*
%TD*%
%TO.C,H2*%
X153670000Y-130810000D03*
%TD*%
%TO.C,H3*%
X103886000Y-130810000D03*
%TD*%
M02*
